<svg width="1125" height="569" viewBox="0 0 1125 569" fill="none" xmlns="http://www.w3.org/2000/svg">
<path d="M498.828 569V568.596H493.151V568.191H487.879V567.787H484.229V567.382H480.579V566.978H476.929V566.574H474.495V566.169H471.656V565.765H469.223V565.36H466.79V564.956H464.356V564.552H462.329V564.147H460.301V563.743H458.273V563.338H456.245V562.934H454.218V562.529H452.19V562.125H450.568V561.721H448.946V561.316H447.323V560.912H445.296V560.507H443.673V560.103H442.457V559.699H440.835V559.294H439.212V558.89H437.996V558.485H436.373V558.081H435.157V557.677H433.94V557.272H432.723V556.868H431.101V556.463H429.885V556.059H428.668V555.655H427.451V555.25H426.235V554.846H425.018V554.441H423.801V554.037H422.99V553.633H421.774V553.228H420.557V552.824H419.34V552.419H418.124V552.015H417.313V551.611H416.096V551.206H415.285V550.802H414.068V550.397H413.257V549.993H412.04V549.588H410.824V549.184H410.013V548.78H409.202V548.375H407.985V547.971H407.174V547.566H406.363V547.162H405.146V546.758H404.335V546.353H403.118V545.949H402.307V545.544H401.496V545.14H400.685V544.736H399.468V544.331H398.657V543.927H397.846V543.522H397.035V543.118H396.224V542.714H395.413V542.309H394.196V541.905H393.385V541.5H392.574V541.096H391.763V540.692H390.952V540.287H390.141V539.883H389.329V539.478H388.518V539.074H387.707V538.67H386.896V538.265H386.085V537.861H385.274V537.456H384.463V537.052H383.652V536.647H382.841V536.243H382.03V535.839H381.218V535.434H380.407V535.03H379.596V534.625H379.191V534.221H378.38V533.817H377.569V533.412H376.757V533.008H375.946V532.603H375.135V532.199H374.324V531.795H373.919V531.39H373.107V530.986H372.296V530.581H371.485V530.177H371.08V529.773H370.269V529.368H369.457V528.964H369.052V528.559H368.241V528.155H367.43V527.751H366.619V527.346H366.213V526.942H365.402V526.537H364.591V526.133H364.185V525.729H363.374V525.324H362.563V524.92H362.158V524.515H361.346V524.111H360.941V523.706H360.13V523.302H359.319V522.898H358.913V522.493H358.102V522.089H357.696V521.684H356.885V521.28H356.074V520.876H355.669V520.471H354.858V520.067H354.452V519.662H353.641V519.258H353.235V518.854H352.424V518.449H352.019V518.045H351.208V517.64H350.802V517.236H349.991V516.832H349.585V516.427H349.18V516.023H348.369V515.618H347.963V515.214H347.152V514.81H346.747V514.405H345.935V514.001H345.53V513.596H344.719V513.192H344.313V512.787H343.502V512.383H343.097V511.979H342.691V511.574H341.88V511.17H341.474V510.765H341.069V510.361H340.258V509.957H339.852V509.552H339.447V509.148H338.636V508.743H338.23V508.339H337.824V507.935H337.013V507.53H336.608V507.126H336.202V506.721H335.391V506.317H334.986V505.913H334.58V505.508H333.769V505.104H333.363V504.699H332.958V504.295H332.552V503.891H332.147V503.486H331.336V503.082H330.93V502.677H330.525V502.273H330.119V501.869H329.308V501.464H328.902V501.06H328.497V500.655H328.091V500.251H327.686V499.846H326.875V499.442H326.469V499.038H326.063V498.633H325.658V498.229H324.847V497.824H324.441V497.42H324.036V497.016H323.63V496.611H323.225V496.207H322.819V495.802H322.413V495.398H321.602V494.994H321.197V494.589H320.791V494.185H320.386V493.78H319.98V493.376H319.575V492.972H319.169V492.567H318.763V492.163H318.358V491.758H317.547V491.354H317.141V490.95H316.736V490.545H316.33V490.141H315.925V489.736H315.519V489.332H315.114V488.928H314.708V488.523H314.302V488.119H313.897V487.714H313.491V487.31H313.086V486.905H312.68V486.501H312.275V486.097H311.869V485.692H311.464V485.288H311.058V484.883H310.652V484.479H310.247V484.075H309.841V483.67H309.436V483.266H309.03V482.861H308.625V482.457H308.219V482.053H307.814V481.648H307.408V481.244H307.003V480.839H306.597V480.435H306.191V480.031H305.786V479.626H305.38V479.222H304.975V478.817H304.569V478.413H304.164V478.009H303.758V477.604H303.353V477.2H302.947V476.795H302.541V475.986H302.136V475.582H301.73V475.178H301.325V474.773H300.919V474.369H300.514V473.964H300.108V473.56H299.703V473.156H299.297V472.751H298.891V472.347H298.486V471.942H298.08V471.134H297.675V470.729H297.269V470.325H296.864V469.92H296.458V469.516H296.053V468.707H295.647V468.303H295.242V467.898H294.836V467.494H294.43V466.685H294.025V466.281H293.619V465.876H293.214V465.472H292.808V465.068H292.403V464.259H291.997V463.854H291.592V463.45H291.186V463.045H290.78V462.237H290.375V461.832H289.969V461.428H289.564V461.023H289.158V460.215H288.753V459.81H288.347V459.001H287.942V458.597H287.536V458.193H287.13V457.384H286.725V456.979H286.319V456.575H285.914V455.766H285.508V455.362H285.103V454.553H284.697V454.149H284.292V453.744H283.886V452.935H283.481V452.531H283.075V451.722H282.669V451.318H282.264V450.913H281.858V450.104H281.453V449.7H281.047V448.891H280.642V448.082H280.236V447.678H279.831V446.869H279.425V446.465H279.019V445.656H278.614V444.847H278.208V444.443H277.803V443.634H277.397V443.23H276.992V442.421H276.586V442.016H276.181V441.208H275.775V440.399H275.37V439.994H274.964V439.186H274.558V438.377H274.153V437.568H273.747V437.163H273.342V436.355H272.936V435.546H272.531V434.737H272.125V433.928H271.72V433.119H271.314V432.715H270.908V431.906H270.503V431.097H270.097V430.289H269.692V429.48H269.286V428.671H268.881V427.862H268.475V427.053H268.07V426.244H267.664V425.436H267.258V424.627H266.853V423.818H266.447V422.605H266.042V421.796H265.636V420.987H265.231V420.178H264.825V419.37H264.42V418.156H264.014V417.348H263.609V416.539H263.203V415.73H262.797V414.517H262.392V413.708H261.986V412.495H261.581V411.281H261.175V410.473H260.77V409.259H260.364V408.046H259.959V407.237H259.553V406.024H259.147V404.811H258.742V404.002H258.336V402.789H257.931V401.171H257.525V399.958H257.12V398.34H256.714V397.127H256.309V395.914H255.903V394.296H255.497V393.083H255.092V391.466H254.686V390.252H254.281V388.635H253.875V386.613H253.47V384.591H253.064V382.973H252.659V380.951H252.253V378.929H251.848V377.311H251.442V374.885H251.036V372.054H250.631V369.223H250.225V365.988H249.82V363.157H249.414V359.113H249.009V352.238H248.603V327.569H249.009V323.121H249.414V318.268H249.82V313.819H250.225V310.989H250.631V308.562H251.036V305.731H251.442V303.305H251.848V300.878H252.253V298.048H252.659V295.621H253.064V294.004H253.47V292.386H253.875V290.364H254.281V288.746H254.686V287.129H255.092V285.107H255.497V283.489H255.903V281.467H256.309V279.849H256.714V278.232H257.12V276.614H257.525V275.401H257.931V274.188H258.336V272.57H258.742V271.357H259.147V270.144H259.553V268.526H259.959V267.313H260.364V266.1H260.77V264.482H261.175V263.269H261.581V262.055H261.986V260.438H262.392V259.225H262.797V258.011H263.203V256.798H263.609V255.989H264.014V254.776H264.42V253.563H264.825V252.35H265.231V251.136H265.636V250.328H266.042V249.114H266.447V247.901H266.853V246.688H267.258V245.475H267.664V244.666H268.07V243.453H268.475V242.644H268.881V241.431H269.286V240.622H269.692V239.409H270.097V238.6H270.503V237.387H270.908V236.578H271.314V235.769H271.72V234.96H272.125V233.747H272.531V232.938H272.936V232.129H273.342V231.321H273.747V230.512H274.153V229.299H274.558V228.894H274.964V228.085H275.37V227.277H275.775V226.468H276.181V225.659H276.586V224.85H276.992V224.041H277.397V223.232H277.803V222.424H278.208V221.615H278.614V221.21H279.019V220.402H279.425V219.593H279.831V218.784H280.236V217.975H280.642V217.166H281.047V216.762H281.453V215.953H281.858V215.549H282.264V214.74H282.669V213.931H283.075V213.527H283.481V212.718H283.886V211.909H284.292V211.505H284.697V210.696H285.103V209.887H285.508V209.483H285.914V208.674H286.319V208.269H286.725V207.461H287.13V207.056H287.536V206.247H287.942V205.843H288.347V205.034H288.753V204.63H289.158V203.821H289.564V203.417H289.969V203.012H290.375V202.203H290.78V201.799H291.186V200.99H291.592V200.586H291.997V200.181H292.403V199.372H292.808V198.968H293.214V198.159H293.619V197.755H294.025V197.35H294.43V196.542H294.836V196.137H295.242V195.733H295.647V194.924H296.053V194.52H296.458V194.115H296.864V193.711H297.269V192.902H297.675V192.498H298.08V192.093H298.486V191.689H298.891V190.88H299.297V190.475H299.703V190.071H300.108V189.667H300.514V188.858H300.919V188.453H301.325V188.049H301.73V187.645H302.136V187.24H302.541V186.431H302.947V186.027H303.353V185.623H303.758V185.218H304.164V184.814H304.569V184.409H304.975V184.005H305.38V183.601H305.786V182.792H306.191V182.387H306.597V181.983H307.003V181.579H307.408V181.174H307.814V180.77H308.219V180.365H308.625V179.961H309.03V179.152H309.436V178.748H309.841V178.343H310.247V177.939H310.652V177.535H311.058V177.13H311.464V176.726H311.869V176.321H312.275V175.917H312.68V175.512H313.086V175.108H313.491V174.704H313.897V174.299H314.302V173.895H314.708V173.49H315.114V173.086H315.519V172.682H315.925V172.277H316.33V171.873H316.736V171.468H317.141V171.064H317.547V170.66H317.952V170.255H318.358V169.851H318.763V169.446H319.169V169.042H319.575V168.638H319.98V168.233H320.386V167.829H320.791V167.424H321.197V167.02H322.008V166.616H322.413V166.211H322.819V165.807H323.225V165.402H323.63V164.998H324.036V164.593H324.441V164.189H324.847V163.785H325.252V163.38H326.063V162.976H326.469V162.571H326.875V162.167H327.28V161.763H327.686V161.358H328.091V160.954H328.497V160.549H328.902V160.145H329.308V159.741H330.119V159.336H330.525V158.932H330.93V158.527H331.336V158.123H331.741V157.719H332.552V157.314H332.958V156.91H333.363V156.505H333.769V156.101H334.58V155.697H334.986V155.292H335.391V154.888H335.797V154.483H336.202V154.079H337.013V153.675H337.419V153.27H337.824V152.866H338.23V152.461H339.041V152.057H339.447V151.652H339.852V151.248H340.258V150.844H341.069V150.439H341.474V150.035H342.285V149.63H342.691V149.226H343.097V148.822H343.908V148.417H344.313V148.013H344.719V147.608H345.53V147.204H345.935V146.8H346.341V146.395H347.152V145.991H347.558V145.586H347.963V145.182H348.774V144.778H349.18V144.373H349.585V143.969H350.397V143.564H350.802V143.16H351.613V142.756H352.019V142.351H352.83V141.947H353.235V141.542H354.047V141.138H354.452V140.733H355.263V140.329H355.669V139.925H356.48V139.52H356.885V139.116H357.696V138.711H358.102V138.307H358.913V137.903H359.319V137.498H360.13V137.094H360.535V136.689H361.346V136.285H361.752V135.881H362.563V135.476H362.969V135.072H363.78V134.667H364.591V134.263H364.996V133.859H365.808V133.454H366.619V133.05H367.024V132.645H367.835V132.241H368.646V131.837H369.052V131.432H369.863V131.028H370.269V130.623H371.08V130.219H371.891V129.815H372.296V129.41H373.107V129.006H373.919V128.601H374.73V128.197H375.135V127.792H375.946V127.388H376.757V126.984H377.569V126.579H378.38V126.175H379.191V125.77H379.596V125.366H380.407V124.962H381.218V124.557H382.03V124.153H382.841V123.748H383.246V123.344H384.057V122.94H384.868V122.535H385.68V122.131H386.491V121.726H387.302V121.322H388.113V120.918H388.924V120.513H389.735V120.109H390.546V119.704H391.357V119.3H392.168V118.896H392.979V118.491H393.791V118.087H394.602V117.682H395.413V117.278H396.224V116.874H397.035V116.469H397.846V116.065H399.063V115.66H399.874V115.256H400.685V114.851H401.496V114.447H402.307V114.043H403.524V113.638H404.335V113.234H405.146V112.829H405.957V112.425H407.174V112.021H407.985V111.616H408.796V111.212H409.607V110.807H410.824V110.403H411.635V109.999H412.851V109.594H413.663V109.19H414.879V108.785H415.69V108.381H416.907V107.977H417.718V107.572H418.935V107.168H419.746V106.763H420.963V106.359H421.774V105.955H422.99V105.55H424.207V105.146H425.424V104.741H426.235V104.337H427.451V103.933H428.668V103.528H429.885V103.124H431.101V102.719H431.912V102.315H433.129V101.91H434.346V101.506H435.562V101.102H436.779V100.697H437.996V100.293H439.618V99.8884H440.835V99.484H442.051V99.0796H443.268V98.6752H444.485V98.2708H446.107V97.8664H447.323V97.462H448.54V97.0576H450.162V96.6532H451.784V96.2488H453.001V95.8444H454.623V95.44H456.245V95.0355H457.868V94.6311H459.084V94.2268H460.707V93.8223H462.329V93.4179H463.951V93.0135H465.979V92.6091H467.601V92.2047H469.629V91.8003H471.251V91.3959H473.279V90.9915H474.901V90.5871H476.929V90.1827H479.362V89.7783H481.39V89.3739H483.823V88.9695H485.851V88.565H488.284V88.1607H491.123V87.7562H493.962V87.3518H496.801V86.9475H499.64V86.543H502.884V86.1386H506.939V85.7342H511.401V85.3298H515.456V84.9254H523.162V84.521H542.222V84.1166H542.628V84.521H553.172V84.9254H559.256V85.3298H563.717V85.7342H568.178V86.1386H571.422V86.543H574.261V86.9475H577.1V87.3518H579.939V87.7562H582.372V88.1607H584.4V88.565H586.833V88.9695H588.861V89.3739H590.889V89.7783H592.916V90.1827H594.944V90.5871H596.161V90.9915H597.783V91.3959H599.405V91.8003H601.027V92.2047H602.65V92.6091H604.272V93.0135H605.894V93.4179H607.111V93.8223H608.327V94.2268H609.95V94.6311H611.166V95.0355H612.383V95.44H613.599V95.8444H614.816V96.2488H616.033V96.6532H617.249V97.0576H618.466V97.462H619.683V97.8664H620.899V98.2708H621.711V98.6752H622.927V99.0796H624.144V99.484H624.955V99.8884H626.172V100.293H626.983V100.697H628.199V101.102H629.01V101.506H629.416V101.91H628.605V101.506H626.983V101.102H625.766V100.697H624.144V100.293H622.522V99.8884H620.899V99.484H619.277V99.0796H617.655V98.6752H616.033V98.2708H614.005V97.8664H611.572V97.462H609.138V97.0576H607.111V96.6532H604.677V96.2488H602.244V95.8444H598.189V95.44H593.322V95.0355H588.861V94.6311H571.017V95.0355H565.339V95.44H559.256V95.8444H556.417V96.2488H553.578V96.6532H550.739V97.0576H547.9V97.462H545.061V97.8664H542.628V98.2708H541.006V98.6752H538.978V99.0796H536.95V99.484H534.922V99.8884H533.3V100.293H531.273V100.697H529.245V101.102H528.028V101.506H526.406V101.91H525.189V102.315H523.567V102.719H521.945V103.124H520.728V103.528H519.106V103.933H517.889V104.337H516.267V104.741H515.05V105.146H513.834V105.55H512.617V105.955H511.401V106.359H510.184V106.763H508.967V107.168H507.751V107.572H506.534V107.977H505.317V108.381H504.101V108.785H503.289V109.19H502.073V109.594H500.856V109.999H499.64V110.403H498.828V110.807H497.612V111.212H496.801V111.616H495.584V112.021H494.773V112.425H493.962V112.829H492.745V113.234H491.934V113.638H490.717V114.043H489.906V114.447H488.69V114.851H487.879V115.256H486.662V115.66H485.851V116.065H485.04V116.469H484.229V116.874H483.417V117.278H482.606V117.682H481.795V118.087H480.984V118.491H479.767V118.896H478.956V119.3H478.145V119.704H477.334V120.109H476.523V120.513H475.712V120.918H474.901V121.322H474.09V121.726H473.279V122.131H472.468V122.535H471.656V122.94H470.845V123.344H470.034V123.748H469.223V124.153H468.412V124.557H467.601V124.962H467.195V125.366H466.384V125.77H465.573V126.175H464.762V126.579H463.951V126.984H463.14V127.388H462.734V127.792H461.923V128.197H461.112V128.601H460.301V129.006H459.49V129.41H458.679V129.815H458.273V130.219H457.462V130.623H456.651V131.028H456.245V131.432H455.434V131.837H454.623V132.241H454.218V132.645H453.407V133.05H453.001V133.454H452.19V133.859H451.379V134.263H450.973V134.667H450.162V135.072H449.351V135.476H448.946V135.881H448.134V136.285H447.729V136.689H446.918V137.094H446.107V137.498H445.701V137.903H444.89V138.307H444.485V138.711H443.673V139.116H443.268V139.52H442.457V139.925H442.051V140.329H441.24V140.733H440.835V141.138H440.023V141.542H439.618V141.947H438.807V142.351H438.401V142.756H437.996V143.16H437.185V143.564H436.779V143.969H435.968V144.373H435.562V144.778H434.751V145.182H434.346V145.586H433.535V145.991H433.129V146.395H432.723V146.8H431.912V147.204H431.507V147.608H430.696V148.013H430.29V148.417H429.885V148.822H429.074V149.226H428.668V149.63H428.262V150.035H427.857V150.439H427.046V150.844H426.64V151.248H426.235V151.652H425.424V152.057H425.018V152.461H424.612V152.866H423.801V153.27H423.396V153.675H422.99V154.079H422.585V154.483H421.774V154.888H421.368V155.292H420.963V155.697H420.151V156.101H419.746V156.505H419.34V156.91H418.529V157.314H418.124V157.719H417.718V158.123H417.313V158.527H416.907V158.932H416.501V159.336H415.69V159.741H415.285V160.145H414.879V160.549H414.474V160.954H414.068V161.358H413.663V161.763H412.851V162.167H412.446V162.571H412.04V162.976H411.635V163.38H411.229V163.785H410.824V164.189H410.013V164.593H409.607V164.998H409.202V165.402H408.796V165.807H408.39V166.211H407.985V166.616H407.174V167.02H406.768V167.424H406.363V167.829H405.957V168.233H405.552V168.638H405.146V169.042H404.74V169.446H404.335V169.851H403.929V170.255H403.524V170.66H403.118V171.064H402.713V171.468H402.307V171.873H401.902V172.277H401.496V172.682H401.09V173.086H400.279V173.49H399.874V173.895H399.468V174.299H399.063V174.704H398.657V175.108H398.252V175.512H397.846V175.917H397.441V176.321H397.035V176.726H396.629V177.13H396.224V177.535H395.818V177.939H395.413V178.343H395.007V178.748H394.602V179.152H394.196V179.557H393.791V179.961H393.385V180.365H392.979V180.77H392.574V181.174H392.168V181.579H391.763V181.983H391.357V182.387H390.952V182.792H390.546V183.601H390.141V184.005H389.735V184.409H389.329V184.814H388.924V185.218H388.518V185.623H388.113V186.027H387.707V186.431H387.302V186.836H386.896V187.24H386.491V187.645H386.085V188.049H385.68V188.453H385.274V188.858H384.868V189.262H384.463V189.667H384.057V190.475H383.652V190.88H383.246V191.284H382.841V191.689H382.435V192.093H382.03V192.902H381.624V193.306H381.218V193.711H380.813V194.115H380.407V194.52H380.002V194.924H379.596V195.733H379.191V196.137H378.785V196.542H378.38V196.946H377.974V197.35H377.569V198.159H377.163V198.564H376.757V198.968H376.352V199.372H375.946V199.777H375.541V200.181H375.135V200.99H374.73V201.395H374.324V201.799H373.919V202.203H373.513V203.012H373.107V203.417H372.702V203.821H372.296V204.63H371.891V205.034H371.485V205.439H371.08V206.247H370.674V206.652H370.269V207.056H369.863V207.865H369.457V208.269H369.052V208.674H368.646V209.483H368.241V209.887H367.835V210.291H367.43V211.1H367.024V211.505H366.619V211.909H366.213V212.718H365.808V213.122H365.402V213.527H364.996V214.335H364.591V214.74H364.185V215.549H363.78V215.953H363.374V216.762H362.969V217.166H362.563V217.975H362.158V218.38H361.752V219.188H361.346V219.593H360.941V220.402H360.535V220.806H360.13V221.615H359.724V222.019H359.319V222.828H358.913V223.232H358.508V224.041H358.102V224.446H357.696V225.254H357.291V225.659H356.885V226.468H356.48V226.872H356.074V227.681H355.669V228.49H355.263V228.894H354.858V229.703H354.452V230.512H354.047V231.321H353.641V231.725H353.235V232.534H352.83V233.343H352.424V234.151H352.019V234.556H351.613V235.365H351.208V236.173H350.802V236.982H350.397V237.387H349.991V238.195H349.585V239.004H349.18V239.813H348.774V240.218H348.369V241.026H347.963V241.835H347.558V242.644H347.152V243.453H346.747V244.262H346.341V245.07H345.935V245.879H345.53V246.688H345.124V247.901H344.719V248.71H344.313V249.519H343.908V250.328H343.502V251.136H343.097V251.945H342.691V252.754H342.285V253.563H341.88V254.372H341.474V255.181H341.069V256.394H340.663V257.203H340.258V258.416H339.852V259.225H339.447V260.438H339.041V261.247H338.636V262.055H338.23V263.269H337.824V264.077H337.419V265.291H337.013V266.1H336.608V267.313H336.202V268.122H335.797V269.335H335.391V270.548H334.986V271.761H334.58V272.974H334.174V274.188H333.769V275.401H333.363V277.019H332.958V278.232H332.552V279.445H332.147V280.658H331.741V281.871H331.336V283.085H330.93V284.702H330.525V286.32H330.119V288.342H329.713V289.96H329.308V291.577H328.902V293.195H328.497V294.812H328.091V296.43H327.686V298.856H327.28V301.283H326.875V304.114H326.469V306.54H326.063V308.967H325.658V311.797H325.252V316.65H324.847V322.716H324.441V342.128H324.847V345.768H325.252V349.812H325.658V353.451H326.063V357.091H326.469V359.113H326.875V360.731H327.28V362.753H327.686V364.775H328.091V366.797H328.497V368.819H328.902V370.841H329.308V372.458H329.713V374.076H330.119V375.289H330.525V376.907H330.93V378.12H331.336V379.738H331.741V380.951H332.147V382.569H332.552V383.782H332.958V384.995H333.363V386.208H333.769V387.017H334.174V387.826H334.58V388.635H334.986V389.848H335.391V390.252H335.797V391.061H336.202V391.87H336.608V392.679H337.013V393.488H337.419V394.296H337.824V395.105H338.23V395.914H338.636V396.723H339.041V397.532H339.447V397.936H339.852V398.745H340.258V399.554H340.663V399.958H341.069V400.767H341.474V401.576H341.88V401.98H342.285V402.789H342.691V403.598H343.097V404.407H343.502V404.811H343.908V405.62H344.313V406.429H344.719V406.833H345.124V407.642H345.53V408.046H345.935V408.855H346.341V409.259H346.747V410.068H347.152V410.473H347.558V411.281H347.963V411.686H348.369V412.495H348.774V412.899H349.18V413.708H349.585V414.112H349.991V414.921H350.397V415.326H350.802V416.134H351.208V416.539H351.613V417.348H352.019V417.752H352.424V418.156H352.83V418.965H353.235V419.37H353.641V419.774H354.047V420.583H354.452V420.987H354.858V421.392H355.263V422.2H355.669V422.605H356.074V423.009H356.48V423.818H356.885V424.222H357.291V424.627H357.696V425.436H358.102V425.84H358.508V426.244H358.913V426.649H359.319V427.053H359.724V427.458H360.13V428.267H360.535V428.671H360.941V429.075H361.346V429.48H361.752V429.884H362.158V430.693H362.563V431.097H362.969V431.502H363.374V431.906H363.78V432.311H364.185V432.715H364.591V433.524H364.996V433.928H365.402V434.333H365.808V434.737H366.213V435.141H366.619V435.546H367.024V435.95H367.43V436.355H367.835V436.759H368.241V437.163H368.646V437.568H369.052V437.972H369.457V438.377H369.863V438.781H370.269V439.186H370.674V439.59H371.08V439.994H371.485V440.399H371.891V440.803H372.296V441.612H373.107V442.016H373.513V442.421H373.919V442.825H374.324V443.23H374.73V443.634H375.135V444.038H375.541V444.443H375.946V444.847H376.352V445.252H376.757V445.656H377.163V446.06H377.569V446.465H377.974V446.869H378.38V447.274H379.191V447.678H379.596V448.082H380.002V448.487H380.407V448.891H380.813V449.296H381.218V449.7H381.624V450.104H382.435V450.509H382.841V450.913H383.246V451.318H383.652V451.722H384.057V452.127H384.868V452.531H385.274V452.935H385.68V453.34H386.085V453.744H386.491V454.149H387.302V454.553H387.707V454.957H388.113V455.362H388.518V455.766H389.329V456.171H389.735V456.575H390.141V456.979H390.952V457.384H391.357V457.788H391.763V458.193H392.574V458.597H392.979V459.001H393.385V459.406H394.196V459.81H394.602V460.215H395.007V460.619H395.818V461.023H396.224V461.428H396.629V461.832H397.441V462.237H397.846V462.641H398.657V463.045H399.063V463.45H399.874V463.854H400.279V464.259H401.09V464.663H401.496V465.068H402.307V465.472H402.713V465.876H403.524V466.281H403.929V466.685H404.74V467.09H405.146V467.494H405.957V467.898H406.768V468.303H407.174V468.707H407.985V469.112H408.796V469.516H409.202V469.92H410.013V470.325H410.824V470.729H411.635V471.134H412.04V471.538H412.851V471.942H413.663V472.347H414.068V472.751H414.879V473.156H415.69V473.56H416.501V473.964H417.313V474.369H418.124V474.773H418.529V475.178H419.34V475.582H420.151V475.986H420.963V476.391H421.774V476.795H422.585V477.2H423.396V477.604H424.207V478.009H425.018V478.413H425.829V478.817H426.64V479.222H427.451V479.626H428.262V480.031H429.479V480.435H430.29V480.839H431.101V481.244H431.912V481.648H432.723V482.053H433.535V482.457H434.346V482.861H435.562V483.266H436.373V483.67H437.59V484.075H438.401V484.479H439.618V484.883H440.429V485.288H441.24V485.692H442.457V486.097H443.268V486.501H444.485V486.905H445.296V487.31H446.512V487.714H447.729V488.119H448.946V488.523H450.162V488.928H450.973V489.332H452.19V489.736H453.407V490.141H454.623V490.545H455.84V490.95H457.057V491.354H458.273V491.758H459.49V492.163H460.707V492.567H461.923V492.972H463.545V493.376H464.762V493.78H465.979V494.185H467.601V494.589H468.818V494.994H470.44V495.398H472.062V495.802H473.279V496.207H474.901V496.611H476.523V497.016H478.145V497.42H479.767V497.824H481.39V498.229H483.012V498.633H485.04V499.038H486.662V499.442H488.284V499.846H490.312V500.251H492.34V500.655H494.367V501.06H496.801V501.464H498.828V501.869H500.856V502.273H503.289V502.677H505.723V503.082H508.156V503.486H510.589V503.891H513.428V504.295H516.673V504.699H519.512V505.104H522.756V505.508H526V505.913H530.056V506.317H533.706V506.721H538.167V507.126H543.439V507.53H548.711V507.935H556.011V508.339H565.339V508.743H607.516V508.339H618.466V507.935H626.577V507.53H633.066V507.126H639.149V506.721H644.827V506.317H649.694V505.913H654.966V505.508H659.427V505.104H663.482V504.699H667.943V504.295H671.593V503.891H675.649V503.486H679.299V503.082H682.949V502.677H686.599V502.273H689.843V501.869H693.088V501.464H696.332V501.06H699.576V500.655H702.821V500.251H705.66V499.846H708.904V499.442H711.743V499.038H714.582V498.633H717.421V498.229H720.26V497.824H723.098V497.42H725.937V497.016H728.776V496.611H731.209V496.207H734.048V495.802H736.482V495.398H739.32V494.994H741.754V494.589H744.593V494.185H747.026V493.78H749.459V493.376H751.893V492.972H754.326V492.567H756.759V492.163H759.193V491.758H761.626V491.354H764.059V490.95H766.087V490.545H768.52V490.141H770.954V489.736H773.387V489.332H775.415V488.928H777.848V488.523H779.876V488.119H782.309V487.714H784.742V487.31H786.77V486.905H788.798V486.501H791.231V486.097H793.259V485.692H795.287V485.288H797.72V484.883H799.748V484.479H801.775V484.075H804.209V483.67H806.237V483.266H808.264V482.861H810.292V482.457H812.32V482.053H814.348V481.648H816.375V481.244H818.809V480.839H820.836V480.435H822.864V480.031H824.892V479.626H826.92V479.222H828.947V478.817H830.975V478.413H832.597V478.009H834.625V477.604H836.653V477.2H838.681V476.795H840.708V476.391H842.736V475.986H844.764V475.582H846.792V475.178H848.414V474.773H850.442V474.369H852.469V473.964H854.497V473.56H856.525V473.156H858.147V472.751H860.175V472.347H862.203V471.942H863.825V471.538H865.853V471.134H867.88V470.729H869.908V470.325H871.53V469.92H873.558V469.516H875.586V469.112H877.208V468.707H879.236V468.303H880.858V467.898H882.886V467.494H884.913V467.09H886.536V466.685H888.563V466.281H890.186V465.876H892.213V465.472H894.241V465.068H895.863V464.663H897.891V464.259H899.513V463.854H901.541V463.45H903.163V463.045H905.191V462.641H906.813V462.237H908.841V461.832H910.463V461.428H912.491V461.023H914.113V460.619H916.141V460.215H917.763V459.81H919.791V459.406H921.413V459.001H923.441V458.597H925.063V458.193H927.091V457.788H928.713V457.384H930.741V456.979H932.363V456.575H934.391V456.171H936.013V455.766H938.041V455.362H939.663V454.957H941.285V454.553H943.313V454.149H944.935V453.744H946.963V453.34H948.585V452.935H950.613V452.531H952.235V452.127H954.263V451.722H955.885V451.318H957.507V450.913H959.535V450.509H961.157V450.104H963.185V449.7H964.807V449.296H966.835V448.891H968.457V448.487H970.485V448.082H972.107V447.678H973.729V447.274H975.757V446.869H977.379V446.465H979.407V446.06H981.029V445.656H983.057V445.252H984.679V444.847H986.707V444.443H988.329V444.038H990.357V443.634H991.979V443.23H994.007V442.825H995.629V442.421H997.657V442.016H999.279V441.612H1001.31V441.208H1002.93V440.803H1004.96V440.399H1006.58V439.994H1008.61V439.59H1010.23V439.186H1012.26V438.781H1013.88V438.377H1015.91V437.972H1017.53V437.568H1019.56V437.163H1021.18V436.759H1023.21V436.355H1025.23V435.95H1026.86V435.546H1028.88V435.141H1030.51V434.737H1032.53V434.333H1034.56V433.928H1036.18V433.524H1038.21V433.119H1040.24V432.715H1041.86V432.311H1043.89V431.906H1045.92V431.502H1047.54V431.097H1049.57V430.693H1051.6V430.289H1053.22V429.884H1055.25V429.48H1057.27V429.075H1059.3V428.671H1061.33V428.267H1062.95V427.862H1064.98V427.458H1067.01V427.053H1069.03V426.649H1071.06V426.244H1073.09V425.84H1075.12V425.436H1077.14V425.031H1079.17V424.627H1081.2V424.222H1083.23V423.818H1085.26V423.414H1087.28V423.009H1089.31V422.605H1091.34V422.2H1093.37V421.796H1095.8V421.392H1097.83V420.987H1099.86V420.583H1101.88V420.178H1104.32V419.774H1106.34V419.37H1108.37V418.965H1110.81V418.561H1112.83V418.156H1115.27V417.752H1117.29V417.348H1119.73V416.943H1122.16V416.539H1124.19V416.134H1125V416.943H1123.38V417.348H1122.16V417.752H1120.94V418.156H1119.32V418.561H1118.11V418.965H1116.48V419.37H1115.27V419.774H1114.05V420.178H1112.43V420.583H1111.21V420.987H1109.59V421.392H1108.37V421.796H1107.16V422.2H1105.53V422.605H1104.32V423.009H1102.69V423.414H1101.48V423.818H1099.86V424.222H1098.64V424.627H1097.42V425.031H1095.8V425.436H1094.58V425.84H1092.96V426.244H1091.74V426.649H1090.53V427.053H1088.91V427.458H1087.69V427.862H1086.07V428.267H1084.85V428.671H1083.23V429.075H1082.01V429.48H1080.79V429.884H1079.17V430.289H1077.96V430.693H1076.33V431.097H1075.12V431.502H1073.49V431.906H1072.28V432.311H1071.06V432.715H1069.44V433.119H1068.22V433.524H1066.6V433.928H1065.38V434.333H1063.76V434.737H1062.55V435.141H1061.33V435.546H1059.71V435.95H1058.49V436.355H1056.87V436.759H1055.65V437.163H1054.03V437.568H1052.81V437.972H1051.19V438.377H1049.97V438.781H1048.76V439.186H1047.13V439.59H1045.92V439.994H1044.3V440.399H1043.08V440.803H1041.46V441.208H1040.24V441.612H1038.62V442.016H1037.4V442.421H1036.18V442.825H1034.56V443.23H1033.35V443.634H1031.72V444.038H1030.51V444.443H1028.88V444.847H1027.67V445.252H1026.05V445.656H1024.83V446.06H1023.21V446.465H1021.99V446.869H1020.77V447.274H1019.15V447.678H1017.93V448.082H1016.31V448.487H1015.1V448.891H1013.47V449.296H1012.26V449.7H1010.63V450.104H1009.42V450.509H1007.8V450.913H1006.58V451.318H1004.96V451.722H1003.74V452.127H1002.52V452.531H1000.9V452.935H999.685V453.34H998.062V453.744H996.846V454.149H995.224V454.553H994.007V454.957H992.385V455.362H991.168V455.766H989.546V456.171H988.329V456.575H986.707V456.979H985.49V457.384H983.868V457.788H982.651V458.193H981.029V458.597H979.812V459.001H978.596V459.406H976.974V459.81H975.757V460.215H974.135V460.619H972.918V461.023H971.296V461.428H970.079V461.832H968.457V462.237H967.24V462.641H965.618V463.045H964.402V463.45H962.779V463.854H961.563V464.259H959.941V464.663H958.724V465.068H957.102V465.472H955.885V465.876H954.263V466.281H953.046V466.685H951.424V467.09H950.207V467.494H948.585V467.898H947.368V468.303H945.746V468.707H944.53V469.112H942.907V469.516H941.691V469.92H940.069V470.325H938.852V470.729H937.23V471.134H936.013V471.538H934.391V471.942H933.174V472.347H931.552V472.751H930.335V473.156H928.713V473.56H927.496V473.964H925.874V474.369H924.657V474.773H923.035V475.178H921.819V475.582H920.196V475.986H918.98V476.391H917.358V476.795H916.141V477.2H914.519V477.604H913.302V478.009H911.68V478.413H910.058V478.817H908.841V479.222H907.219V479.626H906.002V480.031H904.38V480.435H903.163V480.839H901.541V481.244H900.324V481.648H898.702V482.053H897.486V482.457H895.863V482.861H894.647V483.266H893.025V483.67H891.808V484.075H890.186V484.479H888.969V484.883H887.347V485.288H885.725V485.692H884.508V486.097H882.886V486.501H881.669V486.905H880.047V487.31H878.83V487.714H877.208V488.119H875.991V488.523H874.369V488.928H873.153V489.332H871.53V489.736H869.908V490.141H868.691V490.545H867.069V490.95H865.853V491.354H864.23V491.758H863.014V492.163H861.391V492.567H860.175V492.972H858.553V493.376H856.93V493.78H855.714V494.185H854.092V494.589H852.875V494.994H851.253V495.398H849.63V495.802H848.414V496.207H846.792V496.611H845.575V497.016H843.953V497.42H842.736V497.824H841.114V498.229H839.492V498.633H838.275V499.038H836.653V499.442H835.436V499.846H833.814V500.251H832.597V500.655H830.975V501.06H829.353V501.464H828.136V501.869H826.514V502.273H825.297V502.677H823.675V503.082H822.053V503.486H820.836V503.891H819.214V504.295H817.997V504.699H816.375V505.104H814.753V505.508H813.536V505.913H811.914V506.317H810.292V506.721H809.075V507.126H807.453V507.53H806.237V507.935H804.614V508.339H802.992V508.743H801.775V509.148H800.153V509.552H798.531V509.957H797.314V510.361H795.692V510.765H794.475V511.17H792.853V511.574H791.231V511.979H790.014V512.383H788.392V512.787H786.77V513.192H785.553V513.596H783.931V514.001H782.309V514.405H781.092V514.81H779.47V515.214H777.848V515.618H776.631V516.023H775.009V516.427H773.387V516.832H772.17V517.236H770.548V517.64H768.926V518.045H767.709V518.449H766.087V518.854H764.465V519.258H763.248V519.662H761.626V520.067H760.004V520.471H758.787V520.876H757.165V521.28H755.542V521.684H753.92V522.089H752.704V522.493H751.081V522.898H749.459V523.302H748.243V523.706H746.62V524.111H744.998V524.515H743.376V524.92H742.159V525.324H740.537V525.729H738.915V526.133H737.293V526.537H736.076V526.942H734.454V527.346H732.832V527.751H731.209V528.155H729.993V528.559H728.371V528.964H726.748V529.368H725.126V529.773H723.909V530.177H722.287V530.581H720.665V530.986H719.043V531.39H717.421V531.795H716.204V532.199H714.582V532.603H712.96V533.008H711.337V533.412H709.715V533.817H708.499V534.221H706.876V534.625H705.254V535.03H703.632V535.434H702.01V535.839H700.387V536.243H698.765V536.647H697.549V537.052H695.926V537.456H694.304V537.861H692.682V538.265H691.06V538.67H689.438V539.074H687.815V539.478H686.193V539.883H684.571V540.287H682.949V540.692H681.327V541.096H680.11V541.5H678.488V541.905H676.866V542.309H675.243V542.714H673.621V543.118H671.999V543.522H670.377V543.927H668.754V544.331H666.727V544.736H665.105V545.14H663.482V545.544H661.86V545.949H660.238V546.353H658.616V546.758H656.994V547.162H655.371V547.566H653.749V547.971H651.721V548.375H650.099V548.78H648.477V549.184H646.855V549.588H645.233V549.993H643.205V550.397H641.583V550.802H639.555V551.206H637.933V551.611H636.31V552.015H634.283V552.419H632.66V552.824H630.633V553.228H629.01V553.633H626.983V554.037H624.955V554.441H623.333V554.846H621.305V555.25H619.277V555.655H617.655V556.059H615.627V556.463H613.599V556.868H611.572V557.272H609.544V557.677H607.516V558.081H605.894V558.485H603.461V558.89H601.433V559.294H599.405V559.699H597.377V560.103H595.35V560.507H593.322V560.912H590.889V561.316H588.455V561.721H586.427V562.125H583.994V562.529H581.967V562.934H579.533V563.338H576.694V563.743H574.261V564.147H571.828V564.552H568.989V564.956H566.15V565.36H563.311V565.765H560.067V566.169H557.228V566.574H553.578V566.978H549.928V567.382H546.278V567.787H541.411V568.191H536.139V568.596H528.839V569H498.828ZM576.694 484.479V484.075H568.178V483.67H563.311V483.266H558.85V482.861H554.795V482.457H551.956V482.053H549.117V481.648H546.278V481.244H543.439V480.839H541.411V480.435H539.384V480.031H537.356V479.626H534.922V479.222H532.895V478.817H530.867V478.413H529.245V478.009H527.623V477.604H526V477.2H524.784V476.795H523.162V476.391H521.539V475.986H519.917V475.582H518.295V475.178H517.078V474.773H515.862V474.369H514.645V473.964H513.023V473.56H511.806V473.156H510.589V472.751H509.373V472.347H508.156V471.942H506.939V471.538H505.723V471.134H504.506V470.729H503.695V470.325H502.478V469.92H501.667V469.516H500.451V469.112H499.234V468.707H498.423V468.303H497.206V467.898H496.395V467.494H495.584V467.09H495.178V466.685H495.99V467.09H497.206V467.494H498.423V467.898H499.64V468.303H501.262V468.707H502.884V469.112H504.506V469.516H506.128V469.92H507.751V470.325H509.778V470.729H512.212V471.134H514.239V471.538H516.673V471.942H519.106V472.347H521.539V472.751H524.378V473.156H529.245V473.56H533.706V473.964H556.822V473.56H562.5V473.156H567.367V472.751H570.205V472.347H573.044V471.942H575.883V471.538H578.722V471.134H581.155V470.729H583.183V470.325H585.211V469.92H586.833V469.516H588.861V469.112H590.889V468.707H592.916V468.303H594.539V467.898H596.161V467.494H597.783V467.09H599V466.685H600.622V466.281H602.244V465.876H603.461V465.472H605.083V465.068H606.3V464.663H607.922V464.259H609.544V463.854H610.761V463.45H611.977V463.045H613.194V462.641H614.005V462.237H615.222V461.832H616.438V461.428H617.655V461.023H618.872V460.619H620.088V460.215H621.305V459.81H622.522V459.406H623.738V459.001H624.549V458.597H625.766V458.193H626.577V457.788H627.794V457.384H628.605V456.979H629.822V456.575H630.633V456.171H631.444V455.766H632.66V455.362H633.472V454.957H634.688V454.553H635.499V454.149H636.716V453.744H637.527V453.34H638.744V452.935H639.555V452.531H640.366V452.127H641.177V451.722H641.988V451.318H642.799V450.913H643.61V450.509H644.421V450.104H645.233V449.7H646.449V449.296H647.26V448.891H648.071V448.487H648.883V448.082H649.694V447.678H650.505V447.274H651.316V446.869H652.127V446.465H652.938V446.06H653.749V445.656H654.56V445.252H655.371V444.847H656.182V444.443H656.588V444.038H657.399V443.634H658.21V443.23H659.021V442.825H659.832V442.421H660.643V442.016H661.049V441.612H661.86V441.208H662.671V440.803H663.482V440.399H664.293V439.994H665.105V439.59H665.51V439.186H666.321V438.781H667.132V438.377H667.943V437.972H668.349V437.568H669.16V437.163H669.971V436.759H670.377V436.355H671.188V435.95H671.593V435.546H672.404V435.141H673.216V434.737H673.621V434.333H674.432V433.928H675.243V433.524H675.649V433.119H676.46V432.715H676.866V432.311H677.677V431.906H678.488V431.502H678.893V431.097H679.704V430.693H680.516V430.289H680.921V429.884H681.327V429.48H682.138V429.075H682.543V428.671H683.354V428.267H683.76V427.862H684.571V427.458H684.977V427.053H685.788V426.649H686.193V426.244H686.599V425.84H687.41V425.436H687.815V425.031H688.626V424.627H689.032V424.222H689.843V423.818H690.249V423.414H691.06V423.009H691.465V422.605H692.277V422.2H692.682V421.796H693.088V421.392H693.899V420.987H694.304V420.583H694.71V420.178H695.521V419.774H695.926V419.37H696.332V418.965H697.143V418.561H697.549V418.156H697.954V417.752H698.36V417.348H699.171V416.943H699.576V416.539H699.982V416.134H700.793V415.73H701.199V415.326H701.604V414.921H702.415V414.517H702.821V414.112H703.226V413.708H703.632V413.303H704.443V412.899H704.849V412.495H705.254V412.09H706.065V411.686H706.471V411.281H706.876V410.877H707.282V410.473H707.687V410.068H708.499V409.664H708.904V409.259H709.31V408.855H709.715V408.451H710.121V408.046H710.526V407.642H711.337V407.237H711.743V406.833H712.149V406.429H712.554V406.024H712.96V405.62H713.365V405.215H714.176V404.811H714.582V404.407H714.987V404.002H715.393V403.598H715.799V403.193H716.204V402.789H717.015V402.385H717.421V401.98H717.826V401.576H718.232V401.171H718.637V400.767H719.043V400.362H719.448V399.958H719.854V399.554H720.26V399.149H720.665V398.745H721.071V398.34H721.882V397.936H722.287V397.532H722.693V397.127H723.098V396.723H723.504V396.318H723.909V395.914H724.315V395.51H724.721V395.105H725.126V394.701H725.532V394.296H725.937V393.892H726.343V393.488H726.748V393.083H727.154V392.679H727.559V392.274H727.965V391.87H728.371V391.466H728.776V391.061H729.182V390.657H729.587V390.252H729.993V389.848H730.398V389.444H730.804V389.039H731.209V388.635H731.615V388.23H732.021V387.826H732.426V387.421H732.832V387.017H733.237V386.613H733.643V386.208H734.048V385.804H734.454V385.399H734.859V384.995H735.265V384.591H735.671V384.186H736.076V383.782H736.482V382.973H736.887V382.569H737.293V382.164H737.698V381.76H738.104V381.355H738.509V380.951H738.915V380.547H739.32V380.142H739.726V379.738H740.132V379.333H740.537V378.929H740.943V378.525H741.348V377.716H741.754V377.311H742.159V376.907H742.565V376.502H742.97V376.098H743.376V375.694H743.782V374.885H744.187V374.48H744.593V374.076H744.998V373.672H745.404V373.267H745.809V372.458H746.215V372.054H746.62V371.65H747.026V371.245H747.432V370.841H747.837V370.436H748.243V369.628H748.648V369.223H749.054V368.819H749.459V368.414H749.865V368.01H750.27V367.201H750.676V366.797H751.081V366.392H751.487V365.988H751.893V365.179H752.298V364.775H752.704V364.37H753.109V363.561H753.515V363.157H753.92V362.753H754.326V361.944H754.731V361.539H755.137V361.135H755.542V360.326H755.948V359.922H756.354V359.517H756.759V358.709H757.165V358.304H757.57V357.9H757.976V357.091H758.381V356.687H758.787V356.282H759.193V355.473H759.598V355.069H760.004V354.665H760.409V353.856H760.815V353.451H761.22V352.643H761.626V352.238H762.031V351.429H762.437V351.025H762.842V350.216H763.248V349.407H763.654V349.003H764.059V348.194H764.465V347.79H764.87V346.981H765.276V346.576H765.681V345.768H766.087V345.363H766.492V344.554H766.898V344.15H767.304V343.341H767.709V342.937H768.115V342.128H768.52V341.724H768.926V340.915H769.331V340.106H769.737V339.701H770.142V338.893H770.548V338.084H770.954V337.275H771.359V336.871H771.765V336.062H772.17V335.253H772.576V334.444H772.981V334.04H773.387V333.231H773.792V332.422H774.198V332.018H774.603V331.209H775.009V330.4H775.415V329.591H775.82V329.187H776.226V328.378H776.631V327.569H777.037V326.76H777.442V325.952H777.848V325.143H778.253V324.334H778.659V323.525H779.064V322.716H779.47V321.908H779.876V321.099H780.281V320.29H780.687V319.077H781.092V318.268H781.498V317.459H781.903V316.65H782.309V315.842H782.714V315.033H783.12V314.224H783.526V313.415H783.931V312.202H784.337V311.393H784.742V310.18H785.148V309.371H785.553V308.158H785.959V307.349H786.364V306.54H786.77V305.327H787.176V304.518H787.581V303.305H787.987V302.496H788.392V301.283H788.798V300.474H789.203V299.261H789.609V298.048H790.014V296.834H790.42V295.621H790.825V294.004H791.231V292.79H791.637V291.577H792.042V290.364H792.448V289.151H792.853V287.937H793.259V286.724H793.664V285.107H794.07V283.489H794.475V281.871H794.881V280.254H795.287V278.636H795.692V277.019H796.098V274.996H796.503V273.379H796.909V271.761H797.314V269.335H797.72V266.908H798.125V264.482H798.531V261.651H798.937V259.225H799.342V256.394H799.748V250.732H800.153V245.07H800.559V228.894H800.153V223.637H799.748V219.997H799.342V216.358H798.937V212.718H798.531V210.291H798.125V208.269H797.72V206.247H797.314V204.225H796.909V202.203H796.503V200.586H796.098V198.564H795.692V196.542H795.287V195.328H794.881V193.711H794.475V192.498H794.07V190.88H793.664V189.667H793.259V188.049H792.853V186.836H792.448V185.218H792.042V184.005H791.637V183.196H791.231V181.983H790.825V181.174H790.42V179.961H790.014V179.152H789.609V178.343H789.203V177.939H788.798V177.13H788.392V176.321H787.987V175.512H787.581V174.704H787.176V173.895H786.77V173.086H786.364V172.277H785.959V171.468H785.553V171.064H785.148V170.255H784.742V169.446H784.337V169.042H783.931V168.233H783.526V167.424H783.12V166.616H782.714V166.211H782.309V165.402H781.903V164.593H781.498V164.189H781.092V163.38H780.687V162.571H780.281V162.167H779.876V161.358H779.47V160.549H779.064V160.145H778.659V159.336H778.253V158.932H777.848V158.123H777.442V157.719H777.037V156.91H776.631V156.505H776.226V155.697H775.82V155.292H775.415V154.483H775.009V154.079H774.603V153.27H774.198V152.866H773.792V152.057H773.387V151.652H772.981V151.248H772.576V150.439H772.17V150.035H771.765V149.63H771.359V149.226H770.954V148.417H770.548V148.013H770.142V147.608H769.737V146.8H769.331V146.395H768.926V145.991H768.52V145.182H768.115V144.778H767.709V144.373H767.304V143.564H766.898V143.16H766.492V142.756H766.087V142.351H765.681V141.542H765.276V141.138H764.87V140.733H764.465V140.329H764.059V139.925H763.654V139.52H763.248V138.711H762.842V138.307H762.437V137.903H762.031V137.498H761.626V137.094H761.22V136.689H760.815V135.881H760.409V135.476H760.004V135.072H759.598V134.667H759.193V134.263H758.787V133.859H758.381V133.454H757.976V133.05H757.57V132.645H757.165V132.241H756.759V131.837H756.354V131.432H755.948V131.028H755.542V130.623H755.137V129.815H754.731V129.41H754.326V129.006H753.92V128.601H753.515V128.197H753.109V127.792H752.704V127.388H752.298V126.984H751.893V126.579H751.487V126.175H751.081V125.77H750.676V125.366H749.865V124.962H749.459V124.557H749.054V124.153H748.648V123.748H748.243V123.344H747.837V122.94H747.432V122.535H747.026V122.131H746.62V121.726H746.215V121.322H745.809V120.918H745.404V120.513H744.998V120.109H744.187V119.704H743.782V119.3H743.376V118.896H742.97V118.491H742.565V118.087H741.754V117.682H741.348V117.278H740.943V116.874H740.537V116.469H740.132V116.065H739.32V115.66H738.915V115.256H738.509V114.851H738.104V114.447H737.698V114.043H736.887V113.638H736.482V113.234H736.076V112.829H735.671V112.425H734.859V112.021H734.454V111.616H734.048V111.212H733.237V110.807H732.832V110.403H732.426V109.999H731.615V109.594H731.209V109.19H730.398V108.785H729.993V108.381H729.587V107.977H728.776V107.572H728.371V107.168H727.965V106.763H727.154V106.359H726.748V105.955H725.937V105.55H725.532V105.146H724.721V104.741H724.315V104.337H723.504V103.933H723.098V103.528H722.287V103.124H721.882V102.719H721.071V102.315H720.665V101.91H719.854V101.506H719.448V101.102H718.637V100.697H717.826V100.293H717.421V99.8884H716.61V99.484H715.799V99.0796H714.987V98.6752H714.582V98.2708H713.771V97.8664H712.96V97.462H712.554V97.0576H711.743V96.6532H710.932V96.2488H710.526V95.8444H709.715V95.44H708.904V95.0355H708.093V94.6311H707.282V94.2268H706.471V93.8223H705.66V93.4179H704.849V93.0135H704.443V92.6091H703.632V92.2047H702.821V91.8003H702.01V91.3959H701.199V90.9915H700.387V90.5871H699.576V90.1827H698.765V89.7783H697.954V89.3739H696.738V88.9695H695.926V88.565H695.115V88.1607H694.304V87.7562H693.493V87.3518H692.682V86.9475H691.871V86.543H690.654V86.1386H689.843V85.7342H689.032V85.3298H687.815V84.9254H687.004V84.521H685.788V84.1166H684.977V83.7122H683.76V83.3078H682.949V82.9034H682.138V82.499H680.921V82.0946H680.11V81.6902H678.893V81.2857H677.677V80.8814H676.46V80.4769H675.649V80.0725H674.432V79.6681H673.216V79.2637H671.999V78.8593H670.782V78.4549H669.971V78.0505H668.754V77.6461H667.132V77.2417H665.916V76.8373H664.699V76.4329H663.482V76.0285H662.266V75.6241H661.049V75.2196H659.427V74.8152H658.21V74.4108H656.588V74.0064H655.371V73.602H653.749V73.1976H652.127V72.7932H650.91V72.3888H649.288V71.9844H647.666V71.58H646.044V71.1756H644.421V70.7712H642.394V70.3668H640.771V69.9623H639.149V69.5579H637.527V69.1536H635.499V68.7491H633.472V68.3447H631.444V67.9403H629.416V67.5359H627.388V67.1315H625.36V66.7271H622.927V66.3227H620.494V65.9183H618.061V65.5139H615.222V65.1095H612.788V64.7051H609.95V64.3007H606.705V63.8963H603.866V63.4918H600.622V63.0875H596.972V62.683H592.916V62.2786H588.861V61.8742H583.994V61.4698H578.722V61.0654H572.639V60.661H564.933V60.2566H552.361V59.8522H523.973V60.2566H510.995V60.661H502.478V61.0654H494.773V61.4698H488.69V61.8742H482.606V62.2786H477.74V62.683H472.468V63.0875H468.006V63.4918H463.545V63.8963H459.49V64.3007H455.029V64.7051H451.379V65.1095H447.729V65.5139H444.079V65.9183H440.023V66.3227H436.779V66.7271H433.535V67.1315H430.29V67.5359H427.046V67.9403H423.801V68.3447H420.557V68.7491H417.718V69.1536H414.474V69.5579H411.635V69.9623H408.796V70.3668H405.957V70.7712H403.118V71.1756H400.279V71.58H397.441V71.9844H395.007V72.3888H392.168V72.7932H389.735V73.1976H386.896V73.602H384.463V74.0064H381.624V74.4108H379.191V74.8152H376.757V75.2196H374.324V75.6241H371.891V76.0285H369.457V76.4329H367.024V76.8373H364.591V77.2417H362.158V77.6461H359.724V78.0505H357.696V78.4549H355.263V78.8593H352.83V79.2637H350.397V79.6681H348.369V80.0725H345.935V80.4769H343.908V80.8814H341.474V81.2857H339.447V81.6902H337.013V82.0946H334.986V82.499H332.552V82.9034H330.525V83.3078H328.497V83.7122H326.063V84.1166H324.036V84.521H322.008V84.9254H319.98V85.3298H317.952V85.7342H315.519V86.1386H313.491V86.543H311.464V86.9475H309.436V87.3518H307.408V87.7562H305.38V88.1607H303.353V88.565H301.325V88.9695H299.297V89.3739H297.269V89.7783H295.242V90.1827H293.214V90.5871H291.186V90.9915H289.158V91.3959H287.13V91.8003H285.103V92.2047H283.075V92.6091H281.047V93.0135H279.425V93.4179H277.397V93.8223H275.37V94.2268H273.342V94.6311H271.314V95.0355H269.692V95.44H267.664V95.8444H265.636V96.2488H263.609V96.6532H261.986V97.0576H259.959V97.462H257.931V97.8664H256.309V98.2708H254.281V98.6752H252.253V99.0796H250.631V99.484H248.603V99.8884H246.575V100.293H244.953V100.697H242.925V101.102H241.303V101.506H239.275V101.91H237.248V102.315H235.625V102.719H233.598V103.124H231.975V103.528H229.948V103.933H227.92V104.337H226.298V104.741H224.27V105.146H222.648V105.55H220.62V105.955H218.998V106.359H216.97V106.763H215.348V107.168H213.32V107.572H211.698V107.977H209.67V108.381H208.048V108.785H206.02V109.19H204.398V109.594H202.37V109.999H200.748V110.403H198.72V110.807H197.098V111.212H195.07V111.616H193.448V112.021H191.42V112.425H189.798V112.829H188.176V113.234H186.148V113.638H184.526V114.043H182.498V114.447H180.876V114.851H178.848V115.256H177.226V115.66H175.198V116.065H173.576V116.469H171.548V116.874H169.926V117.278H168.304V117.682H166.276V118.087H164.654V118.491H162.626V118.896H161.004V119.3H158.976V119.704H157.354V120.109H155.326V120.513H153.704V120.918H152.082V121.322H150.054V121.726H148.432V122.131H146.404V122.535H144.782V122.94H142.754V123.344H141.132V123.748H139.104V124.153H137.482V124.557H135.454V124.962H133.832V125.366H131.804V125.77H130.182V126.175H128.56V126.579H126.532V126.984H124.91V127.388H122.882V127.792H121.26V128.197H119.232V128.601H117.61V129.006H115.582V129.41H113.554V129.815H111.932V130.219H109.904V130.623H108.282V131.028H106.255V131.432H104.632V131.837H102.605V132.241H100.982V132.645H98.9546V133.05H96.9268V133.454H95.3046V133.859H93.2769V134.263H91.6547V134.667H89.6269V135.072H87.5991V135.476H85.9769V135.881H83.9492V136.285H81.9214V136.689H80.2992V137.094H78.2714V137.498H76.2437V137.903H74.2159V138.307H72.5937V138.711H70.566V139.116H68.5382V139.52H66.916V139.925H64.8882V140.329H62.8605V140.733H60.8327V141.138H58.805V141.542H56.7772V141.947H54.7495V142.351H53.1273V142.756H51.0995V143.16H49.0717V143.564H47.044V143.969H45.0162V144.373H42.9885V144.778H40.9607V145.182H38.9329V145.586H36.4996V145.991H34.4719V146.395H32.4441V146.8H30.4164V147.204H28.3886V147.608H26.3609V148.013H23.9275V148.417H21.8998V148.822H19.4665V149.226H17.4387V149.63H15.411V150.035H12.9776V150.439H10.9499V150.844H8.51658V151.248H6.48882V151.652H4.05552V152.057H1.62221V152.461H0V152.057H0.811103V151.652H2.02776V151.248H3.64996V150.844H4.86662V150.439H6.08327V150.035H7.70548V149.63H8.92213V149.226H10.5443V148.822H11.761V148.417H12.9776V148.013H14.5999V147.608H15.8165V147.204H17.4387V146.8H18.6554V146.395H19.872V145.991H21.4942V145.586H22.7109V145.182H24.3331V144.778H25.5497V144.373H26.7664V143.969H28.3886V143.564H29.6053V143.16H31.2275V142.756H32.4441V142.351H34.0663V141.947H35.283V141.542H36.4996V141.138H38.1218V140.733H39.3385V140.329H40.9607V139.925H42.1774V139.52H43.7996V139.116H45.0162V138.711H46.2329V138.307H47.8551V137.903H49.0717V137.498H50.6939V137.094H51.9106V136.689H53.5328V136.285H54.7495V135.881H55.9661V135.476H57.5883V135.072H58.805V134.667H60.4272V134.263H61.6438V133.859H63.266V133.454H64.4827V133.05H65.6994V132.645H67.3216V132.241H68.5382V131.837H70.1604V131.432H71.3771V131.028H72.9993V130.623H74.2159V130.219H75.8381V129.815H77.0548V129.41H78.2714V129.006H79.8937V128.601H81.1103V128.197H82.7325V127.792H83.9492V127.388H85.5714V126.984H86.788V126.579H88.4102V126.175H89.6269V125.77H90.8435V125.366H92.4657V124.962H93.6824V124.557H95.3046V124.153H96.5213V123.748H98.1435V123.344H99.3601V122.94H100.982V122.535H102.199V122.131H103.821V121.726H105.038V121.322H106.255V120.918H107.877V120.513H109.093V120.109H110.716V119.704H111.932V119.3H113.554V118.896H114.771V118.491H116.393V118.087H117.61V117.682H119.232V117.278H120.449V116.874H122.071V116.469H123.288V116.065H124.504V115.66H126.127V115.256H127.343V114.851H128.965V114.447H130.182V114.043H131.804V113.638H133.021V113.234H134.643V112.829H135.86V112.425H137.482V112.021H138.699V111.616H140.321V111.212H141.537V110.807H143.16V110.403H144.376V109.999H145.999V109.594H147.215V109.19H148.837V108.785H150.054V108.381H151.676V107.977H152.893V107.572H154.11V107.168H155.732V106.763H156.948V106.359H158.571V105.955H159.787V105.55H161.41V105.146H162.626V104.741H164.248V104.337H165.465V103.933H167.087V103.528H168.304V103.124H169.926V102.719H171.143V102.315H172.765V101.91H173.982V101.506H175.604V101.102H176.82V100.697H178.443V100.293H179.659V99.8884H181.282V99.484H182.498V99.0796H184.12V98.6752H185.337V98.2708H186.959V97.8664H188.176V97.462H189.798V97.0576H191.015V96.6532H192.637V96.2488H193.854V95.8444H195.476V95.44H196.693V95.0355H198.315V94.6311H199.531V94.2268H201.154V93.8223H202.37V93.4179H203.992V93.0135H205.209V92.6091H206.831V92.2047H208.453V91.8003H209.67V91.3959H211.292V90.9915H212.509V90.5871H214.131V90.1827H215.348V89.7783H216.97V89.3739H218.187V88.9695H219.809V88.565H221.026V88.1607H222.648V87.7562H223.864V87.3518H225.487V86.9475H226.703V86.543H228.326V86.1386H229.542V85.7342H231.164V85.3298H232.381V84.9254H234.003V84.521H235.625V84.1166H236.842V83.7122H238.464V83.3078H239.681V82.9034H241.303V82.499H242.52V82.0946H244.142V81.6902H245.359V81.2857H246.981V80.8814H248.198V80.4769H249.82V80.0725H251.442V79.6681H252.659V79.2637H254.281V78.8593H255.497V78.4549H257.12V78.0505H258.336V77.6461H259.959V77.2417H261.175V76.8373H262.797V76.4329H264.42V76.0285H265.636V75.6241H267.258V75.2196H268.475V74.8152H270.097V74.4108H271.314V74.0064H272.936V73.602H274.558V73.1976H275.775V72.7932H277.397V72.3888H278.614V71.9844H280.236V71.58H281.453V71.1756H283.075V70.7712H284.697V70.3668H285.914V69.9623H287.536V69.5579H288.753V69.1536H290.375V68.7491H291.997V68.3447H293.214V67.9403H294.836V67.5359H296.053V67.1315H297.675V66.7271H298.891V66.3227H300.514V65.9183H302.136V65.5139H303.353V65.1095H304.975V64.7051H306.191V64.3007H307.814V63.8963H309.436V63.4918H310.652V63.0875H312.275V62.683H313.897V62.2786H315.114V61.8742H316.736V61.4698H317.952V61.0654H319.575V60.661H321.197V60.2566H322.413V59.8522H324.036V59.4478H325.658V59.0434H326.875V58.639H328.497V58.2346H329.713V57.8302H331.336V57.4257H332.958V57.0214H334.174V56.617H335.797V56.2125H337.419V55.8082H338.636V55.4037H340.258V54.9993H341.88V54.5949H343.097V54.1905H344.719V53.7861H346.341V53.3817H347.558V52.9773H349.18V52.5729H350.802V52.1685H352.019V51.7641H353.641V51.3597H355.263V50.9553H356.48V50.5509H358.102V50.1464H359.724V49.7421H360.941V49.3377H362.563V48.9332H364.185V48.5288H365.402V48.1244H367.024V47.72H368.646V47.3156H370.269V46.9112H371.485V46.5068H373.107V46.1024H374.73V45.698H375.946V45.2936H377.569V44.8891H379.191V44.4847H380.813V44.0804H382.03V43.6759H383.652V43.2715H385.274V42.8671H386.491V42.4627H388.113V42.0583H389.735V41.6539H391.357V41.2495H392.979V40.8451H394.196V40.4407H395.818V40.0363H397.441V39.6318H399.063V39.2275H400.279V38.823H401.902V38.4186H403.524V38.0143H405.146V37.6098H406.363V37.2054H407.985V36.801H409.607V36.3966H411.229V35.9922H412.851V35.5878H414.474V35.1834H415.69V34.779H417.313V34.3746H418.935V33.9702H420.557V33.5658H422.179V33.1614H423.801V32.757H425.018V32.3525H426.64V31.9482H428.262V31.5437H429.885V31.1393H431.507V30.7349H433.129V30.3305H434.751V29.9261H436.373V29.5217H437.996V29.1173H439.212V28.7129H440.835V28.3085H442.457V27.9041H444.079V27.4997H445.701V27.0953H447.323V26.6909H448.946V26.2864H450.568V25.8821H452.19V25.4777H453.812V25.0732H455.434V24.6689H457.057V24.2644H458.679V23.86H460.301V23.4556H462.329V23.0512H463.951V22.6468H465.573V22.2424H467.195V21.838H468.818V21.4336H470.44V21.0291H472.062V20.6247H474.09V20.2204H475.712V19.816H477.334V19.4116H478.956V19.0071H480.579V18.6027H482.606V18.1983H484.229V17.7939H486.256V17.3895H487.879V16.9851H489.501V16.5807H491.528V16.1763H493.151V15.7719H495.178V15.3675H497.206V14.9631H498.828V14.5587H500.856V14.1543H502.478V13.7498H504.506V13.3454H506.534V12.941H508.562V12.5367H510.184V12.1323H512.212V11.7278H514.239V11.3234H516.267V10.919H518.295V10.5146H520.323V10.1102H522.35V9.70579H524.378V9.3014H526.406V8.89701H528.434V8.49255H530.867V8.08816H532.895V7.68377H535.328V7.27938H537.356V6.87499H539.789V6.47053H541.817V6.06614H544.25V5.66175H546.683V5.25729H549.522V4.8529H551.956V4.44851H554.389V4.04412H557.228V3.63972H560.067V3.23527H563.311V2.83088H566.15V2.42649H569.394V2.02209H573.044V1.6177H577.1V1.21325H580.75V0.808856H586.022V0.404465H591.294V8.34465e-06H629.01V0.404465H634.688V0.808856H639.149V1.21325H642.394V1.6177H646.044V2.02209H649.288V2.42649H651.721V2.83088H654.56V3.23527H656.994V3.63972H659.427V4.04412H661.455V4.44851H663.482V4.8529H665.51V5.25729H667.538V5.66175H669.566V6.06614H671.593V6.47053H673.216V6.87499H675.243V7.27938H676.866V7.68377H678.488V8.08816H680.11V8.49255H681.732V8.89701H683.354V9.3014H684.977V9.70579H686.193V10.1102H687.815V10.5146H689.032V10.919H690.654V11.3234H691.871V11.7278H693.088V12.1323H694.304V12.5367H695.521V12.941H696.738V13.3454H697.954V13.7498H699.171V14.1543H700.387V14.5587H701.604V14.9631H702.821V15.3675H703.632V15.7719H704.849V16.1763H706.065V16.5807H707.282V16.9851H708.093V17.3895H709.31V17.7939H710.121V18.1983H711.337V18.6027H712.149V19.0071H713.365V19.4116H714.582V19.816H715.393V20.2204H716.204V20.6247H717.421V21.0291H718.232V21.4336H719.043V21.838H720.26V22.2424H721.071V22.6468H722.287V23.0512H723.098V23.4556H723.909V23.86H724.721V24.2644H725.532V24.6689H726.748V25.0732H727.559V25.4777H728.371V25.8821H729.182V26.2864H729.993V26.6909H731.209V27.0953H732.021V27.4997H732.832V27.9041H733.643V28.3085H734.454V28.7129H735.265V29.1173H736.076V29.5217H736.887V29.9261H737.698V30.3305H738.509V30.7349H739.32V31.1393H740.132V31.5437H740.943V31.9482H741.754V32.3525H742.565V32.757H743.376V33.1614H744.187V33.5658H744.593V33.9702H745.404V34.3746H746.215V34.779H747.026V35.1834H747.837V35.5878H748.648V35.9922H749.459V36.3966H749.865V36.801H750.676V37.2054H751.487V37.6098H752.298V38.0143H753.109V38.4186H753.515V38.823H754.326V39.2275H755.137V39.6318H755.542V40.0363H756.354V40.4407H757.165V40.8451H757.976V41.2495H758.381V41.6539H759.193V42.0583H760.004V42.4627H760.409V42.8671H761.22V43.2715H762.031V43.6759H762.437V44.0804H763.248V44.4847H763.654V44.8891H764.465V45.2936H765.276V45.698H765.681V46.1024H766.492V46.5068H766.898V46.9112H767.709V47.3156H768.52V47.72H768.926V48.1244H769.737V48.5288H770.142V48.9332H770.954V49.3377H771.359V49.7421H772.17V50.1464H772.576V50.5509H773.387V50.9553H773.792V51.3597H774.603V51.7641H775.009V52.1685H775.82V52.5729H776.226V52.9773H776.631V53.3817H777.442V53.7861H777.848V54.1905H778.659V54.5949H779.064V54.9993H779.876V55.4037H780.281V55.8082H781.092V56.2125H781.498V56.617H781.903V57.0214H782.714V57.4257H783.12V57.8302H783.526V58.2346H784.337V58.639H784.742V59.0434H785.148V59.4478H785.959V59.8522H786.364V60.2566H786.77V60.661H787.581V61.0654H787.987V61.4698H788.392V61.8742H789.203V62.2786H789.609V62.683H790.014V63.0875H790.825V63.4918H791.231V63.8963H791.637V64.3007H792.042V64.7051H792.853V65.1095H793.259V65.5139H793.664V65.9183H794.07V66.3227H794.881V66.7271H795.287V67.1315H795.692V67.5359H796.098V67.9403H796.503V68.3447H797.314V68.7491H797.72V69.1536H798.125V69.5579H798.531V69.9623H799.342V70.3668H799.748V70.7712H800.153V71.1756H800.559V71.58H800.964V71.9844H801.37V72.3888H802.181V72.7932H802.587V73.1976H802.992V73.602H803.398V74.0064H803.803V74.4108H804.209V74.8152H804.614V75.2196H805.02V75.6241H805.425V76.0285H806.237V76.4329H806.642V76.8373H807.048V77.2417H807.453V77.6461H807.859V78.0505H808.264V78.4549H808.67V78.8593H809.075V79.2637H809.481V79.6681H809.886V80.0725H810.292V80.4769H810.698V80.8814H811.509V81.2857H811.914V81.6902H812.32V82.0946H812.725V82.499H813.131V82.9034H813.536V83.3078H813.942V83.7122H814.348V84.1166H814.753V84.521H815.159V84.9254H815.564V85.3298H815.97V85.7342H816.375V86.1386H816.781V86.543H817.186V86.9475H817.592V87.3518H817.997V87.7562H818.403V88.1607H818.809V88.565H819.214V88.9695H819.62V89.7783H820.025V90.1827H820.431V90.5871H820.836V90.9915H821.242V91.3959H821.647V91.8003H822.053V92.2047H822.459V92.6091H822.864V93.0135H823.27V93.4179H823.675V94.2268H824.081V94.6311H824.486V95.0355H824.892V95.44H825.297V95.8444H825.703V96.2488H826.109V96.6532H826.514V97.0576H826.92V97.462H827.325V98.2708H827.731V98.6752H828.136V99.0796H828.542V99.484H828.947V99.8884H829.353V100.697H829.758V101.102H830.164V101.506H830.57V101.91H830.975V102.719H831.381V103.124H831.786V103.528H832.192V103.933H832.597V104.337H833.003V105.146H833.408V105.55H833.814V105.955H834.22V106.359H834.625V107.168H835.031V107.572H835.436V107.977H835.842V108.785H836.247V109.19H836.653V109.594H837.058V110.403H837.464V110.807H837.87V111.212H838.275V112.021H838.681V112.425H839.086V113.234H839.492V113.638H839.897V114.043H840.303V114.851H840.708V115.256H841.114V116.065H841.519V116.469H841.925V116.874H842.331V117.682H842.736V118.087H843.142V118.896H843.547V119.3H843.953V120.109H844.358V120.513H844.764V121.322H845.169V122.131H845.575V122.535H845.98V123.344H846.386V123.748H846.792V124.557H847.197V125.366H847.603V125.77H848.008V126.579H848.414V126.984H848.819V127.792H849.225V128.197H849.63V129.006H850.036V129.815H850.442V130.623H850.847V131.432H851.253V131.837H851.658V132.645H852.064V133.454H852.469V134.263H852.875V135.072H853.28V135.881H853.686V136.285H854.092V137.094H854.497V137.903H854.903V138.711H855.308V139.52H855.714V140.329H856.119V140.733H856.525V141.947H856.93V142.756H857.336V143.564H857.741V144.373H858.147V145.182H858.553V146.395H858.958V147.204H859.364V148.013H859.769V148.822H860.175V149.63H860.58V150.439H860.986V151.652H861.391V152.461H861.797V153.27H862.203V154.483H862.608V155.697H863.014V156.505H863.419V157.719H863.825V158.932H864.23V159.741H864.636V160.954H865.041V162.167H865.447V162.976H865.853V164.189H866.258V165.402H866.664V166.616H867.069V167.829H867.475V169.042H867.88V170.66H868.286V171.873H868.691V173.49H869.097V174.704H869.503V175.917H869.908V177.535H870.314V178.748H870.719V180.77H871.125V182.387H871.53V184.409H871.936V186.431H872.341V188.049H872.747V190.071H873.153V192.093H873.558V194.52H873.964V197.35H874.369V200.181H874.775V203.417H875.18V206.247H875.586V211.1H875.991V217.975H876.397V240.218H875.991V244.666H875.586V249.519H875.18V253.967H874.775V257.203H874.369V260.033H873.964V262.46H873.558V264.886H873.153V267.313H872.747V270.144H872.341V272.57H871.936V274.592H871.53V276.21H871.125V277.827H870.719V279.849H870.314V281.467H869.908V283.085H869.503V285.107H869.097V286.724H868.691V288.746H868.286V290.364H867.88V291.577H867.475V293.195H867.069V294.408H866.664V295.621H866.258V297.239H865.853V298.452H865.447V300.07H865.041V301.283H864.636V302.496H864.23V304.114H863.825V305.327H863.419V306.54H863.014V308.158H862.608V309.371H862.203V310.584H861.797V311.393H861.391V312.606H860.986V313.819H860.58V315.033H860.175V316.246H859.769V317.459H859.364V318.268H858.958V319.481H858.553V320.694H858.147V321.908H857.741V323.121H857.336V323.93H856.93V325.143H856.525V325.952H856.119V327.165H855.714V327.974H855.308V329.187H854.903V329.996H854.497V331.209H854.092V332.018H853.686V332.827H853.28V333.635H852.875V334.849H852.469V335.657H852.064V336.466H851.658V337.275H851.253V338.084H850.847V339.297H850.442V340.106H850.036V340.51H849.63V341.319H849.225V342.128H848.819V342.937H848.414V343.746H848.008V344.554H847.603V345.363H847.197V346.172H846.792V346.981H846.386V347.79H845.98V348.598H845.575V349.003H845.169V349.812H844.764V350.62H844.358V351.429H843.953V351.834H843.547V352.643H843.142V353.451H842.736V353.856H842.331V354.665H841.925V355.473H841.519V355.878H841.114V356.687H840.708V357.091H840.303V357.9H839.897V358.709H839.492V359.113H839.086V359.922H838.681V360.731H838.275V361.135H837.87V361.944H837.464V362.348H837.058V362.753H836.653V363.561H836.247V363.966H835.842V364.775H835.436V365.179H835.031V365.988H834.625V366.392H834.22V366.797H833.814V367.606H833.408V368.01H833.003V368.819H832.597V369.223H832.192V370.032H831.786V370.436H831.381V370.841H830.975V371.65H830.57V372.054H830.164V372.458H829.758V373.267H829.353V373.672H828.947V374.076H828.542V374.48H828.136V375.289H827.731V375.694H827.325V376.098H826.92V376.502H826.514V377.311H826.109V377.716H825.703V378.12H825.297V378.525H824.892V379.333H824.486V379.738H824.081V380.142H823.675V380.547H823.27V381.355H822.864V381.76H822.459V382.164H822.053V382.569H821.647V382.973H821.242V383.377H820.836V383.782H820.431V384.186H820.025V384.995H819.62V385.399H819.214V385.804H818.809V386.208H818.403V386.613H817.997V387.017H817.592V387.421H817.186V387.826H816.781V388.635H816.375V389.039H815.97V389.444H815.564V389.848H815.159V390.252H814.753V390.657H814.348V391.061H813.942V391.466H813.536V391.87H813.131V392.274H812.725V392.679H812.32V393.083H811.914V393.488H811.509V393.892H811.103V394.296H810.698V394.701H810.292V395.105H809.886V395.51H809.481V395.914H809.075V396.318H808.67V396.723H808.264V397.127H807.859V397.532H807.453V397.936H807.048V398.34H806.642V398.745H806.237V399.149H805.831V399.554H805.425V399.958H805.02V400.362H804.614V400.767H804.209V401.171H803.803V401.576H803.398V401.98H802.992V402.385H802.587V402.789H801.775V403.193H801.37V403.598H800.964V404.002H800.559V404.407H800.153V404.811H799.748V405.215H799.342V405.62H798.937V406.024H798.531V406.429H798.125V406.833H797.314V407.237H796.909V407.642H796.503V408.046H796.098V408.451H795.692V408.855H795.287V409.259H794.881V409.664H794.07V410.068H793.664V410.473H793.259V410.877H792.853V411.281H792.042V411.686H791.637V412.09H791.231V412.495H790.825V412.899H790.42V413.303H789.609V413.708H789.203V414.112H788.798V414.517H788.392V414.921H787.581V415.326H787.176V415.73H786.77V416.134H786.364V416.539H785.959V416.943H785.148V417.348H784.742V417.752H784.337V418.156H783.526V418.561H783.12V418.965H782.714V419.37H781.903V419.774H781.498V420.178H781.092V420.583H780.281V420.987H779.876V421.392H779.47V421.796H778.659V422.2H778.253V422.605H777.442V423.009H777.037V423.414H776.631V423.818H775.82V424.222H775.415V424.627H775.009V425.031H774.198V425.436H773.792V425.84H772.981V426.244H772.576V426.649H771.765V427.053H771.359V427.458H770.548V427.862H770.142V428.267H769.331V428.671H768.926V429.075H768.115V429.48H767.709V429.884H766.898V430.289H766.492V430.693H765.681V431.097H765.276V431.502H764.465V431.906H764.059V432.311H763.654V432.715H762.842V433.119H762.031V433.524H761.626V433.928H760.815V434.333H760.004V434.737H759.598V435.141H758.787V435.546H757.976V435.95H757.57V436.355H756.759V436.759H755.948V437.163H755.542V437.568H754.731V437.972H754.326V438.377H753.515V438.781H752.704V439.186H752.298V439.59H751.487V439.994H750.676V440.399H749.865V440.803H749.054V441.208H748.648V441.612H747.837V442.016H747.026V442.421H746.215V442.825H745.404V443.23H744.998V443.634H744.187V444.038H743.376V444.443H742.565V444.847H741.754V445.252H741.348V445.656H740.537V446.06H739.726V446.465H738.915V446.869H738.104V447.274H737.293V447.678H736.482V448.082H735.671V448.487H734.859V448.891H734.048V449.296H733.237V449.7H732.426V450.104H731.615V450.509H730.804V450.913H729.993V451.318H729.182V451.722H728.371V452.127H727.559V452.531H726.343V452.935H725.532V453.34H724.721V453.744H723.909V454.149H722.693V454.553H721.882V454.957H721.071V455.362H720.26V455.766H719.448V456.171H718.232V456.575H717.421V456.979H716.61V457.384H715.799V457.788H714.582V458.193H713.771V458.597H712.554V459.001H711.743V459.406H710.526V459.81H709.715V460.215H708.499V460.619H707.687V461.023H706.471V461.428H705.66V461.832H704.443V462.237H703.632V462.641H702.415V463.045H701.604V463.45H700.387V463.854H699.171V464.259H697.954V464.663H696.738V465.068H695.521V465.472H694.71V465.876H693.493V466.281H692.277V466.685H691.06V467.09H689.843V467.494H688.626V467.898H687.41V468.303H686.193V468.707H684.977V469.112H683.354V469.516H682.138V469.92H680.921V470.325H679.704V470.729H678.488V471.134H676.866V471.538H675.649V471.942H674.027V472.347H672.404V472.751H671.188V473.156H669.566V473.56H667.943V473.964H666.321V474.369H665.105V474.773H663.482V475.178H661.86V475.582H659.832V475.986H658.21V476.391H656.182V476.795H654.56V477.2H652.532V477.604H650.91V478.009H648.883V478.413H646.855V478.817H644.421V479.222H642.394V479.626H639.96V480.031H637.933V480.435H635.499V480.839H632.66V481.244H629.416V481.648H626.577V482.053H623.738V482.457H620.088V482.861H615.627V483.266H611.572V483.67H605.894V484.075H598.189V484.479" fill="#ECF2F7"/>
</svg>
