<svg width="132" height="21" viewBox="0 0 132 21" fill="none" xmlns="http://www.w3.org/2000/svg">
<path d="M1.22236 9.78131C1.6876 7.43582 3.82772 5.81201 6.80528 5.81201C10.2481 5.81201 12.9465 7.25539 12.9465 11.766V20.1556H9.96894L9.59674 18.3514C8.57321 19.6144 7.17748 20.4263 5.1304 20.4263C2.61809 20.4263 0.664062 18.8927 0.664062 16.0961C0.664062 13.2996 3.26943 11.4953 6.89833 11.4953H9.3176V10.8638C9.3176 9.24004 8.10796 8.78899 6.71223 8.78899C5.6887 8.78899 4.66516 9.14983 4.19992 10.4128L1.22236 9.78131ZM5.96784 17.4493C7.64272 17.4493 9.3176 16.3667 9.3176 14.5625V14.2919H6.99138C5.40955 14.2017 4.47906 14.8332 4.47906 16.0961C4.47906 16.7276 5.03735 17.4493 5.96784 17.4493Z" fill="#0E0E0E"/>
<path d="M71.3806 9.78131C71.8458 7.43582 73.9859 5.81201 76.9635 5.81201C80.4063 5.81201 83.1047 7.25539 83.1047 11.766V20.1556H80.1271L79.7549 18.3514C78.7314 19.6144 77.3357 20.4263 75.2886 20.4263C72.7763 20.4263 70.8223 18.8927 70.8223 16.0961C70.8223 13.2996 73.4276 11.4953 77.0565 11.4953H79.4758V10.8638C79.4758 9.24004 78.2662 8.78899 76.8704 8.78899C75.8469 8.78899 74.8234 9.14983 74.3581 10.4128L71.3806 9.78131ZM76.126 17.4493C77.8009 17.4493 79.4758 16.3667 79.4758 14.5625V14.2919H77.0565C75.4747 14.2919 74.5442 14.8332 74.5442 16.0961C74.6373 16.7276 75.1956 17.4493 76.126 17.4493Z" fill="#0E0E0E"/>
<path d="M86.3613 20.2458V5.99243H89.9902V8.33793C91.0138 6.62391 92.6886 5.81201 94.2705 5.81201C94.9218 5.81201 95.4801 5.90222 96.0384 6.08265L95.3871 9.33026C94.9218 9.05962 94.4566 8.8792 93.8983 8.8792C91.7582 8.8792 89.9902 10.5932 89.9902 15.1038V20.1556L86.3613 20.2458Z" fill="#0E0E0E"/>
<path d="M103.763 5.81198C105.251 5.81198 106.647 6.53367 107.299 7.34557V0.309082H110.927V20.2458H107.299V18.8024C106.833 19.5241 105.531 20.5164 103.763 20.5164C99.3894 20.5164 97.1562 17.5395 97.1562 13.2093C97.1562 8.87917 99.3894 5.81198 103.763 5.81198ZM104.321 17.4492C106.182 17.4492 107.671 15.9157 107.671 13.1191C107.671 10.3225 106.182 8.78895 104.321 8.78895C102.46 8.78895 100.971 10.3225 100.971 13.1191C100.971 15.9157 102.46 17.4492 104.321 17.4492Z" fill="#0E0E0E"/>
<path d="M123.954 8.06706L121.814 9.96149C121.163 9.05938 120.139 8.69853 119.395 8.69853C118.65 8.69853 117.999 9.14959 117.999 9.87128C117.999 10.5028 118.557 10.9538 119.395 11.2245C121.442 11.9461 124.699 12.5776 124.699 15.5546C124.699 18.1707 122.651 20.2456 119.488 20.2456C116.417 20.2456 114.37 18.1707 113.719 16.4567L116.603 14.9231C117.162 16.2763 118.092 17.2686 119.581 17.2686C120.697 17.2686 121.442 16.7273 121.442 15.735C121.442 14.5623 119.581 14.2916 117.813 13.5699C116.231 12.9385 114.835 11.9461 114.835 9.78107C114.835 7.616 116.696 5.63135 119.488 5.63135C121.349 5.72156 123.117 6.71388 123.954 8.06706Z" fill="#0E0E0E"/>
<path d="M48.9565 5.99243L46.3511 15.8255L43.8388 5.99243H40.489L38.0698 15.8255L36.0227 10.1422L35.7435 10.7736L34.627 14.4723L36.4879 20.2458H39.6516L42.1639 11.0443L44.6762 20.2458H47.9329L52.5854 5.99243H48.9565Z" fill="#0E0E0E"/>
<path d="M66.3562 5.99243L63.7508 15.8255L61.2385 5.99243H57.8887L55.4694 15.8255L53.4224 10.1422L53.1432 10.7736L51.9336 14.4723L53.8876 20.2458H57.0513L59.5636 11.0443L62.0759 20.2458H65.2396L69.9851 5.99243H66.3562Z" fill="#0E0E0E"/>
<path d="M35.1861 5.99243L30.5337 20.1556H27.37L24.8577 11.0443L22.3454 20.2458H19.1817L14.5293 6.08264H18.1582L20.7636 15.8255L23.2759 6.08264H26.6256L29.138 15.8255L31.7433 6.08264L35.1861 5.99243Z" fill="#0E0E0E"/>
<path d="M129.443 15.645C130.838 15.645 131.862 16.6373 131.862 17.9905C131.862 19.3437 130.838 20.336 129.443 20.336C128.047 20.336 127.023 19.3437 127.023 17.9905C127.023 16.6373 128.047 15.645 129.443 15.645Z" fill="#0E0E0E"/>
</svg>
