<svg width="1204" height="602" viewBox="0 0 1204 602" fill="none" xmlns="http://www.w3.org/2000/svg">
<path d="M533.601 601.479V601.051H527.531V600.624H521.895V600.197H517.993V599.77H514.091V599.342H510.188V598.915H507.587V598.488H504.552V598.061H501.951V597.634H499.349V597.206H496.748V596.779H494.58V596.352H492.413V595.925H490.245V595.497H488.077V595.07H485.909V594.643H483.741V594.216H482.007V593.789H480.273V593.361H478.539V592.934H476.371V592.507H474.637V592.08H473.336V591.652H471.602V591.225H469.867V590.798H468.567V590.371H466.832V589.944H465.532V589.516H464.231V589.089H462.93V588.662H461.196V588.235H459.896V587.807H458.595V587.38H457.294V586.953H455.993V586.526H454.693V586.099H453.392V585.671H452.525V585.244H451.224V584.817H449.924V584.39H448.623V583.962H447.322V583.535H446.455V583.108H445.155V582.681H444.287V582.254H442.987V581.826H442.12V581.399H440.819V580.972H439.518V580.545H438.651V580.117H437.784V579.69H436.483V579.263H435.616V578.836H434.749V578.409H433.448V577.981H432.581V577.554H431.281V577.127H430.413V576.7H429.546V576.272H428.679V575.845H427.379V575.418H426.511V574.991H425.644V574.564H424.777V574.136H423.91V573.709H423.043V573.282H421.742V572.855H420.875V572.427H420.008V572H419.141V571.573H418.274V571.146H417.407V570.719H416.54V570.291H415.672V569.864H414.805V569.437H413.938V569.01H413.071V568.582H412.204V568.155H411.337V567.728H410.47V567.301H409.603V566.874H408.735V566.446H407.868V566.019H407.001V565.592H406.134V565.165H405.701V564.737H404.833V564.31H403.966V563.883H403.099V563.456H402.232V563.029H401.365V562.601H400.498V562.174H400.064V561.747H399.197V561.32H398.33V560.892H397.463V560.465H397.029V560.038H396.162V559.611H395.295V559.184H394.862V558.756H393.994V558.329H393.127V557.902H392.26V557.475H391.827V557.047H390.96V556.62H390.092V556.193H389.659V555.766H388.792V555.339H387.925V554.911H387.491V554.484H386.624V554.057H386.19V553.63H385.323V553.202H384.456V552.775H384.023V552.348H383.155V551.921H382.722V551.494H381.855V551.066H380.988V550.639H380.554V550.212H379.687V549.785H379.253V549.357H378.386V548.93H377.953V548.503H377.086V548.076H376.652V547.649H375.785V547.221H375.351V546.794H374.484V546.367H374.051V545.94H373.617V545.512H372.75V545.085H372.316V544.658H371.449V544.231H371.016V543.804H370.149V543.376H369.715V542.949H368.848V542.522H368.414V542.095H367.547V541.667H367.114V541.24H366.68V540.813H365.813V540.386H365.38V539.959H364.946V539.531H364.079V539.104H363.645V538.677H363.212V538.25H362.345V537.822H361.911V537.395H361.477V536.968H360.61V536.541H360.177V536.114H359.743V535.686H358.876V535.259H358.443V534.832H358.009V534.405H357.142V533.978H356.708V533.55H356.275V533.123H355.841V532.696H355.408V532.269H354.541V531.841H354.107V531.414H353.673V530.987H353.24V530.56H352.373V530.133H351.939V529.705H351.506V529.278H351.072V528.851H350.639V528.424H349.771V527.996H349.338V527.569H348.904V527.142H348.471V526.715H347.604V526.288H347.17V525.86H346.736V525.433H346.303V525.006H345.869V524.579H345.436V524.151H345.002V523.724H344.135V523.297H343.702V522.87H343.268V522.443H342.834V522.015H342.401V521.588H341.967V521.161H341.534V520.734H341.1V520.306H340.667V519.879H339.8V519.452H339.366V519.025H338.932V518.598H338.499V518.17H338.065V517.743H337.632V517.316H337.198V516.889H336.765V516.461H336.331V516.034H335.897V515.607H335.464V515.18H335.03V514.753H334.597V514.325H334.163V513.898H333.73V513.471H333.296V513.044H332.863V512.616H332.429V512.189H331.995V511.762H331.562V511.335H331.128V510.908H330.695V510.48H330.261V510.053H329.828V509.626H329.394V509.199H328.961V508.771H328.527V508.344H328.093V507.917H327.66V507.49H327.226V507.063H326.793V506.635H326.359V506.208H325.926V505.781H325.492V505.354H325.058V504.926H324.625V504.499H324.191V504.072H323.758V503.218H323.324V502.79H322.891V502.363H322.457V501.936H322.024V501.509H321.59V501.081H321.156V500.654H320.723V500.227H320.289V499.8H319.856V499.373H319.422V498.945H318.989V498.091H318.555V497.664H318.122V497.236H317.688V496.809H317.254V496.382H316.821V495.528H316.387V495.1H315.954V494.673H315.52V494.246H315.087V493.391H314.653V492.964H314.219V492.537H313.786V492.11H313.352V491.683H312.919V490.828H312.485V490.401H312.052V489.974H311.618V489.546H311.185V488.692H310.751V488.265H310.317V487.838H309.884V487.41H309.45V486.556H309.017V486.129H308.583V485.274H308.15V484.847H307.716V484.42H307.283V483.565H306.849V483.138H306.415V482.711H305.982V481.856H305.548V481.429H305.115V480.575H304.681V480.148H304.248V479.72H303.814V478.866H303.381V478.439H302.947V477.584H302.513V477.157H302.08V476.73H301.646V475.875H301.213V475.448H300.779V474.594H300.346V473.739H299.912V473.312H299.478V472.458H299.045V472.03H298.611V471.176H298.178V470.321H297.744V469.894H297.311V469.04H296.877V468.613H296.444V467.758H296.01V467.331H295.576V466.476H295.143V465.622H294.709V465.195H294.276V464.34H293.842V463.486H293.409V462.631H292.975V462.204H292.541V461.35H292.108V460.495H291.674V459.641H291.241V458.787H290.807V457.932H290.374V457.505H289.94V456.65H289.507V455.796H289.073V454.942H288.639V454.087H288.206V453.233H287.772V452.378H287.339V451.524H286.905V450.669H286.472V449.815H286.038V448.96H285.605V448.106H285.171V446.824H284.737V445.97H284.304V445.115H283.87V444.261H283.437V443.407H283.003V442.125H282.57V441.27H282.136V440.416H281.703V439.562H281.269V438.28H280.835V437.425H280.402V436.144H279.968V434.862H279.535V434.008H279.101V432.726H278.668V431.444H278.234V430.59H277.8V429.308H277.367V428.027H276.933V427.172H276.5V425.89H276.066V424.182H275.633V422.9H275.199V421.191H274.766V419.909H274.332V418.628H273.898V416.919H273.465V415.637H273.031V413.928H272.598V412.647H272.164V410.938H271.731V408.802H271.297V406.665H270.864V404.957H270.43V402.82H269.996V400.684H269.563V398.975H269.129V396.412H268.696V393.422H268.262V390.431H267.829V387.013H267.395V384.023H266.961V379.751H266.528V372.488H266.094V346.427H266.528V341.728H266.961V336.601H267.395V331.902H267.829V328.911H268.262V326.348H268.696V323.357H269.129V320.794H269.563V318.231H269.996V315.24H270.43V312.677H270.864V310.968H271.297V309.259H271.731V307.123H272.164V305.414H272.598V303.705H273.031V301.569H273.465V299.86H273.898V297.724H274.332V296.015H274.766V294.306H275.199V292.597H275.633V291.316H276.066V290.034H276.5V288.325H276.933V287.043H277.367V285.762H277.8V284.053H278.234V282.771H278.668V281.49H279.101V279.781H279.535V278.499H279.968V277.217H280.402V275.508H280.835V274.227H281.269V272.945H281.703V271.663H282.136V270.809H282.57V269.527H283.003V268.246H283.437V266.964H283.87V265.682H284.304V264.828H284.737V263.546H285.171V262.265H285.605V260.983H286.038V259.701H286.472V258.847H286.905V257.565H287.339V256.711H287.772V255.429H288.206V254.575H288.639V253.293H289.073V252.438H289.507V251.157H289.94V250.302H290.374V249.448H290.807V248.593H291.241V247.312H291.674V246.457H292.108V245.603H292.541V244.748H292.975V243.894H293.409V242.612H293.842V242.185H294.276V241.331H294.709V240.476H295.143V239.622H295.576V238.767H296.01V237.913H296.444V237.058H296.877V236.204H297.311V235.35H297.744V234.495H298.178V234.068H298.611V233.213H299.045V232.359H299.478V231.505H299.912V230.65H300.346V229.796H300.779V229.368H301.213V228.514H301.646V228.087H302.08V227.232H302.513V226.378H302.947V225.951H303.381V225.096H303.814V224.242H304.248V223.815H304.681V222.96H305.115V222.106H305.548V221.678H305.982V220.824H306.415V220.397H306.849V219.542H307.283V219.115H307.716V218.261H308.15V217.834H308.583V216.979H309.017V216.552H309.45V215.697H309.884V215.27H310.317V214.843H310.751V213.988H311.185V213.561H311.618V212.707H312.052V212.28H312.485V211.852H312.919V210.998H313.352V210.571H313.786V209.716H314.219V209.289H314.653V208.862H315.087V208.007H315.52V207.58H315.954V207.153H316.387V206.299H316.821V205.871H317.254V205.444H317.688V205.017H318.122V204.162H318.555V203.735H318.989V203.308H319.422V202.881H319.856V202.026H320.289V201.599H320.723V201.172H321.156V200.745H321.59V199.89H322.024V199.463H322.457V199.036H322.891V198.609H323.324V198.181H323.758V197.327H324.191V196.9H324.625V196.472H325.058V196.045H325.492V195.618H325.926V195.191H326.359V194.764H326.793V194.336H327.226V193.482H327.66V193.055H328.093V192.627H328.527V192.2H328.961V191.773H329.394V191.346H329.828V190.919H330.261V190.491H330.695V189.637H331.128V189.21H331.562V188.782H331.995V188.355H332.429V187.928H332.863V187.501H333.296V187.074H333.73V186.646H334.163V186.219H334.597V185.792H335.03V185.365H335.464V184.937H335.897V184.51H336.331V184.083H336.765V183.656H337.198V183.229H337.632V182.801H338.065V182.374H338.499V181.947H338.932V181.52H339.366V181.092H339.8V180.665H340.233V180.238H340.667V179.811H341.1V179.384H341.534V178.956H341.967V178.529H342.401V178.102H342.834V177.675H343.268V177.247H343.702V176.82H344.569V176.393H345.002V175.966H345.436V175.539H345.869V175.111H346.303V174.684H346.736V174.257H347.17V173.83H347.604V173.402H348.037V172.975H348.904V172.548H349.338V172.121H349.771V171.694H350.205V171.266H350.639V170.839H351.072V170.412H351.506V169.985H351.939V169.557H352.373V169.13H353.24V168.703H353.673V168.276H354.107V167.849H354.541V167.421H354.974V166.994H355.841V166.567H356.275V166.14H356.708V165.713H357.142V165.285H358.009V164.858H358.443V164.431H358.876V164.004H359.31V163.576H359.743V163.149H360.61V162.722H361.044V162.295H361.477V161.867H361.911V161.44H362.778V161.013H363.212V160.586H363.645V160.159H364.079V159.731H364.946V159.304H365.38V158.877H366.247V158.45H366.68V158.023H367.114V157.595H367.981V157.168H368.414V156.741H368.848V156.314H369.715V155.886H370.149V155.459H370.582V155.032H371.449V154.605H371.883V154.177H372.316V153.75H373.184V153.323H373.617V152.896H374.051V152.469H374.918V152.041H375.351V151.614H376.219V151.187H376.652V150.76H377.519V150.333H377.953V149.905H378.82V149.478H379.253V149.051H380.121V148.624H380.554V148.196H381.421V147.769H381.855V147.342H382.722V146.915H383.155V146.488H384.023V146.06H384.456V145.633H385.323V145.206H385.757V144.779H386.624V144.351H387.058V143.924H387.925V143.497H388.358V143.07H389.225V142.643H390.092V142.215H390.526V141.788H391.393V141.361H392.26V140.934H392.694V140.506H393.561V140.079H394.428V139.652H394.862V139.225H395.729V138.798H396.162V138.37H397.029V137.943H397.897V137.516H398.33V137.089H399.197V136.661H400.064V136.234H400.931V135.807H401.365V135.38H402.232V134.953H403.099V134.525H403.966V134.098H404.833V133.671H405.701V133.244H406.134V132.816H407.001V132.389H407.868V131.962H408.735V131.535H409.603V131.108H410.036V130.68H410.903V130.253H411.77V129.826H412.638V129.399H413.505V128.971H414.372V128.544H415.239V128.117H416.106V127.69H416.973V127.263H417.84V126.835H418.707V126.408H419.575V125.981H420.442V125.554H421.309V125.126H422.176V124.699H423.043V124.272H423.91V123.845H424.777V123.418H425.644V122.99H426.945V122.563H427.812V122.136H428.679V121.709H429.546V121.281H430.413V120.854H431.714V120.427H432.581V120H433.448V119.573H434.316V119.145H435.616V118.718H436.483V118.291H437.35V117.864H438.218V117.436H439.518V117.009H440.385V116.582H441.686V116.155H442.553V115.728H443.854V115.3H444.721V114.873H446.022V114.446H446.889V114.019H448.189V113.591H449.057V113.164H450.357V112.737H451.224V112.31H452.525V111.883H453.826V111.455H455.126V111.028H455.993V110.601H457.294V110.174H458.595V109.746H459.896V109.319H461.196V108.892H462.063V108.465H463.364V108.038H464.665V107.61H465.965V107.183H467.266V106.756H468.567V106.329H470.301V105.901H471.602V105.474H472.902V105.047H474.203V104.62H475.504V104.193H477.238V103.765H478.539V103.338H479.839V102.911H481.574V102.484H483.308V102.056H484.608V101.629H486.343V101.202H488.077V100.775H489.811V100.348H491.112V99.9204H492.846V99.4931H494.58V99.0659H496.315V98.6387H498.482V98.2115H500.217V97.7843H502.384V97.357H504.119V96.9298H506.286V96.5026H508.021V96.0754H510.188V95.6482H512.79V95.2209H514.958V94.7937H517.559V94.3665H519.727V93.9392H522.328V93.512H525.363V93.0848H528.398V92.6576H531.433V92.2304H534.468V91.8031H537.936V91.3759H542.272V90.9487H547.041V90.5215H551.377V90.0943H559.614V89.667H579.992V89.2398H580.425V89.667H591.698V90.0943H598.201V90.5215H602.97V90.9487H607.739V91.3759H611.208V91.8031H614.243V92.2304H617.278V92.6576H620.313V93.0848H622.914V93.512H625.082V93.9392H627.683V94.3665H629.851V94.7937H632.019V95.2209H634.187V95.6482H636.354V96.0754H637.655V96.5026H639.389V96.9298H641.123V97.357H642.858V97.7843H644.592V98.2115H646.326V98.6387H648.06V99.0659H649.361V99.4931H650.662V99.9204H652.396V100.348H653.697V100.775H654.997V101.202H656.298V101.629H657.599V102.056H658.899V102.484H660.2V102.911H661.501V103.338H662.802V103.765H664.102V104.193H664.969V104.62H666.27V105.047H667.571V105.474H668.438V105.901H669.738V106.329H670.606V106.756H671.906V107.183H672.773V107.61H673.207V108.038H672.34V107.61H670.606V107.183H669.305V106.756H667.571V106.329H665.836V105.901H664.102V105.474H662.368V105.047H660.634V104.62H658.899V104.193H656.732V103.765H654.13V103.338H651.529V102.911H649.361V102.484H646.76V102.056H644.158V101.629H639.823V101.202H634.62V100.775H629.851V100.348H610.774V100.775H604.705V101.202H598.201V101.629H595.166V102.056H592.131V102.484H589.096V102.911H586.061V103.338H583.026V103.765H580.425V104.193H578.691V104.62H576.523V105.047H574.355V105.474H572.187V105.901H570.453V106.329H568.285V106.756H566.118V107.183H564.817V107.61H563.083V108.038H561.782V108.465H560.048V108.892H558.314V109.319H557.013V109.746H555.279V110.174H553.978V110.601H552.244V111.028H550.943V111.455H549.642V111.883H548.342V112.31H547.041V112.737H545.74V113.164H544.44V113.591H543.139V114.019H541.838V114.446H540.538V114.873H539.237V115.3H538.37V115.728H537.069V116.155H535.769V116.582H534.468V117.009H533.601V117.436H532.3V117.864H531.433V118.291H530.132V118.718H529.265V119.145H528.398V119.573H527.097V120H526.23V120.427H524.929V120.854H524.062V121.281H522.762V121.709H521.895V122.136H520.594V122.563H519.727V122.99H518.86V123.418H517.993V123.845H517.125V124.272H516.258V124.699H515.391V125.126H514.524V125.554H513.223V125.981H512.356V126.408H511.489V126.835H510.622V127.263H509.755V127.69H508.888V128.117H508.021V128.544H507.154V128.971H506.286V129.399H505.419V129.826H504.552V130.253H503.685V130.68H502.818V131.108H501.951V131.535H501.084V131.962H500.217V132.389H499.783V132.816H498.916V133.244H498.049V133.671H497.182V134.098H496.315V134.525H495.447V134.953H495.014V135.38H494.147V135.807H493.28V136.234H492.413V136.661H491.545V137.089H490.678V137.516H490.245V137.943H489.378V138.37H488.51V138.798H488.077V139.225H487.21V139.652H486.343V140.079H485.909V140.506H485.042V140.934H484.608V141.361H483.741V141.788H482.874V142.215H482.441V142.643H481.574V143.07H480.706V143.497H480.273V143.924H479.406V144.351H478.972V144.779H478.105V145.206H477.238V145.633H476.804V146.06H475.937V146.488H475.504V146.915H474.637V147.342H474.203V147.769H473.336V148.196H472.902V148.624H472.035V149.051H471.602V149.478H470.735V149.905H470.301V150.333H469.434V150.76H469V151.187H468.567V151.614H467.7V152.041H467.266V152.469H466.399V152.896H465.965V153.323H465.098V153.75H464.665V154.177H463.798V154.605H463.364V155.032H462.93V155.459H462.063V155.886H461.63V156.314H460.763V156.741H460.329V157.168H459.896V157.595H459.028V158.023H458.595V158.45H458.161V158.877H457.728V159.304H456.861V159.731H456.427V160.159H455.993V160.586H455.126V161.013H454.693V161.44H454.259V161.867H453.392V162.295H452.959V162.722H452.525V163.149H452.091V163.576H451.224V164.004H450.791V164.431H450.357V164.858H449.49V165.285H449.057V165.713H448.623V166.14H447.756V166.567H447.322V166.994H446.889V167.421H446.455V167.849H446.022V168.276H445.588V168.703H444.721V169.13H444.287V169.557H443.854V169.985H443.42V170.412H442.987V170.839H442.553V171.266H441.686V171.694H441.252V172.121H440.819V172.548H440.385V172.975H439.952V173.402H439.518V173.83H438.651V174.257H438.218V174.684H437.784V175.111H437.35V175.539H436.917V175.966H436.483V176.393H435.616V176.82H435.183V177.247H434.749V177.675H434.316V178.102H433.882V178.529H433.448V178.956H433.015V179.384H432.581V179.811H432.148V180.238H431.714V180.665H431.281V181.092H430.847V181.52H430.413V181.947H429.98V182.374H429.546V182.801H429.113V183.229H428.246V183.656H427.812V184.083H427.379V184.51H426.945V184.937H426.511V185.365H426.078V185.792H425.644V186.219H425.211V186.646H424.777V187.074H424.344V187.501H423.91V187.928H423.476V188.355H423.043V188.782H422.609V189.21H422.176V189.637H421.742V190.064H421.309V190.491H420.875V190.919H420.442V191.346H420.008V191.773H419.575V192.2H419.141V192.627H418.707V193.055H418.274V193.482H417.84V194.336H417.407V194.764H416.973V195.191H416.54V195.618H416.106V196.045H415.672V196.472H415.239V196.9H414.805V197.327H414.372V197.754H413.938V198.181H413.505V198.609H413.071V199.036H412.638V199.463H412.204V199.89H411.77V200.317H411.337V200.745H410.903V201.599H410.47V202.026H410.036V202.454H409.603V202.881H409.169V203.308H408.735V204.162H408.302V204.59H407.868V205.017H407.435V205.444H407.001V205.871H406.568V206.299H406.134V207.153H405.701V207.58H405.267V208.007H404.833V208.435H404.4V208.862H403.966V209.716H403.533V210.144H403.099V210.571H402.666V210.998H402.232V211.425H401.799V211.852H401.365V212.707H400.931V213.134H400.498V213.561H400.064V213.988H399.631V214.843H399.197V215.27H398.764V215.697H398.33V216.552H397.897V216.979H397.463V217.406H397.029V218.261H396.596V218.688H396.162V219.115H395.729V219.97H395.295V220.397H394.862V220.824H394.428V221.678H393.994V222.106H393.561V222.533H393.127V223.387H392.694V223.815H392.26V224.242H391.827V225.096H391.393V225.524H390.96V225.951H390.526V226.805H390.092V227.232H389.659V228.087H389.225V228.514H388.792V229.368H388.358V229.796H387.925V230.65H387.491V231.077H387.058V231.932H386.624V232.359H386.19V233.213H385.757V233.641H385.323V234.495H384.89V234.922H384.456V235.777H384.023V236.204H383.589V237.058H383.155V237.486H382.722V238.34H382.288V238.767H381.855V239.622H381.421V240.049H380.988V240.904H380.554V241.758H380.121V242.185H379.687V243.04H379.253V243.894H378.82V244.748H378.386V245.176H377.953V246.03H377.519V246.885H377.086V247.739H376.652V248.166H376.219V249.021H375.785V249.875H375.351V250.73H374.918V251.157H374.484V252.011H374.051V252.866H373.617V253.72H373.184V254.147H372.75V255.002H372.316V255.856H371.883V256.711H371.449V257.565H371.016V258.42H370.582V259.274H370.149V260.128H369.715V260.983H369.282V262.265H368.848V263.119H368.414V263.973H367.981V264.828H367.547V265.682H367.114V266.537H366.68V267.391H366.247V268.246H365.813V269.1H365.38V269.955H364.946V271.236H364.512V272.091H364.079V273.372H363.645V274.227H363.212V275.508H362.778V276.363H362.345V277.217H361.911V278.499H361.477V279.353H361.044V280.635H360.61V281.49H360.177V282.771H359.743V283.626H359.31V284.907H358.876V286.189H358.443V287.471H358.009V288.752H357.575V290.034H357.142V291.316H356.708V293.025H356.275V294.306H355.841V295.588H355.408V296.87H354.974V298.151H354.541V299.433H354.107V301.142H353.673V302.851H353.24V304.987H352.806V306.696H352.373V308.405H351.939V310.113H351.506V311.822H351.072V313.531H350.639V316.094H350.205V318.658H349.771V321.648H349.338V324.212H348.904V326.775H348.471V329.766H348.037V334.892H347.604V341.301H347.17V361.807H347.604V365.652H348.037V369.924H348.471V373.769H348.904V377.614H349.338V379.751H349.771V381.459H350.205V383.596H350.639V385.732H351.072V387.868H351.506V390.004H351.939V392.14H352.373V393.849H352.806V395.558H353.24V396.839H353.673V398.548H354.107V399.83H354.541V401.539H354.974V402.82H355.408V404.529H355.841V405.811H356.275V407.093H356.708V408.374H357.142V409.229H357.575V410.083H358.009V410.938H358.443V412.219H358.876V412.647H359.31V413.501H359.743V414.355H360.177V415.21H360.61V416.064H361.044V416.919H361.477V417.773H361.911V418.628H362.345V419.482H362.778V420.337H363.212V420.764H363.645V421.618H364.079V422.473H364.512V422.9H364.946V423.754H365.38V424.609H365.813V425.036H366.247V425.89H366.68V426.745H367.114V427.599H367.547V428.027H367.981V428.881H368.414V429.735H368.848V430.163H369.282V431.017H369.715V431.444H370.149V432.299H370.582V432.726H371.016V433.58H371.449V434.008H371.883V434.862H372.316V435.289H372.75V436.144H373.184V436.571H373.617V437.425H374.051V437.853H374.484V438.707H374.918V439.134H375.351V439.989H375.785V440.416H376.219V441.27H376.652V441.698H377.086V442.125H377.519V442.979H377.953V443.407H378.386V443.834H378.82V444.688H379.253V445.115H379.687V445.543H380.121V446.397H380.554V446.824H380.988V447.252H381.421V448.106H381.855V448.533H382.288V448.96H382.722V449.815H383.155V450.242H383.589V450.669H384.023V451.097H384.456V451.524H384.89V451.951H385.323V452.805H385.757V453.233H386.19V453.66H386.624V454.087H387.058V454.514H387.491V455.369H387.925V455.796H388.358V456.223H388.792V456.65H389.225V457.078H389.659V457.505H390.092V458.359H390.526V458.787H390.96V459.214H391.393V459.641H391.827V460.068H392.26V460.495H392.694V460.923H393.127V461.35H393.561V461.777H393.994V462.204H394.428V462.631H394.862V463.059H395.295V463.486H395.729V463.913H396.162V464.34H396.596V464.768H397.029V465.195H397.463V465.622H397.897V466.049H398.33V466.904H399.197V467.331H399.631V467.758H400.064V468.185H400.498V468.613H400.931V469.04H401.365V469.467H401.799V469.894H402.232V470.321H402.666V470.749H403.099V471.176H403.533V471.603H403.966V472.03H404.4V472.458H404.833V472.885H405.701V473.312H406.134V473.739H406.568V474.166H407.001V474.594H407.435V475.021H407.868V475.448H408.302V475.875H409.169V476.303H409.603V476.73H410.036V477.157H410.47V477.584H410.903V478.011H411.77V478.439H412.204V478.866H412.638V479.293H413.071V479.72H413.505V480.148H414.372V480.575H414.805V481.002H415.239V481.429H415.672V481.856H416.54V482.284H416.973V482.711H417.407V483.138H418.274V483.565H418.707V483.993H419.141V484.42H420.008V484.847H420.442V485.274H420.875V485.701H421.742V486.129H422.176V486.556H422.609V486.983H423.476V487.41H423.91V487.838H424.344V488.265H425.211V488.692H425.644V489.119H426.511V489.546H426.945V489.974H427.812V490.401H428.246V490.828H429.113V491.255H429.546V491.683H430.413V492.11H430.847V492.537H431.714V492.964H432.148V493.391H433.015V493.819H433.448V494.246H434.316V494.673H435.183V495.1H435.616V495.528H436.483V495.955H437.35V496.382H437.784V496.809H438.651V497.236H439.518V497.664H440.385V498.091H440.819V498.518H441.686V498.945H442.553V499.373H442.987V499.8H443.854V500.227H444.721V500.654H445.588V501.081H446.455V501.509H447.322V501.936H447.756V502.363H448.623V502.79H449.49V503.218H450.357V503.645H451.224V504.072H452.091V504.499H452.959V504.926H453.826V505.354H454.693V505.781H455.56V506.208H456.427V506.635H457.294V507.063H458.161V507.49H459.462V507.917H460.329V508.344H461.196V508.771H462.063V509.199H462.93V509.626H463.798V510.053H464.665V510.48H465.965V510.908H466.832V511.335H468.133V511.762H469V512.189H470.301V512.616H471.168V513.044H472.035V513.471H473.336V513.898H474.203V514.325H475.504V514.753H476.371V515.18H477.671V515.607H478.972V516.034H480.273V516.461H481.574V516.889H482.441V517.316H483.741V517.743H485.042V518.17H486.343V518.598H487.643V519.025H488.944V519.452H490.245V519.879H491.545V520.306H492.846V520.734H494.147V521.161H495.881V521.588H497.182V522.015H498.482V522.443H500.217V522.87H501.517V523.297H503.252V523.724H504.986V524.151H506.286V524.579H508.021V525.006H509.755V525.433H511.489V525.86H513.223V526.288H514.958V526.715H516.692V527.142H518.86V527.569H520.594V527.996H522.328V528.424H524.496V528.851H526.664V529.278H528.832V529.705H531.433V530.133H533.601V530.56H535.769V530.987H538.37V531.414H540.971V531.841H543.573V532.269H546.174V532.696H549.209V533.123H552.677V533.55H555.712V533.978H559.181V534.405H562.649V534.832H566.985V535.259H570.887V535.686H575.656V536.114H581.292V536.541H586.929V536.968H594.733V537.395H604.705V537.822H649.795V537.395H661.501V536.968H670.172V536.541H677.109V536.114H683.612V535.686H689.682V535.259H694.885V534.832H700.521V534.405H705.29V533.978H709.626V533.55H714.395V533.123H718.297V532.696H722.633V532.269H726.535V531.841H730.437V531.414H734.339V530.987H737.807V530.56H741.276V530.133H744.744V529.705H748.213V529.278H751.681V528.851H754.716V528.424H758.185V527.996H761.22V527.569H764.254V527.142H767.289V526.715H770.324V526.288H773.359V525.86H776.394V525.433H779.429V525.006H782.03V524.579H785.065V524.151H787.667V523.724H790.702V523.297H793.303V522.87H796.338V522.443H798.939V522.015H801.541V521.588H804.142V521.161H806.743V520.734H809.345V520.306H811.946V519.879H814.547V519.452H817.149V519.025H819.317V518.598H821.918V518.17H824.519V517.743H827.121V517.316H829.288V516.889H831.89V516.461H834.058V516.034H836.659V515.607H839.26V515.18H841.428V514.753H843.596V514.325H846.197V513.898H848.365V513.471H850.533V513.044H853.134V512.616H855.302V512.189H857.47V511.762H860.071V511.335H862.239V510.908H864.407V510.48H866.575V510.053H868.742V509.626H870.91V509.199H873.078V508.771H875.679V508.344H877.847V507.917H880.015V507.49H882.183V507.063H884.35V506.635H886.518V506.208H888.686V505.781H890.42V505.354H892.588V504.926H894.756V504.499H896.924V504.072H899.091V503.645H901.259V503.218H903.427V502.79H905.595V502.363H907.329V501.936H909.497V501.509H911.665V501.081H913.833V500.654H916V500.227H917.735V499.8H919.902V499.373H922.07V498.945H923.804V498.518H925.972V498.091H928.14V497.664H930.308V497.236H932.042V496.809H934.21V496.382H936.378V495.955H938.112V495.528H940.28V495.1H942.014V494.673H944.182V494.246H946.349V493.819H948.084V493.391H950.252V492.964H951.986V492.537H954.154V492.11H956.321V491.683H958.056V491.255H960.223V490.828H961.958V490.401H964.125V489.974H965.86V489.546H968.027V489.119H969.762V488.692H971.93V488.265H973.664V487.838H975.832V487.41H977.566V486.983H979.734V486.556H981.468V486.129H983.636V485.701H985.37V485.274H987.538V484.847H989.272V484.42H991.44V483.993H993.174V483.565H995.342V483.138H997.076V482.711H999.244V482.284H1000.98V481.856H1003.15V481.429H1004.88V481.002H1006.61V480.575H1008.78V480.148H1010.52V479.72H1012.68V479.293H1014.42V478.866H1016.59V478.439H1018.32V478.011H1020.49V477.584H1022.22V477.157H1023.96V476.73H1026.12V476.303H1027.86V475.875H1030.03V475.448H1031.76V475.021H1033.93V474.594H1035.66V474.166H1037.83V473.739H1039.56V473.312H1041.3V472.885H1043.47V472.458H1045.2V472.03H1047.37V471.603H1049.1V471.176H1051.27V470.749H1053.01V470.321H1055.17V469.894H1056.91V469.467H1059.08V469.04H1060.81V468.613H1062.98V468.185H1064.71V467.758H1066.88V467.331H1068.61V466.904H1070.78V466.476H1072.52V466.049H1074.68V465.622H1076.42V465.195H1078.59V464.768H1080.32V464.34H1082.49V463.913H1084.22V463.486H1086.39V463.059H1088.12V462.631H1090.29V462.204H1092.03V461.777H1094.19V461.35H1096.36V460.923H1098.1V460.495H1100.26V460.068H1102V459.641H1104.17V459.214H1106.33V458.787H1108.07V458.359H1110.24V457.932H1112.4V457.505H1114.14V457.078H1116.3V456.65H1118.47V456.223H1120.21V455.796H1122.37V455.369H1124.54V454.942H1126.28V454.514H1128.44V454.087H1130.61V453.66H1132.78V453.233H1134.95V452.805H1136.68V452.378H1138.85V451.951H1141.02V451.524H1143.19V451.097H1145.35V450.669H1147.52V450.242H1149.69V449.815H1151.86V449.388H1154.02V448.96H1156.19V448.533H1158.36V448.106H1160.53V447.679H1162.7V447.252H1164.86V446.824H1167.03V446.397H1169.2V445.97H1171.8V445.543H1173.97V445.115H1176.14V444.688H1178.3V444.261H1180.91V443.834H1183.07V443.407H1185.24V442.979H1187.84V442.552H1190.01V442.125H1192.61V441.698H1194.78V441.27H1197.38V440.843H1199.98V440.416H1202.15V439.989H1203.02V440.843H1201.28V441.27H1199.98V441.698H1198.68V442.125H1196.95V442.552H1195.65V442.979H1193.91V443.407H1192.61V443.834H1191.31V444.261H1189.58V444.688H1188.28V445.115H1186.54V445.543H1185.24V445.97H1183.94V446.397H1182.21V446.824H1180.91V447.252H1179.17V447.679H1177.87V448.106H1176.14V448.533H1174.84V448.96H1173.53V449.388H1171.8V449.815H1170.5V450.242H1168.77V450.669H1167.46V451.097H1166.16V451.524H1164.43V451.951H1163.13V452.378H1161.4V452.805H1160.09V453.233H1158.36V453.66H1157.06V454.087H1155.76V454.514H1154.02V454.942H1152.72V455.369H1150.99V455.796H1149.69V456.223H1147.95V456.65H1146.65V457.078H1145.35V457.505H1143.62V457.932H1142.32V458.359H1140.58V458.787H1139.28V459.214H1137.55V459.641H1136.25V460.068H1134.95V460.495H1133.21V460.923H1131.91V461.35H1130.18V461.777H1128.88V462.204H1127.14V462.631H1125.84V463.059H1124.11V463.486H1122.81V463.913H1121.51V464.34H1119.77V464.768H1118.47V465.195H1116.74V465.622H1115.44V466.049H1113.7V466.476H1112.4V466.904H1110.67V467.331H1109.37V467.758H1108.07V468.185H1106.33V468.613H1105.03V469.04H1103.3V469.467H1102V469.894H1100.26V470.321H1098.96V470.749H1097.23V471.176H1095.93V471.603H1094.19V472.03H1092.89V472.458H1091.59V472.885H1089.86V473.312H1088.56V473.739H1086.82V474.166H1085.52V474.594H1083.79V475.021H1082.49V475.448H1080.75V475.875H1079.45V476.303H1077.72V476.73H1076.42V477.157H1074.68V477.584H1073.38V478.011H1072.08V478.439H1070.35V478.866H1069.05V479.293H1067.31V479.72H1066.01V480.148H1064.28V480.575H1062.98V481.002H1061.24V481.429H1059.94V481.856H1058.21V482.284H1056.91V482.711H1055.17V483.138H1053.87V483.565H1052.14V483.993H1050.84V484.42H1049.1V484.847H1047.8V485.274H1046.5V485.701H1044.77V486.129H1043.47V486.556H1041.73V486.983H1040.43V487.41H1038.7V487.838H1037.4V488.265H1035.66V488.692H1034.36V489.119H1032.63V489.546H1031.33V489.974H1029.59V490.401H1028.29V490.828H1026.56V491.255H1025.26V491.683H1023.52V492.11H1022.22V492.537H1020.49V492.964H1019.19V493.391H1017.45V493.819H1016.15V494.246H1014.42V494.673H1013.12V495.1H1011.38V495.528H1010.08V495.955H1008.35V496.382H1007.05V496.809H1005.31V497.236H1004.01V497.664H1002.28V498.091H1000.98V498.518H999.244V498.945H997.943V499.373H996.209V499.8H994.908V500.227H993.174V500.654H991.873V501.081H990.139V501.509H988.838V501.936H987.104V502.363H985.803V502.79H984.069V503.218H982.769V503.645H981.034V504.072H979.734V504.499H977.999V504.926H976.699V505.354H974.964V505.781H973.23V506.208H971.93V506.635H970.195V507.063H968.895V507.49H967.16V507.917H965.86V508.344H964.125V508.771H962.825V509.199H961.09V509.626H959.79V510.053H958.056V510.48H956.755V510.908H955.021V511.335H953.72V511.762H951.986V512.189H950.685V512.616H948.951V513.044H947.217V513.471H945.916V513.898H944.182V514.325H942.881V514.753H941.147V515.18H939.846V515.607H938.112V516.034H936.811V516.461H935.077V516.889H933.776V517.316H932.042V517.743H930.308V518.17H929.007V518.598H927.273V519.025H925.972V519.452H924.238V519.879H922.937V520.306H921.203V520.734H919.902V521.161H918.168V521.588H916.434V522.015H915.133V522.443H913.399V522.87H912.098V523.297H910.364V523.724H908.63V524.151H907.329V524.579H905.595V525.006H904.294V525.433H902.56V525.86H901.259V526.288H899.525V526.715H897.791V527.142H896.49V527.569H894.756V527.996H893.455V528.424H891.721V528.851H890.42V529.278H888.686V529.705H886.952V530.133H885.651V530.56H883.917V530.987H882.616V531.414H880.882V531.841H879.148V532.269H877.847V532.696H876.113V533.123H874.812V533.55H873.078V533.978H871.344V534.405H870.043V534.832H868.309V535.259H866.575V535.686H865.274V536.114H863.54V536.541H862.239V536.968H860.505V537.395H858.77V537.822H857.47V538.25H855.736V538.677H854.001V539.104H852.701V539.531H850.966V539.959H849.666V540.386H847.931V540.813H846.197V541.24H844.897V541.667H843.162V542.095H841.428V542.522H840.127V542.949H838.393V543.376H836.659V543.804H835.358V544.231H833.624V544.658H831.89V545.085H830.589V545.512H828.855V545.94H827.121V546.367H825.82V546.794H824.086V547.221H822.351V547.649H821.051V548.076H819.317V548.503H817.582V548.93H816.282V549.357H814.547V549.785H812.813V550.212H811.512V550.639H809.778V551.066H808.044V551.494H806.31V551.921H805.009V552.348H803.275V552.775H801.541V553.202H800.24V553.63H798.506V554.057H796.771V554.484H795.037V554.911H793.736V555.339H792.002V555.766H790.268V556.193H788.534V556.62H787.233V557.047H785.499V557.475H783.765V557.902H782.03V558.329H780.73V558.756H778.995V559.184H777.261V559.611H775.527V560.038H774.226V560.465H772.492V560.892H770.758V561.32H769.024V561.747H767.289V562.174H765.989V562.601H764.254V563.029H762.52V563.456H760.786V563.883H759.052V564.31H757.751V564.737H756.017V565.165H754.283V565.592H752.548V566.019H750.814V566.446H749.08V566.874H747.346V567.301H746.045V567.728H744.311V568.155H742.576V568.582H740.842V569.01H739.108V569.437H737.374V569.864H735.639V570.291H733.905V570.719H732.171V571.146H730.437V571.573H728.703V572H727.402V572.427H725.668V572.855H723.933V573.282H722.199V573.709H720.465V574.136H718.731V574.564H716.996V574.991H715.262V575.418H713.094V575.845H711.36V576.272H709.626V576.7H707.892V577.127H706.157V577.554H704.423V577.981H702.689V578.409H700.955V578.836H699.22V579.263H697.053V579.69H695.318V580.117H693.584V580.545H691.85V580.972H690.116V581.399H687.948V581.826H686.214V582.254H684.046V582.681H682.312V583.108H680.577V583.535H678.41V583.962H676.675V584.39H674.508V584.817H672.773V585.244H670.606V585.671H668.438V586.099H666.704V586.526H664.536V586.953H662.368V587.38H660.634V587.807H658.466V588.235H656.298V588.662H654.13V589.089H651.962V589.516H649.795V589.944H648.06V590.371H645.459V590.798H643.291V591.225H641.123V591.652H638.956V592.08H636.788V592.507H634.62V592.934H632.019V593.361H629.417V593.789H627.25V594.216H624.648V594.643H622.48V595.07H619.879V595.497H616.844V595.925H614.243V596.352H611.641V596.779H608.607V597.206H605.572V597.634H602.537V598.061H599.068V598.488H596.033V598.915H592.131V599.342H588.229V599.77H584.327V600.197H579.124V600.624H573.488V601.051H565.684V601.479H533.601ZM616.844 512.189V511.762H607.739V511.335H602.537V510.908H597.768V510.48H593.432V510.053H590.397V509.626H587.362V509.199H584.327V508.771H581.292V508.344H579.124V507.917H576.957V507.49H574.789V507.063H572.187V506.635H570.02V506.208H567.852V505.781H566.118V505.354H564.383V504.926H562.649V504.499H561.349V504.072H559.614V503.645H557.88V503.218H556.146V502.79H554.412V502.363H553.111V501.936H551.81V501.509H550.51V501.081H548.775V500.654H547.475V500.227H546.174V499.8H544.873V499.373H543.573V498.945H542.272V498.518H540.971V498.091H539.671V497.664H538.803V497.236H537.503V496.809H536.636V496.382H535.335V495.955H534.034V495.528H533.167V495.1H531.866V494.673H530.999V494.246H530.132V493.819H529.699V493.391H530.566V493.819H531.866V494.246H533.167V494.673H534.468V495.1H536.202V495.528H537.936V495.955H539.671V496.382H541.405V496.809H543.139V497.236H545.307V497.664H547.908V498.091H550.076V498.518H552.677V498.945H555.279V499.373H557.88V499.8H560.915V500.227H566.118V500.654H570.887V501.081H595.6V500.654H601.67V500.227H606.872V499.8H609.907V499.373H612.942V498.945H615.977V498.518H619.012V498.091H621.613V497.664H623.781V497.236H625.949V496.809H627.683V496.382H629.851V495.955H632.019V495.528H634.187V495.1H635.921V494.673H637.655V494.246H639.389V493.819H640.69V493.391H642.424V492.964H644.158V492.537H645.459V492.11H647.193V491.683H648.494V491.255H650.228V490.828H651.962V490.401H653.263V489.974H654.564V489.546H655.865V489.119H656.732V488.692H658.032V488.265H659.333V487.838H660.634V487.41H661.934V486.983H663.235V486.556H664.536V486.129H665.836V485.701H667.137V485.274H668.004V484.847H669.305V484.42H670.172V483.993H671.473V483.565H672.34V483.138H673.64V482.711H674.508V482.284H675.375V481.856H676.675V481.429H677.543V481.002H678.843V480.575H679.71V480.148H681.011V479.72H681.878V479.293H683.179V478.866H684.046V478.439H684.913V478.011H685.78V477.584H686.647V477.157H687.514V476.73H688.381V476.303H689.249V475.875H690.116V475.448H691.416V475.021H692.284V474.594H693.151V474.166H694.018V473.739H694.885V473.312H695.752V472.885H696.619V472.458H697.486V472.03H698.353V471.603H699.22V471.176H700.088V470.749H700.955V470.321H701.822V469.894H702.255V469.467H703.123V469.04H703.99V468.613H704.857V468.185H705.724V467.758H706.591V467.331H707.025V466.904H707.892V466.476H708.759V466.049H709.626V465.622H710.493V465.195H711.36V464.768H711.794V464.34H712.661V463.913H713.528V463.486H714.395V463.059H714.829V462.631H715.696V462.204H716.563V461.777H716.996V461.35H717.864V460.923H718.297V460.495H719.164V460.068H720.031V459.641H720.465V459.214H721.332V458.787H722.199V458.359H722.633V457.932H723.5V457.505H723.933V457.078H724.801V456.65H725.668V456.223H726.101V455.796H726.968V455.369H727.835V454.942H728.269V454.514H728.703V454.087H729.57V453.66H730.003V453.233H730.87V452.805H731.304V452.378H732.171V451.951H732.605V451.524H733.472V451.097H733.905V450.669H734.339V450.242H735.206V449.815H735.639V449.388H736.507V448.96H736.94V448.533H737.807V448.106H738.241V447.679H739.108V447.252H739.542V446.824H740.409V446.397H740.842V445.97H741.276V445.543H742.143V445.115H742.576V444.688H743.01V444.261H743.877V443.834H744.311V443.407H744.744V442.979H745.611V442.552H746.045V442.125H746.478V441.698H746.912V441.27H747.779V440.843H748.213V440.416H748.646V439.989H749.513V439.562H749.947V439.134H750.381V438.707H751.248V438.28H751.681V437.853H752.115V437.425H752.548V436.998H753.415V436.571H753.849V436.144H754.283V435.717H755.15V435.289H755.583V434.862H756.017V434.435H756.45V434.008H756.884V433.58H757.751V433.153H758.185V432.726H758.618V432.299H759.052V431.872H759.485V431.444H759.919V431.017H760.786V430.59H761.22V430.163H761.653V429.735H762.087V429.308H762.52V428.881H762.954V428.454H763.821V428.027H764.254V427.599H764.688V427.172H765.122V426.745H765.555V426.318H765.989V425.89H766.856V425.463H767.289V425.036H767.723V424.609H768.157V424.182H768.59V423.754H769.024V423.327H769.457V422.9H769.891V422.473H770.324V422.045H770.758V421.618H771.191V421.191H772.059V420.764H772.492V420.337H772.926V419.909H773.359V419.482H773.793V419.055H774.226V418.628H774.66V418.2H775.093V417.773H775.527V417.346H775.96V416.919H776.394V416.492H776.828V416.064H777.261V415.637H777.695V415.21H778.128V414.783H778.562V414.355H778.995V413.928H779.429V413.501H779.863V413.074H780.296V412.647H780.73V412.219H781.163V411.792H781.597V411.365H782.03V410.938H782.464V410.51H782.897V410.083H783.331V409.656H783.765V409.229H784.198V408.802H784.632V408.374H785.065V407.947H785.499V407.52H785.932V407.093H786.366V406.665H786.8V406.238H787.233V405.811H787.667V404.957H788.1V404.529H788.534V404.102H788.967V403.675H789.401V403.248H789.834V402.82H790.268V402.393H790.702V401.966H791.135V401.539H791.569V401.112H792.002V400.684H792.436V400.257H792.869V399.403H793.303V398.975H793.736V398.548H794.17V398.121H794.604V397.694H795.037V397.267H795.471V396.412H795.904V395.985H796.338V395.558H796.771V395.13H797.205V394.703H797.639V393.849H798.072V393.422H798.506V392.994H798.939V392.567H799.373V392.14H799.806V391.713H800.24V390.858H800.673V390.431H801.107V390.004H801.541V389.577H801.974V389.149H802.408V388.295H802.841V387.868H803.275V387.441H803.708V387.013H804.142V386.159H804.575V385.732H805.009V385.304H805.443V384.45H805.876V384.023H806.31V383.596H806.743V382.741H807.177V382.314H807.61V381.887H808.044V381.032H808.478V380.605H808.911V380.178H809.345V379.323H809.778V378.896H810.212V378.469H810.645V377.614H811.079V377.187H811.512V376.76H811.946V375.906H812.38V375.478H812.813V375.051H813.247V374.197H813.68V373.769H814.114V372.915H814.547V372.488H814.981V371.633H815.415V371.206H815.848V370.352H816.282V369.497H816.715V369.07H817.149V368.216H817.582V367.788H818.016V366.934H818.449V366.507H818.883V365.652H819.317V365.225H819.75V364.371H820.184V363.943H820.617V363.089H821.051V362.662H821.484V361.807H821.918V361.38H822.351V360.526H822.785V359.671H823.219V359.244H823.652V358.389H824.086V357.535H824.519V356.681H824.953V356.253H825.386V355.399H825.82V354.544H826.254V353.69H826.687V353.263H827.121V352.408H827.554V351.554H827.988V351.127H828.421V350.272H828.855V349.418H829.288V348.563H829.722V348.136H830.156V347.282H830.589V346.427H831.023V345.573H831.456V344.718H831.89V343.864H832.323V343.009H832.757V342.155H833.19V341.301H833.624V340.446H834.058V339.592H834.491V338.737H834.925V337.456H835.358V336.601H835.792V335.747H836.225V334.892H836.659V334.038H837.092V333.183H837.526V332.329H837.96V331.474H838.393V330.193H838.827V329.338H839.26V328.057H839.694V327.202H840.127V325.921H840.561V325.066H840.994V324.212H841.428V322.93H841.862V322.076H842.295V320.794H842.729V319.939H843.162V318.658H843.596V317.803H844.029V316.522H844.463V315.24H844.897V313.958H845.33V312.677H845.764V310.968H846.197V309.686H846.631V308.405H847.064V307.123H847.498V305.841H847.931V304.56H848.365V303.278H848.799V301.569H849.232V299.86H849.666V298.151H850.099V296.442H850.533V294.733H850.966V293.025H851.4V290.888H851.833V289.18H852.267V287.471H852.701V284.907H853.134V282.344H853.568V279.781H854.001V276.79H854.435V274.227H854.868V271.236H855.302V265.255H855.736V259.274H856.169V242.185H855.736V236.631H855.302V232.786H854.868V228.941H854.435V225.096H854.001V222.533H853.568V220.397H853.134V218.261H852.701V216.125H852.267V213.988H851.833V212.28H851.4V210.144H850.966V208.007H850.533V206.726H850.099V205.017H849.666V203.735H849.232V202.026H848.799V200.745H848.365V199.036H847.931V197.754H847.498V196.045H847.064V194.764H846.631V193.909H846.197V192.627H845.764V191.773H845.33V190.491H844.897V189.637H844.463V188.782H844.029V188.355H843.596V187.501H843.162V186.646H842.729V185.792H842.295V184.937H841.862V184.083H841.428V183.229H840.994V182.374H840.561V181.52H840.127V181.092H839.694V180.238H839.26V179.384H838.827V178.956H838.393V178.102H837.96V177.247H837.526V176.393H837.092V175.966H836.659V175.111H836.225V174.257H835.792V173.83H835.358V172.975H834.925V172.121H834.491V171.694H834.058V170.839H833.624V169.985H833.19V169.557H832.757V168.703H832.323V168.276H831.89V167.421H831.456V166.994H831.023V166.14H830.589V165.713H830.156V164.858H829.722V164.431H829.288V163.576H828.855V163.149H828.421V162.295H827.988V161.867H827.554V161.013H827.121V160.586H826.687V160.159H826.254V159.304H825.82V158.877H825.386V158.45H824.953V158.023H824.519V157.168H824.086V156.741H823.652V156.314H823.219V155.459H822.785V155.032H822.351V154.605H821.918V153.75H821.484V153.323H821.051V152.896H820.617V152.041H820.184V151.614H819.75V151.187H819.317V150.76H818.883V149.905H818.449V149.478H818.016V149.051H817.582V148.624H817.149V148.196H816.715V147.769H816.282V146.915H815.848V146.488H815.415V146.06H814.981V145.633H814.547V145.206H814.114V144.779H813.68V143.924H813.247V143.497H812.813V143.07H812.38V142.643H811.946V142.215H811.512V141.788H811.079V141.361H810.645V140.934H810.212V140.506H809.778V140.079H809.345V139.652H808.911V139.225H808.478V138.798H808.044V138.37H807.61V137.516H807.177V137.089H806.743V136.661H806.31V136.234H805.876V135.807H805.443V135.38H805.009V134.953H804.575V134.525H804.142V134.098H803.708V133.671H803.275V133.244H802.841V132.816H801.974V132.389H801.541V131.962H801.107V131.535H800.673V131.108H800.24V130.68H799.806V130.253H799.373V129.826H798.939V129.399H798.506V128.971H798.072V128.544H797.639V128.117H797.205V127.69H796.771V127.263H795.904V126.835H795.471V126.408H795.037V125.981H794.604V125.554H794.17V125.126H793.303V124.699H792.869V124.272H792.436V123.845H792.002V123.418H791.569V122.99H790.702V122.563H790.268V122.136H789.834V121.709H789.401V121.281H788.967V120.854H788.1V120.427H787.667V120H787.233V119.573H786.8V119.145H785.932V118.718H785.499V118.291H785.065V117.864H784.198V117.436H783.765V117.009H783.331V116.582H782.464V116.155H782.03V115.728H781.163V115.3H780.73V114.873H780.296V114.446H779.429V114.019H778.995V113.591H778.562V113.164H777.695V112.737H777.261V112.31H776.394V111.883H775.96V111.455H775.093V111.028H774.66V110.601H773.793V110.174H773.359V109.746H772.492V109.319H772.059V108.892H771.191V108.465H770.758V108.038H769.891V107.61H769.457V107.183H768.59V106.756H767.723V106.329H767.289V105.901H766.422V105.474H765.555V105.047H764.688V104.62H764.254V104.193H763.387V103.765H762.52V103.338H762.087V102.911H761.22V102.484H760.352V102.056H759.919V101.629H759.052V101.202H758.185V100.775H757.318V100.348H756.45V99.9204H755.583V99.4931H754.716V99.0659H753.849V98.6387H753.415V98.2115H752.548V97.7843H751.681V97.357H750.814V96.9298H749.947V96.5026H749.08V96.0754H748.213V95.6482H747.346V95.2209H746.478V94.7937H745.178V94.3665H744.311V93.9392H743.444V93.512H742.576V93.0848H741.709V92.6576H740.842V92.2304H739.975V91.8031H738.674V91.3759H737.807V90.9487H736.94V90.5215H735.639V90.0943H734.772V89.667H733.472V89.2398H732.605V88.8126H731.304V88.3854H730.437V87.9582H729.57V87.5309H728.269V87.1037H727.402V86.6765H726.101V86.2493H724.801V85.8221H723.5V85.3948H722.633V84.9676H721.332V84.5404H720.031V84.1131H718.731V83.6859H717.43V83.2587H716.563V82.8315H715.262V82.4043H713.528V81.977H712.227V81.5498H710.927V81.1226H709.626V80.6954H708.325V80.2682H707.025V79.8409H705.29V79.4137H703.99V78.9865H702.255V78.5593H700.955V78.1321H699.22V77.7048H697.486V77.2776H696.186V76.8504H694.451V76.4232H692.717V75.996H690.983V75.5688H689.249V75.1415H687.081V74.7143H685.347V74.287H683.612V73.8598H681.878V73.4326H679.71V73.0054H677.543V72.5782H675.375V72.1509H673.207V71.7237H671.039V71.2965H668.871V70.8693H666.27V70.4421H663.669V70.0148H661.067V69.5876H658.032V69.1604H655.431V68.7332H652.396V68.3059H648.928V67.8787H645.893V67.4515H642.424V67.0243H638.522V66.5971H634.187V66.1699H629.851V65.7426H624.648V65.3154H619.012V64.8882H612.509V64.461H604.271V64.0338H590.831V63.6066H560.481V64.0338H546.608V64.461H537.503V64.8882H529.265V65.3154H522.762V65.7426H516.258V66.1699H511.056V66.5971H505.419V67.0243H500.65V67.4515H495.881V67.8787H491.545V68.3059H486.776V68.7332H482.874V69.1604H478.972V69.5876H475.07V70.0148H470.735V70.4421H467.266V70.8693H463.798V71.2965H460.329V71.7237H456.861V72.1509H453.392V72.5782H449.924V73.0054H446.889V73.4326H443.42V73.8598H440.385V74.287H437.35V74.7143H434.316V75.1415H431.281V75.5688H428.246V75.996H425.211V76.4232H422.609V76.8504H419.575V77.2776H416.973V77.7048H413.938V78.1321H411.337V78.5593H408.302V78.9865H405.701V79.4137H403.099V79.8409H400.498V80.2682H397.897V80.6954H395.295V81.1226H392.694V81.5498H390.092V81.977H387.491V82.4043H384.89V82.8315H382.722V83.2587H380.121V83.6859H377.519V84.1131H374.918V84.5404H372.75V84.9676H370.149V85.3948H367.981V85.8221H365.38V86.2493H363.212V86.6765H360.61V87.1037H358.443V87.5309H355.841V87.9582H353.673V88.3854H351.506V88.8126H348.904V89.2398H346.736V89.667H344.569V90.0943H342.401V90.5215H340.233V90.9487H337.632V91.3759H335.464V91.8031H333.296V92.2304H331.128V92.6576H328.961V93.0848H326.793V93.512H324.625V93.9392H322.457V94.3665H320.289V94.7937H318.122V95.2209H315.954V95.6482H313.786V96.0754H311.618V96.5026H309.45V96.9298H307.283V97.357H305.115V97.7843H302.947V98.2115H300.779V98.6387H299.045V99.0659H296.877V99.4931H294.709V99.9204H292.541V100.348H290.374V100.775H288.639V101.202H286.472V101.629H284.304V102.056H282.136V102.484H280.402V102.911H278.234V103.338H276.066V103.765H274.332V104.193H272.164V104.62H269.996V105.047H268.262V105.474H266.094V105.901H263.927V106.329H262.192V106.756H260.025V107.183H258.29V107.61H256.122V108.038H253.955V108.465H252.22V108.892H250.053V109.319H248.318V109.746H246.151V110.174H243.983V110.601H242.249V111.028H240.081V111.455H238.347V111.883H236.179V112.31H234.444V112.737H232.277V113.164H230.542V113.591H228.375V114.019H226.64V114.446H224.473V114.873H222.738V115.3H220.571V115.728H218.836V116.155H216.669V116.582H214.934V117.009H212.767V117.436H211.032V117.864H208.864V118.291H207.13V118.718H204.962V119.145H203.228V119.573H201.494V120H199.326V120.427H197.592V120.854H195.424V121.281H193.69V121.709H191.522V122.136H189.788V122.563H187.62V122.99H185.886V123.418H183.718V123.845H181.984V124.272H180.25V124.699H178.082V125.126H176.348V125.554H174.18V125.981H172.445V126.408H170.278V126.835H168.543V127.263H166.376V127.69H164.641V128.117H162.907V128.544H160.739V128.971H159.005V129.399H156.837V129.826H155.103V130.253H152.935V130.68H151.201V131.108H149.033V131.535H147.299V131.962H145.131V132.389H143.397V132.816H141.229V133.244H139.495V133.671H137.761V134.098H135.593V134.525H133.859V134.953H131.691V135.38H129.957V135.807H127.789V136.234H126.055V136.661H123.887V137.089H121.719V137.516H119.985V137.943H117.817V138.37H116.083V138.798H113.915V139.225H112.181V139.652H110.013V140.079H108.279V140.506H106.111V140.934H103.943V141.361H102.209V141.788H100.041V142.215H98.3068V142.643H96.139V143.07H93.9712V143.497H92.2369V143.924H90.0691V144.351H87.9013V144.779H86.1671V145.206H83.9993V145.633H81.8315V146.06H79.6637V146.488H77.9295V146.915H75.7616V147.342H73.5939V147.769H71.8596V148.196H69.6918V148.624H67.524V149.051H65.3562V149.478H63.1884V149.905H61.0206V150.333H58.8528V150.76H57.1186V151.187H54.9508V151.614H52.783V152.041H50.6152V152.469H48.4474V152.896H46.2796V153.323H44.1118V153.75H41.944V154.177H39.3426V154.605H37.1748V155.032H35.007V155.459H32.8392V155.886H30.6714V156.314H28.5036V156.741H25.9023V157.168H23.7345V157.595H21.1331V158.023H18.9653V158.45H16.7975V158.877H14.1962V159.304H12.0284V159.731H9.42702V160.159H7.25922V160.586H4.65786V161.013H2.0565V161.44H0.322266V161.013H1.18939V160.586H2.49006V160.159H4.2243V159.731H5.52498V159.304H6.82566V158.877H8.5599V158.45H9.86058V158.023H11.5948V157.595H12.8955V157.168H14.1962V156.741H15.9304V156.314H17.2311V155.886H18.9653V155.459H20.266V155.032H21.5667V154.605H23.3009V154.177H24.6016V153.75H26.3358V153.323H27.6365V152.896H28.9372V152.469H30.6714V152.041H31.9721V151.614H33.7064V151.187H35.007V150.76H36.7413V150.333H38.042V149.905H39.3426V149.478H41.0769V149.051H42.3776V148.624H44.1118V148.196H45.4125V147.769H47.1467V147.342H48.4474V146.915H49.7481V146.488H51.4823V146.06H52.783V145.633H54.5172V145.206H55.8179V144.779H57.5521V144.351H58.8528V143.924H60.1535V143.497H61.8877V143.07H63.1884V142.643H64.9227V142.215H66.2233V141.788H67.9576V141.361H69.2583V140.934H70.5589V140.506H72.2932V140.079H73.5939V139.652H75.3281V139.225H76.6288V138.798H78.363V138.37H79.6637V137.943H81.3979V137.516H82.6986V137.089H83.9993V136.661H85.7335V136.234H87.0342V135.807H88.7684V135.38H90.0691V134.953H91.8034V134.525H93.104V134.098H94.8383V133.671H96.139V133.244H97.4396V132.816H99.1739V132.389H100.475V131.962H102.209V131.535H103.509V131.108H105.244V130.68H106.544V130.253H108.279V129.826H109.579V129.399H111.314V128.971H112.614V128.544H113.915V128.117H115.649V127.69H116.95V127.263H118.684V126.835H119.985V126.408H121.719V125.981H123.02V125.554H124.754V125.126H126.055V124.699H127.789V124.272H129.089V123.845H130.824V123.418H132.124V122.99H133.425V122.563H135.159V122.136H136.46V121.709H138.194V121.281H139.495V120.854H141.229V120.427H142.53V120H144.264V119.573H145.565V119.145H147.299V118.718H148.6V118.291H150.334V117.864H151.635V117.436H153.369V117.009H154.67V116.582H156.404V116.155H157.704V115.728H159.439V115.3H160.739V114.873H162.474V114.446H163.774V114.019H165.075V113.591H166.809V113.164H168.11V112.737H169.844V112.31H171.145V111.883H172.879V111.455H174.18V111.028H175.914V110.601H177.215V110.174H178.949V109.746H180.25V109.319H181.984V108.892H183.284V108.465H185.019V108.038H186.319V107.61H188.054V107.183H189.354V106.756H191.089V106.329H192.389V105.901H194.123V105.474H195.424V105.047H197.158V104.62H198.459V104.193H200.193V103.765H201.494V103.338H203.228V102.911H204.529V102.484H206.263V102.056H207.564V101.629H209.298V101.202H210.599V100.775H212.333V100.348H213.634V99.9204H215.368V99.4931H216.669V99.0659H218.403V98.6387H219.703V98.2115H221.438V97.7843H223.172V97.357H224.473V96.9298H226.207V96.5026H227.508V96.0754H229.242V95.6482H230.542V95.2209H232.277V94.7937H233.577V94.3665H235.312V93.9392H236.612V93.512H238.347V93.0848H239.647V92.6576H241.381V92.2304H242.682V91.8031H244.416V91.3759H245.717V90.9487H247.451V90.5215H248.752V90.0943H250.486V89.667H252.22V89.2398H253.521V88.8126H255.255V88.3854H256.556V87.9582H258.29V87.5309H259.591V87.1037H261.325V86.6765H262.626V86.2493H264.36V85.8221H265.661V85.3948H267.395V84.9676H269.129V84.5404H270.43V84.1131H272.164V83.6859H273.465V83.2587H275.199V82.8315H276.5V82.4043H278.234V81.977H279.535V81.5498H281.269V81.1226H283.003V80.6954H284.304V80.2682H286.038V79.8409H287.339V79.4137H289.073V78.9865H290.374V78.5593H292.108V78.1321H293.842V77.7048H295.143V77.2776H296.877V76.8504H298.178V76.4232H299.912V75.996H301.213V75.5688H302.947V75.1415H304.681V74.7143H305.982V74.287H307.716V73.8598H309.017V73.4326H310.751V73.0054H312.485V72.5782H313.786V72.1509H315.52V71.7237H316.821V71.2965H318.555V70.8693H319.856V70.4421H321.59V70.0148H323.324V69.5876H324.625V69.1604H326.359V68.7332H327.66V68.3059H329.394V67.8787H331.128V67.4515H332.429V67.0243H334.163V66.5971H335.897V66.1699H337.198V65.7426H338.932V65.3154H340.233V64.8882H341.967V64.461H343.702V64.0338H345.002V63.6066H346.736V63.1793H348.471V62.7521H349.771V62.3248H351.506V61.8976H352.806V61.4704H354.541V61.0432H356.275V60.616H357.575V60.1888H359.31V59.7615H361.044V59.3343H362.345V58.9071H364.079V58.4799H365.813V58.0527H367.114V57.6254H368.848V57.1982H370.582V56.771H371.883V56.3437H373.617V55.9165H375.351V55.4893H376.652V55.0621H378.386V54.6349H380.121V54.2077H381.421V53.7804H383.155V53.3532H384.89V52.926H386.19V52.4988H387.925V52.0715H389.659V51.6443H390.96V51.2171H392.694V50.7899H394.428V50.3627H396.162V49.9354H397.463V49.5082H399.197V49.081H400.931V48.6538H402.232V48.2266H403.966V47.7993H405.701V47.3721H407.435V46.9449H408.735V46.5176H410.47V46.0904H412.204V45.6632H413.505V45.236H415.239V44.8088H416.973V44.3815H418.707V43.9543H420.442V43.5271H421.742V43.0999H423.476V42.6727H425.211V42.2454H426.945V41.8182H428.246V41.391H429.98V40.9638H431.714V40.5366H433.448V40.1093H434.749V39.6821H436.483V39.2549H438.218V38.8277H439.952V38.4005H441.686V37.9732H443.42V37.546H444.721V37.1188H446.455V36.6915H448.189V36.2643H449.924V35.8371H451.658V35.4099H453.392V34.9827H454.693V34.5554H456.427V34.1282H458.161V33.701H459.896V33.2738H461.63V32.8466H463.364V32.4193H465.098V31.9921H466.832V31.5649H468.567V31.1377H469.867V30.7105H471.602V30.2832H473.336V29.856H475.07V29.4288H476.804V29.0016H478.539V28.5744H480.273V28.1471H482.007V27.7199H483.741V27.2927H485.476V26.8655H487.21V26.4383H488.944V26.011H490.678V25.5838H492.413V25.1566H494.58V24.7294H496.315V24.3022H498.049V23.875H499.783V23.4477H501.517V23.0205H503.252V22.5932H504.986V22.166H507.154V21.7388H508.888V21.3116H510.622V20.8844H512.356V20.4571H514.091V20.0299H516.258V19.6027H517.993V19.1755H520.16V18.7483H521.895V18.321H523.629V17.8938H525.797V17.4666H527.531V17.0393H529.699V16.6121H531.866V16.1849H533.601V15.7577H535.769V15.3305H537.503V14.9032H539.671V14.476H541.838V14.0488H544.006V13.6216H545.74V13.1944H547.908V12.7671H550.076V12.3399H552.244V11.9127H554.412V11.4855H556.579V11.0582H558.747V10.631H560.915V10.2038H563.083V9.77663H565.251V9.34936H567.852V8.92215H570.02V8.49495H572.621V8.06774H574.789V7.64053H577.39V7.21326H579.558V6.78606H582.159V6.35885H584.761V5.93158H587.796V5.50437H590.397V5.07716H592.998V4.64996H596.033V4.22275H599.068V3.79548H602.537V3.36827H605.572V2.94107H609.04V2.51386H612.942V2.08666H617.278V1.65938H621.18V1.23218H626.816V0.804972H632.452V0.377698H672.773V0.804972H678.843V1.23218H683.612V1.65938H687.081V2.08666H690.983V2.51386H694.451V2.94107H697.053V3.36827H700.088V3.79548H702.689V4.22275H705.29V4.64996H707.458V5.07716H709.626V5.50437H711.794V5.93158H713.961V6.35885H716.129V6.78606H718.297V7.21326H720.031V7.64053H722.199V8.06774H723.933V8.49495H725.668V8.92215H727.402V9.34936H729.136V9.77663H730.87V10.2038H732.605V10.631H733.905V11.0582H735.639V11.4855H736.94V11.9127H738.674V12.3399H739.975V12.7671H741.276V13.1944H742.576V13.6216H743.877V14.0488H745.178V14.476H746.478V14.9032H747.779V15.3305H749.08V15.7577H750.381V16.1849H751.681V16.6121H752.548V17.0393H753.849V17.4666H755.15V17.8938H756.45V18.321H757.318V18.7483H758.618V19.1755H759.485V19.6027H760.786V20.0299H761.653V20.4571H762.954V20.8844H764.254V21.3116H765.122V21.7388H765.989V22.166H767.289V22.5932H768.157V23.0205H769.024V23.4477H770.324V23.875H771.191V24.3022H772.492V24.7294H773.359V25.1566H774.226V25.5838H775.093V26.011H775.96V26.4383H777.261V26.8655H778.128V27.2927H778.995V27.7199H779.863V28.1471H780.73V28.5744H782.03V29.0016H782.897V29.4288H783.765V29.856H784.632V30.2832H785.499V30.7105H786.366V31.1377H787.233V31.5649H788.1V31.9921H788.967V32.4193H789.834V32.8466H790.702V33.2738H791.569V33.701H792.436V34.1282H793.303V34.5554H794.17V34.9827H795.037V35.4099H795.904V35.8371H796.338V36.2643H797.205V36.6915H798.072V37.1188H798.939V37.546H799.806V37.9732H800.673V38.4005H801.541V38.8277H801.974V39.2549H802.841V39.6821H803.708V40.1093H804.575V40.5366H805.443V40.9638H805.876V41.391H806.743V41.8182H807.61V42.2454H808.044V42.6727H808.911V43.0999H809.778V43.5271H810.645V43.9543H811.079V44.3815H811.946V44.8088H812.813V45.236H813.247V45.6632H814.114V46.0904H814.981V46.5176H815.415V46.9449H816.282V47.3721H816.715V47.7993H817.582V48.2266H818.449V48.6538H818.883V49.081H819.75V49.5082H820.184V49.9354H821.051V50.3627H821.918V50.7899H822.351V51.2171H823.219V51.6443H823.652V52.0715H824.519V52.4988H824.953V52.926H825.82V53.3532H826.254V53.7804H827.121V54.2077H827.554V54.6349H828.421V55.0621H828.855V55.4893H829.722V55.9165H830.156V56.3437H830.589V56.771H831.456V57.1982H831.89V57.6254H832.757V58.0527H833.19V58.4799H834.058V58.9071H834.491V59.3343H835.358V59.7615H835.792V60.1888H836.225V60.616H837.092V61.0432H837.526V61.4704H837.96V61.8976H838.827V62.3248H839.26V62.7521H839.694V63.1793H840.561V63.6066H840.994V64.0338H841.428V64.461H842.295V64.8882H842.729V65.3154H843.162V65.7426H844.029V66.1699H844.463V66.5971H844.897V67.0243H845.764V67.4515H846.197V67.8787H846.631V68.3059H847.064V68.7332H847.931V69.1604H848.365V69.5876H848.799V70.0148H849.232V70.4421H850.099V70.8693H850.533V71.2965H850.966V71.7237H851.4V72.1509H851.833V72.5782H852.701V73.0054H853.134V73.4326H853.568V73.8598H854.001V74.287H854.868V74.7143H855.302V75.1415H855.736V75.5688H856.169V75.996H856.603V76.4232H857.036V76.8504H857.903V77.2776H858.337V77.7048H858.77V78.1321H859.204V78.5593H859.638V78.9865H860.071V79.4137H860.505V79.8409H860.938V80.2682H861.372V80.6954H862.239V81.1226H862.672V81.5498H863.106V81.977H863.54V82.4043H863.973V82.8315H864.407V83.2587H864.84V83.6859H865.274V84.1131H865.707V84.5404H866.141V84.9676H866.575V85.3948H867.008V85.8221H867.875V86.2493H868.309V86.6765H868.742V87.1037H869.176V87.5309H869.609V87.9582H870.043V88.3854H870.477V88.8126H870.91V89.2398H871.344V89.667H871.777V90.0943H872.211V90.5215H872.644V90.9487H873.078V91.3759H873.512V91.8031H873.945V92.2304H874.379V92.6576H874.812V93.0848H875.246V93.512H875.679V93.9392H876.113V94.3665H876.546V95.2209H876.98V95.6482H877.414V96.0754H877.847V96.5026H878.281V96.9298H878.714V97.357H879.148V97.7843H879.581V98.2115H880.015V98.6387H880.448V99.0659H880.882V99.9204H881.316V100.348H881.749V100.775H882.183V101.202H882.616V101.629H883.05V102.056H883.483V102.484H883.917V102.911H884.35V103.338H884.784V104.193H885.218V104.62H885.651V105.047H886.085V105.474H886.518V105.901H886.952V106.756H887.385V107.183H887.819V107.61H888.253V108.038H888.686V108.892H889.12V109.319H889.553V109.746H889.987V110.174H890.42V110.601H890.854V111.455H891.287V111.883H891.721V112.31H892.155V112.737H892.588V113.591H893.022V114.019H893.455V114.446H893.889V115.3H894.322V115.728H894.756V116.155H895.19V117.009H895.623V117.436H896.057V117.864H896.49V118.718H896.924V119.145H897.357V120H897.791V120.427H898.224V120.854H898.658V121.709H899.091V122.136H899.525V122.99H899.959V123.418H900.392V123.845H900.826V124.699H901.259V125.126H901.693V125.981H902.126V126.408H902.56V127.263H902.993V127.69H903.427V128.544H903.861V129.399H904.294V129.826H904.728V130.68H905.161V131.108H905.595V131.962H906.028V132.816H906.462V133.244H906.896V134.098H907.329V134.525H907.763V135.38H908.196V135.807H908.63V136.661H909.063V137.516H909.497V138.37H909.93V139.225H910.364V139.652H910.798V140.506H911.231V141.361H911.665V142.215H912.098V143.07H912.532V143.924H912.965V144.351H913.399V145.206H913.833V146.06H914.266V146.915H914.7V147.769H915.133V148.624H915.567V149.051H916V150.333H916.434V151.187H916.867V152.041H917.301V152.896H917.735V153.75H918.168V155.032H918.602V155.886H919.035V156.741H919.469V157.595H919.902V158.45H920.336V159.304H920.769V160.586H921.203V161.44H921.637V162.295H922.07V163.576H922.504V164.858H922.937V165.713H923.371V166.994H923.804V168.276H924.238V169.13H924.672V170.412H925.105V171.694H925.539V172.548H925.972V173.83H926.406V175.111H926.839V176.393H927.273V177.675H927.706V178.956H928.14V180.665H928.574V181.947H929.007V183.656H929.441V184.937H929.874V186.219H930.308V187.928H930.741V189.21H931.175V191.346H931.608V193.055H932.042V195.191H932.476V197.327H932.909V199.036H933.343V201.172H933.776V203.308H934.21V205.871H934.643V208.862H935.077V211.852H935.511V215.27H935.944V218.261H936.378V223.387H936.811V230.65H937.245V254.147H936.811V258.847H936.378V263.973H935.944V268.673H935.511V272.091H935.077V275.081H934.643V277.645H934.21V280.208H933.776V282.771H933.343V285.762H932.909V288.325H932.476V290.461H932.042V292.17H931.608V293.879H931.175V296.015H930.741V297.724H930.308V299.433H929.874V301.569H929.441V303.278H929.007V305.414H928.574V307.123H928.14V308.405H927.706V310.113H927.273V311.395H926.839V312.677H926.406V314.386H925.972V315.667H925.539V317.376H925.105V318.658H924.672V319.939H924.238V321.648H923.804V322.93H923.371V324.212H922.937V325.921H922.504V327.202H922.07V328.484H921.637V329.338H921.203V330.62H920.769V331.902H920.336V333.183H919.902V334.465H919.469V335.747H919.035V336.601H918.602V337.883H918.168V339.164H917.735V340.446H917.301V341.728H916.867V342.582H916.434V343.864H916V344.718H915.567V346H915.133V346.854H914.7V348.136H914.266V348.991H913.833V350.272H913.399V351.127H912.965V351.981H912.532V352.836H912.098V354.117H911.665V354.972H911.231V355.826H910.798V356.681H910.364V357.535H909.93V358.817H909.497V359.671H909.063V360.098H908.63V360.953H908.196V361.807H907.763V362.662H907.329V363.516H906.896V364.371H906.462V365.225H906.028V366.079H905.595V366.934H905.161V367.788H904.728V368.643H904.294V369.07H903.861V369.924H903.427V370.779H902.993V371.633H902.56V372.061H902.126V372.915H901.693V373.769H901.259V374.197H900.826V375.051H900.392V375.906H899.959V376.333H899.525V377.187H899.091V377.614H898.658V378.469H898.224V379.323H897.791V379.751H897.357V380.605H896.924V381.459H896.49V381.887H896.057V382.741H895.623V383.168H895.19V383.596H894.756V384.45H894.322V384.877H893.889V385.732H893.455V386.159H893.022V387.013H892.588V387.441H892.155V387.868H891.721V388.722H891.287V389.149H890.854V390.004H890.42V390.431H889.987V391.286H889.553V391.713H889.12V392.14H888.686V392.994H888.253V393.422H887.819V393.849H887.385V394.703H886.952V395.13H886.518V395.558H886.085V395.985H885.651V396.839H885.218V397.267H884.784V397.694H884.35V398.121H883.917V398.975H883.483V399.403H883.05V399.83H882.616V400.257H882.183V401.112H881.749V401.539H881.316V401.966H880.882V402.393H880.448V403.248H880.015V403.675H879.581V404.102H879.148V404.529H878.714V404.957H878.281V405.384H877.847V405.811H877.414V406.238H876.98V407.093H876.546V407.52H876.113V407.947H875.679V408.374H875.246V408.802H874.812V409.229H874.379V409.656H873.945V410.083H873.512V410.938H873.078V411.365H872.644V411.792H872.211V412.219H871.777V412.647H871.344V413.074H870.91V413.501H870.477V413.928H870.043V414.355H869.609V414.783H869.176V415.21H868.742V415.637H868.309V416.064H867.875V416.492H867.442V416.919H867.008V417.346H866.575V417.773H866.141V418.2H865.707V418.628H865.274V419.055H864.84V419.482H864.407V419.909H863.973V420.337H863.54V420.764H863.106V421.191H862.672V421.618H862.239V422.045H861.805V422.473H861.372V422.9H860.938V423.327H860.505V423.754H860.071V424.182H859.638V424.609H859.204V425.036H858.77V425.463H858.337V425.89H857.47V426.318H857.036V426.745H856.603V427.172H856.169V427.599H855.736V428.027H855.302V428.454H854.868V428.881H854.435V429.308H854.001V429.735H853.568V430.163H852.701V430.59H852.267V431.017H851.833V431.444H851.4V431.872H850.966V432.299H850.533V432.726H850.099V433.153H849.232V433.58H848.799V434.008H848.365V434.435H847.931V434.862H847.064V435.289H846.631V435.717H846.197V436.144H845.764V436.571H845.33V436.998H844.463V437.425H844.029V437.853H843.596V438.28H843.162V438.707H842.295V439.134H841.862V439.562H841.428V439.989H840.994V440.416H840.561V440.843H839.694V441.27H839.26V441.698H838.827V442.125H837.96V442.552H837.526V442.979H837.092V443.407H836.225V443.834H835.792V444.261H835.358V444.688H834.491V445.115H834.058V445.543H833.624V445.97H832.757V446.397H832.323V446.824H831.456V447.252H831.023V447.679H830.589V448.106H829.722V448.533H829.288V448.96H828.855V449.388H827.988V449.815H827.554V450.242H826.687V450.669H826.254V451.097H825.386V451.524H824.953V451.951H824.086V452.378H823.652V452.805H822.785V453.233H822.351V453.66H821.484V454.087H821.051V454.514H820.184V454.942H819.75V455.369H818.883V455.796H818.449V456.223H817.582V456.65H817.149V457.078H816.715V457.505H815.848V457.932H814.981V458.359H814.547V458.787H813.68V459.214H812.813V459.641H812.38V460.068H811.512V460.495H810.645V460.923H810.212V461.35H809.345V461.777H808.478V462.204H808.044V462.631H807.177V463.059H806.743V463.486H805.876V463.913H805.009V464.34H804.575V464.768H803.708V465.195H802.841V465.622H801.974V466.049H801.107V466.476H800.673V466.904H799.806V467.331H798.939V467.758H798.072V468.185H797.205V468.613H796.771V469.04H795.904V469.467H795.037V469.894H794.17V470.321H793.303V470.749H792.869V471.176H792.002V471.603H791.135V472.03H790.268V472.458H789.401V472.885H788.534V473.312H787.667V473.739H786.8V474.166H785.932V474.594H785.065V475.021H784.198V475.448H783.331V475.875H782.464V476.303H781.597V476.73H780.73V477.157H779.863V477.584H778.995V478.011H778.128V478.439H776.828V478.866H775.96V479.293H775.093V479.72H774.226V480.148H772.926V480.575H772.059V481.002H771.191V481.429H770.324V481.856H769.457V482.284H768.157V482.711H767.289V483.138H766.422V483.565H765.555V483.993H764.254V484.42H763.387V484.847H762.087V485.274H761.22V485.701H759.919V486.129H759.052V486.556H757.751V486.983H756.884V487.41H755.583V487.838H754.716V488.265H753.415V488.692H752.548V489.119H751.248V489.546H750.381V489.974H749.08V490.401H747.779V490.828H746.478V491.255H745.178V491.683H743.877V492.11H743.01V492.537H741.709V492.964H740.409V493.391H739.108V493.819H737.807V494.246H736.507V494.673H735.206V495.1H733.905V495.528H732.605V495.955H730.87V496.382H729.57V496.809H728.269V497.236H726.968V497.664H725.668V498.091H723.933V498.518H722.633V498.945H720.898V499.373H719.164V499.8H717.864V500.227H716.129V500.654H714.395V501.081H712.661V501.509H711.36V501.936H709.626V502.363H707.892V502.79H705.724V503.218H703.99V503.645H701.822V504.072H700.088V504.499H697.92V504.926H696.186V505.354H694.018V505.781H691.85V506.208H689.249V506.635H687.081V507.063H684.479V507.49H682.312V507.917H679.71V508.344H676.675V508.771H673.207V509.199H670.172V509.626H667.137V510.053H663.235V510.48H658.466V510.908H654.13V511.335H648.06V511.762H639.823V512.189" fill="white" fill-opacity="0.07"/>
</svg>
