<svg width="1392" height="720" viewBox="0 0 1392 720" fill="none" xmlns="http://www.w3.org/2000/svg">
<path d="M617.217 720V719.488H610.192V718.977H603.668V718.465H599.152V717.953H594.636V717.441H590.12V716.93H587.109V716.418H583.596V715.906H580.585V715.394H577.575V714.883H574.564V714.371H572.055V713.859H569.546V713.348H567.037V712.836H564.528V712.324H562.019V711.812H559.51V711.301H557.503V710.789H555.495V710.277H553.488V709.765H550.979V709.254H548.972V708.742H547.467V708.23H545.459V707.719H543.452V707.207H541.947V706.695H539.939V706.183H538.434V705.672H536.929V705.16H535.423V704.648H533.416V704.136H531.911V703.625H530.405V703.113H528.9V702.601H527.394V702.09H525.889V701.578H524.384V701.066H523.38V700.554H521.875V700.043H520.369V699.531H518.864V699.019H517.358V698.507H516.355V697.996H514.849V697.484H513.846V696.972H512.34V696.461H511.337V695.949H509.831V695.437H508.326V694.925H507.322V694.414H506.319V693.902H504.813V693.39H503.81V692.878H502.806V692.367H501.301V691.855H500.297V691.343H498.792V690.832H497.788V690.32H496.784V689.808H495.781V689.296H494.275V688.785H493.272V688.273H492.268V687.761H491.265V687.249H490.261V686.738H489.257V686.226H487.752V685.714H486.748V685.203H485.745V684.691H484.741V684.179H483.738V683.667H482.734V683.156H481.73V682.644H480.727V682.132H479.723V681.62H478.72V681.109H477.716V680.597H476.712V680.085H475.709V679.574H474.705V679.062H473.702V678.55H472.698V678.038H471.694V677.527H470.691V677.015H469.687V676.503H469.185V675.991H468.182V675.48H467.178V674.968H466.175V674.456H465.171V673.945H464.167V673.433H463.164V672.921H462.662V672.409H461.658V671.898H460.655V671.386H459.651V670.874H459.149V670.362H458.146V669.851H457.142V669.339H456.64V668.827H455.637V668.316H454.633V667.804H453.629V667.292H453.128V666.78H452.124V666.269H451.12V665.757H450.619V665.245H449.615V664.733H448.611V664.222H448.11V663.71H447.106V663.198H446.604V662.687H445.601V662.175H444.597V661.663H444.095V661.151H443.092V660.64H442.59V660.128H441.586V659.616H440.583V659.104H440.081V658.593H439.077V658.081H438.575V657.569H437.572V657.058H437.07V656.546H436.066V656.034H435.565V655.522H434.561V655.011H434.059V654.499H433.056V653.987H432.554V653.475H432.052V652.964H431.048V652.452H430.547V651.94H429.543V651.429H429.041V650.917H428.038V650.405H427.536V649.893H426.532V649.382H426.03V648.87H425.027V648.358H424.525V647.846H424.023V647.335H423.019V646.823H422.518V646.311H422.016V645.8H421.012V645.288H420.511V644.776H420.009V644.264H419.005V643.753H418.503V643.241H418.001V642.729H416.998V642.217H416.496V641.706H415.994V641.194H414.991V640.682H414.489V640.171H413.987V639.659H412.983V639.147H412.482V638.635H411.98V638.124H411.478V637.612H410.976V637.1H409.973V636.588H409.471V636.077H408.969V635.565H408.467V635.053H407.464V634.542H406.962V634.03H406.46V633.518H405.958V633.006H405.456V632.495H404.453V631.983H403.951V631.471H403.449V630.959H402.947V630.448H401.944V629.936H401.442V629.424H400.94V628.913H400.438V628.401H399.937V627.889H399.435V627.377H398.933V626.866H397.929V626.354H397.428V625.842H396.926V625.33H396.424V624.819H395.922V624.307H395.42V623.795H394.919V623.284H394.417V622.772H393.915V622.26H392.911V621.748H392.41V621.237H391.908V620.725H391.406V620.213H390.904V619.701H390.402V619.19H389.901V618.678H389.399V618.166H388.897V617.655H388.395V617.143H387.893V616.631H387.392V616.119H386.89V615.608H386.388V615.096H385.886V614.584H385.384V614.072H384.883V613.561H384.381V613.049H383.879V612.537H383.377V612.026H382.875V611.514H382.374V611.002H381.872V610.49H381.37V609.979H380.868V609.467H380.366V608.955H379.864V608.443H379.363V607.932H378.861V607.42H378.359V606.908H377.857V606.397H377.355V605.885H376.854V605.373H376.352V604.861H375.85V604.35H375.348V603.838H374.846V603.326H374.345V602.303H373.843V601.791H373.341V601.279H372.839V600.768H372.337V600.256H371.836V599.744H371.334V599.232H370.832V598.721H370.33V598.209H369.828V597.697H369.327V597.186H368.825V596.162H368.323V595.65H367.821V595.139H367.319V594.627H366.818V594.115H366.316V593.092H365.814V592.58H365.312V592.068H364.81V591.557H364.309V590.533H363.807V590.021H363.305V589.51H362.803V588.998H362.301V588.486H361.8V587.463H361.298V586.951H360.796V586.439H360.294V585.928H359.792V584.904H359.291V584.392H358.789V583.881H358.287V583.369H357.785V582.345H357.283V581.834H356.782V580.81H356.28V580.299H355.778V579.787H355.276V578.763H354.774V578.252H354.273V577.74H353.771V576.716H353.269V576.205H352.767V575.181H352.265V574.67H351.764V574.158H351.262V573.134H350.76V572.623H350.258V571.599H349.756V571.087H349.255V570.576H348.753V569.552H348.251V569.041H347.749V568.017H347.247V566.994H346.746V566.482H346.244V565.458H345.742V564.947H345.24V563.923H344.738V562.9H344.237V562.388H343.735V561.365H343.233V560.853H342.731V559.829H342.229V559.318H341.728V558.294H341.226V557.271H340.724V556.759H340.222V555.736H339.72V554.712H339.218V553.689H338.717V553.177H338.215V552.154H337.713V551.13H337.211V550.107H336.709V549.083H336.208V548.06H335.706V547.548H335.204V546.525H334.702V545.501H334.2V544.478H333.699V543.454H333.197V542.431H332.695V541.407H332.193V540.384H331.691V539.36H331.19V538.337H330.688V537.313H330.186V536.29H329.684V534.755H329.182V533.731H328.681V532.708H328.179V531.684H327.677V530.661H327.175V529.126H326.673V528.102H326.172V527.079H325.67V526.055H325.168V524.52H324.666V523.497H324.164V521.962H323.663V520.426H323.161V519.403H322.659V517.868H322.157V516.333H321.655V515.309H321.154V513.774H320.652V512.239H320.15V511.215H319.648V509.68H319.146V507.633H318.645V506.098H318.143V504.051H317.641V502.516H317.139V500.981H316.637V498.934H316.136V497.399H315.634V495.352H315.132V493.817H314.63V491.77H314.128V489.211H313.627V486.652H313.125V484.606H312.623V482.047H312.121V479.488H311.619V477.441H311.118V474.371H310.616V470.789H310.114V467.207H309.612V463.113H309.11V459.531H308.609V454.414H308.107V445.714H307.605V414.499H308.107V408.87H308.609V402.729H309.11V397.1H309.612V393.518H310.114V390.448H310.616V386.866H311.118V383.795H311.619V380.725H312.121V377.143H312.623V374.073H313.125V372.026H313.627V369.979H314.128V367.42H314.63V365.373H315.132V363.326H315.634V360.768H316.136V358.721H316.637V356.162H317.139V354.115H317.641V352.068H318.143V350.021H318.645V348.486H319.146V346.951H319.648V344.904H320.15V343.369H320.652V341.834H321.154V339.787H321.655V338.252H322.157V336.716H322.659V334.67H323.161V333.134H323.663V331.599H324.164V329.552H324.666V328.017H325.168V326.482H325.67V324.947H326.172V323.923H326.673V322.388H327.175V320.853H327.677V319.318H328.179V317.783H328.681V316.759H329.182V315.224H329.684V313.689H330.186V312.154H330.688V310.618H331.19V309.595H331.691V308.06H332.193V307.036H332.695V305.501H333.197V304.478H333.699V302.942H334.2V301.919H334.702V300.384H335.204V299.36H335.706V298.337H336.208V297.313H336.709V295.778H337.211V294.755H337.713V293.731H338.215V292.708H338.717V291.684H339.218V290.149H339.72V289.638H340.222V288.614H340.724V287.591H341.226V286.567H341.728V285.544H342.229V284.52H342.731V283.497H343.233V282.473H343.735V281.45H344.237V280.426H344.738V279.915H345.24V278.891H345.742V277.868H346.244V276.844H346.746V275.821H347.247V274.797H347.749V274.286H348.251V273.262H348.753V272.751H349.255V271.727H349.756V270.704H350.258V270.192H350.76V269.168H351.262V268.145H351.764V267.633H352.265V266.61H352.767V265.586H353.269V265.075H353.771V264.051H354.273V263.539H354.774V262.516H355.276V262.004H355.778V260.981H356.28V260.469H356.782V259.446H357.283V258.934H357.785V257.91H358.287V257.399H358.789V256.887H359.291V255.864H359.792V255.352H360.294V254.328H360.796V253.817H361.298V253.305H361.8V252.281H362.301V251.77H362.803V250.746H363.305V250.235H363.807V249.723H364.309V248.699H364.81V248.188H365.312V247.676H365.814V246.652H366.316V246.141H366.818V245.629H367.319V245.117H367.821V244.094H368.323V243.582H368.825V243.07H369.327V242.559H369.828V241.535H370.33V241.023H370.832V240.512H371.334V240H371.836V238.977H372.337V238.465H372.839V237.953H373.341V237.441H373.843V236.93H374.345V235.906H374.846V235.394H375.348V234.883H375.85V234.371H376.352V233.859H376.854V233.348H377.355V232.836H377.857V232.324H378.359V231.301H378.861V230.789H379.363V230.277H379.864V229.766H380.366V229.254H380.868V228.742H381.37V228.23H381.872V227.719H382.374V226.695H382.875V226.183H383.377V225.672H383.879V225.16H384.381V224.648H384.883V224.136H385.384V223.625H385.886V223.113H386.388V222.601H386.89V222.09H387.392V221.578H387.893V221.066H388.395V220.554H388.897V220.043H389.399V219.531H389.901V219.019H390.402V218.507H390.904V217.996H391.406V217.484H391.908V216.972H392.41V216.461H392.911V215.949H393.413V215.437H393.915V214.925H394.417V214.414H394.919V213.902H395.42V213.39H395.922V212.878H396.424V212.367H396.926V211.855H397.428V211.343H398.431V210.832H398.933V210.32H399.435V209.808H399.937V209.296H400.438V208.785H400.94V208.273H401.442V207.761H401.944V207.249H402.446V206.738H403.449V206.226H403.951V205.714H404.453V205.203H404.955V204.691H405.456V204.179H405.958V203.667H406.46V203.156H406.962V202.644H407.464V202.132H408.467V201.62H408.969V201.109H409.471V200.597H409.973V200.085H410.474V199.574H411.478V199.062H411.98V198.55H412.482V198.038H412.983V197.527H413.987V197.015H414.489V196.503H414.991V195.991H415.492V195.48H415.994V194.968H416.998V194.456H417.5V193.945H418.001V193.433H418.503V192.921H419.507V192.409H420.009V191.898H420.511V191.386H421.012V190.874H422.016V190.362H422.518V189.851H423.521V189.339H424.023V188.827H424.525V188.316H425.528V187.804H426.03V187.292H426.532V186.78H427.536V186.269H428.038V185.757H428.539V185.245H429.543V184.733H430.045V184.222H430.547V183.71H431.55V183.198H432.052V182.687H432.554V182.175H433.557V181.663H434.059V181.151H435.063V180.64H435.565V180.128H436.568V179.616H437.07V179.104H438.074V178.593H438.575V178.081H439.579V177.569H440.081V177.058H441.084V176.546H441.586V176.034H442.59V175.522H443.092V175.011H444.095V174.499H444.597V173.987H445.601V173.476H446.102V172.964H447.106V172.452H447.608V171.94H448.611V171.429H449.113V170.917H450.117V170.405H451.12V169.893H451.622V169.382H452.626V168.87H453.629V168.358H454.131V167.847H455.135V167.335H456.138V166.823H456.64V166.311H457.644V165.8H458.146V165.288H459.149V164.776H460.153V164.264H460.655V163.753H461.658V163.241H462.662V162.729H463.665V162.217H464.167V161.706H465.171V161.194H466.175V160.682H467.178V160.171H468.182V159.659H469.185V159.147H469.687V158.635H470.691V158.124H471.694V157.612H472.698V157.1H473.702V156.588H474.203V156.077H475.207V155.565H476.211V155.053H477.214V154.542H478.218V154.03H479.221V153.518H480.225V153.006H481.229V152.495H482.232V151.983H483.236V151.471H484.239V150.959H485.243V150.448H486.247V149.936H487.25V149.424H488.254V148.913H489.257V148.401H490.261V147.889H491.265V147.377H492.268V146.866H493.774V146.354H494.777V145.842H495.781V145.331H496.784V144.819H497.788V144.307H499.293V143.795H500.297V143.284H501.301V142.772H502.304V142.26H503.81V141.748H504.813V141.237H505.817V140.725H506.82V140.213H508.326V139.701H509.329V139.19H510.835V138.678H511.839V138.166H513.344V137.655H514.348V137.143H515.853V136.631H516.857V136.119H518.362V135.608H519.366V135.096H520.871V134.584H521.875V134.073H523.38V133.561H524.885V133.049H526.391V132.537H527.394V132.026H528.9V131.514H530.405V131.002H531.911V130.49H533.416V129.979H534.42V129.467H535.925V128.955H537.43V128.444H538.936V127.932H540.441V127.42H541.947V126.908H543.954V126.397H545.459V125.885H546.965V125.373H548.47V124.861H549.976V124.35H551.983V123.838H553.488V123.326H554.994V122.815H557.001V122.303H559.008V121.791H560.513V121.279H562.521V120.768H564.528V120.256H566.535V119.744H568.04V119.232H570.048V118.721H572.055V118.209H574.062V117.697H576.571V117.186H578.578V116.674H581.087V116.162H583.095V115.65H585.604V115.139H587.611V114.627H590.12V114.115H593.131V113.603H595.64V113.092H598.65V112.58H601.159V112.068H604.17V111.557H607.683V111.045H611.195V110.533H614.708V110.021H618.221V109.51H622.235V108.998H627.253V108.486H632.773V107.974H637.791V107.463H647.325V106.951H670.91V106.439H671.412V106.951H684.459V107.463H691.986V107.974H697.505V108.486H703.025V108.998H707.04V109.51H710.552V110.021H714.065V110.533H717.578V111.045H720.588V111.557H723.097V112.068H726.108V112.58H728.617V113.092H731.126V113.603H733.635V114.115H736.144V114.627H737.65V115.139H739.657V115.65H741.664V116.162H743.671V116.674H745.679V117.186H747.686V117.697H749.693V118.209H751.198V118.721H752.704V119.232H754.711V119.744H756.216V120.256H757.722V120.768H759.227V121.279H760.733V121.791H762.238V122.303H763.743V122.815H765.249V123.326H766.754V123.838H768.26V124.35H769.263V124.861H770.769V125.373H772.274V125.885H773.278V126.397H774.783V126.908H775.787V127.42H777.292V127.932H778.296V128.444H778.797V128.955H777.794V128.444H775.787V127.932H774.281V127.42H772.274V126.908H770.267V126.397H768.26V125.885H766.252V125.373H764.245V124.861H762.238V124.35H759.729V123.838H756.718V123.326H753.707V122.815H751.198V122.303H748.188V121.791H745.177V121.279H740.159V120.768H734.137V120.256H728.617V119.744H706.538V120.256H699.513V120.768H691.986V121.279H688.473V121.791H684.96V122.303H681.448V122.815H677.935V123.326H674.423V123.838H671.412V124.35H669.405V124.861H666.896V125.373H664.387V125.885H661.877V126.397H659.87V126.908H657.361V127.42H654.852V127.932H653.347V128.444H651.34V128.955H649.834V129.467H647.827V129.979H645.82V130.49H644.314V131.002H642.307V131.514H640.802V132.026H638.795V132.537H637.289V133.049H635.784V133.561H634.278V134.073H632.773V134.584H631.268V135.096H629.762V135.608H628.257V136.119H626.751V136.631H625.246V137.143H623.74V137.655H622.737V138.166H621.232V138.678H619.726V139.19H618.221V139.701H617.217V140.213H615.712V140.725H614.708V141.237H613.203V141.748H612.199V142.26H611.195V142.772H609.69V143.284H608.686V143.795H607.181V144.307H606.177V144.819H604.672V145.331H603.668V145.842H602.163V146.354H601.159V146.866H600.156V147.377H599.152V147.889H598.149V148.401H597.145V148.913H596.141V149.424H595.138V149.936H593.632V150.448H592.629V150.959H591.625V151.471H590.622V151.983H589.618V152.495H588.614V153.006H587.611V153.518H586.607V154.03H585.604V154.542H584.6V155.053H583.596V155.565H582.593V156.077H581.589V156.588H580.585V157.1H579.582V157.612H578.578V158.124H578.076V158.635H577.073V159.147H576.069V159.659H575.066V160.171H574.062V160.682H573.058V161.194H572.557V161.706H571.553V162.217H570.549V162.729H569.546V163.241H568.542V163.753H567.539V164.264H567.037V164.776H566.033V165.288H565.03V165.8H564.528V166.311H563.524V166.823H562.521V167.335H562.019V167.847H561.015V168.358H560.513V168.87H559.51V169.382H558.506V169.893H558.004V170.405H557.001V170.917H555.997V171.429H555.495V171.94H554.492V172.452H553.99V172.964H552.986V173.476H551.983V173.987H551.481V174.499H550.477V175.011H549.976V175.522H548.972V176.034H548.47V176.546H547.467V177.058H546.965V177.569H545.961V178.081H545.459V178.593H544.456V179.104H543.954V179.616H542.95V180.128H542.448V180.64H541.947V181.151H540.943V181.663H540.441V182.175H539.438V182.687H538.936V183.198H537.932V183.71H537.43V184.222H536.427V184.733H535.925V185.245H535.423V185.757H534.42V186.269H533.918V186.78H532.914V187.292H532.412V187.804H531.911V188.316H530.907V188.827H530.405V189.339H529.903V189.851H529.402V190.362H528.398V190.874H527.896V191.386H527.394V191.898H526.391V192.409H525.889V192.921H525.387V193.433H524.384V193.945H523.882V194.456H523.38V194.968H522.878V195.48H521.875V195.991H521.373V196.503H520.871V197.015H519.867V197.527H519.366V198.038H518.864V198.55H517.86V199.062H517.358V199.574H516.857V200.085H516.355V200.597H515.853V201.109H515.351V201.62H514.348V202.132H513.846V202.644H513.344V203.156H512.842V203.667H512.34V204.179H511.839V204.691H510.835V205.203H510.333V205.714H509.831V206.226H509.329V206.738H508.828V207.249H508.326V207.761H507.322V208.273H506.82V208.785H506.319V209.296H505.817V209.808H505.315V210.32H504.813V210.832H503.81V211.343H503.308V211.855H502.806V212.367H502.304V212.878H501.802V213.39H501.301V213.902H500.799V214.414H500.297V214.925H499.795V215.437H499.293V215.949H498.792V216.461H498.29V216.972H497.788V217.484H497.286V217.996H496.784V218.507H496.283V219.019H495.279V219.531H494.777V220.043H494.275V220.554H493.774V221.066H493.272V221.578H492.77V222.09H492.268V222.601H491.766V223.113H491.265V223.625H490.763V224.136H490.261V224.648H489.759V225.16H489.257V225.672H488.756V226.183H488.254V226.695H487.752V227.207H487.25V227.719H486.748V228.23H486.247V228.742H485.745V229.254H485.243V229.766H484.741V230.277H484.239V230.789H483.738V231.301H483.236V232.324H482.734V232.836H482.232V233.348H481.73V233.859H481.229V234.371H480.727V234.883H480.225V235.394H479.723V235.906H479.221V236.418H478.72V236.93H478.218V237.441H477.716V237.953H477.214V238.465H476.712V238.977H476.211V239.488H475.709V240H475.207V241.023H474.705V241.535H474.203V242.047H473.702V242.559H473.2V243.07H472.698V244.094H472.196V244.606H471.694V245.117H471.193V245.629H470.691V246.141H470.189V246.652H469.687V247.676H469.185V248.188H468.684V248.699H468.182V249.211H467.68V249.723H467.178V250.746H466.676V251.258H466.175V251.77H465.673V252.281H465.171V252.793H464.669V253.305H464.167V254.328H463.665V254.84H463.164V255.352H462.662V255.864H462.16V256.887H461.658V257.399H461.156V257.91H460.655V258.934H460.153V259.446H459.651V259.957H459.149V260.981H458.647V261.493H458.146V262.004H457.644V263.028H457.142V263.539H456.64V264.051H456.138V265.075H455.637V265.586H455.135V266.098H454.633V267.122H454.131V267.633H453.629V268.145H453.128V269.168H452.626V269.68H452.124V270.192H451.622V271.215H451.12V271.727H450.619V272.751H450.117V273.262H449.615V274.286H449.113V274.797H448.611V275.821H448.11V276.333H447.608V277.356H447.106V277.868H446.604V278.891H446.102V279.403H445.601V280.426H445.099V280.938H444.597V281.962H444.095V282.473H443.593V283.497H443.092V284.009H442.59V285.032H442.088V285.544H441.586V286.567H441.084V287.079H440.583V288.102H440.081V289.126H439.579V289.638H439.077V290.661H438.575V291.684H438.074V292.708H437.572V293.22H437.07V294.243H436.568V295.267H436.066V296.29H435.565V296.802H435.063V297.825H434.561V298.849H434.059V299.872H433.557V300.384H433.056V301.407H432.554V302.431H432.052V303.454H431.55V303.966H431.048V304.989H430.547V306.013H430.045V307.036H429.543V308.06H429.041V309.083H428.539V310.107H428.038V311.13H427.536V312.154H427.034V313.689H426.532V314.712H426.03V315.736H425.528V316.759H425.027V317.783H424.525V318.806H424.023V319.829H423.521V320.853H423.019V321.876H422.518V322.9H422.016V324.435H421.514V325.458H421.012V326.994H420.511V328.017H420.009V329.552H419.507V330.576H419.005V331.599H418.503V333.134H418.001V334.158H417.5V335.693H416.998V336.716H416.496V338.252H415.994V339.275H415.492V340.81H414.991V342.345H414.489V343.881H413.987V345.416H413.485V346.951H412.983V348.486H412.482V350.533H411.98V352.068H411.478V353.603H410.976V355.139H410.474V356.674H409.973V358.209H409.471V360.256H408.969V362.303H408.467V364.861H407.965V366.908H407.464V368.955H406.962V371.002H406.46V373.049H405.958V375.096H405.456V378.166H404.955V381.237H404.453V384.819H403.951V387.889H403.449V390.959H402.947V394.542H402.446V400.682H401.944V408.358H401.442V432.921H401.944V437.527H402.446V442.644H402.947V447.249H403.449V451.855H403.951V454.414H404.453V456.461H404.955V459.019H405.456V461.578H405.958V464.136H406.46V466.695H406.962V469.254H407.464V471.301H407.965V473.348H408.467V474.883H408.969V476.93H409.471V478.465H409.973V480.512H410.474V482.047H410.976V484.094H411.478V485.629H411.98V487.164H412.482V488.699H412.983V489.723H413.485V490.746H413.987V491.77H414.489V493.305H414.991V493.817H415.492V494.84H415.994V495.864H416.496V496.887H416.998V497.91H417.5V498.934H418.001V499.957H418.503V500.981H419.005V502.004H419.507V503.028H420.009V503.539H420.511V504.563H421.012V505.586H421.514V506.098H422.016V507.122H422.518V508.145H423.019V508.657H423.521V509.68H424.023V510.704H424.525V511.727H425.027V512.239H425.528V513.262H426.03V514.286H426.532V514.797H427.034V515.821H427.536V516.333H428.038V517.356H428.539V517.868H429.041V518.891H429.543V519.403H430.045V520.426H430.547V520.938H431.048V521.962H431.55V522.473H432.052V523.497H432.554V524.009H433.056V525.032H433.557V525.544H434.059V526.567H434.561V527.079H435.063V528.102H435.565V528.614H436.066V529.126H436.568V530.149H437.07V530.661H437.572V531.173H438.074V532.196H438.575V532.708H439.077V533.22H439.579V534.243H440.081V534.755H440.583V535.267H441.084V536.29H441.586V536.802H442.088V537.313H442.59V538.337H443.092V538.849H443.593V539.36H444.095V539.872H444.597V540.384H445.099V540.896H445.601V541.919H446.102V542.431H446.604V542.942H447.106V543.454H447.608V543.966H448.11V544.989H448.611V545.501H449.113V546.013H449.615V546.525H450.117V547.036H450.619V547.548H451.12V548.571H451.622V549.083H452.124V549.595H452.626V550.107H453.128V550.618H453.629V551.13H454.131V551.642H454.633V552.154H455.135V552.665H455.637V553.177H456.138V553.689H456.64V554.2H457.142V554.712H457.644V555.224H458.146V555.736H458.647V556.247H459.149V556.759H459.651V557.271H460.153V557.783H460.655V558.806H461.658V559.318H462.16V559.829H462.662V560.341H463.164V560.853H463.665V561.365H464.167V561.876H464.669V562.388H465.171V562.9H465.673V563.412H466.175V563.923H466.676V564.435H467.178V564.947H467.68V565.458H468.182V565.97H469.185V566.482H469.687V566.994H470.189V567.505H470.691V568.017H471.193V568.529H471.694V569.041H472.196V569.552H473.2V570.064H473.702V570.576H474.203V571.087H474.705V571.599H475.207V572.111H476.211V572.623H476.712V573.134H477.214V573.646H477.716V574.158H478.218V574.67H479.221V575.181H479.723V575.693H480.225V576.205H480.727V576.716H481.73V577.228H482.232V577.74H482.734V578.252H483.738V578.763H484.239V579.275H484.741V579.787H485.745V580.299H486.247V580.81H486.748V581.322H487.752V581.834H488.254V582.345H488.756V582.857H489.759V583.369H490.261V583.881H490.763V584.392H491.766V584.904H492.268V585.416H493.272V585.928H493.774V586.439H494.777V586.951H495.279V587.463H496.283V587.974H496.784V588.486H497.788V588.998H498.29V589.51H499.293V590.021H499.795V590.533H500.799V591.045H501.301V591.557H502.304V592.068H503.308V592.58H503.81V593.092H504.813V593.603H505.817V594.115H506.319V594.627H507.322V595.139H508.326V595.65H509.329V596.162H509.831V596.674H510.835V597.186H511.839V597.697H512.34V598.209H513.344V598.721H514.348V599.232H515.351V599.744H516.355V600.256H517.358V600.768H517.86V601.279H518.864V601.791H519.867V602.303H520.871V602.815H521.875V603.326H522.878V603.838H523.882V604.35H524.885V604.861H525.889V605.373H526.893V605.885H527.896V606.397H528.9V606.908H529.903V607.42H531.409V607.932H532.412V608.443H533.416V608.955H534.42V609.467H535.423V609.979H536.427V610.49H537.43V611.002H538.936V611.514H539.939V612.026H541.445V612.537H542.448V613.049H543.954V613.561H544.957V614.072H545.961V614.584H547.467V615.096H548.47V615.608H549.976V616.119H550.979V616.631H552.485V617.143H553.99V617.655H555.495V618.166H557.001V618.678H558.004V619.19H559.51V619.701H561.015V620.213H562.521V620.725H564.026V621.237H565.531V621.748H567.037V622.26H568.542V622.772H570.048V623.284H571.553V623.795H573.56V624.307H575.066V624.819H576.571V625.33H578.578V625.842H580.084V626.354H582.091V626.866H584.098V627.377H585.604V627.889H587.611V628.401H589.618V628.913H591.625V629.424H593.632V629.936H595.64V630.448H597.647V630.959H600.156V631.471H602.163V631.983H604.17V632.495H606.679V633.006H609.188V633.518H611.697V634.03H614.708V634.542H617.217V635.053H619.726V635.565H622.737V636.077H625.748V636.588H628.759V637.1H631.769V637.612H635.282V638.124H639.296V638.635H642.809V639.147H646.823V639.659H650.838V640.171H655.856V640.682H660.372V641.194H665.892V641.706H672.415V642.217H678.939V642.729H687.971V643.241H699.513V643.753H751.7V643.241H765.249V642.729H775.285V642.217H783.314V641.706H790.841V641.194H797.866V640.682H803.888V640.171H810.411V639.659H815.931V639.147H820.949V638.635H826.469V638.124H830.985V637.612H836.003V637.1H840.519V636.588H845.035V636.077H849.552V635.565H853.566V635.053H857.58V634.542H861.595V634.03H865.609V633.518H869.624V633.006H873.136V632.495H877.151V631.983H880.663V631.471H884.176V630.959H887.689V630.448H891.201V629.936H894.714V629.424H898.226V628.913H901.739V628.401H904.75V627.889H908.263V627.377H911.273V626.866H914.786V626.354H917.797V625.842H921.309V625.33H924.32V624.819H927.331V624.307H930.342V623.795H933.353V623.284H936.363V622.772H939.374V622.26H942.385V621.748H945.396V621.237H947.905V620.725H950.916V620.213H953.927V619.701H956.937V619.19H959.446V618.678H962.457V618.166H964.966V617.655H967.977V617.143H970.988V616.631H973.497V616.119H976.006V615.608H979.017V615.096H981.526V614.584H984.035V614.072H987.045V613.561H989.554V613.049H992.064V612.537H995.074V612.026H997.583V611.514H1000.09V611.002H1002.6V610.49H1005.11V609.979H1007.62V609.467H1010.13V608.955H1013.14V608.443H1015.65V607.932H1018.16V607.42H1020.67V606.908H1023.18V606.397H1025.68V605.885H1028.19V605.373H1030.2V604.861H1032.71V604.35H1035.22V603.838H1037.73V603.326H1040.24V602.815H1042.75V602.303H1045.25V601.791H1047.76V601.279H1049.77V600.768H1052.28V600.256H1054.79V599.744H1057.3V599.232H1059.81V598.721H1061.81V598.209H1064.32V597.697H1066.83V597.186H1068.84V596.674H1071.35V596.162H1073.86V595.65H1076.37V595.139H1078.37V594.627H1080.88V594.115H1083.39V593.603H1085.4V593.092H1087.91V592.58H1089.91V592.068H1092.42V591.557H1094.93V591.045H1096.94V590.533H1099.45V590.021H1101.46V589.51H1103.97V588.998H1106.47V588.486H1108.48V587.974H1110.99V587.463H1113V586.951H1115.51V586.439H1117.51V585.928H1120.02V585.416H1122.03V584.904H1124.54V584.392H1126.55V583.881H1129.06V583.369H1131.06V582.857H1133.57V582.345H1135.58V581.834H1138.09V581.322H1140.1V580.81H1142.6V580.299H1144.61V579.787H1147.12V579.275H1149.13V578.763H1151.64V578.252H1153.64V577.74H1156.15V577.228H1158.16V576.716H1160.67V576.205H1162.68V575.693H1164.68V575.181H1167.19V574.67H1169.2V574.158H1171.71V573.646H1173.72V573.134H1176.23V572.623H1178.23V572.111H1180.74V571.599H1182.75V571.087H1184.76V570.576H1187.26V570.064H1189.27V569.552H1191.78V569.041H1193.79V568.529H1196.3V568.017H1198.3V567.505H1200.81V566.994H1202.82V566.482H1204.83V565.97H1207.34V565.458H1209.34V564.947H1211.85V564.435H1213.86V563.923H1216.37V563.412H1218.38V562.9H1220.89V562.388H1222.89V561.876H1225.4V561.365H1227.41V560.853H1229.92V560.341H1231.93V559.829H1234.43V559.318H1236.44V558.806H1238.95V558.294H1240.96V557.783H1243.47V557.271H1245.47V556.759H1247.98V556.247H1249.99V555.736H1252.5V555.224H1254.51V554.712H1257.02V554.2H1259.02V553.689H1261.53V553.177H1263.54V552.665H1266.05V552.154H1268.56V551.642H1270.56V551.13H1273.07V550.618H1275.08V550.107H1277.59V549.595H1280.1V549.083H1282.11V548.571H1284.61V548.06H1287.12V547.548H1289.13V547.036H1291.64V546.525H1294.15V546.013H1296.16V545.501H1298.66V544.989H1301.17V544.478H1303.18V543.966H1305.69V543.454H1308.2V542.942H1310.71V542.431H1313.22V541.919H1315.22V541.407H1317.73V540.896H1320.24V540.384H1322.75V539.872H1325.26V539.36H1327.77V538.849H1330.28V538.337H1332.79V537.825H1335.3V537.313H1337.81V536.802H1340.31V536.29H1342.82V535.778H1345.33V535.267H1347.84V534.755H1350.35V534.243H1352.86V533.731H1355.87V533.22H1358.38V532.708H1360.89V532.196H1363.4V531.684H1366.41V531.173H1368.92V530.661H1371.43V530.149H1374.44V529.638H1376.95V529.126H1379.96V528.614H1382.47V528.102H1385.48V527.591H1388.49V527.079H1391V526.567H1392V527.591H1389.99V528.102H1388.49V528.614H1386.98V529.126H1384.97V529.638H1383.47V530.149H1381.46V530.661H1379.96V531.173H1378.45V531.684H1376.44V532.196H1374.94V532.708H1372.93V533.22H1371.43V533.731H1369.92V534.243H1367.91V534.755H1366.41V535.267H1364.4V535.778H1362.9V536.29H1360.89V536.802H1359.38V537.313H1357.88V537.825H1355.87V538.337H1354.36V538.849H1352.36V539.36H1350.85V539.872H1349.35V540.384H1347.34V540.896H1345.83V541.407H1343.83V541.919H1342.32V542.431H1340.31V542.942H1338.81V543.454H1337.3V543.966H1335.3V544.478H1333.79V544.989H1331.78V545.501H1330.28V546.013H1328.27V546.525H1326.77V547.036H1325.26V547.548H1323.25V548.06H1321.75V548.571H1319.74V549.083H1318.24V549.595H1316.23V550.107H1314.72V550.618H1313.22V551.13H1311.21V551.642H1309.7V552.154H1307.7V552.665H1306.19V553.177H1304.18V553.689H1302.68V554.2H1300.67V554.712H1299.17V555.224H1297.66V555.736H1295.65V556.247H1294.15V556.759H1292.14V557.271H1290.64V557.783H1288.63V558.294H1287.12V558.806H1285.12V559.318H1283.61V559.829H1282.11V560.341H1280.1V560.853H1278.59V561.365H1276.59V561.876H1275.08V562.388H1273.07V562.9H1271.57V563.412H1269.56V563.923H1268.05V564.435H1266.05V564.947H1264.54V565.458H1263.04V565.97H1261.03V566.482H1259.52V566.994H1257.52V567.505H1256.01V568.017H1254V568.529H1252.5V569.041H1250.49V569.552H1248.99V570.064H1246.98V570.576H1245.47V571.087H1243.47V571.599H1241.96V572.111H1240.46V572.623H1238.45V573.134H1236.94V573.646H1234.94V574.158H1233.43V574.67H1231.42V575.181H1229.92V575.693H1227.91V576.205H1226.41V576.716H1224.4V577.228H1222.89V577.74H1220.89V578.252H1219.38V578.763H1217.37V579.275H1215.87V579.787H1213.86V580.299H1212.35V580.81H1210.85V581.322H1208.84V581.834H1207.34V582.345H1205.33V582.857H1203.82V583.369H1201.82V583.881H1200.31V584.392H1198.3V584.904H1196.8V585.416H1194.79V585.928H1193.29V586.439H1191.28V586.951H1189.77V587.463H1187.77V587.974H1186.26V588.486H1184.25V588.998H1182.75V589.51H1180.74V590.021H1179.24V590.533H1177.23V591.045H1175.72V591.557H1173.72V592.068H1172.21V592.58H1170.2V593.092H1168.7V593.603H1166.69V594.115H1165.19V594.627H1163.18V595.139H1161.67V595.65H1159.67V596.162H1158.16V596.674H1156.15V597.186H1154.65V597.697H1152.64V598.209H1151.13V598.721H1149.13V599.232H1147.62V599.744H1145.62V600.256H1144.11V600.768H1142.1V601.279H1140.6V601.791H1138.59V602.303H1137.08V602.815H1135.08V603.326H1133.57V603.838H1131.56V604.35H1130.06V604.861H1128.05V605.373H1126.04V605.885H1124.54V606.397H1122.53V606.908H1121.03V607.42H1119.02V607.932H1117.51V608.443H1115.51V608.955H1114V609.467H1111.99V609.979H1110.49V610.49H1108.48V611.002H1106.98V611.514H1104.97V612.026H1103.46V612.537H1101.46V613.049H1099.95V613.561H1097.94V614.072H1095.94V614.584H1094.43V615.096H1092.42V615.608H1090.92V616.119H1088.91V616.631H1087.41V617.143H1085.4V617.655H1083.89V618.166H1081.89V618.678H1080.38V619.19H1078.37V619.701H1076.37V620.213H1074.86V620.725H1072.85V621.237H1071.35V621.748H1069.34V622.26H1067.84V622.772H1065.83V623.284H1064.32V623.795H1062.32V624.307H1060.31V624.819H1058.8V625.33H1056.8V625.842H1055.29V626.354H1053.28V626.866H1051.28V627.377H1049.77V627.889H1047.76V628.401H1046.26V628.913H1044.25V629.424H1042.75V629.936H1040.74V630.448H1038.73V630.959H1037.23V631.471H1035.22V631.983H1033.71V632.495H1031.71V633.006H1030.2V633.518H1028.19V634.03H1026.19V634.542H1024.68V635.053H1022.67V635.565H1021.17V636.077H1019.16V636.588H1017.15V637.1H1015.65V637.612H1013.64V638.124H1012.14V638.635H1010.13V639.147H1008.12V639.659H1006.62V640.171H1004.61V640.682H1002.6V641.194H1001.1V641.706H999.089V642.217H997.583V642.729H995.576V643.241H993.569V643.753H992.064V644.264H990.056V644.776H988.049V645.288H986.544V645.8H984.536V646.311H983.031V646.823H981.024V647.335H979.017V647.846H977.511V648.358H975.504V648.87H973.497V649.382H971.991V649.893H969.984V650.405H967.977V650.917H966.472V651.429H964.464V651.94H962.457V652.452H960.952V652.964H958.945V653.475H956.937V653.987H955.432V654.499H953.425V655.011H951.417V655.522H949.912V656.034H947.905V656.546H945.898V657.058H944.392V657.569H942.385V658.081H940.378V658.593H938.872V659.104H936.865V659.616H934.858V660.128H932.851V660.64H931.345V661.151H929.338V661.663H927.331V662.175H925.826V662.687H923.818V663.198H921.811V663.71H919.804V664.222H918.298V664.733H916.291V665.245H914.284V665.757H912.277V666.269H910.771V666.78H908.764V667.292H906.757V667.804H904.75V668.316H903.244V668.827H901.237V669.339H899.23V669.851H897.223V670.362H895.717V670.874H893.71V671.386H891.703V671.898H889.696V672.409H887.689V672.921H886.183V673.433H884.176V673.945H882.169V674.456H880.161V674.968H878.154V675.48H876.649V675.991H874.642V676.503H872.634V677.015H870.627V677.527H868.62V678.038H866.613V678.55H864.606V679.062H863.1V679.574H861.093V680.085H859.086V680.597H857.079V681.109H855.071V681.62H853.064V682.132H851.057V682.644H849.05V683.156H847.043V683.667H845.035V684.179H843.028V684.691H841.523V685.203H839.516V685.714H837.508V686.226H835.501V686.738H833.494V687.249H831.487V687.761H829.48V688.273H827.472V688.785H824.963V689.296H822.956V689.808H820.949V690.32H818.942V690.832H816.934V691.343H814.927V691.855H812.92V692.367H810.913V692.878H808.906V693.39H806.397V693.902H804.389V694.414H802.382V694.925H800.375V695.437H798.368V695.949H795.859V696.461H793.852V696.972H791.343V697.484H789.335V697.996H787.328V698.507H784.819V699.019H782.812V699.531H780.303V700.043H778.296V700.554H775.787V701.066H773.278V701.578H771.27V702.09H768.761V702.601H766.252V703.113H764.245V703.625H761.736V704.136H759.227V704.648H756.718V705.16H754.209V705.672H751.7V706.183H749.693V706.695H746.682V707.207H744.173V707.719H741.664V708.23H739.155V708.742H736.646V709.254H734.137V709.765H731.126V710.277H728.115V710.789H725.606V711.301H722.596V711.812H720.087V712.324H717.076V712.836H713.563V713.348H710.552V713.859H707.542V714.371H704.029V714.883H700.516V715.394H697.004V715.906H692.989V716.418H689.477V716.93H684.96V717.441H680.444V717.953H675.928V718.465H669.906V718.977H663.383V719.488H654.35V720H617.217ZM713.563 613.049V612.537H703.025V612.026H697.004V611.514H691.484V611.002H686.466V610.49H682.953V609.979H679.441V609.467H675.928V608.955H672.415V608.443H669.906V607.932H667.397V607.42H664.888V606.908H661.877V606.397H659.368V605.885H656.859V605.373H654.852V604.861H652.845V604.35H650.838V603.838H649.332V603.326H647.325V602.815H645.318V602.303H643.311V601.791H641.304V601.279H639.798V600.768H638.293V600.256H636.787V599.744H634.78V599.232H633.275V598.721H631.769V598.209H630.264V597.697H628.759V597.186H627.253V596.674H625.748V596.162H624.242V595.65H623.239V595.139H621.733V594.627H620.73V594.115H619.224V593.603H617.719V593.092H616.715V592.58H615.21V592.068H614.206V591.557H613.203V591.045H612.701V590.533H613.704V591.045H615.21V591.557H616.715V592.068H618.221V592.58H620.228V593.092H622.235V593.603H624.242V594.115H626.249V594.627H628.257V595.139H630.766V595.65H633.777V596.162H636.286V596.674H639.296V597.186H642.307V597.697H645.318V598.209H648.831V598.721H654.852V599.232H660.372V599.744H688.975V599.232H696V598.721H702.022V598.209H705.534V597.697H709.047V597.186H712.56V596.674H716.072V596.162H719.083V595.65H721.592V595.139H724.101V594.627H726.108V594.115H728.617V593.603H731.126V593.092H733.635V592.58H735.642V592.068H737.65V591.557H739.657V591.045H741.162V590.533H743.169V590.021H745.177V589.51H746.682V588.998H748.689V588.486H750.195V587.974H752.202V587.463H754.209V586.951H755.715V586.439H757.22V585.928H758.725V585.416H759.729V584.904H761.234V584.392H762.74V583.881H764.245V583.369H765.751V582.857H767.256V582.345H768.761V581.834H770.267V581.322H771.772V580.81H772.776V580.299H774.281V579.787H775.285V579.275H776.79V578.763H777.794V578.252H779.299V577.74H780.303V577.228H781.306V576.716H782.812V576.205H783.816V575.693H785.321V575.181H786.325V574.67H787.83V574.158H788.833V573.646H790.339V573.134H791.343V572.623H792.346V572.111H793.35V571.599H794.353V571.087H795.357V570.576H796.361V570.064H797.364V569.552H798.368V569.041H799.873V568.529H800.877V568.017H801.88V567.505H802.884V566.994H803.888V566.482H804.891V565.97H805.895V565.458H806.898V564.947H807.902V564.435H808.906V563.923H809.909V563.412H810.913V562.9H811.916V562.388H812.418V561.876H813.422V561.365H814.425V560.853H815.429V560.341H816.433V559.829H817.436V559.318H817.938V558.806H818.942V558.294H819.945V557.783H820.949V557.271H821.952V556.759H822.956V556.247H823.458V555.736H824.461V555.224H825.465V554.712H826.469V554.2H826.97V553.689H827.974V553.177H828.978V552.665H829.48V552.154H830.483V551.642H830.985V551.13H831.989V550.618H832.992V550.107H833.494V549.595H834.497V549.083H835.501V548.571H836.003V548.06H837.007V547.548H837.508V547.036H838.512V546.525H839.516V546.013H840.017V545.501H841.021V544.989H842.025V544.478H842.526V543.966H843.028V543.454H844.032V542.942H844.534V542.431H845.537V541.919H846.039V541.407H847.043V540.896H847.544V540.384H848.548V539.872H849.05V539.36H849.552V538.849H850.555V538.337H851.057V537.825H852.061V537.313H852.562V536.802H853.566V536.29H854.068V535.778H855.071V535.267H855.573V534.755H856.577V534.243H857.079V533.731H857.58V533.22H858.584V532.708H859.086V532.196H859.588V531.684H860.591V531.173H861.093V530.661H861.595V530.149H862.598V529.638H863.1V529.126H863.602V528.614H864.104V528.102H865.107V527.591H865.609V527.079H866.111V526.567H867.115V526.055H867.616V525.544H868.118V525.032H869.122V524.52H869.624V524.009H870.126V523.497H870.627V522.985H871.631V522.473H872.133V521.962H872.634V521.45H873.638V520.938H874.14V520.426H874.642V519.915H875.144V519.403H875.645V518.891H876.649V518.38H877.151V517.868H877.653V517.356H878.154V516.844H878.656V516.333H879.158V515.821H880.161V515.309H880.663V514.797H881.165V514.286H881.667V513.774H882.169V513.262H882.671V512.751H883.674V512.239H884.176V511.727H884.678V511.215H885.18V510.704H885.681V510.192H886.183V509.68H887.187V509.168H887.689V508.657H888.19V508.145H888.692V507.633H889.194V507.122H889.696V506.61H890.198V506.098H890.699V505.586H891.201V505.075H891.703V504.563H892.205V504.051H893.208V503.539H893.71V503.028H894.212V502.516H894.714V502.004H895.216V501.493H895.717V500.981H896.219V500.469H896.721V499.957H897.223V499.446H897.725V498.934H898.226V498.422H898.728V497.91H899.23V497.399H899.732V496.887H900.234V496.375H900.735V495.864H901.237V495.352H901.739V494.84H902.241V494.328H902.743V493.817H903.244V493.305H903.746V492.793H904.248V492.281H904.75V491.77H905.252V491.258H905.753V490.746H906.255V490.235H906.757V489.723H907.259V489.211H907.761V488.699H908.263V488.188H908.764V487.676H909.266V487.164H909.768V486.652H910.27V486.141H910.771V485.629H911.273V484.606H911.775V484.094H912.277V483.582H912.779V483.07H913.28V482.559H913.782V482.047H914.284V481.535H914.786V481.023H915.288V480.512H915.79V480H916.291V479.488H916.793V478.977H917.295V477.953H917.797V477.441H918.298V476.93H918.8V476.418H919.302V475.906H919.804V475.394H920.306V474.371H920.808V473.859H921.309V473.348H921.811V472.836H922.313V472.324H922.815V471.301H923.317V470.789H923.818V470.277H924.32V469.765H924.822V469.254H925.324V468.742H925.826V467.719H926.327V467.207H926.829V466.695H927.331V466.183H927.833V465.672H928.335V464.648H928.836V464.136H929.338V463.625H929.84V463.113H930.342V462.09H930.844V461.578H931.345V461.066H931.847V460.043H932.349V459.531H932.851V459.019H933.353V457.996H933.854V457.484H934.356V456.972H934.858V455.949H935.36V455.437H935.862V454.925H936.363V453.902H936.865V453.39H937.367V452.878H937.869V451.855H938.371V451.343H938.872V450.832H939.374V449.808H939.876V449.296H940.378V448.785H940.88V447.761H941.381V447.249H941.883V446.226H942.385V445.714H942.887V444.691H943.389V444.179H943.89V443.156H944.392V442.132H944.894V441.62H945.396V440.597H945.898V440.085H946.399V439.062H946.901V438.55H947.403V437.527H947.905V437.015H948.407V435.991H948.908V435.48H949.41V434.456H949.912V433.945H950.414V432.921H950.916V432.409H951.417V431.386H951.919V430.362H952.421V429.851H952.923V428.827H953.425V427.804H953.927V426.78H954.428V426.269H954.93V425.245H955.432V424.222H955.934V423.198H956.435V422.687H956.937V421.663H957.439V420.64H957.941V420.128H958.443V419.104H958.945V418.081H959.446V417.058H959.948V416.546H960.45V415.522H960.952V414.499H961.454V413.475H961.955V412.452H962.457V411.429H962.959V410.405H963.461V409.382H963.962V408.358H964.464V407.335H964.966V406.311H965.468V405.288H965.97V403.753H966.472V402.729H966.973V401.706H967.475V400.682H967.977V399.659H968.479V398.635H968.981V397.612H969.482V396.588H969.984V395.053H970.486V394.03H970.988V392.495H971.49V391.471H971.991V389.936H972.493V388.913H972.995V387.889H973.497V386.354H973.999V385.331H974.5V383.795H975.002V382.772H975.504V381.237H976.006V380.213H976.508V378.678H977.009V377.143H977.511V375.608H978.013V374.073H978.515V372.026H979.017V370.49H979.518V368.955H980.02V367.42H980.522V365.885H981.024V364.35H981.526V362.815H982.027V360.768H982.529V358.721H983.031V356.674H983.533V354.627H984.035V352.58H984.536V350.533H985.038V347.974H985.54V345.928H986.042V343.881H986.544V340.81H987.045V337.74H987.547V334.67H988.049V331.087H988.551V328.017H989.053V324.435H989.554V317.271H990.056V310.107H990.558V289.638H990.056V282.985H989.554V278.38H989.053V273.774H988.551V269.168H988.049V266.098H987.547V263.539H987.045V260.981H986.544V258.422H986.042V255.864H985.54V253.817H985.038V251.258H984.536V248.699H984.035V247.164H983.533V245.117H983.031V243.582H982.529V241.535H982.027V240H981.526V237.953H981.024V236.418H980.522V234.371H980.02V232.836H979.518V231.812H979.017V230.277H978.515V229.254H978.013V227.719H977.511V226.695H977.009V225.672H976.508V225.16H976.006V224.136H975.504V223.113H975.002V222.09H974.5V221.066H973.999V220.043H973.497V219.019H972.995V217.996H972.493V216.972H971.991V216.461H971.49V215.437H970.988V214.414H970.486V213.902H969.984V212.878H969.482V211.855H968.981V210.832H968.479V210.32H967.977V209.296H967.475V208.273H966.973V207.761H966.472V206.738H965.97V205.714H965.468V205.203H964.966V204.179H964.464V203.156H963.962V202.644H963.461V201.62H962.959V201.109H962.457V200.085H961.955V199.574H961.454V198.55H960.952V198.038H960.45V197.015H959.948V196.503H959.446V195.48H958.945V194.968H958.443V193.945H957.941V193.433H957.439V192.409H956.937V191.898H956.435V191.386H955.934V190.362H955.432V189.851H954.93V189.339H954.428V188.827H953.927V187.804H953.425V187.292H952.923V186.78H952.421V185.757H951.919V185.245H951.417V184.733H950.916V183.71H950.414V183.198H949.912V182.687H949.41V181.663H948.908V181.151H948.407V180.64H947.905V180.128H947.403V179.104H946.901V178.593H946.399V178.081H945.898V177.569H945.396V177.058H944.894V176.546H944.392V175.522H943.89V175.011H943.389V174.499H942.887V173.987H942.385V173.476H941.883V172.964H941.381V171.94H940.88V171.429H940.378V170.917H939.876V170.405H939.374V169.893H938.872V169.382H938.371V168.87H937.869V168.358H937.367V167.847H936.865V167.335H936.363V166.823H935.862V166.311H935.36V165.8H934.858V165.288H934.356V164.264H933.854V163.753H933.353V163.241H932.851V162.729H932.349V162.217H931.847V161.706H931.345V161.194H930.844V160.682H930.342V160.171H929.84V159.659H929.338V159.147H928.836V158.635H927.833V158.124H927.331V157.612H926.829V157.1H926.327V156.588H925.826V156.077H925.324V155.565H924.822V155.053H924.32V154.542H923.818V154.03H923.317V153.518H922.815V153.006H922.313V152.495H921.811V151.983H920.808V151.471H920.306V150.959H919.804V150.448H919.302V149.936H918.8V149.424H917.797V148.913H917.295V148.401H916.793V147.889H916.291V147.377H915.79V146.866H914.786V146.354H914.284V145.842H913.782V145.331H913.28V144.819H912.779V144.307H911.775V143.795H911.273V143.284H910.771V142.772H910.27V142.26H909.266V141.748H908.764V141.237H908.263V140.725H907.259V140.213H906.757V139.701H906.255V139.19H905.252V138.678H904.75V138.166H903.746V137.655H903.244V137.143H902.743V136.631H901.739V136.119H901.237V135.608H900.735V135.096H899.732V134.584H899.23V134.073H898.226V133.561H897.725V133.049H896.721V132.537H896.219V132.026H895.216V131.514H894.714V131.002H893.71V130.49H893.208V129.979H892.205V129.467H891.703V128.955H890.699V128.444H890.198V127.932H889.194V127.42H888.19V126.908H887.689V126.397H886.685V125.885H885.681V125.373H884.678V124.861H884.176V124.35H883.172V123.838H882.169V123.326H881.667V122.815H880.663V122.303H879.66V121.791H879.158V121.279H878.154V120.768H877.151V120.256H876.147V119.744H875.144V119.232H874.14V118.721H873.136V118.209H872.133V117.697H871.631V117.186H870.627V116.674H869.624V116.162H868.62V115.65H867.616V115.139H866.613V114.627H865.609V114.115H864.606V113.603H863.602V113.092H862.097V112.58H861.093V112.068H860.089V111.557H859.086V111.045H858.082V110.533H857.079V110.021H856.075V109.51H854.57V108.998H853.566V108.486H852.562V107.974H851.057V107.463H850.053V106.951H848.548V106.439H847.544V105.928H846.039V105.416H845.035V104.904H844.032V104.392H842.526V103.881H841.523V103.369H840.017V102.857H838.512V102.345H837.007V101.834H836.003V101.322H834.497V100.81H832.992V100.298H831.487V99.7868H829.981V99.2751H828.978V98.7633H827.472V98.2516H825.465V97.7399H823.96V97.2282H822.454V96.7165H820.949V96.2047H819.443V95.693H817.938V95.1812H815.931V94.6695H814.425V94.1578H812.418V93.646H810.913V93.1343H808.906V92.6226H806.898V92.1109H805.393V91.5992H803.386V91.0874H801.379V90.5757H799.371V90.064H797.364V89.5523H794.855V89.0406H792.848V88.5288H790.841V88.0171H788.833V87.5053H786.325V86.9936H783.816V86.4819H781.306V85.9701H778.797V85.4584H776.288V84.9467H773.779V84.435H770.769V83.9233H767.758V83.4115H764.747V82.8998H761.234V82.3881H758.224V81.8763H754.711V81.3646H750.697V80.8529H747.184V80.3411H743.169V79.8294H738.653V79.3177H733.635V78.806H728.617V78.2943H722.596V77.7825H716.072V77.2708H708.545V76.7591H699.011V76.2474H683.455V75.7357H648.329V76.2474H632.271V76.7591H621.733V77.2708H612.199V77.7825H604.672V78.2943H597.145V78.806H591.123V79.3177H584.6V79.8294H579.08V80.3411H573.56V80.8529H568.542V81.3646H563.022V81.8763H558.506V82.3881H553.99V82.8998H549.474V83.4115H544.456V83.9233H540.441V84.435H536.427V84.9467H532.412V85.4584H528.398V85.9701H524.384V86.4819H520.369V86.9936H516.857V87.5053H512.842V88.0171H509.329V88.5288H505.817V89.0406H502.304V89.5523H498.792V90.064H495.279V90.5757H491.766V91.0874H488.756V91.5992H485.243V92.1109H482.232V92.6226H478.72V93.1343H475.709V93.646H472.196V94.1578H469.185V94.6695H466.175V95.1812H463.164V95.693H460.153V96.2047H457.142V96.7165H454.131V97.2282H451.12V97.7399H448.11V98.2516H445.099V98.7633H442.59V99.2751H439.579V99.7868H436.568V100.298H433.557V100.81H431.048V101.322H428.038V101.834H425.528V102.345H422.518V102.857H420.009V103.369H416.998V103.881H414.489V104.392H411.478V104.904H408.969V105.416H406.46V105.928H403.449V106.439H400.94V106.951H398.431V107.463H395.922V107.974H393.413V108.486H390.402V108.998H387.893V109.51H385.384V110.021H382.875V110.533H380.366V111.045H377.857V111.557H375.348V112.068H372.839V112.58H370.33V113.092H367.821V113.603H365.312V114.115H362.803V114.627H360.294V115.139H357.785V115.65H355.276V116.162H352.767V116.674H350.258V117.186H347.749V117.697H345.742V118.209H343.233V118.721H340.724V119.232H338.215V119.744H335.706V120.256H333.699V120.768H331.19V121.279H328.681V121.791H326.172V122.303H324.164V122.815H321.655V123.326H319.146V123.838H317.139V124.35H314.63V124.861H312.121V125.373H310.114V125.885H307.605V126.397H305.096V126.908H303.089V127.42H300.58V127.932H298.572V128.444H296.063V128.955H293.554V129.467H291.547V129.979H289.038V130.49H287.031V131.002H284.522V131.514H282.013V132.026H280.006V132.537H277.497V133.049H275.49V133.561H272.981V134.073H270.973V134.584H268.464V135.096H266.457V135.608H263.948V136.119H261.941V136.631H259.432V137.143H257.425V137.655H254.916V138.166H252.908V138.678H250.399V139.19H248.392V139.701H245.883V140.213H243.876V140.725H241.367V141.237H239.36V141.748H236.851V142.26H234.844V142.772H232.836V143.284H230.327V143.795H228.32V144.307H225.811V144.819H223.804V145.331H221.295V145.842H219.288V146.354H216.779V146.866H214.771V147.377H212.262V147.889H210.255V148.401H208.248V148.913H205.739V149.424H203.732V149.936H201.223V150.448H199.216V150.959H196.707V151.471H194.699V151.983H192.19V152.495H190.183V153.006H188.176V153.518H185.667V154.03H183.66V154.542H181.151V155.053H179.143V155.565H176.634V156.077H174.627V156.588H172.118V157.1H170.111V157.612H167.602V158.124H165.595V158.635H163.086V159.147H161.079V159.659H159.071V160.171H156.562V160.682H154.555V161.194H152.046V161.706H150.039V162.217H147.53V162.729H145.523V163.241H143.014V163.753H140.505V164.264H138.497V164.776H135.988V165.288H133.981V165.8H131.472V166.311H129.465V166.823H126.956V167.335H124.949V167.847H122.44V168.358H119.931V168.87H117.924V169.382H115.415V169.893H113.407V170.405H110.898V170.917H108.389V171.429H106.382V171.94H103.873V172.452H101.364V172.964H99.3569V173.476H96.8479V173.987H94.3389V174.499H91.8299V175.011H89.8227V175.522H87.3136V176.034H84.8046V176.546H82.7974V177.058H80.2884V177.569H77.7794V178.081H75.2704V178.593H72.7614V179.104H70.2523V179.616H67.7433V180.128H65.7361V180.64H63.2271V181.151H60.7181V181.663H58.2091V182.175H55.7001V182.687H53.1911V183.198H50.6821V183.71H48.173V184.222H45.1622V184.733H42.6532V185.245H40.1442V185.757H37.6352V186.269H35.1262V186.78H32.6172V187.292H29.6063V187.804H27.0973V188.316H24.0865V188.827H21.5775V189.339H19.0685V189.851H16.0577V190.362H13.5487V190.874H10.5379V191.386H8.02884V191.898H5.01802V192.409H2.00721V192.921H0V192.409H1.0036V191.898H2.50901V191.386H4.51622V190.874H6.02163V190.362H7.52704V189.851H9.53425V189.339H11.0397V188.827H13.0469V188.316H14.5523V187.804H16.0577V187.292H18.0649V186.78H19.5703V186.269H21.5775V185.757H23.0829V185.245H24.5883V184.733H26.5955V184.222H28.1009V183.71H30.1081V183.198H31.6136V182.687H33.119V182.175H35.1262V181.663H36.6316V181.151H38.6388V180.64H40.1442V180.128H42.1514V179.616H43.6568V179.104H45.1622V178.593H47.1694V178.081H48.6748V177.569H50.6821V177.058H52.1875V176.546H54.1947V176.034H55.7001V175.522H57.2055V175.011H59.2127V174.499H60.7181V173.987H62.7253V173.476H64.2307V172.964H66.2379V172.452H67.7433V171.94H69.2487V171.429H71.256V170.917H72.7614V170.405H74.7686V169.893H76.274V169.382H78.2812V168.87H79.7866V168.358H81.292V167.847H83.2992V167.335H84.8046V166.823H86.8118V166.311H88.3172V165.8H90.3244V165.288H91.8299V164.776H93.8371V164.264H95.3425V163.753H96.8479V163.241H98.8551V162.729H100.361V162.217H102.368V161.706H103.873V161.194H105.88V160.682H107.386V160.171H109.393V159.659H110.898V159.147H112.404V158.635H114.411V158.124H115.916V157.612H117.924V157.1H119.429V156.588H121.436V156.077H122.942V155.565H124.949V155.053H126.454V154.542H128.461V154.03H129.967V153.518H131.472V153.006H133.479V152.495H134.985V151.983H136.992V151.471H138.497V150.959H140.505V150.448H142.01V149.936H144.017V149.424H145.523V148.913H147.53V148.401H149.035V147.889H151.043V147.377H152.548V146.866H154.053V146.354H156.061V145.842H157.566V145.331H159.573V144.819H161.079V144.307H163.086V143.795H164.591V143.284H166.598V142.772H168.104V142.26H170.111V141.748H171.616V141.237H173.624V140.725H175.129V140.213H177.136V139.701H178.642V139.19H180.649V138.678H182.154V138.166H184.162V137.655H185.667V137.143H187.674V136.631H189.18V136.119H190.685V135.608H192.692V135.096H194.198V134.584H196.205V134.073H197.71V133.561H199.717V133.049H201.223V132.537H203.23V132.026H204.735V131.514H206.743V131.002H208.248V130.49H210.255V129.979H211.761V129.467H213.768V128.955H215.273V128.444H217.28V127.932H218.786V127.42H220.793V126.908H222.298V126.397H224.306V125.885H225.811V125.373H227.818V124.861H229.324V124.35H231.331V123.838H232.836V123.326H234.844V122.815H236.349V122.303H238.356V121.791H239.862V121.279H241.869V120.768H243.374V120.256H245.381V119.744H246.887V119.232H248.894V118.721H250.399V118.209H252.407V117.697H253.912V117.186H255.919V116.674H257.926V116.162H259.432V115.65H261.439V115.139H262.944V114.627H264.952V114.115H266.457V113.603H268.464V113.092H269.97V112.58H271.977V112.068H273.482V111.557H275.49V111.045H276.995V110.533H279.002V110.021H280.508V109.51H282.515V108.998H284.02V108.486H286.027V107.974H287.533V107.463H289.54V106.951H291.547V106.439H293.053V105.928H295.06V105.416H296.565V104.904H298.572V104.392H300.078V103.881H302.085V103.369H303.59V102.857H305.598V102.345H307.103V101.834H309.11V101.322H311.118V100.81H312.623V100.298H314.63V99.7868H316.136V99.2751H318.143V98.7633H319.648V98.2516H321.655V97.7399H323.161V97.2282H325.168V96.7165H327.175V96.2047H328.681V95.693H330.688V95.1812H332.193V94.6695H334.2V94.1578H335.706V93.646H337.713V93.1343H339.72V92.6226H341.226V92.1109H343.233V91.5992H344.738V91.0874H346.746V90.5757H348.251V90.064H350.258V89.5523H352.265V89.0406H353.771V88.5288H355.778V88.0171H357.283V87.5053H359.291V86.9936H361.298V86.4819H362.803V85.9701H364.81V85.4584H366.316V84.9467H368.323V84.435H369.828V83.9233H371.836V83.4115H373.843V82.8998H375.348V82.3881H377.355V81.8763H378.861V81.3646H380.868V80.8529H382.875V80.3411H384.381V79.8294H386.388V79.3177H388.395V78.806H389.901V78.2943H391.908V77.7825H393.413V77.2708H395.42V76.7591H397.428V76.2474H398.933V75.7357H400.94V75.2239H402.947V74.7122H404.453V74.2004H406.46V73.6887H407.965V73.177H409.973V72.6652H411.98V72.1535H413.485V71.6418H415.492V71.1301H417.5V70.6184H419.005V70.1066H421.012V69.5949H423.019V69.0832H424.525V68.5714H426.532V68.0597H428.539V67.548H430.045V67.0363H432.052V66.5245H434.059V66.0128H435.565V65.5011H437.572V64.9893H439.579V64.4776H441.084V63.9659H443.092V63.4542H445.099V62.9425H446.604V62.4308H448.611V61.919H450.619V61.4073H452.124V60.8955H454.131V60.3838H456.138V59.8721H458.146V59.3603H459.651V58.8486H461.658V58.3369H463.665V57.8252H465.171V57.3135H467.178V56.8017H469.185V56.29H471.193V55.7783H472.698V55.2665H474.705V54.7548H476.712V54.2431H478.218V53.7314H480.225V53.2196H482.232V52.7079H484.239V52.1962H486.247V51.6844H487.752V51.1727H489.759V50.661H491.766V50.1492H493.774V49.6375H495.279V49.1258H497.286V48.6141H499.293V48.1024H501.301V47.5906H502.806V47.0789H504.813V46.5672H506.82V46.0555H508.828V45.5437H510.835V45.032H512.842V44.5203H514.348V44.0086H516.355V43.4968H518.362V42.9851H520.369V42.4733H522.376V41.9616H524.384V41.4499H525.889V40.9382H527.896V40.4265H529.903V39.9147H531.911V39.403H533.918V38.8913H535.925V38.3795H537.932V37.8678H539.939V37.3561H541.947V36.8443H543.452V36.3326H545.459V35.8209H547.467V35.3092H549.474V34.7975H551.481V34.2857H553.488V33.774H555.495V33.2623H557.503V32.7506H559.51V32.2388H561.517V31.7271H563.524V31.2154H565.531V30.7036H567.539V30.1919H569.546V29.6802H572.055V29.1685H574.062V28.6568H576.069V28.1451H578.076V27.6333H580.084V27.1216H582.091V26.6098H584.098V26.0981H586.607V25.5864H588.614V25.0746H590.622V24.5629H592.629V24.0512H594.636V23.5394H597.145V23.0277H599.152V22.516H601.661V22.0043H603.668V21.4925H605.676V20.9808H608.185V20.4691H610.192V19.9573H612.701V19.4456H615.21V18.9339H617.217V18.4222H619.726V17.9105H621.733V17.3987H624.242V16.887H626.751V16.3753H629.26V15.8636H631.268V15.3519H633.777V14.8401H636.286V14.3284H638.795V13.8167H641.304V13.3049H643.813V12.7932H646.322V12.2815H648.831V11.7698H651.34V11.258H653.849V10.7463H656.859V10.2345H659.368V9.72284H662.379V9.21113H664.888V8.69942H667.899V8.18763H670.408V7.67593H673.419V7.16422H676.43V6.65243H679.942V6.14072H682.953V5.62901H685.964V5.11731H689.477V4.6056H692.989V4.09381H697.004V3.5821H700.516V3.07039H704.531V2.55868H709.047V2.04698H714.065V1.53519H718.581V1.02348H725.105V0.511771H731.628V-1.93119e-05H778.296V0.511771H785.321V1.02348H790.841V1.53519H794.855V2.04698H799.371V2.55868H803.386V3.07039H806.397V3.5821H809.909V4.09381H812.92V4.6056H815.931V5.11731H818.44V5.62901H820.949V6.14072H823.458V6.65243H825.967V7.16422H828.476V7.67593H830.985V8.18763H832.992V8.69942H835.501V9.21113H837.508V9.72284H839.516V10.2345H841.523V10.7463H843.53V11.258H845.537V11.7698H847.544V12.2815H849.05V12.7932H851.057V13.3049H852.562V13.8167H854.57V14.3284H856.075V14.8401H857.58V15.3519H859.086V15.8636H860.591V16.3753H862.097V16.887H863.602V17.3987H865.107V17.9105H866.613V18.4222H868.118V18.9339H869.624V19.4456H870.627V19.9573H872.133V20.4691H873.638V20.9808H875.144V21.4925H876.147V22.0043H877.653V22.516H878.656V23.0277H880.161V23.5394H881.165V24.0512H882.671V24.5629H884.176V25.0746H885.18V25.5864H886.183V26.0981H887.689V26.6098H888.692V27.1216H889.696V27.6333H891.201V28.1451H892.205V28.6568H893.71V29.1685H894.714V29.6802H895.717V30.1919H896.721V30.7036H897.725V31.2154H899.23V31.7271H900.234V32.2388H901.237V32.7506H902.241V33.2623H903.244V33.774H904.75V34.2857H905.753V34.7975H906.757V35.3092H907.761V35.8209H908.764V36.3326H909.768V36.8443H910.771V37.3561H911.775V37.8678H912.779V38.3795H913.782V38.8913H914.786V39.403H915.79V39.9147H916.793V40.4265H917.797V40.9382H918.8V41.4499H919.804V41.9616H920.808V42.4733H921.309V42.9851H922.313V43.4968H923.317V44.0086H924.32V44.5203H925.324V45.032H926.327V45.5437H927.331V46.0555H927.833V46.5672H928.836V47.0789H929.84V47.5906H930.844V48.1024H931.847V48.6141H932.349V49.1258H933.353V49.6375H934.356V50.1492H934.858V50.661H935.862V51.1727H936.865V51.6844H937.869V52.1962H938.371V52.7079H939.374V53.2196H940.378V53.7314H940.88V54.2431H941.883V54.7548H942.887V55.2665H943.389V55.7783H944.392V56.29H944.894V56.8017H945.898V57.3135H946.901V57.8252H947.403V58.3369H948.407V58.8486H948.908V59.3603H949.912V59.8721H950.916V60.3838H951.417V60.8955H952.421V61.4073H952.923V61.919H953.927V62.4308H954.428V62.9425H955.432V63.4542H955.934V63.9659H956.937V64.4776H957.439V64.9893H958.443V65.5011H958.945V66.0128H959.948V66.5245H960.45V67.0363H960.952V67.548H961.955V68.0597H962.457V68.5714H963.461V69.0832H963.962V69.5949H964.966V70.1066H965.468V70.6184H966.472V71.1301H966.973V71.6418H967.475V72.1535H968.479V72.6652H968.981V73.177H969.482V73.6887H970.486V74.2004H970.988V74.7122H971.49V75.2239H972.493V75.7357H972.995V76.2474H973.497V76.7591H974.5V77.2708H975.002V77.7825H975.504V78.2943H976.508V78.806H977.009V79.3177H977.511V79.8294H978.515V80.3411H979.017V80.8529H979.518V81.3646H980.02V81.8763H981.024V82.3881H981.526V82.8998H982.027V83.4115H982.529V83.9233H983.533V84.435H984.035V84.9467H984.536V85.4584H985.038V85.9701H985.54V86.4819H986.544V86.9936H987.045V87.5053H987.547V88.0171H988.049V88.5288H989.053V89.0406H989.554V89.5523H990.056V90.064H990.558V90.5757H991.06V91.0874H991.562V91.5992H992.565V92.1109H993.067V92.6226H993.569V93.1343H994.071V93.646H994.572V94.1578H995.074V94.6695H995.576V95.1812H996.078V95.693H996.58V96.2047H997.583V96.7165H998.085V97.2282H998.587V97.7399H999.089V98.2516H999.591V98.7633H1000.09V99.2751H1000.59V99.7868H1001.1V100.298H1001.6V100.81H1002.1V101.322H1002.6V101.834H1003.1V102.345H1004.11V102.857H1004.61V103.369H1005.11V103.881H1005.61V104.392H1006.11V104.904H1006.62V105.416H1007.12V105.928H1007.62V106.439H1008.12V106.951H1008.62V107.463H1009.12V107.974H1009.63V108.486H1010.13V108.998H1010.63V109.51H1011.13V110.021H1011.63V110.533H1012.14V111.045H1012.64V111.557H1013.14V112.068H1013.64V112.58H1014.14V113.603H1014.64V114.115H1015.15V114.627H1015.65V115.139H1016.15V115.65H1016.65V116.162H1017.15V116.674H1017.66V117.186H1018.16V117.697H1018.66V118.209H1019.16V119.232H1019.66V119.744H1020.16V120.256H1020.67V120.768H1021.17V121.279H1021.67V121.791H1022.17V122.303H1022.67V122.815H1023.18V123.326H1023.68V124.35H1024.18V124.861H1024.68V125.373H1025.18V125.885H1025.68V126.397H1026.19V127.42H1026.69V127.932H1027.19V128.444H1027.69V128.955H1028.19V129.979H1028.7V130.49H1029.2V131.002H1029.7V131.514H1030.2V132.026H1030.7V133.049H1031.2V133.561H1031.71V134.073H1032.21V134.584H1032.71V135.608H1033.21V136.119H1033.71V136.631H1034.21V137.655H1034.72V138.166H1035.22V138.678H1035.72V139.701H1036.22V140.213H1036.72V140.725H1037.23V141.748H1037.73V142.26H1038.23V143.284H1038.73V143.795H1039.23V144.307H1039.73V145.331H1040.24V145.842H1040.74V146.866H1041.24V147.377H1041.74V147.889H1042.24V148.913H1042.75V149.424H1043.25V150.448H1043.75V150.959H1044.25V151.983H1044.75V152.495H1045.25V153.518H1045.76V154.542H1046.26V155.053H1046.76V156.077H1047.26V156.588H1047.76V157.612H1048.27V158.635H1048.77V159.147H1049.27V160.171H1049.77V160.682H1050.27V161.706H1050.77V162.217H1051.28V163.241H1051.78V164.264H1052.28V165.288H1052.78V166.311H1053.28V166.823H1053.79V167.847H1054.29V168.87H1054.79V169.893H1055.29V170.917H1055.79V171.94H1056.29V172.452H1056.8V173.476H1057.3V174.499H1057.8V175.522H1058.3V176.546H1058.8V177.569H1059.31V178.081H1059.81V179.616H1060.31V180.64H1060.81V181.663H1061.31V182.687H1061.81V183.71H1062.32V185.245H1062.82V186.269H1063.32V187.292H1063.82V188.316H1064.32V189.339H1064.82V190.362H1065.33V191.898H1065.83V192.921H1066.33V193.945H1066.83V195.48H1067.33V197.015H1067.84V198.038H1068.34V199.574H1068.84V201.109H1069.34V202.132H1069.84V203.667H1070.34V205.203H1070.85V206.226H1071.35V207.761H1071.85V209.296H1072.35V210.832H1072.85V212.367H1073.36V213.902H1073.86V215.949H1074.36V217.484H1074.86V219.531H1075.36V221.066H1075.86V222.601H1076.37V224.648H1076.87V226.183H1077.37V228.742H1077.87V230.789H1078.37V233.348H1078.88V235.906H1079.38V237.953H1079.88V240.512H1080.38V243.07H1080.88V246.141H1081.38V249.723H1081.89V253.305H1082.39V257.399H1082.89V260.981H1083.39V267.122H1083.89V275.821H1084.4V303.966H1083.89V309.595H1083.39V315.736H1082.89V321.365H1082.39V325.458H1081.89V329.041H1081.38V332.111H1080.88V335.181H1080.38V338.252H1079.88V341.834H1079.38V344.904H1078.88V347.463H1078.37V349.51H1077.87V351.556H1077.37V354.115H1076.87V356.162H1076.37V358.209H1075.86V360.768H1075.36V362.815H1074.86V365.373H1074.36V367.42H1073.86V368.955H1073.36V371.002H1072.85V372.537H1072.35V374.073H1071.85V376.119H1071.35V377.655H1070.85V379.702H1070.34V381.237H1069.84V382.772H1069.34V384.819H1068.84V386.354H1068.34V387.889H1067.84V389.936H1067.33V391.471H1066.83V393.006H1066.33V394.03H1065.83V395.565H1065.33V397.1H1064.82V398.635H1064.32V400.171H1063.82V401.706H1063.32V402.729H1062.82V404.264H1062.32V405.8H1061.81V407.335H1061.31V408.87H1060.81V409.893H1060.31V411.429H1059.81V412.452H1059.31V413.987H1058.8V415.011H1058.3V416.546H1057.8V417.569H1057.3V419.104H1056.8V420.128H1056.29V421.151H1055.79V422.175H1055.29V423.71H1054.79V424.733H1054.29V425.757H1053.79V426.78H1053.28V427.804H1052.78V429.339H1052.28V430.362H1051.78V430.874H1051.28V431.898H1050.77V432.921H1050.27V433.945H1049.77V434.968H1049.27V435.991H1048.77V437.015H1048.27V438.038H1047.76V439.062H1047.26V440.085H1046.76V441.109H1046.26V441.62H1045.76V442.644H1045.25V443.667H1044.75V444.691H1044.25V445.203H1043.75V446.226H1043.25V447.249H1042.75V447.761H1042.24V448.785H1041.74V449.808H1041.24V450.32H1040.74V451.343H1040.24V451.855H1039.73V452.878H1039.23V453.902H1038.73V454.414H1038.23V455.437H1037.73V456.461H1037.23V456.972H1036.72V457.996H1036.22V458.507H1035.72V459.019H1035.22V460.043H1034.72V460.554H1034.21V461.578H1033.71V462.09H1033.21V463.113H1032.71V463.625H1032.21V464.136H1031.71V465.16H1031.2V465.672H1030.7V466.695H1030.2V467.207H1029.7V468.23H1029.2V468.742H1028.7V469.254H1028.19V470.277H1027.69V470.789H1027.19V471.301H1026.69V472.324H1026.19V472.836H1025.68V473.348H1025.18V473.859H1024.68V474.883H1024.18V475.394H1023.68V475.906H1023.18V476.418H1022.67V477.441H1022.17V477.953H1021.67V478.465H1021.17V478.977H1020.67V480H1020.16V480.512H1019.66V481.023H1019.16V481.535H1018.66V482.559H1018.16V483.07H1017.66V483.582H1017.15V484.094H1016.65V484.606H1016.15V485.117H1015.65V485.629H1015.15V486.141H1014.64V487.164H1014.14V487.676H1013.64V488.188H1013.14V488.699H1012.64V489.211H1012.14V489.723H1011.63V490.235H1011.13V490.746H1010.63V491.77H1010.13V492.281H1009.63V492.793H1009.12V493.305H1008.62V493.817H1008.12V494.328H1007.62V494.84H1007.12V495.352H1006.62V495.864H1006.11V496.375H1005.61V496.887H1005.11V497.399H1004.61V497.91H1004.11V498.422H1003.6V498.934H1003.1V499.446H1002.6V499.957H1002.1V500.469H1001.6V500.981H1001.1V501.493H1000.59V502.004H1000.09V502.516H999.591V503.028H999.089V503.539H998.587V504.051H998.085V504.563H997.583V505.075H997.081V505.586H996.58V506.098H996.078V506.61H995.576V507.122H995.074V507.633H994.572V508.145H994.071V508.657H993.569V509.168H993.067V509.68H992.064V510.192H991.562V510.704H991.06V511.215H990.558V511.727H990.056V512.239H989.554V512.751H989.053V513.262H988.551V513.774H988.049V514.286H987.547V514.797H986.544V515.309H986.042V515.821H985.54V516.333H985.038V516.844H984.536V517.356H984.035V517.868H983.533V518.38H982.529V518.891H982.027V519.403H981.526V519.915H981.024V520.426H980.02V520.938H979.518V521.45H979.017V521.962H978.515V522.473H978.013V522.985H977.009V523.497H976.508V524.009H976.006V524.52H975.504V525.032H974.5V525.544H973.999V526.055H973.497V526.567H972.995V527.079H972.493V527.591H971.49V528.102H970.988V528.614H970.486V529.126H969.482V529.638H968.981V530.149H968.479V530.661H967.475V531.173H966.973V531.684H966.472V532.196H965.468V532.708H964.966V533.22H964.464V533.731H963.461V534.243H962.959V534.755H961.955V535.267H961.454V535.778H960.952V536.29H959.948V536.802H959.446V537.313H958.945V537.825H957.941V538.337H957.439V538.849H956.435V539.36H955.934V539.872H954.93V540.384H954.428V540.896H953.425V541.407H952.923V541.919H951.919V542.431H951.417V542.942H950.414V543.454H949.912V543.966H948.908V544.478H948.407V544.989H947.403V545.501H946.901V546.013H945.898V546.525H945.396V547.036H944.894V547.548H943.89V548.06H942.887V548.571H942.385V549.083H941.381V549.595H940.378V550.107H939.876V550.618H938.872V551.13H937.869V551.642H937.367V552.154H936.363V552.665H935.36V553.177H934.858V553.689H933.854V554.2H933.353V554.712H932.349V555.224H931.345V555.736H930.844V556.247H929.84V556.759H928.836V557.271H927.833V557.783H926.829V558.294H926.327V558.806H925.324V559.318H924.32V559.829H923.317V560.341H922.313V560.853H921.811V561.365H920.808V561.876H919.804V562.388H918.8V562.9H917.797V563.412H917.295V563.923H916.291V564.435H915.288V564.947H914.284V565.458H913.28V565.97H912.277V566.482H911.273V566.994H910.27V567.505H909.266V568.017H908.263V568.529H907.259V569.041H906.255V569.552H905.252V570.064H904.248V570.576H903.244V571.087H902.241V571.599H901.237V572.111H900.234V572.623H898.728V573.134H897.725V573.646H896.721V574.158H895.717V574.67H894.212V575.181H893.208V575.693H892.205V576.205H891.201V576.716H890.198V577.228H888.692V577.74H887.689V578.252H886.685V578.763H885.681V579.275H884.176V579.787H883.172V580.299H881.667V580.81H880.663V581.322H879.158V581.834H878.154V582.345H876.649V582.857H875.645V583.369H874.14V583.881H873.136V584.392H871.631V584.904H870.627V585.416H869.122V585.928H868.118V586.439H866.613V586.951H865.107V587.463H863.602V587.974H862.097V588.486H860.591V588.998H859.588V589.51H858.082V590.021H856.577V590.533H855.071V591.045H853.566V591.557H852.061V592.068H850.555V592.58H849.05V593.092H847.544V593.603H845.537V594.115H844.032V594.627H842.526V595.139H841.021V595.65H839.516V596.162H837.508V596.674H836.003V597.186H833.996V597.697H831.989V598.209H830.483V598.721H828.476V599.232H826.469V599.744H824.461V600.256H822.956V600.768H820.949V601.279H818.942V601.791H816.433V602.303H814.425V602.815H811.916V603.326H809.909V603.838H807.4V604.35H805.393V604.861H802.884V605.373H800.375V605.885H797.364V606.397H794.855V606.908H791.844V607.42H789.335V607.932H786.325V608.443H782.812V608.955H778.797V609.467H775.285V609.979H771.772V610.49H767.256V611.002H761.736V611.514H756.718V612.026H749.693V612.537H740.159V613.049" fill="#ECF2F7"/>
</svg>
