<svg width="1842" height="1071" viewBox="0 0 1842 1071" fill="none" xmlns="http://www.w3.org/2000/svg">
<path opacity="0.1" d="M816.748 1070.12V1069.36H807.452V1068.6H798.82V1067.84H792.844V1067.08H786.867V1066.32H780.891V1065.56H776.907V1064.8H772.259V1064.04H768.275V1063.28H764.291V1062.52H760.306V1061.76H756.986V1061H753.666V1060.24H750.346V1059.48H747.026V1058.72H743.706V1057.96H740.386V1057.2H737.73V1056.44H735.073V1055.68H732.417V1054.92H729.097V1054.16H726.441V1053.4H724.449V1052.64H721.793V1051.88H719.137V1051.12H717.145V1050.35H714.489V1049.59H712.497V1048.83H710.505V1048.07H708.513V1047.31H705.857V1046.55H703.864V1045.79H701.872V1045.03H699.88V1044.27H697.888V1043.51H695.896V1042.75H693.904V1041.99H692.576V1041.23H690.584V1040.47H688.592V1039.71H686.6V1038.95H684.608V1038.19H683.28V1037.43H681.288V1036.67H679.96V1035.91H677.968V1035.15H676.64V1034.39H674.647V1033.63H672.655V1032.87H671.327V1032.11H669.999V1031.34H668.007V1030.58H666.679V1029.82H665.351V1029.06H663.359V1028.3H662.031V1027.54H660.039V1026.78H658.711V1026.02H657.383V1025.26H656.055V1024.5H654.063V1023.74H652.735V1022.98H651.407V1022.22H650.079V1021.46H648.75V1020.7H647.422V1019.94H645.43V1019.18H644.102V1018.42H642.774V1017.66H641.446V1016.9H640.118V1016.14H638.79V1015.38H637.462V1014.62H636.134V1013.86H634.806V1013.1H633.478V1012.34H632.15V1011.57H630.822V1010.81H629.494V1010.05H628.166V1009.29H626.838V1008.53H625.51V1007.77H624.182V1007.01H622.854V1006.25H621.526V1005.49H620.862V1004.73H619.534V1003.97H618.205V1003.21H616.877V1002.45H615.549V1001.69H614.221V1000.93H612.893V1000.17H612.229V999.408H610.901V998.648H609.573V997.888H608.245V997.127H607.581V996.367H606.253V995.606H604.925V994.846H604.261V994.086H602.933V993.325H601.605V992.565H600.277V991.804H599.613V991.044H598.285V990.284H596.957V989.523H596.293V988.763H594.965V988.002H593.637V987.242H592.973V986.482H591.645V985.721H590.981V984.961H589.652V984.2H588.324V983.44H587.66V982.68H586.332V981.919H585.668V981.159H584.34V980.398H583.012V979.638H582.348V978.878H581.02V978.117H580.356V977.357H579.028V976.596H578.364V975.836H577.036V975.076H576.372V974.315H575.044V973.555H574.38V972.795H573.052V972.034H572.388V971.274H571.724V970.513H570.396V969.753H569.732V968.993H568.404V968.232H567.74V967.472H566.412V966.711H565.748V965.951H564.42V965.191H563.756V964.43H562.428V963.67H561.763V962.909H561.099V962.149H559.771V961.389H559.107V960.628H558.443V959.868H557.115V959.107H556.451V958.347H555.787V957.587H554.459V956.826H553.795V956.066H553.131V955.305H551.803V954.545H551.139V953.785H550.475V953.024H549.147V952.264H548.483V951.503H547.819V950.743H546.491V949.983H545.827V949.222H545.163V948.462H544.499V947.701H543.835V946.941H542.507V946.181H541.843V945.42H541.179V944.66H540.515V943.9H539.187V943.139H538.523V942.379H537.859V941.618H537.195V940.858H536.531V940.098H535.203V939.337H534.539V938.577H533.875V937.816H533.21V937.056H531.883V936.296H531.218V935.535H530.554V934.775H529.89V934.014H529.226V933.254H528.562V932.494H527.898V931.733H526.57V930.973H525.906V930.212H525.242V929.452H524.578V928.692H523.914V927.931H523.25V927.171H522.586V926.41H521.922V925.65H521.258V924.89H519.93V924.129H519.266V923.369H518.602V922.608H517.938V921.848H517.274V921.088H516.61V920.327H515.946V919.567H515.282V918.806H514.618V918.046H513.954V917.286H513.29V916.525H512.626V915.765H511.962V915.005H511.298V914.244H510.634V913.484H509.97V912.723H509.306V911.963H508.642V911.203H507.978V910.442H507.314V909.682H506.65V908.921H505.986V908.161H505.322V907.401H504.658V906.64H503.993V905.88H503.329V905.119H502.665V904.359H502.001V903.599H501.337V902.838H500.673V902.078H500.009V901.317H499.345V900.557H498.681V899.797H498.017V899.036H497.353V898.276H496.689V897.515H496.025V896.755H495.361V895.234H494.697V894.474H494.033V893.713H493.369V892.953H492.705V892.193H492.041V891.432H491.377V890.672H490.713V889.912H490.049V889.151H489.385V888.391H488.721V887.63H488.057V886.11H487.393V885.349H486.729V884.589H486.065V883.828H485.401V883.068H484.737V881.547H484.073V880.787H483.409V880.026H482.745V879.266H482.081V877.745H481.417V876.985H480.753V876.224H480.089V875.464H479.425V874.704H478.761V873.183H478.097V872.422H477.433V871.662H476.769V870.902H476.105V869.381H475.441V868.62H474.776V867.86H474.112V867.1H473.448V865.579H472.784V864.818H472.12V863.298H471.456V862.537H470.792V861.777H470.128V860.256H469.464V859.496H468.8V858.735H468.136V857.215H467.472V856.454H466.808V854.933H466.144V854.173H465.48V853.413H464.816V851.892H464.152V851.131H463.488V849.611H462.824V848.85H462.16V848.09H461.496V846.569H460.832V845.809H460.168V844.288H459.504V842.767H458.84V842.007H458.176V840.486H457.512V839.725H456.848V838.205H456.184V836.684H455.52V835.923H454.856V834.403H454.192V833.642H453.528V832.122H452.864V831.361H452.2V829.84H451.536V828.32H450.872V827.559H450.208V826.038H449.544V824.518H448.88V822.997H448.216V822.236H447.552V820.716H446.888V819.195H446.223V817.674H445.559V816.153H444.895V814.632H444.231V813.872H443.567V812.351H442.903V810.83H442.239V809.31H441.575V807.789H440.911V806.268H440.247V804.747H439.583V803.227H438.919V801.706H438.255V800.185H437.591V798.664H436.927V797.143H436.263V794.862H435.599V793.341H434.935V791.821H434.271V790.3H433.607V788.779H432.943V786.498H432.279V784.977H431.615V783.456H430.951V781.935H430.287V779.654H429.623V778.134H428.959V775.852H428.295V773.571H427.631V772.05H426.967V769.769H426.303V767.488H425.639V765.967H424.975V763.686H424.311V761.405H423.647V759.884H422.983V757.603H422.319V754.561H421.655V752.28H420.991V749.239H420.327V746.957H419.663V744.676H418.999V741.635H418.335V739.353H417.671V736.312H417.006V734.031H416.342V730.989H415.678V727.187H415.014V723.385H414.35V720.344H413.686V716.542H413.022V712.74H412.358V709.698H411.694V705.136H411.03V699.813H410.366V694.49H409.702V688.407H409.038V683.084H408.374V675.48H407.71V662.554H407.046V616.169H407.71V607.805H408.374V598.68H409.038V590.316H409.702V584.993H410.366V580.431H411.03V575.108H411.694V570.546H412.358V565.983H413.022V560.661H413.686V556.098H414.35V553.057H415.014V550.015H415.678V546.213H416.342V543.172H417.006V540.13H417.671V536.328H418.335V533.286H418.999V529.485H419.663V526.443H420.327V523.401H420.991V520.36H421.655V518.079H422.319V515.797H422.983V512.756H423.647V510.475H424.311V508.193H424.975V505.152H425.639V502.871H426.303V500.59H426.967V497.548H427.631V495.267H428.295V492.986H428.959V489.944H429.623V487.663H430.287V485.382H430.951V483.1H431.615V481.58H432.279V479.298H432.943V477.017H433.607V474.736H434.271V472.455H434.935V470.934H435.599V468.653H436.263V466.372H436.927V464.091H437.591V461.809H438.255V460.289H438.919V458.007H439.583V456.487H440.247V454.205H440.911V452.685H441.575V450.403H442.239V448.883H442.903V446.602H443.567V445.081H444.231V443.56H444.895V442.039H445.559V439.758H446.223V438.237H446.888V436.716H447.552V435.196H448.216V433.675H448.88V431.394H449.544V430.633H450.208V429.112H450.872V427.592H451.536V426.071H452.2V424.55H452.864V423.029H453.528V421.508H454.192V419.988H454.856V418.467H455.52V416.946H456.184V416.186H456.848V414.665H457.512V413.144H458.176V411.623H458.84V410.103H459.504V408.582H460.168V407.821H460.832V406.301H461.496V405.54H462.16V404.019H462.824V402.499H463.488V401.738H464.152V400.217H464.816V398.697H465.48V397.936H466.144V396.415H466.808V394.895H467.472V394.134H468.136V392.614H468.8V391.853H469.464V390.332H470.128V389.572H470.792V388.051H471.456V387.291H472.12V385.77H472.784V385.01H473.448V383.489H474.112V382.728H474.776V381.968H475.441V380.447H476.105V379.687H476.769V378.166H477.433V377.406H478.097V376.645H478.761V375.124H479.425V374.364H480.089V372.843H480.753V372.083H481.417V371.322H482.081V369.802H482.745V369.041H483.409V368.281H484.073V366.76H484.737V366H485.401V365.239H486.065V364.479H486.729V362.958H487.393V362.198H488.057V361.437H488.721V360.677H489.385V359.156H490.049V358.396H490.713V357.635H491.377V356.875H492.041V355.354H492.705V354.594H493.369V353.833H494.033V353.073H494.697V352.313H495.361V350.792H496.025V350.031H496.689V349.271H497.353V348.511H498.017V347.75H498.681V346.99H499.345V346.229H500.009V345.469H500.673V343.948H501.337V343.188H502.001V342.427H502.665V341.667H503.329V340.907H503.993V340.146H504.658V339.386H505.322V338.625H505.986V337.105H506.65V336.344H507.314V335.584H507.978V334.824H508.642V334.063H509.306V333.303H509.97V332.542H510.634V331.782H511.298V331.022H511.962V330.261H512.626V329.501H513.29V328.74H513.954V327.98H514.618V327.22H515.282V326.459H515.946V325.699H516.61V324.938H517.274V324.178H517.938V323.418H518.602V322.657H519.266V321.897H519.93V321.136H520.594V320.376H521.258V319.616H521.922V318.855H522.586V318.095H523.25V317.334H523.914V316.574H524.578V315.814H525.242V315.053H525.906V314.293H527.234V313.532H527.898V312.772H528.562V312.012H529.226V311.251H529.89V310.491H530.554V309.73H531.218V308.97H531.883V308.21H532.546V307.449H533.875V306.689H534.539V305.929H535.203V305.168H535.867V304.408H536.531V303.647H537.195V302.887H537.859V302.127H538.523V301.366H539.187V300.606H540.515V299.845H541.179V299.085H541.843V298.325H542.507V297.564H543.171V296.804H544.499V296.043H545.163V295.283H545.827V294.523H546.491V293.762H547.819V293.002H548.483V292.241H549.147V291.481H549.811V290.721H550.475V289.96H551.803V289.2H552.467V288.439H553.131V287.679H553.795V286.919H555.123V286.158H555.787V285.398H556.451V284.638H557.115V283.877H558.443V283.117H559.107V282.356H560.435V281.596H561.099V280.836H561.763V280.075H563.092V279.315H563.756V278.554H564.42V277.794H565.748V277.034H566.412V276.273H567.076V275.513H568.404V274.752H569.068V273.992H569.732V273.232H571.06V272.471H571.724V271.711H572.388V270.95H573.716V270.19H574.38V269.43H575.708V268.669H576.372V267.909H577.7V267.148H578.364V266.388H579.692V265.628H580.356V264.867H581.684V264.107H582.348V263.346H583.676V262.586H584.34V261.826H585.668V261.065H586.332V260.305H587.66V259.544H588.324V258.784H589.652V258.024H590.316V257.263H591.645V256.503H592.309V255.743H593.637V254.982H594.301V254.222H595.629V253.461H596.957V252.701H597.621V251.941H598.949V251.18H600.277V250.42H600.941V249.659H602.269V248.899H603.597V248.139H604.261V247.378H605.589V246.618H606.253V245.857H607.581V245.097H608.909V244.337H609.573V243.576H610.901V242.816H612.229V242.055H613.557V241.295H614.221V240.535H615.549V239.774H616.877V239.014H618.205V238.253H619.534V237.493H620.862V236.733H621.526V235.972H622.854V235.212H624.182V234.451H625.51V233.691H626.838V232.931H627.502V232.17H628.83V231.41H630.158V230.649H631.486V229.889H632.814V229.129H634.142V228.368H635.47V227.608H636.798V226.847H638.126V226.087H639.454V225.327H640.782V224.566H642.11V223.806H643.438V223.046H644.766V222.285H646.094V221.525H647.422V220.764H648.75V220.004H650.079V219.244H651.407V218.483H653.399V217.723H654.727V216.962H656.055V216.202H657.383V215.442H658.711V214.681H660.703V213.921H662.031V213.16H663.359V212.4H664.687V211.64H666.679V210.879H668.007V210.119H669.335V209.358H670.663V208.598H672.655V207.838H673.983V207.077H675.975V206.317H677.304V205.556H679.296V204.796H680.624V204.036H682.616V203.275H683.944V202.515H685.936V201.754H687.264V200.994H689.256V200.234H690.584V199.473H692.576V198.713H694.568V197.952H696.56V197.192H697.888V196.432H699.88V195.671H701.872V194.911H703.864V194.151H705.857V193.39H707.185V192.63H709.177V191.869H711.169V191.109H713.161V190.349H715.153V189.588H717.145V188.828H719.801V188.067H721.793V187.307H723.785V186.547H725.777V185.786H727.769V185.026H730.425V184.265H732.417V183.505H734.41V182.745H737.066V181.984H739.722V181.224H741.714V180.463H744.37V179.703H747.026V178.943H749.682V178.182H751.674V177.422H754.33V176.661H756.986V175.901H759.642V175.141H762.963V174.38H765.619V173.62H768.939V172.859H771.595V172.099H774.915V171.339H777.571V170.578H780.891V169.818H784.875V169.057H788.195V168.297H792.18V167.537H795.5V166.776H799.484V166.016H804.132V165.256H808.78V164.495H813.428V163.735H818.076V162.974H823.389V162.214H830.029V161.454H837.333V160.693H843.973V159.933H856.59V159.172H887.799V158.412H888.463V159.172H905.727V159.933H915.688V160.693H922.992V161.454H930.296V162.214H935.609V162.974H940.257V163.735H944.905V164.495H949.553V165.256H953.537V166.016H956.857V166.776H960.841V167.537H964.162V168.297H967.482V169.057H970.802V169.818H974.122V170.578H976.114V171.339H978.77V172.099H981.426V172.859H984.082V173.62H986.738V174.38H989.394V175.141H992.05V175.901H994.043V176.661H996.035V177.422H998.691V178.182H1000.68V178.943H1002.67V179.703H1004.67V180.463H1006.66V181.224H1008.65V181.984H1010.64V182.745H1012.64V183.505H1014.63V184.265H1016.62V185.026H1017.95V185.786H1019.94V186.547H1021.93V187.307H1023.26V188.067H1025.25V188.828H1026.58V189.588H1028.57V190.349H1029.9V191.109H1030.56V191.869H1029.24V191.109H1026.58V190.349H1024.59V189.588H1021.93V188.828H1019.28V188.067H1016.62V187.307H1013.96V186.547H1011.31V185.786H1008.65V185.026H1005.33V184.265H1001.35V183.505H997.363V182.745H994.043V181.984H990.058V181.224H986.074V180.463H979.434V179.703H971.466V178.943H964.162V178.182H934.944V178.943H925.648V179.703H915.688V180.463H911.04V181.224H906.392V181.984H901.743V182.745H897.095V183.505H892.447V184.265H888.463V185.026H885.807V185.786H882.487V186.547H879.167V187.307H875.846V188.067H873.19V188.828H869.87V189.588H866.55V190.349H864.558V191.109H861.902V191.869H859.91V192.63H857.254V193.39H854.598V194.151H852.606V194.911H849.95V195.671H847.957V196.432H845.301V197.192H843.309V197.952H841.317V198.713H839.325V199.473H837.333V200.234H835.341V200.994H833.349V201.754H831.357V202.515H829.365V203.275H827.373V204.036H825.381V204.796H824.053V205.556H822.061V206.317H820.069V207.077H818.076V207.838H816.748V208.598H814.756V209.358H813.428V210.119H811.436V210.879H810.108V211.64H808.78V212.4H806.788V213.16H805.46V213.921H803.468V214.681H802.14V215.442H800.148V216.202H798.82V216.962H796.828V217.723H795.5V218.483H794.172V219.244H792.844V220.004H791.515V220.764H790.187V221.525H788.859V222.285H787.531V223.046H785.539V223.806H784.211V224.566H782.883V225.327H781.555V226.087H780.227V226.847H778.899V227.608H777.571V228.368H776.243V229.129H774.915V229.889H773.587V230.649H772.259V231.41H770.931V232.17H769.603V232.931H768.275V233.691H766.947V234.451H765.619V235.212H764.955V235.972H763.627V236.733H762.298V237.493H760.97V238.253H759.642V239.014H758.314V239.774H757.65V240.535H756.322V241.295H754.994V242.055H753.666V242.816H752.338V243.576H751.01V244.337H750.346V245.097H749.018V245.857H747.69V246.618H747.026V247.378H745.698V248.139H744.37V248.899H743.706V249.659H742.378V250.42H741.714V251.18H740.386V251.941H739.058V252.701H738.394V253.461H737.066V254.222H735.738V254.982H735.073V255.743H733.745V256.503H733.081V257.263H731.753V258.024H730.425V258.784H729.761V259.544H728.433V260.305H727.769V261.065H726.441V261.826H725.777V262.586H724.449V263.346H723.785V264.107H722.457V264.867H721.793V265.628H720.465V266.388H719.801V267.148H718.473V267.909H717.809V268.669H717.145V269.43H715.817V270.19H715.153V270.95H713.825V271.711H713.161V272.471H711.833V273.232H711.169V273.992H709.841V274.752H709.177V275.513H708.513V276.273H707.185V277.034H706.521V277.794H705.193V278.554H704.528V279.315H703.864V280.075H702.536V280.836H701.872V281.596H701.208V282.356H700.544V283.117H699.216V283.877H698.552V284.638H697.888V285.398H696.56V286.158H695.896V286.919H695.232V287.679H693.904V288.439H693.24V289.2H692.576V289.96H691.912V290.721H690.584V291.481H689.92V292.241H689.256V293.002H687.928V293.762H687.264V294.523H686.6V295.283H685.272V296.043H684.608V296.804H683.944V297.564H683.28V298.325H682.616V299.085H681.952V299.845H680.624V300.606H679.96V301.366H679.296V302.127H678.632V302.887H677.968V303.647H677.304V304.408H675.975V305.168H675.311V305.929H674.647V306.689H673.983V307.449H673.319V308.21H672.655V308.97H671.327V309.73H670.663V310.491H669.999V311.251H669.335V312.012H668.671V312.772H668.007V313.532H666.679V314.293H666.015V315.053H665.351V315.814H664.687V316.574H664.023V317.334H663.359V318.095H662.695V318.855H662.031V319.616H661.367V320.376H660.703V321.136H660.039V321.897H659.375V322.657H658.711V323.418H658.047V324.178H657.383V324.938H656.719V325.699H655.391V326.459H654.727V327.22H654.063V327.98H653.399V328.74H652.735V329.501H652.071V330.261H651.407V331.022H650.743V331.782H650.079V332.542H649.415V333.303H648.75V334.063H648.086V334.824H647.422V335.584H646.758V336.344H646.094V337.105H645.43V337.865H644.766V338.625H644.102V339.386H643.438V340.146H642.774V340.907H642.11V341.667H641.446V342.427H640.782V343.188H640.118V343.948H639.454V345.469H638.79V346.229H638.126V346.99H637.462V347.75H636.798V348.511H636.134V349.271H635.47V350.031H634.806V350.792H634.142V351.552H633.478V352.313H632.814V353.073H632.15V353.833H631.486V354.594H630.822V355.354H630.158V356.115H629.494V356.875H628.83V358.396H628.166V359.156H627.502V359.917H626.838V360.677H626.174V361.437H625.51V362.958H624.846V363.719H624.182V364.479H623.518V365.239H622.854V366H622.19V366.76H621.526V368.281H620.862V369.041H620.198V369.802H619.534V370.562H618.87V371.322H618.205V372.843H617.541V373.604H616.877V374.364H616.213V375.124H615.549V375.885H614.885V376.645H614.221V378.166H613.557V378.926H612.893V379.687H612.229V380.447H611.565V381.968H610.901V382.728H610.237V383.489H609.573V385.01H608.909V385.77H608.245V386.53H607.581V388.051H606.917V388.812H606.253V389.572H605.589V391.093H604.925V391.853H604.261V392.614H603.597V394.134H602.933V394.895H602.269V395.655H601.605V397.176H600.941V397.936H600.277V398.697H599.613V400.217H598.949V400.978H598.285V401.738H597.621V403.259H596.957V404.019H596.293V405.54H595.629V406.301H594.965V407.821H594.301V408.582H593.637V410.103H592.973V410.863H592.309V412.384H591.645V413.144H590.981V414.665H590.316V415.425H589.652V416.946H588.988V417.707H588.324V419.227H587.66V419.988H586.996V421.508H586.332V422.269H585.668V423.79H585.004V424.55H584.34V426.071H583.676V426.831H583.012V428.352H582.348V429.873H581.684V430.633H581.02V432.154H580.356V433.675H579.692V435.196H579.028V435.956H578.364V437.477H577.7V438.998H577.036V440.518H576.372V441.279H575.708V442.8H575.044V444.32H574.38V445.841H573.716V446.602H573.052V448.122H572.388V449.643H571.724V451.164H571.06V451.924H570.396V453.445H569.732V454.966H569.068V456.487H568.404V458.007H567.74V459.528H567.076V461.049H566.412V462.57H565.748V464.091H565.084V466.372H564.42V467.893H563.756V469.413H563.092V470.934H562.428V472.455H561.763V473.976H561.099V475.497H560.435V477.017H559.771V478.538H559.107V480.059H558.443V482.34H557.779V483.861H557.115V486.142H556.451V487.663H555.787V489.944H555.123V491.465H554.459V492.986H553.795V495.267H553.131V496.788H552.467V499.069H551.803V500.59H551.139V502.871H550.475V504.392H549.811V506.673H549.147V508.954H548.483V511.235H547.819V513.516H547.155V515.797H546.491V518.079H545.827V521.12H545.163V523.401H544.499V525.683H543.835V527.964H543.171V530.245H542.507V532.526H541.843V535.568H541.179V538.609H540.515V542.411H539.851V545.453H539.187V548.494H538.523V551.536H537.859V554.578H537.195V557.619H536.531V562.181H535.867V566.744H535.203V572.067H534.539V576.629H533.875V581.191H533.21V586.514H532.546V595.639H531.883V607.045H531.218V643.544H531.883V650.387H532.546V657.991H533.21V664.835H533.875V671.678H534.539V675.48H535.203V678.522H535.867V682.324H536.531V686.126H537.195V689.928H537.859V693.73H538.523V697.532H539.187V700.573H539.851V703.615H540.515V705.896H541.179V708.938H541.843V711.219H542.507V714.26H543.171V716.542H543.835V719.583H544.499V721.864H545.163V724.145H545.827V726.427H546.491V727.947H547.155V729.468H547.819V730.989H548.483V733.27H549.147V734.031H549.811V735.551H550.475V737.072H551.139V738.593H551.803V740.114H552.467V741.635H553.131V743.155H553.795V744.676H554.459V746.197H555.123V747.718H555.787V748.478H556.451V749.999H557.115V751.52H557.779V752.28H558.443V753.801H559.107V755.322H559.771V756.082H560.435V757.603H561.099V759.124H561.763V760.644H562.428V761.405H563.092V762.926H563.756V764.446H564.42V765.207H565.084V766.728H565.748V767.488H566.412V769.009H567.076V769.769H567.74V771.29H568.404V772.05H569.068V773.571H569.732V774.332H570.396V775.852H571.06V776.613H571.724V778.134H572.388V778.894H573.052V780.415H573.716V781.175H574.38V782.696H575.044V783.456H575.708V784.977H576.372V785.737H577.036V786.498H577.7V788.019H578.364V788.779H579.028V789.539H579.692V791.06H580.356V791.821H581.02V792.581H581.684V794.102H582.348V794.862H583.012V795.623H583.676V797.143H584.34V797.904H585.004V798.664H585.668V800.185H586.332V800.945H586.996V801.706H587.66V802.466H588.324V803.227H588.988V803.987H589.652V805.508H590.316V806.268H590.981V807.029H591.645V807.789H592.309V808.549H592.973V810.07H593.637V810.83H594.301V811.591H594.965V812.351H595.629V813.112H596.293V813.872H596.957V815.393H597.621V816.153H598.285V816.914H598.949V817.674H599.613V818.434H600.277V819.195H600.941V819.955H601.605V820.716H602.269V821.476H602.933V822.236H603.597V822.997H604.261V823.757H604.925V824.518H605.589V825.278H606.253V826.038H606.917V826.799H607.581V827.559H608.245V828.32H608.909V829.08H609.573V830.601H610.901V831.361H611.565V832.122H612.229V832.882H612.893V833.642H613.557V834.403H614.221V835.163H614.885V835.923H615.549V836.684H616.213V837.444H616.877V838.205H617.541V838.965H618.205V839.725H618.87V840.486H619.534V841.246H620.862V842.007H621.526V842.767H622.19V843.527H622.854V844.288H623.518V845.048H624.182V845.809H624.846V846.569H626.174V847.329H626.838V848.09H627.502V848.85H628.166V849.611H628.83V850.371H630.158V851.131H630.822V851.892H631.486V852.652H632.15V853.413H632.814V854.173H634.142V854.933H634.806V855.694H635.47V856.454H636.134V857.215H637.462V857.975H638.126V858.735H638.79V859.496H640.118V860.256H640.782V861.017H641.446V861.777H642.774V862.537H643.438V863.298H644.102V864.058H645.43V864.818H646.094V865.579H646.758V866.339H648.086V867.1H648.75V867.86H649.415V868.62H650.743V869.381H651.407V870.141H652.735V870.902H653.399V871.662H654.727V872.422H655.391V873.183H656.719V873.943H657.383V874.704H658.711V875.464H659.375V876.224H660.703V876.985H661.367V877.745H662.695V878.506H663.359V879.266H664.687V880.026H666.015V880.787H666.679V881.547H668.007V882.308H669.335V883.068H669.999V883.828H671.327V884.589H672.655V885.349H673.983V886.11H674.647V886.87H675.975V887.63H677.304V888.391H677.968V889.151H679.296V889.912H680.624V890.672H681.952V891.432H683.28V892.193H684.608V892.953H685.272V893.713H686.6V894.474H687.928V895.234H689.256V895.995H690.584V896.755H691.912V897.515H693.24V898.276H694.568V899.036H695.896V899.797H697.224V900.557H698.552V901.317H699.88V902.078H701.208V902.838H703.2V903.599H704.528V904.359H705.857V905.119H707.185V905.88H708.513V906.64H709.841V907.401H711.169V908.161H713.161V908.921H714.489V909.682H716.481V910.442H717.809V911.203H719.801V911.963H721.129V912.723H722.457V913.484H724.449V914.244H725.777V915.005H727.769V915.765H729.097V916.525H731.089V917.286H733.081V918.046H735.073V918.806H737.066V919.567H738.394V920.327H740.386V921.088H742.378V921.848H744.37V922.608H746.362V923.369H748.354V924.129H750.346V924.89H752.338V925.65H754.33V926.41H756.322V927.171H758.978V927.931H760.97V928.692H762.963V929.452H765.619V930.212H767.611V930.973H770.267V931.733H772.923V932.494H774.915V933.254H777.571V934.014H780.227V934.775H782.883V935.535H785.539V936.296H788.195V937.056H790.851V937.816H794.172V938.577H796.828V939.337H799.484V940.098H802.804V940.858H806.124V941.618H809.444V942.379H813.428V943.139H816.748V943.9H820.069V944.66H824.053V945.42H828.037V946.181H832.021V946.941H836.005V947.701H840.653V948.462H845.965V949.222H850.614V949.983H855.926V950.743H861.238V951.503H867.878V952.264H873.854V953.024H881.159V953.785H889.791V954.545H898.423V955.305H910.376V956.066H925.648V956.826H994.707V956.066H1012.64V955.305H1025.92V954.545H1036.54V953.785H1046.5V953.024H1055.8V952.264H1063.77V951.503H1072.4V950.743H1079.7V949.983H1086.34V949.222H1093.65V948.462H1099.62V947.701H1106.26V946.941H1112.24V946.181H1118.21V945.42H1124.19V944.66H1129.5V943.9H1134.82V943.139H1140.13V942.379H1145.44V941.618H1150.75V940.858H1155.4V940.098H1160.71V939.337H1165.36V938.577H1170.01V937.816H1174.66V937.056H1179.3V936.296H1183.95V935.535H1188.6V934.775H1193.25V934.014H1197.23V933.254H1201.88V932.494H1205.87V931.733H1210.51V930.973H1214.5V930.212H1219.15V929.452H1223.13V928.692H1227.11V927.931H1231.1V927.171H1235.08V926.41H1239.07V925.65H1243.05V924.89H1247.04V924.129H1251.02V923.369H1254.34V922.608H1258.32V921.848H1262.31V921.088H1266.29V920.327H1269.61V919.567H1273.6V918.806H1276.92V918.046H1280.9V917.286H1284.88V916.525H1288.2V915.765H1291.52V915.005H1295.51V914.244H1298.83V913.484H1302.15V912.723H1306.13V911.963H1309.45V911.203H1312.77V910.442H1316.76V909.682H1320.08V908.921H1323.4V908.161H1326.72V907.401H1330.04V906.64H1333.36V905.88H1336.68V905.119H1340.66V904.359H1343.98V903.599H1347.3V902.838H1350.62V902.078H1353.94V901.317H1357.26V900.557H1360.58V899.797H1363.24V899.036H1366.56V898.276H1369.88V897.515H1373.2V896.755H1376.52V895.995H1379.84V895.234H1383.16V894.474H1386.48V893.713H1389.14V892.953H1392.46V892.193H1395.78V891.432H1399.1V890.672H1402.42V889.912H1405.07V889.151H1408.39V888.391H1411.71V887.63H1414.37V886.87H1417.69V886.11H1421.01V885.349H1424.33V884.589H1426.99V883.828H1430.31V883.068H1433.63V882.308H1436.28V881.547H1439.6V880.787H1442.26V880.026H1445.58V879.266H1448.9V878.506H1451.55V877.745H1454.87V876.985H1457.53V876.224H1460.85V875.464H1464.17V874.704H1466.83V873.943H1470.15V873.183H1472.8V872.422H1476.12V871.662H1478.78V870.902H1482.1V870.141H1484.76V869.381H1488.08V868.62H1490.73V867.86H1494.05V867.1H1496.71V866.339H1500.03V865.579H1502.68V864.818H1506V864.058H1508.66V863.298H1511.98V862.537H1514.64V861.777H1517.96V861.017H1520.61V860.256H1523.93V859.496H1526.59V858.735H1529.91V857.975H1532.57V857.215H1535.89V856.454H1538.54V855.694H1541.2V854.933H1544.52V854.173H1547.17V853.413H1550.49V852.652H1553.15V851.892H1556.47V851.131H1559.13V850.371H1562.45V849.611H1565.1V848.85H1567.76V848.09H1571.08V847.329H1573.73V846.569H1577.05V845.809H1579.71V845.048H1583.03V844.288H1585.69V843.527H1589.01V842.767H1591.66V842.007H1594.32V841.246H1597.64V840.486H1600.3V839.725H1603.62V838.965H1606.27V838.205H1609.59V837.444H1612.25V836.684H1615.57V835.923H1618.22V835.163H1621.54V834.403H1624.2V833.642H1627.52V832.882H1630.18V832.122H1633.5V831.361H1636.15V830.601H1639.47V829.84H1642.13V829.08H1645.45V828.32H1648.11V827.559H1651.43V826.799H1654.08V826.038H1657.4V825.278H1660.06V824.518H1663.38V823.757H1666.03V822.997H1669.35V822.236H1672.01V821.476H1675.33V820.716H1678.65V819.955H1681.31V819.195H1684.63V818.434H1687.28V817.674H1690.6V816.914H1693.92V816.153H1696.58V815.393H1699.9V814.632H1703.22V813.872H1705.88V813.112H1709.2V812.351H1712.52V811.591H1715.17V810.83H1718.49V810.07H1721.81V809.31H1724.47V808.549H1727.79V807.789H1731.11V807.029H1734.43V806.268H1737.75V805.508H1740.4V804.747H1743.72V803.987H1747.04V803.227H1750.36V802.466H1753.69V801.706H1757V800.945H1760.33V800.185H1763.65V799.425H1766.97V798.664H1770.29V797.904H1773.61V797.143H1776.93V796.383H1780.25V795.623H1783.57V794.862H1786.89V794.102H1790.21V793.341H1794.19V792.581H1797.51V791.821H1800.83V791.06H1804.15V790.3H1808.13V789.539H1811.45V788.779H1814.77V788.019H1818.76V787.258H1822.08V786.498H1826.06V785.737H1829.38V784.977H1833.37V784.217H1837.35V783.456H1840.67V782.696H1842V784.217H1839.34V784.977H1837.35V785.737H1835.36V786.498H1832.7V787.258H1830.71V788.019H1828.06V788.779H1826.06V789.539H1824.07V790.3H1821.42V791.06H1819.42V791.821H1816.77V792.581H1814.77V793.341H1812.78V794.102H1810.13V794.862H1808.13V795.623H1805.48V796.383H1803.49V797.143H1800.83V797.904H1798.84V798.664H1796.85V799.425H1794.19V800.185H1792.2V800.945H1789.54V801.706H1787.55V802.466H1785.56V803.227H1782.9V803.987H1780.91V804.747H1778.25V805.508H1776.26V806.268H1773.61V807.029H1771.61V807.789H1769.62V808.549H1766.97V809.31H1764.97V810.07H1762.32V810.83H1760.33V811.591H1757.67V812.351H1755.68V813.112H1753.69V813.872H1751.03V814.632H1749.04V815.393H1746.38V816.153H1744.39V816.914H1741.73V817.674H1739.74V818.434H1737.75V819.195H1735.09V819.955H1733.1V820.716H1730.44V821.476H1728.45V822.236H1725.8V822.997H1723.8V823.757H1721.15V824.518H1719.16V825.278H1717.16V826.038H1714.51V826.799H1712.52V827.559H1709.86V828.32H1707.87V829.08H1705.21V829.84H1703.22V830.601H1700.56V831.361H1698.57V832.122H1696.58V832.882H1693.92V833.642H1691.93V834.403H1689.27V835.163H1687.28V835.923H1684.63V836.684H1682.63V837.444H1679.98V838.205H1677.99V838.965H1675.33V839.725H1673.34V840.486H1671.35V841.246H1668.69V842.007H1666.7V842.767H1664.04V843.527H1662.05V844.288H1659.39V845.048H1657.4V845.809H1654.75V846.569H1652.75V847.329H1650.1V848.09H1648.11V848.85H1645.45V849.611H1643.46V850.371H1641.47V851.131H1638.81V851.892H1636.82V852.652H1634.16V853.413H1632.17V854.173H1629.51V854.933H1627.52V855.694H1624.86V856.454H1622.87V857.215H1620.22V857.975H1618.22V858.735H1615.57V859.496H1613.58V860.256H1610.92V861.017H1608.93V861.777H1606.27V862.537H1604.28V863.298H1602.29V864.058H1599.63V864.818H1597.64V865.579H1594.98V866.339H1592.99V867.1H1590.34V867.86H1588.34V868.62H1585.69V869.381H1583.7V870.141H1581.04V870.902H1579.05V871.662H1576.39V872.422H1574.4V873.183H1571.74V873.943H1569.75V874.704H1567.09V875.464H1565.1V876.224H1562.45V876.985H1560.45V877.745H1557.8V878.506H1555.81V879.266H1553.15V880.026H1551.16V880.787H1548.5V881.547H1546.51V882.308H1543.85V883.068H1541.86V883.828H1539.21V884.589H1537.21V885.349H1534.56V886.11H1532.57V886.87H1529.91V887.63H1527.92V888.391H1525.26V889.151H1523.27V889.912H1520.61V890.672H1518.62V891.432H1515.96V892.193H1513.97V892.953H1511.32V893.713H1509.32V894.474H1506.67V895.234H1504.68V895.995H1502.02V896.755H1500.03V897.515H1497.37V898.276H1495.38V899.036H1492.72V899.797H1490.07V900.557H1488.08V901.317H1485.42V902.078H1483.43V902.838H1480.77V903.599H1478.78V904.359H1476.12V905.119H1474.13V905.88H1471.48V906.64H1469.48V907.401H1466.83V908.161H1464.83V908.921H1462.18V909.682H1460.19V910.442H1457.53V911.203H1455.54V911.963H1452.88V912.723H1450.23V913.484H1448.23V914.244H1445.58V915.005H1443.59V915.765H1440.93V916.525H1438.94V917.286H1436.28V918.046H1434.29V918.806H1431.63V919.567H1429.64V920.327H1426.99V921.088H1424.33V921.848H1422.34V922.608H1419.68V923.369H1417.69V924.129H1415.03V924.89H1413.04V925.65H1410.39V926.41H1408.39V927.171H1405.74V927.931H1403.08V928.692H1401.09V929.452H1398.43V930.212H1396.44V930.973H1393.78V931.733H1391.13V932.494H1389.14V933.254H1386.48V934.014H1384.49V934.775H1381.83V935.535H1379.84V936.296H1377.18V937.056H1374.53V937.816H1372.54V938.577H1369.88V939.337H1367.89V940.098H1365.23V940.858H1363.24V941.618H1360.58V942.379H1357.93V943.139H1355.94V943.9H1353.28V944.66H1351.29V945.42H1348.63V946.181H1345.97V946.941H1343.98V947.701H1341.33V948.462H1339.33V949.222H1336.68V949.983H1334.02V950.743H1332.03V951.503H1329.37V952.264H1326.72V953.024H1324.73V953.785H1322.07V954.545H1320.08V955.305H1317.42V956.066H1314.77V956.826H1312.77V957.587H1310.12V958.347H1307.46V959.107H1305.47V959.868H1302.81V960.628H1300.82V961.389H1298.17V962.149H1295.51V962.909H1293.52V963.67H1290.86V964.43H1288.2V965.191H1286.21V965.951H1283.56V966.711H1280.9V967.472H1278.91V968.232H1276.25V968.993H1273.6V969.753H1271.6V970.513H1268.95V971.274H1266.29V972.034H1264.3V972.795H1261.64V973.555H1258.99V974.315H1257V975.076H1254.34V975.836H1251.68V976.596H1249.69V977.357H1247.04V978.117H1244.38V978.878H1242.39V979.638H1239.73V980.398H1237.07V981.159H1234.42V981.919H1232.43V982.68H1229.77V983.44H1227.11V984.2H1225.12V984.961H1222.47V985.721H1219.81V986.482H1217.15V987.242H1215.16V988.002H1212.51V988.763H1209.85V989.523H1207.19V990.284H1205.2V991.044H1202.55V991.804H1199.89V992.565H1197.23V993.325H1195.24V994.086H1192.59V994.846H1189.93V995.606H1187.27V996.367H1185.28V997.127H1182.63V997.888H1179.97V998.648H1177.31V999.408H1174.66V1000.17H1172.66V1000.93H1170.01V1001.69H1167.35V1002.45H1164.7V1003.21H1162.04V1003.97H1160.05V1004.73H1157.39V1005.49H1154.74V1006.25H1152.08V1007.01H1149.42V1007.77H1146.77V1008.53H1144.11V1009.29H1142.12V1010.05H1139.46V1010.81H1136.81V1011.57H1134.15V1012.34H1131.5V1013.1H1128.84V1013.86H1126.18V1014.62H1123.53V1015.38H1120.87V1016.14H1118.21V1016.9H1115.56V1017.66H1113.57V1018.42H1110.91V1019.18H1108.25V1019.94H1105.6V1020.7H1102.94V1021.46H1100.29V1022.22H1097.63V1022.98H1094.97V1023.74H1091.65V1024.5H1089V1025.26H1086.34V1026.02H1083.69V1026.78H1081.03V1027.54H1078.37V1028.3H1075.72V1029.06H1073.06V1029.82H1070.41V1030.58H1067.09V1031.34H1064.43V1032.11H1061.77V1032.87H1059.12V1033.63H1056.46V1034.39H1053.14V1035.15H1050.48V1035.91H1047.16V1036.67H1044.51V1037.43H1041.85V1038.19H1038.53V1038.95H1035.88V1039.71H1032.56V1040.47H1029.9V1041.23H1026.58V1041.99H1023.26V1042.75H1020.6V1043.51H1017.28V1044.27H1013.96V1045.03H1011.31V1045.79H1007.99V1046.55H1004.67V1047.31H1001.35V1048.07H998.027V1048.83H994.707V1049.59H992.05V1050.35H988.066V1051.12H984.746V1051.88H981.426V1052.64H978.106V1053.4H974.786V1054.16H971.466V1054.92H967.482V1055.68H963.497V1056.44H960.177V1057.2H956.193V1057.96H952.873V1058.72H948.889V1059.48H944.241V1060.24H940.257V1061H936.273V1061.76H931.624V1062.52H926.976V1063.28H922.328V1064.04H917.016V1064.8H912.368V1065.56H906.392V1066.32H900.415V1067.08H894.439V1067.84H886.471V1068.6H877.838V1069.36H865.886V1070.12H816.748ZM944.241 911.203V910.442H930.296V909.682H922.328V908.921H915.024V908.161H908.384V907.401H903.735V906.64H899.087V905.88H894.439V905.119H889.791V904.359H886.471V903.599H883.151V902.838H879.831V902.078H875.846V901.317H872.526V900.557H869.206V899.797H866.55V899.036H863.894V898.276H861.238V897.515H859.246V896.755H856.59V895.995H853.934V895.234H851.278V894.474H848.621V893.713H846.629V892.953H844.637V892.193H842.645V891.432H839.989V890.672H837.997V889.912H836.005V889.151H834.013V888.391H832.021V887.63H830.029V886.87H828.037V886.11H826.045V885.349H824.717V884.589H822.725V883.828H821.397V883.068H819.405V882.308H817.412V881.547H816.084V880.787H814.092V880.026H812.764V879.266H811.436V878.506H810.772V877.745H812.1V878.506H814.092V879.266H816.084V880.026H818.076V880.787H820.733V881.547H823.389V882.308H826.045V883.068H828.701V883.828H831.357V884.589H834.677V885.349H838.661V886.11H841.981V886.87H845.965V887.63H849.95V888.391H853.934V889.151H858.582V889.912H866.55V890.672H873.854V891.432H911.704V890.672H921V889.912H928.968V889.151H933.616V888.391H938.265V887.63H942.913V886.87H947.561V886.11H951.545V885.349H954.865V884.589H958.185V883.828H960.841V883.068H964.162V882.308H967.482V881.547H970.802V880.787H973.458V880.026H976.114V879.266H978.77V878.506H980.762V877.745H983.418V876.985H986.074V876.224H988.066V875.464H990.722V874.704H992.715V873.943H995.371V873.183H998.027V872.422H1000.02V871.662H1002.01V870.902H1004V870.141H1005.33V869.381H1007.32V868.62H1009.32V867.86H1011.31V867.1H1013.3V866.339H1015.29V865.579H1017.28V864.818H1019.28V864.058H1021.27V863.298H1022.6V862.537H1024.59V861.777H1025.92V861.017H1027.91V860.256H1029.24V859.496H1031.23V858.735H1032.56V857.975H1033.88V857.215H1035.88V856.454H1037.2V855.694H1039.2V854.933H1040.52V854.173H1042.52V853.413H1043.84V852.652H1045.84V851.892H1047.16V851.131H1048.49V850.371H1049.82V849.611H1051.15V848.85H1052.48V848.09H1053.8V847.329H1055.13V846.569H1056.46V845.809H1058.45V845.048H1059.78V844.288H1061.11V843.527H1062.44V842.767H1063.77V842.007H1065.09V841.246H1066.42V840.486H1067.75V839.725H1069.08V838.965H1070.41V838.205H1071.73V837.444H1073.06V836.684H1074.39V835.923H1075.05V835.163H1076.38V834.403H1077.71V833.642H1079.04V832.882H1080.37V832.122H1081.69V831.361H1082.36V830.601H1083.69V829.84H1085.01V829.08H1086.34V828.32H1087.67V827.559H1089V826.799H1089.66V826.038H1090.99V825.278H1092.32V824.518H1093.65V823.757H1094.31V822.997H1095.64V822.236H1096.97V821.476H1097.63V820.716H1098.96V819.955H1099.62V819.195H1100.95V818.434H1102.28V817.674H1102.94V816.914H1104.27V816.153H1105.6V815.393H1106.26V814.632H1107.59V813.872H1108.25V813.112H1109.58V812.351H1110.91V811.591H1111.57V810.83H1112.9V810.07H1114.23V809.31H1114.89V808.549H1115.56V807.789H1116.89V807.029H1117.55V806.268H1118.88V805.508H1119.54V804.747H1120.87V803.987H1121.54V803.227H1122.86V802.466H1123.53V801.706H1124.19V800.945H1125.52V800.185H1126.18V799.425H1127.51V798.664H1128.18V797.904H1129.5V797.143H1130.17V796.383H1131.5V795.623H1132.16V794.862H1133.49V794.102H1134.15V793.341H1134.82V792.581H1136.14V791.821H1136.81V791.06H1137.47V790.3H1138.8V789.539H1139.46V788.779H1140.13V788.019H1141.46V787.258H1142.12V786.498H1142.78V785.737H1143.45V784.977H1144.78V784.217H1145.44V783.456H1146.1V782.696H1147.43V781.935H1148.1V781.175H1148.76V780.415H1150.09V779.654H1150.75V778.894H1151.42V778.134H1152.08V777.373H1153.41V776.613H1154.07V775.852H1154.74V775.092H1156.06V774.332H1156.73V773.571H1157.39V772.811H1158.06V772.05H1158.72V771.29H1160.05V770.53H1160.71V769.769H1161.38V769.009H1162.04V768.248H1162.7V767.488H1163.37V766.728H1164.7V765.967H1165.36V765.207H1166.02V764.446H1166.69V763.686H1167.35V762.926H1168.02V762.165H1169.34V761.405H1170.01V760.644H1170.67V759.884H1171.34V759.124H1172V758.363H1172.66V757.603H1173.99V756.842H1174.66V756.082H1175.32V755.322H1175.98V754.561H1176.65V753.801H1177.31V753.04H1177.98V752.28H1178.64V751.52H1179.3V750.759H1179.97V749.999H1180.63V749.239H1181.96V748.478H1182.63V747.718H1183.29V746.957H1183.95V746.197H1184.62V745.437H1185.28V744.676H1185.95V743.916H1186.61V743.155H1187.27V742.395H1187.94V741.635H1188.6V740.874H1189.27V740.114H1189.93V739.353H1190.59V738.593H1191.26V737.833H1191.92V737.072H1192.59V736.312H1193.25V735.551H1193.91V734.791H1194.58V734.031H1195.24V733.27H1195.91V732.51H1196.57V731.749H1197.23V730.989H1197.9V730.229H1198.56V729.468H1199.23V728.708H1199.89V727.947H1200.55V727.187H1201.22V726.427H1201.88V725.666H1202.55V724.906H1203.21V724.145H1203.87V723.385H1204.54V722.625H1205.2V721.864H1205.87V720.344H1206.53V719.583H1207.19V718.823H1207.86V718.062H1208.52V717.302H1209.19V716.542H1209.85V715.781H1210.51V715.021H1211.18V714.26H1211.84V713.5H1212.51V712.74H1213.17V711.979H1213.83V710.458H1214.5V709.698H1215.16V708.938H1215.83V708.177H1216.49V707.417H1217.15V706.656H1217.82V705.136H1218.48V704.375H1219.15V703.615H1219.81V702.854H1220.47V702.094H1221.14V700.573H1221.8V699.813H1222.47V699.052H1223.13V698.292H1223.79V697.532H1224.46V696.771H1225.12V695.251H1225.79V694.49H1226.45V693.73H1227.11V692.969H1227.78V692.209H1228.44V690.688H1229.11V689.928H1229.77V689.167H1230.43V688.407H1231.1V686.886H1231.76V686.126H1232.43V685.365H1233.09V683.845H1233.75V683.084H1234.42V682.324H1235.08V680.803H1235.75V680.043H1236.41V679.282H1237.07V677.761H1237.74V677.001H1238.4V676.241H1239.07V674.72H1239.73V673.959H1240.4V673.199H1241.06V671.678H1241.72V670.918H1242.39V670.157H1243.05V668.637H1243.72V667.876H1244.38V667.116H1245.04V665.595H1245.71V664.835H1246.37V663.314H1247.04V662.554H1247.7V661.033H1248.36V660.272H1249.03V658.752H1249.69V657.231H1250.36V656.47H1251.02V654.95H1251.68V654.189H1252.35V652.668H1253.01V651.908H1253.68V650.387H1254.34V649.627H1255V648.106H1255.67V647.346H1256.33V645.825H1257V645.064H1257.66V643.544H1258.32V642.783H1258.99V641.263H1259.65V639.742H1260.32V638.981H1260.98V637.461H1261.64V635.94H1262.31V634.419H1262.97V633.659H1263.64V632.138H1264.3V630.617H1264.96V629.096H1265.63V628.336H1266.29V626.815H1266.96V625.294H1267.62V624.534H1268.28V623.013H1268.95V621.492H1269.61V619.971H1270.28V619.211H1270.94V617.69H1271.6V616.169H1272.27V614.649H1272.93V613.128H1273.6V611.607H1274.26V610.086H1274.92V608.566H1275.59V607.045H1276.25V605.524H1276.92V604.003H1277.58V602.482H1278.24V600.201H1278.91V598.68H1279.57V597.16H1280.24V595.639H1280.9V594.118H1281.56V592.597H1282.23V591.076H1282.89V589.556H1283.56V587.274H1284.22V585.754H1284.88V583.473H1285.55V581.952H1286.21V579.671H1286.88V578.15H1287.54V576.629H1288.2V574.348H1288.87V572.827H1289.53V570.546H1290.2V569.025H1290.86V566.744H1291.52V565.223H1292.19V562.942H1292.85V560.661H1293.52V558.38H1294.18V556.098H1294.84V553.057H1295.51V550.776H1296.17V548.494H1296.84V546.213H1297.5V543.932H1298.17V541.651H1298.83V539.37H1299.49V536.328H1300.16V533.286H1300.82V530.245H1301.49V527.203H1302.15V524.162H1302.81V521.12H1303.48V517.318H1304.14V514.277H1304.81V511.235H1305.47V506.673H1306.13V502.11H1306.8V497.548H1307.46V492.225H1308.13V487.663H1308.79V482.34H1309.45V471.695H1310.12V461.049H1310.78V430.633H1310.12V420.748H1309.45V413.905H1308.79V407.061H1308.13V400.217H1307.46V395.655H1306.8V391.853H1306.13V388.051H1305.47V384.249H1304.81V380.447H1304.14V377.406H1303.48V373.604H1302.81V369.802H1302.15V367.52H1301.49V364.479H1300.82V362.198H1300.16V359.156H1299.49V356.875H1298.83V353.833H1298.17V351.552H1297.5V348.511H1296.84V346.229H1296.17V344.709H1295.51V342.427H1294.84V340.907H1294.18V338.625H1293.52V337.105H1292.85V335.584H1292.19V334.824H1291.52V333.303H1290.86V331.782H1290.2V330.261H1289.53V328.74H1288.87V327.22H1288.2V325.699H1287.54V324.178H1286.88V322.657H1286.21V321.897H1285.55V320.376H1284.88V318.855H1284.22V318.095H1283.56V316.574H1282.89V315.053H1282.23V313.532H1281.56V312.772H1280.9V311.251H1280.24V309.73H1279.57V308.97H1278.91V307.449H1278.24V305.929H1277.58V305.168H1276.92V303.647H1276.25V302.127H1275.59V301.366H1274.92V299.845H1274.26V299.085H1273.6V297.564H1272.93V296.804H1272.27V295.283H1271.6V294.523H1270.94V293.002H1270.28V292.241H1269.61V290.721H1268.95V289.96H1268.28V288.439H1267.62V287.679H1266.96V286.158H1266.29V285.398H1265.63V284.638H1264.96V283.117H1264.3V282.356H1263.64V281.596H1262.97V280.836H1262.31V279.315H1261.64V278.554H1260.98V277.794H1260.32V276.273H1259.65V275.513H1258.99V274.752H1258.32V273.232H1257.66V272.471H1257V271.711H1256.33V270.19H1255.67V269.43H1255V268.669H1254.34V267.909H1253.68V266.388H1253.01V265.628H1252.35V264.867H1251.68V264.107H1251.02V263.346H1250.36V262.586H1249.69V261.065H1249.03V260.305H1248.36V259.544H1247.7V258.784H1247.04V258.024H1246.37V257.263H1245.71V255.743H1245.04V254.982H1244.38V254.222H1243.72V253.461H1243.05V252.701H1242.39V251.941H1241.72V251.18H1241.06V250.42H1240.4V249.659H1239.73V248.899H1239.07V248.139H1238.4V247.378H1237.74V246.618H1237.07V245.857H1236.41V244.337H1235.75V243.576H1235.08V242.816H1234.42V242.055H1233.75V241.295H1233.09V240.535H1232.43V239.774H1231.76V239.014H1231.1V238.253H1230.43V237.493H1229.77V236.733H1229.11V235.972H1227.78V235.212H1227.11V234.451H1226.45V233.691H1225.79V232.931H1225.12V232.17H1224.46V231.41H1223.79V230.649H1223.13V229.889H1222.47V229.129H1221.8V228.368H1221.14V227.608H1220.47V226.847H1219.81V226.087H1218.48V225.327H1217.82V224.566H1217.15V223.806H1216.49V223.046H1215.83V222.285H1214.5V221.525H1213.83V220.764H1213.17V220.004H1212.51V219.244H1211.84V218.483H1210.51V217.723H1209.85V216.962H1209.19V216.202H1208.52V215.442H1207.86V214.681H1206.53V213.921H1205.87V213.16H1205.2V212.4H1204.54V211.64H1203.21V210.879H1202.55V210.119H1201.88V209.358H1200.55V208.598H1199.89V207.838H1199.23V207.077H1197.9V206.317H1197.23V205.556H1195.91V204.796H1195.24V204.036H1194.58V203.275H1193.25V202.515H1192.59V201.754H1191.92V200.994H1190.59V200.234H1189.93V199.473H1188.6V198.713H1187.94V197.952H1186.61V197.192H1185.95V196.432H1184.62V195.671H1183.95V194.911H1182.63V194.151H1181.96V193.39H1180.63V192.63H1179.97V191.869H1178.64V191.109H1177.98V190.349H1176.65V189.588H1175.32V188.828H1174.66V188.067H1173.33V187.307H1172V186.547H1170.67V185.786H1170.01V185.026H1168.68V184.265H1167.35V183.505H1166.69V182.745H1165.36V181.984H1164.03V181.224H1163.37V180.463H1162.04V179.703H1160.71V178.943H1159.38V178.182H1158.06V177.422H1156.73V176.661H1155.4V175.901H1154.07V175.141H1153.41V174.38H1152.08V173.62H1150.75V172.859H1149.42V172.099H1148.1V171.339H1146.77V170.578H1145.44V169.818H1144.11V169.057H1142.78V168.297H1140.79V167.537H1139.46V166.776H1138.14V166.016H1136.81V165.256H1135.48V164.495H1134.15V163.735H1132.82V162.974H1130.83V162.214H1129.5V161.454H1128.18V160.693H1126.18V159.933H1124.86V159.172H1122.86V158.412H1121.54V157.652H1119.54V156.891H1118.21V156.131H1116.89V155.37H1114.89V154.61H1113.57V153.85H1111.57V153.089H1109.58V152.329H1107.59V151.568H1106.26V150.808H1104.27V150.048H1102.28V149.287H1100.29V148.527H1098.29V147.766H1096.97V147.006H1094.97V146.246H1092.32V145.485H1090.33V144.725H1088.33V143.965H1086.34V143.204H1084.35V142.444H1082.36V141.683H1079.7V140.923H1077.71V140.163H1075.05V139.402H1073.06V138.642H1070.41V137.881H1067.75V137.121H1065.76V136.361H1063.1V135.6H1060.44V134.84H1057.79V134.079H1055.13V133.319H1051.81V132.559H1049.16V131.798H1046.5V131.038H1043.84V130.277H1040.52V129.517H1037.2V128.757H1033.88V127.996H1030.56V127.236H1027.24V126.475H1023.92V125.715H1019.94V124.955H1015.96V124.194H1011.97V123.434H1007.32V122.674H1003.34V121.913H998.691V121.153H993.379V120.392H988.73V119.632H983.418V118.871H977.442V118.111H970.802V117.351H964.162V116.59H956.193V115.83H947.561V115.07H937.601V114.309H924.984V113.549H904.399V112.788H857.918V113.549H836.669V114.309H822.725V115.07H810.108V115.83H800.148V116.59H790.187V117.351H782.219V118.111H773.587V118.871H766.283V119.632H758.978V120.392H752.338V121.153H745.034V121.913H739.058V122.674H733.081V123.434H727.105V124.194H720.465V124.955H715.153V125.715H709.841V126.475H704.528V127.236H699.216V127.996H693.904V128.757H688.592V129.517H683.944V130.277H678.632V131.038H673.983V131.798H669.335V132.559H664.687V133.319H660.039V134.079H655.391V134.84H650.743V135.6H646.758V136.361H642.11V137.121H638.126V137.881H633.478V138.642H629.494V139.402H624.846V140.163H620.862V140.923H616.877V141.683H612.893V142.444H608.909V143.204H604.925V143.965H600.941V144.725H596.957V145.485H592.973V146.246H588.988V147.006H585.668V147.766H581.684V148.527H577.7V149.287H573.716V150.048H570.396V150.808H566.412V151.568H563.092V152.329H559.107V153.089H555.787V153.85H551.803V154.61H548.483V155.37H544.499V156.131H541.179V156.891H537.859V157.652H533.875V158.412H530.554V159.172H527.234V159.933H523.914V160.693H520.594V161.454H516.61V162.214H513.29V162.974H509.97V163.735H506.65V164.495H503.329V165.256H500.009V166.016H496.689V166.776H493.369V167.537H490.049V168.297H486.729V169.057H483.409V169.818H480.089V170.578H476.769V171.339H473.448V172.099H470.128V172.859H466.808V173.62H463.488V174.38H460.168V175.141H457.512V175.901H454.192V176.661H450.872V177.422H447.552V178.182H444.231V178.943H441.575V179.703H438.255V180.463H434.935V181.224H431.615V181.984H428.959V182.745H425.639V183.505H422.319V184.265H419.663V185.026H416.342V185.786H413.022V186.547H410.366V187.307H407.046V188.067H403.726V188.828H401.07V189.588H397.75V190.349H395.094V191.109H391.774V191.869H388.454V192.63H385.797V193.39H382.477V194.151H379.821V194.911H376.501V195.671H373.181V196.432H370.525V197.192H367.205V197.952H364.549V198.713H361.229V199.473H358.572V200.234H355.252V200.994H352.596V201.754H349.276V202.515H346.62V203.275H343.3V204.036H340.644V204.796H337.324V205.556H334.668V206.317H331.348V207.077H328.691V207.838H325.371V208.598H322.715V209.358H319.395V210.119H316.739V210.879H313.419V211.64H310.763V212.4H308.107V213.16H304.787V213.921H302.13V214.681H298.81V215.442H296.154V216.202H292.834V216.962H290.178V217.723H286.858V218.483H284.202V219.244H280.882V220.004H278.226V220.764H275.57V221.525H272.249V222.285H269.593V223.046H266.273V223.806H263.617V224.566H260.297V225.327H257.641V226.087H254.321V226.847H251.665V227.608H249.009V228.368H245.689V229.129H243.032V229.889H239.712V230.649H237.056V231.41H233.736V232.17H231.08V232.931H227.76V233.691H225.104V234.451H221.784V235.212H219.128V235.972H215.808V236.733H213.151V237.493H210.495V238.253H207.175V239.014H204.519V239.774H201.199V240.535H198.543V241.295H195.223V242.055H192.567V242.816H189.247V243.576H185.926V244.337H183.27V245.097H179.95V245.857H177.294V246.618H173.974V247.378H171.318V248.139H167.998V248.899H165.342V249.659H162.022V250.42H158.702V251.18H156.045V251.941H152.725V252.701H150.069V253.461H146.749V254.222H143.429V254.982H140.773V255.743H137.453V256.503H134.133V257.263H131.477V258.024H128.156V258.784H124.836V259.544H121.516V260.305H118.86V261.065H115.54V261.826H112.22V262.586H109.564V263.346H106.244V264.107H102.924V264.867H99.6035V265.628H96.2833V266.388H92.9632V267.148H89.6431V267.909H86.987V268.669H83.6669V269.43H80.3468V270.19H77.0267V270.95H73.7066V271.711H70.3864V272.471H67.0663V273.232H63.7462V273.992H59.7621V274.752H56.442V275.513H53.1218V276.273H49.8017V277.034H46.4816V277.794H43.1615V278.554H39.1774V279.315H35.8572V280.075H31.8731V280.836H28.553V281.596H25.2329V282.356H21.2487V283.117H17.9286V283.877H13.9445V284.638H10.6244V285.398H6.64023V286.158H2.65609V286.919H0V286.158H1.32805V285.398H3.32012V284.638H5.97621V283.877H7.96828V283.117H9.96035V282.356H12.6164V281.596H14.6085V280.836H17.2646V280.075H19.2567V279.315H21.2487V278.554H23.9048V277.794H25.8969V277.034H28.553V276.273H30.5451V275.513H32.5371V274.752H35.1932V273.992H37.1853V273.232H39.8414V272.471H41.8335V271.711H43.8255V270.95H46.4816V270.19H48.4737V269.43H51.1298V268.669H53.1218V267.909H55.7779V267.148H57.77V266.388H59.7621V265.628H62.4182V264.867H64.4102V264.107H67.0663V263.346H69.0584V262.586H71.7145V261.826H73.7066V261.065H75.6986V260.305H78.3547V259.544H80.3468V258.784H83.0029V258.024H84.995V257.263H87.651V256.503H89.6431V255.743H91.6352V254.982H94.2913V254.222H96.2833V253.461H98.9394V252.701H100.932V251.941H103.588V251.18H105.58V250.42H107.572V249.659H110.228V248.899H112.22V248.139H114.876V247.378H116.868V246.618H119.524V245.857H121.516V245.097H124.172V244.337H126.164V243.576H128.156V242.816H130.813V242.055H132.805V241.295H135.461V240.535H137.453V239.774H140.109V239.014H142.101V238.253H144.757V237.493H146.749V236.733H148.741V235.972H151.397V235.212H153.389V234.451H156.045V233.691H158.037V232.931H160.694V232.17H162.686V231.41H165.342V230.649H167.334V229.889H169.99V229.129H171.982V228.368H173.974V227.608H176.63V226.847H178.622V226.087H181.278V225.327H183.27V224.566H185.926V223.806H187.919V223.046H190.575V222.285H192.567V221.525H195.223V220.764H197.215V220.004H199.871V219.244H201.863V218.483H203.855V217.723H206.511V216.962H208.503V216.202H211.159V215.442H213.151V214.681H215.808V213.921H217.8V213.16H220.456V212.4H222.448V211.64H225.104V210.879H227.096V210.119H229.752V209.358H231.744V208.598H234.4V207.838H236.392V207.077H239.048V206.317H241.04V205.556H243.696V204.796H245.689V204.036H248.345V203.275H250.337V202.515H252.329V201.754H254.985V200.994H256.977V200.234H259.633V199.473H261.625V198.713H264.281V197.952H266.273V197.192H268.929V196.432H270.921V195.671H273.577V194.911H275.57V194.151H278.226V193.39H280.218V192.63H282.874V191.869H284.866V191.109H287.522V190.349H289.514V189.588H292.17V188.828H294.162V188.067H296.818V187.307H298.81V186.547H301.466V185.786H303.459V185.026H306.115V184.265H308.107V183.505H310.763V182.745H312.755V181.984H315.411V181.224H317.403V180.463H320.059V179.703H322.051V178.943H324.707V178.182H326.699V177.422H329.355V176.661H331.348V175.901H334.004V175.141H335.996V174.38H338.652V173.62H341.308V172.859H343.3V172.099H345.956V171.339H347.948V170.578H350.604V169.818H352.596V169.057H355.252V168.297H357.244V167.537H359.901V166.776H361.893V166.016H364.549V165.256H366.541V164.495H369.197V163.735H371.189V162.974H373.845V162.214H375.837V161.454H378.493V160.693H380.485V159.933H383.141V159.172H385.797V158.412H387.789V157.652H390.446V156.891H392.438V156.131H395.094V155.37H397.086V154.61H399.742V153.85H401.734V153.089H404.39V152.329H406.382V151.568H409.038V150.808H411.694V150.048H413.686V149.287H416.342V148.527H418.335V147.766H420.991V147.006H422.983V146.246H425.639V145.485H427.631V144.725H430.287V143.965H432.943V143.204H434.935V142.444H437.591V141.683H439.583V140.923H442.239V140.163H444.231V139.402H446.888V138.642H449.544V137.881H451.536V137.121H454.192V136.361H456.184V135.6H458.84V134.84H460.832V134.079H463.488V133.319H466.144V132.559H468.136V131.798H470.792V131.038H472.784V130.277H475.441V129.517H478.097V128.757H480.089V127.996H482.745V127.236H484.737V126.475H487.393V125.715H489.385V124.955H492.041V124.194H494.697V123.434H496.689V122.674H499.345V121.913H501.337V121.153H503.993V120.392H506.65V119.632H508.642V118.871H511.298V118.111H513.954V117.351H515.946V116.59H518.602V115.83H520.594V115.07H523.25V114.309H525.906V113.549H527.898V112.788H530.554V112.028H533.21V111.268H535.203V110.507H537.859V109.747H539.851V108.986H542.507V108.226H545.163V107.466H547.155V106.705H549.811V105.945H552.467V105.184H554.459V104.424H557.115V103.664H559.771V102.903H561.763V102.143H564.42V101.382H567.076V100.622H569.068V99.8616H571.724V99.1012H574.38V98.3408H576.372V97.5805H579.028V96.82H581.684V96.0597H583.676V95.2993H586.332V94.5389H588.988V93.7785H590.981V93.0181H593.637V92.2576H596.293V91.4973H598.285V90.7369H600.941V89.9765H603.597V89.2161H606.253V88.4557H608.245V87.6953H610.901V86.9349H613.557V86.1745H615.549V85.4142H618.205V84.6537H620.862V83.8933H623.518V83.133H625.51V82.3725H628.166V81.6122H630.822V80.8517H632.814V80.0914H635.47V79.331H638.126V78.5706H640.782V77.8102H643.438V77.0498H645.43V76.2894H648.086V75.5291H650.743V74.7686H653.399V74.0082H655.391V73.2478H658.047V72.4874H660.703V71.727H663.359V70.9666H665.351V70.2062H668.007V69.4459H670.663V68.6855H673.319V67.9251H675.975V67.1647H678.632V66.4043H680.624V65.6439H683.28V64.8834H685.936V64.1231H688.592V63.3626H691.248V62.6023H693.904V61.8419H695.896V61.0815H698.552V60.3211H701.208V59.5607H703.864V58.8003H706.521V58.04H709.177V57.2795H711.833V56.5192H714.489V55.7588H717.145V54.9983H719.137V54.238H721.793V53.4775H724.449V52.7172H727.105V51.9568H729.761V51.1964H732.417V50.436H735.073V49.6756H737.73V48.9152H740.386V48.1548H743.042V47.3944H745.698V46.634H748.354V45.8736H751.01V45.1132H753.666V44.3528H756.986V43.5925H759.642V42.8321H762.298V42.0717H764.955V41.3112H767.611V40.5509H770.267V39.7904H772.923V39.03H776.243V38.2697H778.899V37.5093H781.555V36.7489H784.211V35.9884H786.867V35.2281H790.187V34.4677H792.844V33.7073H796.164V32.947H798.82V32.1865H801.476V31.4261H804.796V30.6658H807.452V29.9053H810.772V29.1449H814.092V28.3845H816.748V27.6242H820.069V26.8638H822.725V26.1033H826.045V25.3429H829.365V24.5826H832.685V23.8222H835.341V23.0619H838.661V22.3014H841.981V21.541H845.301V20.7806H848.621V20.0201H851.942V19.2598H855.262V18.4994H858.582V17.739H861.902V16.9787H865.222V16.2182H869.206V15.4578H872.526V14.6975H876.51V13.9371H879.831V13.1767H883.815V12.4162H887.135V11.6559H891.119V10.8955H895.103V10.135H899.751V9.37465H903.735V8.61429H907.72V7.85392H912.368V7.09356H917.016V6.33307H922.328V5.5727H926.976V4.81234H932.288V4.05197H938.265V3.2916H944.905V2.53112H950.881V1.77075H959.513V1.01039H968.146V0.249897H1029.9V1.01039H1039.2V1.77075H1046.5V2.53112H1051.81V3.2916H1057.79V4.05197H1063.1V4.81234H1067.09V5.5727H1071.73V6.33307H1075.72V7.09356H1079.7V7.85392H1083.02V8.61429H1086.34V9.37465H1089.66V10.135H1092.98V10.8955H1096.3V11.6559H1099.62V12.4162H1102.28V13.1767H1105.6V13.9371H1108.25V14.6975H1110.91V15.4578H1113.57V16.2182H1116.22V16.9787H1118.88V17.739H1121.54V18.4994H1123.53V19.2598H1126.18V20.0201H1128.18V20.7806H1130.83V21.541H1132.82V22.3014H1134.82V23.0619H1136.81V23.8222H1138.8V24.5826H1140.79V25.3429H1142.78V26.1033H1144.78V26.8638H1146.77V27.6242H1148.76V28.3845H1150.75V29.1449H1152.08V29.9053H1154.07V30.6658H1156.06V31.4261H1158.06V32.1865H1159.38V32.947H1161.38V33.7073H1162.7V34.4677H1164.7V35.2281H1166.02V35.9884H1168.02V36.7489H1170.01V37.5093H1171.34V38.2697H1172.66V39.03H1174.66V39.7904H1175.98V40.5509H1177.31V41.3112H1179.3V42.0717H1180.63V42.8321H1182.63V43.5925H1183.95V44.3528H1185.28V45.1132H1186.61V45.8736H1187.94V46.634H1189.93V47.3944H1191.26V48.1548H1192.59V48.9152H1193.91V49.6756H1195.24V50.436H1197.23V51.1964H1198.56V51.9568H1199.89V52.7172H1201.22V53.4775H1202.55V54.238H1203.87V54.9983H1205.2V55.7588H1206.53V56.5192H1207.86V57.2795H1209.19V58.04H1210.51V58.8003H1211.84V59.5607H1213.17V60.3211H1214.5V61.0815H1215.83V61.8419H1217.15V62.6023H1218.48V63.3626H1219.15V64.1231H1220.47V64.8834H1221.8V65.6439H1223.13V66.4043H1224.46V67.1647H1225.79V67.9251H1227.11V68.6855H1227.78V69.4459H1229.11V70.2062H1230.43V70.9666H1231.76V71.727H1233.09V72.4874H1233.75V73.2478H1235.08V74.0082H1236.41V74.7686H1237.07V75.5291H1238.4V76.2894H1239.73V77.0498H1241.06V77.8102H1241.72V78.5706H1243.05V79.331H1244.38V80.0914H1245.04V80.8517H1246.37V81.6122H1247.7V82.3725H1248.36V83.133H1249.69V83.8933H1250.36V84.6537H1251.68V85.4142H1253.01V86.1745H1253.68V86.9349H1255V87.6953H1255.67V88.4557H1257V89.2161H1258.32V89.9765H1258.99V90.7369H1260.32V91.4973H1260.98V92.2576H1262.31V93.0181H1262.97V93.7785H1264.3V94.5389H1264.96V95.2993H1266.29V96.0597H1266.96V96.82H1268.28V97.5805H1268.95V98.3408H1270.28V99.1012H1270.94V99.8616H1271.6V100.622H1272.93V101.382H1273.6V102.143H1274.92V102.903H1275.59V103.664H1276.92V104.424H1277.58V105.184H1278.91V105.945H1279.57V106.705H1280.24V107.466H1281.56V108.226H1282.23V108.986H1282.89V109.747H1284.22V110.507H1284.88V111.268H1285.55V112.028H1286.88V112.788H1287.54V113.549H1288.2V114.309H1289.53V115.07H1290.2V115.83H1290.86V116.59H1292.19V117.351H1292.85V118.111H1293.52V118.871H1294.84V119.632H1295.51V120.392H1296.17V121.153H1296.84V121.913H1298.17V122.674H1298.83V123.434H1299.49V124.194H1300.16V124.955H1301.49V125.715H1302.15V126.475H1302.81V127.236H1303.48V127.996H1304.14V128.757H1305.47V129.517H1306.13V130.277H1306.8V131.038H1307.46V131.798H1308.79V132.559H1309.45V133.319H1310.12V134.079H1310.78V134.84H1311.45V135.6H1312.11V136.361H1313.44V137.121H1314.1V137.881H1314.77V138.642H1315.43V139.402H1316.09V140.163H1316.76V140.923H1317.42V141.683H1318.09V142.444H1318.75V143.204H1320.08V143.965H1320.74V144.725H1321.41V145.485H1322.07V146.246H1322.73V147.006H1323.4V147.766H1324.06V148.527H1324.73V149.287H1325.39V150.048H1326.05V150.808H1326.72V151.568H1327.38V152.329H1328.71V153.089H1329.37V153.85H1330.04V154.61H1330.7V155.37H1331.37V156.131H1332.03V156.891H1332.69V157.652H1333.36V158.412H1334.02V159.172H1334.69V159.933H1335.35V160.693H1336.01V161.454H1336.68V162.214H1337.34V162.974H1338.01V163.735H1338.67V164.495H1339.33V165.256H1340V166.016H1340.66V166.776H1341.33V167.537H1341.99V169.057H1342.65V169.818H1343.32V170.578H1343.98V171.339H1344.65V172.099H1345.31V172.859H1345.97V173.62H1346.64V174.38H1347.3V175.141H1347.97V175.901H1348.63V177.422H1349.29V178.182H1349.96V178.943H1350.62V179.703H1351.29V180.463H1351.95V181.224H1352.62V181.984H1353.28V182.745H1353.94V183.505H1354.61V185.026H1355.27V185.786H1355.94V186.547H1356.6V187.307H1357.26V188.067H1357.93V189.588H1358.59V190.349H1359.26V191.109H1359.92V191.869H1360.58V193.39H1361.25V194.151H1361.91V194.911H1362.58V195.671H1363.24V196.432H1363.9V197.952H1364.57V198.713H1365.23V199.473H1365.9V200.234H1366.56V201.754H1367.22V202.515H1367.89V203.275H1368.55V204.796H1369.22V205.556H1369.88V206.317H1370.54V207.838H1371.21V208.598H1371.87V209.358H1372.54V210.879H1373.2V211.64H1373.86V213.16H1374.53V213.921H1375.19V214.681H1375.86V216.202H1376.52V216.962H1377.18V218.483H1377.85V219.244H1378.51V220.004H1379.18V221.525H1379.84V222.285H1380.5V223.806H1381.17V224.566H1381.83V226.087H1382.5V226.847H1383.16V228.368H1383.82V229.889H1384.49V230.649H1385.15V232.17H1385.82V232.931H1386.48V234.451H1387.14V235.972H1387.81V236.733H1388.47V238.253H1389.14V239.014H1389.8V240.535H1390.46V241.295H1391.13V242.816H1391.79V244.337H1392.46V245.857H1393.12V247.378H1393.78V248.139H1394.45V249.659H1395.11V251.18H1395.78V252.701H1396.44V254.222H1397.1V255.743H1397.77V256.503H1398.43V258.024H1399.1V259.544H1399.76V261.065H1400.42V262.586H1401.09V264.107H1401.75V264.867H1402.42V267.148H1403.08V268.669H1403.74V270.19H1404.41V271.711H1405.07V273.232H1405.74V275.513H1406.4V277.034H1407.06V278.554H1407.73V280.075H1408.39V281.596H1409.06V283.117H1409.72V285.398H1410.39V286.919H1411.05V288.439H1411.71V290.721H1412.38V293.002H1413.04V294.523H1413.71V296.804H1414.37V299.085H1415.03V300.606H1415.7V302.887H1416.36V305.168H1417.03V306.689H1417.69V308.97H1418.35V311.251H1419.02V313.532H1419.68V315.814H1420.35V318.095H1421.01V321.136H1421.67V323.418H1422.34V326.459H1423V328.74H1423.67V331.022H1424.33V334.063H1424.99V336.344H1425.66V340.146H1426.32V343.188H1426.99V346.99H1427.65V350.792H1428.31V353.833H1428.98V357.635H1429.64V361.437H1430.31V366H1430.97V371.322H1431.63V376.645H1432.3V382.728H1432.96V388.051H1433.63V397.176H1434.29V410.103H1434.95V451.924H1434.29V460.289H1433.63V469.413H1432.96V477.778H1432.3V483.861H1431.63V489.184H1430.97V493.746H1430.31V498.308H1429.64V502.871H1428.98V508.193H1428.31V512.756H1427.65V516.558H1426.99V519.599H1426.32V522.641H1425.66V526.443H1424.99V529.485H1424.33V532.526H1423.67V536.328H1423V539.37H1422.34V543.172H1421.67V546.213H1421.01V548.494H1420.35V551.536H1419.68V553.817H1419.02V556.098H1418.35V559.14H1417.69V561.421H1417.03V564.463H1416.36V566.744H1415.7V569.025H1415.03V572.067H1414.37V574.348H1413.71V576.629H1413.04V579.671H1412.38V581.952H1411.71V584.233H1411.05V585.754H1410.39V588.035H1409.72V590.316H1409.06V592.597H1408.39V594.878H1407.73V597.16H1407.06V598.68H1406.4V600.962H1405.74V603.243H1405.07V605.524H1404.41V607.805H1403.74V609.326H1403.08V611.607H1402.42V613.128H1401.75V615.409H1401.09V616.93H1400.42V619.211H1399.76V620.732H1399.1V623.013H1398.43V624.534H1397.77V626.055H1397.1V627.575H1396.44V629.857H1395.78V631.377H1395.11V632.898H1394.45V634.419H1393.78V635.94H1393.12V638.221H1392.46V639.742H1391.79V640.502H1391.13V642.023H1390.46V643.544H1389.8V645.064H1389.14V646.585H1388.47V648.106H1387.81V649.627H1387.14V651.148H1386.48V652.668H1385.82V654.189H1385.15V655.71H1384.49V656.47H1383.82V657.991H1383.16V659.512H1382.5V661.033H1381.83V661.793H1381.17V663.314H1380.5V664.835H1379.84V665.595H1379.18V667.116H1378.51V668.637H1377.85V669.397H1377.18V670.918H1376.52V671.678H1375.86V673.199H1375.19V674.72H1374.53V675.48H1373.86V677.001H1373.2V678.522H1372.54V679.282H1371.87V680.803H1371.21V681.563H1370.54V682.324H1369.88V683.845H1369.22V684.605H1368.55V686.126H1367.89V686.886H1367.22V688.407H1366.56V689.167H1365.9V689.928H1365.23V691.449H1364.57V692.209H1363.9V693.73H1363.24V694.49H1362.58V696.011H1361.91V696.771H1361.25V697.532H1360.58V699.052H1359.92V699.813H1359.26V700.573H1358.59V702.094H1357.93V702.854H1357.26V703.615H1356.6V704.375H1355.94V705.896H1355.27V706.656H1354.61V707.417H1353.94V708.177H1353.28V709.698H1352.62V710.458H1351.95V711.219H1351.29V711.979H1350.62V713.5H1349.96V714.26H1349.29V715.021H1348.63V715.781H1347.97V717.302H1347.3V718.062H1346.64V718.823H1345.97V719.583H1345.31V720.344H1344.65V721.104H1343.98V721.864H1343.32V722.625H1342.65V724.145H1341.99V724.906H1341.33V725.666H1340.66V726.427H1340V727.187H1339.33V727.947H1338.67V728.708H1338.01V729.468H1337.34V730.989H1336.68V731.749H1336.01V732.51H1335.35V733.27H1334.69V734.031H1334.02V734.791H1333.36V735.551H1332.69V736.312H1332.03V737.072H1331.37V737.833H1330.7V738.593H1330.04V739.353H1329.37V740.114H1328.71V740.874H1328.05V741.635H1327.38V742.395H1326.72V743.155H1326.05V743.916H1325.39V744.676H1324.73V745.437H1324.06V746.197H1323.4V746.957H1322.73V747.718H1322.07V748.478H1321.41V749.239H1320.74V749.999H1320.08V750.759H1319.41V751.52H1318.75V752.28H1318.09V753.04H1317.42V753.801H1316.76V754.561H1316.09V755.322H1315.43V756.082H1314.77V756.842H1314.1V757.603H1312.77V758.363H1312.11V759.124H1311.45V759.884H1310.78V760.644H1310.12V761.405H1309.45V762.165H1308.79V762.926H1308.13V763.686H1307.46V764.446H1306.8V765.207H1305.47V765.967H1304.81V766.728H1304.14V767.488H1303.48V768.248H1302.81V769.009H1302.15V769.769H1301.49V770.53H1300.16V771.29H1299.49V772.05H1298.83V772.811H1298.17V773.571H1296.84V774.332H1296.17V775.092H1295.51V775.852H1294.84V776.613H1294.18V777.373H1292.85V778.134H1292.19V778.894H1291.52V779.654H1290.86V780.415H1289.53V781.175H1288.87V781.935H1288.2V782.696H1287.54V783.456H1286.88V784.217H1285.55V784.977H1284.88V785.737H1284.22V786.498H1282.89V787.258H1282.23V788.019H1281.56V788.779H1280.24V789.539H1279.57V790.3H1278.91V791.06H1277.58V791.821H1276.92V792.581H1276.25V793.341H1274.92V794.102H1274.26V794.862H1272.93V795.623H1272.27V796.383H1271.6V797.143H1270.28V797.904H1269.61V798.664H1268.95V799.425H1267.62V800.185H1266.96V800.945H1265.63V801.706H1264.96V802.466H1263.64V803.227H1262.97V803.987H1261.64V804.747H1260.98V805.508H1259.65V806.268H1258.99V807.029H1257.66V807.789H1257V808.549H1255.67V809.31H1255V810.07H1253.68V810.83H1253.01V811.591H1251.68V812.351H1251.02V813.112H1250.36V813.872H1249.03V814.632H1247.7V815.393H1247.04V816.153H1245.71V816.914H1244.38V817.674H1243.72V818.434H1242.39V819.195H1241.06V819.955H1240.4V820.716H1239.07V821.476H1237.74V822.236H1237.07V822.997H1235.75V823.757H1235.08V824.518H1233.75V825.278H1232.43V826.038H1231.76V826.799H1230.43V827.559H1229.11V828.32H1227.78V829.08H1226.45V829.84H1225.79V830.601H1224.46V831.361H1223.13V832.122H1221.8V832.882H1220.47V833.642H1219.81V834.403H1218.48V835.163H1217.15V835.923H1215.83V836.684H1214.5V837.444H1213.83V838.205H1212.51V838.965H1211.18V839.725H1209.85V840.486H1208.52V841.246H1207.19V842.007H1205.87V842.767H1204.54V843.527H1203.21V844.288H1201.88V845.048H1200.55V845.809H1199.23V846.569H1197.9V847.329H1196.57V848.09H1195.24V848.85H1193.91V849.611H1192.59V850.371H1191.26V851.131H1189.27V851.892H1187.94V852.652H1186.61V853.413H1185.28V854.173H1183.29V854.933H1181.96V855.694H1180.63V856.454H1179.3V857.215H1177.98V857.975H1175.98V858.735H1174.66V859.496H1173.33V860.256H1172V861.017H1170.01V861.777H1168.68V862.537H1166.69V863.298H1165.36V864.058H1163.37V864.818H1162.04V865.579H1160.05V866.339H1158.72V867.1H1156.73V867.86H1155.4V868.62H1153.41V869.381H1152.08V870.141H1150.09V870.902H1148.76V871.662H1146.77V872.422H1144.78V873.183H1142.78V873.943H1140.79V874.704H1138.8V875.464H1137.47V876.224H1135.48V876.985H1133.49V877.745H1131.5V878.506H1129.5V879.266H1127.51V880.026H1125.52V880.787H1123.53V881.547H1121.54V882.308H1118.88V883.068H1116.89V883.828H1114.89V884.589H1112.9V885.349H1110.91V886.11H1108.25V886.87H1106.26V887.63H1103.61V888.391H1100.95V889.151H1098.96V889.912H1096.3V890.672H1093.65V891.432H1090.99V892.193H1089V892.953H1086.34V893.713H1083.69V894.474H1080.37V895.234H1077.71V895.995H1074.39V896.755H1071.73V897.515H1068.41V898.276H1065.76V899.036H1062.44V899.797H1059.12V900.557H1055.13V901.317H1051.81V902.078H1047.83V902.838H1044.51V903.599H1040.52V904.359H1035.88V905.119H1030.56V905.88H1025.92V906.64H1021.27V907.401H1015.29V908.161H1007.99V908.921H1001.35V909.682H992.05V910.442H979.434V911.203" fill="white"/>
</svg>
