<svg width="987" height="499" viewBox="0 0 987 499" fill="none" xmlns="http://www.w3.org/2000/svg">
<path d="M437.639 499V498.645H432.658V498.291H428.032V497.936H424.83V497.581H421.628V497.227H418.425V496.872H416.291V496.517H413.8V496.163H411.665V495.808H409.53V495.453H407.395V495.099H405.616V494.744H403.837V494.389H402.058V494.035H400.279V493.68H398.5V493.326H396.721V492.971H395.298V492.616H393.875V492.262H392.452V491.907H390.673V491.552H389.249V491.198H388.182V490.843H386.759V490.488H385.336V490.134H384.268V489.779H382.845V489.424H381.778V489.07H380.71V488.715H379.643V488.36H378.22V488.006H377.152V487.651H376.085V487.296H375.017V486.942H373.95V486.587H372.882V486.232H371.815V485.878H371.103V485.523H370.036V485.168H368.969V484.814H367.901V484.459H366.834V484.104H366.122V483.75H365.055V483.395H364.343V483.041H363.276V482.686H362.564V482.331H361.497V481.977H360.429V481.622H359.718V481.267H359.006V480.913H357.939V480.558H357.227V480.203H356.516V479.849H355.448V479.494H354.736V479.139H353.669V478.785H352.957V478.43H352.246V478.075H351.534V477.721H350.467V477.366H349.755V477.011H349.044V476.657H348.332V476.302H347.62V475.947H346.909V475.593H345.841V475.238H345.13V474.883H344.418V474.529H343.707V474.174H342.995V473.819H342.283V473.465H341.572V473.11H340.86V472.756H340.149V472.401H339.437V472.046H338.725V471.692H338.014V471.337H337.302V470.982H336.59V470.628H335.879V470.273H335.167V469.918H334.456V469.564H333.744V469.209H333.032V468.854H332.677V468.5H331.965V468.145H331.253V467.79H330.542V467.436H329.83V467.081H329.119V466.726H328.407V466.372H328.051V466.017H327.34V465.662H326.628V465.308H325.916V464.953H325.561V464.598H324.849V464.244H324.137V463.889H323.782V463.534H323.07V463.18H322.358V462.825H321.647V462.471H321.291V462.116H320.579V461.761H319.868V461.407H319.512V461.052H318.8V460.697H318.089V460.343H317.733V459.988H317.021V459.633H316.665V459.279H315.954V458.924H315.242V458.569H314.886V458.215H314.175V457.86H313.819V457.505H313.107V457.151H312.396V456.796H312.04V456.441H311.328V456.087H310.973V455.732H310.261V455.377H309.905V455.023H309.194V454.668H308.838V454.313H308.126V453.959H307.77V453.604H307.059V453.249H306.703V452.895H306.347V452.54H305.636V452.186H305.28V451.831H304.568V451.476H304.212V451.122H303.501V450.767H303.145V450.412H302.433V450.058H302.077V449.703H301.366V449.348H301.01V448.994H300.654V448.639H299.943V448.284H299.587V447.93H299.231V447.575H298.52V447.22H298.164V446.866H297.808V446.511H297.096V446.156H296.74V445.802H296.385V445.447H295.673V445.092H295.317V444.738H294.961V444.383H294.25V444.028H293.894V443.674H293.538V443.319H292.827V442.964H292.471V442.61H292.115V442.255H291.759V441.9H291.403V441.546H290.692V441.191H290.336V440.837H289.98V440.482H289.624V440.127H288.913V439.773H288.557V439.418H288.201V439.063H287.845V438.709H287.49V438.354H286.778V437.999H286.422V437.645H286.066V437.29H285.711V436.935H284.999V436.581H284.643V436.226H284.287V435.871H283.931V435.517H283.576V435.162H283.22V434.807H282.864V434.453H282.152V434.098H281.797V433.743H281.441V433.389H281.085V433.034H280.729V432.679H280.373V432.325H280.018V431.97H279.662V431.615H279.306V431.261H278.594V430.906H278.239V430.552H277.883V430.197H277.527V429.842H277.171V429.488H276.815V429.133H276.46V428.778H276.104V428.424H275.748V428.069H275.392V427.714H275.036V427.36H274.681V427.005H274.325V426.65H273.969V426.296H273.613V425.941H273.257V425.586H272.902V425.232H272.546V424.877H272.19V424.522H271.834V424.168H271.478V423.813H271.123V423.458H270.767V423.104H270.411V422.749H270.055V422.394H269.699V422.04H269.344V421.685H268.988V421.33H268.632V420.976H268.276V420.621H267.92V420.267H267.565V419.912H267.209V419.557H266.853V419.203H266.497V418.848H266.141V418.493H265.786V418.139H265.43V417.429H265.074V417.075H264.718V416.72H264.362V416.365H264.006V416.011H263.651V415.656H263.295V415.301H262.939V414.947H262.583V414.592H262.227V414.237H261.872V413.883H261.516V413.173H261.16V412.819H260.804V412.464H260.448V412.109H260.093V411.755H259.737V411.045H259.381V410.691H259.025V410.336H258.669V409.982H258.314V409.272H257.958V408.918H257.602V408.563H257.246V408.208H256.89V407.854H256.535V407.144H256.179V406.79H255.823V406.435H255.467V406.08H255.111V405.371H254.756V405.016H254.4V404.662H254.044V404.307H253.688V403.598H253.332V403.243H252.977V402.534H252.621V402.179H252.265V401.824H251.909V401.115H251.553V400.76H251.198V400.406H250.842V399.697H250.486V399.342H250.13V398.633H249.774V398.278H249.419V397.923H249.063V397.214H248.707V396.859H248.351V396.15H247.995V395.795H247.639V395.441H247.284V394.731H246.928V394.377H246.572V393.667H246.216V392.958H245.86V392.603H245.505V391.894H245.149V391.539H244.793V390.83H244.437V390.121H244.081V389.766H243.726V389.057H243.37V388.702H243.014V387.993H242.658V387.638H242.302V386.929H241.947V386.22H241.591V385.865H241.235V385.156H240.879V384.446H240.523V383.737H240.168V383.382H239.812V382.673H239.456V381.964H239.1V381.254H238.744V380.545H238.389V379.836H238.033V379.481H237.677V378.772H237.321V378.063H236.965V377.353H236.61V376.644H236.254V375.935H235.898V375.225H235.542V374.516H235.186V373.807H234.831V373.097H234.475V372.388H234.119V371.679H233.763V370.615H233.407V369.905H233.052V369.196H232.696V368.487H232.34V367.778H231.984V366.714H231.628V366.004H231.273V365.295H230.917V364.586H230.561V363.522H230.205V362.812H229.849V361.748H229.494V360.684H229.138V359.975H228.782V358.911H228.426V357.847H228.07V357.138H227.714V356.074H227.359V355.01H227.003V354.301H226.647V353.237H226.291V351.818H225.935V350.754H225.58V349.335H225.224V348.272H224.868V347.208H224.512V345.789H224.156V344.725H223.801V343.306H223.445V342.242H223.089V340.824H222.733V339.05H222.377V337.277H222.022V335.859H221.666V334.085H221.31V332.312H220.954V330.893H220.598V328.765H220.243V326.283H219.887V323.8H219.531V320.963H219.175V318.48H218.819V314.934H218.464V308.905H218.108V287.271H218.464V283.37H218.819V279.114H219.175V275.213H219.531V272.73H219.887V270.602H220.243V268.119H220.598V265.991H220.954V263.864H221.31V261.381H221.666V259.253H222.022V257.834H222.377V256.416H222.733V254.643H223.089V253.224H223.445V251.805H223.801V250.032H224.156V248.613H224.512V246.84H224.868V245.421H225.224V244.003H225.58V242.584H225.935V241.52H226.291V240.456H226.647V239.038H227.003V237.974H227.359V236.91H227.714V235.491H228.07V234.427H228.426V233.363H228.782V231.945H229.138V230.881H229.494V229.817H229.849V228.398H230.205V227.334H230.561V226.27H230.917V225.206H231.273V224.497H231.628V223.433H231.984V222.369H232.34V221.305H232.696V220.241H233.052V219.532H233.407V218.468H233.763V217.404H234.119V216.34H234.475V215.276H234.831V214.566H235.186V213.503H235.542V212.793H235.898V211.729H236.254V211.02H236.61V209.956H236.965V209.247H237.321V208.183H237.677V207.473H238.033V206.764H238.389V206.055H238.744V204.991H239.1V204.281H239.456V203.572H239.812V202.863H240.168V202.154H240.523V201.09H240.879V200.735H241.235V200.026H241.591V199.316H241.947V198.607H242.302V197.898H242.658V197.188H243.014V196.479H243.37V195.77H243.726V195.06H244.081V194.351H244.437V193.996H244.793V193.287H245.149V192.578H245.505V191.869H245.86V191.159H246.216V190.45H246.572V190.095H246.928V189.386H247.284V189.031H247.639V188.322H247.995V187.613H248.351V187.258H248.707V186.549H249.063V185.839H249.419V185.485H249.774V184.775H250.13V184.066H250.486V183.711H250.842V183.002H251.198V182.647H251.553V181.938H251.909V181.584H252.265V180.874H252.621V180.52H252.977V179.81H253.332V179.456H253.688V178.746H254.044V178.392H254.4V178.037H254.756V177.328H255.111V176.973H255.467V176.264H255.823V175.909H256.179V175.554H256.535V174.845H256.89V174.49H257.246V173.781H257.602V173.426H257.958V173.072H258.314V172.362H258.669V172.008H259.025V171.653H259.381V170.944H259.737V170.589H260.093V170.235H260.448V169.88H260.804V169.171H261.16V168.816H261.516V168.461H261.872V168.107H262.227V167.397H262.583V167.043H262.939V166.688H263.295V166.333H263.651V165.624H264.006V165.269H264.362V164.915H264.718V164.56H265.074V164.205H265.43V163.496H265.786V163.141H266.141V162.787H266.497V162.432H266.853V162.077H267.209V161.723H267.565V161.368H267.92V161.014H268.276V160.304H268.632V159.95H268.988V159.595H269.344V159.24H269.699V158.886H270.055V158.531H270.411V158.176H270.767V157.822H271.123V157.112H271.478V156.758H271.834V156.403H272.19V156.048H272.546V155.694H272.902V155.339H273.257V154.984H273.613V154.63H273.969V154.275H274.325V153.92H274.681V153.566H275.036V153.211H275.392V152.856H275.748V152.502H276.104V152.147H276.46V151.792H276.815V151.438H277.171V151.083H277.527V150.729H277.883V150.374H278.239V150.019H278.594V149.665H278.95V149.31H279.306V148.955H279.662V148.601H280.018V148.246H280.373V147.891H280.729V147.537H281.085V147.182H281.441V146.827H281.797V146.473H282.508V146.118H282.864V145.763H283.22V145.409H283.576V145.054H283.931V144.699H284.287V144.345H284.643V143.99H284.999V143.635H285.355V143.281H286.066V142.926H286.422V142.571H286.778V142.217H287.134V141.862H287.49V141.507H287.845V141.153H288.201V140.798H288.557V140.444H288.913V140.089H289.624V139.734H289.98V139.38H290.336V139.025H290.692V138.67H291.048V138.316H291.759V137.961H292.115V137.606H292.471V137.252H292.827V136.897H293.538V136.542H293.894V136.188H294.25V135.833H294.606V135.478H294.961V135.124H295.673V134.769H296.029V134.414H296.385V134.06H296.74V133.705H297.452V133.35H297.808V132.996H298.164V132.641H298.52V132.286H299.231V131.932H299.587V131.577H300.298V131.222H300.654V130.868H301.01V130.513H301.722V130.159H302.077V129.804H302.433V129.449H303.145V129.095H303.501V128.74H303.857V128.385H304.568V128.031H304.924V127.676H305.28V127.321H305.991V126.967H306.347V126.612H306.703V126.257H307.415V125.903H307.77V125.548H308.482V125.193H308.838V124.839H309.549V124.484H309.905V124.129H310.617V123.775H310.973V123.42H311.684V123.065H312.04V122.711H312.752V122.356H313.107V122.001H313.819V121.647H314.175V121.292H314.886V120.937H315.242V120.583H315.954V120.228H316.31V119.874H317.021V119.519H317.377V119.164H318.089V118.81H318.444V118.455H319.156V118.1H319.868V117.746H320.224V117.391H320.935V117.036H321.647V116.682H322.003V116.327H322.714V115.972H323.426V115.618H323.782V115.263H324.493V114.908H324.849V114.554H325.561V114.199H326.272V113.844H326.628V113.49H327.34V113.135H328.051V112.78H328.763V112.426H329.119V112.071H329.83V111.716H330.542V111.362H331.253V111.007H331.965V110.652H332.677V110.298H333.032V109.943H333.744V109.588H334.456V109.234H335.167V108.879H335.879V108.525H336.235V108.17H336.946V107.815H337.658V107.461H338.369V107.106H339.081V106.751H339.793V106.397H340.504V106.042H341.216V105.687H341.928V105.333H342.639V104.978H343.351V104.623H344.062V104.269H344.774V103.914H345.486V103.559H346.197V103.205H346.909V102.85H347.62V102.495H348.332V102.141H349.044V101.786H350.111V101.431H350.823V101.077H351.534V100.722H352.246V100.367H352.957V100.013H354.025V99.6581H354.736V99.3035H355.448V98.9489H356.16V98.5942H357.227V98.2395H357.939V97.8849H358.65V97.5302H359.362V97.1756H360.429V96.8209H361.141V96.4662H362.208V96.1116H362.92V95.7569H363.987V95.4023H364.699V95.0476H365.766V94.693H366.478V94.3383H367.545V93.9837H368.257V93.629H369.324V93.2744H370.036V92.9197H371.103V92.5651H372.171V92.2104H373.238V91.8557H373.95V91.5011H375.017V91.1464H376.085V90.7918H377.152V90.4371H378.22V90.0825H378.931V89.7278H379.999V89.3731H381.066V89.0185H382.133V88.6638H383.201V88.3092H384.268V87.9546H385.691V87.5999H386.759V87.2452H387.826V86.8905H388.894V86.5359H389.961V86.1812H391.384V85.8266H392.452V85.472H393.519V85.1173H394.942V84.7626H396.366V84.408H397.433V84.0533H398.856V83.6987H400.279V83.344H401.703V82.9893H402.77V82.6347H404.193V82.28H405.616V81.9254H407.04V81.5707H408.819V81.2161H410.242V80.8614H412.021V80.5068H413.444V80.1521H415.223V79.7975H416.646V79.4428H418.425V79.0882H420.56V78.7335H422.339V78.3788H424.474V78.0242H426.253V77.6695H428.388V77.3149H430.879V76.9602H433.369V76.6056H435.86V76.2509H438.35V75.8962H441.197V75.5416H444.755V75.187H448.669V74.8323H452.227V74.4777H458.987V74.123H475.71V73.7683H476.066V74.123H485.317V74.4777H490.654V74.8323H494.567V75.187H498.481V75.5416H501.328V75.8962H503.818V76.2509H506.309V76.6056H508.8V76.9602H510.934V77.3149H512.713V77.6695H514.848V78.0242H516.627V78.3788H518.406V78.7335H520.185V79.0882H521.964V79.4428H523.032V79.7975H524.455V80.1521H525.878V80.5068H527.301V80.8614H528.725V81.2161H530.148V81.5707H531.571V81.9254H532.638V82.28H533.706V82.6347H535.129V82.9893H536.196V83.344H537.264V83.6987H538.331V84.0533H539.399V84.408H540.466V84.7626H541.534V85.1173H542.601V85.472H543.668V85.8266H544.736V86.1812H545.447V86.5359H546.515V86.8905H547.582V87.2452H548.294V87.5999H549.361V87.9546H550.073V88.3092H551.14V88.6638H551.852V89.0185H552.208V89.3731H551.496V89.0185H550.073V88.6638H549.005V88.3092H547.582V87.9546H546.159V87.5999H544.736V87.2452H543.313V86.8905H541.889V86.5359H540.466V86.1812H538.687V85.8266H536.552V85.472H534.417V85.1173H532.638V84.7626H530.504V84.408H528.369V84.0533H524.811V83.6987H520.541V83.344H516.627V82.9893H500.972V83.344H495.991V83.6987H490.654V84.0533H488.163V84.408H485.672V84.7626H483.182V85.1173H480.691V85.472H478.2V85.8266H476.066V86.1812H474.642V86.5359H472.863V86.8905H471.084V87.2452H469.305V87.5999H467.882V87.9546H466.103V88.3092H464.324V88.6638H463.257V89.0185H461.833V89.3731H460.766V89.7278H459.343V90.0825H457.92V90.4371H456.852V90.7918H455.429V91.1464H454.362V91.5011H452.938V91.8557H451.871V92.2104H450.804V92.5651H449.736V92.9197H448.669V93.2744H447.601V93.629H446.534V93.9837H445.466V94.3383H444.399V94.693H443.332V95.0476H442.264V95.4023H441.553V95.7569H440.485V96.1116H439.418V96.4662H438.35V96.8209H437.639V97.1756H436.571V97.5302H435.86V97.8849H434.792V98.2395H434.081V98.5942H433.369V98.9489H432.302V99.3035H431.59V99.6581H430.523V100.013H429.811V100.367H428.744V100.722H428.032V101.077H426.965V101.431H426.253V101.786H425.541V102.141H424.83V102.495H424.118V102.85H423.407V103.205H422.695V103.559H421.983V103.914H420.916V104.269H420.204V104.623H419.493V104.978H418.781V105.333H418.07V105.687H417.358V106.042H416.646V106.397H415.935V106.751H415.223V107.106H414.512V107.461H413.8V107.815H413.088V108.17H412.377V108.525H411.665V108.879H410.953V109.234H410.242V109.588H409.886V109.943H409.174V110.298H408.463V110.652H407.751V111.007H407.04V111.362H406.328V111.716H405.972V112.071H405.261V112.426H404.549V112.78H403.837V113.135H403.126V113.49H402.414V113.844H402.058V114.199H401.347V114.554H400.635V114.908H400.279V115.263H399.568V115.618H398.856V115.972H398.5V116.327H397.789V116.682H397.433V117.036H396.721V117.391H396.01V117.746H395.654V118.1H394.942V118.455H394.231V118.81H393.875V119.164H393.163V119.519H392.807V119.874H392.096V120.228H391.384V120.583H391.028V120.937H390.317V121.292H389.961V121.647H389.249V122.001H388.894V122.356H388.182V122.711H387.826V123.065H387.115V123.42H386.759V123.775H386.047V124.129H385.691V124.484H384.98V124.839H384.624V125.193H384.268V125.548H383.557V125.903H383.201V126.257H382.489V126.612H382.133V126.967H381.422V127.321H381.066V127.676H380.354V128.031H379.999V128.385H379.643V128.74H378.931V129.095H378.575V129.449H377.864V129.804H377.508V130.159H377.152V130.513H376.441V130.868H376.085V131.222H375.729V131.577H375.373V131.932H374.661V132.286H374.306V132.641H373.95V132.996H373.238V133.35H372.882V133.705H372.527V134.06H371.815V134.414H371.459V134.769H371.103V135.124H370.748V135.478H370.036V135.833H369.68V136.188H369.324V136.542H368.613V136.897H368.257V137.252H367.901V137.606H367.19V137.961H366.834V138.316H366.478V138.67H366.122V139.025H365.766V139.38H365.411V139.734H364.699V140.089H364.343V140.444H363.987V140.798H363.632V141.153H363.276V141.507H362.92V141.862H362.208V142.217H361.853V142.571H361.497V142.926H361.141V143.281H360.785V143.635H360.429V143.99H359.718V144.345H359.362V144.699H359.006V145.054H358.65V145.409H358.295V145.763H357.939V146.118H357.227V146.473H356.871V146.827H356.516V147.182H356.16V147.537H355.804V147.891H355.448V148.246H355.092V148.601H354.736V148.955H354.381V149.31H354.025V149.665H353.669V150.019H353.313V150.374H352.957V150.729H352.602V151.083H352.246V151.438H351.89V151.792H351.178V152.147H350.823V152.502H350.467V152.856H350.111V153.211H349.755V153.566H349.399V153.92H349.044V154.275H348.688V154.63H348.332V154.984H347.976V155.339H347.62V155.694H347.265V156.048H346.909V156.403H346.553V156.758H346.197V157.112H345.841V157.467H345.486V157.822H345.13V158.176H344.774V158.531H344.418V158.886H344.062V159.24H343.707V159.595H343.351V159.95H342.995V160.304H342.639V161.014H342.283V161.368H341.928V161.723H341.572V162.077H341.216V162.432H340.86V162.787H340.504V163.141H340.149V163.496H339.793V163.851H339.437V164.205H339.081V164.56H338.725V164.915H338.369V165.269H338.014V165.624H337.658V165.979H337.302V166.333H336.946V167.043H336.59V167.397H336.235V167.752H335.879V168.107H335.523V168.461H335.167V169.171H334.811V169.525H334.456V169.88H334.1V170.235H333.744V170.589H333.388V170.944H333.032V171.653H332.677V172.008H332.321V172.362H331.965V172.717H331.609V173.072H331.253V173.781H330.898V174.136H330.542V174.49H330.186V174.845H329.83V175.2H329.474V175.554H329.119V176.264H328.763V176.618H328.407V176.973H328.051V177.328H327.695V178.037H327.34V178.392H326.984V178.746H326.628V179.456H326.272V179.81H325.916V180.165H325.561V180.874H325.205V181.229H324.849V181.584H324.493V182.293H324.137V182.647H323.782V183.002H323.426V183.711H323.07V184.066H322.714V184.421H322.358V185.13H322.003V185.485H321.647V185.839H321.291V186.549H320.935V186.903H320.579V187.258H320.224V187.967H319.868V188.322H319.512V189.031H319.156V189.386H318.8V190.095H318.444V190.45H318.089V191.159H317.733V191.514H317.377V192.223H317.021V192.578H316.665V193.287H316.31V193.642H315.954V194.351H315.598V194.706H315.242V195.415H314.886V195.77H314.531V196.479H314.175V196.834H313.819V197.543H313.463V197.898H313.107V198.607H312.752V198.962H312.396V199.671H312.04V200.38H311.684V200.735H311.328V201.444H310.973V202.154H310.617V202.863H310.261V203.217H309.905V203.927H309.549V204.636H309.194V205.345H308.838V205.7H308.482V206.409H308.126V207.119H307.77V207.828H307.415V208.183H307.059V208.892H306.703V209.601H306.347V210.311H305.991V210.665H305.636V211.375H305.28V212.084H304.924V212.793H304.568V213.503H304.212V214.212H303.857V214.921H303.501V215.63H303.145V216.34H302.789V217.404H302.433V218.113H302.077V218.822H301.722V219.532H301.366V220.241H301.01V220.95H300.654V221.66H300.298V222.369H299.943V223.078H299.587V223.788H299.231V224.851H298.875V225.561H298.52V226.625H298.164V227.334H297.808V228.398H297.452V229.107H297.096V229.817H296.74V230.881H296.385V231.59H296.029V232.654H295.673V233.363H295.317V234.427H294.961V235.136H294.606V236.2H294.25V237.264H293.894V238.328H293.538V239.392H293.182V240.456H292.827V241.52H292.471V242.939H292.115V244.003H291.759V245.067H291.403V246.131H291.048V247.195H290.692V248.259H290.336V249.677H289.98V251.096H289.624V252.869H289.269V254.288H288.913V255.706H288.557V257.125H288.201V258.544H287.845V259.962H287.49V262.09H287.134V264.218H286.778V266.701H286.422V268.829H286.066V270.957H285.711V273.439H285.355V277.695H284.999V283.015H284.643V300.038H284.999V303.23H285.355V306.777H285.711V309.969H286.066V313.161H286.422V314.934H286.778V316.353H287.134V318.126H287.49V319.899H287.845V321.672H288.201V323.446H288.557V325.219H288.913V326.638H289.269V328.056H289.624V329.12H289.98V330.539H290.336V331.603H290.692V333.021H291.048V334.085H291.403V335.504H291.759V336.568H292.115V337.632H292.471V338.696H292.827V339.405H293.182V340.114H293.538V340.824H293.894V341.888H294.25V342.242H294.606V342.952H294.961V343.661H295.317V344.37H295.673V345.08H296.029V345.789H296.385V346.498H296.74V347.208H297.096V347.917H297.452V348.626H297.808V348.981H298.164V349.69H298.52V350.399H298.875V350.754H299.231V351.463H299.587V352.173H299.943V352.527H300.298V353.237H300.654V353.946H301.01V354.655H301.366V355.01H301.722V355.719H302.077V356.429H302.433V356.783H302.789V357.493H303.145V357.847H303.501V358.557H303.857V358.911H304.212V359.62H304.568V359.975H304.924V360.684H305.28V361.039H305.636V361.748H305.991V362.103H306.347V362.812H306.703V363.167H307.059V363.876H307.415V364.231H307.77V364.94H308.126V365.295H308.482V366.004H308.838V366.359H309.194V366.714H309.549V367.423H309.905V367.778H310.261V368.132H310.617V368.842H310.973V369.196H311.328V369.551H311.684V370.26H312.04V370.615H312.396V370.969H312.752V371.679H313.107V372.033H313.463V372.388H313.819V373.097H314.175V373.452H314.531V373.807H314.886V374.161H315.242V374.516H315.598V374.871H315.954V375.58H316.31V375.935H316.665V376.289H317.021V376.644H317.377V376.999H317.733V377.708H318.089V378.063H318.444V378.417H318.8V378.772H319.156V379.127H319.512V379.481H319.868V380.19H320.224V380.545H320.579V380.9H320.935V381.254H321.291V381.609H321.647V381.964H322.003V382.318H322.358V382.673H322.714V383.028H323.07V383.382H323.426V383.737H323.782V384.092H324.137V384.446H324.493V384.801H324.849V385.156H325.205V385.51H325.561V385.865H325.916V386.22H326.272V386.574H326.628V387.284H327.34V387.638H327.695V387.993H328.051V388.348H328.407V388.702H328.763V389.057H329.119V389.412H329.474V389.766H329.83V390.121H330.186V390.475H330.542V390.83H330.898V391.185H331.253V391.539H331.609V391.894H331.965V392.249H332.677V392.603H333.032V392.958H333.388V393.313H333.744V393.667H334.1V394.022H334.456V394.377H334.811V394.731H335.523V395.086H335.879V395.441H336.235V395.795H336.59V396.15H336.946V396.505H337.658V396.859H338.014V397.214H338.369V397.569H338.725V397.923H339.081V398.278H339.793V398.633H340.149V398.987H340.504V399.342H340.86V399.697H341.572V400.051H341.928V400.406H342.283V400.76H342.995V401.115H343.351V401.47H343.707V401.824H344.418V402.179H344.774V402.534H345.13V402.888H345.841V403.243H346.197V403.598H346.553V403.952H347.265V404.307H347.62V404.662H347.976V405.016H348.688V405.371H349.044V405.726H349.755V406.08H350.111V406.435H350.823V406.79H351.178V407.144H351.89V407.499H352.246V407.854H352.957V408.208H353.313V408.563H354.025V408.918H354.381V409.272H355.092V409.627H355.448V409.982H356.16V410.336H356.871V410.691H357.227V411.045H357.939V411.4H358.65V411.755H359.006V412.109H359.718V412.464H360.429V412.819H361.141V413.173H361.497V413.528H362.208V413.883H362.92V414.237H363.276V414.592H363.987V414.947H364.699V415.301H365.411V415.656H366.122V416.011H366.834V416.365H367.19V416.72H367.901V417.075H368.613V417.429H369.324V417.784H370.036V418.139H370.748V418.493H371.459V418.848H372.171V419.203H372.882V419.557H373.594V419.912H374.306V420.267H375.017V420.621H375.729V420.976H376.796V421.33H377.508V421.685H378.22V422.04H378.931V422.394H379.643V422.749H380.354V423.104H381.066V423.458H382.133V423.813H382.845V424.168H383.912V424.522H384.624V424.877H385.691V425.232H386.403V425.586H387.115V425.941H388.182V426.296H388.894V426.65H389.961V427.005H390.673V427.36H391.74V427.714H392.807V428.069H393.875V428.424H394.942V428.778H395.654V429.133H396.721V429.488H397.789V429.842H398.856V430.197H399.924V430.552H400.991V430.906H402.058V431.261H403.126V431.615H404.193V431.97H405.261V432.325H406.684V432.679H407.751V433.034H408.819V433.389H410.242V433.743H411.309V434.098H412.733V434.453H414.156V434.807H415.223V435.162H416.646V435.517H418.07V435.871H419.493V436.226H420.916V436.581H422.339V436.935H423.762V437.29H425.541V437.645H426.965V437.999H428.388V438.354H430.167V438.709H431.946V439.063H433.725V439.418H435.86V439.773H437.639V440.127H439.418V440.482H441.553V440.837H443.687V441.191H445.822V441.546H447.957V441.9H450.448V442.255H453.294V442.61H455.785V442.964H458.631V443.319H461.478V443.674H465.036V444.028H468.238V444.383H472.152V444.738H476.777V445.092H481.403V445.447H487.807V445.802H495.991V446.156H532.994V445.802H542.601V445.447H549.717V445.092H555.41V444.738H560.747V444.383H565.728V444.028H569.998V443.674H574.623V443.319H578.537V442.964H582.095V442.61H586.009V442.255H589.211V441.9H592.769V441.546H595.971V441.191H599.174V440.837H602.376V440.482H605.222V440.127H608.069V439.773H610.915V439.418H613.762V439.063H616.608V438.709H619.099V438.354H621.945V437.999H624.436V437.645H626.926V437.29H629.417V436.935H631.908V436.581H634.398V436.226H636.889V435.871H639.38V435.517H641.514V435.162H644.005V434.807H646.14V434.453H648.63V434.098H650.765V433.743H653.256V433.389H655.391V433.034H657.526V432.679H659.66V432.325H661.795V431.97H663.93V431.615H666.065V431.261H668.2V430.906H670.335V430.552H672.114V430.197H674.248V429.842H676.383V429.488H678.518V429.133H680.297V428.778H682.432V428.424H684.211V428.069H686.346V427.714H688.481V427.36H690.26V427.005H692.039V426.65H694.173V426.296H695.952V425.941H697.731V425.586H699.866V425.232H701.645V424.877H703.424V424.522H705.559V424.168H707.338V423.813H709.117V423.458H710.896V423.104H712.675V422.749H714.454V422.394H716.233V422.04H718.368V421.685H720.147V421.33H721.926V420.976H723.705V420.621H725.484V420.267H727.263V419.912H729.042V419.557H730.465V419.203H732.244V418.848H734.023V418.493H735.802V418.139H737.581V417.784H739.36V417.429H741.14V417.075H742.919V416.72H744.342V416.365H746.121V416.011H747.9V415.656H749.679V415.301H751.458V414.947H752.881V414.592H754.66V414.237H756.439V413.883H757.862V413.528H759.641V413.173H761.42V412.819H763.199V412.464H764.623V412.109H766.402V411.755H768.181V411.4H769.604V411.045H771.383V410.691H772.806V410.336H774.585V409.982H776.364V409.627H777.787V409.272H779.566V408.918H780.99V408.563H782.769V408.208H784.548V407.854H785.971V407.499H787.75V407.144H789.173V406.79H790.952V406.435H792.375V406.08H794.154V405.726H795.577V405.371H797.357V405.016H798.78V404.662H800.559V404.307H801.982V403.952H803.761V403.598H805.184V403.243H806.963V402.888H808.386V402.534H810.165V402.179H811.589V401.824H813.368V401.47H814.791V401.115H816.57V400.76H817.993V400.406H819.772V400.051H821.195V399.697H822.974V399.342H824.398V398.987H825.821V398.633H827.6V398.278H829.023V397.923H830.802V397.569H832.225V397.214H834.004V396.859H835.428V396.505H837.207V396.15H838.63V395.795H840.053V395.441H841.832V395.086H843.255V394.731H845.034V394.377H846.457V394.022H848.236V393.667H849.66V393.313H851.439V392.958H852.862V392.603H854.285V392.249H856.064V391.894H857.487V391.539H859.266V391.185H860.69V390.83H862.469V390.475H863.892V390.121H865.671V389.766H867.094V389.412H868.873V389.057H870.296V388.702H872.075V388.348H873.499V387.993H875.278V387.638H876.701V387.284H878.48V386.929H879.903V386.574H881.682V386.22H883.105V385.865H884.884V385.51H886.307V385.156H888.086V384.801H889.51V384.446H891.289V384.092H892.712V383.737H894.491V383.382H895.914V383.028H897.693V382.673H899.472V382.318H900.895V381.964H902.674V381.609H904.098V381.254H905.877V380.9H907.656V380.545H909.079V380.19H910.858V379.836H912.637V379.481H914.06V379.127H915.839V378.772H917.618V378.417H919.041V378.063H920.82V377.708H922.599V377.353H924.023V376.999H925.802V376.644H927.581V376.289H929.36V375.935H931.139V375.58H932.562V375.225H934.341V374.871H936.12V374.516H937.899V374.161H939.678V373.807H941.457V373.452H943.236V373.097H945.015V372.743H946.794V372.388H948.573V372.033H950.352V371.679H952.131V371.324H953.91V370.969H955.689V370.615H957.468V370.26H959.247V369.905H961.382V369.551H963.161V369.196H964.94V368.842H966.719V368.487H968.854V368.132H970.633V367.778H972.412V367.423H974.547V367.068H976.326V366.714H978.461V366.359H980.24V366.004H982.375V365.65H984.509V365.295H986.288V364.94H987V365.65H985.577V366.004H984.509V366.359H983.442V366.714H982.019V367.068H980.951V367.423H979.528V367.778H978.461V368.132H977.393V368.487H975.97V368.842H974.903V369.196H973.479V369.551H972.412V369.905H971.345V370.26H969.921V370.615H968.854V370.969H967.431V371.324H966.363V371.679H964.94V372.033H963.873V372.388H962.805V372.743H961.382V373.097H960.315V373.452H958.892V373.807H957.824V374.161H956.757V374.516H955.333V374.871H954.266V375.225H952.843V375.58H951.775V375.935H950.352V376.289H949.285V376.644H948.217V376.999H946.794V377.353H945.727V377.708H944.304V378.063H943.236V378.417H941.813V378.772H940.745V379.127H939.678V379.481H938.255V379.836H937.187V380.19H935.764V380.545H934.697V380.9H933.274V381.254H932.206V381.609H931.139V381.964H929.716V382.318H928.648V382.673H927.225V383.028H926.158V383.382H924.734V383.737H923.667V384.092H922.244V384.446H921.176V384.801H920.109V385.156H918.686V385.51H917.618V385.865H916.195V386.22H915.128V386.574H913.704V386.929H912.637V387.284H911.214V387.638H910.146V387.993H909.079V388.348H907.656V388.702H906.588V389.057H905.165V389.412H904.098V389.766H902.674V390.121H901.607V390.475H900.184V390.83H899.116V391.185H897.693V391.539H896.626V391.894H895.558V392.249H894.135V392.603H893.068V392.958H891.645V393.313H890.577V393.667H889.154V394.022H888.086V394.377H886.663V394.731H885.596V395.086H884.173V395.441H883.105V395.795H881.682V396.15H880.615V396.505H879.547V396.859H878.124V397.214H877.057V397.569H875.633V397.923H874.566V398.278H873.143V398.633H872.075V398.987H870.652V399.342H869.585V399.697H868.161V400.051H867.094V400.406H865.671V400.76H864.603V401.115H863.18V401.47H862.113V401.824H860.69V402.179H859.622V402.534H858.555V402.888H857.132V403.243H856.064V403.598H854.641V403.952H853.573V404.307H852.15V404.662H851.083V405.016H849.66V405.371H848.592V405.726H847.169V406.08H846.102V406.435H844.678V406.79H843.611V407.144H842.188V407.499H841.12V407.854H839.697V408.208H838.63V408.563H837.207V408.918H836.139V409.272H834.716V409.627H833.648V409.982H832.225V410.336H831.158V410.691H829.735V411.045H828.667V411.4H827.244V411.755H826.177V412.109H824.753V412.464H823.686V412.819H822.263V413.173H821.195V413.528H819.772V413.883H818.705V414.237H817.282V414.592H816.214V414.947H814.791V415.301H813.724V415.656H812.3V416.011H811.233V416.365H809.81V416.72H808.742V417.075H807.319V417.429H806.252V417.784H804.828V418.139H803.761V418.493H802.338V418.848H801.27V419.203H799.847V419.557H798.424V419.912H797.357V420.267H795.933V420.621H794.866V420.976H793.443V421.33H792.375V421.685H790.952V422.04H789.885V422.394H788.461V422.749H787.394V423.104H785.971V423.458H784.903V423.813H783.48V424.168H782.413V424.522H780.99V424.877H779.922V425.232H778.499V425.586H777.076V425.941H776.008V426.296H774.585V426.65H773.518V427.005H772.094V427.36H771.027V427.714H769.604V428.069H768.536V428.424H767.113V428.778H766.046V429.133H764.623V429.488H763.199V429.842H762.132V430.197H760.709V430.552H759.641V430.906H758.218V431.261H757.151V431.615H755.727V431.97H754.66V432.325H753.237V432.679H751.814V433.034H750.746V433.389H749.323V433.743H748.256V434.098H746.832V434.453H745.409V434.807H744.342V435.162H742.919V435.517H741.851V435.871H740.428V436.226H739.36V436.581H737.937V436.935H736.514V437.29H735.447V437.645H734.023V437.999H732.956V438.354H731.533V438.709H730.465V439.063H729.042V439.418H727.619V439.773H726.552V440.127H725.128V440.482H724.061V440.837H722.638V441.191H721.215V441.546H720.147V441.9H718.724V442.255H717.656V442.61H716.233V442.964H714.81V443.319H713.743V443.674H712.319V444.028H710.896V444.383H709.829V444.738H708.406V445.092H707.338V445.447H705.915V445.802H704.492V446.156H703.424V446.511H702.001V446.866H700.578V447.22H699.51V447.575H698.087V447.93H697.02V448.284H695.597V448.639H694.173V448.994H693.106V449.348H691.683V449.703H690.26V450.058H689.192V450.412H687.769V450.767H686.346V451.122H685.278V451.476H683.855V451.831H682.432V452.186H681.364V452.54H679.941V452.895H678.518V453.249H677.451V453.604H676.027V453.959H674.604V454.313H673.537V454.668H672.114V455.023H670.69V455.377H669.623V455.732H668.2V456.087H666.776V456.441H665.709V456.796H664.286V457.151H662.863V457.505H661.439V457.86H660.372V458.215H658.949V458.569H657.526V458.924H656.458V459.279H655.035V459.633H653.612V459.988H652.189V460.343H651.121V460.697H649.698V461.052H648.275V461.407H646.851V461.761H645.784V462.116H644.361V462.471H642.938V462.825H641.514V463.18H640.447V463.534H639.024V463.889H637.601V464.244H636.177V464.598H635.11V464.953H633.687V465.308H632.264V465.662H630.84V466.017H629.417V466.372H628.35V466.726H626.926V467.081H625.503V467.436H624.08V467.79H622.657V468.145H621.589V468.5H620.166V468.854H618.743V469.209H617.32V469.564H615.896V469.918H614.473V470.273H613.05V470.628H611.983V470.982H610.559V471.337H609.136V471.692H607.713V472.046H606.29V472.401H604.867V472.756H603.443V473.11H602.02V473.465H600.597V473.819H599.174V474.174H597.751V474.529H596.683V474.883H595.26V475.238H593.837V475.593H592.414V475.947H590.99V476.302H589.567V476.657H588.144V477.011H586.721V477.366H584.942V477.721H583.518V478.075H582.095V478.43H580.672V478.785H579.249V479.139H577.826V479.494H576.402V479.849H574.979V480.203H573.556V480.558H571.777V480.913H570.354V481.267H568.93V481.622H567.507V481.977H566.084V482.331H564.305V482.686H562.882V483.041H561.103V483.395H559.68V483.75H558.256V484.104H556.477V484.459H555.054V484.814H553.275V485.168H551.852V485.523H550.073V485.878H548.294V486.232H546.871V486.587H545.092V486.942H543.313V487.296H541.889V487.651H540.11V488.006H538.331V488.36H536.552V488.715H534.773V489.07H532.994V489.424H531.571V489.779H529.436V490.134H527.657V490.488H525.878V490.843H524.099V491.198H522.32V491.552H520.541V491.907H518.406V492.262H516.271V492.616H514.492V492.971H512.358V493.326H510.579V493.68H508.444V494.035H505.953V494.389H503.818V494.744H501.684V495.099H499.193V495.453H496.702V495.808H494.212V496.163H491.365V496.517H488.875V496.872H485.672V497.227H482.47V497.581H479.268V497.936H474.998V498.291H470.373V498.645H463.968V499H437.639ZM505.953 424.877V424.522H498.481V424.168H494.212V423.813H490.298V423.458H486.74V423.104H484.249V422.749H481.758V422.394H479.268V422.04H476.777V421.685H474.998V421.33H473.219V420.976H471.44V420.621H469.305V420.267H467.526V419.912H465.747V419.557H464.324V419.203H462.901V418.848H461.478V418.493H460.41V418.139H458.987V417.784H457.564V417.429H456.141V417.075H454.717V416.72H453.65V416.365H452.583V416.011H451.515V415.656H450.092V415.301H449.025V414.947H447.957V414.592H446.89V414.237H445.822V413.883H444.755V413.528H443.687V413.173H442.62V412.819H441.908V412.464H440.841V412.109H440.129V411.755H439.062V411.4H437.995V411.045H437.283V410.691H436.216V410.336H435.504V409.982H434.792V409.627H434.437V409.272H435.148V409.627H436.216V409.982H437.283V410.336H438.35V410.691H439.774V411.045H441.197V411.4H442.62V411.755H444.043V412.109H445.466V412.464H447.245V412.819H449.38V413.173H451.159V413.528H453.294V413.883H455.429V414.237H457.564V414.592H460.054V414.947H464.324V415.301H468.238V415.656H488.519V415.301H493.5V414.947H497.77V414.592H500.26V414.237H502.751V413.883H505.242V413.528H507.732V413.173H509.867V412.819H511.646V412.464H513.425V412.109H514.848V411.755H516.627V411.4H518.406V411.045H520.185V410.691H521.609V410.336H523.032V409.982H524.455V409.627H525.522V409.272H526.946V408.918H528.369V408.563H529.436V408.208H530.859V407.854H531.927V407.499H533.35V407.144H534.773V406.79H535.841V406.435H536.908V406.08H537.975V405.726H538.687V405.371H539.754V405.016H540.822V404.662H541.889V404.307H542.957V403.952H544.024V403.598H545.092V403.243H546.159V402.888H547.226V402.534H547.938V402.179H549.005V401.824H549.717V401.47H550.784V401.115H551.496V400.76H552.563V400.406H553.275V400.051H553.987V399.697H555.054V399.342H555.766V398.987H556.833V398.633H557.545V398.278H558.612V397.923H559.324V397.569H560.391V397.214H561.103V396.859H561.814V396.505H562.526V396.15H563.238V395.795H563.949V395.441H564.661V395.086H565.372V394.731H566.084V394.377H567.151V394.022H567.863V393.667H568.575V393.313H569.286V392.958H569.998V392.603H570.709V392.249H571.421V391.894H572.133V391.539H572.844V391.185H573.556V390.83H574.268V390.475H574.979V390.121H575.691V389.766H576.047V389.412H576.758V389.057H577.47V388.702H578.181V388.348H578.893V387.993H579.605V387.638H579.96V387.284H580.672V386.929H581.384V386.574H582.095V386.22H582.807V385.865H583.518V385.51H583.874V385.156H584.586V384.801H585.297V384.446H586.009V384.092H586.365V383.737H587.076V383.382H587.788V383.028H588.144V382.673H588.855V382.318H589.211V381.964H589.923V381.609H590.634V381.254H590.99V380.9H591.702V380.545H592.414V380.19H592.769V379.836H593.481V379.481H593.837V379.127H594.548V378.772H595.26V378.417H595.616V378.063H596.327V377.708H597.039V377.353H597.395V376.999H597.751V376.644H598.462V376.289H598.818V375.935H599.53V375.58H599.885V375.225H600.597V374.871H600.953V374.516H601.664V374.161H602.02V373.807H602.376V373.452H603.088V373.097H603.443V372.743H604.155V372.388H604.511V372.033H605.222V371.679H605.578V371.324H606.29V370.969H606.646V370.615H607.357V370.26H607.713V369.905H608.069V369.551H608.78V369.196H609.136V368.842H609.492V368.487H610.204V368.132H610.559V367.778H610.915V367.423H611.627V367.068H611.983V366.714H612.339V366.359H612.694V366.004H613.406V365.65H613.762V365.295H614.117V364.94H614.829V364.586H615.185V364.231H615.541V363.876H616.252V363.522H616.608V363.167H616.964V362.812H617.32V362.458H618.031V362.103H618.387V361.748H618.743V361.394H619.455V361.039H619.81V360.684H620.166V360.33H620.522V359.975H620.878V359.62H621.589V359.266H621.945V358.911H622.301V358.557H622.657V358.202H623.013V357.847H623.368V357.493H624.08V357.138H624.436V356.783H624.792V356.429H625.147V356.074H625.503V355.719H625.859V355.365H626.571V355.01H626.926V354.655H627.282V354.301H627.638V353.946H627.994V353.591H628.35V353.237H629.061V352.882H629.417V352.527H629.773V352.173H630.129V351.818H630.484V351.463H630.84V351.109H631.196V350.754H631.552V350.399H631.908V350.045H632.264V349.69H632.619V349.335H633.331V348.981H633.687V348.626H634.043V348.272H634.398V347.917H634.754V347.562H635.11V347.208H635.466V346.853H635.822V346.498H636.177V346.144H636.533V345.789H636.889V345.434H637.245V345.08H637.601V344.725H637.956V344.37H638.312V344.016H638.668V343.661H639.024V343.306H639.38V342.952H639.735V342.597H640.091V342.242H640.447V341.888H640.803V341.533H641.159V341.178H641.514V340.824H641.87V340.469H642.226V340.114H642.582V339.76H642.938V339.405H643.293V339.05H643.649V338.696H644.005V338.341H644.361V337.987H644.717V337.632H645.072V337.277H645.428V336.923H645.784V336.568H646.14V335.859H646.496V335.504H646.851V335.149H647.207V334.795H647.563V334.44H647.919V334.085H648.275V333.731H648.63V333.376H648.986V333.021H649.342V332.667H649.698V332.312H650.054V331.957H650.409V331.248H650.765V330.893H651.121V330.539H651.477V330.184H651.833V329.829H652.189V329.475H652.544V328.765H652.9V328.411H653.256V328.056H653.612V327.702H653.968V327.347H654.323V326.638H654.679V326.283H655.035V325.928H655.391V325.574H655.747V325.219H656.102V324.864H656.458V324.155H656.814V323.8H657.17V323.446H657.526V323.091H657.881V322.736H658.237V322.027H658.593V321.672H658.949V321.318H659.305V320.963H659.66V320.254H660.016V319.899H660.372V319.544H660.728V318.835H661.084V318.48H661.439V318.126H661.795V317.416H662.151V317.062H662.507V316.707H662.863V315.998H663.218V315.643H663.574V315.289H663.93V314.579H664.286V314.225H664.642V313.87H664.997V313.161H665.353V312.806H665.709V312.451H666.065V311.742H666.421V311.387H666.776V311.033H667.132V310.323H667.488V309.969H667.844V309.259H668.2V308.905H668.556V308.195H668.911V307.841H669.267V307.131H669.623V306.422H669.979V306.068H670.335V305.358H670.69V305.004H671.046V304.294H671.402V303.94H671.758V303.23H672.114V302.876H672.469V302.166H672.825V301.812H673.181V301.102H673.537V300.748H673.893V300.038H674.248V299.684H674.604V298.974H674.96V298.265H675.316V297.91H675.672V297.201H676.027V296.492H676.383V295.783H676.739V295.428H677.095V294.719H677.451V294.009H677.806V293.3H678.162V292.945H678.518V292.236H678.874V291.527H679.23V291.172H679.585V290.463H679.941V289.753H680.297V289.044H680.653V288.689H681.009V287.98H681.364V287.271H681.72V286.561H682.076V285.852H682.432V285.143H682.788V284.434H683.143V283.724H683.499V283.015H683.855V282.306H684.211V281.596H684.567V280.887H684.922V279.823H685.278V279.114H685.634V278.404H685.99V277.695H686.346V276.986H686.701V276.276H687.057V275.567H687.413V274.858H687.769V273.794H688.125V273.085H688.481V272.021H688.836V271.311H689.192V270.247H689.548V269.538H689.904V268.829H690.26V267.765H690.615V267.055H690.971V265.991H691.327V265.282H691.683V264.218H692.039V263.509H692.394V262.445H692.75V261.381H693.106V260.317H693.462V259.253H693.818V257.834H694.173V256.77H694.529V255.706H694.885V254.643H695.241V253.579H695.597V252.515H695.952V251.451H696.308V250.032H696.664V248.613H697.02V247.195H697.376V245.776H697.731V244.358H698.087V242.939H698.443V241.166H698.799V239.747H699.155V238.328H699.51V236.2H699.866V234.073H700.222V231.945H700.578V229.462H700.934V227.334H701.289V224.851H701.645V219.886H702.001V214.921H702.357V200.735H702.001V196.124H701.645V192.932H701.289V189.741H700.934V186.549H700.578V184.421H700.222V182.647H699.866V180.874H699.51V179.101H699.155V177.328H698.799V175.909H698.443V174.136H698.087V172.362H697.731V171.299H697.376V169.88H697.02V168.816H696.664V167.397H696.308V166.333H695.952V164.915H695.597V163.851H695.241V162.432H694.885V161.368H694.529V160.659H694.173V159.595H693.818V158.886H693.462V157.822H693.106V157.112H692.75V156.403H692.394V156.048H692.039V155.339H691.683V154.63H691.327V153.92H690.971V153.211H690.615V152.502H690.26V151.792H689.904V151.083H689.548V150.374H689.192V150.019H688.836V149.31H688.481V148.601H688.125V148.246H687.769V147.537H687.413V146.827H687.057V146.118H686.701V145.763H686.346V145.054H685.99V144.345H685.634V143.99H685.278V143.281H684.922V142.571H684.567V142.217H684.211V141.507H683.855V140.798H683.499V140.444H683.143V139.734H682.788V139.38H682.432V138.67H682.076V138.316H681.72V137.606H681.364V137.252H681.009V136.542H680.653V136.188H680.297V135.478H679.941V135.124H679.585V134.414H679.23V134.06H678.874V133.35H678.518V132.996H678.162V132.641H677.806V131.932H677.451V131.577H677.095V131.222H676.739V130.868H676.383V130.159H676.027V129.804H675.672V129.449H675.316V128.74H674.96V128.385H674.604V128.031H674.248V127.321H673.893V126.967H673.537V126.612H673.181V125.903H672.825V125.548H672.469V125.193H672.114V124.839H671.758V124.129H671.402V123.775H671.046V123.42H670.69V123.065H670.335V122.711H669.979V122.356H669.623V121.647H669.267V121.292H668.911V120.937H668.556V120.583H668.2V120.228H667.844V119.874H667.488V119.164H667.132V118.81H666.776V118.455H666.421V118.1H666.065V117.746H665.709V117.391H665.353V117.036H664.997V116.682H664.642V116.327H664.286V115.972H663.93V115.618H663.574V115.263H663.218V114.908H662.863V114.554H662.507V113.844H662.151V113.49H661.795V113.135H661.439V112.78H661.084V112.426H660.728V112.071H660.372V111.716H660.016V111.362H659.66V111.007H659.305V110.652H658.949V110.298H658.593V109.943H657.881V109.588H657.526V109.234H657.17V108.879H656.814V108.525H656.458V108.17H656.102V107.815H655.747V107.461H655.391V107.106H655.035V106.751H654.679V106.397H654.323V106.042H653.968V105.687H653.612V105.333H652.9V104.978H652.544V104.623H652.189V104.269H651.833V103.914H651.477V103.559H650.765V103.205H650.409V102.85H650.054V102.495H649.698V102.141H649.342V101.786H648.63V101.431H648.275V101.077H647.919V100.722H647.563V100.367H647.207V100.013H646.496V99.6581H646.14V99.3035H645.784V98.9489H645.428V98.5942H644.717V98.2395H644.361V97.8849H644.005V97.5302H643.293V97.1756H642.938V96.8209H642.582V96.4662H641.87V96.1116H641.514V95.7569H640.803V95.4023H640.447V95.0476H640.091V94.693H639.38V94.3383H639.024V93.9837H638.668V93.629H637.956V93.2744H637.601V92.9197H636.889V92.5651H636.533V92.2104H635.822V91.8557H635.466V91.5011H634.754V91.1464H634.398V90.7918H633.687V90.4371H633.331V90.0825H632.619V89.7278H632.264V89.3731H631.552V89.0185H631.196V88.6638H630.484V88.3092H629.773V87.9546H629.417V87.5999H628.706V87.2452H627.994V86.8905H627.282V86.5359H626.926V86.1812H626.215V85.8266H625.503V85.472H625.147V85.1173H624.436V84.7626H623.724V84.408H623.368V84.0533H622.657V83.6987H621.945V83.344H621.234V82.9893H620.522V82.6347H619.81V82.28H619.099V81.9254H618.387V81.5707H618.031V81.2161H617.32V80.8614H616.608V80.5068H615.896V80.1521H615.185V79.7975H614.473V79.4428H613.762V79.0882H613.05V78.7335H612.339V78.3788H611.271V78.0242H610.559V77.6695H609.848V77.3149H609.136V76.9602H608.425V76.6056H607.713V76.2509H607.001V75.8962H605.934V75.5416H605.222V75.187H604.511V74.8323H603.443V74.4777H602.732V74.123H601.664V73.7683H600.953V73.4137H599.885V73.059H599.174V72.7043H598.462V72.3497H597.395V71.995H596.683V71.6404H595.616V71.2857H594.548V70.9311H593.481V70.5764H592.769V70.2217H591.702V69.8671H590.634V69.5124H589.567V69.1578H588.5V68.8032H587.788V68.4485H586.721V68.0938H585.297V67.7392H584.23V67.3845H583.163V67.0299H582.095V66.6752H581.028V66.3206H579.96V65.9659H578.537V65.6112H577.47V65.2566H576.047V64.9019H574.979V64.5473H573.556V64.1926H572.133V63.838H571.065V63.4833H569.642V63.1287H568.219V62.774H566.796V62.4194H565.372V62.0647H563.593V61.7101H562.17V61.3553H560.747V61.0007H559.324V60.6461H557.545V60.2914H555.766V59.9368H553.987V59.5821H552.208V59.2274H550.429V58.8728H548.65V58.5181H546.515V58.1635H544.38V57.8088H542.245V57.4542H539.754V57.0995H537.62V56.7448H535.129V56.3902H532.283V56.0356H529.792V55.6809H526.946V55.3262H523.743V54.9716H520.185V54.6169H516.627V54.2623H512.358V53.9076H507.732V53.553H502.395V53.1983H495.635V52.8437H484.605V52.489H459.699V52.8437H448.313V53.1983H440.841V53.553H434.081V53.9076H428.744V54.2623H423.407V54.6169H419.137V54.9716H414.512V55.3262H410.598V55.6809H406.684V56.0356H403.126V56.3902H399.212V56.7448H396.01V57.0995H392.807V57.4542H389.605V57.8088H386.047V58.1635H383.201V58.5181H380.354V58.8728H377.508V59.2274H374.661V59.5821H371.815V59.9368H368.969V60.2914H366.478V60.6461H363.632V61.0007H361.141V61.3553H358.65V61.7101H356.16V62.0647H353.669V62.4194H351.178V62.774H348.688V63.1287H346.553V63.4833H344.062V63.838H341.928V64.1926H339.437V64.5473H337.302V64.9019H334.811V65.2566H332.677V65.6112H330.542V65.9659H328.407V66.3206H326.272V66.6752H324.137V67.0299H322.003V67.3845H319.868V67.7392H317.733V68.0938H315.598V68.4485H313.819V68.8032H311.684V69.1578H309.549V69.5124H307.415V69.8671H305.636V70.2217H303.501V70.5764H301.722V70.9311H299.587V71.2857H297.808V71.6404H295.673V71.995H293.894V72.3497H291.759V72.7043H289.98V73.059H288.201V73.4137H286.066V73.7683H284.287V74.123H282.508V74.4777H280.729V74.8323H278.95V75.187H276.815V75.5416H275.036V75.8962H273.257V76.2509H271.478V76.6056H269.699V76.9602H267.92V77.3149H266.141V77.6695H264.362V78.0242H262.583V78.3788H260.804V78.7335H259.025V79.0882H257.246V79.4428H255.467V79.7975H253.688V80.1521H251.909V80.5068H250.13V80.8614H248.351V81.2161H246.572V81.5707H245.149V81.9254H243.37V82.28H241.591V82.6347H239.812V82.9893H238.033V83.344H236.61V83.6987H234.831V84.0533H233.052V84.408H231.273V84.7626H229.849V85.1173H228.07V85.472H226.291V85.8266H224.868V86.1812H223.089V86.5359H221.31V86.8905H219.887V87.2452H218.108V87.5999H216.329V87.9546H214.906V88.3092H213.127V88.6638H211.703V89.0185H209.924V89.3731H208.145V89.7278H206.722V90.0825H204.943V90.4371H203.52V90.7918H201.741V91.1464H199.962V91.5011H198.539V91.8557H196.76V92.2104H195.336V92.5651H193.557V92.9197H192.134V93.2744H190.355V93.629H188.932V93.9837H187.153V94.3383H185.73V94.693H183.951V95.0476H182.527V95.4023H180.748V95.7569H179.325V96.1116H177.546V96.4662H176.123V96.8209H174.344V97.1756H172.921V97.5302H171.142V97.8849H169.718V98.2395H167.939V98.5942H166.516V98.9489H165.093V99.3035H163.314V99.6581H161.891V100.013H160.112V100.367H158.689V100.722H156.91V101.077H155.486V101.431H153.707V101.786H152.284V102.141H150.505V102.495H149.082V102.85H147.659V103.205H145.88V103.559H144.456V103.914H142.677V104.269H141.254V104.623H139.475V104.978H138.052V105.333H136.273V105.687H134.85V106.042H133.426V106.397H131.647V106.751H130.224V107.106H128.445V107.461H127.022V107.815H125.243V108.17H123.82V108.525H122.041V108.879H120.618V109.234H118.839V109.588H117.415V109.943H115.636V110.298H114.213V110.652H112.79V111.007H111.011V111.362H109.588V111.716H107.809V112.071H106.385V112.426H104.606V112.78H103.183V113.135H101.404V113.49H99.6251V113.844H98.2019V114.199H96.4229V114.554H94.9996V114.908H93.2206V115.263H91.7974V115.618H90.0184V115.972H88.5952V116.327H86.8161V116.682H85.0371V117.036H83.6139V117.391H81.8349V117.746H80.4117V118.1H78.6327V118.455H76.8536V118.81H75.4304V119.164H73.6514V119.519H71.8724V119.874H70.4492V120.228H68.6702V120.583H66.8911V120.937H65.1121V121.292H63.6889V121.647H61.9099V122.001H60.1309V122.356H58.7076V122.711H56.9286V123.065H55.1496V123.42H53.3706V123.775H51.5916V124.129H49.8125V124.484H48.0335V124.839H46.6103V125.193H44.8313V125.548H43.0523V125.903H41.2733V126.257H39.4942V126.612H37.7152V126.967H35.9362V127.321H34.1572V127.676H32.0224V128.031H30.2433V128.385H28.4643V128.74H26.6853V129.095H24.9063V129.449H23.1273V129.804H20.9924V130.159H19.2134V130.513H17.0786V130.868H15.2996V131.222H13.5205V131.577H11.3857V131.932H9.60671V132.286H7.47188V132.641H5.69286V132.996H3.55804V133.35H1.42322V133.705H0V133.35H0.711608V132.996H1.77902V132.641H3.20223V132.286H4.26965V131.932H5.33706V131.577H6.76027V131.222H7.82768V130.868H9.2509V130.513H10.3183V130.159H11.3857V129.804H12.8089V129.449H13.8764V129.095H15.2996V128.74H16.367V128.385H17.4344V128.031H18.8576V127.676H19.925V127.321H21.3482V126.967H22.4156V126.612H23.4831V126.257H24.9063V125.903H25.9737V125.548H27.3969V125.193H28.4643V124.839H29.8875V124.484H30.9549V124.129H32.0224V123.775H33.4456V123.42H34.513V123.065H35.9362V122.711H37.0036V122.356H38.4268V122.001H39.4942V121.647H40.5616V121.292H41.9849V120.937H43.0523V120.583H44.4755V120.228H45.5429V119.874H46.9661V119.519H48.0335V119.164H49.1009V118.81H50.5242V118.455H51.5916V118.1H53.0148V117.746H54.0822V117.391H55.5054V117.036H56.5728V116.682H57.6402V116.327H59.0634V115.972H60.1309V115.618H61.5541V115.263H62.6215V114.908H64.0447V114.554H65.1121V114.199H66.5353V113.844H67.6027V113.49H68.6702V113.135H70.0934V112.78H71.1608V112.426H72.584V112.071H73.6514V111.716H75.0746V111.362H76.142V111.007H77.5652V110.652H78.6327V110.298H79.7001V109.943H81.1233V109.588H82.1907V109.234H83.6139V108.879H84.6813V108.525H86.1045V108.17H87.172V107.815H88.5952V107.461H89.6626V107.106H91.0858V106.751H92.1532V106.397H93.2206V106.042H94.6438V105.687H95.7112V105.333H97.1345V104.978H98.2019V104.623H99.6251V104.269H100.693V103.914H102.116V103.559H103.183V103.205H104.606V102.85H105.674V102.495H107.097V102.141H108.164V101.786H109.232V101.431H110.655V101.077H111.722V100.722H113.146V100.367H114.213V100.013H115.636V99.6581H116.704V99.3035H118.127V98.9489H119.194V98.5942H120.618V98.2395H121.685V97.8849H123.108V97.5302H124.176V97.1756H125.599V96.8209H126.666V96.4662H128.089V96.1116H129.157V95.7569H130.58V95.4023H131.647V95.0476H133.071V94.693H134.138V94.3383H135.205V93.9837H136.629V93.629H137.696V93.2744H139.119V92.9197H140.187V92.5651H141.61V92.2104H142.677V91.8557H144.101V91.5011H145.168V91.1464H146.591V90.7918H147.659V90.4371H149.082V90.0825H150.149V89.7278H151.572V89.3731H152.64V89.0185H154.063V88.6638H155.13V88.3092H156.554V87.9546H157.621V87.5999H159.044V87.2452H160.112V86.8905H161.535V86.5359H162.602V86.1812H164.026V85.8266H165.093V85.472H166.516V85.1173H167.584V84.7626H169.007V84.408H170.074V84.0533H171.497V83.6987H172.565V83.344H173.988V82.9893H175.056V82.6347H176.479V82.28H177.546V81.9254H178.969V81.5707H180.037V81.2161H181.46V80.8614H182.883V80.5068H183.951V80.1521H185.374V79.7975H186.441V79.4428H187.864V79.0882H188.932V78.7335H190.355V78.3788H191.422V78.0242H192.846V77.6695H193.913V77.3149H195.336V76.9602H196.404V76.6056H197.827V76.2509H198.894V75.8962H200.318V75.5416H201.385V75.187H202.808V74.8323H203.876V74.4777H205.299V74.123H206.722V73.7683H207.789V73.4137H209.213V73.059H210.28V72.7043H211.703V72.3497H212.771V71.995H214.194V71.6404H215.261V71.2857H216.685V70.9311H217.752V70.5764H219.175V70.2217H220.598V69.8671H221.666V69.5124H223.089V69.1578H224.156V68.8032H225.58V68.4485H226.647V68.0938H228.07V67.7392H229.138V67.3845H230.561V67.0299H231.984V66.6752H233.052V66.3206H234.475V65.9659H235.542V65.6112H236.965V65.2566H238.033V64.9019H239.456V64.5473H240.879V64.1926H241.947V63.838H243.37V63.4833H244.437V63.1287H245.86V62.774H246.928V62.4194H248.351V62.0647H249.774V61.7101H250.842V61.3553H252.265V61.0007H253.332V60.6461H254.756V60.2914H256.179V59.9368H257.246V59.5821H258.669V59.2274H259.737V58.8728H261.16V58.5181H262.227V58.1635H263.651V57.8088H265.074V57.4542H266.141V57.0995H267.565V56.7448H268.632V56.3902H270.055V56.0356H271.478V55.6809H272.546V55.3262H273.969V54.9716H275.392V54.6169H276.46V54.2623H277.883V53.9076H278.95V53.553H280.373V53.1983H281.797V52.8437H282.864V52.489H284.287V52.1343H285.711V51.7797H286.778V51.425H288.201V51.0704H289.269V50.7157H290.692V50.3611H292.115V50.0064H293.182V49.6518H294.606V49.2971H296.029V48.9425H297.096V48.5878H298.52V48.2332H299.943V47.8785H301.01V47.5238H302.433V47.1692H303.857V46.8145H304.924V46.4598H306.347V46.1052H307.77V45.7505H308.838V45.3959H310.261V45.0412H311.684V44.6866H312.752V44.3319H314.175V43.9773H315.598V43.6226H316.665V43.268H318.089V42.9133H319.512V42.5587H320.579V42.204H322.003V41.8493H323.426V41.4947H324.849V41.14H325.916V40.7854H327.34V40.4307H328.763V40.0761H329.83V39.7214H331.253V39.3667H332.677V39.0121H334.1V38.6575H335.167V38.3028H336.59V37.9481H338.014V37.5935H339.081V37.2388H340.504V36.8842H341.928V36.5295H343.351V36.1749H344.774V35.8202H345.841V35.4655H347.265V35.1109H348.688V34.7562H350.111V34.4016H351.178V34.0469H352.602V33.6923H354.025V33.3376H355.448V32.9829H356.516V32.6283H357.939V32.2737H359.362V31.919H360.785V31.5644H362.208V31.2097H363.632V30.855H364.699V30.5004H366.122V30.1457H367.545V29.791H368.969V29.4364H370.392V29.0818H371.815V28.7271H372.882V28.3724H374.306V28.0178H375.729V27.6631H377.152V27.3085H378.575V26.9538H379.999V26.5992H381.422V26.2445H382.845V25.8899H384.268V25.5352H385.336V25.1805H386.759V24.8259H388.182V24.4712H389.605V24.1166H391.028V23.7619H392.452V23.4073H393.875V23.0526H395.298V22.698H396.721V22.3433H398.145V21.9886H399.568V21.634H400.991V21.2793H402.414V20.9247H403.837V20.57H405.616V20.2154H407.04V19.8607H408.463V19.5061H409.886V19.1514H411.309V18.7968H412.733V18.442H414.156V18.0874H415.935V17.7328H417.358V17.3781H418.781V17.0235H420.204V16.6688H421.628V16.3141H423.407V15.9595H424.83V15.6049H426.609V15.2502H428.032V14.8955H429.455V14.5409H431.234V14.1862H432.658V13.8315H434.437V13.4769H436.216V13.1223H437.639V12.7676H439.418V12.413H440.841V12.0583H442.62V11.7036H444.399V11.349H446.178V10.9944H447.601V10.6397H449.38V10.285H451.159V9.93036H452.938V9.57571H454.717V9.22104H456.496V8.86639H458.275V8.51175H460.054V8.1571H461.833V7.80246H463.612V7.44775H465.747V7.09311H467.526V6.73846H469.661V6.38382H471.44V6.02917H473.575V5.6745H475.354V5.31985H477.489V4.96521H479.624V4.6105H482.114V4.25586H484.249V3.90121H486.384V3.54657H488.875V3.19193H491.365V2.83725H494.212V2.4826H496.702V2.12796H499.549V1.77332H502.751V1.41867H506.309V1.06396H509.511V0.70932H514.137V0.354706H518.762V0H551.852V0.354706H556.833V0.70932H560.747V1.06396H563.593V1.41867H566.796V1.77332H569.642V2.12796H571.777V2.4826H574.268V2.83725H576.402V3.19193H578.537V3.54657H580.316V3.90121H582.095V4.25586H583.874V4.6105H585.653V4.96521H587.432V5.31985H589.211V5.6745H590.634V6.02917H592.414V6.38382H593.837V6.73846H595.26V7.09311H596.683V7.44775H598.106V7.80246H599.53V8.1571H600.953V8.51175H602.02V8.86639H603.443V9.22104H604.511V9.57571H605.934V9.93036H607.001V10.285H608.069V10.6397H609.136V10.9944H610.204V11.349H611.271V11.7036H612.339V12.0583H613.406V12.413H614.473V12.7676H615.541V13.1223H616.608V13.4769H617.32V13.8315H618.387V14.1862H619.455V14.5409H620.522V14.8955H621.234V15.2502H622.301V15.6049H623.013V15.9595H624.08V16.3141H624.792V16.6688H625.859V17.0235H626.926V17.3781H627.638V17.7328H628.35V18.0874H629.417V18.442H630.129V18.7968H630.84V19.1514H631.908V19.5061H632.619V19.8607H633.687V20.2154H634.398V20.57H635.11V20.9247H635.822V21.2793H636.533V21.634H637.601V21.9886H638.312V22.3433H639.024V22.698H639.735V23.0526H640.447V23.4073H641.514V23.7619H642.226V24.1166H642.938V24.4712H643.649V24.8259H644.361V25.1805H645.072V25.5352H645.784V25.8899H646.496V26.2445H647.207V26.5992H647.919V26.9538H648.63V27.3085H649.342V27.6631H650.054V28.0178H650.765V28.3724H651.477V28.7271H652.189V29.0818H652.9V29.4364H653.256V29.791H653.968V30.1457H654.679V30.5004H655.391V30.855H656.102V31.2097H656.814V31.5644H657.526V31.919H657.881V32.2737H658.593V32.6283H659.305V32.9829H660.016V33.3376H660.728V33.6923H661.084V34.0469H661.795V34.4016H662.507V34.7562H662.863V35.1109H663.574V35.4655H664.286V35.8202H664.997V36.1749H665.353V36.5295H666.065V36.8842H666.776V37.2388H667.132V37.5935H667.844V37.9481H668.556V38.3028H668.911V38.6575H669.623V39.0121H669.979V39.3667H670.69V39.7214H671.402V40.0761H671.758V40.4307H672.469V40.7854H672.825V41.14H673.537V41.4947H674.248V41.8493H674.604V42.204H675.316V42.5587H675.672V42.9133H676.383V43.268H676.739V43.6226H677.451V43.9773H677.806V44.3319H678.518V44.6866H678.874V45.0412H679.585V45.3959H679.941V45.7505H680.653V46.1052H681.009V46.4598H681.364V46.8145H682.076V47.1692H682.432V47.5238H683.143V47.8785H683.499V48.2332H684.211V48.5878H684.567V48.9425H685.278V49.2971H685.634V49.6518H685.99V50.0064H686.701V50.3611H687.057V50.7157H687.413V51.0704H688.125V51.425H688.481V51.7797H688.836V52.1343H689.548V52.489H689.904V52.8437H690.26V53.1983H690.971V53.553H691.327V53.9076H691.683V54.2623H692.394V54.6169H692.75V54.9716H693.106V55.3262H693.818V55.6809H694.173V56.0356H694.529V56.3902H694.885V56.7448H695.597V57.0995H695.952V57.4542H696.308V57.8088H696.664V58.1635H697.376V58.5181H697.731V58.8728H698.087V59.2274H698.443V59.5821H698.799V59.9368H699.51V60.2914H699.866V60.6461H700.222V61.0007H700.578V61.3553H701.289V61.7101H701.645V62.0647H702.001V62.4194H702.357V62.774H702.713V63.1287H703.068V63.4833H703.78V63.838H704.136V64.1926H704.492V64.5473H704.848V64.9019H705.203V65.2566H705.559V65.6112H705.915V65.9659H706.271V66.3206H706.627V66.6752H707.338V67.0299H707.694V67.3845H708.05V67.7392H708.406V68.0938H708.761V68.4485H709.117V68.8032H709.473V69.1578H709.829V69.5124H710.185V69.8671H710.54V70.2217H710.896V70.5764H711.252V70.9311H711.964V71.2857H712.319V71.6404H712.675V71.995H713.031V72.3497H713.387V72.7043H713.743V73.059H714.098V73.4137H714.454V73.7683H714.81V74.123H715.166V74.4777H715.522V74.8323H715.878V75.187H716.233V75.5416H716.589V75.8962H716.945V76.2509H717.301V76.6056H717.656V76.9602H718.012V77.3149H718.368V77.6695H718.724V78.0242H719.08V78.7335H719.435V79.0882H719.791V79.4428H720.147V79.7975H720.503V80.1521H720.859V80.5068H721.215V80.8614H721.57V81.2161H721.926V81.5707H722.282V81.9254H722.638V82.6347H722.993V82.9893H723.349V83.344H723.705V83.6987H724.061V84.0533H724.417V84.408H724.773V84.7626H725.128V85.1173H725.484V85.472H725.84V86.1812H726.196V86.5359H726.552V86.8905H726.907V87.2452H727.263V87.5999H727.619V88.3092H727.975V88.6638H728.331V89.0185H728.686V89.3731H729.042V90.0825H729.398V90.4371H729.754V90.7918H730.11V91.1464H730.465V91.5011H730.821V92.2104H731.177V92.5651H731.533V92.9197H731.889V93.2744H732.244V93.9837H732.6V94.3383H732.956V94.693H733.312V95.4023H733.668V95.7569H734.023V96.1116H734.379V96.8209H734.735V97.1756H735.091V97.5302H735.447V98.2395H735.802V98.5942H736.158V99.3035H736.514V99.6581H736.87V100.013H737.226V100.722H737.581V101.077H737.937V101.786H738.293V102.141H738.649V102.495H739.005V103.205H739.36V103.559H739.716V104.269H740.072V104.623H740.428V105.333H740.784V105.687H741.14V106.397H741.495V107.106H741.851V107.461H742.207V108.17H742.563V108.525H742.919V109.234H743.274V109.943H743.63V110.298H743.986V111.007H744.342V111.362H744.698V112.071H745.053V112.426H745.409V113.135H745.765V113.844H746.121V114.554H746.477V115.263H746.832V115.618H747.188V116.327H747.544V117.036H747.9V117.746H748.256V118.455H748.611V119.164H748.967V119.519H749.323V120.228H749.679V120.937H750.035V121.647H750.39V122.356H750.746V123.065H751.102V123.42H751.458V124.484H751.814V125.193H752.169V125.903H752.525V126.612H752.881V127.321H753.237V128.385H753.593V129.095H753.948V129.804H754.304V130.513H754.66V131.222H755.016V131.932H755.372V132.996H755.727V133.705H756.083V134.414H756.439V135.478H756.795V136.542H757.151V137.252H757.506V138.316H757.862V139.38H758.218V140.089H758.574V141.153H758.93V142.217H759.286V142.926H759.641V143.99H759.997V145.054H760.353V146.118H760.709V147.182H761.065V148.246H761.42V149.665H761.776V150.729H762.132V152.147H762.488V153.211H762.844V154.275H763.199V155.694H763.555V156.758H763.911V158.531H764.267V159.95H764.623V161.723H764.978V163.496H765.334V164.915H765.69V166.688H766.046V168.461H766.402V170.589H766.757V173.072H767.113V175.554H767.469V178.392H767.825V180.874H768.181V185.13H768.536V191.159H768.892V210.665H768.536V214.566H768.181V218.822H767.825V222.724H767.469V225.561H767.113V228.043H766.757V230.171H766.402V232.299H766.046V234.427H765.69V236.91H765.334V239.038H764.978V240.811H764.623V242.23H764.267V243.648H763.911V245.421H763.555V246.84H763.199V248.259H762.844V250.032H762.488V251.451H762.132V253.224H761.776V254.643H761.42V255.706H761.065V257.125H760.709V258.189H760.353V259.253H759.997V260.672H759.641V261.736H759.286V263.154H758.93V264.218H758.574V265.282H758.218V266.701H757.862V267.765H757.506V268.829H757.151V270.247H756.795V271.311H756.439V272.375H756.083V273.085H755.727V274.149H755.372V275.213H755.016V276.276H754.66V277.34H754.304V278.404H753.948V279.114H753.593V280.178H753.237V281.242H752.881V282.306H752.525V283.37H752.169V284.079H751.814V285.143H751.458V285.852H751.102V286.916H750.746V287.625H750.39V288.689H750.035V289.399H749.679V290.463H749.323V291.172H748.967V291.881H748.611V292.591H748.256V293.655H747.9V294.364H747.544V295.073H747.188V295.783H746.832V296.492H746.477V297.556H746.121V298.265H745.765V298.62H745.409V299.329H745.053V300.038H744.698V300.748H744.342V301.457H743.986V302.166H743.63V302.876H743.274V303.585H742.919V304.294H742.563V305.004H742.207V305.713H741.851V306.068H741.495V306.777H741.14V307.486H740.784V308.195H740.428V308.55H740.072V309.259H739.716V309.969H739.36V310.323H739.005V311.033H738.649V311.742H738.293V312.097H737.937V312.806H737.581V313.161H737.226V313.87H736.87V314.579H736.514V314.934H736.158V315.643H735.802V316.353H735.447V316.707H735.091V317.416H734.735V317.771H734.379V318.126H734.023V318.835H733.668V319.19H733.312V319.899H732.956V320.254H732.6V320.963H732.244V321.318H731.889V321.672H731.533V322.382H731.177V322.736H730.821V323.446H730.465V323.8H730.11V324.51H729.754V324.864H729.398V325.219H729.042V325.928H728.686V326.283H728.331V326.638H727.975V327.347H727.619V327.702H727.263V328.056H726.907V328.411H726.552V329.12H726.196V329.475H725.84V329.829H725.484V330.184H725.128V330.893H724.773V331.248H724.417V331.603H724.061V331.957H723.705V332.667H723.349V333.021H722.993V333.376H722.638V333.731H722.282V334.44H721.926V334.795H721.57V335.149H721.215V335.504H720.859V335.859H720.503V336.213H720.147V336.568H719.791V336.923H719.435V337.632H719.08V337.987H718.724V338.341H718.368V338.696H718.012V339.05H717.656V339.405H717.301V339.76H716.945V340.114H716.589V340.824H716.233V341.178H715.878V341.533H715.522V341.888H715.166V342.242H714.81V342.597H714.454V342.952H714.098V343.306H713.743V343.661H713.387V344.016H713.031V344.37H712.675V344.725H712.319V345.08H711.964V345.434H711.608V345.789H711.252V346.144H710.896V346.498H710.54V346.853H710.185V347.208H709.829V347.562H709.473V347.917H709.117V348.272H708.761V348.626H708.406V348.981H708.05V349.335H707.694V349.69H707.338V350.045H706.982V350.399H706.627V350.754H706.271V351.109H705.915V351.463H705.559V351.818H705.203V352.173H704.848V352.527H704.492V352.882H704.136V353.237H703.424V353.591H703.068V353.946H702.713V354.301H702.357V354.655H702.001V355.01H701.645V355.365H701.289V355.719H700.934V356.074H700.578V356.429H700.222V356.783H699.51V357.138H699.155V357.493H698.799V357.847H698.443V358.202H698.087V358.557H697.731V358.911H697.376V359.266H696.664V359.62H696.308V359.975H695.952V360.33H695.597V360.684H694.885V361.039H694.529V361.394H694.173V361.748H693.818V362.103H693.462V362.458H692.75V362.812H692.394V363.167H692.039V363.522H691.683V363.876H690.971V364.231H690.615V364.586H690.26V364.94H689.904V365.295H689.548V365.65H688.836V366.004H688.481V366.359H688.125V366.714H687.413V367.068H687.057V367.423H686.701V367.778H685.99V368.132H685.634V368.487H685.278V368.842H684.567V369.196H684.211V369.551H683.855V369.905H683.143V370.26H682.788V370.615H682.076V370.969H681.72V371.324H681.364V371.679H680.653V372.033H680.297V372.388H679.941V372.743H679.23V373.097H678.874V373.452H678.162V373.807H677.806V374.161H677.095V374.516H676.739V374.871H676.027V375.225H675.672V375.58H674.96V375.935H674.604V376.289H673.893V376.644H673.537V376.999H672.825V377.353H672.469V377.708H671.758V378.063H671.402V378.417H670.69V378.772H670.335V379.127H669.979V379.481H669.267V379.836H668.556V380.19H668.2V380.545H667.488V380.9H666.776V381.254H666.421V381.609H665.709V381.964H664.997V382.318H664.642V382.673H663.93V383.028H663.218V383.382H662.863V383.737H662.151V384.092H661.795V384.446H661.084V384.801H660.372V385.156H660.016V385.51H659.305V385.865H658.593V386.22H657.881V386.574H657.17V386.929H656.814V387.284H656.102V387.638H655.391V387.993H654.679V388.348H653.968V388.702H653.612V389.057H652.9V389.412H652.189V389.766H651.477V390.121H650.765V390.475H650.409V390.83H649.698V391.185H648.986V391.539H648.275V391.894H647.563V392.249H646.851V392.603H646.14V392.958H645.428V393.313H644.717V393.667H644.005V394.022H643.293V394.377H642.582V394.731H641.87V395.086H641.159V395.441H640.447V395.795H639.735V396.15H639.024V396.505H638.312V396.859H637.245V397.214H636.533V397.569H635.822V397.923H635.11V398.278H634.043V398.633H633.331V398.987H632.619V399.342H631.908V399.697H631.196V400.051H630.129V400.406H629.417V400.76H628.706V401.115H627.994V401.47H626.926V401.824H626.215V402.179H625.147V402.534H624.436V402.888H623.368V403.243H622.657V403.598H621.589V403.952H620.878V404.307H619.81V404.662H619.099V405.016H618.031V405.371H617.32V405.726H616.252V406.08H615.541V406.435H614.473V406.79H613.406V407.144H612.339V407.499H611.271V407.854H610.204V408.208H609.492V408.563H608.425V408.918H607.357V409.272H606.29V409.627H605.222V409.982H604.155V410.336H603.088V410.691H602.02V411.045H600.953V411.4H599.53V411.755H598.462V412.109H597.395V412.464H596.327V412.819H595.26V413.173H593.837V413.528H592.769V413.883H591.346V414.237H589.923V414.592H588.855V414.947H587.432V415.301H586.009V415.656H584.586V416.011H583.518V416.365H582.095V416.72H580.672V417.075H578.893V417.429H577.47V417.784H575.691V418.139H574.268V418.493H572.488V418.848H571.065V419.203H569.286V419.557H567.507V419.912H565.372V420.267H563.593V420.621H561.459V420.976H559.68V421.33H557.545V421.685H555.054V422.04H552.208V422.394H549.717V422.749H547.226V423.104H544.024V423.458H540.11V423.813H536.552V424.168H531.571V424.522H524.811V424.877" fill="#ECF2F7"/>
</svg>
