<?xml version="1.0" encoding="UTF-8"?>
<svg id="Layer_2" data-name="Layer 2" xmlns="http://www.w3.org/2000/svg" viewBox="0 0 15.58 16.88">
  <defs>
    <style>
      .cls-1 {
        fill: rgba(0, 119, 201, .5);
      }
    </style>
  </defs>
  <g id="Layer_1-2" data-name="Layer 1">
    <path class="cls-1" d="M7.79,1.3c1.54,0,3.05.46,4.33,1.31,1.28.86,2.28,2.07,2.87,3.5.59,1.42.74,2.99.44,4.5-.3,1.51-1.04,2.9-2.13,3.99-1.09,1.09-2.48,1.83-3.99,2.13-1.51.3-3.08.15-4.5-.44-1.42-.59-2.64-1.59-3.5-2.87-.86-1.28-1.31-2.79-1.31-4.33,0-2.07.82-4.05,2.28-5.51,1.46-1.46,3.44-2.28,5.51-2.28ZM7.79,15.46c1.26,0,2.49-.37,3.54-1.07,1.05-.7,1.87-1.7,2.35-2.86.48-1.16.61-2.45.36-3.68-.25-1.24-.85-2.37-1.74-3.26-.89-.89-2.03-1.5-3.26-1.74-1.24-.25-2.52-.12-3.68.36-1.16.48-2.16,1.3-2.86,2.35-.7,1.05-1.07,2.28-1.07,3.54,0,1.69.67,3.31,1.87,4.51s2.82,1.87,4.51,1.87Z"/>
    <path class="cls-1" d="M7.38,6.2V.94c0-.25.07-.49.21-.67.13-.18.31-.28.5-.28s.37.1.5.28c.13.18.21.42.21.67v5.65c0,.25-.07.49-.21.67l-2.12,2.82c-.13.17-.31.27-.5.26s-.36-.1-.49-.28c-.13-.17-.21-.41-.21-.66,0-.25.07-.48.2-.66l1.92-2.55Z"/>
  </g>
</svg>