<svg width="86" height="25" viewBox="0 0 86 25" fill="none" xmlns="http://www.w3.org/2000/svg">
<path d="M22.7676 0.29541H26.6929V24.5299H22.7676V0.29541Z" fill="#0E0E0E"/>
<path d="M40.3457 16.8502C40.3457 20.6048 37.2737 20.9462 36.2497 20.9462C33.8604 20.9462 33.5191 18.7275 33.5191 17.5328V8.14624H29.5938V17.3622C29.5938 19.5808 30.2764 21.6288 31.6417 22.8235C32.8364 24.0181 34.3724 24.5301 36.2497 24.5301C37.615 24.5301 39.3217 24.1888 40.3457 23.1648V24.5301H44.271V8.14624H40.3457V16.8502Z" fill="#0E0E0E"/>
<path d="M51.9497 2.17285H48.0244V8.14615H45.123V11.9008H48.0244V24.53H51.9497V11.9008H54.851V8.14615H51.9497V2.17285Z" fill="#0E0E0E"/>
<path d="M67.1385 19.5806C66.2851 20.2633 65.0905 20.7753 63.8958 20.7753C61.1652 20.7753 59.2878 18.7273 59.2878 15.9966C59.2878 13.266 61.1652 11.3887 63.8958 11.3887C65.0905 11.3887 66.2851 11.73 67.1385 12.5833L67.6505 13.0953L70.3811 10.5353L69.6984 10.0233C68.1625 8.65801 66.1145 7.80469 63.8958 7.80469C59.1172 7.80469 55.5332 11.3887 55.5332 16.1673C55.5332 20.9459 59.1172 24.5299 63.8958 24.5299C66.1145 24.5299 68.1625 23.6766 69.6984 22.3113L70.3811 21.7993L67.6505 19.0686L67.1385 19.5806Z" fill="#0E0E0E"/>
<path d="M84.2064 9.51135C83.0117 8.31669 81.817 7.8047 79.9397 7.8047C78.5744 7.8047 77.2091 8.14602 76.1851 9.17002V0.29541H72.2598V24.5299H76.1851V15.4846C76.1851 11.73 78.7451 11.3887 79.769 11.3887C82.1584 11.3887 81.9877 13.6073 81.9877 14.802V24.3593H85.913V14.9726C85.913 12.754 85.401 10.706 84.2064 9.51135Z" fill="#0E0E0E"/>
<path d="M63.7267 18.8981C65.2348 18.8981 66.4574 17.6755 66.4574 16.1674C66.4574 14.6593 65.2348 13.4368 63.7267 13.4368C62.2186 13.4368 60.9961 14.6593 60.9961 16.1674C60.9961 17.6755 62.2186 18.8981 63.7267 18.8981Z" fill="#0E0E0E"/>
<path d="M17.3053 18.5566C15.94 19.9219 13.892 20.7752 11.6733 20.7752C7.4067 20.7752 4.33472 17.3619 4.33472 12.7539C4.33472 8.14597 7.4067 4.73266 11.844 4.73266C13.892 4.73266 15.94 5.58598 17.476 7.12197L17.988 7.63397L20.5479 5.07399L20.0359 4.56199C17.8173 2.34334 14.916 1.14868 11.844 1.14868C5.35871 0.978011 0.580078 6.09798 0.580078 12.7539C0.580078 19.4099 5.35871 24.5299 11.6733 24.5299C14.7453 24.5299 17.8173 23.3352 19.8653 21.1165L20.3773 20.6046L17.8173 18.0446L17.3053 18.5566Z" fill="#0E0E0E"/>
</svg>
