<svg width="34" height="32" viewBox="0 0 34 32" fill="none" xmlns="http://www.w3.org/2000/svg">
<path opacity="0.5" d="M17 2C11.9375 2 7.375 4.6875 4.875 9C2.3125 13.375 2.3125 18.6875 4.875 23C7.375 27.375 11.9375 30 17 30C22 30 26.5625 27.375 29.0625 23C31.625 18.6875 31.625 13.375 29.0625 9C26.5625 4.6875 22 2 17 2ZM17 32C11.25 32 6 29 3.125 24C0.25 19.0625 0.25 13 3.125 8C6 3.0625 11.25 0 17 0C22.6875 0 27.9375 3.0625 30.8125 8C33.6875 13 33.6875 19.0625 30.8125 24C27.9375 29 22.6875 32 17 32ZM12.9375 10.5625L13.625 11.3125L17 14.625L20.3125 11.3125L21 10.5625L22.4375 12L21.6875 12.6875L18.375 16L21.6875 19.375L22.4375 20.0625L21 21.5L20.3125 20.75L17 17.4375L13.625 20.75L12.9375 21.5L11.5 20.0625L12.25 19.375L15.5625 16L12.25 12.6875L11.5 12L12.9375 10.5625Z" fill="#7D7D7D"/>
</svg>
