<svg width="182" height="27" viewBox="0 0 182 27" fill="none" xmlns="http://www.w3.org/2000/svg">
<path d="M18.7863 17.83L9.84922 8.99558L18.7863 0.161133H9.84922L0.912109 8.99558L5.38066 13.4624L9.84922 17.83L14.3178 22.1976L18.7863 17.83Z" fill="#0E0E0E"/>
<path d="M25.142 13.4624L20.6734 8.99552L16.2049 4.62793L11.8356 8.99552L20.6734 17.83L11.7363 26.6644H20.6734L25.142 22.2968L29.6105 17.83L25.142 13.4624Z" fill="#0E0E0E"/>
<path d="M40.7315 8.99575C39.4406 8.99575 38.3483 9.3928 37.5539 10.2862C36.7595 11.1795 36.3623 12.3707 36.3623 13.9589C36.3623 15.5471 36.7595 16.7383 37.4546 17.6317C38.249 18.525 39.242 18.9221 40.6322 18.9221C41.5259 18.9221 42.4196 18.7236 43.5119 18.4258V19.7162C42.6182 20.014 41.6252 20.2125 40.4336 20.2125C38.6462 20.2125 37.256 19.7162 36.263 18.6243C35.2699 17.5324 34.7734 15.9442 34.7734 13.9589C34.7734 12.6685 34.972 11.5766 35.4685 10.6832C35.9651 9.78985 36.6602 8.99575 37.4546 8.49943C38.249 8.00311 39.3413 7.70532 40.6322 7.70532C41.9231 7.70532 43.0154 7.90385 44.0084 8.40017L43.4126 9.59133C42.6182 9.29354 41.7245 8.99575 40.7315 8.99575Z" fill="#0E0E0E"/>
<path d="M53.1439 16.8375C53.1439 17.9293 52.7467 18.7235 51.9523 19.319C51.1579 19.9146 50.1649 20.2124 48.7747 20.2124C47.2852 20.2124 46.1928 20.0139 45.3984 19.6168V18.2271C45.8949 18.4257 46.4908 18.6242 46.9873 18.7235C47.4838 18.8227 48.1789 18.922 48.7747 18.922C49.7677 18.922 50.4628 18.7235 50.86 18.4257C51.3565 18.0286 51.5551 17.5323 51.5551 16.9367C51.5551 16.5397 51.4558 16.1426 51.2572 15.9441C51.0586 15.6463 50.7607 15.4478 50.3635 15.15C49.9663 14.9514 49.3705 14.6537 48.5761 14.3559C47.4838 13.9588 46.5901 13.4625 46.1928 12.8669C45.6963 12.2713 45.4977 11.5765 45.4977 10.6831C45.4977 9.78975 45.8949 8.99564 46.5901 8.40006C47.2852 7.80448 48.2782 7.60596 49.3705 7.60596C50.5621 7.60596 51.6544 7.80448 52.7467 8.3008L52.3495 9.49196C51.3565 9.09491 50.3635 8.89638 49.3705 8.89638C48.5761 8.89638 48.0796 9.09491 47.5831 9.3927C47.1859 9.69049 46.9873 10.1868 46.9873 10.7824C46.9873 11.1794 47.0866 11.5765 47.1859 11.775C47.3845 12.0728 47.5831 12.2713 47.9803 12.4699C48.3775 12.6684 48.874 12.9662 49.6684 13.264C50.9593 13.7603 51.853 14.2566 52.3495 14.7529C52.9453 15.3485 53.1439 16.0433 53.1439 16.8375Z" fill="#0E0E0E"/>
<path d="M62.5775 16.8375C62.5775 17.9293 62.1803 18.7235 61.3859 19.319C60.5915 19.9146 59.5985 20.2124 58.2083 20.2124C56.7188 20.2124 55.6264 20.0139 54.832 19.6168V18.2271C55.3285 18.4257 55.9243 18.6242 56.4209 18.7235C56.9174 18.8227 57.6125 18.922 58.2083 18.922C59.2013 18.922 59.8964 18.7235 60.2936 18.4257C60.7901 18.0286 60.9887 17.5323 60.9887 16.9367C60.9887 16.5397 60.8894 16.1426 60.6908 15.9441C60.4922 15.6463 60.1943 15.4478 59.7971 15.15C59.3999 14.9514 58.8041 14.6537 58.0097 14.3559C56.9174 13.9588 56.0236 13.4625 55.6264 12.8669C55.1299 12.2713 54.9313 11.5765 54.9313 10.6831C54.9313 9.78975 55.3285 8.99564 56.0236 8.40006C56.7188 7.80448 57.7118 7.60596 58.8041 7.60596C59.9957 7.60596 61.088 7.80448 62.1803 8.3008L61.7831 9.49196C60.7901 9.09491 59.7971 8.89638 58.8041 8.89638C58.0097 8.89638 57.5132 9.09491 57.0167 9.3927C56.6195 9.69049 56.4209 10.1868 56.4209 10.7824C56.4209 11.1794 56.5202 11.5765 56.6195 11.775C56.8181 12.0728 57.0167 12.2713 57.4139 12.4699C57.8111 12.6684 58.3076 12.9662 59.102 13.264C60.3929 13.7603 61.2866 14.2566 61.7831 14.7529C62.2796 15.3485 62.5775 16.0433 62.5775 16.8375Z" fill="#0E0E0E"/>
<path d="M74.9891 13.7601C74.9891 15.7454 74.3933 17.3336 73.301 18.4255C72.2087 19.5174 70.6199 20.113 68.5345 20.113H64.5625V7.90356H68.7331C70.7192 7.90356 72.2087 8.39988 73.301 9.39252C74.3933 10.3851 74.9891 11.8741 74.9891 13.7601ZM71.6129 13.8594C71.6129 12.7675 71.4143 11.8741 70.9178 11.3778C70.5206 10.8815 69.8255 10.5837 68.9318 10.5837H67.9387V17.4329H68.6338C69.6269 17.4329 70.322 17.1351 70.8185 16.5395C71.4143 15.9439 71.6129 15.0505 71.6129 13.8594Z" fill="#0E0E0E"/>
<path d="M81.5451 20.3117C79.9563 20.3117 78.7647 19.9146 77.871 19.0213C76.9773 18.2272 76.5801 17.036 76.5801 15.4478C76.5801 13.8596 76.9773 12.6684 77.7717 11.775C78.5661 10.8817 79.7577 10.4846 81.2472 10.4846C82.6375 10.4846 83.7298 10.8817 84.5242 11.5765C85.3186 12.2714 85.7158 13.3633 85.7158 14.7529V16.2419H79.857C79.857 16.7382 80.0556 17.1353 80.4528 17.5323C80.85 17.8301 81.3465 18.0286 81.9423 18.0286C82.5381 18.0286 83.0347 17.9294 83.5312 17.8301C84.0277 17.7308 84.5242 17.5323 85.12 17.2345V19.6169C84.6235 19.9146 84.127 20.0139 83.5312 20.1132C82.9354 20.2124 82.3395 20.3117 81.5451 20.3117ZM81.3465 12.7677C80.9493 12.7677 80.6514 12.8669 80.3535 13.1647C80.0556 13.3633 79.9563 13.7603 79.857 14.2566H82.6374C82.6374 13.7603 82.5381 13.4625 82.2402 13.1647C82.1409 12.8669 81.843 12.7677 81.3465 12.7677Z" fill="#0E0E0E"/>
<path d="M94.8502 17.2345C94.8502 18.2271 94.5523 19.0212 93.8572 19.5175C93.1621 20.0139 92.1691 20.3117 90.8782 20.3117C90.1831 20.3117 89.5873 20.3117 89.0908 20.2124C88.5943 20.1131 87.9985 20.0139 87.502 19.8153V17.2345C87.9985 17.433 88.5943 17.6315 89.1901 17.8301C89.7859 17.9293 90.2824 18.0286 90.7789 18.0286C91.474 18.0286 91.8712 17.8301 91.8712 17.5323C91.8712 17.3338 91.7719 17.2345 91.5733 17.1352C91.3747 17.036 90.7789 16.7382 89.8852 16.3411C88.9915 15.9441 88.3957 15.547 88.0978 15.15C87.7999 14.6536 87.6013 14.1573 87.6013 13.4625C87.6013 12.5691 87.8992 11.8743 88.5943 11.3779C89.2894 10.8816 90.1831 10.6831 91.474 10.6831C92.0698 10.6831 92.6656 10.7824 93.2614 10.8816C93.8572 10.9809 94.3537 11.1794 94.9495 11.4772L94.0558 13.5617C93.6586 13.3632 93.1621 13.1647 92.6656 13.0654C92.1691 12.9662 91.7719 12.8669 91.474 12.8669C90.9775 12.8669 90.6796 12.9662 90.6796 13.264C90.6796 13.4625 90.7789 13.5617 90.9775 13.661C91.1761 13.7603 91.6726 13.9588 92.5663 14.3559C93.2614 14.6536 93.7579 14.8522 94.0558 15.15C94.3537 15.4477 94.6516 15.7455 94.7509 16.0433C94.7509 16.2419 94.8502 16.7382 94.8502 17.2345Z" fill="#0E0E0E"/>
<path d="M96.6387 8.30072C96.6387 7.8044 96.738 7.40735 97.0359 7.20882C97.3338 7.01029 97.731 6.81177 98.3268 6.81177C98.9226 6.81177 99.4191 6.91103 99.6177 7.20882C99.9156 7.40735 100.015 7.8044 100.015 8.30072C100.015 9.29335 99.4191 9.69041 98.2275 9.69041C97.1352 9.78967 96.6387 9.29335 96.6387 8.30072ZM99.9156 20.1131H96.6387V10.683H99.9156V20.1131Z" fill="#0E0E0E"/>
<path d="M111.136 10.6831V12.2714L109.845 12.7677C110.043 13.0655 110.142 13.4625 110.142 13.8596C110.142 14.8522 109.745 15.6463 109.05 16.2419C108.355 16.8375 107.263 17.036 105.873 17.036C105.475 17.036 105.277 17.036 105.078 16.9367C104.979 17.036 104.979 17.2345 104.979 17.3338C104.979 17.5323 105.078 17.6316 105.376 17.7308C105.674 17.8301 105.972 17.8301 106.369 17.8301H107.958C110.043 17.8301 111.136 18.7235 111.136 20.5102C111.136 21.7014 110.639 22.5948 109.646 23.1903C108.653 23.7859 107.263 24.183 105.475 24.183C104.184 24.183 103.092 23.9844 102.397 23.4881C101.702 23.0911 101.305 22.3962 101.305 21.6021C101.305 20.5102 102 19.7161 103.39 19.4183C103.092 19.3191 102.894 19.1205 102.596 18.8227C102.397 18.525 102.298 18.3264 102.298 18.0286C102.298 17.7308 102.397 17.4331 102.496 17.2345C102.695 17.036 102.993 16.7382 103.489 16.4404C102.993 16.2419 102.596 15.8448 102.298 15.4478C102 14.9515 101.9 14.4552 101.9 13.7603C101.9 12.7677 102.298 11.9736 102.993 11.378C103.688 10.7824 104.681 10.4846 105.972 10.4846C106.17 10.4846 106.468 10.4846 106.866 10.5839C107.263 10.5839 107.561 10.6831 107.759 10.6831H111.136ZM103.986 21.3043C103.986 21.6021 104.085 21.8006 104.383 21.9992C104.681 22.1977 105.078 22.1977 105.575 22.1977C106.369 22.1977 106.965 22.0984 107.461 21.8999C107.958 21.7014 108.156 21.4036 108.156 21.1058C108.156 20.808 108.057 20.7088 107.759 20.6095C107.461 20.5102 107.064 20.411 106.468 20.411H105.177C104.78 20.411 104.582 20.5102 104.284 20.6095C104.085 20.808 103.986 21.0065 103.986 21.3043ZM104.979 13.7603C104.979 14.7529 105.277 15.2493 105.972 15.2493C106.27 15.2493 106.568 15.15 106.667 14.8522C106.866 14.6537 106.965 14.2566 106.965 13.7603C106.965 12.7677 106.667 12.2714 105.972 12.2714C105.376 12.2714 104.979 12.7677 104.979 13.7603Z" fill="#0E0E0E"/>
<path d="M118.485 20.1131V14.9514C118.485 14.3559 118.386 13.8595 118.187 13.5617C117.989 13.264 117.691 13.0654 117.293 13.0654C116.698 13.0654 116.3 13.264 116.102 13.7603C115.903 14.1573 115.705 14.9514 115.705 16.0433V20.2124H112.428V10.7824H114.91L115.307 11.9735H115.506C115.804 11.5765 116.201 11.1794 116.698 10.9809C117.194 10.7824 117.79 10.6831 118.386 10.6831C119.478 10.6831 120.273 10.9809 120.868 11.5765C121.464 12.1721 121.762 13.0654 121.762 14.1573V20.3117H118.485V20.1131Z" fill="#0E0E0E"/>
<path d="M132.188 20.113L130.699 16.2417H125.833L124.343 20.113H122.953L127.819 7.90356H129.01L133.777 20.113H132.188ZM130.202 14.9513L128.812 11.1793C128.613 10.6829 128.415 10.0874 128.216 9.39252C128.117 9.88883 127.918 10.4844 127.72 11.1793L126.329 14.9513H130.202Z" fill="#0E0E0E"/>
<path d="M142.615 20.113L140.927 14.7528C140.828 14.455 140.629 13.6609 140.332 12.569H140.232C140.034 13.5617 139.835 14.2565 139.636 14.8521L137.948 20.2123H136.359L133.877 11.0801H135.366C135.962 13.3631 136.359 15.1499 136.757 16.341C137.055 17.5322 137.253 18.3263 137.253 18.7234H137.352C137.452 18.4256 137.551 18.0285 137.65 17.5322C137.75 17.0359 137.948 16.6388 138.048 16.341L139.736 11.0801H141.225L142.814 16.341C143.112 17.3337 143.311 18.1278 143.41 18.7234H143.509C143.509 18.5248 143.608 18.227 143.708 17.83C143.807 17.4329 144.403 15.1499 145.396 11.0801H146.786L144.304 20.2123H142.615V20.113Z" fill="#0E0E0E"/>
<path d="M154.035 20.1132L153.737 18.8228H153.638C153.141 19.4184 152.744 19.8154 152.248 20.014C151.751 20.2125 151.255 20.3118 150.559 20.3118C149.666 20.3118 148.971 20.1132 148.474 19.6169C147.978 19.1206 147.68 18.525 147.68 17.6316C147.68 15.7456 149.169 14.8523 152.148 14.753L153.737 14.6537V14.0582C153.737 13.3633 153.538 12.7677 153.241 12.4699C152.943 12.1722 152.446 11.9736 151.751 11.9736C150.957 11.9736 150.162 12.1722 149.169 12.6685L148.772 11.5766C149.269 11.3781 149.666 11.1795 150.262 10.981C150.758 10.8817 151.354 10.7825 151.85 10.7825C152.943 10.7825 153.737 10.981 154.234 11.4773C154.73 11.9736 155.028 12.7677 155.028 13.7604V20.014H154.035V20.1132ZM150.857 19.1206C151.751 19.1206 152.347 18.9221 152.843 18.4258C153.34 17.9294 153.538 17.3339 153.538 16.4405V15.6464L152.148 15.7456C151.056 15.7456 150.262 15.9442 149.765 16.242C149.269 16.5397 149.07 17.0361 149.07 17.6316C149.07 18.128 149.269 18.525 149.566 18.7235C149.964 19.0213 150.361 19.1206 150.857 19.1206Z" fill="#0E0E0E"/>
<path d="M162.077 10.7825C162.474 10.7825 162.871 10.7825 163.169 10.8817L162.971 12.1722C162.573 12.0729 162.276 12.0729 161.978 12.0729C161.282 12.0729 160.587 12.3707 160.091 12.9663C159.594 13.5618 159.296 14.356 159.296 15.2493V20.1132H157.906V10.981H158.999L159.197 12.6685H159.296C159.594 12.0729 160.091 11.5766 160.488 11.2788C160.985 10.981 161.481 10.7825 162.077 10.7825Z" fill="#0E0E0E"/>
<path d="M171.114 18.9222C170.419 19.8156 169.426 20.3119 168.135 20.3119C166.943 20.3119 166.049 19.9148 165.354 19.1207C164.659 18.3266 164.361 17.1355 164.361 15.6465C164.361 14.1576 164.659 12.9664 165.354 12.1723C166.049 11.3782 166.943 10.8819 168.135 10.8819C169.326 10.8819 170.319 11.3782 171.015 12.2716H171.114L171.015 11.5767V10.9811V7.10986H172.405V20.1134H171.312L171.114 18.9222ZM168.333 19.1207C169.326 19.1207 169.922 18.8229 170.419 18.3266C170.816 17.8303 171.015 16.9369 171.015 15.845V15.5473C171.015 14.2568 170.816 13.3635 170.319 12.7679C169.922 12.1723 169.227 11.9738 168.234 11.9738C167.44 11.9738 166.844 12.2716 166.347 12.9664C165.95 13.562 165.652 14.4554 165.652 15.6465C165.652 16.8377 165.851 17.731 166.248 18.3266C166.844 18.8229 167.44 19.1207 168.333 19.1207Z" fill="#0E0E0E"/>
<path d="M181.243 17.6316C181.243 18.525 180.945 19.1206 180.25 19.6169C179.655 20.1132 178.761 20.3118 177.569 20.3118C176.378 20.3118 175.385 20.1132 174.689 19.7162V18.4258C175.087 18.6243 175.583 18.8228 176.08 18.9221C176.576 19.0213 177.073 19.1206 177.569 19.1206C178.264 19.1206 178.86 19.0213 179.257 18.8228C179.655 18.6243 179.853 18.2272 179.853 17.7309C179.853 17.3339 179.655 17.0361 179.357 16.8375C179.059 16.5397 178.463 16.242 177.569 15.9442C176.675 15.6464 176.08 15.3486 175.782 15.1501C175.385 14.9515 175.186 14.6537 174.987 14.356C174.789 14.0582 174.689 13.6611 174.689 13.2641C174.689 12.5692 174.987 11.9736 175.583 11.4773C176.179 10.981 176.973 10.7825 178.066 10.7825C179.059 10.7825 180.052 10.981 180.945 11.3781L180.449 12.4699C179.555 12.0729 178.661 11.8744 177.966 11.8744C177.271 11.8744 176.775 11.9736 176.477 12.1722C176.179 12.3707 175.98 12.6685 175.98 13.0655C175.98 13.2641 176.08 13.5618 176.179 13.6611C176.278 13.8596 176.477 13.9589 176.775 14.1574C177.073 14.356 177.569 14.5545 178.364 14.8523C179.456 15.2493 180.151 15.6464 180.548 16.0434C181.045 16.5397 181.243 17.0361 181.243 17.6316Z" fill="#0E0E0E"/>
</svg>
