<svg width="155" height="20" viewBox="0 0 155 20" fill="none" xmlns="http://www.w3.org/2000/svg">
<path d="M10.0204 0.829346C8.60929 0.829346 7.3178 1.08757 6.18165 1.59369C5.04577 2.09982 4.06285 2.80702 3.26072 3.69625C2.4607 4.58547 1.83699 5.64641 1.40877 6.85127C0.98029 8.05375 0.761719 9.36867 0.761719 10.7619C0.761719 12.0874 0.967433 13.3288 1.37046 14.4506C1.77376 15.575 2.35758 16.56 3.10513 17.377C3.85058 18.1945 4.76606 18.8425 5.82454 19.3039C6.88066 19.7632 8.07139 19.9963 9.36497 19.9963C11.1689 19.9963 12.7984 19.6573 14.2095 18.9901L14.3018 18.9456V16.9148L14.0625 17.0487C12.7732 17.7686 11.2571 18.1329 9.55389 18.1329C8.44949 18.1329 7.46658 17.9339 6.63716 17.5402C5.80565 17.1439 5.10008 16.6044 4.54355 15.9311C3.98492 15.2551 3.5546 14.4553 3.26886 13.5531C2.98128 12.6446 2.83644 11.6644 2.83644 10.6373C2.83644 9.4917 2.99807 8.42044 3.31924 7.45502C3.63857 6.49357 4.10667 5.64879 4.71148 4.9437C5.31419 4.24074 6.06804 3.68593 6.9481 3.29013C7.82999 2.89407 8.85462 2.69511 9.99497 2.69511C11.4334 2.69511 12.8025 3.01894 14.0688 3.6563L14.3018 3.77271V1.59264L14.1993 1.55163C12.977 1.07275 11.5701 0.829346 10.0204 0.829346Z" fill="#0E0E0E"/>
<path d="M27.034 11.9945C26.6538 11.5667 26.171 11.1516 25.5997 10.7598C25.0348 10.3746 24.3649 9.97216 23.6069 9.56366C22.8908 9.17818 22.2755 8.8308 21.7799 8.53262C21.295 8.24054 20.898 7.94183 20.602 7.64763C20.312 7.35951 20.1 7.05261 19.9699 6.73062C19.8397 6.4089 19.7744 6.01707 19.7744 5.56624C19.7744 5.0961 19.8712 4.68098 20.0623 4.32963C20.2554 3.9759 20.5243 3.67535 20.8581 3.43829C21.1984 3.19462 21.6014 3.00836 22.0551 2.88348C22.5148 2.75649 23.0105 2.69299 23.5313 2.69299C24.932 2.69299 26.1689 2.99778 27.2061 3.59915L27.4478 3.73884V1.48152L27.3467 1.43918C26.3746 1.03465 25.1545 0.829346 23.7202 0.829346C22.9013 0.829346 22.1202 0.943641 21.3978 1.168C20.6734 1.39262 20.0308 1.71857 19.4889 2.14004C18.945 2.56335 18.5063 3.08218 18.1849 3.68566C17.8637 4.29127 17.6997 4.98366 17.6997 5.74377C17.6997 6.34514 17.786 6.88937 17.956 7.36136C18.1261 7.83574 18.3948 8.28472 18.7561 8.6911C19.1111 9.09352 19.575 9.49117 20.1336 9.8748C20.686 10.2515 21.3579 10.6582 22.1307 11.082C22.8216 11.4696 23.4306 11.821 23.9409 12.1279C24.4405 12.4311 24.8585 12.7377 25.186 13.0404C25.5032 13.3391 25.7404 13.6611 25.8915 13.9974C26.0408 14.3363 26.1164 14.739 26.1164 15.1961C26.1164 16.1504 25.8034 16.8621 25.1587 17.3659C24.5098 17.8739 23.5082 18.1321 22.1832 18.1321C21.8407 18.1321 21.4755 18.1009 21.0995 18.0387C20.7237 17.9776 20.3435 17.8837 19.9699 17.7657C19.5981 17.6447 19.2286 17.4953 18.8715 17.3172C18.5168 17.141 18.189 16.9375 17.8952 16.7174L17.6367 16.5203V18.9179L17.7125 18.9676C17.9497 19.1166 18.2604 19.2576 18.6364 19.3838C19.0038 19.5076 19.3987 19.6177 19.8062 19.7066C20.2113 19.7955 20.6188 19.8664 21.0176 19.9108C21.4167 19.9605 21.7673 19.9825 22.0572 19.9825C22.9412 19.9825 23.7643 19.8775 24.5056 19.6706C25.2531 19.4637 25.9062 19.1496 26.4501 18.743C26.9983 18.3295 27.4289 17.8051 27.7332 17.1783C28.0376 16.5544 28.1911 15.8208 28.1911 15.0038C28.1911 14.4106 28.0945 13.8627 27.9012 13.3756C27.7101 12.8899 27.4184 12.4263 27.034 11.9945Z" fill="#0E0E0E"/>
<path d="M41.6746 13.3772C41.4836 12.8899 41.1915 12.4263 40.8074 11.9943C40.4272 11.5665 39.9444 11.1508 39.3732 10.7595C38.8083 10.3746 38.1384 9.9719 37.3803 9.5634C36.6643 9.17792 36.049 8.83053 35.5533 8.53236C35.0681 8.24027 34.6714 7.94157 34.3752 7.64737C34.0855 7.35925 33.8735 7.05234 33.7433 6.73036C33.6129 6.40864 33.5479 6.01681 33.5479 5.56598C33.5479 5.09583 33.6444 4.68098 33.8357 4.32937C34.0288 3.97564 34.2975 3.67508 34.6315 3.43803C34.9716 3.19435 35.3749 3.0081 35.8285 2.88322C36.2883 2.75622 36.7839 2.69273 37.3048 2.69273C38.7054 2.69273 39.942 2.99751 40.9795 3.59889L41.2209 3.73858V1.48152L41.1202 1.43918C40.148 1.03465 38.9279 0.829346 37.4937 0.829346C36.6748 0.829346 35.8936 0.943641 35.1713 1.168C34.4468 1.39262 33.8042 1.71857 33.2624 2.14004C32.7184 2.56335 32.2795 3.08218 31.9583 3.68566C31.6369 4.29127 31.4731 4.98366 31.4731 5.74377C31.4731 6.34514 31.5592 6.88937 31.7295 7.36136C31.8995 7.83574 32.1682 8.28472 32.5295 8.6911C32.8843 9.09352 33.3484 9.49117 33.9071 9.8748C34.4594 10.2521 35.1314 10.6582 35.9041 11.082C36.595 11.4696 37.204 11.821 37.7141 12.1279C38.2139 12.4311 38.6319 12.7377 38.9594 13.0409C39.2766 13.3391 39.5138 13.6611 39.665 13.9974C39.814 14.3363 39.8896 14.739 39.8896 15.1961C39.8896 16.1504 39.5768 16.8621 38.9321 17.3659C38.2832 17.8739 37.2817 18.1321 35.9566 18.1321C35.6142 18.1321 35.2489 18.1009 34.8729 18.0387C34.4972 17.9776 34.117 17.8837 33.7433 17.7657C33.3715 17.6447 33.0018 17.4953 32.645 17.3172C32.29 17.141 31.9625 16.9375 31.6686 16.7174L31.4102 16.5208V18.9179L31.4857 18.9676C31.7232 19.1166 32.0339 19.2576 32.4099 19.3838C32.7772 19.5076 33.1721 19.6177 33.5793 19.7066C33.9847 19.7955 34.392 19.8664 34.7911 19.9108C35.1902 19.9605 35.5407 19.9825 35.8306 19.9825C36.7146 19.9825 37.5378 19.8775 38.279 19.6706C39.0266 19.4637 39.6797 19.1496 40.2236 18.743C40.7717 18.3295 41.202 17.8051 41.5067 17.1783C41.811 16.5544 41.9643 15.8213 41.9643 15.0038C41.9643 14.4122 41.8677 13.864 41.6746 13.3772Z" fill="#0E0E0E"/>
<path d="M79.5773 1.14062H77.5781V19.6847H79.5773V1.14062Z" fill="#0E0E0E"/>
<path d="M118.821 16.3152C118.805 16.2919 107.173 1.14089 107.173 1.14089H105.076V19.685H107.075C107.075 19.685 107.069 4.66023 107.058 4.38692C107.064 4.39539 118.838 19.685 118.838 19.685H120.823V1.14062H118.811C118.813 1.14062 118.813 16.1966 118.821 16.3152Z" fill="#0E0E0E"/>
<path d="M98.2066 16.3152C98.1914 16.2919 86.5602 1.14089 86.5602 1.14089H84.4629V19.685H86.4613C86.4613 19.685 86.4555 4.66023 86.4431 4.38692C86.4489 4.39539 98.2247 19.685 98.2247 19.685H100.209V1.14062H98.1977C98.1977 1.14062 98.1982 16.1966 98.2066 16.3152Z" fill="#0E0E0E"/>
<path d="M127.696 11.224H135.389V9.37278H127.696V3.01644H136.968V1.14062H125.697V19.6845H137.37V17.8211H127.696V11.224Z" fill="#0E0E0E"/>
<path d="M151.414 13.8029C151.211 13.4224 151.015 13.0769 150.829 12.7782C150.642 12.4779 150.449 12.2067 150.255 11.9736C150.06 11.7366 149.855 11.5334 149.646 11.3659C149.532 11.2728 149.407 11.1902 149.277 11.1164C149.787 10.9722 150.255 10.7791 150.678 10.5375C151.2 10.2367 151.65 9.86631 152.018 9.43426C152.387 9.00222 152.675 8.50059 152.872 7.94155C153.071 7.38462 153.173 6.76632 153.173 6.1078C153.173 5.29054 153.015 4.56005 152.708 3.93963C152.399 3.31921 151.986 2.79642 151.473 2.38554C150.965 1.97677 150.377 1.66352 149.726 1.4561C149.079 1.24841 148.399 1.14258 147.708 1.14258H141.32V19.6864H143.319V11.7575H146.169C146.53 11.7575 146.86 11.7998 147.151 11.8845C147.437 11.9673 147.71 12.1067 147.96 12.2996C148.216 12.4969 148.468 12.7676 148.709 13.0989C148.955 13.4399 149.213 13.8677 149.479 14.3757L152.2 19.5959L152.247 19.6819H154.58L151.414 13.8029ZM143.321 3.01707H147.317C148.547 3.01707 149.496 3.30916 150.139 3.88301C150.776 4.45475 151.098 5.25297 151.098 6.25887C151.098 6.81765 151.004 7.32589 150.815 7.77064C150.628 8.213 150.361 8.59636 150.022 8.9075C149.684 9.2234 149.268 9.46681 148.787 9.63798C148.302 9.80784 147.76 9.89462 147.177 9.89462H143.319L143.321 3.01707Z" fill="#0E0E0E"/>
<path d="M44.8594 1.14062L57.2164 19.6813L58.2893 18.0939L47.0034 1.14062H44.8594Z" fill="#0E0E0E"/>
<path d="M72.1815 1.14062L61.9787 16.4945L54.6019 5.29758H52.4316L62.0031 19.6834L74.3297 1.14062H72.1815Z" fill="#0E0E0E"/>
<path d="M69.5268 1.14062H67.3818L60.9062 10.9131L61.9708 12.5151L69.5268 1.14062Z" fill="#0E0E0E"/>
</svg>
