<svg width="70" height="71" viewBox="0 0 70 71" fill="none" xmlns="http://www.w3.org/2000/svg">
<g clip-path="url(#clip0_4998_7957)">
<path d="M16.5349 30.1099C16.2394 30.1099 15.9752 29.896 15.9223 29.5957C15.7205 28.4449 15.6172 27.2653 15.6172 26.0881C15.6172 21.7059 17.001 17.5399 19.6174 14.0395C22.1472 10.6568 25.751 8.1053 29.7656 6.8584C30.0947 6.75509 30.4431 6.93768 30.5464 7.26682C30.6473 7.59597 30.4647 7.94433 30.1355 8.04764C26.3708 9.21766 22.9905 11.6106 20.6168 14.7867C18.1614 18.0685 16.8641 21.9774 16.8641 26.0881C16.8641 27.1932 16.9602 28.3008 17.15 29.3795C17.21 29.7183 16.9818 30.0402 16.6431 30.1003C16.607 30.1075 16.571 30.1099 16.5349 30.1099Z" fill="white"/>
<path d="M21.2647 27.9209C20.9764 27.9209 20.7145 27.7167 20.6545 27.4236C20.4791 26.5683 20.3926 25.689 20.3926 24.8097C20.3926 21.9867 21.2815 19.3031 22.9681 17.0496C24.597 14.8705 26.9178 13.2272 29.5029 12.4247C29.832 12.3214 30.1828 12.5064 30.2837 12.8331C30.387 13.1623 30.202 13.5107 29.8729 13.614C27.5376 14.3419 25.4402 15.8267 23.9651 17.7967C22.4419 19.8341 21.6371 22.2582 21.6371 24.8097C21.6371 25.6049 21.7188 26.4001 21.8749 27.1713C21.9446 27.5101 21.7284 27.8392 21.3896 27.9089C21.3488 27.9161 21.3055 27.9209 21.2647 27.9209Z" fill="white"/>
<path d="M55.3341 30.1099C55.2981 30.1099 55.262 30.1075 55.226 30.1003C54.8872 30.0402 54.659 29.7183 54.7191 29.3795C54.9089 28.3008 55.005 27.1932 55.005 26.0881C55.005 21.9774 53.7076 18.0685 51.2522 14.7867C48.8786 11.6106 45.4982 9.21766 41.7335 8.04764C41.4044 7.94433 41.2218 7.59597 41.3227 7.26682C41.426 6.93768 41.7744 6.75509 42.1035 6.8584C46.1157 8.1053 49.7194 10.6568 52.2517 14.0395C54.868 17.5399 56.2519 21.7059 56.2519 26.0881C56.2519 27.2653 56.1486 28.4449 55.9467 29.5933C55.8939 29.896 55.6296 30.1099 55.3341 30.1099Z" fill="white"/>
<path d="M50.6043 27.9209C50.5635 27.9209 50.5202 27.9161 50.4794 27.9089C50.1406 27.8392 49.9244 27.5101 49.9941 27.1713C50.1502 26.4001 50.2319 25.6049 50.2319 24.8097C50.2319 22.2582 49.4271 19.8341 47.9039 17.7967C46.4287 15.8267 44.3314 14.3419 41.9961 13.614C41.667 13.5107 41.482 13.1623 41.5853 12.8331C41.6862 12.5064 42.037 12.3214 42.3661 12.4247C44.9512 13.2272 47.272 14.8705 48.9009 17.0496C50.5875 19.3031 51.4764 21.9867 51.4764 24.8097C51.4764 25.689 51.3899 26.5683 51.2145 27.4236C51.1545 27.7167 50.8926 27.9209 50.6043 27.9209Z" fill="white"/>
<path d="M38.97 58.4243H32.5361C32.3631 58.4243 32.1949 58.3522 32.0772 58.2225C31.9595 58.0952 31.9018 57.9246 31.9162 57.7492L34.1434 30.5672C34.1722 30.2237 34.4725 29.969 34.8161 29.9979C35.1596 30.0267 35.4143 30.327 35.3855 30.6706L33.2136 57.1774H38.2973L36.3849 30.673C36.3585 30.3318 36.5891 30.0315 36.9327 30.0051C37.2762 29.9786 37.5741 30.2381 37.6006 30.5793L39.5922 57.754C39.6043 57.927 39.5442 58.0976 39.4265 58.2249C39.3088 58.3522 39.143 58.4243 38.97 58.4243Z" fill="white"/>
<path d="M13.8954 40.4092C13.362 40.4092 12.8431 40.1329 12.5596 39.6452C12.1632 38.9581 12.3602 38.0643 13.0113 37.6127L32.0055 24.716C32.289 24.519 32.6758 24.5887 32.8728 24.8722C33.0698 25.1533 33.0001 25.5425 32.7166 25.7395L13.7224 38.6361C13.5999 38.7202 13.5638 38.8908 13.6383 39.0205C13.7128 39.1503 13.881 39.2007 14.0155 39.1359L34.1678 29.3745C34.4777 29.2255 34.8477 29.3552 34.999 29.6652C35.148 29.9751 35.0182 30.3475 34.7083 30.4964L14.5585 40.2578C14.3447 40.3611 14.1188 40.4092 13.8954 40.4092Z" fill="white"/>
<path d="M57.8197 40.4092C57.5962 40.4092 57.3704 40.3611 57.1566 40.2578L37.0067 30.6214C36.6968 30.4724 36.5671 30.1 36.716 29.7901C36.865 29.4802 37.2374 29.3504 37.5473 29.4994L57.6995 39.1359C57.8341 39.2007 57.9998 39.1503 58.0767 39.0205C58.1512 38.8884 58.1152 38.7202 57.9902 38.6361L38.9984 25.8644C38.7149 25.6674 38.6452 25.2806 38.8423 24.9971C39.0393 24.7136 39.4261 24.6439 39.7096 24.8409L58.7014 37.6127C59.3549 38.0643 59.5519 38.9581 59.1555 39.6428C58.872 40.1305 58.353 40.4092 57.8197 40.4092Z" fill="white"/>
<path d="M38.4752 24.6045C38.1508 24.6045 37.8769 24.3546 37.8553 24.0255L36.3129 1.38426C36.3033 1.2329 36.176 1.11518 36.0246 1.11518H36.0222C35.8733 1.11518 35.7459 1.2305 35.7339 1.37945L34.0041 24.0039C33.9753 24.3474 33.6726 24.6021 33.329 24.5709C32.9854 24.542 32.7332 24.2393 32.762 23.8982L34.4918 1.27134C34.5615 0.483318 35.2318 -0.131721 36.0246 -0.131721H36.0294C36.8295 -0.12932 37.4998 0.497734 37.555 1.29537L39.0974 23.9366C39.1214 24.2802 38.8644 24.5781 38.5208 24.6021C38.504 24.6045 38.4896 24.6045 38.4752 24.6045Z" fill="white"/>
<path d="M35.9344 23.458C35.7782 23.458 35.622 23.47 35.4659 23.494C34.6731 23.6166 33.9763 24.0418 33.503 24.6905C33.0297 25.3368 32.8375 26.1296 32.9625 26.9224C33.085 27.7153 33.5078 28.412 34.1565 28.8853C34.8052 29.3586 35.598 29.5508 36.3909 29.4282C37.1813 29.3033 37.878 28.8805 38.3513 28.2318C38.8246 27.5855 39.0192 26.7927 38.8943 25.9999C38.7717 25.207 38.3465 24.5103 37.7002 24.037C37.1789 23.6574 36.5662 23.458 35.9344 23.458ZM35.92 30.334C35.1055 30.334 34.3127 30.0793 33.6424 29.5892C32.8087 28.979 32.2609 28.078 32.1024 27.057C31.9414 26.0335 32.1913 25.0124 32.8015 24.1764C33.4117 23.3403 34.3103 22.7925 35.3313 22.6339C36.3548 22.4754 37.3783 22.7228 38.212 23.3331C39.048 23.9457 39.5958 24.8443 39.7544 25.8653C39.9129 26.8888 39.6655 27.9099 39.0552 28.7459C38.445 29.582 37.5465 30.1274 36.523 30.2883C36.3212 30.3196 36.1194 30.334 35.92 30.334Z" fill="white"/>
<path d="M35.9344 23.458C35.7782 23.458 35.622 23.47 35.4659 23.494C34.6731 23.6166 33.9763 24.0418 33.503 24.6905C33.0297 25.3368 32.8375 26.1296 32.9625 26.9224C33.085 27.7153 33.5078 28.412 34.1565 28.8853C34.8052 29.3586 35.598 29.5508 36.3909 29.4282C37.1813 29.3033 37.878 28.8805 38.3513 28.2318C38.8246 27.5855 39.0192 26.7927 38.8943 25.9999C38.7717 25.207 38.3465 24.5103 37.7002 24.037C37.1789 23.6574 36.5662 23.458 35.9344 23.458ZM35.92 30.334C35.1055 30.334 34.3127 30.0793 33.6424 29.5892C32.8087 28.979 32.2609 28.078 32.1024 27.057C31.9414 26.0335 32.1913 25.0124 32.8015 24.1764C33.4117 23.3403 34.3103 22.7925 35.3313 22.6339C36.3548 22.4754 37.3783 22.7228 38.212 23.3331C39.048 23.9457 39.5958 24.8443 39.7544 25.8653C39.9129 26.8888 39.6655 27.9099 39.0552 28.7459C38.445 29.582 37.5465 30.1274 36.523 30.2883C36.3212 30.3196 36.1194 30.334 35.92 30.334Z" stroke="white" stroke-width="0.788" stroke-miterlimit="10"/>
<path d="M62.2939 68.7144C54.565 61.9417 45.522 58.0448 35.8567 58.0448C26.1914 58.0448 17.1507 61.9417 9.42188 68.7144" stroke="white" stroke-width="0.788" stroke-miterlimit="10" stroke-linecap="round"/>
</g>
<defs>
<clipPath id="clip0_4998_7957">
<rect width="70" height="70" fill="white" transform="translate(0 0.0605469)"/>
</clipPath>
</defs>
</svg>
