<svg width="149" height="49" viewBox="0 0 149 49" fill="none" xmlns="http://www.w3.org/2000/svg">
<path d="M43.7649 12.8571L43.7097 12.7528C42.6848 11.059 39.2481 8.42014 34.5043 5.69534C29.7604 2.97055 25.6978 1.3013 23.734 1.29517H23.6849C21.7211 1.29517 17.7014 2.97055 12.933 5.72603C8.16458 8.48151 4.69108 11.1695 3.72758 12.8633C2.70271 14.5939 2.15039 18.81 2.15039 24.413C2.15039 29.9362 2.70885 34.0848 3.66621 35.8706L3.70917 35.9443V35.9811C4.68494 37.6626 8.13389 40.326 12.9146 43.0938C17.6952 45.8615 21.7395 47.5124 23.6971 47.5185C25.6548 47.5246 29.7052 45.8554 34.4981 43.0815C39.2911 40.3076 42.7032 37.6871 43.7035 35.9627C43.7005 35.9464 43.7005 35.9298 43.7035 35.9136C44.7529 34.2321 45.3237 29.9362 45.3237 24.413C45.3237 18.8897 44.7345 14.5571 43.7649 12.8571Z" fill="#0E0E0E"/>
<path d="M25.249 19.8103H22.6654C21.9698 19.8119 21.3033 20.0894 20.8121 20.5818C20.3208 21.0742 20.0449 21.7413 20.0449 22.4369V28.9727H21.6896V26.1988H26.2432V28.9727H27.8634V22.4369C27.8601 21.7392 27.5807 21.0711 27.0861 20.5789C26.5916 20.0866 25.9222 19.8103 25.2245 19.8103H25.249ZM21.6896 22.4369C21.6896 22.1775 21.7922 21.9287 21.975 21.7448C22.1579 21.5608 22.406 21.4566 22.6654 21.455H25.249C25.3791 21.4534 25.5081 21.4781 25.6283 21.5277C25.7486 21.5772 25.8575 21.6506 25.9486 21.7434C26.0433 21.8322 26.1183 21.9397 26.1691 22.0591C26.2198 22.1785 26.245 22.3072 26.2432 22.4369V24.5603H21.6896V22.4369Z" fill="#0E0E0E"/>
<path d="M12.3389 19.8408H7.30664V29.0462H12.3389C13.2927 29.0462 14.2074 28.6673 14.8818 27.9929C15.5563 27.3185 15.9352 26.4038 15.9352 25.45V23.4309C15.9319 22.4787 15.5518 21.5665 14.8779 20.8938C14.204 20.221 13.2911 19.8424 12.3389 19.8408ZM8.98202 21.5162H12.3389C12.8467 21.5162 13.3338 21.7179 13.6928 22.077C14.0519 22.4361 14.2536 22.9231 14.2536 23.4309V25.4745C14.2536 25.9829 14.0521 26.4706 13.6932 26.8306C13.3343 27.1907 12.8473 27.3938 12.3389 27.3954H8.98202V21.5162Z" fill="#0E0E0E"/>
<path d="M40.1326 19.8716H38.6966H38.5739V19.9943V25.7569L33.7441 19.9145L33.7073 19.8716H33.652H32.529H32.4062V19.9943V28.8622V28.9849H32.529H33.9712H34.0939V28.8622V23.0076L38.9421 28.9358L38.9789 28.9788H39.0341H40.1326H40.2615V28.856V19.9943V19.8716H40.1326Z" fill="#0E0E0E"/>
<path d="M55.5957 14.6736H58.7439C59.2593 14.6713 59.7715 14.7542 60.2598 14.9191C60.7378 15.072 61.1788 15.3228 61.5547 15.6555C61.9426 15.9927 62.2508 16.412 62.4568 16.8829C62.6943 17.439 62.8094 18.0397 62.7943 18.6442C62.8099 19.2579 62.6773 19.8663 62.4077 20.4178C62.1648 20.8931 61.8238 21.3114 61.4074 21.6452C61.0011 21.969 60.5395 22.2164 60.045 22.3755C59.5703 22.5355 59.073 22.6183 58.5721 22.621H55.5957V14.6736ZM58.0505 21.369C58.4643 21.367 58.8763 21.3155 59.2779 21.2156C59.6767 21.1294 60.0543 20.9646 60.3886 20.7308C60.6844 20.5132 60.9224 20.2267 61.0821 19.8962C61.2565 19.5109 61.3424 19.0915 61.3337 18.6688C61.3429 18.2484 61.2656 17.8306 61.1067 17.4414C60.9752 17.1144 60.7643 16.8254 60.493 16.6006C60.2124 16.382 59.8911 16.2214 59.5479 16.1281C59.1575 16.0242 58.7551 15.9726 58.3512 15.9747H57.0195V21.3445L58.0505 21.369Z" fill="#0E0E0E"/>
<path d="M64.1152 14.6736H65.5329V22.6516H64.1152V14.6736Z" fill="#0E0E0E"/>
<path d="M74.3698 22.0684C73.3512 22.5994 72.2168 22.8693 71.0682 22.8539C70.4896 22.8618 69.9149 22.7597 69.3744 22.5532C68.8759 22.37 68.4219 22.0834 68.0421 21.7121C67.6624 21.3408 67.3656 20.8934 67.1712 20.3992C66.952 19.8596 66.8435 19.2815 66.8521 18.6992C66.843 18.1029 66.9514 17.5107 67.1712 16.9563C67.3653 16.4545 67.6621 15.9988 68.0427 15.6185C68.4225 15.2462 68.8762 14.9577 69.3744 14.7716C69.9149 14.5651 70.4896 14.463 71.0682 14.4709C71.6462 14.467 72.2222 14.5413 72.7804 14.6918C73.3129 14.8358 73.8032 15.1051 74.2103 15.4773L73.1608 16.5329C72.8939 16.2802 72.5787 16.084 72.2342 15.956C71.8648 15.8199 71.474 15.7513 71.0804 15.7535C70.6948 15.7484 70.3123 15.8237 69.9574 15.9744C69.6321 16.1181 69.3396 16.327 69.0982 16.5881C68.8559 16.8526 68.6664 17.1608 68.5397 17.4964C68.4046 17.853 68.338 18.232 68.3434 18.6133C68.3371 19.0167 68.4036 19.4179 68.5397 19.7977C68.6631 20.1422 68.8529 20.4591 69.0982 20.7305C69.3386 20.9929 69.6313 21.2019 69.9574 21.3442C70.3119 21.4971 70.6944 21.5744 71.0804 21.5713C71.4227 21.5721 71.7642 21.5372 72.0992 21.467C72.3978 21.4066 72.6854 21.3011 72.9522 21.154V19.27H71.3136V17.9873H74.3821L74.3698 22.0684Z" fill="#0E0E0E"/>
<path d="M76.0137 14.6736H77.4313V22.6516H76.0137V14.6736Z" fill="#0E0E0E"/>
<path d="M80.8122 15.9562H78.3574V14.6736H84.6662V15.9562H82.2114V22.6516H80.7938L80.8122 15.9562Z" fill="#0E0E0E"/>
<path d="M87.1906 14.6736H88.418L91.8546 22.6516H90.2345L89.4919 20.8105H86.0307L85.3065 22.6516H83.7109L87.1906 14.6736ZM88.9948 19.5831L87.7674 16.3428L86.5401 19.5831H88.9948Z" fill="#0E0E0E"/>
<path d="M92.743 14.6736H94.1422V21.3444H97.536V22.627H92.7246L92.743 14.6736Z" fill="#0E0E0E"/>
<path d="M104.509 14.6736H105.736L109.173 22.6516H107.546L106.804 20.8105H103.349L102.625 22.6516H101.035L104.509 14.6736ZM106.313 19.5831L105.086 16.3428L103.858 19.5831H106.313Z" fill="#0E0E0E"/>
<path d="M117.149 22.0684C116.13 22.5987 114.996 22.8686 113.847 22.8539C113.267 22.8618 112.69 22.7598 112.147 22.5532C111.652 22.367 111.201 22.0808 110.822 21.7125C110.444 21.3378 110.146 20.8912 109.944 20.3992C109.73 19.8583 109.624 19.2809 109.631 18.6992C109.623 18.1036 109.73 17.512 109.944 16.9563C110.143 16.4554 110.441 16.0002 110.822 15.6185C111.199 15.2462 111.651 14.9577 112.147 14.7716C112.69 14.565 113.267 14.463 113.847 14.4709C114.425 14.467 115.001 14.5413 115.56 14.6918C116.092 14.8371 116.582 15.1063 116.989 15.4773L115.94 16.5329C115.672 16.2815 115.357 16.0855 115.013 15.956C114.642 15.8199 114.249 15.7514 113.853 15.7535C113.47 15.7479 113.089 15.8231 112.737 15.9744C112.409 16.118 112.115 16.3268 111.871 16.5881C111.631 16.8541 111.442 17.162 111.313 17.4964C111.181 17.8538 111.114 18.2322 111.116 18.6133C111.113 19.0165 111.18 19.4172 111.313 19.7977C111.439 20.1411 111.628 20.4576 111.871 20.7305C112.114 20.993 112.409 21.202 112.737 21.3442C113.089 21.4976 113.469 21.575 113.853 21.5713C114.198 21.5722 114.541 21.5372 114.878 21.467C115.175 21.4078 115.461 21.3021 115.725 21.154V19.27H114.093V17.9873H117.161L117.149 22.0684Z" fill="#0E0E0E"/>
<path d="M118.824 14.6736H124.108V15.9562H120.242V17.92H123.924V19.2026H120.242V21.3444H124.311V22.627H118.824V14.6736Z" fill="#0E0E0E"/>
<path d="M125.711 14.6736H127.589L131.455 20.6019V14.6736H132.873V22.6516H131.068L127.129 16.5147V22.6516H125.711V14.6736Z" fill="#0E0E0E"/>
<path d="M140.169 16.5451C139.967 16.2951 139.712 16.094 139.422 15.9569C139.132 15.8198 138.814 15.7502 138.493 15.7535C138.108 15.7477 137.725 15.8229 137.37 15.9744C137.045 16.1181 136.753 16.3269 136.511 16.5881C136.269 16.8525 136.079 17.1608 135.953 17.4963C135.818 17.853 135.751 18.2319 135.756 18.6133C135.75 19.0167 135.817 19.4179 135.953 19.7977C136.069 20.1402 136.25 20.457 136.487 20.7305C136.727 20.9928 137.02 21.2019 137.346 21.3442C137.7 21.4976 138.083 21.5749 138.469 21.5713C138.796 21.5698 139.118 21.4898 139.408 21.3381C139.743 21.1592 140.035 20.9076 140.261 20.6016L141.433 21.4362C141.096 21.9066 140.641 22.2793 140.114 22.5163C139.591 22.7438 139.026 22.8588 138.457 22.8539C137.878 22.8613 137.303 22.7592 136.763 22.5532C136.266 22.3669 135.813 22.0808 135.431 21.7124C135.056 21.3374 134.759 20.8908 134.56 20.3991C134.343 19.8587 134.235 19.2812 134.24 18.6992C134.234 18.1032 134.343 17.5115 134.56 16.9563C134.756 16.4556 135.052 16.0004 135.431 15.6184C135.811 15.2462 136.265 14.9577 136.763 14.7715C137.303 14.5655 137.878 14.4634 138.457 14.4708C138.972 14.4669 139.483 14.565 139.96 14.7593C140.46 14.9792 140.901 15.3135 141.249 15.735L140.169 16.5451Z" fill="#0E0E0E"/>
<path d="M144.342 19.2395L141.348 14.6736H143.127L145.079 17.8525L147.067 14.6736H148.761L145.766 19.2395V22.6516H144.342V19.2395Z" fill="#0E0E0E"/>
<path d="M55.5957 26.3276H57.4797L61.346 32.2498V26.3276H62.7698V34.3056H61.0023L57.0563 28.1687V34.3056H55.5957V26.3276Z" fill="#0E0E0E"/>
<path d="M64.5684 26.3276H69.8523V27.6103H65.986V29.5679H69.6681V30.8567H65.986V33.0046H70.0548V34.2872H64.5684V26.3276Z" fill="#0E0E0E"/>
<path d="M73.0876 27.6103H70.6328V26.3276H76.96V27.6103H74.5052V34.2995H73.0876V27.6103Z" fill="#0E0E0E"/>
<path d="M77.0273 26.3276H78.58L80.0835 32.0718L81.8694 26.3276H83.2686L85.0238 32.0718L86.5887 26.3276H88.0309L85.7111 34.3056H84.361L82.5199 28.2362L80.6788 34.3056H79.4146L77.0273 26.3276Z" fill="#0E0E0E"/>
<path d="M88.5396 30.3472C88.5305 29.7509 88.639 29.1587 88.8587 28.6043C89.0527 28.1043 89.3496 27.6506 89.7302 27.2726C90.1148 26.899 90.5723 26.6086 91.0742 26.4196C91.6158 26.218 92.19 26.1181 92.768 26.125C93.3512 26.1058 93.9326 26.1995 94.4802 26.4012C94.9807 26.5804 95.437 26.865 95.818 27.2358C96.2023 27.6132 96.5033 28.0668 96.7017 28.5675C96.9169 29.1209 97.0232 29.7106 97.0147 30.3043C97.0222 30.8859 96.9159 31.4634 96.7017 32.0042C96.5001 32.4996 96.1993 32.9486 95.818 33.3236C95.4334 33.6959 94.9786 33.9879 94.4802 34.1828C93.9346 34.3962 93.3537 34.5044 92.768 34.5019C92.1916 34.5167 91.6174 34.4252 91.0742 34.2319C90.5782 34.0413 90.1254 33.7533 89.7425 33.385C89.3636 33.0127 89.0668 32.5654 88.871 32.0717C88.643 31.5258 88.5302 30.9387 88.5396 30.3472ZM90.0309 30.2552C90.0246 30.6586 90.0912 31.0598 90.2273 31.4396C90.3478 31.7854 90.5378 32.1029 90.7857 32.3724C91.0261 32.6347 91.3188 32.8438 91.6449 32.9861C91.9982 33.1429 92.3815 33.2204 92.768 33.2132C93.1543 33.2193 93.5374 33.1418 93.891 32.9861C94.2178 32.8503 94.5126 32.6475 94.7563 32.3908C95.0021 32.1197 95.1918 31.8027 95.3148 31.458C95.448 31.0775 95.5144 30.6768 95.5112 30.2736C95.5135 29.8945 95.447 29.5181 95.3148 29.1628C95.1888 28.8269 94.9992 28.5185 94.7563 28.2545C94.5132 27.9898 94.216 27.7805 93.8849 27.6408C93.5299 27.4901 93.1474 27.4149 92.7618 27.4199C92.3761 27.4136 91.9934 27.4889 91.6388 27.6408C91.3122 27.7823 91.0194 27.9915 90.7796 28.2545C90.5347 28.517 90.3448 28.8258 90.2211 29.1628C90.0904 29.5119 90.0259 29.8824 90.0309 30.2552Z" fill="#0E0E0E"/>
<path d="M98.3516 26.3273H101.125C101.498 26.3245 101.87 26.3595 102.236 26.4316C102.573 26.4973 102.895 26.6219 103.187 26.7998C103.461 26.9684 103.689 27.2025 103.85 27.481C104.029 27.8256 104.115 28.2102 104.102 28.598C104.12 29.1242 103.95 29.6396 103.623 30.0524C103.276 30.4573 102.786 30.7124 102.255 30.7643L104.372 34.2869H102.66L100.819 30.9116H99.7815V34.2869H98.3577L98.3516 26.3273ZM100.88 29.7026C101.082 29.7026 101.285 29.7026 101.494 29.7026C101.685 29.6845 101.873 29.6391 102.052 29.5676C102.217 29.4965 102.359 29.3819 102.463 29.2362C102.577 29.0528 102.631 28.8381 102.617 28.6225C102.626 28.4256 102.575 28.2306 102.469 28.0641C102.378 27.92 102.245 27.8067 102.089 27.7388C101.922 27.6681 101.747 27.6206 101.567 27.5976C101.371 27.5976 101.187 27.5976 101.009 27.5976H99.7815V29.7578L100.88 29.7026Z" fill="#0E0E0E"/>
<path d="M105.453 26.3276H106.871V29.7029H106.938L110.24 26.3276H112.155L108.43 30.0098L112.406 34.3056H110.412L106.951 30.3841H106.871V34.3056H105.453V26.3276Z" fill="#0E0E0E"/>
</svg>
