<svg width="91" height="70" viewBox="0 0 91 70" fill="none" xmlns="http://www.w3.org/2000/svg">
<path d="M49.6546 69.75H41.997C41.7801 69.75 41.5721 69.6592 41.4285 69.495C41.2849 69.3339 41.2175 69.1199 41.2409 68.906L43.5297 48.5766C43.5766 48.1576 43.9517 47.8587 44.3707 47.9055C44.7869 47.9524 45.0858 48.3275 45.0389 48.7437L42.8468 68.232H48.8135L46.8119 48.7378C46.7709 48.3217 47.0727 47.9466 47.4918 47.9055C47.9079 47.8616 48.2801 48.1664 48.3241 48.5825L50.4106 68.9148C50.4312 69.1258 50.3608 69.3397 50.2172 69.5009C50.0736 69.6592 49.8685 69.75 49.6546 69.75Z" fill="white" fill-opacity="0.5"/>
<path d="M56.2935 69.75H35.7766C35.3546 69.75 35.0146 69.4101 35.0146 68.991C35.0146 68.5719 35.3546 68.232 35.7766 68.232H56.2935C56.7126 68.232 57.0525 68.5719 57.0525 68.991C57.0525 69.4101 56.7126 69.75 56.2935 69.75Z" fill="white" fill-opacity="0.5"/>
<path d="M13.9182 33.7863C13.7248 33.7863 13.5284 33.713 13.3819 33.5635C13.083 33.2675 13.083 32.7869 13.3819 32.4909L21.0776 24.7953C21.3736 24.4964 21.8542 24.4993 22.1502 24.7953C22.4491 25.0913 22.4491 25.5719 22.1502 25.8679L14.4545 33.5635C14.308 33.713 14.1116 33.7863 13.9182 33.7863Z" fill="white" fill-opacity="0.5"/>
<path d="M32.3962 15.3094C32.2028 15.3094 32.0065 15.2362 31.8599 15.0867C31.561 14.7907 31.561 14.3101 31.8599 14.0141L39.5556 6.31847C39.8516 6.02248 40.3322 6.02248 40.6282 6.31847C40.9271 6.61445 40.9271 7.09507 40.6282 7.39105L32.9325 15.0867C32.786 15.2362 32.5896 15.3094 32.3962 15.3094Z" fill="white" fill-opacity="0.5"/>
<path d="M21.6146 15.3094C21.4212 15.3094 21.2248 15.2362 21.0783 15.0867L13.3797 7.39105C13.0837 7.09507 13.0837 6.61445 13.3797 6.31554C13.6786 6.01955 14.1592 6.01955 14.4552 6.31554L22.1509 14.0141C22.4498 14.3101 22.4498 14.7907 22.1509 15.0867C22.0044 15.2362 21.808 15.3094 21.6146 15.3094Z" fill="white" fill-opacity="0.5"/>
<path d="M27.0051 13.0995C26.586 13.0995 26.2461 12.7595 26.2461 12.3405V1.4329C26.2461 1.01383 26.586 0.67388 27.0051 0.67388C27.4242 0.67388 27.7641 1.01383 27.7641 1.4329V12.3405C27.7641 12.7595 27.4242 13.0995 27.0051 13.0995Z" fill="white" fill-opacity="0.5"/>
<path d="M19.4058 20.7001H8.49828C8.0792 20.7001 7.73926 20.3601 7.73926 19.9411C7.73926 19.522 8.0792 19.182 8.49828 19.182H19.4058C19.8249 19.182 20.1649 19.522 20.1649 19.9411C20.1649 20.3601 19.8249 20.7001 19.4058 20.7001Z" fill="white" fill-opacity="0.5"/>
<path d="M21.6149 26.0903C21.4215 26.0903 21.2251 26.0171 21.0786 25.8676C17.811 22.6 17.811 17.281 21.0786 14.0135C22.6611 12.431 24.7653 11.5576 27.0042 11.5576C29.2432 11.5576 31.3503 12.431 32.9328 14.0135C33.2288 14.3094 33.2288 14.7901 32.9328 15.086C32.6368 15.382 32.1562 15.382 31.8572 15.086C30.5619 13.7907 28.8388 13.0757 27.0042 13.0757C25.1726 13.0757 23.4494 13.7907 22.1512 15.086C19.4756 17.7646 19.4756 22.1194 22.1512 24.795C22.4501 25.091 22.4501 25.5716 22.1512 25.8676C22.0047 26.0171 21.8083 26.0903 21.6149 26.0903Z" fill="white" fill-opacity="0.5"/>
<path d="M16.3465 47.9007H69.5744L83.5122 23.7616H30.2843L16.3465 47.9007ZM70.4536 49.4187H13.7148L29.4051 22.2435H86.1438L70.4536 49.4187Z" fill="white" fill-opacity="0.5"/>
<path d="M16.3465 47.9007H69.5744L83.5122 23.7616H30.2843L16.3465 47.9007ZM70.4536 49.4187H13.7148L29.4051 22.2435H86.1438L70.4536 49.4187Z" fill="white" fill-opacity="0.5"/>
<path d="M24.9428 48.8838L23.627 48.1248L38.3501 22.623L39.666 23.382L24.9428 48.8838Z" fill="white" fill-opacity="0.5"/>
<path d="M34.1059 48.8838L32.79 48.1248L47.5132 22.623L48.829 23.382L34.1059 48.8838Z" fill="white" fill-opacity="0.5"/>
<path d="M43.2699 48.8838L41.9541 48.1248L56.6773 22.623L57.9931 23.382L43.2699 48.8838Z" fill="white" fill-opacity="0.5"/>
<path d="M52.4335 48.8838L51.1177 48.1248L65.8438 22.623L67.1567 23.382L52.4335 48.8838Z" fill="white" fill-opacity="0.5"/>
<path d="M61.5973 48.8838L60.2815 48.1248L75.0047 22.623L76.3205 23.382L61.5973 48.8838Z" fill="white" fill-opacity="0.5"/>
<path d="M81.8642 28.8926H26.749V27.3745H81.8642V28.8926Z" fill="white" fill-opacity="0.5"/>
<path d="M78.9018 34.024H23.7866V32.506H78.9018V34.024Z" fill="white" fill-opacity="0.5"/>
<path d="M75.9393 39.1552H20.8242V37.6371H75.9393V39.1552Z" fill="white" fill-opacity="0.5"/>
<path d="M72.9761 44.2871H17.8608V42.7691H72.9761V44.2871Z" fill="white" fill-opacity="0.5"/>
<path d="M0 68.9902H91" stroke="white" stroke-opacity="0.5" stroke-width="0.788" stroke-miterlimit="10" stroke-linecap="round"/>
</svg>
