<svg width="91" height="91" viewBox="0 0 91 91" fill="none" xmlns="http://www.w3.org/2000/svg">
<g clip-path="url(#clip0_3915_1762)">
<path d="M57.0883 18.3377C57.4213 18.3423 57.711 18.109 57.7753 17.7823C57.8395 17.4553 57.66 17.1281 57.3498 17.0064L47.5351 13.1578C47.4579 13.1275 47.3754 13.1111 47.2924 13.1099L41.1076 13.0279C41.0115 13.0266 40.9157 13.0449 40.8273 13.0826L32.414 16.6851C32.1132 16.814 31.9451 17.137 32.0107 17.4576C32.0765 17.7783 32.3583 18.0096 32.6857 18.0096H32.7763C32.8311 18.0102 32.9083 18.0118 33.0053 18.013C33.1996 18.0154 33.4755 18.0187 33.8205 18.0232C34.5104 18.0323 35.4781 18.0454 36.6301 18.0608C38.934 18.0917 41.975 18.1324 45.0058 18.1736C48.0368 18.2148 51.0588 18.2555 53.3217 18.2864C54.4529 18.3019 55.3954 18.315 56.0544 18.324C56.3835 18.3285 56.642 18.3319 56.8183 18.3343C56.9065 18.3355 56.9744 18.3371 57.02 18.3377H57.0883ZM45.0246 16.7945C41.6777 16.749 38.3136 16.7065 35.9448 16.6749L41.2324 14.4105L47.1472 14.4891L53.3166 16.9073C51.0562 16.8764 48.0453 16.8355 45.0246 16.7945Z" fill="white" fill-opacity="0.5"/>
<path d="M64.4631 32.0836C64.8074 32.0852 65.0997 31.8332 65.1484 31.4923C65.197 31.1511 64.986 30.8262 64.6545 30.7318L47.2792 25.7826C47.2139 25.764 47.1454 25.7557 47.0776 25.7569L40.8107 25.868C40.7483 25.8692 40.686 25.8775 40.6261 25.8954L25.1205 30.5148C24.7931 30.6123 24.5869 30.9354 24.6352 31.2736C24.6835 31.6118 24.972 31.863 25.3136 31.8649L64.4631 32.0836ZM29.9587 30.5148L40.9338 27.2438L46.9972 27.1378L59.4318 30.6788L29.9587 30.5148Z" fill="white" fill-opacity="0.5"/>
<path d="M61.2755 44.2908C61.6147 44.2919 61.905 44.0463 61.9591 43.7114C62.0128 43.3768 61.8146 43.0532 61.4925 42.9475L47.4156 38.3281C47.3424 38.3041 47.2654 38.2926 47.1883 38.2939L40.9215 38.4033C40.8417 38.4047 40.7619 38.4211 40.6874 38.4495L29.1415 42.8467C28.8316 42.965 28.65 43.2876 28.7091 43.614C28.7686 43.9409 29.0536 44.1802 29.3858 44.1814L61.2755 44.2908ZM33.0995 42.8159L41.0685 39.7808L47.0943 39.6748L56.9227 42.8997L33.0995 42.8159Z" fill="white" fill-opacity="0.5"/>
<path d="M32.0322 19.61V25.3522C32.0322 25.733 32.3401 26.0409 32.7209 26.0409C33.1017 26.0409 33.4097 25.733 33.4097 25.3522V19.61C33.4094 19.2294 33.1016 18.9213 32.7209 18.9213C32.3403 18.9213 32.0325 19.2294 32.0322 19.61Z" fill="white" fill-opacity="0.5"/>
<path d="M29.8021 24.3003C30.0133 24.6172 30.4423 24.7029 30.7591 24.4917C31.076 24.2805 31.1618 23.8516 30.9505 23.5347L16.325 1.59648C16.1138 1.27963 15.6849 1.19384 15.368 1.40507C15.0512 1.61631 14.9654 2.04527 15.1766 2.3621L29.8021 24.3003Z" fill="white" fill-opacity="0.5"/>
<path d="M25.032 33.7664V39.5085C25.032 39.8893 25.3399 40.1973 25.7207 40.1973C26.1015 40.1973 26.4094 39.8893 26.4094 39.5085V33.7664C26.4092 33.3858 26.1013 33.0776 25.7207 33.0776C25.3401 33.0776 25.0323 33.3858 25.032 33.7664Z" fill="white" fill-opacity="0.5"/>
<path d="M22.8014 38.4566C23.0126 38.7734 23.4415 38.8592 23.7584 38.648C24.0752 38.4368 24.161 38.0078 23.9498 37.691L9.32431 15.7527C9.11308 15.4359 8.68412 15.3501 8.36728 15.5613C8.05046 15.7726 7.96465 16.2015 8.17587 16.5184L22.8014 38.4566Z" fill="white" fill-opacity="0.5"/>
<path d="M28.8257 46.2477V51.9899C28.8257 52.3707 29.1336 52.6786 29.5144 52.6786C29.8952 52.6786 30.2031 52.3707 30.2031 51.9899V46.2477C30.2029 45.8671 29.895 45.559 29.5144 45.559C29.1338 45.559 28.826 45.8671 28.8257 46.2477Z" fill="white" fill-opacity="0.5"/>
<path d="M26.5951 50.9379C26.8063 51.2547 27.2352 51.3405 27.5521 51.1293C27.8689 50.9181 27.9547 50.4891 27.7435 50.1723L13.118 28.234C12.9068 27.9172 12.4778 27.8314 12.161 28.0426C11.8442 28.2539 11.7583 28.6828 11.9696 28.9997L26.5951 50.9379Z" fill="white" fill-opacity="0.5"/>
<path d="M56.3555 19.5674V25.3096C56.3555 25.6904 56.6634 25.9983 57.0442 25.9983C57.425 25.9983 57.7329 25.6904 57.7329 25.3096V19.5674C57.7326 19.1868 57.4248 18.8787 57.0442 18.8787C56.6636 18.8787 56.3557 19.1868 56.3555 19.5674Z" fill="white" fill-opacity="0.5"/>
<path d="M59.0065 24.4495C59.2838 24.6344 59.6469 24.5916 59.8747 24.3658L59.9635 24.2581L74.589 2.31989L74.654 2.19684C74.7752 1.89961 74.6751 1.54782 74.3976 1.36286C74.1203 1.17798 73.7572 1.22069 73.5295 1.4466L73.4406 1.55426L58.8151 23.4925L58.7502 23.6155C58.629 23.9128 58.7291 24.2646 59.0065 24.4495Z" fill="white" fill-opacity="0.5"/>
<path d="M63.3564 33.7236V39.4658C63.3564 39.8466 63.6644 40.1545 64.0452 40.1545C64.426 40.1545 64.7339 39.8466 64.7339 39.4658V33.7236C64.7336 33.3431 64.4258 33.0349 64.0452 33.0349C63.6645 33.0349 63.3567 33.3431 63.3564 33.7236Z" fill="white" fill-opacity="0.5"/>
<path d="M66.0075 38.6054C66.2848 38.7903 66.6479 38.7475 66.8757 38.5217L66.9645 38.414L81.59 16.4758L81.6549 16.3527C81.7762 16.0555 81.676 15.7037 81.3986 15.5187C81.1213 15.3339 80.7582 15.3766 80.5304 15.6025L80.4416 15.7101L65.8161 37.6484L65.7511 37.7714C65.63 38.0686 65.7301 38.4205 66.0075 38.6054Z" fill="white" fill-opacity="0.5"/>
<path d="M59.5625 46.2054V51.9476C59.5625 52.3284 59.8704 52.6364 60.2512 52.6364C60.632 52.6364 60.9399 52.3284 60.9399 51.9476V46.2054C60.9397 45.8249 60.6319 45.5167 60.2512 45.5167C59.8706 45.5167 59.5628 45.8249 59.5625 46.2054Z" fill="white" fill-opacity="0.5"/>
<path d="M62.2135 51.0872C62.4908 51.2721 62.8539 51.2293 63.0817 51.0035L63.1706 50.8958L77.7961 28.9576L77.861 28.8345C77.9822 28.5373 77.8821 28.1855 77.6047 28.0006C77.3273 27.8157 76.9643 27.8584 76.7365 28.0843L76.6476 28.192L62.0221 50.1302L61.9572 50.2532C61.836 50.5504 61.9361 50.9023 62.2135 51.0872Z" fill="white" fill-opacity="0.5"/>
<path d="M35.754 85.4597C35.9752 85.7697 36.4045 85.8415 36.7145 85.6204L44.0477 80.3909L51.598 85.5195C51.913 85.7335 52.3428 85.6517 52.5568 85.3367C52.7705 85.0218 52.6886 84.5919 52.3739 84.3779L45.2457 79.5381L50.9008 75.5049C51.07 75.3841 51.1751 75.1928 51.1879 74.9854C51.2005 74.7776 51.1193 74.5738 50.9657 74.4334L45.3209 69.2739L49.8549 65.2869C50.1362 65.0396 50.169 64.6134 49.9283 64.3264L45.1022 58.5842L48.8671 54.4006C49.1159 54.1241 49.1011 53.6997 48.8329 53.4419L45.5157 50.2581L47.84 48.062C47.9758 47.9334 48.0534 47.7552 48.0553 47.5681C48.0571 47.3808 47.9821 47.2004 47.8485 47.0691L45.2098 44.48L47.8536 41.8362C48.1126 41.5772 48.1238 41.1603 47.8793 40.8877L45.1261 37.8252L47.7152 34.9353C47.8389 34.797 47.9019 34.6146 47.8895 34.4294C47.8769 34.2442 47.7898 34.0714 47.6486 33.9509L45.0509 31.7463L47.7067 29.4426C47.9878 29.1989 48.0248 28.7762 47.7904 28.4873L45.0987 25.1702L47.7391 21.8753C47.948 21.6146 47.9401 21.2415 47.7203 20.99L45.0475 17.9326L47.828 14.8086C48.0725 14.5337 48.0566 14.1141 47.7938 13.8567L45.0919 11.2112L46.5514 9.6543C46.6956 9.5005 46.7603 9.2886 46.7291 9.08009L45.3551 -0.102287C45.3242 -0.308716 45.2003 -0.490829 45.0201 -0.596184C44.8401 -0.70108 44.6219 -0.718216 44.4271 -0.644035L43.7111 -0.372307C43.4981 -0.291115 43.3385 -0.108673 43.2855 0.113045L41.1988 8.85792C41.1429 9.09321 41.2141 9.33974 41.3868 9.50904L43.1625 11.2505L40.5956 13.9883C40.3532 14.2467 40.3471 14.6478 40.5802 14.9146L43.2086 17.9241L40.5836 20.8755C40.3595 21.1279 40.3504 21.5054 40.5631 21.7676L43.3265 25.1753L40.4503 28.7659C40.217 29.057 40.2567 29.4813 40.5409 29.7229L42.9335 31.7566L40.5904 33.7869C40.4507 33.908 40.3661 34.0808 40.3546 34.2654C40.3432 34.4499 40.4054 34.632 40.5289 34.7695L43.2736 37.8252L40.5289 40.8877C40.2831 41.1619 40.2956 41.5813 40.558 41.8396L43.2513 44.4868L40.9408 46.7974C40.8098 46.9284 40.7373 47.1077 40.7391 47.293C40.7411 47.4781 40.8175 47.6552 40.951 47.7835L43.5162 50.2495L39.9667 53.6025C39.7012 53.8533 39.677 54.268 39.912 54.5476L43.2753 58.5518L38.4405 63.9248C38.1879 64.2061 38.2096 64.6384 38.4884 64.8938L43.2548 69.2534L37.1229 74.6436C36.963 74.7843 36.8774 74.9915 36.8905 75.2041C36.9038 75.417 37.0149 75.6123 37.1913 75.7322L42.8326 79.5654L35.9147 84.4993C35.6047 84.7204 35.5329 85.1497 35.754 85.4597ZM42.6293 8.7981L44.2665 1.94337L45.3158 8.95533L44.1058 10.2456L42.6293 8.7981ZM42.0277 14.4788L44.1486 12.2161L46.36 14.3831L44.1332 16.8867L42.0277 14.4788ZM42.0021 21.3557L44.1246 18.9717L46.3019 21.4634L44.2084 24.0747L42.0021 21.3557ZM41.944 29.106L44.2169 26.2708L46.2985 28.8377L43.9879 30.8423L41.944 29.106ZM42.0243 34.3713L43.9965 32.6589L46.2147 34.5439L44.1998 36.793L42.0243 34.3713ZM41.9952 41.3201L44.1998 38.8574L46.4147 41.3235L44.2255 43.5127L41.9952 41.3201ZM42.4122 47.2776L44.2357 45.4541L46.3719 47.5527L44.5211 49.301L42.4122 47.2776ZM41.3851 54.1597L44.5126 51.2065L47.3939 53.9751L44.2067 57.5178L41.3851 54.1597ZM39.9239 64.3384L44.1708 59.6199L48.4381 64.6973L44.2972 68.3374L39.9239 64.3384ZM38.702 75.0913L44.2784 70.1899L49.4054 74.8777L44.0306 78.7109L38.702 75.0913Z" fill="white" fill-opacity="0.5"/>
<path d="M66.7393 91.6887C67.1201 91.6887 67.4297 91.3808 67.4297 91C67.4297 90.6192 67.1201 90.3113 66.7393 90.3113H21.1162C20.7354 90.3113 20.4275 90.6192 20.4275 91C20.4275 91.3808 20.7354 91.6887 21.1162 91.6887H66.7393Z" fill="white" fill-opacity="0.5"/>
</g>
<defs>
<clipPath id="clip0_3915_1762">
<rect width="91" height="91" fill="white"/>
</clipPath>
</defs>
</svg>
