<svg width="71" height="90" viewBox="0 0 71 90" fill="none" xmlns="http://www.w3.org/2000/svg">
<path d="M10.4973 39.0641C10.1131 39.0641 9.76957 38.7861 9.70085 38.3957C9.4385 36.8997 9.3042 35.3661 9.3042 33.8357C9.3042 28.1389 11.1032 22.7232 14.5044 18.1726C17.7932 13.775 22.4781 10.4581 27.6971 8.83718C28.125 8.70288 28.5778 8.94024 28.7121 9.36813C28.8433 9.79602 28.6059 10.2489 28.1781 10.3832C23.2839 11.9042 18.8895 15.015 15.8037 19.1439C12.6117 23.4103 10.9252 28.4919 10.9252 33.8357C10.9252 35.2724 11.0501 36.7123 11.2968 38.1146C11.3749 38.555 11.0782 38.9735 10.6378 39.0516C10.591 39.061 10.5441 39.0641 10.4973 39.0641Z" fill="white" fill-opacity="0.5"/>
<path d="M16.6452 36.2185C16.2704 36.2185 15.93 35.953 15.8519 35.572C15.6239 34.4601 15.5115 33.317 15.5115 32.1739C15.5115 28.5041 16.6671 25.0154 18.8596 22.0858C20.9772 19.253 23.9942 17.1166 27.3549 16.0735C27.7828 15.9392 28.2388 16.1797 28.3699 16.6044C28.5042 17.0323 28.2637 17.4852 27.8359 17.6195C24.8 18.5658 22.0734 20.496 20.1558 23.0571C18.1756 25.7056 17.1293 28.857 17.1293 32.1739C17.1293 33.2077 17.2355 34.2415 17.4385 35.244C17.5291 35.6844 17.248 36.1123 16.8076 36.2029C16.7545 36.2123 16.6983 36.2185 16.6452 36.2185Z" fill="white" fill-opacity="0.5"/>
<path d="M60.9345 39.0641C60.8877 39.0641 60.8408 39.061 60.794 39.0516C60.3536 38.9735 60.0569 38.555 60.135 38.1146C60.3817 36.7123 60.5067 35.2724 60.5067 33.8357C60.5067 28.4919 58.8201 23.4103 55.6281 19.1439C52.5423 15.015 48.1479 11.9042 43.2538 10.3832C42.8259 10.2489 42.5885 9.79602 42.7197 9.36813C42.854 8.94024 43.3069 8.70288 43.7347 8.83718C48.9506 10.4581 53.6355 13.775 56.9274 18.1726C60.3286 22.7232 62.1276 28.1389 62.1276 33.8357C62.1276 35.3661 61.9933 36.8997 61.731 38.3926C61.6623 38.7861 61.3187 39.0641 60.9345 39.0641Z" fill="white" fill-opacity="0.5"/>
<path d="M54.7871 36.2185C54.734 36.2185 54.6778 36.2123 54.6247 36.2029C54.1843 36.1123 53.9032 35.6844 53.9938 35.244C54.1968 34.2415 54.303 33.2077 54.303 32.1739C54.303 28.857 53.2567 25.7056 51.2766 23.0571C49.3589 20.496 46.6323 18.5658 43.5965 17.6195C43.1686 17.4852 42.9281 17.0323 43.0624 16.6044C43.1936 16.1797 43.6496 15.9392 44.0775 16.0735C47.4381 17.1166 50.4552 19.253 52.5727 22.0858C54.7652 25.0154 55.9209 28.5041 55.9209 32.1739C55.9209 33.317 55.8084 34.4601 55.5804 35.572C55.5023 35.953 55.1619 36.2185 54.7871 36.2185Z" fill="white" fill-opacity="0.5"/>
<path d="M39.6627 75.8729H31.2986C31.0737 75.8729 30.8551 75.7792 30.7021 75.6106C30.549 75.445 30.4741 75.2233 30.4928 74.9953L33.3881 39.6587C33.4256 39.2121 33.816 38.881 34.2626 38.9185C34.7092 38.956 35.0403 39.3464 35.0028 39.793L32.1794 74.252H38.7882L36.3021 39.7962C36.2677 39.3526 36.5676 38.9622 37.0142 38.9279C37.4608 38.8935 37.8481 39.2308 37.8824 39.6743L40.4716 75.0015C40.4872 75.2264 40.4092 75.4482 40.2561 75.6137C40.1031 75.7792 39.8876 75.8729 39.6627 75.8729Z" fill="white" fill-opacity="0.5"/>
<path d="M7.0644 52.4534C6.37104 52.4534 5.69642 52.0942 5.32787 51.4602C4.81253 50.5669 5.06864 49.4051 5.91504 48.8179L30.6075 32.0522C30.9761 31.7961 31.4789 31.8867 31.735 32.2553C31.9911 32.6207 31.9006 33.1266 31.532 33.3827L6.83953 50.1484C6.68024 50.2577 6.63339 50.4795 6.73022 50.6481C6.82704 50.8168 7.04566 50.8824 7.22057 50.798L33.4185 38.1082C33.8214 37.9146 34.3024 38.0833 34.4991 38.4862C34.6928 38.8891 34.5241 39.3732 34.1212 39.5668L7.92642 52.2566C7.64845 52.3909 7.35487 52.4534 7.0644 52.4534Z" fill="white" fill-opacity="0.5"/>
<path d="M64.1676 52.4534C63.8771 52.4534 63.5835 52.3909 63.3055 52.2566L37.1108 39.7292C36.7079 39.5356 36.5392 39.0515 36.7328 38.6486C36.9265 38.2457 37.4106 38.077 37.8135 38.2706L64.0114 50.798C64.1863 50.8824 64.4018 50.8168 64.5018 50.6481C64.5986 50.4763 64.5517 50.2577 64.3893 50.1484L39.6999 33.5452C39.3314 33.289 39.2408 32.7862 39.4969 32.4177C39.753 32.0491 40.2559 31.9585 40.6244 32.2146L65.3138 48.8179C66.1633 49.4051 66.4194 50.5669 65.9041 51.457C65.5356 52.0911 64.8609 52.4534 64.1676 52.4534Z" fill="white" fill-opacity="0.5"/>
<path d="M39.0182 31.9071C38.5965 31.9071 38.2405 31.5823 38.2124 31.1544L36.2072 1.7208C36.1947 1.52404 36.0292 1.37099 35.8324 1.37099H35.8293C35.6357 1.37099 35.4701 1.52091 35.4545 1.71456L33.2058 31.1263C33.1683 31.5729 32.7748 31.904 32.3281 31.8634C31.8815 31.8259 31.5536 31.4324 31.5911 30.9889L33.8398 1.57401C33.9304 0.54958 34.8018 -0.249973 35.8324 -0.249973H35.8387C36.8787 -0.246853 37.7501 0.568319 37.822 1.60524L39.8271 31.0388C39.8583 31.4855 39.5241 31.8727 39.0775 31.904C39.0556 31.9071 39.0369 31.9071 39.0182 31.9071Z" fill="white" fill-opacity="0.5"/>
<path d="M35.7172 30.4169C35.5142 30.4169 35.3112 30.4326 35.1081 30.4638C34.0775 30.6231 33.1717 31.1759 32.5564 32.0192C31.9412 32.8593 31.6913 33.89 31.8537 34.9207C32.013 35.9514 32.5627 36.8571 33.406 37.4724C34.2492 38.0877 35.2799 38.3375 36.3106 38.1782C37.3382 38.0158 38.2439 37.4661 38.8592 36.6229C39.4745 35.7827 39.7274 34.752 39.565 33.7214C39.4057 32.6907 38.8529 31.7849 38.0128 31.1697C37.335 30.6762 36.5386 30.4169 35.7172 30.4169ZM35.6984 39.3557C34.6397 39.3557 33.609 39.0246 32.7376 38.3875C31.6538 37.5942 30.9417 36.423 30.7356 35.0956C30.5263 33.7651 30.8511 32.4377 31.6444 31.3508C32.4378 30.2639 33.6059 29.5518 34.9332 29.3457C36.2637 29.1395 37.5943 29.4612 38.678 30.2545C39.7649 31.051 40.477 32.2191 40.6832 33.5465C40.8893 34.877 40.5676 36.2043 39.7743 37.2912C38.981 38.3781 37.8129 39.0871 36.4824 39.2964C36.22 39.337 35.9577 39.3557 35.6984 39.3557Z" fill="white" fill-opacity="0.5"/>
<path d="M35.7172 30.4169C35.5142 30.4169 35.3112 30.4326 35.1081 30.4638C34.0775 30.6231 33.1717 31.1759 32.5564 32.0192C31.9412 32.8593 31.6913 33.89 31.8537 34.9207C32.013 35.9514 32.5627 36.8571 33.406 37.4724C34.2492 38.0877 35.2799 38.3375 36.3106 38.1782C37.3382 38.0158 38.2439 37.4661 38.8592 36.6229C39.4745 35.7827 39.7274 34.752 39.565 33.7214C39.4057 32.6907 38.8529 31.7849 38.0128 31.1697C37.335 30.6762 36.5386 30.4169 35.7172 30.4169ZM35.6984 39.3557C34.6397 39.3557 33.609 39.0246 32.7376 38.3875C31.6538 37.5942 30.9417 36.423 30.7356 35.0956C30.5263 33.7651 30.8511 32.4377 31.6444 31.3508C32.4378 30.2639 33.6059 29.5518 34.9332 29.3457C36.2637 29.1395 37.5943 29.4612 38.678 30.2545C39.7649 31.051 40.477 32.2191 40.6832 33.5465C40.8893 34.877 40.5676 36.2043 39.7743 37.2912C38.981 38.3781 37.8129 39.0871 36.4824 39.2964C36.22 39.337 35.9577 39.3557 35.6984 39.3557Z" stroke="white" stroke-opacity="0.5" stroke-width="0.788" stroke-miterlimit="10"/>
<path d="M69.9836 89.25C59.936 80.4455 48.1801 75.3796 35.6152 75.3796C23.0504 75.3796 11.2975 80.4455 1.25 89.25" stroke="white" stroke-opacity="0.5" stroke-width="0.788" stroke-miterlimit="10" stroke-linecap="round"/>
</svg>
