<svg width="91" height="91" viewBox="0 0 91 91" fill="none" xmlns="http://www.w3.org/2000/svg">
<path d="M13.0153 7.76569C12.9807 7.38632 12.6445 7.10628 12.265 7.1402C11.8851 7.17441 11.6036 7.51056 11.6378 7.89045L13.0153 7.76569ZM21.3414 16.0338C21.722 16.0103 22.0124 15.6829 21.9891 15.3023C21.9656 14.9221 21.6379 14.6335 21.2577 14.6563L13.6749 15.1212L13.0153 7.76569L12.3265 7.82892L11.6378 7.89045L12.3607 15.9107C12.3942 16.2827 12.7177 16.5604 13.0905 16.5379L21.3414 16.0338Z" fill="white" fill-opacity="0.5"/>
<path d="M79.6429 83.0452C80.0226 83.011 80.304 82.6747 80.2701 82.295L79.5472 74.273C79.5132 73.9013 79.1901 73.6232 78.8174 73.6458L70.5665 74.15L70.4297 74.1739C70.1195 74.2571 69.9004 74.5483 69.9205 74.8814C69.9437 75.2622 70.2712 75.5524 70.6519 75.5291L78.2313 75.066L78.8943 82.418C78.9285 82.7977 79.2633 83.079 79.6429 83.0452Z" fill="white" fill-opacity="0.5"/>
<path d="M87.9642 57.8038C88.2855 57.8944 88.6183 57.7423 88.7658 57.4569L88.817 57.327L89.0631 56.4196C94.013 37.3344 85.8312 16.5658 67.8734 6.35315C49.6345 -4.01781 27.1864 -0.149929 13.3619 14.4196C13.0994 14.6962 13.111 15.1328 13.3876 15.3954C13.6296 15.625 13.9941 15.6457 14.2575 15.462L14.3634 15.3697L14.9974 14.7169C28.4399 1.13713 49.7939 -2.33971 67.1915 7.55285C84.5927 17.4492 92.5222 37.5767 87.725 56.0726L87.4874 56.951L87.4635 57.0895C87.4401 57.4098 87.6432 57.7132 87.9642 57.8038Z" fill="white" fill-opacity="0.5"/>
<path d="M23.6695 84.0905C41.6011 94.2881 63.597 90.7211 77.47 76.7607L78.1246 76.089L78.21 75.9779C78.3804 75.7057 78.3423 75.3417 78.1006 75.1115C77.8591 74.8814 77.4944 74.8617 77.2308 75.0448L77.1231 75.1354L76.4891 75.7882C63.0442 89.3168 41.7282 92.7701 24.3531 82.8891C6.70176 72.8508 -1.20286 52.2846 4.03325 33.5729C4.13601 33.2057 3.92191 32.8247 3.55473 32.7218C3.23336 32.6319 2.90179 32.7848 2.75493 33.0705L2.70366 33.2004L2.45927 34.1078C-2.44254 53.1693 5.73833 73.893 23.6695 84.0905Z" fill="white" fill-opacity="0.5"/>
<path d="M64.7698 43.769C64.7698 53.6466 57.0972 61.7337 47.3997 62.4705C47.338 62.4752 47.2795 62.4901 47.2236 62.5098H44.9285L44.009 62.4363C34.5701 61.4453 27.1841 53.4619 27.1841 43.769C27.1841 37.5759 31.0411 30.9171 35.4556 25.3513C39.5125 20.2364 43.9485 16.1615 45.9778 14.3899C48.0085 16.1611 52.4452 20.2342 56.5017 25.3479C60.9154 30.912 64.7697 37.5704 64.7698 43.769ZM66.1523 43.769C66.1523 37.0717 62.0292 30.0926 57.5835 24.4883C53.1151 18.8554 48.2076 14.4734 46.4272 12.9492C46.1686 12.7278 45.7868 12.7277 45.5283 12.9492C43.7505 14.4728 38.8415 18.8583 34.3721 24.4934C29.9262 30.0989 25.8033 37.0774 25.8032 43.769C25.8032 54.515 34.2529 63.2986 44.8516 63.8906H47.4526C47.5571 63.8905 47.6544 63.8639 47.7432 63.8223C58.0368 62.9179 66.1523 54.2982 66.1523 43.769Z" fill="white" fill-opacity="0.5"/>
<path d="M45.2866 34.0037V76.1506C45.2866 76.5321 45.5956 76.8411 45.9771 76.8411C46.3585 76.8411 46.6675 76.5321 46.6675 76.1506V34.0037C46.6671 33.6225 46.3583 33.3132 45.9771 33.3132C45.5958 33.3132 45.287 33.6225 45.2866 34.0037Z" fill="white" fill-opacity="0.5"/>
<path d="M45.9759 55.0085C50.4323 55.0085 54.4237 52.8573 57.2791 49.4543L57.8346 48.7571L57.908 48.6375C58.0466 48.3477 57.9672 47.9913 57.7013 47.7898C57.4353 47.5885 57.071 47.6088 56.8297 47.8206L56.734 47.9231L56.2213 48.5674C53.5885 51.7057 49.9628 53.6277 45.9759 53.6277C41.7233 53.6277 37.8856 51.4405 35.2213 47.9231C34.9909 47.6192 34.558 47.5595 34.254 47.7898C33.95 48.0201 33.8904 48.453 34.1207 48.7571C37.0016 52.5605 41.2222 55.0085 45.9759 55.0085Z" fill="white" fill-opacity="0.5"/>
<path d="M38.142 38.941C37.9114 38.6375 37.4785 38.579 37.1747 38.8095C36.8708 39.04 36.8109 39.4728 37.0414 39.7767L38.142 38.941ZM45.9777 44.485C49.5694 44.4849 52.7484 42.6312 54.914 39.7767C55.1442 39.473 55.0841 39.04 54.7807 38.8095C54.477 38.5791 54.0441 38.6378 53.8134 38.941C51.8634 41.5113 49.0671 43.104 45.9777 43.1041C42.8881 43.1041 40.092 41.5114 38.142 38.941L37.5917 39.3597L37.0414 39.7767C39.207 42.6312 42.3859 44.485 45.9777 44.485Z" fill="white" fill-opacity="0.5"/>
</svg>
