<svg width="34" height="27" viewBox="0 0 34 27" fill="none" xmlns="http://www.w3.org/2000/svg">
<path d="M29.6667 0.0664062H4.33333C3.28386 0.0675086 2.27768 0.4849 1.53559 1.22699C0.793494 1.96909 0.376102 2.97526 0.375 4.02474V23.0247C0.376102 24.0742 0.793494 25.0804 1.53559 25.8225C2.27768 26.5646 3.28386 26.982 4.33333 26.9831H29.6667C30.7161 26.982 31.7223 26.5646 32.4644 25.8225C33.2065 25.0804 33.6239 24.0742 33.625 23.0247V4.02474C33.6239 2.97526 33.2065 1.96909 32.4644 1.22699C31.7223 0.4849 30.7161 0.0675086 29.6667 0.0664062ZM32.0417 23.0247C32.041 23.6544 31.7905 24.2581 31.3453 24.7034C30.9 25.1486 30.2963 25.3991 29.6667 25.3997H4.33333C3.98674 25.3985 3.64468 25.3209 3.33145 25.1726C3.01822 25.0242 2.74151 24.8087 2.52097 24.5413L11.6284 17.3176C11.7913 17.1949 11.9913 17.1316 12.1951 17.1384C12.3989 17.1451 12.5943 17.2215 12.7487 17.3547L15.6703 20.0591C15.8084 20.1869 15.9875 20.2613 16.1755 20.269C16.3635 20.2766 16.5481 20.217 16.6962 20.1008L25.8761 12.9109C26.0389 12.7892 26.2385 12.727 26.4417 12.7346C26.6448 12.7422 26.8392 12.8191 26.9925 12.9527L32.0417 17.6249V23.0247ZM32.0417 15.4681L28.0679 11.7914C27.6392 11.401 27.0866 11.1742 26.5072 11.151C25.9279 11.1278 25.3589 11.3097 24.9004 11.6646L16.2509 18.4386L13.8241 16.192C13.3933 15.8 12.8375 15.5734 12.2555 15.5525C11.6735 15.5315 11.1029 15.7176 10.645 16.0775L1.95833 22.9674V4.02474C1.95902 3.39506 2.20946 2.79137 2.65471 2.34612C3.09996 1.90087 3.70366 1.65043 4.33333 1.64974H29.6667C30.2963 1.65043 30.9 1.90087 31.3453 2.34612C31.7905 2.79137 32.041 3.39506 32.0417 4.02474V15.4681ZM9.08333 4.81641C8.30045 4.81641 7.53515 5.04856 6.8842 5.48351C6.23326 5.91845 5.72591 6.53666 5.42631 7.25995C5.12671 7.98324 5.04833 8.77913 5.20106 9.54697C5.35379 10.3148 5.73079 11.0201 6.28437 11.5737C6.83795 12.1273 7.54326 12.5043 8.3111 12.657C9.07894 12.8097 9.87483 12.7314 10.5981 12.4318C11.3214 12.1322 11.9396 11.6248 12.3746 10.9739C12.8095 10.3229 13.0417 9.55762 13.0417 8.77474C13.0406 7.72526 12.6232 6.71909 11.8811 5.97699C11.139 5.2349 10.1328 4.81751 9.08333 4.81641ZM9.08333 11.1497C8.6136 11.1497 8.15442 11.0104 7.76385 10.7495C7.37329 10.4885 7.06888 10.1176 6.88912 9.68361C6.70936 9.24964 6.66233 8.7721 6.75397 8.3114C6.84561 7.85069 7.07181 7.42751 7.40395 7.09536C7.7361 6.76321 8.15929 6.53701 8.61999 6.44537C9.0807 6.35373 9.55823 6.40077 9.99221 6.58053C10.4262 6.76028 10.7971 7.06469 11.0581 7.45526C11.319 7.84583 11.4583 8.30501 11.4583 8.77474C11.4576 9.40442 11.2072 10.0081 10.762 10.4534C10.3167 10.8986 9.71301 11.1491 9.08333 11.1497Z" fill="white"/>
</svg>
