<svg width="11" height="14" viewBox="0 0 11 14" fill="none" xmlns="http://www.w3.org/2000/svg">
<path d="M5.25 0C2.3555 0 0 2.37183 0 5.28792C0 9.43133 4.7565 13.7095 4.95892 13.8892C5.04233 13.9632 5.14617 14 5.25 14C5.35383 14 5.45767 13.9633 5.54108 13.8898C5.7435 13.7095 10.5 9.43133 10.5 5.28792C10.5 2.37183 8.1445 0 5.25 0ZM5.25 8.16667C3.64175 8.16667 2.33333 6.85825 2.33333 5.25C2.33333 3.64175 3.64175 2.33333 5.25 2.33333C6.85825 2.33333 8.16667 3.64175 8.16667 5.25C8.16667 6.85825 6.85825 8.16667 5.25 8.16667Z" fill="#0077C9" fill-opacity="0.5"/>
</svg>
