<svg width="219" height="54" viewBox="0 0 219 54" fill="none" xmlns="http://www.w3.org/2000/svg">
<g clip-path="url(#clip0_3915_3514)">
<mask id="mask0_3915_3514" style="mask-type:luminance" maskUnits="userSpaceOnUse" x="0" y="0" width="108" height="55">
<path d="M31.7556 36.7667C26.2909 21.4764 46.2922 5.39235 59.8828 9.6713C48.4291 4.81073 30.3133 11.2282 25.6434 22.8928C17.7828 42.5274 35.2286 51.3233 42.0745 53.1103C48.1112 54.6864 53.0381 53.9897 60.2162 52.4155C71.6105 49.917 107.028 39.5304 107.028 39.5304C81.5533 43.9113 42.2292 58.3346 31.7556 36.7667ZM0 14.4701C0 14.4701 35.4179 4.08331 46.8124 1.58493C53.9901 0.0107727 58.9174 -0.685955 64.9541 0.890118C71.8 2.6772 89.2457 11.473 81.385 31.1076C76.715 42.7723 58.5991 49.1897 47.1458 44.3291C60.736 48.6077 80.7376 32.5239 75.2727 17.2338C64.7994 -4.33455 25.4751 10.0891 0 14.4701Z" fill="white"/>
</mask>
<g mask="url(#mask0_3915_3514)">
<path d="M47.4602 53.9998V53.9614H46.92V53.9231H46.4184V53.8847H46.0711V53.8463H45.7239V53.808H45.3766V53.7696H45.1451V53.7312H44.875V53.6929H44.6435V53.6545H44.412V53.6161H44.1805V53.5778H43.9875V53.5394H43.7946V53.501H43.6017V53.4627H43.4087V53.4243H43.2158V53.3859H43.0229V53.3476H42.8685V53.3092H42.7142V53.2708H42.5599V53.2325H42.3669V53.1941H42.2126V53.1557H42.0968V53.1174H41.9425V53.079H41.7881V53.0406H41.6724V53.0023H41.518V52.9639H41.4023V52.9255H41.2865V52.8872H41.1708V52.8488H41.0164V52.8104H40.9007V52.7721H40.7849V52.7337H40.6692V52.6953H40.5534V52.657H40.4377V52.6186H40.3219V52.5802H40.2447V52.5419H40.129V52.5035H40.0132V52.4652H39.8975V52.4268H39.7817V52.3884H39.7045V52.3501H39.5888V52.3117H39.5116V52.2733H39.3958V52.235H39.3187V52.1966H39.2029V52.1582H39.0872V52.1199H39.01V52.0815H38.9328V52.0431H38.8171V52.0048H38.7399V51.9664H38.6627V51.928H38.547V51.8897H38.4698V51.8513H38.354V51.8129H38.2769V51.7746H38.1997V51.7362H38.1225V51.6978H38.0068V51.6595H37.9296V51.6211H37.8524V51.5827H37.7752V51.5444H37.6981V51.506H37.6209V51.4676H37.5052V51.4293H37.428V51.3909H37.3508V51.3525H37.2736V51.3142H37.1965V51.2758H37.1193V51.2374H37.0421V51.1991H36.965V51.1607H36.8878V51.1223H36.8106V51.084H36.7334V51.0456H36.6563V51.0072H36.5791V50.9689H36.5019V50.9305H36.4248V50.8921H36.3476V50.8538H36.2704V50.8154H36.1932V50.7771H36.1161V50.7387H36.0775V50.7003H36.0003V50.662H35.9231V50.6236H35.846V50.5852H35.7688V50.5469H35.6916V50.5085H35.6145V50.4701H35.5759V50.4318H35.4987V50.3934H35.4215V50.355H35.3444V50.3167H35.3058V50.2783H35.2286V50.2399H35.1514V50.2016H35.1128V50.1632H35.0357V50.1248H34.9585V50.0865H34.8813V50.0481H34.8428V50.0097H34.7656V49.9714H34.6884V49.933H34.6498V49.8946H34.5727V49.8563H34.4955V49.8179H34.4569V49.7795H34.3797V49.7412H34.3411V49.7028H34.264V49.6644H34.1868V49.6261H34.1482V49.5877H34.071V49.5493H34.0325V49.511H33.9553V49.4726H33.8781V49.4342H33.8395V49.3959H33.7624V49.3575H33.7238V49.3191H33.6466V49.2808H33.608V49.2424H33.5308V49.204H33.4923V49.1657H33.4151V49.1273H33.3765V49.089H33.2993V49.0506H33.2607V49.0122H33.2222V48.9739H33.145V48.9355H33.1064V48.8971H33.0292V48.8588H32.9906V48.8204H32.9135V48.782H32.8749V48.7437H32.7977V48.7053H32.7591V48.6669H32.682V48.6286H32.6434V48.5902H32.6048V48.5518H32.5276V48.5135H32.489V48.4751H32.4504V48.4367H32.3733V48.3984H32.3347V48.36H32.2961V48.3216H32.2189V48.2833H32.1803V48.2449H32.1418V48.2065H32.0646V48.1682H32.026V48.1298H31.9874V48.0914H31.9102V48.0531H31.8717V48.0147H31.8331V47.9763H31.7559V47.938H31.7173V47.8996H31.6787V47.8612H31.6401V47.8229H31.6016V47.7845H31.5244V47.7461H31.4858V47.7078H31.4472V47.6694H31.4086V47.631H31.3315V47.5927H31.2929V47.5543H31.2543V47.516H31.2157V47.4776H31.1771V47.4392H31.1V47.4009H31.0614V47.3625H31.0228V47.3241H30.9842V47.2858H30.907V47.2474H30.8684V47.209H30.8299V47.1707H30.7913V47.1323H30.7527V47.0939H30.7141V47.0556H30.6755V47.0172H30.5983V46.9788H30.5598V46.9405H30.5212V46.9021H30.4826V46.8637H30.444V46.8254H30.4054V46.787H30.3668V46.7486H30.3282V46.7103H30.2897V46.6719H30.2125V46.6335H30.1739V46.5952H30.1353V46.5568H30.0967V46.5184H30.0581V46.4801H30.0196V46.4417H29.981V46.4033H29.9424V46.365H29.9038V46.3266H29.8652V46.2882H29.8266V46.2499H29.788V46.2115H29.7495V46.1731H29.7109V46.1348H29.6723V46.0964H29.6337V46.058H29.5951V46.0197H29.5565V45.9813H29.5179V45.9429H29.4794V45.9046H29.4408V45.8662H29.4022V45.8279H29.3636V45.7895H29.325V45.7511H29.2864V45.7128H29.2478V45.6744H29.2093V45.636H29.1707V45.5977H29.1321V45.5593H29.0935V45.5209H29.0549V45.4826H29.0163V45.4442H28.9777V45.4058H28.9392V45.3675H28.9006V45.3291H28.862V45.2907H28.8234V45.2524H28.7848V45.1756H28.7462V45.1373H28.7076V45.0989H28.6691V45.0605H28.6305V45.0222H28.5919V44.9838H28.5533V44.9454H28.5147V44.9071H28.4761V44.8687H28.4375V44.8303H28.399V44.792H28.3604V44.7152H28.3218V44.6769H28.2832V44.6385H28.2446V44.6001H28.206V44.5618H28.1674V44.485H28.1289V44.4467H28.0903V44.4083H28.0517V44.3699H28.0131V44.2932H27.9745V44.2548H27.9359V44.2165H27.8974V44.1781H27.8588V44.1398H27.8202V44.063H27.7816V44.0247H27.743V43.9863H27.7044V43.9479H27.6658V43.8712H27.6273V43.8328H27.5887V43.7945H27.5501V43.7561H27.5115V43.6794H27.4729V43.641H27.4343V43.5643H27.3957V43.5259H27.3572V43.4875H27.3186V43.4108H27.28V43.3724H27.2414V43.3341H27.2028V43.2573H27.1642V43.219H27.1256V43.1422H27.0871V43.1039H27.0485V43.0655H27.0099V42.9888H26.9713V42.9504H26.9327V42.8737H26.8941V42.8353H26.8555V42.7969H26.817V42.7202H26.7784V42.6818H26.7398V42.6051H26.7012V42.5284H26.6626V42.49H26.624V42.4133H26.5854V42.3749H26.5469V42.2982H26.5083V42.2215H26.4697V42.1831H26.4311V42.1064H26.3925V42.068H26.3539V41.9913H26.3153V41.9529H26.2768V41.8762H26.2382V41.7994H26.1996V41.7611H26.161V41.6843H26.1224V41.6076H26.0838V41.5309H26.0452V41.4925H26.0067V41.4158H25.9681V41.339H25.9295V41.2623H25.8909V41.1856H25.8523V41.1088H25.8137V41.0705H25.7751V40.9937H25.7366V40.917H25.698V40.8403H25.6594V40.7636H25.6208V40.6868H25.5822V40.6101H25.5436V40.5334H25.505V40.4566H25.4665V40.3799H25.4279V40.3032H25.3893V40.2264H25.3507V40.1113H25.3121V40.0346H25.2735V39.9579H25.2349V39.8811H25.1964V39.8044H25.1578V39.6893H25.1192V39.6126H25.0806V39.5358H25.042V39.4591H25.0034V39.344H24.9648V39.2673H24.9263V39.1522H24.8877V39.0371H24.8491V38.9604H24.8105V38.8453H24.7719V38.7302H24.7333V38.6534H24.6947V38.5383H24.6562V38.4232H24.6176V38.3465H24.579V38.2314H24.5404V38.0779H24.5018V37.9628H24.4632V37.8094H24.4247V37.6943H24.3861V37.5792H24.3475V37.4257H24.3089V37.3106H24.2703V37.1572H24.2317V37.0421H24.1931V36.8886H24.1546V36.6968H24.116V36.5049H24.0774V36.3515H24.0388V36.1596H24.0002V35.9678H23.9616V35.8144H23.923V35.5842H23.8845V35.3156H23.8459V35.047H23.8073V34.7401H23.7687V34.4715H23.7301V34.0879H23.6915V33.4357H23.6529V31.0953H23.6915V30.6733H23.7301V30.2129H23.7687V29.7909H23.8073V29.5223H23.8459V29.2922H23.8845V29.0236H23.923V28.7934H23.9616V28.5632H24.0002V28.2946H24.0388V28.0644H24.0774V27.911H24.116V27.7575H24.1546V27.5657H24.1931V27.4122H24.2317V27.2588H24.2703V27.0669H24.3089V26.9135H24.3475V26.7216H24.3861V26.5682H24.4247V26.4147H24.4632V26.2612H24.5018V26.1461H24.5404V26.031H24.579V25.8776H24.6176V25.7625H24.6562V25.6474H24.6947V25.4939H24.7333V25.3788H24.7719V25.2637H24.8105V25.1103H24.8491V24.9952H24.8877V24.8801H24.9263V24.7266H24.9648V24.6115H25.0034V24.4964H25.042V24.3813H25.0806V24.3046H25.1192V24.1895H25.1578V24.0744H25.1964V23.9593H25.2349V23.8442H25.2735V23.7675H25.3121V23.6524H25.3507V23.5373H25.3893V23.4222H25.4279V23.3071H25.4665V23.2303H25.505V23.1152H25.5436V23.0385H25.5822V22.9234H25.6208V22.8467H25.6594V22.7316H25.698V22.6549H25.7366V22.5398H25.7751V22.463H25.8137V22.3863H25.8523V22.3096H25.8909V22.1945H25.9295V22.1177H25.9681V22.041H26.0067V21.9643H26.0452V21.8875H26.0838V21.7724H26.1224V21.7341H26.161V21.6573H26.1996V21.5806H26.2382V21.5039H26.2768V21.4271H26.3153V21.3504H26.3539V21.2737H26.3925V21.1969H26.4311V21.1202H26.4697V21.0435H26.5083V21.0051H26.5469V20.9284H26.5854V20.8517H26.624V20.7749H26.6626V20.6982H26.7012V20.6215H26.7398V20.5831H26.7784V20.5064H26.817V20.468H26.8555V20.3913H26.8941V20.3145H26.9327V20.2762H26.9713V20.1994H27.0099V20.1227H27.0485V20.0843H27.0871V20.0076H27.1256V19.9309H27.1642V19.8925H27.2028V19.8158H27.2414V19.7774H27.28V19.7007H27.3186V19.6623H27.3572V19.5856H27.3957V19.5472H27.4343V19.4705H27.4729V19.4321H27.5115V19.3554H27.5501V19.317H27.5887V19.2787H27.6273V19.2019H27.6658V19.1636H27.7044V19.0868H27.743V19.0485H27.7816V19.0101H27.8202V18.9334H27.8588V18.895H27.8974V18.8183H27.9359V18.7799H27.9745V18.7415H28.0131V18.6648H28.0517V18.6264H28.0903V18.5881H28.1289V18.5113H28.1674V18.473H28.206V18.4346H28.2446V18.3962H28.2832V18.3195H28.3218V18.2811H28.3604V18.2428H28.399V18.2044H28.4375V18.1277H28.4761V18.0893H28.5147V18.0509H28.5533V18.0126H28.5919V17.9358H28.6305V17.8975H28.6691V17.8591H28.7076V17.8207H28.7462V17.7824H28.7848V17.7057H28.8234V17.6673H28.862V17.6289H28.9006V17.5906H28.9392V17.5522H28.9777V17.5138H29.0163V17.4755H29.0549V17.4371H29.0935V17.3604H29.1321V17.322H29.1707V17.2836H29.2093V17.2453H29.2478V17.2069H29.2864V17.1685H29.325V17.1302H29.3636V17.0918H29.4022V17.0151H29.4408V16.9767H29.4794V16.9383H29.5179V16.9H29.5565V16.8616H29.5951V16.8232H29.6337V16.7849H29.6723V16.7465H29.7109V16.7081H29.7495V16.6698H29.788V16.6314H29.8266V16.593H29.8652V16.5547H29.9038V16.5163H29.9424V16.4779H29.981V16.4396H30.0196V16.4012H30.0581V16.3628H30.0967V16.3245H30.1353V16.2861H30.1739V16.2477H30.2125V16.2094H30.2511V16.171H30.2897V16.1326H30.3282V16.0943H30.3668V16.0559H30.4054V16.0176H30.444V15.9792H30.4826V15.9408H30.5212V15.9025H30.5598V15.8641H30.6369V15.8257H30.6755V15.7874H30.7141V15.749H30.7527V15.7106H30.7913V15.6723H30.8299V15.6339H30.8684V15.5955H30.907V15.5572H30.9456V15.5188H31.0228V15.4804H31.0614V15.4421H31.1V15.4037H31.1385V15.3653H31.1771V15.327H31.2157V15.2886H31.2543V15.2502H31.2929V15.2119H31.3315V15.1735H31.4086V15.1351H31.4472V15.0968H31.4858V15.0584H31.5244V15.02H31.563V14.9817H31.6401V14.9433H31.6787V14.9049H31.7173V14.8666H31.7559V14.8282H31.8331V14.7898H31.8717V14.7515H31.9102V14.7131H31.9488V14.6747H31.9874V14.6364H32.0646V14.598H32.1032V14.5596H32.1418V14.5213H32.1803V14.4829H32.2575V14.4445H32.2961V14.4062H32.3347V14.3678H32.3733V14.3295H32.4504V14.2911H32.489V14.2527H32.5662V14.2144H32.6048V14.176H32.6434V14.1376H32.7205V14.0993H32.7591V14.0609H32.7977V14.0225H32.8749V13.9842H32.9135V13.9458H32.9521V13.9074H33.0292V13.8691H33.0678V13.8307H33.1064V13.7923H33.1836V13.754H33.2222V13.7156H33.2607V13.6772H33.3379V13.6389H33.3765V13.6005H33.4537V13.5621H33.4923V13.5238H33.5694V13.4854H33.608V13.447H33.6852V13.4087H33.7238V13.3703H33.8009V13.3319H33.8395V13.2936H33.9167V13.2552H33.9553V13.2168H34.0325V13.1785H34.071V13.1401H34.1482V13.1017H34.1868V13.0634H34.264V13.025H34.3026V12.9866H34.3797V12.9483H34.4183V12.9099H34.4955V12.8715H34.5341V12.8332H34.6112V12.7948H34.6884V12.7565H34.727V12.7181H34.8042V12.6797H34.8813V12.6414H34.9199V12.603H34.9971V12.5646H35.0743V12.5263H35.1128V12.4879H35.19V12.4495H35.2286V12.4112H35.3058V12.3728H35.3829V12.3344H35.4215V12.2961H35.4987V12.2577H35.5759V12.2193H35.653V12.181H35.6916V12.1426H35.7688V12.1042H35.846V12.0659H35.9231V12.0275H36.0003V11.9891H36.0775V11.9508H36.1161V11.9124H36.1932V11.874H36.2704V11.8357H36.3476V11.7973H36.4248V11.7589H36.4633V11.7206H36.5405V11.6822H36.6177V11.6438H36.6949V11.6055H36.772V11.5671H36.8492V11.5287H36.9264V11.4904H37.0035V11.452H37.0807V11.4136H37.1579V11.3753H37.2351V11.3369H37.3122V11.2985H37.3894V11.2602H37.4666V11.2218H37.5437V11.1834H37.6209V11.1451H37.6981V11.1067H37.7752V11.0684H37.8524V11.03H37.9682V10.9916H38.0453V10.9533H38.1225V10.9149H38.1997V10.8765H38.2769V10.8382H38.3926V10.7998H38.4698V10.7614H38.547V10.7231H38.6241V10.6847H38.7399V10.6463H38.8171V10.608H38.8942V10.5696H38.9714V10.5312H39.0872V10.4929H39.1643V10.4545H39.2801V10.4161H39.3573V10.3778H39.473V10.3394H39.5502V10.301H39.6659V10.2627H39.7431V10.2243H39.8589V10.1859H39.936V10.1476H40.0518V10.1092H40.129V10.0708H40.2447V10.0325H40.3605V9.99411H40.4762V9.95574H40.5534V9.91737H40.6692V9.87901H40.7849V9.84064H40.9007V9.80228H41.0164V9.76391H41.0936V9.72554H41.2094V9.68718H41.3251V9.64882H41.4409V9.61045H41.5566V9.57208H41.6724V9.53372H41.8267V9.49535H41.9425V9.45699H42.0582V9.41862H42.174V9.38025H42.2898V9.34189H42.4441V9.30352H42.5599V9.26516H42.6756V9.22679H42.83V9.18842H42.9843V9.15006H43.1001V9.11169H43.2544V9.07333H43.4087V9.03496H43.5631V8.99659H43.6788V8.95823H43.8332V8.91986H43.9875V8.8815H44.1419V8.84313H44.3348V8.80476H44.4891V8.7664H44.6821V8.72803H44.8364V8.68967H45.0293V8.6513H45.1837V8.61293H45.3766V8.57457H45.6081V8.5362H45.801V8.49784H46.0326V8.45947H46.2255V8.4211H46.457V8.38274H46.7271V8.34437H46.9972V8.30601H47.2673V8.26764H47.5374V8.22927H47.8461V8.19091H48.2319V8.15255H48.6564V8.11418H49.0422V8.07581H49.7754V8.03745H51.5889V7.99908H51.6275V8.03745H52.6307V8.07581H53.2095V8.11418H53.6339V8.15255H54.0584V8.19091H54.367V8.22927H54.6371V8.26764H54.9072V8.30601H55.1773V8.34437H55.4088V8.38274H55.6018V8.4211H55.8333V8.45947H56.0262V8.49784H56.2191V8.5362H56.4121V8.57457H56.605V8.61293H56.7208V8.6513H56.8751V8.68967H57.0294V8.72803H57.1838V8.7664H57.3381V8.80476H57.4925V8.84313H57.6468V8.8815H57.7626V8.91986H57.8783V8.95823H58.0327V8.99659H58.1484V9.03496H58.2642V9.07333H58.3799V9.11169H58.4957V9.15006H58.6114V9.18842H58.7272V9.22679H58.843V9.26516H58.9587V9.30352H59.0745V9.34189H59.1516V9.38025H59.2674V9.41862H59.3832V9.45699H59.4603V9.49535H59.5761V9.53372H59.6533V9.57208H59.769V9.61045H59.8462V9.64882H59.8848V9.68718H59.8076V9.64882H59.6533V9.61045H59.5375V9.57208H59.3832V9.53372H59.2288V9.49535H59.0745V9.45699H58.9201V9.41862H58.7658V9.38025H58.6114V9.34189H58.4185V9.30352H58.187V9.26516H57.9555V9.22679H57.7626V9.18842H57.5311V9.15006H57.2995V9.11169H56.9137V9.07333H56.4507V9.03496H56.0262V8.99659H54.3284V9.03496H53.7883V9.07333H53.2095V9.11169H52.9394V9.15006H52.6693V9.18842H52.3992V9.22679H52.1291V9.26516H51.859V9.30352H51.6275V9.34189H51.4731V9.38025H51.2802V9.41862H51.0873V9.45699H50.8943V9.49535H50.74V9.53372H50.5471V9.57208H50.3541V9.61045H50.2384V9.64882H50.084V9.68718H49.9683V9.72554H49.8139V9.76391H49.6596V9.80228H49.5438V9.84064H49.3895V9.87901H49.2737V9.91737H49.1194V9.95574H49.0036V9.99411H48.8879V10.0325H48.7721V10.0708H48.6564V10.1092H48.5406V10.1476H48.4249V10.1859H48.3091V10.2243H48.1933V10.2627H48.0776V10.301H47.9618V10.3394H47.8847V10.3778H47.7689V10.4161H47.6532V10.4545H47.5374V10.4929H47.4602V10.5312H47.3445V10.5696H47.2673V10.608H47.1515V10.6463H47.0744V10.6847H46.9972V10.7231H46.8814V10.7614H46.8043V10.7998H46.6885V10.8382H46.6113V10.8765H46.4956V10.9149H46.4184V10.9533H46.3027V10.9916H46.2255V11.03H46.1483V11.0684H46.0711V11.1067H45.994V11.1451H45.9168V11.1834H45.8396V11.2218H45.7625V11.2602H45.6467V11.2985H45.5695V11.3369H45.4924V11.3753H45.4152V11.4136H45.338V11.452H45.2608V11.4904H45.1837V11.5287H45.1065V11.5671H45.0293V11.6055H44.9522V11.6438H44.875V11.6822H44.7978V11.7206H44.7206V11.7589H44.6435V11.7973H44.5663V11.8357H44.4891V11.874H44.4506V11.9124H44.3734V11.9508H44.2962V11.9891H44.219V12.0275H44.1419V12.0659H44.0647V12.1042H44.0261V12.1426H43.9489V12.181H43.8718V12.2193H43.7946V12.2577H43.7174V12.2961H43.6403V12.3344H43.6017V12.3728H43.5245V12.4112H43.4473V12.4495H43.4087V12.4879H43.3316V12.5263H43.2544V12.5646H43.2158V12.603H43.1386V12.6414H43.1001V12.6797H43.0229V12.7181H42.9457V12.7565H42.9071V12.7948H42.83V12.8332H42.7528V12.8715H42.7142V12.9099H42.637V12.9483H42.5984V12.9866H42.5213V13.025H42.4441V13.0634H42.4055V13.1017H42.3283V13.1401H42.2898V13.1785H42.2126V13.2168H42.174V13.2552H42.0968V13.2936H42.0582V13.3319H41.9811V13.3703H41.9425V13.4087H41.8653V13.447H41.8267V13.4854H41.7496V13.5238H41.711V13.5621H41.6724V13.6005H41.5952V13.6389H41.5566V13.6772H41.4795V13.7156H41.4409V13.754H41.3637V13.7923H41.3251V13.8307H41.248V13.8691H41.2094V13.9074H41.1708V13.9458H41.0936V13.9842H41.055V14.0225H40.9779V14.0609H40.9393V14.0993H40.9007V14.1376H40.8235V14.176H40.7849V14.2144H40.7463V14.2527H40.7078V14.2911H40.6306V14.3295H40.592V14.3678H40.5534V14.4062H40.4762V14.4445H40.4377V14.4829H40.3991V14.5213H40.3219V14.5596H40.2833V14.598H40.2447V14.6364H40.2061V14.6747H40.129V14.7131H40.0904V14.7515H40.0518V14.7898H39.9746V14.8282H39.936V14.8666H39.8975V14.9049H39.8203V14.9433H39.7817V14.9817H39.7431V15.02H39.7045V15.0584H39.6659V15.0968H39.6274V15.1351H39.5502V15.1735H39.5116V15.2119H39.473V15.2502H39.4344V15.2886H39.3958V15.327H39.3573V15.3653H39.2801V15.4037H39.2415V15.4421H39.2029V15.4804H39.1643V15.5188H39.1257V15.5572H39.0872V15.5955H39.01V15.6339H38.9714V15.6723H38.9328V15.7106H38.8942V15.749H38.8556V15.7874H38.8171V15.8257H38.7399V15.8641H38.7013V15.9025H38.6627V15.9408H38.6241V15.9792H38.5855V16.0176H38.547V16.0559H38.5084V16.0943H38.4698V16.1326H38.4312V16.171H38.3926V16.2094H38.354V16.2477H38.3154V16.2861H38.2769V16.3245H38.2383V16.3628H38.1997V16.4012H38.1611V16.4396H38.0839V16.4779H38.0453V16.5163H38.0068V16.5547H37.9682V16.593H37.9296V16.6314H37.891V16.6698H37.8524V16.7081H37.8138V16.7465H37.7752V16.7849H37.7367V16.8232H37.6981V16.8616H37.6595V16.9H37.6209V16.9383H37.5823V16.9767H37.5437V17.0151H37.5052V17.0534H37.4666V17.0918H37.428V17.1302H37.3894V17.1685H37.3508V17.2069H37.3122V17.2453H37.2736V17.2836H37.2351V17.322H37.1965V17.3604H37.1579V17.4371H37.1193V17.4755H37.0807V17.5138H37.0421V17.5522H37.0035V17.5906H36.965V17.6289H36.9264V17.6673H36.8878V17.7057H36.8492V17.744H36.8106V17.7824H36.772V17.8207H36.7334V17.8591H36.6949V17.8975H36.6563V17.9358H36.6177V17.9742H36.5791V18.0126H36.5405V18.0893H36.5019V18.1277H36.4633V18.166H36.4248V18.2044H36.3862V18.2428H36.3476V18.3195H36.309V18.3579H36.2704V18.3962H36.2318V18.4346H36.1932V18.473H36.1547V18.5113H36.1161V18.5881H36.0775V18.6264H36.0389V18.6648H36.0003V18.7032H35.9617V18.7415H35.9231V18.8183H35.8846V18.8566H35.846V18.895H35.8074V18.9334H35.7688V18.9717H35.7302V19.0101H35.6916V19.0868H35.653V19.1252H35.6145V19.1636H35.5759V19.2019H35.5373V19.2787H35.4987V19.317H35.4601V19.3554H35.4215V19.4321H35.3829V19.4705H35.3444V19.5089H35.3058V19.5856H35.2672V19.6239H35.2286V19.6623H35.19V19.739H35.1514V19.7774H35.1128V19.8158H35.0743V19.8925H35.0357V19.9309H34.9971V19.9692H34.9585V20.046H34.9199V20.0843H34.8813V20.1227H34.8428V20.1994H34.8042V20.2378H34.7656V20.2762H34.727V20.3529H34.6884V20.3913H34.6498V20.468H34.6112V20.5064H34.5727V20.5831H34.5341V20.6215H34.4955V20.6982H34.4569V20.7366H34.4183V20.8133H34.3797V20.8517H34.3411V20.9284H34.3026V20.9668H34.264V21.0435H34.2254V21.0819H34.1868V21.1586H34.1482V21.1969H34.1096V21.2737H34.071V21.312H34.0325V21.3888H33.9939V21.4271H33.9553V21.5039H33.9167V21.5422H33.8781V21.619H33.8395V21.6957H33.8009V21.7341H33.7624V21.8108H33.7238V21.8875H33.6852V21.9643H33.6466V22.0026H33.608V22.0794H33.5694V22.1561H33.5308V22.2328H33.4923V22.2712H33.4537V22.3479H33.4151V22.4247H33.3765V22.5014H33.3379V22.5398H33.2993V22.6165H33.2607V22.6932H33.2222V22.7699H33.1836V22.8083H33.145V22.885H33.1064V22.9618H33.0678V23.0385H33.0292V23.1152H32.9906V23.192H32.9521V23.2687H32.9135V23.3454H32.8749V23.4222H32.8363V23.5373H32.7977V23.614H32.7591V23.6907H32.7205V23.7675H32.682V23.8442H32.6434V23.9209H32.6048V23.9977H32.5662V24.0744H32.5276V24.1511H32.489V24.2279H32.4504V24.343H32.4119V24.4197H32.3733V24.5348H32.3347V24.6115H32.2961V24.7266H32.2575V24.8033H32.2189V24.8801H32.1803V24.9952H32.1418V25.0719H32.1032V25.187H32.0646V25.2637H32.026V25.3788H31.9874V25.4556H31.9488V25.5707H31.9102V25.6858H31.8717V25.8009H31.8331V25.916H31.7945V26.031H31.7559V26.1461H31.7173V26.2996H31.6787V26.4147H31.6401V26.5298H31.6016V26.6449H31.563V26.76H31.5244V26.8751H31.4858V27.0286H31.4472V27.182H31.4086V27.3739H31.3701V27.5273H31.3315V27.6808H31.2929V27.8342H31.2543V27.9877H31.2157V28.1412H31.1771V28.3714H31.1385V28.6016H31.1V28.8701H31.0614V29.1003H31.0228V29.3305H30.9842V29.5991H30.9456V30.0595H30.907V30.635H30.8684V32.4765H30.907V32.8218H30.9456V33.2055H30.9842V33.5508H31.0228V33.8961H31.0614V34.0879H31.1V34.2414H31.1385V34.4332H31.1771V34.625H31.2157V34.8168H31.2543V35.0087H31.2929V35.2005H31.3315V35.354H31.3701V35.5074H31.4086V35.6225H31.4472V35.776H31.4858V35.8911H31.5244V36.0445H31.563V36.1596H31.6016V36.3131H31.6401V36.4282H31.6787V36.5433H31.7173V36.6584H31.7559V36.7351H31.7945V36.8119H31.8331V36.8886H31.8717V37.0037H31.9102V37.0421H31.9488V37.1188H31.9874V37.1955H32.026V37.2723H32.0646V37.349H32.1032V37.4257H32.1418V37.5025H32.1803V37.5792H32.2189V37.6559H32.2575V37.7326H32.2961V37.771H32.3347V37.8477H32.3733V37.9245H32.4119V37.9628H32.4504V38.0396H32.489V38.1163H32.5276V38.1547H32.5662V38.2314H32.6048V38.3081H32.6434V38.3849H32.682V38.4232H32.7205V38.5H32.7591V38.5767H32.7977V38.6151H32.8363V38.6918H32.8749V38.7302H32.9135V38.8069H32.9521V38.8453H32.9906V38.922H33.0292V38.9604H33.0678V39.0371H33.1064V39.0755H33.145V39.1522H33.1836V39.1906H33.2222V39.2673H33.2607V39.3056H33.2993V39.3824H33.3379V39.4207H33.3765V39.4975H33.4151V39.5358H33.4537V39.6126H33.4923V39.6509H33.5308V39.6893H33.5694V39.766H33.608V39.8044H33.6466V39.8428H33.6852V39.9195H33.7238V39.9579H33.7624V39.9962H33.8009V40.073H33.8395V40.1113H33.8781V40.1497H33.9167V40.2264H33.9553V40.2648H33.9939V40.3032H34.0325V40.3799H34.071V40.4183H34.1096V40.4566H34.1482V40.495H34.1868V40.5334H34.2254V40.5717H34.264V40.6485H34.3026V40.6868H34.3411V40.7252H34.3797V40.7636H34.4183V40.8019H34.4569V40.8787H34.4955V40.917H34.5341V40.9554H34.5727V40.9937H34.6112V41.0321H34.6498V41.0705H34.6884V41.1472H34.727V41.1856H34.7656V41.2239H34.8042V41.2623H34.8428V41.3007H34.8813V41.339H34.9199V41.3774H34.9585V41.4158H34.9971V41.4541H35.0357V41.4925H35.0743V41.5309H35.1128V41.5692H35.1514V41.6076H35.19V41.646H35.2286V41.6843H35.2672V41.7227H35.3058V41.7611H35.3444V41.7994H35.3829V41.8378H35.4215V41.9145H35.4987V41.9529H35.5373V41.9913H35.5759V42.0296H35.6145V42.068H35.653V42.1064H35.6916V42.1447H35.7302V42.1831H35.7688V42.2215H35.8074V42.2598H35.846V42.2982H35.8846V42.3366H35.9231V42.3749H35.9617V42.4133H36.0003V42.4517H36.0775V42.49H36.1161V42.5284H36.1547V42.5668H36.1932V42.6051H36.2318V42.6435H36.2704V42.6818H36.309V42.7202H36.3862V42.7586H36.4248V42.7969H36.4633V42.8353H36.5019V42.8737H36.5405V42.912H36.6177V42.9504H36.6563V42.9888H36.6949V43.0271H36.7334V43.0655H36.772V43.1039H36.8492V43.1422H36.8878V43.1806H36.9264V43.219H36.965V43.2573H37.0421V43.2957H37.0807V43.3341H37.1193V43.3724H37.1965V43.4108H37.2351V43.4492H37.2736V43.4875H37.3508V43.5259H37.3894V43.5643H37.428V43.6026H37.5052V43.641H37.5437V43.6794H37.5823V43.7177H37.6595V43.7561H37.6981V43.7945H37.7367V43.8328H37.8138V43.8712H37.8524V43.9096H37.9296V43.9479H37.9682V43.9863H38.0453V44.0247H38.0839V44.063H38.1611V44.1014H38.1997V44.1398H38.2769V44.1781H38.3154V44.2165H38.3926V44.2548H38.4312V44.2932H38.5084V44.3316H38.547V44.3699H38.6241V44.4083H38.7013V44.4467H38.7399V44.485H38.8171V44.5234H38.8942V44.5618H38.9328V44.6001H39.01V44.6385H39.0872V44.6769H39.1643V44.7152H39.2029V44.7536H39.2801V44.792H39.3573V44.8303H39.3958V44.8687H39.473V44.9071H39.5502V44.9454H39.6274V44.9838H39.7045V45.0222H39.7817V45.0605H39.8203V45.0989H39.8975V45.1373H39.9746V45.1756H40.0518V45.214H40.129V45.2524H40.2061V45.2907H40.2833V45.3291H40.3605V45.3675H40.4377V45.4058H40.5148V45.4442H40.592V45.4826H40.6692V45.5209H40.7463V45.5593H40.8621V45.5977H40.9393V45.636H41.0164V45.6744H41.0936V45.7128H41.1708V45.7511H41.248V45.7895H41.3251V45.8279H41.4409V45.8662H41.518V45.9046H41.6338V45.9429H41.711V45.9813H41.8267V46.0197H41.9039V46.058H41.9811V46.0964H42.0968V46.1348H42.174V46.1731H42.2898V46.2115H42.3669V46.2499H42.4827V46.2882H42.5984V46.3266H42.7142V46.365H42.83V46.4033H42.9071V46.4417H43.0229V46.4801H43.1386V46.5184H43.2544V46.5568H43.3702V46.5952H43.4859V46.6335H43.6017V46.6719H43.7174V46.7103H43.8332V46.7486H43.9489V46.787H44.1033V46.8254H44.219V46.8637H44.3348V46.9021H44.4891V46.9405H44.6049V46.9788H44.7592V47.0172H44.9136V47.0556H45.0293V47.0939H45.1837V47.1323H45.338V47.1707H45.4924V47.209H45.6467V47.2474H45.801V47.2858H45.9554V47.3241H46.1483V47.3625H46.3027V47.4009H46.457V47.4392H46.6499V47.4776H46.8429V47.516H47.0358V47.5543H47.2673V47.5927H47.4602V47.631H47.6532V47.6694H47.8847V47.7078H48.1162V47.7461H48.3477V47.7845H48.5792V47.8229H48.8493V47.8612H49.158V47.8996H49.4281V47.938H49.7368V47.9763H50.0455V48.0147H50.4313V48.0531H50.7786V48.0914H51.203V48.1298H51.7046V48.1682H52.2062V48.2065H52.9008V48.2449H53.7883V48.2833H57.8012V48.2449H58.843V48.2065H59.6147V48.1682H60.232V48.1298H60.8108V48.0914H61.351V48.0531H61.814V48.0147H62.3157V47.9763H62.7401V47.938H63.126V47.8996H63.5504V47.8612H63.8977V47.8229H64.2835V47.7845H64.6308V47.7461H64.9781V47.7078H65.3253V47.6694H65.634V47.631H65.9427V47.5927H66.2514V47.5543H66.5601V47.516H66.8688V47.4776H67.1389V47.4392H67.4475V47.4009H67.7176V47.3625H67.9877V47.3241H68.2578V47.2858H68.5279V47.2474H68.798V47.209H69.0681V47.1707H69.3382V47.1323H69.5697V47.0939H69.8398V47.0556H70.0714V47.0172H70.3415V46.9788H70.573V46.9405H70.8431V46.9021H71.0746V46.8637H71.3061V46.8254H71.5376V46.787H71.7691V46.7486H72.0006V46.7103H72.2321V46.6719H72.4637V46.6335H72.6952V46.5952H72.8881V46.5568H73.1196V46.5184H73.3511V46.4801H73.5826V46.4417H73.7756V46.4033H74.0071V46.365H74.2V46.3266H74.4315V46.2882H74.663V46.2499H74.856V46.2115H75.0489V46.1731H75.2804V46.1348H75.4733V46.0964H75.6663V46.058H75.8978V46.0197H76.0907V45.9813H76.2836V45.9429H76.5151V45.9046H76.7081V45.8662H76.901V45.8279H77.0939V45.7895H77.2868V45.7511H77.4798V45.7128H77.6727V45.6744H77.9042V45.636H78.0971V45.5977H78.2901V45.5593H78.483V45.5209H78.6759V45.4826H78.8689V45.4442H79.0618V45.4058H79.2161V45.3675H79.4091V45.3291H79.602V45.2907H79.7949V45.2524H79.9878V45.214H80.1808V45.1756H80.3737V45.1373H80.5666V45.0989H80.721V45.0605H80.9139V45.0222H81.1068V44.9838H81.2998V44.9454H81.4927V44.9071H81.647V44.8687H81.8399V44.8303H82.0329V44.792H82.1872V44.7536H82.3801V44.7152H82.5731V44.6769H82.766V44.6385H82.9203V44.6001H83.1133V44.5618H83.3062V44.5234H83.4605V44.485H83.6535V44.4467H83.8078V44.4083H84.0007V44.3699H84.1937V44.3316H84.348V44.2932H84.5409V44.2548H84.6953V44.2165H84.8882V44.1781H85.0811V44.1398H85.2355V44.1014H85.4284V44.063H85.5827V44.0247H85.7757V43.9863H85.93V43.9479H86.1229V43.9096H86.2773V43.8712H86.4702V43.8328H86.6246V43.7945H86.8175V43.7561H86.9718V43.7177H87.1647V43.6794H87.3191V43.641H87.512V43.6026H87.6664V43.5643H87.8593V43.5259H88.0136V43.4875H88.2066V43.4492H88.3609V43.4108H88.5538V43.3724H88.7082V43.3341H88.9011V43.2957H89.0554V43.2573H89.2484V43.219H89.4027V43.1806H89.5571V43.1422H89.75V43.1039H89.9043V43.0655H90.0973V43.0271H90.2516V42.9888H90.4445V42.9504H90.5989V42.912H90.7918V42.8737H90.9461V42.8353H91.1005V42.7969H91.2934V42.7586H91.4477V42.7202H91.6407V42.6818H91.795V42.6435H91.9879V42.6051H92.1423V42.5668H92.3352V42.5284H92.4896V42.49H92.6439V42.4517H92.8368V42.4133H92.9912V42.3749H93.1841V42.3366H93.3384V42.2982H93.5314V42.2598H93.6857V42.2215H93.8786V42.1831H94.033V42.1447H94.2259V42.1064H94.3802V42.068H94.5732V42.0296H94.7275V41.9913H94.9204V41.9529H95.0748V41.9145H95.2677V41.8762H95.4221V41.8378H95.615V41.7994H95.7693V41.7611H95.9623V41.7227H96.1166V41.6843H96.3095V41.646H96.4639V41.6076H96.6568V41.5692H96.8111V41.5309H97.0041V41.4925H97.1584V41.4541H97.3513V41.4158H97.5443V41.3774H97.6986V41.339H97.8915V41.3007H98.0459V41.2623H98.2388V41.2239H98.4317V41.1856H98.5861V41.1472H98.779V41.1088H98.9719V41.0705H99.1263V41.0321H99.3192V40.9937H99.5121V40.9554H99.6665V40.917H99.8594V40.8787H100.052V40.8403H100.207V40.8019H100.4V40.7636H100.593V40.7252H100.785V40.6868H100.978V40.6485H101.133V40.6101H101.326V40.5717H101.519V40.5334H101.712V40.495H101.904V40.4566H102.097V40.4183H102.29V40.3799H102.483V40.3415H102.676V40.3032H102.869V40.2648H103.062V40.2264H103.255V40.1881H103.448V40.1497H103.641V40.1113H103.834V40.073H104.027V40.0346H104.258V39.9962H104.451V39.9579H104.644V39.9195H104.837V39.8811H105.068V39.8428H105.261V39.8044H105.454V39.766H105.686V39.7277H105.879V39.6893H106.11V39.6509H106.303V39.6126H106.535V39.5742H106.766V39.5358H106.959V39.4975H107.036V39.5742H106.882V39.6126H106.766V39.6509H106.65V39.6893H106.496V39.7277H106.38V39.766H106.226V39.8044H106.11V39.8428H105.994V39.8811H105.84V39.9195H105.724V39.9579H105.57V39.9962H105.454V40.0346H105.339V40.073H105.184V40.1113H105.068V40.1497H104.914V40.1881H104.798V40.2264H104.644V40.2648H104.528V40.3032H104.412V40.3415H104.258V40.3799H104.142V40.4183H103.988V40.4566H103.872V40.495H103.757V40.5334H103.602V40.5717H103.486V40.6101H103.332V40.6485H103.216V40.6868H103.062V40.7252H102.946V40.7636H102.83V40.8019H102.676V40.8403H102.56V40.8787H102.406V40.917H102.29V40.9554H102.136V40.9937H102.02V41.0321H101.904V41.0705H101.75V41.1088H101.634V41.1472H101.48V41.1856H101.364V41.2239H101.21V41.2623H101.094V41.3007H100.978V41.339H100.824V41.3774H100.708V41.4158H100.554V41.4541H100.438V41.4925H100.284V41.5309H100.168V41.5692H100.014V41.6076H99.898V41.646H99.7822V41.6843H99.6279V41.7227H99.5121V41.7611H99.3578V41.7994H99.242V41.8378H99.0877V41.8762H98.9719V41.9145H98.8176V41.9529H98.7018V41.9913H98.5861V42.0296H98.4317V42.068H98.316V42.1064H98.1616V42.1447H98.0459V42.1831H97.8915V42.2215H97.7758V42.2598H97.6214V42.2982H97.5057V42.3366H97.3513V42.3749H97.2356V42.4133H97.1198V42.4517H96.9655V42.49H96.8497V42.5284H96.6954V42.5668H96.5796V42.6051H96.4253V42.6435H96.3095V42.6818H96.1552V42.7202H96.0394V42.7586H95.8851V42.7969H95.7693V42.8353H95.615V42.8737H95.4992V42.912H95.3835V42.9504H95.2291V42.9888H95.1134V43.0271H94.959V43.0655H94.8433V43.1039H94.6889V43.1422H94.5732V43.1806H94.4188V43.219H94.3031V43.2573H94.1487V43.2957H94.033V43.3341H93.8786V43.3724H93.7629V43.4108H93.6085V43.4492H93.4928V43.4875H93.3384V43.5259H93.2227V43.5643H93.1069V43.6026H92.9526V43.641H92.8368V43.6794H92.6825V43.7177H92.5667V43.7561H92.4124V43.7945H92.2966V43.8328H92.1423V43.8712H92.0265V43.9096H91.8722V43.9479H91.7564V43.9863H91.6021V44.0247H91.4863V44.063H91.332V44.1014H91.2162V44.1398H91.0619V44.1781H90.9461V44.2165H90.7918V44.2548H90.676V44.2932H90.5217V44.3316H90.4059V44.3699H90.2516V44.4083H90.1358V44.4467H89.9815V44.485H89.8657V44.5234H89.7114V44.5618H89.5956V44.6001H89.4413V44.6385H89.3255V44.6769H89.1712V44.7152H89.0554V44.7536H88.9011V44.792H88.7853V44.8303H88.631V44.8687H88.5152V44.9071H88.3609V44.9454H88.2451V44.9838H88.0908V45.0222H87.975V45.0605H87.8207V45.0989H87.7049V45.1373H87.5506V45.1756H87.4349V45.214H87.2805V45.2524H87.1647V45.2907H87.0104V45.3291H86.8947V45.3675H86.7403V45.4058H86.586V45.4442H86.4702V45.4826H86.3159V45.5209H86.2001V45.5593H86.0458V45.5977H85.93V45.636H85.7757V45.6744H85.6599V45.7128H85.5056V45.7511H85.3898V45.7895H85.2355V45.8279H85.1197V45.8662H84.9654V45.9046H84.8496V45.9429H84.6953V45.9813H84.5795V46.0197H84.4252V46.058H84.2708V46.0964H84.1551V46.1348H84.0007V46.1731H83.885V46.2115H83.7306V46.2499H83.6149V46.2882H83.4605V46.3266H83.3448V46.365H83.1904V46.4033H83.0747V46.4417H82.9203V46.4801H82.766V46.5184H82.6502V46.5568H82.4959V46.5952H82.3801V46.6335H82.2258V46.6719H82.11V46.7103H81.9557V46.7486H81.8399V46.787H81.6856V46.8254H81.5313V46.8637H81.4155V46.9021H81.2612V46.9405H81.1454V46.9788H80.9911V47.0172H80.8367V47.0556H80.721V47.0939H80.5666V47.1323H80.4509V47.1707H80.2965V47.209H80.1808V47.2474H80.0264V47.2858H79.8721V47.3241H79.7563V47.3625H79.602V47.4009H79.4862V47.4392H79.3319V47.4776H79.2161V47.516H79.0618V47.5543H78.9074V47.5927H78.7917V47.631H78.6373V47.6694H78.5216V47.7078H78.3672V47.7461H78.2129V47.7845H78.0971V47.8229H77.9428V47.8612H77.827V47.8996H77.6727V47.938H77.5184V47.9763H77.4026V48.0147H77.2483V48.0531H77.0939V48.0914H76.9782V48.1298H76.8238V48.1682H76.7081V48.2065H76.5537V48.2449H76.3994V48.2833H76.2836V48.3216H76.1293V48.36H75.9749V48.3984H75.8592V48.4367H75.7048V48.4751H75.5891V48.5135H75.4347V48.5518H75.2804V48.5902H75.1646V48.6286H75.0103V48.6669H74.856V48.7053H74.7402V48.7437H74.5859V48.782H74.4315V48.8204H74.3158V48.8588H74.1614V48.8971H74.0071V48.9355H73.8913V48.9739H73.737V49.0122H73.5826V49.0506H73.4669V49.089H73.3125V49.1273H73.1582V49.1657H73.0424V49.204H72.8881V49.2424H72.7338V49.2808H72.618V49.3191H72.4637V49.3575H72.3093V49.3959H72.1936V49.4342H72.0392V49.4726H71.8849V49.511H71.7305V49.5493H71.6148V49.5877H71.4604V49.6261H71.3061V49.6644H71.1903V49.7028H71.036V49.7412H70.8817V49.7795H70.7273V49.8179H70.6115V49.8563H70.4572V49.8946H70.3029V49.933H70.1485V49.9714H70.0328V50.0097H69.8784V50.0481H69.7241V50.0865H69.5697V50.1248H69.454V50.1632H69.2996V50.2016H69.1453V50.2399H68.991V50.2783H68.8752V50.3167H68.7209V50.355H68.5665V50.3934H68.4122V50.4318H68.2578V50.4701H68.1421V50.5085H67.9877V50.5469H67.8334V50.5852H67.679V50.6236H67.5247V50.662H67.409V50.7003H67.2546V50.7387H67.1003V50.7771H66.9459V50.8154H66.7916V50.8538H66.6372V50.8921H66.4829V50.9305H66.3671V50.9689H66.2128V51.0072H66.0585V51.0456H65.9041V51.084H65.7498V51.1223H65.5954V51.1607H65.4411V51.1991H65.2867V51.2374H65.1324V51.2758H64.9781V51.3142H64.8237V51.3525H64.708V51.3909H64.5536V51.4293H64.3993V51.4676H64.2449V51.506H64.0906V51.5444H63.9363V51.5827H63.7819V51.6211H63.6276V51.6595H63.4346V51.6978H63.2803V51.7362H63.126V51.7746H62.9716V51.8129H62.8173V51.8513H62.6629V51.8897H62.5086V51.928H62.3542V51.9664H62.1999V52.0048H62.007V52.0431H61.8526V52.0815H61.6983V52.1199H61.5439V52.1582H61.3896V52.1966H61.1967V52.235H61.0423V52.2733H60.8494V52.3117H60.6951V52.3501H60.5407V52.3884H60.3478V52.4268H60.1935V52.4652H60.0005V52.5035H59.8462V52.5419H59.6533V52.5802H59.4603V52.6186H59.306V52.657H59.1131V52.6953H58.9201V52.7337H58.7658V52.7721H58.5729V52.8104H58.3799V52.8488H58.187V52.8872H57.9941V52.9255H57.8012V52.9639H57.6468V53.0023H57.4153V53.0406H57.2224V53.079H57.0294V53.1174H56.8365V53.1557H56.6436V53.1941H56.4507V53.2325H56.2191V53.2708H55.9876V53.3092H55.7947V53.3476H55.5632V53.3859H55.3703V53.4243H55.1387V53.4627H54.8686V53.501H54.6371V53.5394H54.4056V53.5778H54.1355V53.6161H53.8654V53.6545H53.5953V53.6929H53.2866V53.7312H53.0165V53.7696H52.6693V53.808H52.322V53.8463H51.9747V53.8847H51.5117V53.9231H51.0101V53.9614H50.3156V53.9998H47.4602ZM54.8686 45.9813V45.9429H54.0584V45.9046H53.5953V45.8662H53.1709V45.8279H52.785V45.7895H52.5149V45.7511H52.2448V45.7128H51.9747V45.6744H51.7046V45.636H51.5117V45.5977H51.3188V45.5593H51.1259V45.5209H50.8943V45.4826H50.7014V45.4442H50.5085V45.4058H50.3541V45.3675H50.1998V45.3291H50.0455V45.2907H49.9297V45.2524H49.7754V45.214H49.621V45.1756H49.4667V45.1373H49.3123V45.0989H49.1966V45.0605H49.0808V45.0222H48.9651V44.9838H48.8107V44.9454H48.695V44.9071H48.5792V44.8687H48.4634V44.8303H48.3477V44.792H48.2319V44.7536H48.1162V44.7152H48.0004V44.6769H47.9232V44.6385H47.8075V44.6001H47.7303V44.5618H47.6146V44.5234H47.4988V44.485H47.4216V44.4467H47.3059V44.4083H47.2287V44.3699H47.1515V44.3316H47.113V44.2932H47.1901V44.3316H47.3059V44.3699H47.4216V44.4083H47.5374V44.4467H47.6917V44.485H47.8461V44.5234H48.0004V44.5618H48.1548V44.6001H48.3091V44.6385H48.502V44.6769H48.7335V44.7152H48.9265V44.7536H49.158V44.792H49.3895V44.8303H49.621V44.8687H49.8911V44.9071H50.3541V44.9454H50.7786V44.9838H52.978V44.9454H53.5182V44.9071H53.9812V44.8687H54.2513V44.8303H54.5214V44.792H54.7915V44.7536H55.0616V44.7152H55.2931V44.6769H55.486V44.6385H55.6789V44.6001H55.8333V44.5618H56.0262V44.5234H56.2191V44.485H56.4121V44.4467H56.5664V44.4083H56.7208V44.3699H56.8751V44.3316H56.9909V44.2932H57.1452V44.2548H57.2995V44.2165H57.4153V44.1781H57.5696V44.1398H57.6854V44.1014H57.8397V44.063H57.9941V44.0247H58.1098V43.9863H58.2256V43.9479H58.3413V43.9096H58.4185V43.8712H58.5343V43.8328H58.65V43.7945H58.7658V43.7561H58.8815V43.7177H58.9973V43.6794H59.1131V43.641H59.2288V43.6026H59.3446V43.5643H59.4217V43.5259H59.5375V43.4875H59.6147V43.4492H59.7304V43.4108H59.8076V43.3724H59.9234V43.3341H60.0005V43.2957H60.0777V43.2573H60.1935V43.219H60.2706V43.1806H60.3864V43.1422H60.4636V43.1039H60.5793V43.0655H60.6565V43.0271H60.7722V42.9888H60.8494V42.9504H60.9266V42.912H61.0037V42.8737H61.0809V42.8353H61.1581V42.7969H61.2353V42.7586H61.3124V42.7202H61.3896V42.6818H61.5054V42.6435H61.5825V42.6051H61.6597V42.5668H61.7369V42.5284H61.814V42.49H61.8912V42.4517H61.9684V42.4133H62.0456V42.3749H62.1227V42.3366H62.1999V42.2982H62.2771V42.2598H62.3542V42.2215H62.4314V42.1831H62.47V42.1447H62.5472V42.1064H62.6243V42.068H62.7015V42.0296H62.7787V41.9913H62.8559V41.9529H62.8944V41.9145H62.9716V41.8762H63.0488V41.8378H63.126V41.7994H63.2031V41.7611H63.2803V41.7227H63.3189V41.6843H63.3961V41.646H63.4732V41.6076H63.5504V41.5692H63.589V41.5309H63.6662V41.4925H63.7433V41.4541H63.7819V41.4158H63.8591V41.3774H63.8977V41.339H63.9748V41.3007H64.052V41.2623H64.0906V41.2239H64.1678V41.1856H64.2449V41.1472H64.2835V41.1088H64.3607V41.0705H64.3993V41.0321H64.4764V40.9937H64.5536V40.9554H64.5922V40.917H64.6694V40.8787H64.7466V40.8403H64.7851V40.8019H64.8237V40.7636H64.9009V40.7252H64.9395V40.6868H65.0166V40.6485H65.0552V40.6101H65.1324V40.5717H65.171V40.5334H65.2482V40.495H65.2867V40.4566H65.3253V40.4183H65.4025V40.3799H65.4411V40.3415H65.5183V40.3032H65.5568V40.2648H65.634V40.2264H65.6726V40.1881H65.7498V40.1497H65.7884V40.1113H65.8655V40.073H65.9041V40.0346H65.9427V39.9962H66.0199V39.9579H66.0585V39.9195H66.097V39.8811H66.1742V39.8428H66.2128V39.8044H66.2514V39.766H66.3286V39.7277H66.3671V39.6893H66.4057V39.6509H66.4443V39.6126H66.5215V39.5742H66.5601V39.5358H66.5987V39.4975H66.6758V39.4591H66.7144V39.4207H66.753V39.3824H66.8302V39.344H66.8688V39.3056H66.9073V39.2673H66.9459V39.2289H67.0231V39.1906H67.0617V39.1522H67.1003V39.1138H67.1774V39.0755H67.216V39.0371H67.2546V38.9987H67.2932V38.9604H67.3318V38.922H67.409V38.8836H67.4475V38.8453H67.4861V38.8069H67.5247V38.7685H67.5633V38.7302H67.6019V38.6918H67.679V38.6534H67.7176V38.6151H67.7562V38.5767H67.7948V38.5383H67.8334V38.5H67.872V38.4616H67.9492V38.4232H67.9877V38.3849H68.0263V38.3465H68.0649V38.3081H68.1035V38.2698H68.1421V38.2314H68.2192V38.193H68.2578V38.1547H68.2964V38.1163H68.335V38.0779H68.3736V38.0396H68.4122V38.0012H68.4508V37.9628H68.4893V37.9245H68.5279V37.8861H68.5665V37.8477H68.6051V37.8094H68.6823V37.771H68.7209V37.7326H68.7594V37.6943H68.798V37.6559H68.8366V37.6175H68.8752V37.5792H68.9138V37.5408H68.9524V37.5025H68.991V37.4641H69.0295V37.4257H69.0681V37.3874H69.1067V37.349H69.1453V37.3106H69.1839V37.2723H69.2225V37.2339H69.2611V37.1955H69.2996V37.1572H69.3382V37.1188H69.3768V37.0804H69.4154V37.0421H69.454V37.0037H69.4926V36.9653H69.5312V36.927H69.5697V36.8886H69.6083V36.8502H69.6469V36.8119H69.6855V36.7735H69.7241V36.7351H69.7627V36.6968H69.8013V36.6584H69.8398V36.62H69.8784V36.5817H69.917V36.5433H69.9556V36.5049H69.9942V36.4666H70.0328V36.4282H70.0714V36.3515H70.1099V36.3131H70.1485V36.2747H70.1871V36.2364H70.2257V36.198H70.2643V36.1596H70.3029V36.1213H70.3415V36.0829H70.38V36.0445H70.4186V36.0062H70.4572V35.9678H70.4958V35.9295H70.5344V35.8527H70.573V35.8144H70.6115V35.776H70.6501V35.7376H70.6887V35.6993H70.7273V35.6609H70.7659V35.5842H70.8045V35.5458H70.8431V35.5074H70.8817V35.4691H70.9202V35.4307H70.9588V35.354H70.9974V35.3156H71.036V35.2772H71.0746V35.2389H71.1132V35.2005H71.1517V35.1621H71.1903V35.0854H71.2289V35.047H71.2675V35.0087H71.3061V34.9703H71.3447V34.9319H71.3833V34.8552H71.4218V34.8168H71.4604V34.7785H71.499V34.7401H71.5376V34.6634H71.5762V34.625H71.6148V34.5866H71.6534V34.5099H71.6919V34.4715H71.7305V34.4332H71.7691V34.3564H71.8077V34.3181H71.8463V34.2797H71.8849V34.203H71.9235V34.1646H71.962V34.1263H72.0006V34.0495H72.0392V34.0112H72.0778V33.9728H72.1164V33.8961H72.155V33.8577H72.1936V33.8193H72.2321V33.7426H72.2707V33.7042H72.3093V33.6659H72.3479V33.5891H72.3865V33.5508H72.4251V33.474H72.4637V33.4357H72.5022V33.3589H72.5408V33.3206H72.5794V33.2438H72.618V33.1671H72.6566V33.1287H72.6952V33.052H72.7338V33.0136H72.7723V32.9369H72.8109V32.8985H72.8495V32.8218H72.8881V32.7834H72.9267V32.7067H72.9653V32.6684H73.0039V32.5916H73.0424V32.5533H73.081V32.4765H73.1196V32.4382H73.1582V32.3614H73.1968V32.2847H73.2354V32.2463H73.274V32.1696H73.3125V32.0929H73.3511V32.0161H73.3897V31.9778H73.4283V31.901H73.4669V31.8243H73.5055V31.7476H73.5441V31.7092H73.5826V31.6325H73.6212V31.5557H73.6598V31.5174H73.6984V31.4406H73.737V31.3639H73.7756V31.2872H73.8142V31.2488H73.8527V31.1721H73.8913V31.0953H73.9299V31.0186H73.9685V30.9419H74.0071V30.8652H74.0457V30.7884H74.0843V30.7117H74.1228V30.635H74.1614V30.5582H74.2V30.4815H74.2386V30.4048H74.2772V30.2897H74.3158V30.2129H74.3543V30.1362H74.3929V30.0595H74.4315V29.9827H74.4701V29.906H74.5087V29.8293H74.5473V29.7525H74.5859V29.6374H74.6245V29.5607H74.663V29.4456H74.7016V29.3689H74.7402V29.2538H74.7788V29.1771H74.8174V29.1003H74.856V28.9852H74.8945V28.9085H74.9331V28.7934H74.9717V28.7167H75.0103V28.6016H75.0489V28.5248H75.0875V28.4097H75.1261V28.2946H75.1646V28.1795H75.2032V28.0644H75.2418V27.911H75.2804V27.7959H75.319V27.6808H75.3576V27.5657H75.3962V27.4506H75.4347V27.3355H75.4733V27.2204H75.5119V27.0669H75.5505V26.9135H75.5891V26.76H75.6277V26.6065H75.6663V26.4531H75.7048V26.2996H75.7434V26.1078H75.782V25.9543H75.8206V25.8009H75.8592V25.5707H75.8978V25.3405H75.9364V25.1103H75.9749V24.8417H76.0135V24.6115H76.0521V24.343H76.0907V23.8058H76.1293V23.2687H76.1679V21.7341H76.1293V21.2353H76.0907V20.89H76.0521V20.5447H76.0135V20.1994H75.9749V19.9692H75.9364V19.7774H75.8978V19.5856H75.8592V19.3937H75.8206V19.2019H75.782V19.0485H75.7434V18.8566H75.7048V18.6648H75.6663V18.5497H75.6277V18.3962H75.5891V18.2811H75.5505V18.1277H75.5119V18.0126H75.4733V17.8591H75.4347V17.744H75.3962V17.5906H75.3576V17.4755H75.319V17.3987H75.2804V17.2836H75.2418V17.2069H75.2032V17.0918H75.1646V17.0151H75.1261V16.9383H75.0875V16.9H75.0489V16.8232H75.0103V16.7465H74.9717V16.6698H74.9331V16.593H74.8945V16.5163H74.856V16.4396H74.8174V16.3628H74.7788V16.2861H74.7402V16.2477H74.7016V16.171H74.663V16.0943H74.6245V16.0559H74.5859V15.9792H74.5473V15.9025H74.5087V15.8257H74.4701V15.7874H74.4315V15.7106H74.3929V15.6339H74.3543V15.5955H74.3158V15.5188H74.2772V15.4421H74.2386V15.4037H74.2V15.327H74.1614V15.2502H74.1228V15.2119H74.0843V15.1351H74.0457V15.0968H74.0071V15.02H73.9685V14.9817H73.9299V14.9049H73.8913V14.8666H73.8527V14.7898H73.8142V14.7515H73.7756V14.6747H73.737V14.6364H73.6984V14.5596H73.6598V14.5213H73.6212V14.4445H73.5826V14.4062H73.5441V14.3678H73.5055V14.2911H73.4669V14.2527H73.4283V14.2144H73.3897V14.176H73.3511V14.0993H73.3125V14.0609H73.274V14.0225H73.2354V13.9458H73.1968V13.9074H73.1582V13.8691H73.1196V13.7923H73.081V13.754H73.0424V13.7156H73.0039V13.6389H72.9653V13.6005H72.9267V13.5621H72.8881V13.5238H72.8495V13.447H72.8109V13.4087H72.7723V13.3703H72.7338V13.3319H72.6952V13.2936H72.6566V13.2552H72.618V13.1785H72.5794V13.1401H72.5408V13.1017H72.5022V13.0634H72.4637V13.025H72.4251V12.9866H72.3865V12.9099H72.3479V12.8715H72.3093V12.8332H72.2707V12.7948H72.2321V12.7565H72.1936V12.7181H72.155V12.6797H72.1164V12.6414H72.0778V12.603H72.0392V12.5646H72.0006V12.5263H71.962V12.4879H71.9235V12.4495H71.8849V12.4112H71.8463V12.3344H71.8077V12.2961H71.7691V12.2577H71.7305V12.2193H71.6919V12.181H71.6534V12.1426H71.6148V12.1042H71.5762V12.0659H71.5376V12.0275H71.499V11.9891H71.4604V11.9508H71.4218V11.9124H71.3447V11.874H71.3061V11.8357H71.2675V11.7973H71.2289V11.7589H71.1903V11.7206H71.1517V11.6822H71.1132V11.6438H71.0746V11.6055H71.036V11.5671H70.9974V11.5287H70.9588V11.4904H70.9202V11.452H70.8817V11.4136H70.8045V11.3753H70.7659V11.3369H70.7273V11.2985H70.6887V11.2602H70.6501V11.2218H70.573V11.1834H70.5344V11.1451H70.4958V11.1067H70.4572V11.0684H70.4186V11.03H70.3415V10.9916H70.3029V10.9533H70.2643V10.9149H70.2257V10.8765H70.1871V10.8382H70.1099V10.7998H70.0714V10.7614H70.0328V10.7231H69.9942V10.6847H69.917V10.6463H69.8784V10.608H69.8398V10.5696H69.7627V10.5312H69.7241V10.4929H69.6855V10.4545H69.6083V10.4161H69.5697V10.3778H69.4926V10.3394H69.454V10.301H69.4154V10.2627H69.3382V10.2243H69.2996V10.1859H69.2611V10.1476H69.1839V10.1092H69.1453V10.0708H69.0681V10.0325H69.0295V9.99411H68.9524V9.95574H68.9138V9.91737H68.8366V9.87901H68.798V9.84064H68.7209V9.80228H68.6823V9.76391H68.6051V9.72554H68.5665V9.68718H68.4893V9.64882H68.4508V9.61045H68.3736V9.57208H68.2964V9.53372H68.2578V9.49535H68.1807V9.45699H68.1035V9.41862H68.0263V9.38025H67.9877V9.34189H67.9106V9.30352H67.8334V9.26516H67.7948V9.22679H67.7176V9.18842H67.6405V9.15006H67.6019V9.11169H67.5247V9.07333H67.4475V9.03496H67.3704V8.99659H67.2932V8.95823H67.216V8.91986H67.1389V8.8815H67.0617V8.84313H67.0231V8.80476H66.9459V8.7664H66.8688V8.72803H66.7916V8.68967H66.7144V8.6513H66.6372V8.61293H66.5601V8.57457H66.4829V8.5362H66.4057V8.49784H66.29V8.45947H66.2128V8.4211H66.1356V8.38274H66.0585V8.34437H65.9813V8.30601H65.9041V8.26764H65.8269V8.22927H65.7112V8.19091H65.634V8.15255H65.5568V8.11418H65.4411V8.07581H65.3639V8.03745H65.2482V7.99908H65.171V7.96072H65.0552V7.92235H64.9781V7.88398H64.9009V7.84562H64.7851V7.80725H64.708V7.76889H64.5922V7.73052H64.4764V7.69215H64.3607V7.65379H64.2835V7.61542H64.1678V7.57706H64.052V7.53869H63.9363V7.50032H63.8205V7.46196H63.7433V7.42359H63.6276V7.38523H63.4732V7.34686H63.3575V7.30849H63.2417V7.27013H63.126V7.23176H63.0102V7.1934H62.8944V7.15503H62.7401V7.11666H62.6243V7.0783H62.47V7.03993H62.3542V7.00157H62.1999V6.9632H62.0456V6.92484H61.9298V6.88647H61.7755V6.8481H61.6211V6.80974H61.4668V6.77137H61.3124V6.73301H61.1195V6.69464H60.9652V6.65627H60.8108V6.61791H60.6565V6.57954H60.4636V6.54118H60.2706V6.50281H60.0777V6.46444H59.8848V6.42608H59.6918V6.38771H59.4989V6.34935H59.2674V6.31098H59.0359V6.27261H58.8044V6.23425H58.5343V6.19588H58.3028V6.15752H58.0327V6.11915H57.724V6.08079H57.4539V6.04242H57.1452V6.00406H56.7979V5.96569H56.4121V5.92732H56.0262V5.88896H55.5632V5.85059H55.0616V5.81223H54.4828V5.77386H53.7497V5.73549H52.5535V5.69713H49.8525V5.73549H48.6178V5.77386H47.8075V5.81223H47.0744V5.85059H46.4956V5.88896H45.9168V5.92732H45.4538V5.96569H44.9522V6.00406H44.5277V6.04242H44.1033V6.08079H43.7174V6.11915H43.293V6.15752H42.9457V6.19588H42.5984V6.23425H42.2512V6.27261H41.8653V6.31098H41.5566V6.34935H41.248V6.38771H40.9393V6.42608H40.6306V6.46444H40.3219V6.50281H40.0132V6.54118H39.7431V6.57954H39.4344V6.61791H39.1643V6.65627H38.8942V6.69464H38.6241V6.73301H38.354V6.77137H38.0839V6.80974H37.8138V6.8481H37.5823V6.88647H37.3122V6.92484H37.0807V6.9632H36.8106V7.00157H36.5791V7.03993H36.309V7.0783H36.0775V7.11666H35.846V7.15503H35.6145V7.1934H35.3829V7.23176H35.1514V7.27013H34.9199V7.30849H34.6884V7.34686H34.4569V7.38523H34.2254V7.42359H34.0325V7.46196H33.8009V7.50032H33.5694V7.53869H33.3379V7.57706H33.145V7.61542H32.9135V7.65379H32.7205V7.69215H32.489V7.73052H32.2961V7.76889H32.0646V7.80725H31.8717V7.84562H31.6401V7.88398H31.4472V7.92235H31.2543V7.96072H31.0228V7.99908H30.8299V8.03745H30.6369V8.07581H30.444V8.11418H30.2511V8.15255H30.0196V8.19091H29.8266V8.22927H29.6337V8.26764H29.4408V8.30601H29.2478V8.34437H29.0549V8.38274H28.862V8.4211H28.6691V8.45947H28.4761V8.49784H28.2832V8.5362H28.0903V8.57457H27.8974V8.61293H27.7044V8.6513H27.5115V8.68967H27.3186V8.72803H27.1256V8.7664H26.9327V8.80476H26.7398V8.84313H26.5854V8.8815H26.3925V8.91986H26.1996V8.95823H26.0067V8.99659H25.8137V9.03496H25.6594V9.07333H25.4665V9.11169H25.2735V9.15006H25.0806V9.18842H24.9263V9.22679H24.7333V9.26516H24.5404V9.30352H24.3861V9.34189H24.1931V9.38025H24.0002V9.41862H23.8459V9.45699H23.6529V9.49535H23.46V9.53372H23.3057V9.57208H23.1127V9.61045H22.9584V9.64882H22.7655V9.68718H22.5725V9.72554H22.4182V9.76391H22.2253V9.80228H22.0709V9.84064H21.878V9.87901H21.6851V9.91737H21.5307V9.95574H21.3378V9.99411H21.1835V10.0325H20.9905V10.0708H20.8362V10.1092H20.6433V10.1476H20.4889V10.1859H20.296V10.2243H20.1417V10.2627H19.9487V10.301H19.7944V10.3394H19.6015V10.3778H19.4471V10.4161H19.2542V10.4545H19.0998V10.4929H18.9069V10.5312H18.7526V10.5696H18.5596V10.608H18.4053V10.6463H18.2124V10.6847H18.058V10.7231H17.9037V10.7614H17.7108V10.7998H17.5564V10.8382H17.3635V10.8765H17.2092V10.9149H17.0162V10.9533H16.8619V10.9916H16.669V11.03H16.5146V11.0684H16.3217V11.1067H16.1673V11.1451H16.013V11.1834H15.8201V11.2218H15.6657V11.2602H15.4728V11.2985H15.3185V11.3369H15.1255V11.3753H14.9712V11.4136H14.7783V11.452H14.6239V11.4904H14.4696V11.5287H14.2767V11.5671H14.1223V11.6055H13.9294V11.6438H13.775V11.6822H13.5821V11.7206H13.4278V11.7589H13.2348V11.7973H13.0805V11.8357H12.8876V11.874H12.7332V11.9124H12.5403V11.9508H12.386V11.9891H12.2316V12.0275H12.0387V12.0659H11.8843V12.1042H11.6914V12.1426H11.5371V12.181H11.3442V12.2193H11.1898V12.2577H10.9969V12.2961H10.804V12.3344H10.6496V12.3728H10.4567V12.4112H10.3023V12.4495H10.1094V12.4879H9.95507V12.5263H9.76214V12.5646H9.6078V12.603H9.41487V12.6414H9.22195V12.6797H9.0676V12.7181H8.87468V12.7565H8.72033V12.7948H8.52741V12.8332H8.33448V12.8715H8.18014V12.9099H7.98721V12.9483H7.79428V12.9866H7.63994V13.025H7.44701V13.0634H7.25408V13.1017H7.06116V13.1401H6.90681V13.1785H6.71389V13.2168H6.52096V13.2552H6.36662V13.2936H6.17369V13.3319H5.98076V13.3703H5.78783V13.4087H5.5949V13.447H5.40198V13.4854H5.20905V13.5238H5.05471V13.5621H4.86178V13.6005H4.66885V13.6389H4.47592V13.6772H4.283V13.7156H4.09007V13.754H3.89714V13.7923H3.70421V13.8307H3.4727V13.8691H3.27977V13.9074H3.08684V13.9458H2.89392V13.9842H2.70099V14.0225H2.50806V14.0609H2.27655V14.0993H2.08362V14.1376H1.85211V14.176H1.65918V14.2144H1.46625V14.2527H1.23474V14.2911H1.04181V14.3295H0.810296V14.3678H0.617369V14.4062H0.385855V14.4445H0.154342V14.4829H0V14.4445H0.0771711V14.4062H0.192928V14.3678H0.34727V14.3295H0.463027V14.2911H0.578783V14.2527H0.733125V14.2144H0.848882V14.176H1.00322V14.1376H1.11898V14.0993H1.23474V14.0609H1.38908V14.0225H1.50484V13.9842H1.65918V13.9458H1.77494V13.9074H1.89069V13.8691H2.04503V13.8307H2.16079V13.7923H2.31513V13.754H2.43089V13.7156H2.54665V13.6772H2.70099V13.6389H2.81675V13.6005H2.97109V13.5621H3.08684V13.5238H3.24119V13.4854H3.35694V13.447H3.4727V13.4087H3.62704V13.3703H3.7428V13.3319H3.89714V13.2936H4.0129V13.2552H4.16724V13.2168H4.283V13.1785H4.39875V13.1401H4.55309V13.1017H4.66885V13.0634H4.82319V13.025H4.93895V12.9866H5.09329V12.9483H5.20905V12.9099H5.32481V12.8715H5.47915V12.8332H5.5949V12.7948H5.74925V12.7565H5.865V12.7181H6.01935V12.6797H6.1351V12.6414H6.25086V12.603H6.4052V12.5646H6.52096V12.5263H6.6753V12.4879H6.79106V12.4495H6.9454V12.4112H7.06116V12.3728H7.2155V12.3344H7.33125V12.2961H7.44701V12.2577H7.60135V12.2193H7.71711V12.181H7.87145V12.1426H7.98721V12.1042H8.14155V12.0659H8.25731V12.0275H8.41165V11.9891H8.52741V11.9508H8.64316V11.9124H8.7975V11.874H8.91326V11.8357H9.0676V11.7973H9.18336V11.7589H9.3377V11.7206H9.45346V11.6822H9.6078V11.6438H9.72356V11.6055H9.8779V11.5671H9.99366V11.5287H10.1094V11.4904H10.2638V11.452H10.3795V11.4136H10.5339V11.3753H10.6496V11.3369H10.804V11.2985H10.9197V11.2602H11.0741V11.2218H11.1898V11.1834H11.3442V11.1451H11.4599V11.1067H11.6143V11.0684H11.73V11.03H11.8458V10.9916H12.0001V10.9533H12.1159V10.9149H12.2702V10.8765H12.386V10.8382H12.5403V10.7998H12.6561V10.7614H12.8104V10.7231H12.9262V10.6847H13.0805V10.6463H13.1963V10.608H13.3506V10.5696H13.4664V10.5312H13.6207V10.4929H13.7365V10.4545H13.8908V10.4161H14.0066V10.3778H14.1609V10.3394H14.2767V10.301H14.431V10.2627H14.5468V10.2243H14.6625V10.1859H14.8169V10.1476H14.9326V10.1092H15.0869V10.0708H15.2027V10.0325H15.357V9.99411H15.4728V9.95574H15.6271V9.91737H15.7429V9.87901H15.8972V9.84064H16.013V9.80228H16.1673V9.76391H16.2831V9.72554H16.4374V9.68718H16.5532V9.64882H16.7075V9.61045H16.8233V9.57208H16.9776V9.53372H17.0934V9.49535H17.2477V9.45699H17.3635V9.41862H17.5178V9.38025H17.6336V9.34189H17.7879V9.30352H17.9037V9.26516H18.058V9.22679H18.1738V9.18842H18.3281V9.15006H18.4439V9.11169H18.5982V9.07333H18.714V9.03496H18.8683V8.99659H18.9841V8.95823H19.1384V8.91986H19.2542V8.8815H19.4085V8.84313H19.5243V8.80476H19.6786V8.7664H19.833V8.72803H19.9487V8.68967H20.1031V8.6513H20.2188V8.61293H20.3732V8.57457H20.4889V8.5362H20.6433V8.49784H20.759V8.45947H20.9134V8.4211H21.0291V8.38274H21.1835V8.34437H21.2992V8.30601H21.4536V8.26764H21.5693V8.22927H21.7237V8.19091H21.8394V8.15255H21.9938V8.11418H22.1095V8.07581H22.2639V8.03745H22.4182V7.99908H22.534V7.96072H22.6883V7.92235H22.8041V7.88398H22.9584V7.84562H23.0742V7.80725H23.2285V7.76889H23.3443V7.73052H23.4986V7.69215H23.6144V7.65379H23.7687V7.61542H23.923V7.57706H24.0388V7.53869H24.1931V7.50032H24.3089V7.46196H24.4632V7.42359H24.579V7.38523H24.7333V7.34686H24.8491V7.30849H25.0034V7.27013H25.1578V7.23176H25.2735V7.1934H25.4279V7.15503H25.5436V7.11666H25.698V7.0783H25.8137V7.03993H25.9681V7.00157H26.1224V6.9632H26.2382V6.92484H26.3925V6.88647H26.5083V6.8481H26.6626V6.80974H26.7784V6.77137H26.9327V6.73301H27.0871V6.69464H27.2028V6.65627H27.3572V6.61791H27.4729V6.57954H27.6273V6.54118H27.7816V6.50281H27.8974V6.46444H28.0517V6.42608H28.1674V6.38771H28.3218V6.34935H28.4375V6.31098H28.5919V6.27261H28.7462V6.23425H28.862V6.19588H29.0163V6.15752H29.1321V6.11915H29.2864V6.08079H29.4408V6.04242H29.5565V6.00406H29.7109V5.96569H29.8652V5.92732H29.981V5.88896H30.1353V5.85059H30.2511V5.81223H30.4054V5.77386H30.5598V5.73549H30.6755V5.69713H30.8299V5.65876H30.9842V5.6204H31.1V5.58203H31.2543V5.54366H31.3701V5.5053H31.5244V5.46693H31.6787V5.42857H31.7945V5.3902H31.9488V5.35183H32.1032V5.31347H32.2189V5.2751H32.3733V5.23674H32.5276V5.19837H32.6434V5.16H32.7977V5.12164H32.9521V5.08327H33.0678V5.04491H33.2222V5.00654H33.3765V4.96817H33.4923V4.92981H33.6466V4.89144H33.8009V4.85308H33.9167V4.81471H34.071V4.77634H34.2254V4.73798H34.3411V4.69962H34.4955V4.66125H34.6498V4.62288H34.7656V4.58451H34.9199V4.54615H35.0743V4.50779H35.2286V4.46942H35.3444V4.43105H35.4987V4.39268H35.653V4.35432H35.7688V4.31596H35.9231V4.27759H36.0775V4.23922H36.2318V4.20086H36.3476V4.16249H36.5019V4.12413H36.6563V4.08576H36.772V4.04739H36.9264V4.00903H37.0807V3.97066H37.2351V3.9323H37.3894V3.89393H37.5052V3.85556H37.6595V3.8172H37.8138V3.77883H37.9682V3.74047H38.0839V3.7021H38.2383V3.66373H38.3926V3.62537H38.547V3.587H38.6627V3.54864H38.8171V3.51027H38.9714V3.4719H39.1257V3.43354H39.2801V3.39517H39.4344V3.35681H39.5502V3.31844H39.7045V3.28008H39.8589V3.24171H40.0132V3.20334H40.1676V3.16498H40.3219V3.12661H40.4377V3.08825H40.592V3.04988H40.7463V3.01151H40.9007V2.97315H41.055V2.93478H41.2094V2.89642H41.3637V2.85805H41.518V2.81969H41.6724V2.78132H41.7881V2.74295H41.9425V2.70459H42.0968V2.66622H42.2512V2.62786H42.4055V2.58949H42.5599V2.55112H42.7142V2.51276H42.8685V2.47439H43.0229V2.43603H43.1772V2.39766H43.3316V2.35929H43.4859V2.32093H43.6403V2.28256H43.7946V2.2442H43.9875V2.20583H44.1419V2.16747H44.2962V2.1291H44.4506V2.09073H44.6049V2.05237H44.7592V2.014H44.9136V1.97564H45.1065V1.93727H45.2608V1.8989H45.4152V1.86054H45.5695V1.82217H45.7239V1.78381H45.9168V1.74544H46.0711V1.70707H46.2641V1.66871H46.4184V1.63034H46.5728V1.59198H46.7657V1.55361H46.92V1.51524H47.113V1.47688H47.3059V1.43851H47.4602V1.40015H47.6532V1.36178H47.8075V1.32341H48.0004V1.28505H48.1933V1.24669H48.3863V1.20832H48.5406V1.16995H48.7335V1.13158H48.9265V1.09322H49.1194V1.05486H49.3123V1.01649H49.5053V0.978123H49.6982V0.939754H49.8911V0.90139H50.084V0.863026H50.277V0.824657H50.5085V0.786293H50.7014V0.747929H50.9329V0.70956H51.1259V0.671196H51.3574V0.632828H51.5503V0.594463H51.7818V0.556099H52.0133V0.517731H52.2834V0.479366H52.5149V0.440998H52.7464V0.402634H53.0165V0.364269H53.2866V0.325901H53.5953V0.287537H53.8654V0.249168H54.1741V0.210804H54.5214V0.17244H54.9072V0.134071H55.2545V0.0957069H55.7561V0.0573425H56.2577V0.0189743H59.8462V0.0573425H60.3864V0.0957069H60.8108V0.134071H61.1195V0.17244H61.4668V0.210804H61.7755V0.249168H62.007V0.287537H62.2771V0.325901H62.5086V0.364269H62.7401V0.402634H62.933V0.440998H63.126V0.479366H63.3189V0.517731H63.5118V0.556099H63.7047V0.594463H63.8977V0.632828H64.052V0.671196H64.2449V0.70956H64.3993V0.747929H64.5536V0.786293H64.708V0.824657H64.8623V0.863026H65.0166V0.90139H65.171V0.939754H65.2867V0.978123H65.4411V1.01649H65.5568V1.05486H65.7112V1.09322H65.8269V1.13158H65.9427V1.16995H66.0585V1.20832H66.1742V1.24669H66.29V1.28505H66.4057V1.32341H66.5215V1.36178H66.6372V1.40015H66.753V1.43851H66.8688V1.47688H66.9459V1.51524H67.0617V1.55361H67.1774V1.59198H67.2932V1.63034H67.3704V1.66871H67.4861V1.70707H67.5633V1.74544H67.679V1.78381H67.7562V1.82217H67.872V1.86054H67.9877V1.8989H68.0649V1.93727H68.1421V1.97564H68.2578V2.014H68.335V2.05237H68.4122V2.09073H68.5279V2.1291H68.6051V2.16747H68.7209V2.20583H68.798V2.2442H68.8752V2.28256H68.9524V2.32093H69.0295V2.35929H69.1453V2.39766H69.2225V2.43603H69.2996V2.47439H69.3768V2.51276H69.454V2.55112H69.5697V2.58949H69.6469V2.62786H69.7241V2.66622H69.8013V2.70459H69.8784V2.74295H69.9556V2.78132H70.0328V2.81969H70.1099V2.85805H70.1871V2.89642H70.2643V2.93478H70.3415V2.97315H70.4186V3.01151H70.4958V3.04988H70.573V3.08825H70.6501V3.12661H70.7273V3.16498H70.8045V3.20334H70.8431V3.24171H70.9202V3.28008H70.9974V3.31844H71.0746V3.35681H71.1517V3.39517H71.2289V3.43354H71.3061V3.4719H71.3447V3.51027H71.4218V3.54864H71.499V3.587H71.5762V3.62537H71.6534V3.66373H71.6919V3.7021H71.7691V3.74047H71.8463V3.77883H71.8849V3.8172H71.962V3.85556H72.0392V3.89393H72.1164V3.9323H72.155V3.97066H72.2321V4.00903H72.3093V4.04739H72.3479V4.08576H72.4251V4.12413H72.5022V4.16249H72.5408V4.20086H72.618V4.23922H72.6566V4.27759H72.7338V4.31596H72.8109V4.35432H72.8495V4.39268H72.9267V4.43105H72.9653V4.46942H73.0424V4.50779H73.1196V4.54615H73.1582V4.58451H73.2354V4.62288H73.274V4.66125H73.3511V4.69962H73.3897V4.73798H73.4669V4.77634H73.5055V4.81471H73.5826V4.85308H73.6212V4.89144H73.6984V4.92981H73.737V4.96817H73.8142V5.00654H73.8527V5.04491H73.8913V5.08327H73.9685V5.12164H74.0071V5.16H74.0843V5.19837H74.1228V5.23674H74.2V5.2751H74.2386V5.31347H74.3158V5.35183H74.3543V5.3902H74.3929V5.42857H74.4701V5.46693H74.5087V5.5053H74.5473V5.54366H74.6245V5.58203H74.663V5.6204H74.7016V5.65876H74.7788V5.69713H74.8174V5.73549H74.856V5.77386H74.9331V5.81223H74.9717V5.85059H75.0103V5.88896H75.0875V5.92732H75.1261V5.96569H75.1646V6.00406H75.2418V6.04242H75.2804V6.08079H75.319V6.11915H75.3576V6.15752H75.4347V6.19588H75.4733V6.23425H75.5119V6.27261H75.5505V6.31098H75.6277V6.34935H75.6663V6.38771H75.7048V6.42608H75.7434V6.46444H75.782V6.50281H75.8592V6.54118H75.8978V6.57954H75.9364V6.61791H75.9749V6.65627H76.0521V6.69464H76.0907V6.73301H76.1293V6.77137H76.1679V6.80974H76.2065V6.8481H76.245V6.88647H76.3222V6.92484H76.3608V6.9632H76.3994V7.00157H76.438V7.03993H76.4766V7.0783H76.5151V7.11666H76.5537V7.15503H76.5923V7.1934H76.6309V7.23176H76.7081V7.27013H76.7467V7.30849H76.7852V7.34686H76.8238V7.38523H76.8624V7.42359H76.901V7.46196H76.9396V7.50032H76.9782V7.53869H77.0168V7.57706H77.0553V7.61542H77.0939V7.65379H77.1325V7.69215H77.2097V7.73052H77.2483V7.76889H77.2868V7.80725H77.3254V7.84562H77.364V7.88398H77.4026V7.92235H77.4412V7.96072H77.4798V7.99908H77.5184V8.03745H77.557V8.07581H77.5955V8.11418H77.6341V8.15255H77.6727V8.19091H77.7113V8.22927H77.7499V8.26764H77.7885V8.30601H77.827V8.34437H77.8656V8.38274H77.9042V8.4211H77.9428V8.45947H77.9814V8.5362H78.02V8.57457H78.0586V8.61293H78.0971V8.6513H78.1357V8.68967H78.1743V8.72803H78.2129V8.7664H78.2515V8.80476H78.2901V8.84313H78.3287V8.8815H78.3672V8.95823H78.4058V8.99659H78.4444V9.03496H78.483V9.07333H78.5216V9.11169H78.5602V9.15006H78.5988V9.18842H78.6373V9.22679H78.6759V9.26516H78.7145V9.34189H78.7531V9.38025H78.7917V9.41862H78.8303V9.45699H78.8689V9.49535H78.9074V9.57208H78.946V9.61045H78.9846V9.64882H79.0232V9.68718H79.0618V9.76391H79.1004V9.80228H79.139V9.84064H79.1775V9.87901H79.2161V9.91737H79.2547V9.99411H79.2933V10.0325H79.3319V10.0708H79.3705V10.1092H79.4091V10.1859H79.4476V10.2243H79.4862V10.2627H79.5248V10.3394H79.5634V10.3778H79.602V10.4161H79.6406V10.4929H79.6792V10.5312H79.7177V10.5696H79.7563V10.6463H79.7949V10.6847H79.8335V10.7614H79.8721V10.7998H79.9107V10.8382H79.9493V10.9149H79.9878V10.9533H80.0264V11.03H80.065V11.0684H80.1036V11.1067H80.1422V11.1834H80.1808V11.2218H80.2194V11.2985H80.2579V11.3369H80.2965V11.4136H80.3351V11.452H80.3737V11.5287H80.4123V11.6055H80.4509V11.6438H80.4894V11.7206H80.528V11.7589H80.5666V11.8357H80.6052V11.9124H80.6438V11.9508H80.6824V12.0275H80.721V12.0659H80.7596V12.1426H80.7981V12.181H80.8367V12.2577H80.8753V12.3344H80.9139V12.4112H80.9525V12.4879H80.9911V12.5263H81.0296V12.603H81.0682V12.6797H81.1068V12.7565H81.1454V12.8332H81.184V12.9099H81.2226V12.9483H81.2612V13.025H81.2998V13.1017H81.3383V13.1785H81.3769V13.2552H81.4155V13.3319H81.4541V13.3703H81.4927V13.4854H81.5313V13.5621H81.5698V13.6389H81.6084V13.7156H81.647V13.7923H81.6856V13.9074H81.7242V13.9842H81.7628V14.0609H81.8014V14.1376H81.8399V14.2144H81.8785V14.2911H81.9171V14.4062H81.9557V14.4829H81.9943V14.5596H82.0329V14.6747H82.0715V14.7898H82.11V14.8666H82.1486V14.9817H82.1872V15.0968H82.2258V15.1735H82.2644V15.2886H82.303V15.4037H82.3416V15.4804H82.3801V15.5955H82.4187V15.7106H82.4573V15.8257H82.4959V15.9408H82.5345V16.0559H82.5731V16.2094H82.6117V16.3245H82.6502V16.4779H82.6888V16.593H82.7274V16.7081H82.766V16.8616H82.8046V16.9767H82.8432V17.1685H82.8818V17.322H82.9203V17.5138H82.9589V17.7057H82.9975V17.8591H83.0361V18.0509H83.0747V18.2428H83.1133V18.473H83.1519V18.7415H83.1904V19.0101H83.229V19.317H83.2676V19.5856H83.3062V20.046H83.3448V20.6982H83.3834V22.8083H83.3448V23.2303H83.3062V23.6907H83.2676V24.1128H83.229V24.4197H83.1904V24.6882H83.1519V24.9184H83.1133V25.1486H83.0747V25.3788H83.0361V25.6474H82.9975V25.8776H82.9589V26.0694H82.9203V26.2229H82.8818V26.3763H82.8432V26.5682H82.8046V26.7216H82.766V26.8751H82.7274V27.0669H82.6888V27.2204H82.6502V27.4122H82.6117V27.5657H82.5731V27.6808H82.5345V27.8342H82.4959V27.9493H82.4573V28.0644H82.4187V28.2179H82.3801V28.333H82.3416V28.4865H82.303V28.6016H82.2644V28.7167H82.2258V28.8701H82.1872V28.9852H82.1486V29.1003H82.11V29.2538H82.0715V29.3689H82.0329V29.484H81.9943V29.5607H81.9557V29.6758H81.9171V29.7909H81.8785V29.906H81.8399V30.0211H81.8014V30.1362H81.7628V30.2129H81.7242V30.328H81.6856V30.4431H81.647V30.5582H81.6084V30.6733H81.5698V30.7501H81.5313V30.8652H81.4927V30.9419H81.4541V31.057H81.4155V31.1337H81.3769V31.2488H81.3383V31.3255H81.2998V31.4406H81.2612V31.5174H81.2226V31.5941H81.184V31.6708H81.1454V31.7859H81.1068V31.8627H81.0682V31.9394H81.0296V32.0161H80.9911V32.0929H80.9525V32.208H80.9139V32.2847H80.8753V32.3231H80.8367V32.3998H80.7981V32.4765H80.7596V32.5533H80.721V32.63H80.6824V32.7067H80.6438V32.7834H80.6052V32.8602H80.5666V32.9369H80.528V33.0136H80.4894V33.0904H80.4509V33.1287H80.4123V33.2055H80.3737V33.2822H80.3351V33.3589H80.2965V33.3973H80.2579V33.474H80.2194V33.5508H80.1808V33.5891H80.1422V33.6659H80.1036V33.7426H80.065V33.781H80.0264V33.8577H79.9878V33.8961H79.9493V33.9728H79.9107V34.0495H79.8721V34.0879H79.8335V34.1646H79.7949V34.2414H79.7563V34.2797H79.7177V34.3564H79.6792V34.3948H79.6406V34.4332H79.602V34.5099H79.5634V34.5483H79.5248V34.625H79.4862V34.6634H79.4476V34.7401H79.4091V34.7785H79.3705V34.8168H79.3319V34.8936H79.2933V34.9319H79.2547V35.0087H79.2161V35.047H79.1775V35.1238H79.139V35.1621H79.1004V35.2005H79.0618V35.2772H79.0232V35.3156H78.9846V35.354H78.946V35.4307H78.9074V35.4691H78.8689V35.5074H78.8303V35.5458H78.7917V35.6225H78.7531V35.6609H78.7145V35.6993H78.6759V35.7376H78.6373V35.8144H78.5988V35.8527H78.5602V35.8911H78.5216V35.9295H78.483V36.0062H78.4444V36.0445H78.4058V36.0829H78.3672V36.1213H78.3287V36.198H78.2901V36.2364H78.2515V36.2747H78.2129V36.3131H78.1743V36.3515H78.1357V36.3898H78.0971V36.4282H78.0586V36.4666H78.02V36.5433H77.9814V36.5817H77.9428V36.62H77.9042V36.6584H77.8656V36.6968H77.827V36.7351H77.7885V36.7735H77.7499V36.8119H77.7113V36.8886H77.6727V36.927H77.6341V36.9653H77.5955V37.0037H77.557V37.0421H77.5184V37.0804H77.4798V37.1188H77.4412V37.1572H77.4026V37.1955H77.364V37.2339H77.3254V37.2723H77.2868V37.3106H77.2483V37.349H77.2097V37.3874H77.1711V37.4257H77.1325V37.4641H77.0939V37.5025H77.0553V37.5408H77.0168V37.5792H76.9782V37.6175H76.9396V37.6559H76.901V37.6943H76.8624V37.7326H76.8238V37.771H76.7852V37.8094H76.7467V37.8477H76.7081V37.8861H76.6695V37.9245H76.6309V37.9628H76.5923V38.0012H76.5537V38.0396H76.5151V38.0779H76.4766V38.1163H76.438V38.1547H76.3994V38.193H76.3608V38.2314H76.2836V38.2698H76.245V38.3081H76.2065V38.3465H76.1679V38.3849H76.1293V38.4232H76.0907V38.4616H76.0521V38.5H76.0135V38.5383H75.9749V38.5767H75.9364V38.6151H75.8592V38.6534H75.8206V38.6918H75.782V38.7302H75.7434V38.7685H75.7048V38.8069H75.6663V38.8453H75.6277V38.8836H75.5505V38.922H75.5119V38.9604H75.4733V38.9987H75.4347V39.0371H75.3576V39.0755H75.319V39.1138H75.2804V39.1522H75.2418V39.1906H75.2032V39.2289H75.1261V39.2673H75.0875V39.3056H75.0489V39.344H75.0103V39.3824H74.9331V39.4207H74.8945V39.4591H74.856V39.4975H74.8174V39.5358H74.7788V39.5742H74.7016V39.6126H74.663V39.6509H74.6245V39.6893H74.5473V39.7277H74.5087V39.766H74.4701V39.8044H74.3929V39.8428H74.3543V39.8811H74.3158V39.9195H74.2386V39.9579H74.2V39.9962H74.1614V40.0346H74.0843V40.073H74.0457V40.1113H73.9685V40.1497H73.9299V40.1881H73.8913V40.2264H73.8142V40.2648H73.7756V40.3032H73.737V40.3415H73.6598V40.3799H73.6212V40.4183H73.5441V40.4566H73.5055V40.495H73.4283V40.5334H73.3897V40.5717H73.3125V40.6101H73.274V40.6485H73.1968V40.6868H73.1582V40.7252H73.081V40.7636H73.0424V40.8019H72.9653V40.8403H72.9267V40.8787H72.8495V40.917H72.8109V40.9554H72.7338V40.9937H72.6952V41.0321H72.6566V41.0705H72.5794V41.1088H72.5022V41.1472H72.4637V41.1856H72.3865V41.2239H72.3093V41.2623H72.2707V41.3007H72.1936V41.339H72.1164V41.3774H72.0778V41.4158H72.0006V41.4541H71.9235V41.4925H71.8849V41.5309H71.8077V41.5692H71.7691V41.6076H71.6919V41.646H71.6148V41.6843H71.5762V41.7227H71.499V41.7611H71.4218V41.7994H71.3447V41.8378H71.2675V41.8762H71.2289V41.9145H71.1517V41.9529H71.0746V41.9913H70.9974V42.0296H70.9202V42.068H70.8817V42.1064H70.8045V42.1447H70.7273V42.1831H70.6501V42.2215H70.573V42.2598H70.5344V42.2982H70.4572V42.3366H70.38V42.3749H70.3029V42.4133H70.2257V42.4517H70.1485V42.49H70.0714V42.5284H69.9942V42.5668H69.917V42.6051H69.8398V42.6435H69.7627V42.6818H69.6855V42.7202H69.6083V42.7586H69.5312V42.7969H69.454V42.8353H69.3768V42.8737H69.2996V42.912H69.2225V42.9504H69.1067V42.9888H69.0295V43.0271H68.9524V43.0655H68.8752V43.1039H68.7594V43.1422H68.6823V43.1806H68.6051V43.219H68.5279V43.2573H68.4508V43.2957H68.335V43.3341H68.2578V43.3724H68.1807V43.4108H68.1035V43.4492H67.9877V43.4875H67.9106V43.5259H67.7948V43.5643H67.7176V43.6026H67.6019V43.641H67.5247V43.6794H67.409V43.7177H67.3318V43.7561H67.216V43.7945H67.1389V43.8328H67.0231V43.8712H66.9459V43.9096H66.8302V43.9479H66.753V43.9863H66.6372V44.0247H66.5215V44.063H66.4057V44.1014H66.29V44.1398H66.1742V44.1781H66.097V44.2165H65.9813V44.2548H65.8655V44.2932H65.7498V44.3316H65.634V44.3699H65.5183V44.4083H65.4025V44.4467H65.2867V44.485H65.171V44.5234H65.0166V44.5618H64.9009V44.6001H64.7851V44.6385H64.6694V44.6769H64.5536V44.7152H64.3993V44.7536H64.2835V44.792H64.1292V44.8303H63.9748V44.8687H63.8591V44.9071H63.7047V44.9454H63.5504V44.9838H63.3961V45.0222H63.2803V45.0605H63.126V45.0989H62.9716V45.1373H62.7787V45.1756H62.6243V45.214H62.4314V45.2524H62.2771V45.2907H62.0841V45.3291H61.9298V45.3675H61.7369V45.4058H61.5439V45.4442H61.3124V45.4826H61.1195V45.5209H60.888V45.5593H60.6951V45.5977H60.4636V45.636H60.1935V45.6744H59.8848V45.7128H59.6147V45.7511H59.3446V45.7895H58.9973V45.8279H58.5729V45.8662H58.187V45.9046H57.6468V45.9429H56.9137V45.9813" fill="url(#paint0_linear_3915_3514)"/>
</g>
<path d="M93.9099 12.8794V18.9724C93.9099 19.2844 93.4758 19.3884 93.2365 19.3884H91.533C91.1444 19.3884 90.9804 19.1952 90.9504 19.1654C90.9052 19.1062 90.8755 19.0319 90.8755 18.9724V8.97148C90.8755 8.91201 90.9052 8.83797 90.9504 8.77812C90.9804 8.74858 91.1444 8.55521 91.533 8.55521H92.9977C93.3118 8.55521 93.4164 8.61468 93.536 8.73361L100.201 15.0045L100.187 8.95652C100.187 8.89743 100.216 8.83797 100.261 8.76315C100.291 8.73361 100.456 8.54063 100.844 8.54063H102.563C102.951 8.54063 103.116 8.71865 103.145 8.76315C103.205 8.83797 103.22 8.89743 103.22 8.95652L103.236 18.9574C103.236 19.0169 103.22 19.0912 103.161 19.1507C103.116 19.2102 102.951 19.3884 102.563 19.3884H101.173C100.859 19.3884 100.755 19.3289 100.62 19.2102L93.9099 12.8794Z" fill="#231F20"/>
<path d="M107.846 13.9644C107.846 16.0152 110.148 17.1148 111.956 17.1148C113.795 17.1148 115.17 16.2083 115.723 15.2129C115.962 14.8116 116.081 14.3807 116.081 13.9644C116.081 11.9284 113.735 10.8288 111.956 10.8288C110.178 10.8288 108.818 11.6909 108.22 12.627C107.981 13.0582 107.846 13.504 107.846 13.9644ZM104.812 13.9644C104.812 12.1367 105.769 9.95251 108.952 8.83798C109.819 8.54065 110.865 8.30278 111.956 8.30278C115.259 8.30278 119.115 10.2644 119.115 13.9644C119.115 14.7225 118.951 15.4803 118.592 16.2232C117.785 17.8431 115.663 19.6263 111.956 19.6263C108.803 19.6263 104.812 17.4268 104.812 13.9644Z" fill="#231F20"/>
<path d="M123.726 11.0521V12.9539H129.48C129.944 12.9539 130.288 12.5974 130.288 12.1367C130.288 11.7354 129.929 11.0521 129.48 11.0521H123.726ZM123.726 15.4657V19.0169C123.726 19.1359 123.487 19.3884 123.129 19.3884H121.291C120.932 19.3884 120.693 19.1359 120.693 19.0169V8.89744C120.693 8.79308 120.991 8.54063 121.291 8.54063H129.48C131.498 8.54063 133.322 10.0565 133.322 12.1367C133.322 13.8754 131.932 15.153 130.242 15.4058C130.318 15.4952 130.407 15.5992 130.512 15.7032C130.87 16.0597 131.304 16.5352 131.753 16.9961C132.201 17.4568 132.664 17.9321 132.992 18.2739C133.172 18.4672 133.306 18.6159 133.396 18.7199C133.456 18.7942 133.501 18.8239 133.531 18.8684C133.59 18.9574 133.606 19.0169 133.606 19.0467C133.606 19.1507 133.351 19.3884 133.022 19.3884H130.661C130.422 19.3884 130.242 19.3142 130.153 19.2102L126.596 15.4657H123.726Z" fill="#231F20"/>
<path d="M139.962 10.8288H135.329C134.716 10.8288 134.776 10.4724 134.79 10.4428L135.388 8.79308C135.403 8.68911 135.598 8.54063 135.912 8.54063H147.001C147.3 8.54063 147.494 8.68911 147.524 8.79308L148.152 10.4428C148.167 10.4724 148.227 10.8288 147.614 10.8288H142.981V19.0319C142.981 19.1359 142.697 19.3884 142.398 19.3884H140.545C140.231 19.3884 139.962 19.1359 139.962 19.0319V10.8288Z" fill="#231F20"/>
<path d="M159.411 12.7164V8.94195C159.411 8.89745 159.426 8.83798 159.486 8.76317C159.515 8.7037 159.68 8.54065 160.053 8.54065H161.787C162.161 8.54065 162.325 8.7037 162.355 8.76317C162.415 8.83798 162.429 8.89745 162.429 8.94195V18.9872C162.429 19.0319 162.415 19.1062 162.37 19.1654C162.265 19.3289 162.041 19.4034 161.787 19.4034H160.053C159.8 19.4034 159.575 19.3289 159.47 19.1654C159.426 19.1062 159.411 19.0319 159.411 18.9872V15.2278H153.089L153.103 18.9872C153.103 19.0467 153.089 19.1062 153.029 19.1804C152.985 19.2249 152.82 19.4034 152.446 19.4034H150.713C150.458 19.4034 150.235 19.3289 150.13 19.1654C150.084 19.1062 150.07 19.0319 150.07 18.9872V8.94195C150.07 8.89745 150.084 8.83798 150.144 8.76317C150.174 8.7037 150.339 8.54065 150.713 8.54065H152.446C152.775 8.54065 152.954 8.67416 153.029 8.74859C153.089 8.82264 153.103 8.88249 153.103 8.94195V12.7164H159.411Z" fill="#231F20"/>
<path d="M167.369 16.8771H175.231C175.56 16.8771 175.829 17.1298 175.829 17.2633V17.3081L175.231 19.1062C175.216 19.2249 174.917 19.3884 174.648 19.3884H164.979C164.605 19.3884 164.44 19.2249 164.41 19.1654C164.35 19.1062 164.335 19.0319 164.335 18.9872V8.94194C164.335 8.89743 164.35 8.83797 164.41 8.76315C164.44 8.70369 164.605 8.54063 164.979 8.54063H166.727C167.101 8.54063 167.265 8.70369 167.295 8.76315C167.354 8.83797 167.369 8.89743 167.369 8.94194V16.8771Z" fill="#231F20"/>
<path d="M183.459 11.9433C183.265 12.3297 182.996 12.8349 182.742 13.3107C182.487 13.816 182.218 14.3212 182.039 14.7076C181.95 14.8411 181.89 14.975 181.83 15.079H185.073L183.459 11.9433ZM180.56 17.5903L179.768 19.1209C179.707 19.2399 179.409 19.4034 179.17 19.4034H177.167C176.823 19.4034 176.539 19.1359 176.539 19.0169C176.539 18.9574 176.554 18.9129 176.569 18.8832L181.77 8.80806C181.8 8.76317 181.964 8.54065 182.368 8.54065H184.55C184.999 8.54065 185.132 8.76317 185.148 8.80806L190.364 18.8832C190.379 18.9129 190.394 18.9574 190.394 19.0022C190.394 19.0467 190.379 19.1062 190.348 19.1507C190.259 19.3289 190.005 19.4034 189.781 19.4034H187.778C187.48 19.4034 187.255 19.2547 187.18 19.1209L186.373 17.5903H180.56Z" fill="#231F20"/>
<path d="M194.601 12.8794V18.9724C194.601 19.2844 194.167 19.3884 193.928 19.3884H192.224C191.836 19.3884 191.672 19.1952 191.642 19.1654C191.597 19.1062 191.567 19.0319 191.567 18.9724V8.97148C191.567 8.91201 191.597 8.83797 191.642 8.77812C191.672 8.74858 191.836 8.55521 192.224 8.55521H193.69C194.003 8.55521 194.108 8.61468 194.227 8.73361L200.893 15.0045L200.878 8.95652C200.878 8.89743 200.908 8.83797 200.953 8.76315C200.983 8.73361 201.147 8.54063 201.536 8.54063H203.255C203.643 8.54063 203.807 8.71865 203.837 8.76315C203.897 8.83797 203.912 8.89743 203.912 8.95652L203.927 18.9574C203.927 19.0169 203.912 19.0912 203.853 19.1507C203.807 19.2102 203.643 19.3884 203.255 19.3884H201.864C201.551 19.3884 201.446 19.3289 201.311 19.2102L194.601 12.8794Z" fill="#231F20"/>
<path d="M208.867 11.0521V16.8921H211.961C215.354 16.8921 215.982 15.7775 215.982 13.9794C215.982 12.3596 214.95 11.0521 211.961 11.0521H208.867ZM206.596 19.4034C206.282 19.4034 205.833 19.2547 205.833 18.8832V9.06051C205.833 8.68913 206.282 8.54065 206.596 8.54065H211.961C215.488 8.54065 219 10.101 219 13.9794C219 16.2381 217.655 19.4034 211.961 19.4034H206.596Z" fill="#231F20"/>
<path d="M93.9099 28.7583H99.6332C100.082 28.7583 100.471 28.2082 100.471 27.7922C100.471 27.3765 100.142 26.6035 99.6633 26.6035H93.9099V28.7583ZM93.9099 31.2694V34.5686C93.9099 34.6726 93.5962 34.9548 93.2821 34.9548H91.5033C91.1745 34.9548 90.8755 34.6726 90.8755 34.5686V24.4933C90.8755 24.2113 91.2791 24.0923 91.5033 24.0923H99.6633C101.711 24.0923 103.504 25.6824 103.504 27.7624V27.822C103.43 29.8725 101.636 31.2694 99.6039 31.2694H93.9099Z" fill="#231F20"/>
<path d="M108.546 29.5311C108.546 31.5816 110.847 32.6815 112.656 32.6815C114.494 32.6815 115.869 31.7746 116.422 30.7794C116.661 30.3782 116.781 29.9471 116.781 29.5311C116.781 27.4952 114.434 26.3954 112.656 26.3954C110.878 26.3954 109.517 27.2575 108.92 28.1934C108.68 28.6244 108.546 29.0703 108.546 29.5311ZM105.512 29.5311C105.512 27.7032 106.468 25.5189 109.652 24.4043C110.519 24.1071 111.565 23.8693 112.656 23.8693C115.958 23.8693 119.815 25.8309 119.815 29.5311C119.815 30.289 119.65 31.0466 119.291 31.7896C118.485 33.4095 116.362 35.1926 112.656 35.1926C109.502 35.1926 105.512 32.9935 105.512 29.5311Z" fill="#231F20"/>
<path d="M134.137 30.2293L136.857 24.3598C136.902 24.2705 137.007 24.1963 137.156 24.1368L137.275 24.1071H139.488C139.801 24.1071 140.055 24.33 140.055 24.434C140.055 24.4638 140.055 24.5083 140.041 24.538L135.303 34.7174C135.243 34.8362 135.034 34.9696 134.75 34.9696H133.106L132.941 34.8806C132.912 34.8508 132.777 34.7318 132.777 34.7024L130.431 29.0553L128.069 34.7024C128.04 34.7916 127.696 34.9696 127.516 34.9696H125.962L125.842 34.9402C125.693 34.8806 125.603 34.8064 125.558 34.7174L120.821 24.538C120.806 24.5083 120.806 24.4786 120.806 24.434C120.806 24.33 121.045 24.1071 121.374 24.1071H123.436C123.72 24.1071 123.929 24.2408 123.989 24.3598L126.724 30.2293L128.847 25.1624C128.951 24.8948 129.07 24.6273 129.19 24.3746C129.22 24.2408 129.459 24.1071 129.743 24.1071H131.118C131.492 24.1071 131.611 24.226 131.671 24.3746C131.791 24.6273 131.91 24.8948 132.015 25.1624L134.137 30.2293Z" fill="#231F20"/>
<path d="M145.006 32.4136H152.987C153.331 32.4136 153.615 32.6665 153.615 32.8003C153.615 32.8297 153.6 32.8447 153.585 32.8745L153.017 34.6134C152.987 34.7468 152.718 34.9254 152.419 34.9254H142.66C142.286 34.9254 142.122 34.7616 142.062 34.6874C141.987 34.6278 141.973 34.5388 141.973 34.4794V24.5529C141.973 24.4933 141.987 24.4043 142.062 24.3448C142.122 24.2705 142.286 24.122 142.66 24.122H152.419C152.718 24.122 152.987 24.2853 153.017 24.4193L153.585 26.1579C153.6 26.1874 153.615 26.2174 153.615 26.2469C153.615 26.3954 153.331 26.6334 152.987 26.6334H145.006V28.2681H150.835C151.164 28.2681 151.448 28.5204 151.448 28.6691V28.6989L150.865 30.4523C150.835 30.601 150.551 30.7794 150.252 30.7794H145.006V32.4136Z" fill="#231F20"/>
<path d="M158.88 26.611V28.5129H164.634C165.097 28.5129 165.441 28.1566 165.441 27.6957C165.441 27.2945 165.083 26.611 164.634 26.611H158.88ZM158.88 31.0245V34.5761C158.88 34.6949 158.641 34.9473 158.282 34.9473H156.444C156.085 34.9473 155.846 34.6949 155.846 34.5761V24.4563C155.846 24.3523 156.145 24.0998 156.444 24.0998H164.634C166.652 24.0998 168.475 25.6154 168.475 27.6957C168.475 29.4346 167.085 30.7121 165.397 30.9649C165.471 31.0541 165.561 31.1581 165.665 31.2621C166.024 31.6189 166.457 32.0941 166.906 32.555C167.354 33.0158 167.817 33.491 168.146 33.8331C168.326 34.0261 168.46 34.1749 168.55 34.2789C168.61 34.3531 168.654 34.3829 168.684 34.4273C168.744 34.5163 168.759 34.5761 168.759 34.6059C168.759 34.7099 168.505 34.9473 168.177 34.9473H165.815C165.576 34.9473 165.397 34.8731 165.307 34.7691L161.75 31.0245H158.88Z" fill="#231F20"/>
</g>
<defs>
<linearGradient id="paint0_linear_3915_3514" x1="39.3657" y1="52.5093" x2="67.4154" y2="1.35526" gradientUnits="userSpaceOnUse">
<stop stop-color="#91D22D"/>
<stop offset="0.288226" stop-color="#91D22D"/>
<stop offset="1" stop-color="#117ABE"/>
</linearGradient>
<clipPath id="clip0_3915_3514">
<rect width="219" height="54" fill="white"/>
</clipPath>
</defs>
</svg>
