<svg width="1428" height="722" viewBox="0 0 1428 722" fill="none" xmlns="http://www.w3.org/2000/svg">
<path d="M633.18 722V721.487H625.973V720.974H619.281V720.461H614.647V719.947H610.014V719.434H605.381V718.921H602.293V718.408H598.689V717.895H595.601V717.382H592.512V716.869H589.423V716.355H586.849V715.842H584.275V715.329H581.702V714.816H579.128V714.303H576.554V713.79H573.98V713.276H571.921V712.763H569.862V712.25H567.802V711.737H565.229V711.224H563.169V710.711H561.625V710.198H559.566V709.684H557.507V709.171H555.963V708.658H553.903V708.145H552.359V707.632H550.815V707.119H549.27V706.606H547.211V706.092H545.667V705.579H544.123V705.066H542.578V704.553H541.034V704.04H539.49V703.527H537.945V703.014H536.916V702.5H535.371V701.987H533.827V701.474H532.283V700.961H530.738V700.448H529.709V699.935H528.164V699.421H527.135V698.908H525.591V698.395H524.561V697.882H523.017V697.369H521.472V696.856H520.443V696.343H519.413V695.829H517.869V695.316H516.839V694.803H515.81V694.29H514.265V693.777H513.236V693.264H511.691V692.751H510.662V692.237H509.632V691.724H508.603V691.211H507.058V690.698H506.029V690.185H504.999V689.672H503.97V689.158H502.94V688.645H501.911V688.132H500.366V687.619H499.337V687.106H498.307V686.593H497.278V686.08H496.248V685.566H495.218V685.053H494.189V684.54H493.159V684.027H492.13V683.514H491.1V683.001H490.071V682.488H489.041V681.974H488.012V681.461H486.982V680.948H485.952V680.435H484.923V679.922H483.893V679.409H482.864V678.896H481.834V678.382H481.319V677.869H480.29V677.356H479.26V676.843H478.231V676.33H477.201V675.817H476.172V675.303H475.142V674.79H474.627V674.277H473.598V673.764H472.568V673.251H471.539V672.738H471.024V672.225H469.994V671.711H468.965V671.198H468.45V670.685H467.42V670.172H466.391V669.659H465.361V669.146H464.846V668.633H463.817V668.119H462.787V667.606H462.273V667.093H461.243V666.58H460.213V666.067H459.699V665.554H458.669V665.041H458.154V664.527H457.125V664.014H456.095V663.501H455.58V662.988H454.551V662.475H454.036V661.962H453.007V661.448H451.977V660.935H451.462V660.422H450.433V659.909H449.918V659.396H448.888V658.883H448.374V658.37H447.344V657.856H446.829V657.343H445.8V656.83H445.285V656.317H444.255V655.804H443.74V655.291H443.226V654.778H442.196V654.264H441.681V653.751H440.652V653.238H440.137V652.725H439.107V652.212H438.593V651.699H437.563V651.186H437.048V650.672H436.019V650.159H435.504V649.646H434.989V649.133H433.96V648.62H433.445V648.107H432.93V647.593H431.901V647.08H431.386V646.567H430.871V646.054H429.841V645.541H429.327V645.028H428.812V644.515H427.782V644.001H427.268V643.488H426.753V642.975H425.723V642.462H425.208V641.949H424.694V641.436H423.664V640.923H423.149V640.409H422.634V639.896H422.12V639.383H421.605V638.87H420.575V638.357H420.061V637.844H419.546V637.33H419.031V636.817H418.001V636.304H417.487V635.791H416.972V635.278H416.457V634.765H415.942V634.252H414.913V633.738H414.398V633.225H413.883V632.712H413.368V632.199H412.339V631.686H411.824V631.173H411.309V630.66H410.795V630.146H410.28V629.633H409.765V629.12H409.25V628.607H408.221V628.094H407.706V627.581H407.191V627.068H406.676V626.554H406.162V626.041H405.647V625.528H405.132V625.015H404.617V624.502H404.102V623.989H403.073V623.475H402.558V622.962H402.043V622.449H401.528V621.936H401.014V621.423H400.499V620.91H399.984V620.397H399.469V619.883H398.955V619.37H398.44V618.857H397.925V618.344H397.41V617.831H396.895V617.318H396.381V616.805H395.866V616.291H395.351V615.778H394.836V615.265H394.322V614.752H393.807V614.239H393.292V613.726H392.777V613.213H392.262V612.699H391.748V612.186H391.233V611.673H390.718V611.16H390.203V610.647H389.689V610.134H389.174V609.62H388.659V609.107H388.144V608.594H387.629V608.081H387.115V607.568H386.6V607.055H386.085V606.542H385.57V606.028H385.056V605.515H384.541V605.002H384.026V603.976H383.511V603.463H382.996V602.95H382.482V602.436H381.967V601.923H381.452V601.41H380.937V600.897H380.422V600.384H379.908V599.871H379.393V599.357H378.878V598.844H378.363V597.818H377.849V597.305H377.334V596.792H376.819V596.279H376.304V595.765H375.789V594.739H375.275V594.226H374.76V593.713H374.245V593.2H373.73V592.173H373.216V591.66H372.701V591.147H372.186V590.634H371.671V590.121H371.156V589.095H370.642V588.581H370.127V588.068H369.612V587.555H369.097V586.529H368.583V586.016H368.068V585.502H367.553V584.989H367.038V583.963H366.523V583.45H366.009V582.424H365.494V581.91H364.979V581.397H364.464V580.371H363.95V579.858H363.435V579.345H362.92V578.318H362.405V577.805H361.89V576.779H361.376V576.266H360.861V575.753H360.346V574.726H359.831V574.213H359.317V573.187H358.802V572.674H358.287V572.161H357.772V571.134H357.257V570.621H356.743V569.595H356.228V568.569H355.713V568.055H355.198V567.029H354.684V566.516H354.169V565.49H353.654V564.463H353.139V563.95H352.624V562.924H352.11V562.411H351.595V561.385H351.08V560.871H350.565V559.845H350.051V558.819H349.536V558.306H349.021V557.279H348.506V556.253H347.991V555.227H347.477V554.714H346.962V553.687H346.447V552.661H345.932V551.635H345.417V550.608H344.903V549.582H344.388V549.069H343.873V548.043H343.358V547.016H342.844V545.99H342.329V544.964H341.814V543.937H341.299V542.911H340.784V541.885H340.27V540.859H339.755V539.832H339.24V538.806H338.725V537.78H338.211V536.24H337.696V535.214H337.181V534.188H336.666V533.161H336.151V532.135H335.637V530.596H335.122V529.569H334.607V528.543H334.092V527.517H333.578V525.977H333.063V524.951H332.548V523.412H332.033V521.872H331.518V520.846H331.004V519.306H330.489V517.767H329.974V516.741H329.459V515.201H328.944V513.662H328.43V512.635H327.915V511.096H327.4V509.043H326.885V507.504H326.371V505.451H325.856V503.912H325.341V502.372H324.826V500.32H324.311V498.78H323.797V496.728H323.282V495.188H322.767V493.136H322.252V490.57H321.738V488.004H321.223V485.952H320.708V483.386H320.193V480.82H319.678V478.768H319.164V475.689H318.649V472.097H318.134V468.505H317.619V464.399H317.105V460.807H316.59V455.676H316.075V446.952H315.56V415.65H316.075V410.006H316.59V403.848H317.105V398.203H317.619V394.611H318.134V391.532H318.649V387.94H319.164V384.861H319.678V381.783H320.193V378.19H320.708V375.112H321.223V373.059H321.738V371.006H322.252V368.441H322.767V366.388H323.282V364.335H323.797V361.77H324.311V359.717H324.826V357.151H325.341V355.099H325.856V353.046H326.371V350.994H326.885V349.454H327.4V347.915H327.915V345.862H328.43V344.323H328.944V342.783H329.459V340.731H329.974V339.191H330.489V337.652H331.004V335.599H331.518V334.06H332.033V332.52H332.548V330.468H333.063V328.928H333.578V327.389H334.092V325.849H334.607V324.823H335.122V323.284H335.637V321.744H336.151V320.205H336.666V318.665H337.181V317.639H337.696V316.099H338.211V314.56H338.725V313.021H339.24V311.481H339.755V310.455H340.27V308.915H340.784V307.889H341.299V306.35H341.814V305.323H342.329V303.784H342.844V302.758H343.358V301.218H343.873V300.192H344.388V299.166H344.903V298.139H345.417V296.6H345.932V295.574H346.447V294.547H346.962V293.521H347.477V292.495H347.991V290.955H348.506V290.442H349.021V289.416H349.536V288.39H350.051V287.363H350.565V286.337H351.08V285.311H351.595V284.284H352.11V283.258H352.624V282.232H353.139V281.205H353.654V280.692H354.169V279.666H354.684V278.64H355.198V277.613H355.713V276.587H356.228V275.561H356.743V275.048H357.257V274.021H357.772V273.508H358.287V272.482H358.802V271.456H359.317V270.942H359.831V269.916H360.346V268.89H360.861V268.377H361.376V267.35H361.89V266.324H362.405V265.811H362.92V264.785H363.435V264.272H363.95V263.245H364.464V262.732H364.979V261.706H365.494V261.193H366.009V260.166H366.523V259.653H367.038V258.627H367.553V258.114H368.068V257.601H368.583V256.574H369.097V256.061H369.612V255.035H370.127V254.522H370.642V254.009H371.156V252.982H371.671V252.469H372.186V251.443H372.701V250.93H373.216V250.417H373.73V249.39H374.245V248.877H374.76V248.364H375.275V247.338H375.789V246.824H376.304V246.311H376.819V245.798H377.334V244.772H377.849V244.259H378.363V243.746H378.878V243.232H379.393V242.206H379.908V241.693H380.422V241.18H380.937V240.667H381.452V239.64H381.967V239.127H382.482V238.614H382.996V238.101H383.511V237.588H384.026V236.561H384.541V236.048H385.056V235.535H385.57V235.022H386.085V234.509H386.6V233.996H387.115V233.483H387.629V232.969H388.144V231.943H388.659V231.43H389.174V230.917H389.689V230.404H390.203V229.891H390.718V229.377H391.233V228.864H391.748V228.351H392.262V227.325H392.777V226.812H393.292V226.299H393.807V225.785H394.322V225.272H394.836V224.759H395.351V224.246H395.866V223.733H396.381V223.22H396.895V222.706H397.41V222.193H397.925V221.68H398.44V221.167H398.955V220.654H399.469V220.141H399.984V219.628H400.499V219.114H401.014V218.601H401.528V218.088H402.043V217.575H402.558V217.062H403.073V216.549H403.588V216.036H404.102V215.522H404.617V215.009H405.132V214.496H405.647V213.983H406.162V213.47H406.676V212.957H407.191V212.444H407.706V211.93H408.735V211.417H409.25V210.904H409.765V210.391H410.28V209.878H410.795V209.365H411.309V208.851H411.824V208.338H412.339V207.825H412.854V207.312H413.883V206.799H414.398V206.286H414.913V205.773H415.428V205.259H415.942V204.746H416.457V204.233H416.972V203.72H417.487V203.207H418.001V202.694H419.031V202.181H419.546V201.667H420.061V201.154H420.575V200.641H421.09V200.128H422.12V199.615H422.634V199.102H423.149V198.589H423.664V198.075H424.694V197.562H425.208V197.049H425.723V196.536H426.238V196.023H426.753V195.51H427.782V194.996H428.297V194.483H428.812V193.97H429.327V193.457H430.356V192.944H430.871V192.431H431.386V191.918H431.901V191.404H432.93V190.891H433.445V190.378H434.474V189.865H434.989V189.352H435.504V188.839H436.534V188.326H437.048V187.812H437.563V187.299H438.593V186.786H439.107V186.273H439.622V185.76H440.652V185.247H441.167V184.733H441.681V184.22H442.711V183.707H443.226V183.194H443.74V182.681H444.77V182.168H445.285V181.655H446.314V181.141H446.829V180.628H447.859V180.115H448.374V179.602H449.403V179.089H449.918V178.576H450.947V178.063H451.462V177.549H452.492V177.036H453.007V176.523H454.036V176.01H454.551V175.497H455.58V174.984H456.095V174.471H457.125V173.957H457.639V173.444H458.669V172.931H459.184V172.418H460.213V171.905H460.728V171.392H461.758V170.878H462.787V170.365H463.302V169.852H464.332V169.339H465.361V168.826H465.876V168.313H466.906V167.8H467.935V167.286H468.45V166.773H469.479V166.26H469.994V165.747H471.024V165.234H472.053V164.721H472.568V164.208H473.598V163.694H474.627V163.181H475.657V162.668H476.172V162.155H477.201V161.642H478.231V161.129H479.26V160.616H480.29V160.102H481.319V159.589H481.834V159.076H482.864V158.563H483.893V158.05H484.923V157.537H485.952V157.023H486.467V156.51H487.497V155.997H488.526V155.484H489.556V154.971H490.585V154.458H491.615V153.945H492.645V153.431H493.674V152.918H494.704V152.405H495.733V151.892H496.763V151.379H497.792V150.866H498.822V150.353H499.852V149.839H500.881V149.326H501.911V148.813H502.94V148.3H503.97V147.787H504.999V147.274H506.544V146.76H507.573V146.247H508.603V145.734H509.632V145.221H510.662V144.708H512.206V144.195H513.236V143.682H514.265V143.168H515.295V142.655H516.839V142.142H517.869V141.629H518.898V141.116H519.928V140.603H521.472V140.09H522.502V139.576H524.046V139.063H525.076V138.55H526.62V138.037H527.65V137.524H529.194V137.011H530.224V136.498H531.768V135.984H532.797V135.471H534.342V134.958H535.371V134.445H536.916V133.932H538.46V133.419H540.004V132.905H541.034V132.392H542.578V131.879H544.123V131.366H545.667V130.853H547.211V130.34H548.241V129.827H549.785V129.313H551.33V128.8H552.874V128.287H554.418V127.774H555.963V127.261H558.022V126.748H559.566V126.235H561.11V125.721H562.655V125.208H564.199V124.695H566.258V124.182H567.802V123.669H569.347V123.156H571.406V122.643H573.465V122.129H575.009V121.616H577.069V121.103H579.128V120.59H581.187V120.077H582.731V119.564H584.79V119.05H586.849V118.537H588.908V118.024H591.482V117.511H593.541V116.998H596.115V116.485H598.174V115.972H600.748V115.458H602.808V114.945H605.381V114.432H608.47V113.919H611.044V113.406H614.133V112.893H616.707V112.38H619.795V111.866H623.399V111.353H627.002V110.84H630.606V110.327H634.209V109.814H638.327V109.301H643.475V108.788H649.138V108.274H654.286V107.761H664.066V107.248H688.261V106.735H688.776V107.248H702.16V107.761H709.882V108.274H715.544V108.788H721.207V109.301H725.325V109.814H728.929V110.327H732.532V110.84H736.136V111.353H739.224V111.866H741.798V112.38H744.887V112.893H747.461V113.406H750.035V113.919H752.609V114.432H755.182V114.945H756.727V115.458H758.786V115.972H760.845V116.485H762.904V116.998H764.963V117.511H767.022V118.024H769.082V118.537H770.626V119.05H772.17V119.564H774.229V120.077H775.774V120.59H777.318V121.103H778.862V121.616H780.407V122.129H781.951V122.643H783.495V123.156H785.04V123.669H786.584V124.182H788.128V124.695H789.158V125.208H790.702V125.721H792.247V126.235H793.276V126.748H794.82V127.261H795.85V127.774H797.394V128.287H798.424V128.8H798.939V129.313H797.909V128.8H795.85V128.287H794.306V127.774H792.247V127.261H790.188V126.748H788.128V126.235H786.069V125.721H784.01V125.208H781.951V124.695H779.377V124.182H776.288V123.669H773.2V123.156H770.626V122.643H767.537V122.129H764.449V121.616H759.301V121.103H753.123V120.59H747.461V120.077H724.81V120.59H717.604V121.103H709.882V121.616H706.278V122.129H702.675V122.643H699.071V123.156H695.468V123.669H691.864V124.182H688.776V124.695H686.717V125.208H684.143V125.721H681.569V126.235H678.995V126.748H676.936V127.261H674.362V127.774H671.788V128.287H670.244V128.8H668.185V129.313H666.64V129.827H664.581V130.34H662.522V130.853H660.978V131.366H658.919V131.879H657.374V132.392H655.315V132.905H653.771V133.419H652.226V133.932H650.682V134.445H649.138V134.958H647.593V135.471H646.049V135.984H644.505V136.498H642.96V137.011H641.416V137.524H639.872V138.037H638.842V138.55H637.298V139.063H635.753V139.576H634.209V140.09H633.18V140.603H631.635V141.116H630.606V141.629H629.061V142.142H628.032V142.655H627.002V143.168H625.458V143.682H624.428V144.195H622.884V144.708H621.854V145.221H620.31V145.734H619.281V146.247H617.736V146.76H616.707V147.274H615.677V147.787H614.647V148.3H613.618V148.813H612.588V149.326H611.559V149.839H610.529V150.353H608.985V150.866H607.955V151.379H606.926V151.892H605.896V152.405H604.867V152.918H603.837V153.431H602.808V153.945H601.778V154.458H600.748V154.971H599.719V155.484H598.689V155.997H597.66V156.51H596.63V157.023H595.601V157.537H594.571V158.05H593.541V158.563H593.027V159.076H591.997V159.589H590.968V160.102H589.938V160.616H588.908V161.129H587.879V161.642H587.364V162.155H586.335V162.668H585.305V163.181H584.275V163.694H583.246V164.208H582.216V164.721H581.702V165.234H580.672V165.747H579.642V166.26H579.128V166.773H578.098V167.286H577.069V167.8H576.554V168.313H575.524V168.826H575.009V169.339H573.98V169.852H572.95V170.365H572.435V170.878H571.406V171.392H570.376V171.905H569.862V172.418H568.832V172.931H568.317V173.444H567.288V173.957H566.258V174.471H565.743V174.984H564.714V175.497H564.199V176.01H563.169V176.523H562.655V177.036H561.625V177.549H561.11V178.063H560.081V178.576H559.566V179.089H558.536V179.602H558.022V180.115H556.992V180.628H556.477V181.141H555.963V181.655H554.933V182.168H554.418V182.681H553.389V183.194H552.874V183.707H551.844V184.22H551.33V184.733H550.3V185.247H549.785V185.76H549.27V186.273H548.241V186.786H547.726V187.299H546.696V187.812H546.182V188.326H545.667V188.839H544.637V189.352H544.123V189.865H543.608V190.378H543.093V190.891H542.063V191.404H541.549V191.918H541.034V192.431H540.004V192.944H539.49V193.457H538.975V193.97H537.945V194.483H537.43V194.996H536.916V195.51H536.401V196.023H535.371V196.536H534.857V197.049H534.342V197.562H533.312V198.075H532.797V198.589H532.283V199.102H531.253V199.615H530.738V200.128H530.224V200.641H529.709V201.154H529.194V201.667H528.679V202.181H527.65V202.694H527.135V203.207H526.62V203.72H526.105V204.233H525.591V204.746H525.076V205.259H524.046V205.773H523.531V206.286H523.017V206.799H522.502V207.312H521.987V207.825H521.472V208.338H520.443V208.851H519.928V209.365H519.413V209.878H518.898V210.391H518.384V210.904H517.869V211.417H516.839V211.93H516.324V212.444H515.81V212.957H515.295V213.47H514.78V213.983H514.265V214.496H513.751V215.009H513.236V215.522H512.721V216.036H512.206V216.549H511.691V217.062H511.177V217.575H510.662V218.088H510.147V218.601H509.632V219.114H509.118V219.628H508.088V220.141H507.573V220.654H507.058V221.167H506.544V221.68H506.029V222.193H505.514V222.706H504.999V223.22H504.485V223.733H503.97V224.246H503.455V224.759H502.94V225.272H502.425V225.785H501.911V226.299H501.396V226.812H500.881V227.325H500.366V227.838H499.852V228.351H499.337V228.864H498.822V229.377H498.307V229.891H497.792V230.404H497.278V230.917H496.763V231.43H496.248V231.943H495.733V232.969H495.218V233.483H494.704V233.996H494.189V234.509H493.674V235.022H493.159V235.535H492.645V236.048H492.13V236.561H491.615V237.075H491.1V237.588H490.585V238.101H490.071V238.614H489.556V239.127H489.041V239.64H488.526V240.154H488.012V240.667H487.497V241.693H486.982V242.206H486.467V242.719H485.952V243.232H485.438V243.746H484.923V244.772H484.408V245.285H483.893V245.798H483.379V246.311H482.864V246.824H482.349V247.338H481.834V248.364H481.319V248.877H480.805V249.39H480.29V249.903H479.775V250.417H479.26V251.443H478.746V251.956H478.231V252.469H477.716V252.982H477.201V253.495H476.686V254.009H476.172V255.035H475.657V255.548H475.142V256.061H474.627V256.574H474.112V257.601H473.598V258.114H473.083V258.627H472.568V259.653H472.053V260.166H471.539V260.679H471.024V261.706H470.509V262.219H469.994V262.732H469.479V263.758H468.965V264.272H468.45V264.785H467.935V265.811H467.42V266.324H466.906V266.837H466.391V267.864H465.876V268.377H465.361V268.89H464.846V269.916H464.332V270.429H463.817V270.942H463.302V271.969H462.787V272.482H462.273V273.508H461.758V274.021H461.243V275.048H460.728V275.561H460.213V276.587H459.699V277.1H459.184V278.127H458.669V278.64H458.154V279.666H457.639V280.179H457.125V281.205H456.61V281.719H456.095V282.745H455.58V283.258H455.066V284.284H454.551V284.797H454.036V285.824H453.521V286.337H453.007V287.363H452.492V287.876H451.977V288.903H451.462V289.929H450.947V290.442H450.433V291.468H449.918V292.495H449.403V293.521H448.888V294.034H448.374V295.06H447.859V296.087H447.344V297.113H446.829V297.626H446.314V298.652H445.8V299.679H445.285V300.705H444.77V301.218H444.255V302.245H443.74V303.271H443.226V304.297H442.711V304.81H442.196V305.837H441.681V306.863H441.167V307.889H440.652V308.915H440.137V309.942H439.622V310.968H439.107V311.994H438.593V313.021H438.078V314.56H437.563V315.586H437.048V316.613H436.534V317.639H436.019V318.665H435.504V319.692H434.989V320.718H434.474V321.744H433.96V322.77H433.445V323.797H432.93V325.336H432.415V326.362H431.901V327.902H431.386V328.928H430.871V330.468H430.356V331.494H429.841V332.52H429.327V334.06H428.812V335.086H428.297V336.625H427.782V337.652H427.268V339.191H426.753V340.218H426.238V341.757H425.723V343.296H425.208V344.836H424.694V346.375H424.179V347.915H423.664V349.454H423.149V351.507H422.634V353.046H422.12V354.586H421.605V356.125H421.09V357.665H420.575V359.204H420.061V361.257H419.546V363.309H419.031V365.875H418.516V367.928H418.001V369.98H417.487V372.033H416.972V374.085H416.457V376.138H415.942V379.217H415.428V382.296H414.913V385.888H414.398V388.967H413.883V392.045H413.368V395.638H412.854V401.795H412.339V409.493H411.824V434.124H412.339V438.742H412.854V443.874H413.368V448.492H413.883V453.11H414.398V455.676H414.913V457.729H415.428V460.294H415.942V462.86H416.457V465.426H416.972V467.991H417.487V470.557H418.001V472.61H418.516V474.662H419.031V476.202H419.546V478.254H420.061V479.794H420.575V481.846H421.09V483.386H421.605V485.439H422.12V486.978H422.634V488.517H423.149V490.057H423.664V491.083H424.179V492.109H424.694V493.136H425.208V494.675H425.723V495.188H426.238V496.215H426.753V497.241H427.268V498.267H427.782V499.294H428.297V500.32H428.812V501.346H429.327V502.372H429.841V503.399H430.356V504.425H430.871V504.938H431.386V505.964H431.901V506.991H432.415V507.504H432.93V508.53H433.445V509.557H433.96V510.07H434.474V511.096H434.989V512.122H435.504V513.149H436.019V513.662H436.534V514.688H437.048V515.714H437.563V516.227H438.078V517.254H438.593V517.767H439.107V518.793H439.622V519.306H440.137V520.333H440.652V520.846H441.167V521.872H441.681V522.385H442.196V523.412H442.711V523.925H443.226V524.951H443.74V525.464H444.255V526.49H444.77V527.004H445.285V528.03H445.8V528.543H446.314V529.569H446.829V530.082H447.344V530.596H447.859V531.622H448.374V532.135H448.888V532.648H449.403V533.674H449.918V534.188H450.433V534.701H450.947V535.727H451.462V536.24H451.977V536.753H452.492V537.78H453.007V538.293H453.521V538.806H454.036V539.832H454.551V540.345H455.066V540.859H455.58V541.372H456.095V541.885H456.61V542.398H457.125V543.424H457.639V543.937H458.154V544.451H458.669V544.964H459.184V545.477H459.699V546.503H460.213V547.016H460.728V547.529H461.243V548.043H461.758V548.556H462.273V549.069H462.787V550.095H463.302V550.608H463.817V551.122H464.332V551.635H464.846V552.148H465.361V552.661H465.876V553.174H466.391V553.687H466.906V554.2H467.42V554.714H467.935V555.227H468.45V555.74H468.965V556.253H469.479V556.766H469.994V557.279H470.509V557.792H471.024V558.306H471.539V558.819H472.053V559.332H472.568V560.358H473.598V560.871H474.112V561.385H474.627V561.898H475.142V562.411H475.657V562.924H476.172V563.437H476.686V563.95H477.201V564.463H477.716V564.977H478.231V565.49H478.746V566.003H479.26V566.516H479.775V567.029H480.29V567.542H481.319V568.055H481.834V568.569H482.349V569.082H482.864V569.595H483.379V570.108H483.893V570.621H484.408V571.134H485.438V571.647H485.952V572.161H486.467V572.674H486.982V573.187H487.497V573.7H488.526V574.213H489.041V574.726H489.556V575.24H490.071V575.753H490.585V576.266H491.615V576.779H492.13V577.292H492.645V577.805H493.159V578.318H494.189V578.832H494.704V579.345H495.218V579.858H496.248V580.371H496.763V580.884H497.278V581.397H498.307V581.91H498.822V582.424H499.337V582.937H500.366V583.45H500.881V583.963H501.396V584.476H502.425V584.989H502.94V585.502H503.455V586.016H504.485V586.529H504.999V587.042H506.029V587.555H506.544V588.068H507.573V588.581H508.088V589.095H509.118V589.608H509.632V590.121H510.662V590.634H511.177V591.147H512.206V591.66H512.721V592.173H513.751V592.687H514.265V593.2H515.295V593.713H516.324V594.226H516.839V594.739H517.869V595.252H518.898V595.765H519.413V596.279H520.443V596.792H521.472V597.305H522.502V597.818H523.017V598.331H524.046V598.844H525.076V599.357H525.591V599.871H526.62V600.384H527.65V600.897H528.679V601.41H529.709V601.923H530.738V602.436H531.253V602.95H532.283V603.463H533.312V603.976H534.342V604.489H535.371V605.002H536.401V605.515H537.43V606.028H538.46V606.542H539.49V607.055H540.519V607.568H541.549V608.081H542.578V608.594H543.608V609.107H545.152V609.62H546.182V610.134H547.211V610.647H548.241V611.16H549.27V611.673H550.3V612.186H551.33V612.699H552.874V613.213H553.903V613.726H555.448V614.239H556.477V614.752H558.022V615.265H559.051V615.778H560.081V616.291H561.625V616.805H562.655V617.318H564.199V617.831H565.229V618.344H566.773V618.857H568.317V619.37H569.862V619.883H571.406V620.397H572.435V620.91H573.98V621.423H575.524V621.936H577.069V622.449H578.613V622.962H580.157V623.475H581.702V623.989H583.246V624.502H584.79V625.015H586.335V625.528H588.394V626.041H589.938V626.554H591.482V627.068H593.541V627.581H595.086V628.094H597.145V628.607H599.204V629.12H600.748V629.633H602.808V630.146H604.867V630.66H606.926V631.173H608.985V631.686H611.044V632.199H613.103V632.712H615.677V633.225H617.736V633.738H619.795V634.252H622.369V634.765H624.943V635.278H627.517V635.791H630.606V636.304H633.18V636.817H635.753V637.33H638.842V637.844H641.931V638.357H645.019V638.87H648.108V639.383H651.712V639.896H655.83V640.409H659.433V640.923H663.552V641.436H667.67V641.949H672.818V642.462H677.451V642.975H683.113V643.488H689.805V644.001H696.497V644.515H705.764V645.028H717.604V645.541H771.141V645.028H785.04V644.515H795.335V644.001H803.572V643.488H811.294V642.975H818.5V642.462H824.678V641.949H831.37V641.436H837.032V640.923H842.18V640.409H847.843V639.896H852.476V639.383H857.624V638.87H862.257V638.357H866.89V637.844H871.523V637.33H875.641V636.817H879.759V636.304H883.878V635.791H887.996V635.278H892.114V634.765H895.717V634.252H899.836V633.738H903.439V633.225H907.043V632.712H910.646V632.199H914.249V631.686H917.853V631.173H921.456V630.66H925.06V630.146H928.149V629.633H931.752V629.12H934.841V628.607H938.444V628.094H941.533V627.581H945.136V627.068H948.225V626.554H951.314V626.041H954.402V625.528H957.491V625.015H960.58V624.502H963.668V623.989H966.757V623.475H969.846V622.962H972.42V622.449H975.508V621.936H978.597V621.423H981.686V620.91H984.26V620.397H987.348V619.883H989.922V619.37H993.011V618.857H996.099V618.344H998.673V617.831H1001.25V617.318H1004.34V616.805H1006.91V616.291H1009.48V615.778H1012.57V615.265H1015.15V614.752H1017.72V614.239H1020.81V613.726H1023.38V613.213H1025.96V612.699H1028.53V612.186H1031.1V611.673H1033.68V611.16H1036.25V610.647H1039.34V610.134H1041.91V609.62H1044.49V609.107H1047.06V608.594H1049.64V608.081H1052.21V607.568H1054.78V607.055H1056.84V606.542H1059.42V606.028H1061.99V605.515H1064.57V605.002H1067.14V604.489H1069.71V603.976H1072.29V603.463H1074.86V602.95H1076.92V602.436H1079.49V601.923H1082.07V601.41H1084.64V600.897H1087.22V600.384H1089.27V599.871H1091.85V599.357H1094.42V598.844H1096.48V598.331H1099.06V597.818H1101.63V597.305H1104.2V596.792H1106.26V596.279H1108.84V595.765H1111.41V595.252H1113.47V594.739H1116.04V594.226H1118.1V593.713H1120.68V593.2H1123.25V592.687H1125.31V592.173H1127.88V591.66H1129.94V591.147H1132.52V590.634H1135.09V590.121H1137.15V589.608H1139.72V589.095H1141.78V588.581H1144.36V588.068H1146.42V587.555H1148.99V587.042H1151.05V586.529H1153.62V586.016H1155.68V585.502H1158.26V584.989H1160.31V584.476H1162.89V583.963H1164.95V583.45H1167.52V582.937H1169.58V582.424H1172.15V581.91H1174.21V581.397H1176.79V580.884H1178.85V580.371H1181.42V579.858H1183.48V579.345H1186.05V578.832H1188.11V578.318H1190.69V577.805H1192.75V577.292H1194.8V576.779H1197.38V576.266H1199.44V575.753H1202.01V575.24H1204.07V574.726H1206.64V574.213H1208.7V573.7H1211.28V573.187H1213.34V572.674H1215.4V572.161H1217.97V571.647H1220.03V571.134H1222.6V570.621H1224.66V570.108H1227.24V569.595H1229.29V569.082H1231.87V568.569H1233.93V568.055H1235.99V567.542H1238.56V567.029H1240.62V566.516H1243.19V566.003H1245.25V565.49H1247.83V564.977H1249.89V564.463H1252.46V563.95H1254.52V563.437H1257.09V562.924H1259.15V562.411H1261.73V561.898H1263.79V561.385H1266.36V560.871H1268.42V560.358H1270.99V559.845H1273.05V559.332H1275.63V558.819H1277.68V558.306H1280.26V557.792H1282.32V557.279H1284.89V556.766H1286.95V556.253H1289.52V555.74H1291.58V555.227H1294.16V554.714H1296.22V554.2H1298.79V553.687H1301.36V553.174H1303.42V552.661H1306V552.148H1308.06V551.635H1310.63V551.122H1313.2V550.608H1315.26V550.095H1317.84V549.582H1320.41V549.069H1322.47V548.556H1325.04V548.043H1327.62V547.529H1329.68V547.016H1332.25V546.503H1334.82V545.99H1336.88V545.477H1339.46V544.964H1342.03V544.451H1344.61V543.937H1347.18V543.424H1349.24V542.911H1351.81V542.398H1354.39V541.885H1356.96V541.372H1359.53V540.859H1362.11V540.345H1364.68V539.832H1367.26V539.319H1369.83V538.806H1372.4V538.293H1374.98V537.78H1377.55V537.267H1380.13V536.753H1382.7V536.24H1385.27V535.727H1387.85V535.214H1390.94V534.701H1393.51V534.188H1396.08V533.674H1398.66V533.161H1401.75V532.648H1404.32V532.135H1406.89V531.622H1409.98V531.109H1412.56V530.596H1415.65V530.082H1418.22V529.569H1421.31V529.056H1424.4V528.543H1426.97V528.03H1428V529.056H1425.94V529.569H1424.4V530.082H1422.85V530.596H1420.79V531.109H1419.25V531.622H1417.19V532.135H1415.65V532.648H1414.1V533.161H1412.04V533.674H1410.5V534.188H1408.44V534.701H1406.89V535.214H1405.35V535.727H1403.29V536.24H1401.75V536.753H1399.69V537.267H1398.14V537.78H1396.08V538.293H1394.54V538.806H1392.99V539.319H1390.94V539.832H1389.39V540.345H1387.33V540.859H1385.79V541.372H1384.24V541.885H1382.18V542.398H1380.64V542.911H1378.58V543.424H1377.04V543.937H1374.98V544.451H1373.43V544.964H1371.89V545.477H1369.83V545.99H1368.29V546.503H1366.23V547.016H1364.68V547.529H1362.62V548.043H1361.08V548.556H1359.53V549.069H1357.48V549.582H1355.93V550.095H1353.87V550.608H1352.33V551.122H1350.27V551.635H1348.72V552.148H1347.18V552.661H1345.12V553.174H1343.58V553.687H1341.52V554.2H1339.97V554.714H1337.91V555.227H1336.37V555.74H1334.31V556.253H1332.77V556.766H1331.22V557.279H1329.16V557.792H1327.62V558.306H1325.56V558.819H1324.01V559.332H1321.96V559.845H1320.41V560.358H1318.35V560.871H1316.81V561.385H1315.26V561.898H1313.2V562.411H1311.66V562.924H1309.6V563.437H1308.06V563.95H1306V564.463H1304.45V564.977H1302.39V565.49H1300.85V566.003H1298.79V566.516H1297.25V567.029H1295.7V567.542H1293.64V568.055H1292.1V568.569H1290.04V569.082H1288.49V569.595H1286.44V570.108H1284.89V570.621H1282.83V571.134H1281.29V571.647H1279.23V572.161H1277.68V572.674H1275.63V573.187H1274.08V573.7H1272.54V574.213H1270.48V574.726H1268.93V575.24H1266.87V575.753H1265.33V576.266H1263.27V576.779H1261.73V577.292H1259.67V577.805H1258.12V578.318H1256.06V578.832H1254.52V579.345H1252.46V579.858H1250.92V580.371H1248.86V580.884H1247.31V581.397H1245.25V581.91H1243.71V582.424H1242.16V582.937H1240.11V583.45H1238.56V583.963H1236.5V584.476H1234.96V584.989H1232.9V585.502H1231.35V586.016H1229.29V586.529H1227.75V587.042H1225.69V587.555H1224.15V588.068H1222.09V588.581H1220.54V589.095H1218.48V589.608H1216.94V590.121H1214.88V590.634H1213.34V591.147H1211.28V591.66H1209.73V592.173H1207.67V592.687H1206.13V593.2H1204.07V593.713H1202.53V594.226H1200.47V594.739H1198.92V595.252H1196.86V595.765H1195.32V596.279H1193.26V596.792H1191.72V597.305H1189.66V597.818H1188.11V598.331H1186.05V598.844H1184.51V599.357H1182.45V599.871H1180.91V600.384H1178.85V600.897H1177.3V601.41H1175.24V601.923H1173.7V602.436H1171.64V602.95H1170.1V603.463H1168.04V603.976H1166.49V604.489H1164.43V605.002H1162.89V605.515H1160.83V606.028H1159.28V606.542H1157.23V607.055H1155.17V607.568H1153.62V608.081H1151.56V608.594H1150.02V609.107H1147.96V609.62H1146.42V610.134H1144.36V610.647H1142.81V611.16H1140.75V611.673H1139.21V612.186H1137.15V612.699H1135.6V613.213H1133.55V613.726H1132V614.239H1129.94V614.752H1128.4V615.265H1126.34V615.778H1124.28V616.291H1122.74V616.805H1120.68V617.318H1119.13V617.831H1117.07V618.344H1115.53V618.857H1113.47V619.37H1111.93V619.883H1109.87V620.397H1108.32V620.91H1106.26V621.423H1104.2V621.936H1102.66V622.449H1100.6V622.962H1099.06V623.475H1097V623.989H1095.45V624.502H1093.39V625.015H1091.85V625.528H1089.79V626.041H1087.73V626.554H1086.19V627.068H1084.13V627.581H1082.58V628.094H1080.52V628.607H1078.46V629.12H1076.92V629.633H1074.86V630.146H1073.32V630.66H1071.26V631.173H1069.71V631.686H1067.65V632.199H1065.59V632.712H1064.05V633.225H1061.99V633.738H1060.45V634.252H1058.39V634.765H1056.84V635.278H1054.78V635.791H1052.73V636.304H1051.18V636.817H1049.12V637.33H1047.58V637.844H1045.52V638.357H1043.46V638.87H1041.91V639.383H1039.86V639.896H1038.31V640.409H1036.25V640.923H1034.19V641.436H1032.65V641.949H1030.59V642.462H1028.53V642.975H1026.99V643.488H1024.93V644.001H1023.38V644.515H1021.32V645.028H1019.26V645.541H1017.72V646.054H1015.66V646.567H1013.6V647.08H1012.06V647.593H1010V648.107H1008.45V648.62H1006.4V649.133H1004.34V649.646H1002.79V650.159H1000.73V650.672H998.673V651.186H997.129V651.699H995.07V652.212H993.011V652.725H991.466V653.238H989.407V653.751H987.348V654.264H985.804V654.778H983.745V655.291H981.686V655.804H980.141V656.317H978.082V656.83H976.023V657.343H974.479V657.856H972.42V658.37H970.361V658.883H968.816V659.396H966.757V659.909H964.698V660.422H963.154V660.935H961.094V661.448H959.035V661.962H956.976V662.475H955.432V662.988H953.373V663.501H951.314V664.014H949.769V664.527H947.71V665.041H945.651V665.554H943.592V666.067H942.048V666.58H939.988V667.093H937.929V667.606H935.87V668.119H934.326V668.633H932.267V669.146H930.208V669.659H928.149V670.172H926.604V670.685H924.545V671.198H922.486V671.711H920.427V672.225H918.882V672.738H916.823V673.251H914.764V673.764H912.705V674.277H910.646V674.79H909.102V675.303H907.043V675.817H904.983V676.33H902.924V676.843H900.865V677.356H899.321V677.869H897.262V678.382H895.203V678.896H893.143V679.409H891.084V679.922H889.025V680.435H886.966V680.948H885.422V681.461H883.363V681.974H881.304V682.488H879.244V683.001H877.185V683.514H875.126V684.027H873.067V684.54H871.008V685.053H868.949V685.566H866.89V686.08H864.831V686.593H863.286V687.106H861.227V687.619H859.168V688.132H857.109V688.645H855.05V689.158H852.991V689.672H850.932V690.185H848.872V690.698H846.298V691.211H844.239V691.724H842.18V692.237H840.121V692.751H838.062V693.264H836.003V693.777H833.944V694.29H831.885V694.803H829.826V695.316H827.252V695.829H825.193V696.343H823.133V696.856H821.074V697.369H819.015V697.882H816.441V698.395H814.382V698.908H811.808V699.421H809.749V699.935H807.69V700.448H805.116V700.961H803.057V701.474H800.483V701.987H798.424V702.5H795.85V703.014H793.276V703.527H791.217V704.04H788.643V704.553H786.069V705.066H784.01V705.579H781.436V706.092H778.862V706.606H776.288V707.119H773.715V707.632H771.141V708.145H769.082V708.658H765.993V709.171H763.419V709.684H760.845V710.198H758.271V710.711H755.697V711.224H753.123V711.737H750.035V712.25H746.946V712.763H744.372V713.276H741.283V713.79H738.71V714.303H735.621V714.816H732.017V715.329H728.929V715.842H725.84V716.355H722.237V716.869H718.633V717.382H715.03V717.895H710.911V718.408H707.308V718.921H702.675V719.434H698.042V719.947H693.409V720.461H687.231V720.974H680.539V721.487H671.273V722H633.18ZM732.017 614.752V614.239H721.207V613.726H715.03V613.213H709.367V612.699H704.219V612.186H700.616V611.673H697.012V611.16H693.409V610.647H689.805V610.134H687.231V609.62H684.658V609.107H682.084V608.594H678.995V608.081H676.421V607.568H673.847V607.055H671.788V606.542H669.729V606.028H667.67V605.515H666.125V605.002H664.066V604.489H662.007V603.976H659.948V603.463H657.889V602.95H656.345V602.436H654.8V601.923H653.256V601.41H651.197V600.897H649.653V600.384H648.108V599.871H646.564V599.357H645.019V598.844H643.475V598.331H641.931V597.818H640.386V597.305H639.357V596.792H637.813V596.279H636.783V595.765H635.239V595.252H633.694V594.739H632.665V594.226H631.12V593.713H630.091V593.2H629.061V592.687H628.547V592.173H629.576V592.687H631.12V593.2H632.665V593.713H634.209V594.226H636.268V594.739H638.327V595.252H640.386V595.765H642.446V596.279H644.505V596.792H647.079V597.305H650.167V597.818H652.741V598.331H655.83V598.844H658.919V599.357H662.007V599.871H665.611V600.384H671.788V600.897H677.451V601.41H706.793V600.897H714V600.384H720.177V599.871H723.781V599.357H727.384V598.844H730.988V598.331H734.591V597.818H737.68V597.305H740.254V596.792H742.828V596.279H744.887V595.765H747.461V595.252H750.035V594.739H752.609V594.226H754.668V593.713H756.727V593.2H758.786V592.687H760.33V592.173H762.389V591.66H764.449V591.147H765.993V590.634H768.052V590.121H769.596V589.608H771.655V589.095H773.715V588.581H775.259V588.068H776.803V587.555H778.348V587.042H779.377V586.529H780.921V586.016H782.466V585.502H784.01V584.989H785.555V584.476H787.099V583.963H788.643V583.45H790.188V582.937H791.732V582.424H792.761V581.91H794.306V581.397H795.335V580.884H796.88V580.371H797.909V579.858H799.453V579.345H800.483V578.832H801.513V578.318H803.057V577.805H804.087V577.292H805.631V576.779H806.66V576.266H808.205V575.753H809.234V575.24H810.779V574.726H811.808V574.213H812.838V573.7H813.867V573.187H814.897V572.674H815.927V572.161H816.956V571.647H817.986V571.134H819.015V570.621H820.56V570.108H821.589V569.595H822.619V569.082H823.648V568.569H824.678V568.055H825.707V567.542H826.737V567.029H827.766V566.516H828.796V566.003H829.826V565.49H830.855V564.977H831.885V564.463H832.914V563.95H833.429V563.437H834.459V562.924H835.488V562.411H836.518V561.898H837.547V561.385H838.577V560.871H839.092V560.358H840.121V559.845H841.151V559.332H842.18V558.819H843.21V558.306H844.239V557.792H844.754V557.279H845.784V556.766H846.813V556.253H847.843V555.74H848.358V555.227H849.387V554.714H850.417V554.2H850.932V553.687H851.961V553.174H852.476V552.661H853.505V552.148H854.535V551.635H855.05V551.122H856.079V550.608H857.109V550.095H857.624V549.582H858.653V549.069H859.168V548.556H860.198V548.043H861.227V547.529H861.742V547.016H862.772V546.503H863.801V545.99H864.316V545.477H864.831V544.964H865.86V544.451H866.375V543.937H867.404V543.424H867.919V542.911H868.949V542.398H869.464V541.885H870.493V541.372H871.008V540.859H871.523V540.345H872.552V539.832H873.067V539.319H874.097V538.806H874.611V538.293H875.641V537.78H876.156V537.267H877.185V536.753H877.7V536.24H878.73V535.727H879.244V535.214H879.759V534.701H880.789V534.188H881.304V533.674H881.818V533.161H882.848V532.648H883.363V532.135H883.878V531.622H884.907V531.109H885.422V530.596H885.937V530.082H886.451V529.569H887.481V529.056H887.996V528.543H888.51V528.03H889.54V527.517H890.055V527.004H890.57V526.49H891.599V525.977H892.114V525.464H892.629V524.951H893.143V524.438H894.173V523.925H894.688V523.412H895.203V522.898H896.232V522.385H896.747V521.872H897.262V521.359H897.777V520.846H898.291V520.333H899.321V519.819H899.836V519.306H900.35V518.793H900.865V518.28H901.38V517.767H901.895V517.254H902.924V516.741H903.439V516.227H903.954V515.714H904.469V515.201H904.983V514.688H905.498V514.175H906.528V513.662H907.043V513.149H907.557V512.635H908.072V512.122H908.587V511.609H909.102V511.096H910.131V510.583H910.646V510.07H911.161V509.557H911.676V509.043H912.19V508.53H912.705V508.017H913.22V507.504H913.735V506.991H914.249V506.478H914.764V505.964H915.279V505.451H916.309V504.938H916.823V504.425H917.338V503.912H917.853V503.399H918.368V502.886H918.882V502.372H919.397V501.859H919.912V501.346H920.427V500.833H920.942V500.32H921.456V499.807H921.971V499.294H922.486V498.78H923.001V498.267H923.516V497.754H924.03V497.241H924.545V496.728H925.06V496.215H925.575V495.702H926.089V495.188H926.604V494.675H927.119V494.162H927.634V493.649H928.149V493.136H928.663V492.623H929.178V492.109H929.693V491.596H930.208V491.083H930.723V490.57H931.237V490.057H931.752V489.544H932.267V489.031H932.782V488.517H933.296V488.004H933.811V487.491H934.326V486.978H934.841V485.952H935.356V485.439H935.87V484.925H936.385V484.412H936.9V483.899H937.415V483.386H937.929V482.873H938.444V482.36H938.959V481.846H939.474V481.333H939.988V480.82H940.503V480.307H941.018V479.281H941.533V478.768H942.048V478.254H942.562V477.741H943.077V477.228H943.592V476.715H944.107V475.689H944.622V475.176H945.136V474.662H945.651V474.149H946.166V473.636H946.681V472.61H947.195V472.097H947.71V471.584H948.225V471.07H948.74V470.557H949.255V470.044H949.769V469.018H950.284V468.505H950.799V467.991H951.314V467.478H951.828V466.965H952.343V465.939H952.858V465.426H953.373V464.913H953.888V464.399H954.402V463.373H954.917V462.86H955.432V462.347H955.947V461.321H956.461V460.807H956.976V460.294H957.491V459.268H958.006V458.755H958.521V458.242H959.035V457.215H959.55V456.702H960.065V456.189H960.58V455.163H961.094V454.65H961.609V454.136H962.124V453.11H962.639V452.597H963.154V452.084H963.668V451.058H964.183V450.544H964.698V450.031H965.213V449.005H965.728V448.492H966.242V447.466H966.757V446.952H967.272V445.926H967.787V445.413H968.301V444.387H968.816V443.36H969.331V442.847H969.846V441.821H970.361V441.308H970.875V440.281H971.39V439.768H971.905V438.742H972.42V438.229H972.934V437.203H973.449V436.689H973.964V435.663H974.479V435.15H974.994V434.124H975.508V433.611H976.023V432.584H976.538V431.558H977.053V431.045H977.568V430.018H978.082V428.992H978.597V427.966H979.112V427.453H979.627V426.426H980.141V425.4H980.656V424.374H981.171V423.861H981.686V422.834H982.201V421.808H982.715V421.295H983.23V420.269H983.745V419.242H984.26V418.216H984.774V417.703H985.289V416.677H985.804V415.65H986.319V414.624H986.833V413.598H987.348V412.571H987.863V411.545H988.378V410.519H988.893V409.493H989.407V408.466H989.922V407.44H990.437V406.414H990.952V404.874H991.466V403.848H991.981V402.822H992.496V401.795H993.011V400.769H993.526V399.743H994.04V398.716H994.555V397.69H995.07V396.151H995.585V395.124H996.099V393.585H996.614V392.559H997.129V391.019H997.644V389.993H998.159V388.967H998.673V387.427H999.188V386.401H999.703V384.861H1000.22V383.835H1000.73V382.296H1001.25V381.269H1001.76V379.73H1002.28V378.19H1002.79V376.651H1003.31V375.112H1003.82V373.059H1004.34V371.52H1004.85V369.98H1005.37V368.441H1005.88V366.901H1006.4V365.362H1006.91V363.822H1007.42V361.77H1007.94V359.717H1008.45V357.665H1008.97V355.612H1009.48V353.559H1010V351.507H1010.51V348.941H1011.03V346.888H1011.54V344.836H1012.06V341.757H1012.57V338.678H1013.09V335.599H1013.6V332.007H1014.12V328.928H1014.63V325.336H1015.15V318.152H1015.66V310.968H1016.18V290.442H1015.66V283.771H1015.15V279.153H1014.63V274.534H1014.12V269.916H1013.6V266.837H1013.09V264.272H1012.57V261.706H1012.06V259.14H1011.54V256.574H1011.03V254.522H1010.51V251.956H1010V249.39H1009.48V247.851H1008.97V245.798H1008.45V244.259H1007.94V242.206H1007.42V240.667H1006.91V238.614H1006.4V237.075H1005.88V235.022H1005.37V233.483H1004.85V232.456H1004.34V230.917H1003.82V229.891H1003.31V228.351H1002.79V227.325H1002.28V226.299H1001.76V225.785H1001.25V224.759H1000.73V223.733H1000.22V222.706H999.703V221.68H999.188V220.654H998.673V219.628H998.159V218.601H997.644V217.575H997.129V217.062H996.614V216.036H996.099V215.009H995.585V214.496H995.07V213.47H994.555V212.444H994.04V211.417H993.526V210.904H993.011V209.878H992.496V208.851H991.981V208.338H991.466V207.312H990.952V206.286H990.437V205.773H989.922V204.746H989.407V203.72H988.893V203.207H988.378V202.181H987.863V201.667H987.348V200.641H986.833V200.128H986.319V199.102H985.804V198.589H985.289V197.562H984.774V197.049H984.26V196.023H983.745V195.51H983.23V194.483H982.715V193.97H982.201V192.944H981.686V192.431H981.171V191.918H980.656V190.891H980.141V190.378H979.627V189.865H979.112V189.352H978.597V188.326H978.082V187.812H977.568V187.299H977.053V186.273H976.538V185.76H976.023V185.247H975.508V184.22H974.994V183.707H974.479V183.194H973.964V182.168H973.449V181.655H972.934V181.141H972.42V180.628H971.905V179.602H971.39V179.089H970.875V178.576H970.361V178.063H969.846V177.549H969.331V177.036H968.816V176.01H968.301V175.497H967.787V174.984H967.272V174.471H966.757V173.957H966.242V173.444H965.728V172.418H965.213V171.905H964.698V171.392H964.183V170.878H963.668V170.365H963.154V169.852H962.639V169.339H962.124V168.826H961.609V168.313H961.094V167.8H960.58V167.286H960.065V166.773H959.55V166.26H959.035V165.747H958.521V164.721H958.006V164.208H957.491V163.694H956.976V163.181H956.461V162.668H955.947V162.155H955.432V161.642H954.917V161.129H954.402V160.616H953.888V160.102H953.373V159.589H952.858V159.076H951.828V158.563H951.314V158.05H950.799V157.537H950.284V157.023H949.769V156.51H949.255V155.997H948.74V155.484H948.225V154.971H947.71V154.458H947.195V153.945H946.681V153.431H946.166V152.918H945.651V152.405H944.622V151.892H944.107V151.379H943.592V150.866H943.077V150.353H942.562V149.839H941.533V149.326H941.018V148.813H940.503V148.3H939.988V147.787H939.474V147.274H938.444V146.76H937.929V146.247H937.415V145.734H936.9V145.221H936.385V144.708H935.356V144.195H934.841V143.682H934.326V143.168H933.811V142.655H932.782V142.142H932.267V141.629H931.752V141.116H930.723V140.603H930.208V140.09H929.693V139.576H928.663V139.063H928.149V138.55H927.119V138.037H926.604V137.524H926.089V137.011H925.06V136.498H924.545V135.984H924.03V135.471H923.001V134.958H922.486V134.445H921.456V133.932H920.942V133.419H919.912V132.905H919.397V132.392H918.368V131.879H917.853V131.366H916.823V130.853H916.309V130.34H915.279V129.827H914.764V129.313H913.735V128.8H913.22V128.287H912.19V127.774H911.161V127.261H910.646V126.748H909.617V126.235H908.587V125.721H907.557V125.208H907.043V124.695H906.013V124.182H904.983V123.669H904.469V123.156H903.439V122.643H902.41V122.129H901.895V121.616H900.865V121.103H899.836V120.59H898.806V120.077H897.777V119.564H896.747V119.05H895.717V118.537H894.688V118.024H894.173V117.511H893.143V116.998H892.114V116.485H891.084V115.972H890.055V115.458H889.025V114.945H887.996V114.432H886.966V113.919H885.937V113.406H884.392V112.893H883.363V112.38H882.333V111.866H881.304V111.353H880.274V110.84H879.244V110.327H878.215V109.814H876.671V109.301H875.641V108.788H874.611V108.274H873.067V107.761H872.037V107.248H870.493V106.735H869.464V106.222H867.919V105.709H866.89V105.195H865.86V104.682H864.316V104.169H863.286V103.656H861.742V103.143H860.198V102.63H858.653V102.117H857.624V101.603H856.079V101.09H854.535V100.577H852.991V100.064H851.446V99.5508H850.417V99.0377H848.872V98.5245H846.813V98.0114H845.269V97.4982H843.725V96.9851H842.18V96.4719H840.636V95.9588H839.092V95.4456H837.032V94.9325H835.488V94.4194H833.429V93.9062H831.885V93.3931H829.826V92.8799H827.766V92.3668H826.222V91.8536H824.163V91.3405H822.104V90.8273H820.045V90.3142H817.986V89.801H815.412V89.2879H813.353V88.7747H811.294V88.2615H809.234V87.7484H806.66V87.2352H804.087V86.7221H801.513V86.2089H798.939V85.6958H796.365V85.1827H793.791V84.6695H790.702V84.1564H787.614V83.6432H784.525V83.1301H780.921V82.6169H777.833V82.1038H774.229V81.5906H770.111V81.0775H766.508V80.5643H762.389V80.0512H757.756V79.538H752.609V79.0249H747.461V78.5118H741.283V77.9986H734.591V77.4855H726.87V76.9723H717.089V76.4592H701.131V75.946H665.096V76.4592H648.623V76.9723H637.813V77.4855H628.032V77.9986H620.31V78.5118H612.588V79.0249H606.411V79.538H599.719V80.0512H594.056V80.5643H588.394V81.0775H583.246V81.5906H577.583V82.1038H572.95V82.6169H568.317V83.1301H563.684V83.6432H558.536V84.1564H554.418V84.6695H550.3V85.1827H546.182V85.6958H542.063V86.2089H537.945V86.7221H533.827V87.2352H530.224V87.7484H526.105V88.2615H522.502V88.7747H518.898V89.2879H515.295V89.801H511.691V90.3142H508.088V90.8273H504.485V91.3405H501.396V91.8536H497.792V92.3668H494.704V92.8799H491.1V93.3931H488.012V93.9062H484.408V94.4194H481.319V94.9325H478.231V95.4456H475.142V95.9588H472.053V96.4719H468.965V96.9851H465.876V97.4982H462.787V98.0114H459.699V98.5245H456.61V99.0377H454.036V99.5508H450.947V100.064H447.859V100.577H444.77V101.09H442.196V101.603H439.107V102.117H436.534V102.63H433.445V103.143H430.871V103.656H427.782V104.169H425.208V104.682H422.12V105.195H419.546V105.709H416.972V106.222H413.883V106.735H411.309V107.248H408.735V107.761H406.162V108.274H403.588V108.788H400.499V109.301H397.925V109.814H395.351V110.327H392.777V110.84H390.203V111.353H387.629V111.866H385.056V112.38H382.482V112.893H379.908V113.406H377.334V113.919H374.76V114.432H372.186V114.945H369.612V115.458H367.038V115.972H364.464V116.485H361.89V116.998H359.317V117.511H356.743V118.024H354.684V118.537H352.11V119.05H349.536V119.564H346.962V120.077H344.388V120.59H342.329V121.103H339.755V121.616H337.181V122.129H334.607V122.643H332.548V123.156H329.974V123.669H327.4V124.182H325.341V124.695H322.767V125.208H320.193V125.721H318.134V126.235H315.56V126.748H312.986V127.261H310.927V127.774H308.353V128.287H306.294V128.8H303.72V129.313H301.146V129.827H299.087V130.34H296.513V130.853H294.454V131.366H291.88V131.879H289.306V132.392H287.247V132.905H284.673V133.419H282.614V133.932H280.04V134.445H277.981V134.958H275.407V135.471H273.348V135.984H270.774V136.498H268.715V137.011H266.141V137.524H264.082V138.037H261.508V138.55H259.449V139.063H256.875V139.576H254.816V140.09H252.242V140.603H250.183V141.116H247.609V141.629H245.55V142.142H242.976V142.655H240.917V143.168H238.858V143.682H236.284V144.195H234.225V144.708H231.651V145.221H229.592V145.734H227.018V146.247H224.959V146.76H222.385V147.274H220.326V147.787H217.752V148.3H215.693V148.813H213.634V149.326H211.06V149.839H209.001V150.353H206.427V150.866H204.368V151.379H201.794V151.892H199.735V152.405H197.161V152.918H195.102V153.431H193.043V153.945H190.469V154.458H188.41V154.971H185.836V155.484H183.777V155.997H181.203V156.51H179.143V157.023H176.57V157.537H174.51V158.05H171.937V158.563H169.877V159.076H167.304V159.589H165.244V160.102H163.185V160.616H160.611V161.129H158.552V161.642H155.978V162.155H153.919V162.668H151.345V163.181H149.286V163.694H146.712V164.208H144.138V164.721H142.079V165.234H139.505V165.747H137.446V166.26H134.872V166.773H132.813V167.286H130.239V167.8H128.18V168.313H125.606V168.826H123.032V169.339H120.973V169.852H118.399V170.365H116.34V170.878H113.766V171.392H111.193V171.905H109.133V172.418H106.559V172.931H103.986V173.444H101.926V173.957H99.3526V174.471H96.7787V174.984H94.2048V175.497H92.1457V176.01H89.5717V176.523H86.9978V177.036H84.9387V177.549H82.3648V178.063H79.7909V178.576H77.217V179.089H74.6431V179.602H72.0692V180.115H69.4953V180.628H67.4362V181.141H64.8623V181.655H62.2884V182.168H59.7145V182.681H57.1406V183.194H54.5667V183.707H51.9928V184.22H49.4189V184.733H46.3302V185.247H43.7563V185.76H41.1824V186.273H38.6085V186.786H36.0346V187.299H33.4607V187.812H30.372V188.326H27.7981V188.839H24.7094V189.352H22.1355V189.865H19.5616V190.378H16.473V190.891H13.8991V191.404H10.8104V191.918H8.23648V192.431H5.1478V192.944H2.05912V193.457H0V192.944H1.02956V192.431H2.5739V191.918H4.63302V191.404H6.17736V190.891H7.7217V190.378H9.78082V189.865H11.3252V189.352H13.3843V188.839H14.9286V188.326H16.473V187.812H18.5321V187.299H20.0764V186.786H22.1355V186.273H23.6799V185.76H25.2242V185.247H27.2833V184.733H28.8277V184.22H30.8868V183.707H32.4311V183.194H33.9755V182.681H36.0346V182.168H37.5789V181.655H39.6381V181.141H41.1824V180.628H43.2415V180.115H44.7859V179.602H46.3302V179.089H48.3893V178.576H49.9337V178.063H51.9928V177.549H53.5371V177.036H55.5963V176.523H57.1406V176.01H58.6849V175.497H60.7441V174.984H62.2884V174.471H64.3475V173.957H65.8919V173.444H67.951V172.931H69.4953V172.418H71.0397V171.905H73.0988V171.392H74.6431V170.878H76.7022V170.365H78.2466V169.852H80.3057V169.339H81.85V168.826H83.3944V168.313H85.4535V167.8H86.9978V167.286H89.057V166.773H90.6013V166.26H92.6604V165.747H94.2048V165.234H96.2639V164.721H97.8082V164.208H99.3526V163.694H101.412V163.181H102.956V162.668H105.015V162.155H106.559V161.642H108.619V161.129H110.163V160.616H112.222V160.102H113.766V159.589H115.311V159.076H117.37V158.563H118.914V158.05H120.973V157.537H122.518V157.023H124.577V156.51H126.121V155.997H128.18V155.484H129.725V154.971H131.784V154.458H133.328V153.945H134.872V153.431H136.932V152.918H138.476V152.405H140.535V151.892H142.079V151.379H144.138V150.866H145.683V150.353H147.742V149.839H149.286V149.326H151.345V148.813H152.89V148.3H154.949V147.787H156.493V147.274H158.038V146.76H160.097V146.247H161.641V145.734H163.7V145.221H165.244V144.708H167.304V144.195H168.848V143.682H170.907V143.168H172.451V142.655H174.51V142.142H176.055V141.629H178.114V141.116H179.658V140.603H181.717V140.09H183.262V139.576H185.321V139.063H186.865V138.55H188.924V138.037H190.469V137.524H192.528V137.011H194.072V136.498H195.616V135.984H197.676V135.471H199.22V134.958H201.279V134.445H202.823V133.932H204.882V133.419H206.427V132.905H208.486V132.392H210.03V131.879H212.089V131.366H213.634V130.853H215.693V130.34H217.237V129.827H219.296V129.313H220.841V128.8H222.9V128.287H224.444V127.774H226.503V127.261H228.048V126.748H230.107V126.235H231.651V125.721H233.71V125.208H235.255V124.695H237.314V124.182H238.858V123.669H240.917V123.156H242.461V122.643H244.521V122.129H246.065V121.616H248.124V121.103H249.668V120.59H251.727V120.077H253.272V119.564H255.331V119.05H256.875V118.537H258.934V118.024H260.479V117.511H262.538V116.998H264.597V116.485H266.141V115.972H268.2V115.458H269.745V114.945H271.804V114.432H273.348V113.919H275.407V113.406H276.952V112.893H279.011V112.38H280.555V111.866H282.614V111.353H284.159V110.84H286.218V110.327H287.762V109.814H289.821V109.301H291.366V108.788H293.425V108.274H294.969V107.761H297.028V107.248H299.087V106.735H300.632V106.222H302.691V105.709H304.235V105.195H306.294V104.682H307.839V104.169H309.898V103.656H311.442V103.143H313.501V102.63H315.045V102.117H317.105V101.603H319.164V101.09H320.708V100.577H322.767V100.064H324.311V99.5508H326.371V99.0377H327.915V98.5245H329.974V98.0114H331.518V97.4982H333.578V96.9851H335.637V96.4719H337.181V95.9588H339.24V95.4456H340.784V94.9325H342.844V94.4194H344.388V93.9062H346.447V93.3931H348.506V92.8799H350.051V92.3668H352.11V91.8536H353.654V91.3405H355.713V90.8273H357.257V90.3142H359.317V89.801H361.376V89.2879H362.92V88.7747H364.979V88.2615H366.523V87.7484H368.583V87.2352H370.642V86.7221H372.186V86.2089H374.245V85.6958H375.789V85.1827H377.849V84.6695H379.393V84.1564H381.452V83.6432H383.511V83.1301H385.056V82.6169H387.115V82.1038H388.659V81.5906H390.718V81.0775H392.777V80.5643H394.322V80.0512H396.381V79.538H398.44V79.0249H399.984V78.5118H402.043V77.9986H403.588V77.4855H405.647V76.9723H407.706V76.4592H409.25V75.946H411.309V75.4328H413.368V74.9197H414.913V74.4065H416.972V73.8934H418.516V73.3802H420.575V72.8671H422.634V72.3539H424.179V71.8408H426.238V71.3276H428.297V70.8145H429.841V70.3014H431.901V69.7882H433.96V69.2751H435.504V68.7619H437.563V68.2488H439.622V67.7356H441.167V67.2225H443.226V66.7094H445.285V66.1962H446.829V65.683H448.888V65.1699H450.947V64.6567H452.492V64.1436H454.551V63.6304H456.61V63.1173H458.154V62.6042H460.213V62.0909H462.273V61.5778H463.817V61.0647H465.876V60.5515H467.935V60.0384H469.994V59.5252H471.539V59.0121H473.598V58.499H475.657V57.9858H477.201V57.4727H479.26V56.9595H481.319V56.4464H483.379V55.9332H484.923V55.42H486.982V54.9069H489.041V54.3937H490.585V53.8806H492.645V53.3675H494.704V52.8543H496.763V52.3412H498.822V51.828H500.366V51.3149H502.425V50.8018H504.485V50.2885H506.544V49.7754H508.088V49.2623H510.147V48.7491H512.206V48.236H514.265V47.7228H515.81V47.2097H517.869V46.6965H519.928V46.1834H521.987V45.6702H524.046V45.1571H526.105V44.644H527.65V44.1308H529.709V43.6176H531.768V43.1045H533.827V42.5913H535.886V42.0782H537.945V41.5651H539.49V41.0519H541.549V40.5388H543.608V40.0256H545.667V39.5125H547.726V38.9993H549.785V38.4861H551.844V37.973H553.903V37.4599H555.963V36.9467H557.507V36.4335H559.566V35.9204H561.625V35.4073H563.684V34.8941H565.743V34.381H567.802V33.8679H569.862V33.3547H571.921V32.8416H573.98V32.3284H576.039V31.8152H578.098V31.3021H580.157V30.7889H582.216V30.2758H584.275V29.7626H586.849V29.2495H588.908V28.7364H590.968V28.2233H593.027V27.71H595.086V27.1969H597.145V26.6837H599.204V26.1705H601.778V25.6574H603.837V25.1443H605.896V24.6312H607.955V24.118H610.014V23.6049H612.588V23.0917H614.647V22.5786H617.221V22.0654H619.281V21.5522H621.34V21.0391H623.914V20.526H625.973V20.0128H628.547V19.4996H631.12V18.9865H633.18V18.4734H635.753V17.9603H637.813V17.447H640.386V16.9339H642.96V16.4208H645.534V15.9077H647.593V15.3945H650.167V14.8813H652.741V14.3682H655.315V13.855H657.889V13.3419H660.463V12.8287H663.037V12.3156H665.611V11.8024H668.185V11.2893H670.759V10.7761H673.847V10.263H676.421V9.74988H679.51V9.23669H682.084V8.72357H685.172V8.21039H687.746V7.69727H690.835V7.18414H693.924V6.6709H697.527V6.15778H700.616V5.64465H703.704V5.13153H707.308V4.61841H710.911V4.10516H715.03V3.59204H718.633V3.07892H722.751V2.5658H727.384V2.05267H732.532V1.53943H737.165V1.02631H743.857V0.513184H750.549V0H798.424V0.513184H805.631V1.02631H811.294V1.53943H815.412V2.05267H820.045V2.5658H824.163V3.07892H827.252V3.59204H830.855V4.10516H833.944V4.61841H837.032V5.13153H839.606V5.64465H842.18V6.15778H844.754V6.6709H847.328V7.18414H849.902V7.69727H852.476V8.21039H854.535V8.72357H857.109V9.23669H859.168V9.74988H861.227V10.263H863.286V10.7761H865.345V11.2893H867.404V11.8024H869.464V12.3156H871.008V12.8287H873.067V13.3419H874.611V13.855H876.671V14.3682H878.215V14.8813H879.759V15.3945H881.304V15.9077H882.848V16.4208H884.392V16.9339H885.937V17.447H887.481V17.9603H889.025V18.4734H890.57V18.9865H892.114V19.4996H893.143V20.0128H894.688V20.526H896.232V21.0391H897.777V21.5522H898.806V22.0654H900.35V22.5786H901.38V23.0917H902.924V23.6049H903.954V24.118H905.498V24.6312H907.043V25.1443H908.072V25.6574H909.102V26.1705H910.646V26.6837H911.676V27.1969H912.705V27.71H914.249V28.2233H915.279V28.7364H916.823V29.2495H917.853V29.7626H918.882V30.2758H919.912V30.7889H920.942V31.3021H922.486V31.8152H923.516V32.3284H924.545V32.8416H925.575V33.3547H926.604V33.8679H928.149V34.381H929.178V34.8941H930.208V35.4073H931.237V35.9204H932.267V36.4335H933.296V36.9467H934.326V37.4599H935.356V37.973H936.385V38.4861H937.415V38.9993H938.444V39.5125H939.474V40.0256H940.503V40.5388H941.533V41.0519H942.562V41.5651H943.592V42.0782H944.622V42.5913H945.136V43.1045H946.166V43.6176H947.195V44.1308H948.225V44.644H949.255V45.1571H950.284V45.6702H951.314V46.1834H951.828V46.6965H952.858V47.2097H953.888V47.7228H954.917V48.236H955.947V48.7491H956.461V49.2623H957.491V49.7754H958.521V50.2885H959.035V50.8018H960.065V51.3149H961.094V51.828H962.124V52.3412H962.639V52.8543H963.668V53.3675H964.698V53.8806H965.213V54.3937H966.242V54.9069H967.272V55.42H967.787V55.9332H968.816V56.4464H969.331V56.9595H970.361V57.4727H971.39V57.9858H971.905V58.499H972.934V59.0121H973.449V59.5252H974.479V60.0384H975.508V60.5515H976.023V61.0647H977.053V61.5778H977.568V62.0909H978.597V62.6042H979.112V63.1173H980.141V63.6304H980.656V64.1436H981.686V64.6567H982.201V65.1699H983.23V65.683H983.745V66.1962H984.774V66.7094H985.289V67.2225H985.804V67.7356H986.833V68.2488H987.348V68.7619H988.378V69.2751H988.893V69.7882H989.922V70.3014H990.437V70.8145H991.466V71.3276H991.981V71.8408H992.496V72.3539H993.526V72.8671H994.04V73.3802H994.555V73.8934H995.585V74.4065H996.099V74.9197H996.614V75.4328H997.644V75.946H998.159V76.4592H998.673V76.9723H999.703V77.4855H1000.22V77.9986H1000.73V78.5118H1001.76V79.0249H1002.28V79.538H1002.79V80.0512H1003.82V80.5643H1004.34V81.0775H1004.85V81.5906H1005.37V82.1038H1006.4V82.6169H1006.91V83.1301H1007.42V83.6432H1007.94V84.1564H1008.97V84.6695H1009.48V85.1827H1010V85.6958H1010.51V86.2089H1011.03V86.7221H1012.06V87.2352H1012.57V87.7484H1013.09V88.2615H1013.6V88.7747H1014.63V89.2879H1015.15V89.801H1015.66V90.3142H1016.18V90.8273H1016.69V91.3405H1017.21V91.8536H1018.24V92.3668H1018.75V92.8799H1019.26V93.3931H1019.78V93.9062H1020.29V94.4194H1020.81V94.9325H1021.32V95.4456H1021.84V95.9588H1022.35V96.4719H1023.38V96.9851H1023.9V97.4982H1024.41V98.0114H1024.93V98.5245H1025.44V99.0377H1025.96V99.5508H1026.47V100.064H1026.99V100.577H1027.5V101.09H1028.02V101.603H1028.53V102.117H1029.05V102.63H1030.08V103.143H1030.59V103.656H1031.1V104.169H1031.62V104.682H1032.13V105.195H1032.65V105.709H1033.16V106.222H1033.68V106.735H1034.19V107.248H1034.71V107.761H1035.22V108.274H1035.74V108.788H1036.25V109.301H1036.77V109.814H1037.28V110.327H1037.8V110.84H1038.31V111.353H1038.83V111.866H1039.34V112.38H1039.86V112.893H1040.37V113.919H1040.89V114.432H1041.4V114.945H1041.91V115.458H1042.43V115.972H1042.94V116.485H1043.46V116.998H1043.97V117.511H1044.49V118.024H1045V118.537H1045.52V119.564H1046.03V120.077H1046.55V120.59H1047.06V121.103H1047.58V121.616H1048.09V122.129H1048.61V122.643H1049.12V123.156H1049.64V123.669H1050.15V124.695H1050.67V125.208H1051.18V125.721H1051.7V126.235H1052.21V126.748H1052.73V127.774H1053.24V128.287H1053.76V128.8H1054.27V129.313H1054.78V130.34H1055.3V130.853H1055.81V131.366H1056.33V131.879H1056.84V132.392H1057.36V133.419H1057.87V133.932H1058.39V134.445H1058.9V134.958H1059.42V135.984H1059.93V136.498H1060.45V137.011H1060.96V138.037H1061.48V138.55H1061.99V139.063H1062.51V140.09H1063.02V140.603H1063.54V141.116H1064.05V142.142H1064.57V142.655H1065.08V143.682H1065.59V144.195H1066.11V144.708H1066.62V145.734H1067.14V146.247H1067.65V147.274H1068.17V147.787H1068.68V148.3H1069.2V149.326H1069.71V149.839H1070.23V150.866H1070.74V151.379H1071.26V152.405H1071.77V152.918H1072.29V153.945H1072.8V154.971H1073.32V155.484H1073.83V156.51H1074.35V157.023H1074.86V158.05H1075.38V159.076H1075.89V159.589H1076.41V160.616H1076.92V161.129H1077.43V162.155H1077.95V162.668H1078.46V163.694H1078.98V164.721H1079.49V165.747H1080.01V166.773H1080.52V167.286H1081.04V168.313H1081.55V169.339H1082.07V170.365H1082.58V171.392H1083.1V172.418H1083.61V172.931H1084.13V173.957H1084.64V174.984H1085.16V176.01H1085.67V177.036H1086.19V178.063H1086.7V178.576H1087.22V180.115H1087.73V181.141H1088.25V182.168H1088.76V183.194H1089.27V184.22H1089.79V185.76H1090.3V186.786H1090.82V187.812H1091.33V188.839H1091.85V189.865H1092.36V190.891H1092.88V192.431H1093.39V193.457H1093.91V194.483H1094.42V196.023H1094.94V197.562H1095.45V198.589H1095.97V200.128H1096.48V201.667H1097V202.694H1097.51V204.233H1098.03V205.773H1098.54V206.799H1099.06V208.338H1099.57V209.878H1100.09V211.417H1100.6V212.957H1101.11V214.496H1101.63V216.549H1102.14V218.088H1102.66V220.141H1103.17V221.68H1103.69V223.22H1104.2V225.272H1104.72V226.812H1105.23V229.377H1105.75V231.43H1106.26V233.996H1106.78V236.561H1107.29V238.614H1107.81V241.18H1108.32V243.746H1108.84V246.824H1109.35V250.417H1109.87V254.009H1110.38V258.114H1110.9V261.706H1111.41V267.864H1111.93V276.587H1112.44V304.81H1111.93V310.455H1111.41V316.613H1110.9V322.257H1110.38V326.362H1109.87V329.955H1109.35V333.033H1108.84V336.112H1108.32V339.191H1107.81V342.783H1107.29V345.862H1106.78V348.428H1106.26V350.48H1105.75V352.533H1105.23V355.099H1104.72V357.151H1104.2V359.204H1103.69V361.77H1103.17V363.822H1102.66V366.388H1102.14V368.441H1101.63V369.98H1101.11V372.033H1100.6V373.572H1100.09V375.112H1099.57V377.164H1099.06V378.704H1098.54V380.756H1098.03V382.296H1097.51V383.835H1097V385.888H1096.48V387.427H1095.97V388.967H1095.45V391.019H1094.94V392.559H1094.42V394.098H1093.91V395.124H1093.39V396.664H1092.88V398.203H1092.36V399.743H1091.85V401.282H1091.33V402.822H1090.82V403.848H1090.3V405.387H1089.79V406.927H1089.27V408.466H1088.76V410.006H1088.25V411.032H1087.73V412.571H1087.22V413.598H1086.7V415.137H1086.19V416.163H1085.67V417.703H1085.16V418.729H1084.64V420.269H1084.13V421.295H1083.61V422.321H1083.1V423.348H1082.58V424.887H1082.07V425.913H1081.55V426.94H1081.04V427.966H1080.52V428.992H1080.01V430.532H1079.49V431.558H1078.98V432.071H1078.46V433.097H1077.95V434.124H1077.43V435.15H1076.92V436.176H1076.41V437.203H1075.89V438.229H1075.38V439.255H1074.86V440.281H1074.35V441.308H1073.83V442.334H1073.32V442.847H1072.8V443.874H1072.29V444.9H1071.77V445.926H1071.26V446.439H1070.74V447.466H1070.23V448.492H1069.71V449.005H1069.2V450.031H1068.68V451.058H1068.17V451.571H1067.65V452.597H1067.14V453.11H1066.62V454.136H1066.11V455.163H1065.59V455.676H1065.08V456.702H1064.57V457.729H1064.05V458.242H1063.54V459.268H1063.02V459.781H1062.51V460.294H1061.99V461.321H1061.48V461.834H1060.96V462.86H1060.45V463.373H1059.93V464.399H1059.42V464.913H1058.9V465.426H1058.39V466.452H1057.87V466.965H1057.36V467.991H1056.84V468.505H1056.33V469.531H1055.81V470.044H1055.3V470.557H1054.78V471.584H1054.27V472.097H1053.76V472.61H1053.24V473.636H1052.73V474.149H1052.21V474.662H1051.7V475.176H1051.18V476.202H1050.67V476.715H1050.15V477.228H1049.64V477.741H1049.12V478.768H1048.61V479.281H1048.09V479.794H1047.58V480.307H1047.06V481.333H1046.55V481.846H1046.03V482.36H1045.52V482.873H1045V483.899H1044.49V484.412H1043.97V484.925H1043.46V485.439H1042.94V485.952H1042.43V486.465H1041.91V486.978H1041.4V487.491H1040.89V488.517H1040.37V489.031H1039.86V489.544H1039.34V490.057H1038.83V490.57H1038.31V491.083H1037.8V491.596H1037.28V492.109H1036.77V493.136H1036.25V493.649H1035.74V494.162H1035.22V494.675H1034.71V495.188H1034.19V495.702H1033.68V496.215H1033.16V496.728H1032.65V497.241H1032.13V497.754H1031.62V498.267H1031.1V498.78H1030.59V499.294H1030.08V499.807H1029.56V500.32H1029.05V500.833H1028.53V501.346H1028.02V501.859H1027.5V502.372H1026.99V502.886H1026.47V503.399H1025.96V503.912H1025.44V504.425H1024.93V504.938H1024.41V505.451H1023.9V505.964H1023.38V506.478H1022.87V506.991H1022.35V507.504H1021.84V508.017H1021.32V508.53H1020.81V509.043H1020.29V509.557H1019.78V510.07H1019.26V510.583H1018.75V511.096H1017.72V511.609H1017.21V512.122H1016.69V512.635H1016.18V513.149H1015.66V513.662H1015.15V514.175H1014.63V514.688H1014.12V515.201H1013.6V515.714H1013.09V516.227H1012.06V516.741H1011.54V517.254H1011.03V517.767H1010.51V518.28H1010V518.793H1009.48V519.306H1008.97V519.819H1007.94V520.333H1007.42V520.846H1006.91V521.359H1006.4V521.872H1005.37V522.385H1004.85V522.898H1004.34V523.412H1003.82V523.925H1003.31V524.438H1002.28V524.951H1001.76V525.464H1001.25V525.977H1000.73V526.49H999.703V527.004H999.188V527.517H998.673V528.03H998.159V528.543H997.644V529.056H996.614V529.569H996.099V530.082H995.585V530.596H994.555V531.109H994.04V531.622H993.526V532.135H992.496V532.648H991.981V533.161H991.466V533.674H990.437V534.188H989.922V534.701H989.407V535.214H988.378V535.727H987.863V536.24H986.833V536.753H986.319V537.267H985.804V537.78H984.774V538.293H984.26V538.806H983.745V539.319H982.715V539.832H982.201V540.345H981.171V540.859H980.656V541.372H979.627V541.885H979.112V542.398H978.082V542.911H977.568V543.424H976.538V543.937H976.023V544.451H974.994V544.964H974.479V545.477H973.449V545.99H972.934V546.503H971.905V547.016H971.39V547.529H970.361V548.043H969.846V548.556H969.331V549.069H968.301V549.582H967.272V550.095H966.757V550.608H965.728V551.122H964.698V551.635H964.183V552.148H963.154V552.661H962.124V553.174H961.609V553.687H960.58V554.2H959.55V554.714H959.035V555.227H958.006V555.74H957.491V556.253H956.461V556.766H955.432V557.279H954.917V557.792H953.888V558.306H952.858V558.819H951.828V559.332H950.799V559.845H950.284V560.358H949.255V560.871H948.225V561.385H947.195V561.898H946.166V562.411H945.651V562.924H944.622V563.437H943.592V563.95H942.562V564.463H941.533V564.977H941.018V565.49H939.988V566.003H938.959V566.516H937.929V567.029H936.9V567.542H935.87V568.055H934.841V568.569H933.811V569.082H932.782V569.595H931.752V570.108H930.723V570.621H929.693V571.134H928.663V571.647H927.634V572.161H926.604V572.674H925.575V573.187H924.545V573.7H923.516V574.213H921.971V574.726H920.942V575.24H919.912V575.753H918.882V576.266H917.338V576.779H916.309V577.292H915.279V577.805H914.249V578.318H913.22V578.832H911.676V579.345H910.646V579.858H909.617V580.371H908.587V580.884H907.043V581.397H906.013V581.91H904.469V582.424H903.439V582.937H901.895V583.45H900.865V583.963H899.321V584.476H898.291V584.989H896.747V585.502H895.717V586.016H894.173V586.529H893.143V587.042H891.599V587.555H890.57V588.068H889.025V588.581H887.481V589.095H885.937V589.608H884.392V590.121H882.848V590.634H881.818V591.147H880.274V591.66H878.73V592.173H877.185V592.687H875.641V593.2H874.097V593.713H872.552V594.226H871.008V594.739H869.464V595.252H867.404V595.765H865.86V596.279H864.316V596.792H862.772V597.305H861.227V597.818H859.168V598.331H857.624V598.844H855.565V599.357H853.505V599.871H851.961V600.384H849.902V600.897H847.843V601.41H845.784V601.923H844.239V602.436H842.18V602.95H840.121V603.463H837.547V603.976H835.488V604.489H832.914V605.002H830.855V605.515H828.281V606.028H826.222V606.542H823.648V607.055H821.074V607.568H817.986V608.081H815.412V608.594H812.323V609.107H809.749V609.62H806.66V610.134H803.057V610.647H798.939V611.16H795.335V611.673H791.732V612.186H787.099V612.699H781.436V613.213H776.288V613.726H769.082V614.239H759.301V614.752" fill="#ECF2F7"/>
</svg>
