<svg width="277" height="69" viewBox="0 0 277 69" fill="none" xmlns="http://www.w3.org/2000/svg">
<g clip-path="url(#clip0_4082_1362)">
<mask id="mask0_4082_1362" style="mask-type:luminance" maskUnits="userSpaceOnUse" x="0" y="0" width="136" height="69">
<path d="M40.1658 46.979C33.2538 27.4414 58.5523 6.88959 75.7422 12.3571C61.2551 6.1464 38.3415 14.3465 32.4348 29.2512C22.4924 54.34 44.5586 65.5791 53.2175 67.8625C60.8529 69.8764 67.0848 68.9862 76.1639 66.9747C90.5759 63.7823 135.374 50.5104 135.374 50.5104C103.152 56.1082 53.4132 74.538 40.1658 46.979ZM0 18.4889C0 18.4889 44.798 5.21693 59.2102 2.02454C68.2888 0.0131302 74.5211 -0.877136 82.1566 1.13673C90.8155 3.42023 112.882 14.6593 102.939 39.7479C97.0322 54.6529 74.1185 62.8529 59.6318 56.6421C76.8213 62.1091 102.12 41.5577 95.2079 22.0203C81.9609 -5.53923 32.2219 12.891 0 18.4889Z" fill="white"/>
</mask>
<g mask="url(#mask0_4082_1362)">
<path d="M60.0296 68.9985V68.9495H59.3463V68.9005H58.7119V68.8515H58.2726V68.8024H57.8334V68.7534H57.3941V68.7044H57.1013V68.6554H56.7597V68.6064H56.4669V68.5573H56.174V68.5083H55.8812V68.4593H55.6372V68.4103H55.3932V68.3612H55.1491V68.3122H54.9051V68.2632H54.6611V68.2142H54.4171V68.1651H54.2219V68.1161H54.0266V68.0671H53.8314V68.0181H53.5874V67.9691H53.3922V67.92H53.2458V67.871H53.0505V67.822H52.8553V67.773H52.7089V67.7239H52.5137V67.6749H52.3673V67.6259H52.2209V67.5769H52.0745V67.5278H51.8792V67.4788H51.7328V67.4298H51.5864V67.3808H51.44V67.3318H51.2936V67.2827H51.1472V67.2337H51.0008V67.1847H50.9031V67.1357H50.7567V67.0866H50.6103V67.0376H50.4639V66.9886H50.3175V66.9396H50.2199V66.8905H50.0735V66.8415H49.9759V66.7925H49.8294V66.7435H49.7318V66.6945H49.5854V66.6454H49.439V66.5964H49.3414V66.5474H49.2438V66.4984H49.0974V66.4493H48.9998V66.4003H48.9022V66.3513H48.7557V66.3023H48.6581V66.2532H48.5117V66.2042H48.4141V66.1552H48.3165V66.1062H48.2189V66.0572H48.0725V66.0081H47.9749V65.9591H47.8773V65.9101H47.7797V65.8611H47.682V65.812H47.5844V65.763H47.438V65.714H47.3404V65.665H47.2428V65.6159H47.1452V65.5669H47.0476V65.5179H46.95V65.4689H46.8524V65.4199H46.7548V65.3708H46.6571V65.3218H46.5595V65.2728H46.4619V65.2238H46.3643V65.1747H46.2667V65.1257H46.1691V65.0767H46.0715V65.0277H45.9739V64.9786H45.8763V64.9296H45.7787V64.8806H45.6811V64.8316H45.6323V64.7825H45.5346V64.7335H45.437V64.6845H45.3394V64.6355H45.2418V64.5865H45.1442V64.5374H45.0466V64.4884H44.9978V64.4394H44.9002V64.3904H44.8026V64.3413H44.705V64.2923H44.6562V64.2433H44.5586V64.1943H44.4609V64.1452H44.4121V64.0962H44.3145V64.0472H44.2169V63.9982H44.1193V63.9492H44.0705V63.9001H43.9729V63.8511H43.8753V63.8021H43.8265V63.7531H43.7289V63.704H43.6313V63.655H43.5825V63.606H43.4849V63.557H43.436V63.508H43.3384V63.4589H43.2408V63.4099H43.192V63.3609H43.0944V63.3119H43.0456V63.2628H42.948V63.2138H42.8504V63.1648H42.8016V63.1158H42.704V63.0667H42.6552V63.0177H42.5576V62.9687H42.5088V62.9197H42.4112V62.8706H42.3624V62.8216H42.2647V62.7726H42.2159V62.7236H42.1183V62.6746H42.0695V62.6255H42.0207V62.5765H41.9231V62.5275H41.8743V62.4785H41.7767V62.4294H41.7279V62.3804H41.6303V62.3314H41.5815V62.2824H41.4839V62.2333H41.4351V62.1843H41.3375V62.1353H41.2886V62.0863H41.2398V62.0373H41.1422V61.9882H41.0934V61.9392H41.0446V61.8902H40.947V61.8412H40.8982V61.7921H40.8494V61.7431H40.7518V61.6941H40.703V61.6451H40.6542V61.596H40.5566V61.547H40.5078V61.498H40.459V61.449H40.3614V61.4H40.3126V61.3509H40.2638V61.3019H40.1661V61.2529H40.1173V61.2039H40.0685V61.1548H40.0197V61.1058H39.9709V61.0568H39.8733V61.0078H39.8245V60.9587H39.7757V60.9097H39.7269V60.8607H39.6293V60.8117H39.5805V60.7627H39.5317V60.7136H39.4829V60.6646H39.4341V60.6156H39.3365V60.5666H39.2877V60.5175H39.2389V60.4685H39.1901V60.4195H39.0924V60.3705H39.0436V60.3215H38.9948V60.2724H38.946V60.2234H38.8972V60.1744H38.8484V60.1254H38.7996V60.0763H38.702V60.0273H38.6532V59.9783H38.6044V59.9293H38.5556V59.8802H38.5068V59.8312H38.458V59.7822H38.4092V59.7332H38.3604V59.6841H38.3116V59.6351H38.214V59.5861H38.1652V59.5371H38.1164V59.4881H38.0675V59.439H38.0187V59.39H37.9699V59.341H37.9211V59.292H37.8723V59.2429H37.8235V59.1939H37.7747V59.1449H37.7259V59.0959H37.6771V59.0469H37.6283V58.9978H37.5795V58.9488H37.5307V58.8998H37.4819V58.8508H37.4331V58.8017H37.3843V58.7527H37.3355V58.7037H37.2867V58.6547H37.2379V58.6056H37.1891V58.5566H37.1403V58.5076H37.0915V58.4586H37.0427V58.4095H36.9938V58.3605H36.945V58.3115H36.8962V58.2625H36.8474V58.2135H36.7986V58.1644H36.7498V58.1154H36.701V58.0664H36.6522V58.0174H36.6034V57.9683H36.5546V57.9193H36.5058V57.8703H36.457V57.8213H36.4082V57.7232H36.3594V57.6742H36.3106V57.6252H36.2618V57.5762H36.213V57.5271H36.1642V57.4781H36.1154V57.4291H36.0666V57.3801H36.0178V57.331H35.969V57.282H35.9201V57.233H35.8713V57.1349H35.8225V57.0859H35.7737V57.0369H35.7249V56.9879H35.6761V56.9389H35.6273V56.8408H35.5785V56.7918H35.5297V56.7428H35.4809V56.6937H35.4321V56.5957H35.3833V56.5467H35.3345V56.4977H35.2857V56.4486H35.2369V56.3996H35.1881V56.3016H35.1393V56.2525H35.0905V56.2035H35.0417V56.1545H34.9929V56.0564H34.9441V56.0074H34.8953V55.9584H34.8464V55.9094H34.7976V55.8113H34.7488V55.7623H34.7V55.6643H34.6512V55.6152H34.6024V55.5662H34.5536V55.4682H34.5048V55.4191H34.456V55.3701H34.4072V55.2721H34.3584V55.223H34.3096V55.125H34.2608V55.076H34.212V55.027H34.1632V54.9289H34.1144V54.8799H34.0656V54.7818H34.0168V54.7328H33.968V54.6838H33.9192V54.5857H33.8704V54.5367H33.8216V54.4387H33.7727V54.3406H33.7239V54.2916H33.6751V54.1936H33.6263V54.1445H33.5775V54.0465H33.5287V53.9484H33.4799V53.8994H33.4311V53.8014H33.3823V53.7524H33.3335V53.6543H33.2847V53.6053H33.2359V53.5072H33.1871V53.4092H33.1383V53.3602H33.0895V53.2621H33.0407V53.1641H32.9919V53.066H32.9431V53.017H32.8943V52.919H32.8455V52.8209H32.7967V52.7229H32.7479V52.6248H32.699V52.5268H32.6502V52.4778H32.6014V52.3797H32.5526V52.2817H32.5038V52.1836H32.455V52.0856H32.4062V51.9875H32.3574V51.8895H32.3086V51.7914H32.2598V51.6934H32.211V51.5953H32.1622V51.4973H32.1134V51.3992H32.0646V51.2522H32.0158V51.1541H31.967V51.0561H31.9182V50.958H31.8694V50.86H31.8206V50.7129H31.7718V50.6149H31.723V50.5168H31.6742V50.4188H31.6253V50.2717H31.5765V50.1737H31.5277V50.0266H31.4789V49.8795H31.4301V49.7815H31.3813V49.6344H31.3325V49.4873H31.2837V49.3893H31.2349V49.2422H31.1861V49.0952H31.1373V48.9971H31.0885V48.85H31.0397V48.654H30.9909V48.5069H30.9421V48.3108H30.8933V48.1637H30.8445V48.0167H30.7957V47.8206H30.7469V47.6735H30.6981V47.4774H30.6493V47.3303H30.6005V47.1342H30.5516V46.8891H30.5028V46.644H30.454V46.4479H30.4052V46.2028H30.3564V45.9577H30.3076V45.7616H30.2588V45.4675H30.21V45.1243H30.1612V44.7811H30.1124V44.3889H30.0636V44.0458H30.0148V43.5556H29.966V42.7222H29.9172V39.7318H29.966V39.1925H30.0148V38.6042H30.0636V38.065H30.1124V37.7218H30.1612V37.4277H30.21V37.0845H30.2588V36.7904H30.3076V36.4962H30.3564V36.1531H30.4052V35.8589H30.454V35.6628H30.5028V35.4667H30.5516V35.2216H30.6005V35.0255H30.6493V34.8294H30.6981V34.5843H30.7469V34.3882H30.7957V34.1431H30.8445V33.947H30.8933V33.7509H30.9421V33.5548H30.9909V33.4078H31.0397V33.2607H31.0885V33.0646H31.1373V32.9175H31.1861V32.7705H31.2349V32.5744H31.2837V32.4273H31.3325V32.2802H31.3813V32.0842H31.4301V31.9371H31.4789V31.79H31.5277V31.5939H31.5765V31.4469H31.6253V31.2998H31.6742V31.1527H31.723V31.0547H31.7718V30.9076H31.8206V30.7605H31.8694V30.6135H31.9182V30.4664H31.967V30.3683H32.0158V30.2213H32.0646V30.0742H32.1134V29.9271H32.1622V29.7801H32.211V29.682H32.2598V29.535H32.3086V29.4369H32.3574V29.2898H32.4062V29.1918H32.455V29.0447H32.5038V28.9467H32.5526V28.7996H32.6014V28.7016H32.6502V28.6035H32.699V28.5055H32.7479V28.3584H32.7967V28.2604H32.8455V28.1623H32.8943V28.0643H32.9431V27.9662H32.9919V27.8191H33.0407V27.7701H33.0895V27.6721H33.1383V27.574H33.1871V27.476H33.2359V27.3779H33.2847V27.2799H33.3335V27.1818H33.3823V27.0838H33.4311V26.9858H33.4799V26.8877H33.5287V26.8387H33.5775V26.7406H33.6263V26.6426H33.6751V26.5445H33.7239V26.4465H33.7727V26.3485H33.8216V26.2994H33.8704V26.2014H33.9192V26.1524H33.968V26.0543H34.0168V25.9563H34.0656V25.9072H34.1144V25.8092H34.1632V25.7112H34.212V25.6621H34.2608V25.5641H34.3096V25.466H34.3584V25.417H34.4072V25.319H34.456V25.2699H34.5048V25.1719H34.5536V25.1229H34.6024V25.0248H34.6512V24.9758H34.7V24.8778H34.7488V24.8287H34.7976V24.7307H34.8464V24.6817H34.8953V24.6326H34.9441V24.5346H34.9929V24.4856H35.0417V24.3875H35.0905V24.3385H35.1393V24.2895H35.1881V24.1914H35.2369V24.1424H35.2857V24.0444H35.3345V23.9953H35.3833V23.9463H35.4321V23.8483H35.4809V23.7993H35.5297V23.7502H35.5785V23.6522H35.6273V23.6032H35.6761V23.5541H35.7249V23.5051H35.7737V23.4071H35.8225V23.358H35.8713V23.309H35.9201V23.26H35.969V23.162H36.0178V23.1129H36.0666V23.0639H36.1154V23.0149H36.1642V22.9168H36.213V22.8678H36.2618V22.8188H36.3106V22.7698H36.3594V22.7207H36.4082V22.6227H36.457V22.5737H36.5058V22.5247H36.5546V22.4756H36.6034V22.4266H36.6522V22.3776H36.701V22.3286H36.7498V22.2795H36.7986V22.1815H36.8474V22.1325H36.8962V22.0834H36.945V22.0344H36.9938V21.9854H37.0427V21.9364H37.0915V21.8874H37.1403V21.8383H37.1891V21.7403H37.2379V21.6913H37.2867V21.6422H37.3355V21.5932H37.3843V21.5442H37.4331V21.4952H37.4819V21.4461H37.5307V21.3971H37.5795V21.3481H37.6283V21.2991H37.6771V21.2501H37.7259V21.201H37.7747V21.152H37.8235V21.103H37.8723V21.054H37.9211V21.0049H37.9699V20.9559H38.0187V20.9069H38.0675V20.8579H38.1164V20.8088H38.1652V20.7598H38.214V20.7108H38.2628V20.6618H38.3116V20.6128H38.3604V20.5637H38.4092V20.5147H38.458V20.4657H38.5068V20.4167H38.5556V20.3676H38.6044V20.3186H38.6532V20.2696H38.7508V20.2206H38.7996V20.1715H38.8484V20.1225H38.8972V20.0735H38.946V20.0245H38.9948V19.9755H39.0436V19.9264H39.0924V19.8774H39.1412V19.8284H39.2389V19.7794H39.2877V19.7303H39.3365V19.6813H39.3853V19.6323H39.4341V19.5833H39.4829V19.5342H39.5317V19.4852H39.5805V19.4362H39.6293V19.3872H39.7269V19.3382H39.7757V19.2891H39.8245V19.2401H39.8733V19.1911H39.9221V19.1421H40.0197V19.093H40.0685V19.044H40.1173V18.995H40.1661V18.946H40.2638V18.8969H40.3126V18.8479H40.3614V18.7989H40.4102V18.7499H40.459V18.7009H40.5566V18.6518H40.6054V18.6028H40.6542V18.5538H40.703V18.5048H40.8006V18.4557H40.8494V18.4067H40.8982V18.3577H40.947V18.3087H41.0446V18.2596H41.0934V18.2106H41.191V18.1616H41.2398V18.1126H41.2886V18.0636H41.3863V18.0145H41.4351V17.9655H41.4839V17.9165H41.5815V17.8675H41.6303V17.8184H41.6791V17.7694H41.7767V17.7204H41.8255V17.6714H41.8743V17.6223H41.9719V17.5733H42.0207V17.5243H42.0695V17.4753H42.1671V17.4263H42.2159V17.3772H42.3135V17.3282H42.3624V17.2792H42.46V17.2302H42.5088V17.1811H42.6064V17.1321H42.6552V17.0831H42.7528V17.0341H42.8016V16.985H42.8992V16.936H42.948V16.887H43.0456V16.838H43.0944V16.789H43.192V16.7399H43.2408V16.6909H43.3384V16.6419H43.3872V16.5929H43.4849V16.5438H43.5337V16.4948H43.6313V16.4458H43.6801V16.3968H43.7777V16.3477H43.8753V16.2987H43.9241V16.2497H44.0217V16.2007H44.1193V16.1517H44.1681V16.1026H44.2657V16.0536H44.3633V16.0046H44.4121V15.9556H44.5097V15.9065H44.5586V15.8575H44.6562V15.8085H44.7538V15.7595H44.8026V15.7104H44.9002V15.6614H44.9978V15.6124H45.0954V15.5634H45.1442V15.5144H45.2418V15.4653H45.3394V15.4163H45.437V15.3673H45.5346V15.3183H45.6323V15.2692H45.6811V15.2202H45.7787V15.1712H45.8763V15.1222H45.9739V15.0731H46.0715V15.0241H46.1203V14.9751H46.2179V14.9261H46.3155V14.8771H46.4131V14.828H46.5107V14.779H46.6083V14.73H46.706V14.681H46.8036V14.6319H46.9012V14.5829H46.9988V14.5339H47.0964V14.4849H47.194V14.4358H47.2916V14.3868H47.3892V14.3378H47.4868V14.2888H47.5844V14.2398H47.682V14.1907H47.7797V14.1417H47.8773V14.0927H48.0237V14.0437H48.1213V13.9946H48.2189V13.9456H48.3165V13.8966H48.4141V13.8476H48.5605V13.7985H48.6581V13.7495H48.7557V13.7005H48.8534V13.6515H48.9998V13.6025H49.0974V13.5534H49.195V13.5044H49.2926V13.4554H49.439V13.4064H49.5366V13.3573H49.683V13.3083H49.7806V13.2593H49.9271V13.2103H50.0247V13.1612H50.1711V13.1122H50.2687V13.0632H50.4151V13.0142H50.5127V12.9652H50.6591V12.9161H50.7567V12.8671H50.9031V12.8181H51.0496V12.7691H51.196V12.72H51.2936V12.671H51.44V12.622H51.5864V12.573H51.7328V12.5239H51.8792V12.4749H51.9768V12.4259H52.1233V12.3769H52.2697V12.3279H52.4161V12.2788H52.5625V12.2298H52.7089V12.1808H52.9041V12.1318H53.0505V12.0827H53.197V12.0337H53.3434V11.9847H53.4898V11.9357H53.685V11.8866H53.8314V11.8376H53.9778V11.7886H54.173V11.7396H54.3683V11.6906H54.5147V11.6415H54.7099V11.5925H54.9051V11.5435H55.1003V11.4945H55.2467V11.4454H55.442V11.3964H55.6372V11.3474H55.8324V11.2984H56.0764V11.2493H56.2716V11.2003H56.5157V11.1513H56.7109V11.1023H56.9549V11.0533H57.1501V11.0042H57.3941V10.9552H57.687V10.9062H57.931V10.8572H58.2238V10.8081H58.4678V10.7591H58.7607V10.7101H59.1023V10.6611H59.4439V10.612H59.7856V10.563H60.1272V10.514H60.5176V10.465H61.0057V10.416H61.5425V10.3669H62.0306V10.3179H62.9579V10.2689H65.2517V10.2199H65.3005V10.2689H66.5694V10.3179H67.3015V10.3669H67.8383V10.416H68.3752V10.465H68.7656V10.514H69.1072V10.563H69.4489V10.612H69.7905V10.6611H70.0833V10.7101H70.3274V10.7591H70.6202V10.8081H70.8642V10.8572H71.1082V10.9062H71.3522V10.9552H71.5963V11.0042H71.7427V11.0533H71.9379V11.1023H72.1331V11.1513H72.3283V11.2003H72.5236V11.2493H72.7188V11.2984H72.914V11.3474H73.0604V11.3964H73.2068V11.4454H73.402V11.4945H73.5485V11.5435H73.6949V11.5925H73.8413V11.6415H73.9877V11.6906H74.1341V11.7396H74.2805V11.7886H74.4269V11.8376H74.5733V11.8866H74.7198V11.9357H74.8174V11.9847H74.9638V12.0337H75.1102V12.0827H75.2078V12.1318H75.3542V12.1808H75.4518V12.2298H75.5982V12.2788H75.6959V12.3279H75.7447V12.3769H75.647V12.3279H75.4518V12.2788H75.3054V12.2298H75.1102V12.1808H74.915V12.1318H74.7198V12.0827H74.5245V12.0337H74.3293V11.9847H74.1341V11.9357H73.8901V11.8866H73.5973V11.8376H73.3044V11.7886H73.0604V11.7396H72.7676V11.6906H72.4748V11.6415H71.9867V11.5925H71.4011V11.5435H70.8642V11.4945H68.7168V11.5435H68.0335V11.5925H67.3015V11.6415H66.9598V11.6906H66.6182V11.7396H66.2766V11.7886H65.9349V11.8376H65.5933V11.8866H65.3005V11.9357H65.1053V11.9847H64.8612V12.0337H64.6172V12.0827H64.3732V12.1318H64.178V12.1808H63.934V12.2298H63.6899V12.2788H63.5435V12.3279H63.3483V12.3769H63.2019V12.4259H63.0067V12.4749H62.8115V12.5239H62.665V12.573H62.4698V12.622H62.3234V12.671H62.1282V12.72H61.9818V12.7691H61.8354V12.8181H61.6889V12.8671H61.5425V12.9161H61.3961V12.9652H61.2497V13.0142H61.1033V13.0632H60.9569V13.1122H60.8105V13.1612H60.6641V13.2103H60.5664V13.2593H60.42V13.3083H60.2736V13.3573H60.1272V13.4064H60.0296V13.4554H59.8832V13.5044H59.7856V13.5534H59.6392V13.6025H59.5415V13.6515H59.4439V13.7005H59.2975V13.7495H59.1999V13.7985H59.0535V13.8476H58.9559V13.8966H58.8095V13.9456H58.7119V13.9946H58.5655V14.0437H58.4678V14.0927H58.3702V14.1417H58.2726V14.1907H58.175V14.2398H58.0774V14.2888H57.9798V14.3378H57.8822V14.3868H57.7358V14.4358H57.6382V14.4849H57.5406V14.5339H57.443V14.5829H57.3453V14.6319H57.2477V14.681H57.1501V14.73H57.0525V14.779H56.9549V14.828H56.8573V14.8771H56.7597V14.9261H56.6621V14.9751H56.5645V15.0241H56.4669V15.0731H56.3693V15.1222H56.2716V15.1712H56.2228V15.2202H56.1252V15.2692H56.0276V15.3183H55.93V15.3673H55.8324V15.4163H55.7348V15.4653H55.686V15.5144H55.5884V15.5634H55.4908V15.6124H55.3932V15.6614H55.2956V15.7104H55.1979V15.7595H55.1491V15.8085H55.0515V15.8575H54.9539V15.9065H54.9051V15.9556H54.8075V16.0046H54.7099V16.0536H54.6611V16.1026H54.5635V16.1517H54.5147V16.2007H54.4171V16.2497H54.3195V16.2987H54.2707V16.3477H54.173V16.3968H54.0754V16.4458H54.0266V16.4948H53.929V16.5438H53.8802V16.5929H53.7826V16.6419H53.685V16.6909H53.6362V16.7399H53.5386V16.789H53.4898V16.838H53.3922V16.887H53.3434V16.936H53.2458V16.985H53.197V17.0341H53.0993V17.0831H53.0505V17.1321H52.9529V17.1811H52.9041V17.2302H52.8065V17.2792H52.7577V17.3282H52.7089V17.3772H52.6113V17.4263H52.5625V17.4753H52.4649V17.5243H52.4161V17.5733H52.3185V17.6223H52.2697V17.6714H52.1721V17.7204H52.1233V17.7694H52.0745V17.8184H51.9768V17.8675H51.928V17.9165H51.8304V17.9655H51.7816V18.0145H51.7328V18.0636H51.6352V18.1126H51.5864V18.1616H51.5376V18.2106H51.4888V18.2596H51.3912V18.3087H51.3424V18.3577H51.2936V18.4067H51.196V18.4557H51.1472V18.5048H51.0984V18.5538H51.0008V18.6028H50.9519V18.6518H50.9031V18.7009H50.8543V18.7499H50.7567V18.7989H50.7079V18.8479H50.6591V18.8969H50.5615V18.946H50.5127V18.995H50.4639V19.044H50.3663V19.093H50.3175V19.1421H50.2687V19.1911H50.2199V19.2401H50.1711V19.2891H50.1223V19.3382H50.0247V19.3872H49.9759V19.4362H49.9271V19.4852H49.8783V19.5342H49.8294V19.5833H49.7806V19.6323H49.683V19.6813H49.6342V19.7303H49.5854V19.7794H49.5366V19.8284H49.4878V19.8774H49.439V19.9264H49.3414V19.9755H49.2926V20.0245H49.2438V20.0735H49.195V20.1225H49.1462V20.1715H49.0974V20.2206H48.9998V20.2696H48.951V20.3186H48.9022V20.3676H48.8534V20.4167H48.8046V20.4657H48.7557V20.5147H48.7069V20.5637H48.6581V20.6128H48.6093V20.6618H48.5605V20.7108H48.5117V20.7598H48.4629V20.8088H48.4141V20.8579H48.3653V20.9069H48.3165V20.9559H48.2677V21.0049H48.1701V21.054H48.1213V21.103H48.0725V21.152H48.0237V21.201H47.9749V21.2501H47.9261V21.2991H47.8773V21.3481H47.8285V21.3971H47.7797V21.4461H47.7308V21.4952H47.682V21.5442H47.6332V21.5932H47.5844V21.6422H47.5356V21.6913H47.4868V21.7403H47.438V21.7893H47.3892V21.8383H47.3404V21.8874H47.2916V21.9364H47.2428V21.9854H47.194V22.0344H47.1452V22.0834H47.0964V22.1325H47.0476V22.1815H46.9988V22.2795H46.95V22.3286H46.9012V22.3776H46.8524V22.4266H46.8036V22.4756H46.7548V22.5247H46.706V22.5737H46.6571V22.6227H46.6083V22.6717H46.5595V22.7207H46.5107V22.7698H46.4619V22.8188H46.4131V22.8678H46.3643V22.9168H46.3155V22.9659H46.2667V23.0149H46.2179V23.1129H46.1691V23.162H46.1203V23.211H46.0715V23.26H46.0227V23.309H45.9739V23.4071H45.9251V23.4561H45.8763V23.5051H45.8275V23.5541H45.7787V23.6032H45.7299V23.6522H45.6811V23.7502H45.6323V23.7993H45.5835V23.8483H45.5346V23.8973H45.4858V23.9463H45.437V24.0444H45.3882V24.0934H45.3394V24.1424H45.2906V24.1914H45.2418V24.2405H45.193V24.2895H45.1442V24.3875H45.0954V24.4366H45.0466V24.4856H44.9978V24.5346H44.949V24.6326H44.9002V24.6817H44.8514V24.7307H44.8026V24.8287H44.7538V24.8778H44.705V24.9268H44.6562V25.0248H44.6074V25.0739H44.5586V25.1229H44.5097V25.2209H44.4609V25.2699H44.4121V25.319H44.3633V25.417H44.3145V25.466H44.2657V25.5151H44.2169V25.6131H44.1681V25.6621H44.1193V25.7112H44.0705V25.8092H44.0217V25.8582H43.9729V25.9072H43.9241V26.0053H43.8753V26.0543H43.8265V26.1524H43.7777V26.2014H43.7289V26.2994H43.6801V26.3485H43.6313V26.4465H43.5825V26.4955H43.5337V26.5936H43.4849V26.6426H43.436V26.7406H43.3872V26.7897H43.3384V26.8877H43.2896V26.9367H43.2408V27.0348H43.192V27.0838H43.1432V27.1818H43.0944V27.2309H43.0456V27.3289H42.9968V27.3779H42.948V27.476H42.8992V27.525H42.8504V27.6231H42.8016V27.7211H42.7528V27.7701H42.704V27.8682H42.6552V27.9662H42.6064V28.0643H42.5576V28.1133H42.5088V28.2113H42.46V28.3094H42.4112V28.4074H42.3624V28.4564H42.3135V28.5545H42.2647V28.6525H42.2159V28.7506H42.1671V28.7996H42.1183V28.8977H42.0695V28.9957H42.0207V29.0937H41.9719V29.1428H41.9231V29.2408H41.8743V29.3389H41.8255V29.4369H41.7767V29.535H41.7279V29.633H41.6791V29.731H41.6303V29.8291H41.5815V29.9271H41.5327V30.0742H41.4839V30.1723H41.4351V30.2703H41.3863V30.3683H41.3375V30.4664H41.2886V30.5644H41.2398V30.6625H41.191V30.7605H41.1422V30.8586H41.0934V30.9566H41.0446V31.1037H40.9958V31.2017H40.947V31.3488H40.8982V31.4469H40.8494V31.5939H40.8006V31.692H40.7518V31.79H40.703V31.9371H40.6542V32.0351H40.6054V32.1822H40.5566V32.2802H40.5078V32.4273H40.459V32.5254H40.4102V32.6724H40.3614V32.8195H40.3126V32.9666H40.2638V33.1136H40.2149V33.2607H40.1661V33.4078H40.1173V33.6039H40.0685V33.7509H40.0197V33.898H39.9709V34.0451H39.9221V34.1921H39.8733V34.3392H39.8245V34.5353H39.7757V34.7314H39.7269V34.9765H39.6781V35.1726H39.6293V35.3687H39.5805V35.5648H39.5317V35.7609H39.4829V35.957H39.4341V36.2511H39.3853V36.5453H39.3365V36.8884H39.2877V37.1826H39.2389V37.4767H39.1901V37.8199H39.1412V38.4081H39.0924V39.1435H39.0436V41.4966H39.0924V41.9378H39.1412V42.428H39.1901V42.8692H39.2389V43.3104H39.2877V43.5556H39.3365V43.7516H39.3853V43.9968H39.4341V44.2419H39.4829V44.487H39.5317V44.7321H39.5805V44.9772H39.6293V45.1733H39.6781V45.3694H39.7269V45.5165H39.7757V45.7126H39.8245V45.8596H39.8733V46.0557H39.9221V46.2028H39.9709V46.3989H40.0197V46.546H40.0685V46.693H40.1173V46.8401H40.1661V46.9381H40.2149V47.0362H40.2638V47.1342H40.3126V47.2813H40.3614V47.3303H40.4102V47.4284H40.459V47.5264H40.5078V47.6245H40.5566V47.7225H40.6054V47.8206H40.6542V47.9186H40.703V48.0167H40.7518V48.1147H40.8006V48.2127H40.8494V48.2618H40.8982V48.3598H40.947V48.4579H40.9958V48.5069H41.0446V48.6049H41.0934V48.703H41.1422V48.752H41.191V48.85H41.2398V48.9481H41.2886V49.0461H41.3375V49.0952H41.3863V49.1932H41.4351V49.2913H41.4839V49.3403H41.5327V49.4383H41.5815V49.4873H41.6303V49.5854H41.6791V49.6344H41.7279V49.7325H41.7767V49.7815H41.8255V49.8795H41.8743V49.9286H41.9231V50.0266H41.9719V50.0756H42.0207V50.1737H42.0695V50.2227H42.1183V50.3207H42.1671V50.3698H42.2159V50.4678H42.2647V50.5168H42.3135V50.6149H42.3624V50.6639H42.4112V50.7129H42.46V50.811H42.5088V50.86H42.5576V50.909H42.6064V51.0071H42.6552V51.0561H42.704V51.1051H42.7528V51.2032H42.8016V51.2522H42.8504V51.3012H42.8992V51.3992H42.948V51.4483H42.9968V51.4973H43.0456V51.5953H43.0944V51.6444H43.1432V51.6934H43.192V51.7424H43.2408V51.7914H43.2896V51.8405H43.3384V51.9385H43.3872V51.9875H43.436V52.0365H43.4849V52.0856H43.5337V52.1346H43.5825V52.2326H43.6313V52.2817H43.6801V52.3307H43.7289V52.3797H43.7777V52.4287H43.8265V52.4778H43.8753V52.5758H43.9241V52.6248H43.9729V52.6738H44.0217V52.7229H44.0705V52.7719H44.1193V52.8209H44.1681V52.8699H44.2169V52.919H44.2657V52.968H44.3145V53.017H44.3633V53.066H44.4121V53.1151H44.4609V53.1641H44.5097V53.2131H44.5586V53.2621H44.6074V53.3111H44.6562V53.3602H44.705V53.4092H44.7538V53.4582H44.8026V53.5563H44.9002V53.6053H44.949V53.6543H44.9978V53.7033H45.0466V53.7524H45.0954V53.8014H45.1442V53.8504H45.193V53.8994H45.2418V53.9484H45.2906V53.9975H45.3394V54.0465H45.3882V54.0955H45.437V54.1445H45.4858V54.1936H45.5346V54.2426H45.6323V54.2916H45.6811V54.3406H45.7299V54.3897H45.7787V54.4387H45.8275V54.4877H45.8763V54.5367H45.9251V54.5857H46.0227V54.6348H46.0715V54.6838H46.1203V54.7328H46.1691V54.7818H46.2179V54.8309H46.3155V54.8799H46.3643V54.9289H46.4131V54.9779H46.4619V55.027H46.5107V55.076H46.6083V55.125H46.6571V55.174H46.706V55.223H46.7548V55.2721H46.8524V55.3211H46.9012V55.3701H46.95V55.4191H47.0476V55.4682H47.0964V55.5172H47.1452V55.5662H47.2428V55.6152H47.2916V55.6643H47.3404V55.7133H47.438V55.7623H47.4868V55.8113H47.5356V55.8603H47.6332V55.9094H47.682V55.9584H47.7308V56.0074H47.8285V56.0564H47.8773V56.1055H47.9749V56.1545H48.0237V56.2035H48.1213V56.2525H48.1701V56.3016H48.2677V56.3506H48.3165V56.3996H48.4141V56.4486H48.4629V56.4977H48.5605V56.5467H48.6093V56.5957H48.7069V56.6447H48.7557V56.6937H48.8534V56.7428H48.951V56.7918H48.9998V56.8408H49.0974V56.8898H49.195V56.9389H49.2438V56.9879H49.3414V57.0369H49.439V57.0859H49.5366V57.1349H49.5854V57.184H49.683V57.233H49.7806V57.282H49.8294V57.331H49.9271V57.3801H50.0247V57.4291H50.1223V57.4781H50.2199V57.5271H50.3175V57.5762H50.3663V57.6252H50.4639V57.6742H50.5615V57.7232H50.6591V57.7722H50.7567V57.8213H50.8543V57.8703H50.9519V57.9193H51.0496V57.9683H51.1472V58.0174H51.2448V58.0664H51.3424V58.1154H51.44V58.1644H51.5376V58.2135H51.684V58.2625H51.7816V58.3115H51.8792V58.3605H51.9768V58.4095H52.0745V58.4586H52.1721V58.5076H52.2697V58.5566H52.4161V58.6056H52.5137V58.6547H52.6601V58.7037H52.7577V58.7527H52.9041V58.8017H53.0017V58.8508H53.0993V58.8998H53.2458V58.9488H53.3434V58.9978H53.4898V59.0469H53.5874V59.0959H53.7338V59.1449H53.8802V59.1939H54.0266V59.2429H54.173V59.292H54.2707V59.341H54.4171V59.39H54.5635V59.439H54.7099V59.4881H54.8563V59.5371H55.0027V59.5861H55.1491V59.6351H55.2956V59.6841H55.442V59.7332H55.5884V59.7822H55.7836V59.8312H55.93V59.8802H56.0764V59.9293H56.2716V59.9783H56.4181V60.0273H56.6133V60.0763H56.8085V60.1254H56.9549V60.1744H57.1501V60.2234H57.3453V60.2724H57.5406V60.3215H57.7358V60.3705H57.931V60.4195H58.1262V60.4685H58.3702V60.5175H58.5655V60.5666H58.7607V60.6156H59.0047V60.6646H59.2487V60.7136H59.4927V60.7627H59.7856V60.8117H60.0296V60.8607H60.2736V60.9097H60.5664V60.9587H60.8593V61.0078H61.1521V61.0568H61.4449V61.1058H61.7866V61.1548H62.177V61.2039H62.5186V61.2529H62.9091V61.3019H63.2995V61.3509H63.7875V61.4H64.2268V61.449H64.7636V61.498H65.3981V61.547H66.0326V61.596H66.911V61.6451H68.0335V61.6941H73.1092V61.6451H74.4269V61.596H75.403V61.547H76.1839V61.498H76.916V61.449H77.5992V61.4H78.1849V61.3509H78.8193V61.3019H79.3562V61.2529H79.8442V61.2039H80.3811V61.1548H80.8203V61.1058H81.3084V61.0568H81.7476V61.0078H82.1869V60.9587H82.6261V60.9097H83.0165V60.8607H83.407V60.8117H83.7974V60.7627H84.1878V60.7136H84.5783V60.6646H84.9199V60.6156H85.3104V60.5666H85.652V60.5175H85.9936V60.4685H86.3353V60.4195H86.6769V60.3705H87.0185V60.3215H87.3601V60.2724H87.7018V60.2234H87.9946V60.1744H88.3362V60.1254H88.6291V60.0763H88.9707V60.0273H89.2635V59.9783H89.6051V59.9293H89.898V59.8802H90.1908V59.8312H90.4836V59.7822H90.7765V59.7332H91.0693V59.6841H91.3621V59.6351H91.6549V59.5861H91.9478V59.5371H92.1918V59.4881H92.4846V59.439H92.7775V59.39H93.0703V59.341H93.3143V59.292H93.6071V59.2429H93.8511V59.1939H94.144V59.1449H94.4368V59.0959H94.6808V59.0469H94.9248V58.9978H95.2177V58.9488H95.4617V58.8998H95.7057V58.8508H95.9986V58.8017H96.2426V58.7527H96.4866V58.7037H96.7794V58.6547H97.0234V58.6056H97.2675V58.5566H97.5115V58.5076H97.7555V58.4586H97.9995V58.4095H98.2436V58.3605H98.5364V58.3115H98.7804V58.2625H99.0244V58.2135H99.2684V58.1644H99.5125V58.1154H99.7565V58.0664H100.001V58.0174H100.196V57.9683H100.44V57.9193H100.684V57.8703H100.928V57.8213H101.172V57.7722H101.416V57.7232H101.66V57.6742H101.904V57.6252H102.099V57.5762H102.343V57.5271H102.587V57.4781H102.831V57.4291H103.075V57.3801H103.27V57.331H103.514V57.282H103.758V57.233H103.954V57.184H104.198V57.1349H104.442V57.0859H104.686V57.0369H104.881V56.9879H105.125V56.9389H105.369V56.8898H105.564V56.8408H105.808V56.7918H106.003V56.7428H106.248V56.6937H106.492V56.6447H106.687V56.5957H106.931V56.5467H107.126V56.4977H107.37V56.4486H107.614V56.3996H107.809V56.3506H108.053V56.3016H108.248V56.2525H108.493V56.2035H108.688V56.1545H108.932V56.1055H109.127V56.0564H109.371V56.0074H109.566V55.9584H109.81V55.9094H110.005V55.8603H110.249V55.8113H110.445V55.7623H110.689V55.7133H110.884V55.6643H111.128V55.6152H111.323V55.5662H111.567V55.5172H111.762V55.4682H112.006V55.4191H112.202V55.3701H112.446V55.3211H112.641V55.2721H112.885V55.223H113.08V55.174H113.275V55.125H113.519V55.076H113.715V55.027H113.959V54.9779H114.154V54.9289H114.398V54.8799H114.593V54.8309H114.837V54.7818H115.032V54.7328H115.228V54.6838H115.472V54.6348H115.667V54.5857H115.911V54.5367H116.106V54.4877H116.35V54.4387H116.545V54.3897H116.789V54.3406H116.984V54.2916H117.18V54.2426H117.424V54.1936H117.619V54.1445H117.863V54.0955H118.058V54.0465H118.302V53.9975H118.497V53.9484H118.741V53.8994H118.937V53.8504H119.181V53.8014H119.376V53.7524H119.62V53.7033H119.815V53.6543H120.059V53.6053H120.254V53.5563H120.498V53.5072H120.694V53.4582H120.938V53.4092H121.133V53.3602H121.377V53.3111H121.572V53.2621H121.816V53.2131H122.011V53.1641H122.255V53.1151H122.451V53.066H122.695V53.017H122.89V52.968H123.134V52.919H123.378V52.8699H123.573V52.8209H123.817V52.7719H124.012V52.7229H124.256V52.6738H124.5V52.6248H124.696V52.5758H124.94V52.5268H125.184V52.4778H125.379V52.4287H125.623V52.3797H125.867V52.3307H126.062V52.2817H126.306V52.2326H126.55V52.1836H126.745V52.1346H126.989V52.0856H127.233V52.0365H127.477V51.9875H127.722V51.9385H127.917V51.8895H128.161V51.8405H128.405V51.7914H128.649V51.7424H128.893V51.6934H129.137V51.6444H129.381V51.5953H129.625V51.5463H129.869V51.4973H130.113V51.4483H130.357V51.3992H130.601V51.3502H130.845V51.3012H131.089V51.2522H131.333V51.2032H131.577V51.1541H131.87V51.1051H132.114V51.0561H132.358V51.0071H132.602V50.958H132.895V50.909H133.139V50.86H133.383V50.811H133.676V50.7619H133.92V50.7129H134.213V50.6639H134.457V50.6149H134.749V50.5659H135.042V50.5168H135.286V50.4678H135.384V50.5659H135.189V50.6149H135.042V50.6639H134.896V50.7129H134.701V50.7619H134.554V50.811H134.359V50.86H134.213V50.909H134.066V50.958H133.871V51.0071H133.724V51.0561H133.529V51.1051H133.383V51.1541H133.236V51.2032H133.041V51.2522H132.895V51.3012H132.7V51.3502H132.553V51.3992H132.358V51.4483H132.212V51.4973H132.065V51.5463H131.87V51.5953H131.723V51.6444H131.528V51.6934H131.382V51.7424H131.235V51.7914H131.04V51.8405H130.894V51.8895H130.699V51.9385H130.552V51.9875H130.357V52.0365H130.211V52.0856H130.064V52.1346H129.869V52.1836H129.722V52.2326H129.527V52.2817H129.381V52.3307H129.186V52.3797H129.039V52.4287H128.893V52.4778H128.698V52.5268H128.551V52.5758H128.356V52.6248H128.21V52.6738H128.014V52.7229H127.868V52.7719H127.722V52.8209H127.526V52.8699H127.38V52.919H127.185V52.968H127.038V53.017H126.843V53.066H126.697V53.1151H126.501V53.1641H126.355V53.2131H126.209V53.2621H126.013V53.3111H125.867V53.3602H125.672V53.4092H125.525V53.4582H125.33V53.5072H125.184V53.5563H124.988V53.6053H124.842V53.6543H124.696V53.7033H124.5V53.7524H124.354V53.8014H124.159V53.8504H124.012V53.8994H123.817V53.9484H123.671V53.9975H123.476V54.0465H123.329V54.0955H123.134V54.1445H122.987V54.1936H122.841V54.2426H122.646V54.2916H122.499V54.3406H122.304V54.3897H122.158V54.4387H121.963V54.4877H121.816V54.5367H121.621V54.5857H121.475V54.6348H121.279V54.6838H121.133V54.7328H120.938V54.7818H120.791V54.8309H120.645V54.8799H120.45V54.9289H120.303V54.9779H120.108V55.027H119.962V55.076H119.766V55.125H119.62V55.174H119.425V55.223H119.278V55.2721H119.083V55.3211H118.937V55.3701H118.741V55.4191H118.595V55.4682H118.4V55.5172H118.253V55.5662H118.058V55.6152H117.912V55.6643H117.765V55.7133H117.57V55.7623H117.424V55.8113H117.229V55.8603H117.082V55.9094H116.887V55.9584H116.74V56.0074H116.545V56.0564H116.399V56.1055H116.204V56.1545H116.057V56.2035H115.862V56.2525H115.716V56.3016H115.52V56.3506H115.374V56.3996H115.179V56.4486H115.032V56.4977H114.837V56.5467H114.691V56.5957H114.495V56.6447H114.349V56.6937H114.154V56.7428H114.007V56.7918H113.812V56.8408H113.666V56.8898H113.471V56.9389H113.324V56.9879H113.129V57.0369H112.983V57.0859H112.787V57.1349H112.641V57.184H112.446V57.233H112.299V57.282H112.104V57.331H111.958V57.3801H111.762V57.4291H111.616V57.4781H111.421V57.5271H111.274V57.5762H111.079V57.6252H110.933V57.6742H110.738V57.7232H110.591V57.7722H110.396V57.8213H110.249V57.8703H110.054V57.9193H109.908V57.9683H109.713V58.0174H109.517V58.0664H109.371V58.1154H109.176V58.1644H109.029V58.2135H108.834V58.2625H108.688V58.3115H108.493V58.3605H108.346V58.4095H108.151V58.4586H108.004V58.5076H107.809V58.5566H107.663V58.6056H107.468V58.6547H107.321V58.7037H107.126V58.7527H106.98V58.8017H106.784V58.8508H106.589V58.8998H106.443V58.9488H106.248V58.9978H106.101V59.0469H105.906V59.0959H105.759V59.1449H105.564V59.1939H105.418V59.2429H105.223V59.292H105.076V59.341H104.881V59.39H104.686V59.439H104.539V59.4881H104.344V59.5371H104.198V59.5861H104.002V59.6351H103.856V59.6841H103.661V59.7332H103.514V59.7822H103.319V59.8312H103.124V59.8802H102.978V59.9293H102.782V59.9783H102.636V60.0273H102.441V60.0763H102.246V60.1254H102.099V60.1744H101.904V60.2234H101.757V60.2724H101.562V60.3215H101.416V60.3705H101.221V60.4195H101.025V60.4685H100.879V60.5175H100.684V60.5666H100.537V60.6156H100.342V60.6646H100.196V60.7136H100.001V60.7627H99.8053V60.8117H99.6589V60.8607H99.4637V60.9097H99.3173V60.9587H99.122V61.0078H98.9268V61.0568H98.7804V61.1058H98.5852V61.1548H98.4388V61.2039H98.2436V61.2529H98.0483V61.3019H97.9019V61.3509H97.7067V61.4H97.5115V61.449H97.3651V61.498H97.1699V61.547H97.0234V61.596H96.8282V61.6451H96.633V61.6941H96.4866V61.7431H96.2914V61.7921H96.0962V61.8412H95.9497V61.8902H95.7545V61.9392H95.6081V61.9882H95.4129V62.0373H95.2177V62.0863H95.0713V62.1353H94.876V62.1843H94.6808V62.2333H94.5344V62.2824H94.3392V62.3314H94.144V62.3804H93.9976V62.4294H93.8023V62.4785H93.6071V62.5275H93.4607V62.5765H93.2655V62.6255H93.0703V62.6746H92.9239V62.7236H92.7286V62.7726H92.5334V62.8216H92.387V62.8706H92.1918V62.9197H91.9966V62.9687H91.8502V63.0177H91.6549V63.0667H91.4597V63.1158H91.3133V63.1648H91.1181V63.2138H90.9229V63.2628H90.7277V63.3119H90.5812V63.3609H90.386V63.4099H90.1908V63.4589H90.0444V63.508H89.8492V63.557H89.654V63.606H89.4587V63.655H89.3123V63.704H89.1171V63.7531H88.9219V63.8021H88.7267V63.8511H88.5803V63.9001H88.385V63.9492H88.1898V63.9982H87.9946V64.0472H87.8482V64.0962H87.653V64.1452H87.4578V64.1943H87.2625V64.2433H87.1161V64.2923H86.9209V64.3413H86.7257V64.3904H86.5305V64.4394H86.3353V64.4884H86.1888V64.5374H85.9936V64.5865H85.7984V64.6355H85.6032V64.6845H85.408V64.7335H85.2615V64.7825H85.0663V64.8316H84.8711V64.8806H84.6759V64.9296H84.4807V64.9786H84.2855V65.0277H84.0902V65.0767H83.9438V65.1257H83.7486V65.1747H83.5534V65.2238H83.3582V65.2728H83.1629V65.3218H82.9677V65.3708H82.7725V65.4199H82.5773V65.4689H82.3821V65.5179H82.1869V65.5669H81.9916V65.6159H81.8452V65.665H81.65V65.714H81.4548V65.763H81.2596V65.812H81.0644V65.8611H80.8691V65.9101H80.6739V65.9591H80.4787V66.0081H80.2347V66.0572H80.0395V66.1062H79.8442V66.1552H79.649V66.2042H79.4538V66.2532H79.2586V66.3023H79.0634V66.3513H78.8681V66.4003H78.6729V66.4493H78.4289V66.4984H78.2337V66.5474H78.0385V66.5964H77.8433V66.6454H77.648V66.6945H77.404V66.7435H77.2088V66.7925H76.9648V66.8415H76.7696V66.8905H76.5743V66.9396H76.3303V66.9886H76.1351V67.0376H75.8911V67.0866H75.6959V67.1357H75.4518V67.1847H75.2078V67.2337H75.0126V67.2827H74.7686V67.3318H74.5245V67.3808H74.3293V67.4298H74.0853V67.4788H73.8413V67.5278H73.5973V67.5769H73.3532V67.6259H73.1092V67.6749H72.914V67.7239H72.6212V67.773H72.3771V67.822H72.1331V67.871H71.8891V67.92H71.6451V67.9691H71.4011V68.0181H71.1082V68.0671H70.8154V68.1161H70.5714V68.1651H70.2785V68.2142H70.0345V68.2632H69.7417V68.3122H69.4001V68.3612H69.1072V68.4103H68.8144V68.4593H68.4728V68.5083H68.1311V68.5573H67.7895V68.6064H67.3991V68.6554H67.0574V68.7044H66.6182V68.7534H66.179V68.8024H65.7397V68.8515H65.1541V68.9005H64.5196V68.9495H63.6411V68.9985H60.0296ZM69.4001 58.7527V58.7037H68.3752V58.6547H67.7895V58.6056H67.2527V58.5566H66.7646V58.5076H66.423V58.4586H66.0814V58.4095H65.7397V58.3605H65.3981V58.3115H65.1541V58.2625H64.91V58.2135H64.666V58.1644H64.3732V58.1154H64.1292V58.0664H63.8852V58.0174H63.6899V57.9683H63.4947V57.9193H63.2995V57.8703H63.1531V57.8213H62.9579V57.7722H62.7626V57.7232H62.5674V57.6742H62.3722V57.6252H62.2258V57.5762H62.0794V57.5271H61.933V57.4781H61.7378V57.4291H61.5913V57.3801H61.4449V57.331H61.2985V57.282H61.1521V57.233H61.0057V57.184H60.8593V57.1349H60.7129V57.0859H60.6152V57.0369H60.4688V56.9879H60.3712V56.9389H60.2248V56.8898H60.0784V56.8408H59.9808V56.7918H59.8344V56.7428H59.7368V56.6937H59.6392V56.6447H59.5904V56.5957H59.688V56.6447H59.8344V56.6937H59.9808V56.7428H60.1272V56.7918H60.3224V56.8408H60.5176V56.8898H60.7129V56.9389H60.9081V56.9879H61.1033V57.0369H61.3473V57.0859H61.6401V57.1349H61.8842V57.184H62.177V57.233H62.4698V57.282H62.7626V57.331H63.1043V57.3801H63.6899V57.4291H64.2268V57.4781H67.0086V57.4291H67.6919V57.3801H68.2776V57.331H68.6192V57.282H68.9608V57.233H69.3025V57.184H69.6441V57.1349H69.9369V57.0859H70.1809V57.0369H70.425V56.9879H70.6202V56.9389H70.8642V56.8898H71.1082V56.8408H71.3522V56.7918H71.5475V56.7428H71.7427V56.6937H71.9379V56.6447H72.0843V56.5957H72.2795V56.5467H72.4748V56.4977H72.6212V56.4486H72.8164V56.3996H72.9628V56.3506H73.158V56.3016H73.3532V56.2525H73.4996V56.2035H73.6461V56.1545H73.7925V56.1055H73.8901V56.0564H74.0365V56.0074H74.1829V55.9584H74.3293V55.9094H74.4757V55.8603H74.6222V55.8113H74.7686V55.7623H74.915V55.7133H75.0614V55.6643H75.159V55.6152H75.3054V55.5662H75.403V55.5172H75.5494V55.4682H75.647V55.4191H75.7935V55.3701H75.8911V55.3211H75.9887V55.2721H76.1351V55.223H76.2327V55.174H76.3791V55.125H76.4767V55.076H76.6231V55.027H76.7207V54.9779H76.8672V54.9289H76.9648V54.8799H77.0624V54.8309H77.16V54.7818H77.2576V54.7328H77.3552V54.6838H77.4528V54.6348H77.5504V54.5857H77.648V54.5367H77.7944V54.4877H77.8921V54.4387H77.9897V54.3897H78.0873V54.3406H78.1849V54.2916H78.2825V54.2426H78.3801V54.1936H78.4777V54.1445H78.5753V54.0955H78.6729V54.0465H78.7705V53.9975H78.8681V53.9484H78.9658V53.8994H79.0146V53.8504H79.1122V53.8014H79.2098V53.7524H79.3074V53.7033H79.405V53.6543H79.5026V53.6053H79.5514V53.5563H79.649V53.5072H79.7466V53.4582H79.8442V53.4092H79.9418V53.3602H80.0395V53.3111H80.0883V53.2621H80.1859V53.2131H80.2835V53.1641H80.3811V53.1151H80.4299V53.066H80.5275V53.017H80.6251V52.968H80.6739V52.919H80.7715V52.8699H80.8203V52.8209H80.9179V52.7719H81.0155V52.7229H81.0644V52.6738H81.162V52.6248H81.2596V52.5758H81.3084V52.5268H81.406V52.4778H81.4548V52.4287H81.5524V52.3797H81.65V52.3307H81.6988V52.2817H81.7964V52.2326H81.894V52.1836H81.9428V52.1346H81.9916V52.0856H82.0893V52.0365H82.1381V51.9875H82.2357V51.9385H82.2845V51.8895H82.3821V51.8405H82.4309V51.7914H82.5285V51.7424H82.5773V51.6934H82.6261V51.6444H82.7237V51.5953H82.7725V51.5463H82.8701V51.4973H82.9189V51.4483H83.0165V51.3992H83.0653V51.3502H83.1629V51.3012H83.2118V51.2522H83.3094V51.2032H83.3582V51.1541H83.407V51.1051H83.5046V51.0561H83.5534V51.0071H83.6022V50.958H83.6998V50.909H83.7486V50.86H83.7974V50.811H83.895V50.7619H83.9438V50.7129H83.9926V50.6639H84.0414V50.6149H84.139V50.5659H84.1878V50.5168H84.2366V50.4678H84.3343V50.4188H84.3831V50.3698H84.4319V50.3207H84.5295V50.2717H84.5783V50.2227H84.6271V50.1737H84.6759V50.1246H84.7735V50.0756H84.8223V50.0266H84.8711V49.9776H84.9687V49.9286H85.0175V49.8795H85.0663V49.8305H85.1151V49.7815H85.1639V49.7325H85.2615V49.6834H85.3104V49.6344H85.3592V49.5854H85.408V49.5364H85.4568V49.4873H85.5056V49.4383H85.6032V49.3893H85.652V49.3403H85.7008V49.2913H85.7496V49.2422H85.7984V49.1932H85.8472V49.1442H85.9448V49.0952H85.9936V49.0461H86.0424V48.9971H86.0912V48.9481H86.14V48.8991H86.1888V48.85H86.2864V48.801H86.3353V48.752H86.384V48.703H86.4329V48.654H86.4817V48.6049H86.5305V48.5559H86.5793V48.5069H86.6281V48.4579H86.6769V48.4088H86.7257V48.3598H86.7745V48.3108H86.8721V48.2618H86.9209V48.2127H86.9697V48.1637H87.0185V48.1147H87.0673V48.0657H87.1161V48.0167H87.1649V47.9676H87.2137V47.9186H87.2625V47.8696H87.3113V47.8206H87.3601V47.7715H87.4089V47.7225H87.4578V47.6735H87.5066V47.6245H87.5554V47.5754H87.6042V47.5264H87.653V47.4774H87.7018V47.4284H87.7506V47.3794H87.7994V47.3303H87.8482V47.2813H87.897V47.2323H87.9458V47.1833H87.9946V47.1342H88.0434V47.0852H88.0922V47.0362H88.141V46.9872H88.1898V46.9381H88.2386V46.8891H88.2874V46.8401H88.3362V46.7911H88.385V46.7421H88.4338V46.693H88.4826V46.644H88.5315V46.595H88.5803V46.546H88.6291V46.4479H88.6779V46.3989H88.7267V46.3499H88.7755V46.3008H88.8243V46.2518H88.8731V46.2028H88.9219V46.1538H88.9707V46.1048H89.0195V46.0557H89.0683V46.0067H89.1171V45.9577H89.1659V45.9087H89.2147V45.8106H89.2635V45.7616H89.3123V45.7126H89.3611V45.6635H89.4099V45.6145H89.4587V45.5655H89.5075V45.4675H89.5564V45.4184H89.6051V45.3694H89.654V45.3204H89.7028V45.2714H89.7516V45.1733H89.8004V45.1243H89.8492V45.0753H89.898V45.0262H89.9468V44.9772H89.9956V44.9282H90.0444V44.8302H90.0932V44.7811H90.142V44.7321H90.1908V44.6831H90.2396V44.6341H90.2884V44.536H90.3372V44.487H90.386V44.438H90.4348V44.3889H90.4836V44.2909H90.5324V44.2419H90.5812V44.1929H90.63V44.0948H90.6789V44.0458H90.7277V43.9968H90.7765V43.8987H90.8253V43.8497H90.8741V43.8007H90.9229V43.7026H90.9717V43.6536H91.0205V43.6046H91.0693V43.5065H91.1181V43.4575H91.1669V43.4085H91.2157V43.3104H91.2645V43.2614H91.3133V43.2124H91.3621V43.1143H91.4109V43.0653H91.4597V43.0163H91.5085V42.9183H91.5573V42.8692H91.6061V42.7712H91.6549V42.7222H91.7037V42.6241H91.7526V42.5751H91.8014V42.477H91.8502V42.379H91.899V42.33H91.9478V42.2319H91.9966V42.1829H92.0454V42.0849H92.0942V42.0358H92.143V41.9378H92.1918V41.8888H92.2406V41.7907H92.2894V41.7417H92.3382V41.6437H92.387V41.5946H92.4358V41.4966H92.4846V41.4476H92.5334V41.3495H92.5822V41.2515H92.631V41.2024H92.6798V41.1044H92.7286V41.0064H92.7775V40.9083H92.8262V40.8593H92.8751V40.7612H92.9239V40.6632H92.9727V40.5651H93.0215V40.5161H93.0703V40.4181H93.1191V40.32H93.1679V40.271H93.2167V40.173H93.2655V40.0749H93.3143V39.9769H93.3631V39.9278H93.4119V39.8298H93.4607V39.7318H93.5095V39.6337H93.5583V39.5357H93.6071V39.4376H93.6559V39.3396H93.7047V39.2415H93.7535V39.1435H93.8023V39.0454H93.8511V38.9474H93.9V38.8493H93.9488V38.7023H93.9976V38.6042H94.0464V38.5062H94.0952V38.4081H94.144V38.3101H94.1928V38.212H94.2416V38.114H94.2904V38.0159H94.3392V37.8689H94.388V37.7708H94.4368V37.6238H94.4856V37.5257H94.5344V37.3786H94.5832V37.2806H94.632V37.1826H94.6808V37.0355H94.7296V36.9374H94.7784V36.7904H94.8272V36.6923H94.876V36.5453H94.9248V36.4472H94.9737V36.3001H95.0225V36.1531H95.0713V36.006H95.1201V35.8589H95.1689V35.6628H95.2177V35.5158H95.2665V35.3687H95.3153V35.2216H95.3641V35.0746H95.4129V34.9275H95.4617V34.7804H95.5105V34.5843H95.5593V34.3882H95.6081V34.1921H95.6569V33.9961H95.7057V33.8H95.7545V33.6039H95.8033V33.3588H95.8521V33.1627H95.9009V32.9666H95.9497V32.6724H95.9986V32.3783H96.0473V32.0842H96.0962V31.741H96.145V31.4469H96.1938V31.1037H96.2426V30.4174H96.2914V29.731H96.3402V27.7701H96.2914V27.1328H96.2426V26.6916H96.1938V26.2504H96.145V25.8092H96.0962V25.5151H96.0473V25.2699H95.9986V25.0248H95.9497V24.7797H95.9009V24.5346H95.8521V24.3385H95.8033V24.0934H95.7545V23.8483H95.7057V23.7012H95.6569V23.5051H95.6081V23.358H95.5593V23.162H95.5105V23.0149H95.4617V22.8188H95.4129V22.6717H95.3641V22.4756H95.3153V22.3286H95.2665V22.2305H95.2177V22.0834H95.1689V21.9854H95.1201V21.8383H95.0713V21.7403H95.0225V21.6422H94.9737V21.5932H94.9248V21.4952H94.876V21.3971H94.8272V21.2991H94.7784V21.201H94.7296V21.103H94.6808V21.0049H94.632V20.9069H94.5832V20.8088H94.5344V20.7598H94.4856V20.6618H94.4368V20.5637H94.388V20.5147H94.3392V20.4167H94.2904V20.3186H94.2416V20.2206H94.1928V20.1715H94.144V20.0735H94.0952V19.9755H94.0464V19.9264H93.9976V19.8284H93.9488V19.7303H93.9V19.6813H93.8511V19.5833H93.8023V19.4852H93.7535V19.4362H93.7047V19.3382H93.6559V19.2891H93.6071V19.1911H93.5583V19.1421H93.5095V19.044H93.4607V18.995H93.4119V18.8969H93.3631V18.8479H93.3143V18.7499H93.2655V18.7009H93.2167V18.6028H93.1679V18.5538H93.1191V18.4557H93.0703V18.4067H93.0215V18.3577H92.9727V18.2596H92.9239V18.2106H92.8751V18.1616H92.8262V18.1126H92.7775V18.0145H92.7286V17.9655H92.6798V17.9165H92.631V17.8184H92.5822V17.7694H92.5334V17.7204H92.4846V17.6223H92.4358V17.5733H92.387V17.5243H92.3382V17.4263H92.2894V17.3772H92.2406V17.3282H92.1918V17.2792H92.143V17.1811H92.0942V17.1321H92.0454V17.0831H91.9966V17.0341H91.9478V16.985H91.899V16.936H91.8502V16.838H91.8014V16.789H91.7526V16.7399H91.7037V16.6909H91.6549V16.6419H91.6061V16.5929H91.5573V16.4948H91.5085V16.4458H91.4597V16.3968H91.4109V16.3477H91.3621V16.2987H91.3133V16.2497H91.2645V16.2007H91.2157V16.1517H91.1669V16.1026H91.1181V16.0536H91.0693V16.0046H91.0205V15.9556H90.9717V15.9065H90.9229V15.8575H90.8741V15.7595H90.8253V15.7104H90.7765V15.6614H90.7277V15.6124H90.6789V15.5634H90.63V15.5144H90.5812V15.4653H90.5324V15.4163H90.4836V15.3673H90.4348V15.3183H90.386V15.2692H90.3372V15.2202H90.2396V15.1712H90.1908V15.1222H90.142V15.0731H90.0932V15.0241H90.0444V14.9751H89.9956V14.9261H89.9468V14.8771H89.898V14.828H89.8492V14.779H89.8004V14.73H89.7516V14.681H89.7028V14.6319H89.654V14.5829H89.5564V14.5339H89.5075V14.4849H89.4587V14.4358H89.4099V14.3868H89.3611V14.3378H89.2635V14.2888H89.2147V14.2398H89.1659V14.1907H89.1171V14.1417H89.0683V14.0927H88.9707V14.0437H88.9219V13.9946H88.8731V13.9456H88.8243V13.8966H88.7755V13.8476H88.6779V13.7985H88.6291V13.7495H88.5803V13.7005H88.5315V13.6515H88.4338V13.6025H88.385V13.5534H88.3362V13.5044H88.2386V13.4554H88.1898V13.4064H88.141V13.3573H88.0434V13.3083H87.9946V13.2593H87.897V13.2103H87.8482V13.1612H87.7994V13.1122H87.7018V13.0632H87.653V13.0142H87.6042V12.9652H87.5066V12.9161H87.4578V12.8671H87.3601V12.8181H87.3113V12.7691H87.2137V12.72H87.1649V12.671H87.0673V12.622H87.0185V12.573H86.9209V12.5239H86.8721V12.4749H86.7745V12.4259H86.7257V12.3769H86.6281V12.3279H86.5793V12.2788H86.4817V12.2298H86.384V12.1808H86.3353V12.1318H86.2376V12.0827H86.14V12.0337H86.0424V11.9847H85.9936V11.9357H85.896V11.8866H85.7984V11.8376H85.7496V11.7886H85.652V11.7396H85.5544V11.6906H85.5056V11.6415H85.408V11.5925H85.3104V11.5435H85.2127V11.4945H85.1151V11.4454H85.0175V11.3964H84.9199V11.3474H84.8223V11.2984H84.7735V11.2493H84.6759V11.2003H84.5783V11.1513H84.4807V11.1023H84.3831V11.0533H84.2855V11.0042H84.1878V10.9552H84.0902V10.9062H83.9926V10.8572H83.8462V10.8081H83.7486V10.7591H83.651V10.7101H83.5534V10.6611H83.4558V10.612H83.3582V10.563H83.2606V10.514H83.1142V10.465H83.0165V10.416H82.9189V10.3669H82.7725V10.3179H82.6749V10.2689H82.5285V10.2199H82.4309V10.1708H82.2845V10.1218H82.1869V10.0728H82.0893V10.0238H81.9428V9.97475H81.8452V9.92572H81.6988V9.8767H81.5524V9.82767H81.406V9.77865H81.3084V9.72963H81.162V9.68061H81.0155V9.63158H80.8691V9.58256H80.7227V9.53354H80.6251V9.48451H80.4787V9.43549H80.2835V9.38647H80.1371V9.33744H79.9907V9.28843H79.8442V9.2394H79.6978V9.19038H79.5514V9.14135H79.3562V9.09233H79.2098V9.04331H79.0146V8.99428H78.8681V8.94526H78.6729V8.89624H78.4777V8.84721H78.3313V8.79819H78.1361V8.74916H77.9409V8.70015H77.7456V8.65112H77.5504V8.6021H77.3064V8.55308H77.1112V8.50405H76.916V8.45503H76.7207V8.40601H76.4767V8.35698H76.2327V8.30796H75.9887V8.25893H75.7447V8.20992H75.5006V8.16089H75.2566V8.11187H74.9638V8.06285H74.671V8.01382H74.3781V7.9648H74.0365V7.91578H73.7437V7.86675H73.402V7.81773H73.0116V7.76871H72.67V7.71968H72.2795V7.67066H71.8403V7.62164H71.3522V7.57261H70.8642V7.52359H70.2785V7.47457H69.6441V7.42554H68.912V7.37652H67.9847V7.3275H66.4718V7.27848H63.0555V7.3275H61.4937V7.37652H60.4688V7.42554H59.5415V7.47457H58.8095V7.52359H58.0774V7.57261H57.4918V7.62164H56.8573V7.67066H56.3204V7.71968H55.7836V7.76871H55.2956V7.81773H54.7587V7.86675H54.3195V7.91578H53.8802V7.9648H53.441V8.01382H52.9529V8.06285H52.5625V8.11187H52.1721V8.16089H51.7816V8.20992H51.3912V8.25893H51.0008V8.30796H50.6103V8.35698H50.2687V8.40601H49.8783V8.45503H49.5366V8.50405H49.195V8.55308H48.8534V8.6021H48.5117V8.65112H48.1701V8.70015H47.8285V8.74916H47.5356V8.79819H47.194V8.84721H46.9012V8.89624H46.5595V8.94526H46.2667V8.99428H45.9251V9.04331H45.6323V9.09233H45.3394V9.14135H45.0466V9.19038H44.7538V9.2394H44.4609V9.28843H44.1681V9.33744H43.8753V9.38647H43.5825V9.43549H43.2896V9.48451H43.0456V9.53354H42.7528V9.58256H42.46V9.63158H42.1671V9.68061H41.9231V9.72963H41.6303V9.77865H41.3863V9.82767H41.0934V9.8767H40.8494V9.92572H40.5566V9.97475H40.3126V10.0238H40.0197V10.0728H39.7757V10.1218H39.5317V10.1708H39.2389V10.2199H38.9948V10.2689H38.7508V10.3179H38.5068V10.3669H38.2628V10.416H37.9699V10.465H37.7259V10.514H37.4819V10.563H37.2379V10.612H36.9938V10.6611H36.7498V10.7101H36.5058V10.7591H36.2618V10.8081H36.0178V10.8572H35.7737V10.9062H35.5297V10.9552H35.2857V11.0042H35.0417V11.0533H34.7976V11.1023H34.5536V11.1513H34.3096V11.2003H34.0656V11.2493H33.8216V11.2984H33.6263V11.3474H33.3823V11.3964H33.1383V11.4454H32.8943V11.4945H32.6502V11.5435H32.455V11.5925H32.211V11.6415H31.967V11.6906H31.723V11.7396H31.5277V11.7886H31.2837V11.8376H31.0397V11.8866H30.8445V11.9357H30.6005V11.9847H30.3564V12.0337H30.1612V12.0827H29.9172V12.1318H29.6732V12.1808H29.4779V12.2298H29.2339V12.2788H29.0387V12.3279H28.7947V12.3769H28.5507V12.4259H28.3554V12.4749H28.1114V12.5239H27.9162V12.573H27.6722V12.622H27.4282V12.671H27.2329V12.72H26.9889V12.7691H26.7937V12.8181H26.5497V12.8671H26.3545V12.9161H26.1104V12.9652H25.9152V13.0142H25.6712V13.0632H25.476V13.1122H25.232V13.1612H25.0367V13.2103H24.7927V13.2593H24.5975V13.3083H24.3535V13.3573H24.1583V13.4064H23.9142V13.4554H23.719V13.5044H23.475V13.5534H23.2798V13.6025H23.0357V13.6515H22.8405V13.7005H22.6453V13.7495H22.4013V13.7985H22.2061V13.8476H21.962V13.8966H21.7668V13.9456H21.5228V13.9946H21.3276V14.0437H21.0836V14.0927H20.8883V14.1417H20.6443V14.1907H20.4491V14.2398H20.2539V14.2888H20.0099V14.3378H19.8146V14.3868H19.5706V14.4358H19.3754V14.4849H19.1314V14.5339H18.9362V14.5829H18.6921V14.6319H18.4969V14.681H18.3017V14.73H18.0577V14.779H17.8625V14.828H17.6184V14.8771H17.4232V14.9261H17.1792V14.9751H16.984V15.0241H16.74V15.0731H16.5447V15.1222H16.3007V15.1712H16.1055V15.2202H15.8615V15.2692H15.6663V15.3183H15.471V15.3673H15.227V15.4163H15.0318V15.4653H14.7878V15.5144H14.5926V15.5634H14.3485V15.6124H14.1533V15.6614H13.9093V15.7104H13.6653V15.7595H13.4701V15.8085H13.226V15.8575H13.0308V15.9065H12.7868V15.9556H12.5916V16.0046H12.3476V16.0536H12.1523V16.1026H11.9083V16.1517H11.6643V16.2007H11.4691V16.2497H11.225V16.2987H11.0298V16.3477H10.7858V16.3968H10.5418V16.4458H10.3466V16.4948H10.1025V16.5438H9.85852V16.5929H9.6633V16.6419H9.41928V16.6909H9.17525V16.7399H8.93123V16.789H8.73601V16.838H8.49199V16.887H8.24797V16.936H8.05275V16.985H7.80873V17.0341H7.5647V17.0831H7.32068V17.1321H7.07666V17.1811H6.83264V17.2302H6.58861V17.2792H6.3934V17.3282H6.14937V17.3772H5.90535V17.4263H5.66133V17.4753H5.4173V17.5243H5.17328V17.5733H4.92926V17.6223H4.68524V17.6714H4.39241V17.7204H4.14839V17.7694H3.90436V17.8184H3.66034V17.8675H3.41632V17.9165H3.1723V17.9655H2.87947V18.0145H2.63545V18.0636H2.34262V18.1126H2.0986V18.1616H1.85457V18.2106H1.56175V18.2596H1.31772V18.3087H1.0249V18.3577H0.780873V18.4067H0.488045V18.4557H0.195218V18.5048H0V18.4557H0.0976091V18.4067H0.244023V18.3577H0.439241V18.3087H0.585655V18.2596H0.732068V18.2106H0.927286V18.1616H1.0737V18.1126H1.26892V18.0636H1.41533V18.0145H1.56175V17.9655H1.75696V17.9165H1.90338V17.8675H2.0986V17.8184H2.24501V17.7694H2.39142V17.7204H2.58664V17.6714H2.73305V17.6223H2.92827V17.5733H3.07469V17.5243H3.2211V17.4753H3.41632V17.4263H3.56273V17.3772H3.75795V17.3282H3.90436V17.2792H4.09958V17.2302H4.246V17.1811H4.39241V17.1321H4.58763V17.0831H4.73404V17.0341H4.92926V16.985H5.07567V16.936H5.27089V16.887H5.4173V16.838H5.56372V16.789H5.75894V16.7399H5.90535V16.6909H6.10057V16.6419H6.24698V16.5929H6.4422V16.5438H6.58861V16.4948H6.73503V16.4458H6.93025V16.3968H7.07666V16.3477H7.27188V16.2987H7.41829V16.2497H7.61351V16.2007H7.75992V16.1517H7.90634V16.1026H8.10155V16.0536H8.24797V16.0046H8.44319V15.9556H8.5896V15.9065H8.78482V15.8575H8.93123V15.8085H9.12645V15.7595H9.27286V15.7104H9.41928V15.6614H9.6145V15.6124H9.76091V15.5634H9.95613V15.5144H10.1025V15.4653H10.2978V15.4163H10.4442V15.3673H10.6394V15.3183H10.7858V15.2692H10.9322V15.2202H11.1274V15.1712H11.2739V15.1222H11.4691V15.0731H11.6155V15.0241H11.8107V14.9751H11.9571V14.9261H12.1523V14.8771H12.2987V14.828H12.494V14.779H12.6404V14.73H12.7868V14.681H12.982V14.6319H13.1284V14.5829H13.3236V14.5339H13.4701V14.4849H13.6653V14.4358H13.8117V14.3868H14.0069V14.3378H14.1533V14.2888H14.3485V14.2398H14.495V14.1907H14.6902V14.1417H14.8366V14.0927H14.983V14.0437H15.1782V13.9946H15.3246V13.9456H15.5198V13.8966H15.6663V13.8476H15.8615V13.7985H16.0079V13.7495H16.2031V13.7005H16.3495V13.6515H16.5447V13.6025H16.6912V13.5534H16.8864V13.5044H17.0328V13.4554H17.228V13.4064H17.3744V13.3573H17.5696V13.3083H17.7161V13.2593H17.9113V13.2103H18.0577V13.1612H18.2529V13.1122H18.3993V13.0632H18.5457V13.0142H18.7409V12.9652H18.8874V12.9161H19.0826V12.8671H19.229V12.8181H19.4242V12.7691H19.5706V12.72H19.7658V12.671H19.9123V12.622H20.1075V12.573H20.2539V12.5239H20.4491V12.4749H20.5955V12.4259H20.7907V12.3769H20.9372V12.3279H21.1324V12.2788H21.2788V12.2298H21.474V12.1808H21.6204V12.1318H21.8156V12.0827H21.962V12.0337H22.1573V11.9847H22.3037V11.9357H22.4989V11.8866H22.6453V11.8376H22.8405V11.7886H22.9869V11.7396H23.1822V11.6906H23.3286V11.6415H23.5238V11.5925H23.6702V11.5435H23.8654V11.4945H24.0118V11.4454H24.2071V11.3964H24.3535V11.3474H24.5487V11.2984H24.6951V11.2493H24.8903V11.2003H25.0855V11.1513H25.232V11.1023H25.4272V11.0533H25.5736V11.0042H25.7688V10.9552H25.9152V10.9062H26.1104V10.8572H26.2568V10.8081H26.4521V10.7591H26.5985V10.7101H26.7937V10.6611H26.9401V10.612H27.1353V10.563H27.2817V10.514H27.477V10.465H27.6234V10.416H27.8186V10.3669H27.965V10.3179H28.1602V10.2689H28.3554V10.2199H28.5019V10.1708H28.6971V10.1218H28.8435V10.0728H29.0387V10.0238H29.1851V9.97475H29.3803V9.92572H29.5268V9.8767H29.722V9.82767H29.8684V9.77865H30.0636V9.72963H30.2588V9.68061H30.4052V9.63158H30.6005V9.58256H30.7469V9.53354H30.9421V9.48451H31.0885V9.43549H31.2837V9.38647H31.4301V9.33744H31.6253V9.28843H31.8206V9.2394H31.967V9.19038H32.1622V9.14135H32.3086V9.09233H32.5038V9.04331H32.6502V8.99428H32.8455V8.94526H33.0407V8.89624H33.1871V8.84721H33.3823V8.79819H33.5287V8.74916H33.7239V8.70015H33.8704V8.65112H34.0656V8.6021H34.2608V8.55308H34.4072V8.50405H34.6024V8.45503H34.7488V8.40601H34.9441V8.35698H35.1393V8.30796H35.2857V8.25893H35.4809V8.20992H35.6273V8.16089H35.8225V8.11187H35.969V8.06285H36.1642V8.01382H36.3594V7.9648H36.5058V7.91578H36.701V7.86675H36.8474V7.81773H37.0427V7.76871H37.2379V7.71968H37.3843V7.67066H37.5795V7.62164H37.7747V7.57261H37.9211V7.52359H38.1164V7.47457H38.2628V7.42554H38.458V7.37652H38.6532V7.3275H38.7996V7.27848H38.9948V7.22945H39.1901V7.18043H39.3365V7.1314H39.5317V7.08238H39.6781V7.03336H39.8733V6.98434H40.0685V6.93531H40.2149V6.88629H40.4102V6.83727H40.6054V6.78825H40.7518V6.73922H40.947V6.6902H41.1422V6.64118H41.2886V6.59215H41.4839V6.54313H41.6791V6.4941H41.8255V6.44508H42.0207V6.39606H42.2159V6.34703H42.3624V6.29802H42.5576V6.24899H42.7528V6.19997H42.8992V6.15095H43.0944V6.10192H43.2896V6.0529H43.436V6.00388H43.6313V5.95485H43.8265V5.90583H43.9729V5.8568H44.1681V5.80778H44.3633V5.75876H44.5586V5.70974H44.705V5.66071H44.9002V5.61169H45.0954V5.56267H45.2418V5.51365H45.437V5.46462H45.6323V5.4156H45.8275V5.36658H45.9739V5.31755H46.1691V5.26853H46.3643V5.21951H46.5107V5.17048H46.706V5.12146H46.9012V5.07244H47.0964V5.02341H47.2916V4.97439H47.438V4.92537H47.6332V4.87634H47.8285V4.82732H48.0237V4.7783H48.1701V4.72927H48.3653V4.68025H48.5605V4.63123H48.7557V4.58221H48.9022V4.53318H49.0974V4.48416H49.2926V4.43513H49.4878V4.38612H49.683V4.33709H49.8783V4.28807H50.0247V4.23904H50.2199V4.19002H50.4151V4.141H50.6103V4.09197H50.8055V4.04295H51.0008V3.99393H51.1472V3.94491H51.3424V3.89588H51.5376V3.84686H51.7328V3.79784H51.928V3.74882H52.1233V3.69979H52.3185V3.65076H52.5137V3.60175H52.7089V3.55272H52.8553V3.5037H53.0505V3.45467H53.2458V3.40565H53.441V3.35663H53.6362V3.3076H53.8314V3.25858H54.0266V3.20956H54.2219V3.16054H54.4171V3.11152H54.6123V3.06249H54.8075V3.01347H55.0027V2.96444H55.1979V2.91542H55.3932V2.8664H55.6372V2.81738H55.8324V2.76835H56.0276V2.71933H56.2228V2.6703H56.4181V2.62128H56.6133V2.57226H56.8085V2.52324H57.0525V2.47421H57.2477V2.42519H57.443V2.37617H57.6382V2.32714H57.8334V2.27812H58.0774V2.2291H58.2726V2.18008H58.5167V2.13105H58.7119V2.08202H58.9071V2.033H59.1511V1.98399H59.3463V1.93496H59.5904V1.88594H59.8344V1.83691H60.0296V1.78789H60.2736V1.73887H60.4688V1.68984H60.7129V1.64082H60.9569V1.5918H61.2009V1.54277H61.3961V1.49375H61.6401V1.44473H61.8842V1.39571H62.1282V1.34669H62.3722V1.29766H62.6162V1.24863H62.8603V1.19961H63.1043V1.15059H63.3483V1.10157H63.5923V1.05254H63.8852V1.00352H64.1292V0.954498H64.422V0.905472H64.666V0.856453H64.9589V0.807426H65.2029V0.758408H65.4957V0.709381H65.7885V0.660362H66.1302V0.611336H66.423V0.562309H66.7158V0.51329H67.0574V0.464272H67.3991V0.415245H67.7895V0.366219H68.1311V0.317192H68.5216V0.268173H68.9608V0.219154H69.4489V0.170128H69.8881V0.121109H70.5226V0.0720825H71.157V0.023056H75.6959V0.0720825H76.3791V0.121109H76.916V0.170128H77.3064V0.219154H77.7456V0.268173H78.1361V0.317192H78.4289V0.366219H78.7705V0.415245H79.0634V0.464272H79.3562V0.51329H79.6002V0.562309H79.8442V0.611336H80.0883V0.660362H80.3323V0.709381H80.5763V0.758408H80.8203V0.807426H81.0155V0.856453H81.2596V0.905472H81.4548V0.954498H81.65V1.00352H81.8452V1.05254H82.0404V1.10157H82.2357V1.15059H82.4309V1.19961H82.5773V1.24863H82.7725V1.29766H82.9189V1.34669H83.1142V1.39571H83.2606V1.44473H83.407V1.49375H83.5534V1.54277H83.6998V1.5918H83.8462V1.64082H83.9926V1.68984H84.139V1.73887H84.2855V1.78789H84.4319V1.83691H84.5783V1.88594H84.6759V1.93496H84.8223V1.98399H84.9687V2.033H85.1151V2.08202H85.2127V2.13105H85.3592V2.18008H85.4568V2.2291H85.6032V2.27812H85.7008V2.32714H85.8472V2.37617H85.9936V2.42519H86.0912V2.47421H86.1888V2.52324H86.3353V2.57226H86.4329V2.62128H86.5305V2.6703H86.6769V2.71933H86.7745V2.76835H86.9209V2.81738H87.0185V2.8664H87.1161V2.91542H87.2137V2.96444H87.3113V3.01347H87.4578V3.06249H87.5554V3.11152H87.653V3.16054H87.7506V3.20956H87.8482V3.25858H87.9946V3.3076H88.0922V3.35663H88.1898V3.40565H88.2874V3.45467H88.385V3.5037H88.4826V3.55272H88.5803V3.60175H88.6779V3.65076H88.7755V3.69979H88.8731V3.74882H88.9707V3.79784H89.0683V3.84686H89.1659V3.89588H89.2635V3.94491H89.3611V3.99393H89.4587V4.04295H89.5564V4.09197H89.6051V4.141H89.7028V4.19002H89.8004V4.23904H89.898V4.28807H89.9956V4.33709H90.0932V4.38612H90.1908V4.43513H90.2396V4.48416H90.3372V4.53318H90.4348V4.58221H90.5324V4.63123H90.63V4.68025H90.6789V4.72927H90.7765V4.7783H90.8741V4.82732H90.9229V4.87634H91.0205V4.92537H91.1181V4.97439H91.2157V5.02341H91.2645V5.07244H91.3621V5.12146H91.4597V5.17048H91.5085V5.21951H91.6061V5.26853H91.7037V5.31755H91.7526V5.36658H91.8502V5.4156H91.899V5.46462H91.9966V5.51365H92.0942V5.56267H92.143V5.61169H92.2406V5.66071H92.2894V5.70974H92.387V5.75876H92.4846V5.80778H92.5334V5.8568H92.631V5.90583H92.6798V5.95485H92.7775V6.00388H92.8262V6.0529H92.9239V6.10192H92.9727V6.15095H93.0703V6.19997H93.1191V6.24899H93.2167V6.29802H93.2655V6.34703H93.3631V6.39606H93.4119V6.44508H93.4607V6.4941H93.5583V6.54313H93.6071V6.59215H93.7047V6.64118H93.7535V6.6902H93.8511V6.73922H93.9V6.78825H93.9976V6.83727H94.0464V6.88629H94.0952V6.93531H94.1928V6.98434H94.2416V7.03336H94.2904V7.08238H94.388V7.1314H94.4368V7.18043H94.4856V7.22945H94.5832V7.27848H94.632V7.3275H94.6808V7.37652H94.7784V7.42554H94.8272V7.47457H94.876V7.52359H94.9737V7.57261H95.0225V7.62164H95.0713V7.67066H95.1689V7.71968H95.2177V7.76871H95.2665V7.81773H95.3153V7.86675H95.4129V7.91578H95.4617V7.9648H95.5105V8.01382H95.5593V8.06285H95.6569V8.11187H95.7057V8.16089H95.7545V8.20992H95.8033V8.25893H95.8521V8.30796H95.9497V8.35698H95.9986V8.40601H96.0473V8.45503H96.0962V8.50405H96.1938V8.55308H96.2426V8.6021H96.2914V8.65112H96.3402V8.70015H96.389V8.74916H96.4378V8.79819H96.5354V8.84721H96.5842V8.89624H96.633V8.94526H96.6818V8.99428H96.7306V9.04331H96.7794V9.09233H96.8282V9.14135H96.877V9.19038H96.9258V9.2394H97.0234V9.28843H97.0722V9.33744H97.1211V9.38647H97.1699V9.43549H97.2187V9.48451H97.2675V9.53354H97.3163V9.58256H97.3651V9.63158H97.4139V9.68061H97.4627V9.72963H97.5115V9.77865H97.5603V9.82767H97.6579V9.8767H97.7067V9.92572H97.7555V9.97475H97.8043V10.0238H97.8531V10.0728H97.9019V10.1218H97.9507V10.1708H97.9995V10.2199H98.0483V10.2689H98.0971V10.3179H98.146V10.3669H98.1948V10.416H98.2436V10.465H98.2924V10.514H98.3412V10.563H98.39V10.612H98.4388V10.6611H98.4876V10.7101H98.5364V10.7591H98.5852V10.8081H98.634V10.9062H98.6828V10.9552H98.7316V11.0042H98.7804V11.0533H98.8292V11.1023H98.878V11.1513H98.9268V11.2003H98.9756V11.2493H99.0244V11.2984H99.0732V11.3474H99.122V11.4454H99.1708V11.4945H99.2197V11.5435H99.2684V11.5925H99.3173V11.6415H99.3661V11.6906H99.4149V11.7396H99.4637V11.7886H99.5125V11.8376H99.5613V11.9357H99.6101V11.9847H99.6589V12.0337H99.7077V12.0827H99.7565V12.1318H99.8053V12.2298H99.8541V12.2788H99.9029V12.3279H99.9517V12.3769H100.001V12.4749H100.049V12.5239H100.098V12.573H100.147V12.622H100.196V12.671H100.245V12.7691H100.293V12.8181H100.342V12.8671H100.391V12.9161H100.44V13.0142H100.489V13.0632H100.537V13.1122H100.586V13.2103H100.635V13.2593H100.684V13.3083H100.733V13.4064H100.781V13.4554H100.83V13.5044H100.879V13.6025H100.928V13.6515H100.977V13.7495H101.025V13.7985H101.074V13.8476H101.123V13.9456H101.172V13.9946H101.221V14.0927H101.269V14.1417H101.318V14.1907H101.367V14.2888H101.416V14.3378H101.465V14.4358H101.513V14.4849H101.562V14.5829H101.611V14.6319H101.66V14.73H101.709V14.828H101.757V14.8771H101.806V14.9751H101.855V15.0241H101.904V15.1222H101.953V15.2202H102.002V15.2692H102.05V15.3673H102.099V15.4163H102.148V15.5144H102.197V15.5634H102.246V15.6614H102.294V15.7595H102.343V15.8575H102.392V15.9556H102.441V16.0046H102.49V16.1026H102.538V16.2007H102.587V16.2987H102.636V16.3968H102.685V16.4948H102.734V16.5438H102.782V16.6419H102.831V16.7399H102.88V16.838H102.929V16.936H102.978V17.0341H103.026V17.0831H103.075V17.2302H103.124V17.3282H103.173V17.4263H103.222V17.5243H103.27V17.6223H103.319V17.7694H103.368V17.8675H103.417V17.9655H103.466V18.0636H103.514V18.1616H103.563V18.2596H103.612V18.4067H103.661V18.5048H103.71V18.6028H103.758V18.7499H103.807V18.8969H103.856V18.995H103.905V19.1421H103.954V19.2891H104.002V19.3872H104.051V19.5342H104.1V19.6813H104.149V19.7794H104.198V19.9264H104.247V20.0735H104.295V20.2206H104.344V20.3676H104.393V20.5147H104.442V20.7108H104.491V20.8579H104.539V21.054H104.588V21.201H104.637V21.3481H104.686V21.5442H104.735V21.6913H104.783V21.9364H104.832V22.1325H104.881V22.3776H104.93V22.6227H104.979V22.8188H105.027V23.0639H105.076V23.309H105.125V23.6032H105.174V23.9463H105.223V24.2895H105.271V24.6817H105.32V25.0248H105.369V25.6131H105.418V26.4465H105.467V29.1428H105.418V29.682H105.369V30.2703H105.32V30.8096H105.271V31.2017H105.223V31.5449H105.174V31.839H105.125V32.1332H105.076V32.4273H105.027V32.7705H104.979V33.0646H104.93V33.3097H104.881V33.5058H104.832V33.7019H104.783V33.947H104.735V34.1431H104.686V34.3392H104.637V34.5843H104.588V34.7804H104.539V35.0255H104.491V35.2216H104.442V35.3687H104.393V35.5648H104.344V35.7119H104.295V35.8589H104.247V36.055H104.198V36.2021H104.149V36.3982H104.1V36.5453H104.051V36.6923H104.002V36.8884H103.954V37.0355H103.905V37.1826H103.856V37.3786H103.807V37.5257H103.758V37.6728H103.71V37.7708H103.661V37.9179H103.612V38.065H103.563V38.212H103.514V38.3591H103.466V38.5062H103.417V38.6042H103.368V38.7513H103.319V38.8984H103.27V39.0454H103.222V39.1925H103.173V39.2905H103.124V39.4376H103.075V39.5357H103.026V39.6827H102.978V39.7808H102.929V39.9278H102.88V40.0259H102.831V40.173H102.782V40.271H102.734V40.3691H102.685V40.4671H102.636V40.6142H102.587V40.7122H102.538V40.8103H102.49V40.9083H102.441V41.0064H102.392V41.1534H102.343V41.2515H102.294V41.3005H102.246V41.3985H102.197V41.4966H102.148V41.5946H102.099V41.6927H102.05V41.7907H102.002V41.8888H101.953V41.9868H101.904V42.0849H101.855V42.1829H101.806V42.281H101.757V42.33H101.709V42.428H101.66V42.5261H101.611V42.6241H101.562V42.6731H101.513V42.7712H101.465V42.8692H101.416V42.9183H101.367V43.0163H101.318V43.1143H101.269V43.1634H101.221V43.2614H101.172V43.3104H101.123V43.4085H101.074V43.5065H101.025V43.5556H100.977V43.6536H100.928V43.7516H100.879V43.8007H100.83V43.8987H100.781V43.9477H100.733V43.9968H100.684V44.0948H100.635V44.1438H100.586V44.2419H100.537V44.2909H100.489V44.3889H100.44V44.438H100.391V44.487H100.342V44.585H100.293V44.6341H100.245V44.7321H100.196V44.7811H100.147V44.8792H100.098V44.9282H100.049V44.9772H100.001V45.0753H99.9517V45.1243H99.9029V45.1733H99.8541V45.2714H99.8053V45.3204H99.7565V45.3694H99.7077V45.4184H99.6589V45.5165H99.6101V45.5655H99.5613V45.6145H99.5125V45.6635H99.4637V45.7616H99.4149V45.8106H99.3661V45.8596H99.3173V45.9087H99.2684V46.0067H99.2197V46.0557H99.1708V46.1048H99.122V46.1538H99.0732V46.2518H99.0244V46.3008H98.9756V46.3499H98.9268V46.3989H98.878V46.4479H98.8292V46.4969H98.7804V46.546H98.7316V46.595H98.6828V46.693H98.634V46.7421H98.5852V46.7911H98.5364V46.8401H98.4876V46.8891H98.4388V46.9381H98.39V46.9872H98.3412V47.0362H98.2924V47.1342H98.2436V47.1833H98.1948V47.2323H98.146V47.2813H98.0971V47.3303H98.0483V47.3794H97.9995V47.4284H97.9507V47.4774H97.9019V47.5264H97.8531V47.5754H97.8043V47.6245H97.7555V47.6735H97.7067V47.7225H97.6579V47.7715H97.6091V47.8206H97.5603V47.8696H97.5115V47.9186H97.4627V47.9676H97.4139V48.0167H97.3651V48.0657H97.3163V48.1147H97.2675V48.1637H97.2187V48.2127H97.1699V48.2618H97.1211V48.3108H97.0722V48.3598H97.0234V48.4088H96.9746V48.4579H96.9258V48.5069H96.877V48.5559H96.8282V48.6049H96.7794V48.654H96.7306V48.703H96.6818V48.752H96.633V48.801H96.5842V48.85H96.4866V48.8991H96.4378V48.9481H96.389V48.9971H96.3402V49.0461H96.2914V49.0952H96.2426V49.1442H96.1938V49.1932H96.145V49.2422H96.0962V49.2913H96.0473V49.3403H95.9497V49.3893H95.9009V49.4383H95.8521V49.4873H95.8033V49.5364H95.7545V49.5854H95.7057V49.6344H95.6569V49.6834H95.5593V49.7325H95.5105V49.7815H95.4617V49.8305H95.4129V49.8795H95.3153V49.9286H95.2665V49.9776H95.2177V50.0266H95.1689V50.0756H95.1201V50.1246H95.0225V50.1737H94.9737V50.2227H94.9248V50.2717H94.876V50.3207H94.7784V50.3698H94.7296V50.4188H94.6808V50.4678H94.632V50.5168H94.5832V50.5659H94.4856V50.6149H94.4368V50.6639H94.388V50.7129H94.2904V50.7619H94.2416V50.811H94.1928V50.86H94.0952V50.909H94.0464V50.958H93.9976V51.0071H93.9V51.0561H93.8511V51.1051H93.8023V51.1541H93.7047V51.2032H93.6559V51.2522H93.5583V51.3012H93.5095V51.3502H93.4607V51.3992H93.3631V51.4483H93.3143V51.4973H93.2655V51.5463H93.1679V51.5953H93.1191V51.6444H93.0215V51.6934H92.9727V51.7424H92.8751V51.7914H92.8262V51.8405H92.7286V51.8895H92.6798V51.9385H92.5822V51.9875H92.5334V52.0365H92.4358V52.0856H92.387V52.1346H92.2894V52.1836H92.2406V52.2326H92.143V52.2817H92.0942V52.3307H91.9966V52.3797H91.9478V52.4287H91.899V52.4778H91.8014V52.5268H91.7037V52.5758H91.6549V52.6248H91.5573V52.6738H91.4597V52.7229H91.4109V52.7719H91.3133V52.8209H91.2157V52.8699H91.1669V52.919H91.0693V52.968H90.9717V53.017H90.9229V53.066H90.8253V53.1151H90.7765V53.1641H90.6789V53.2131H90.5812V53.2621H90.5324V53.3111H90.4348V53.3602H90.3372V53.4092H90.2396V53.4582H90.142V53.5072H90.0932V53.5563H89.9956V53.6053H89.898V53.6543H89.8004V53.7033H89.7028V53.7524H89.654V53.8014H89.5564V53.8504H89.4587V53.8994H89.3611V53.9484H89.2635V53.9975H89.2147V54.0465H89.1171V54.0955H89.0195V54.1445H88.9219V54.1936H88.8243V54.2426H88.7267V54.2916H88.6291V54.3406H88.5315V54.3897H88.4338V54.4387H88.3362V54.4877H88.2386V54.5367H88.141V54.5857H88.0434V54.6348H87.9458V54.6838H87.8482V54.7328H87.7506V54.7818H87.653V54.8309H87.5554V54.8799H87.4089V54.9289H87.3113V54.9779H87.2137V55.027H87.1161V55.076H86.9697V55.125H86.8721V55.174H86.7745V55.223H86.6769V55.2721H86.5793V55.3211H86.4329V55.3701H86.3353V55.4191H86.2376V55.4682H86.14V55.5172H85.9936V55.5662H85.896V55.6152H85.7496V55.6643H85.652V55.7133H85.5056V55.7623H85.408V55.8113H85.2615V55.8603H85.1639V55.9094H85.0175V55.9584H84.9199V56.0074H84.7735V56.0564H84.6759V56.1055H84.5295V56.1545H84.4319V56.2035H84.2855V56.2525H84.139V56.3016H83.9926V56.3506H83.8462V56.3996H83.6998V56.4486H83.6022V56.4977H83.4558V56.5467H83.3094V56.5957H83.1629V56.6447H83.0165V56.6937H82.8701V56.7428H82.7237V56.7918H82.5773V56.8408H82.4309V56.8898H82.2357V56.9389H82.0893V56.9879H81.9428V57.0369H81.7964V57.0859H81.65V57.1349H81.4548V57.184H81.3084V57.233H81.1132V57.282H80.9179V57.331H80.7715V57.3801H80.5763V57.4291H80.3811V57.4781H80.1859V57.5271H80.0395V57.5762H79.8442V57.6252H79.649V57.6742H79.405V57.7232H79.2098V57.7722H78.9658V57.8213H78.7705V57.8703H78.5265V57.9193H78.3313V57.9683H78.0873V58.0174H77.8433V58.0664H77.5504V58.1154H77.3064V58.1644H77.0136V58.2135H76.7696V58.2625H76.4767V58.3115H76.1351V58.3605H75.7447V58.4095H75.403V58.4586H75.0614V58.5076H74.6222V58.5566H74.0853V58.6056H73.5973V58.6547H72.914V58.7037H71.9867V58.7527" fill="url(#paint0_linear_4082_1362)"/>
</g>
<path d="M118.781 16.4569V24.2424C118.781 24.6411 118.232 24.7739 117.929 24.7739H115.775C115.283 24.7739 115.076 24.5271 115.038 24.489C114.981 24.4134 114.943 24.3184 114.943 24.2424V11.4634C114.943 11.3874 114.981 11.2928 115.038 11.2163C115.076 11.1786 115.283 10.9315 115.775 10.9315H117.627C118.025 10.9315 118.157 11.0075 118.308 11.1595L126.739 19.1723L126.72 11.4443C126.72 11.3688 126.758 11.2928 126.814 11.1972C126.852 11.1595 127.06 10.9129 127.552 10.9129H129.726C130.217 10.9129 130.425 11.1404 130.462 11.1972C130.539 11.2928 130.557 11.3688 130.557 11.4443L130.577 24.2232C130.577 24.2992 130.557 24.3942 130.482 24.4702C130.425 24.5463 130.217 24.7739 129.726 24.7739H127.968C127.571 24.7739 127.439 24.6979 127.268 24.5463L118.781 16.4569Z" fill="white"/>
<path d="M136.409 17.8431C136.409 20.4635 139.32 21.8685 141.607 21.8685C143.932 21.8685 145.671 20.7102 146.371 19.4383C146.674 18.9255 146.824 18.375 146.824 17.8431C146.824 15.2414 143.857 13.8364 141.607 13.8364C139.358 13.8364 137.637 14.9379 136.881 16.1341C136.579 16.6851 136.409 17.2548 136.409 17.8431ZM132.571 17.8431C132.571 15.5076 133.782 12.7167 137.808 11.2926C138.904 10.9127 140.227 10.6087 141.607 10.6087C145.785 10.6087 150.662 13.1153 150.662 17.8431C150.662 18.8117 150.454 19.78 150 20.7293C148.979 22.7992 146.295 25.0776 141.607 25.0776C137.619 25.0776 132.571 22.2672 132.571 17.8431Z" fill="white"/>
<path d="M156.494 14.1219V16.552H163.771C164.359 16.552 164.793 16.0966 164.793 15.5078C164.793 14.995 164.339 14.1219 163.771 14.1219H156.494ZM156.494 19.7616V24.2992C156.494 24.4513 156.192 24.7739 155.738 24.7739H153.413C152.959 24.7739 152.657 24.4513 152.657 24.2992V11.3688C152.657 11.2355 153.034 10.9129 153.413 10.9129H163.771C166.323 10.9129 168.63 12.8498 168.63 15.5078C168.63 17.7296 166.873 19.362 164.736 19.6851C164.831 19.7993 164.944 19.9322 165.077 20.0651C165.53 20.5206 166.078 21.1282 166.646 21.7171C167.213 22.3058 167.799 22.9132 168.214 23.3498C168.441 23.5968 168.611 23.7868 168.725 23.9197C168.801 24.0147 168.857 24.0526 168.895 24.1095C168.971 24.2232 168.99 24.2992 168.99 24.3373C168.99 24.4702 168.668 24.7739 168.252 24.7739H165.265C164.963 24.7739 164.736 24.6792 164.623 24.5463L160.124 19.7616H156.494Z" fill="white"/>
<path d="M177.029 13.8366H171.17C170.394 13.8366 170.47 13.3812 170.488 13.3435L171.245 11.2355C171.264 11.1026 171.509 10.9129 171.907 10.9129H185.933C186.311 10.9129 186.557 11.1026 186.594 11.2355L187.388 13.3435C187.407 13.3812 187.483 13.8366 186.708 13.8366H180.848V24.3184C180.848 24.4513 180.489 24.7739 180.111 24.7739H177.767C177.37 24.7739 177.029 24.4513 177.029 24.3184V13.8366Z" fill="white"/>
<path d="M201.629 16.2484V11.4255C201.629 11.3687 201.648 11.2927 201.724 11.1971C201.761 11.1211 201.969 10.9128 202.442 10.9128H204.634C205.107 10.9128 205.314 11.1211 205.352 11.1971C205.428 11.2927 205.447 11.3687 205.447 11.4255V24.2612C205.447 24.3182 205.428 24.4132 205.371 24.4889C205.239 24.6978 204.956 24.793 204.634 24.793H202.442C202.121 24.793 201.836 24.6978 201.704 24.4889C201.648 24.4132 201.629 24.3182 201.629 24.2612V19.4575H193.633L193.651 24.2612C193.651 24.3372 193.633 24.4132 193.557 24.508C193.501 24.5649 193.292 24.793 192.819 24.793H190.627C190.305 24.793 190.022 24.6978 189.89 24.4889C189.833 24.4132 189.814 24.3182 189.814 24.2612V11.4255C189.814 11.3687 189.833 11.2927 189.908 11.1971C189.946 11.1211 190.155 10.9128 190.627 10.9128H192.819C193.236 10.9128 193.463 11.0834 193.557 11.1785C193.633 11.2731 193.651 11.3496 193.651 11.4255V16.2484H201.629Z" fill="white"/>
<path d="M211.696 21.565H221.639C222.055 21.565 222.395 21.8879 222.395 22.0585V22.1158L221.639 24.4134C221.62 24.565 221.242 24.7739 220.902 24.7739H208.672C208.199 24.7739 207.99 24.565 207.952 24.489C207.877 24.4134 207.858 24.3184 207.858 24.2613V11.4257C207.858 11.3688 207.877 11.2928 207.952 11.1972C207.99 11.1212 208.199 10.9129 208.672 10.9129H210.883C211.356 10.9129 211.563 11.1212 211.601 11.1972C211.677 11.2928 211.696 11.3688 211.696 11.4257V21.565Z" fill="white"/>
<path d="M232.046 15.2606C231.8 15.7543 231.46 16.3999 231.139 17.0078C230.817 17.6534 230.477 18.2991 230.25 18.7927C230.137 18.9633 230.061 19.1344 229.985 19.2673H234.088L232.046 15.2606ZM228.379 22.4762L227.377 24.432C227.301 24.584 226.924 24.793 226.621 24.793H224.088C223.653 24.793 223.293 24.4511 223.293 24.2991C223.293 24.2231 223.313 24.1662 223.332 24.1283L229.91 11.2545C229.948 11.1971 230.155 10.9128 230.666 10.9128H233.426C233.993 10.9128 234.163 11.1971 234.182 11.2545L240.78 24.1283C240.798 24.1662 240.817 24.2231 240.817 24.2803C240.817 24.3372 240.798 24.4132 240.76 24.4701C240.647 24.6978 240.325 24.793 240.042 24.793H237.509C237.132 24.793 236.847 24.603 236.753 24.432L235.732 22.4762H228.379Z" fill="white"/>
<path d="M246.14 16.4569V24.2424C246.14 24.6411 245.591 24.7739 245.288 24.7739H243.134C242.642 24.7739 242.435 24.5271 242.397 24.489C242.34 24.4134 242.302 24.3184 242.302 24.2424V11.4634C242.302 11.3874 242.34 11.2928 242.397 11.2163C242.435 11.1786 242.642 10.9315 243.134 10.9315H244.987C245.384 10.9315 245.516 11.0075 245.667 11.1595L254.098 19.1723L254.079 11.4443C254.079 11.3688 254.117 11.2928 254.173 11.1972C254.211 11.1595 254.419 10.9129 254.911 10.9129H257.085C257.576 10.9129 257.784 11.1404 257.822 11.1972C257.898 11.2928 257.916 11.3688 257.916 11.4443L257.936 24.2232C257.936 24.2992 257.916 24.3942 257.841 24.4702C257.784 24.5463 257.576 24.7739 257.085 24.7739H255.326C254.93 24.7739 254.797 24.6979 254.627 24.5463L246.14 16.4569Z" fill="white"/>
<path d="M264.184 14.1218V21.5841H268.097C272.388 21.5841 273.183 20.1599 273.183 17.8623C273.183 15.7925 271.877 14.1218 268.097 14.1218H264.184ZM261.311 24.793C260.914 24.793 260.346 24.603 260.346 24.1283V11.577C260.346 11.1025 260.914 10.9128 261.311 10.9128H268.097C272.558 10.9128 277 12.9065 277 17.8623C277 20.7484 275.299 24.793 268.097 24.793H261.311Z" fill="white"/>
<path d="M118.781 36.7462H126.02C126.587 36.7462 127.079 36.0435 127.079 35.5118C127.079 34.9806 126.664 33.9929 126.058 33.9929H118.781V36.7462ZM118.781 39.955V44.1705C118.781 44.3034 118.384 44.6641 117.987 44.6641H115.737C115.321 44.6641 114.943 44.3034 114.943 44.1705V31.2966C114.943 30.9362 115.454 30.7842 115.737 30.7842H126.058C128.648 30.7842 130.916 32.816 130.916 35.4738V35.55C130.822 38.17 128.554 39.955 125.983 39.955H118.781Z" fill="white"/>
<path d="M137.293 37.7341C137.293 40.3542 140.204 41.7596 142.491 41.7596C144.817 41.7596 146.556 40.6008 147.256 39.3291C147.557 38.8165 147.709 38.2657 147.709 37.7341C147.709 35.1326 144.741 33.7274 142.491 33.7274C140.242 33.7274 138.522 34.8289 137.766 36.0248C137.463 36.5756 137.293 37.1453 137.293 37.7341ZM133.456 37.7341C133.456 35.3984 134.665 32.6074 138.692 31.1832C139.789 30.8035 141.112 30.4995 142.491 30.4995C146.669 30.4995 151.546 33.006 151.546 37.7341C151.546 38.7025 151.338 39.6705 150.885 40.62C149.864 42.6898 147.18 44.9683 142.491 44.9683C138.503 44.9683 133.456 42.1583 133.456 37.7341Z" fill="white"/>
<path d="M169.662 38.6261L173.102 31.1261C173.159 31.0119 173.291 30.9172 173.481 30.8411L173.631 30.8032H176.43C176.826 30.8032 177.147 31.088 177.147 31.2209C177.147 31.259 177.147 31.3159 177.129 31.3538L171.136 44.3608C171.061 44.5127 170.796 44.6831 170.437 44.6831H168.357L168.149 44.5693C168.112 44.5312 167.942 44.3792 167.942 44.3417L164.974 37.1259L161.987 44.3417C161.95 44.4556 161.515 44.6831 161.287 44.6831H159.322L159.17 44.6456C158.981 44.5693 158.868 44.4746 158.811 44.3608L152.819 31.3538C152.8 31.3159 152.8 31.2779 152.8 31.2209C152.8 31.088 153.102 30.8032 153.518 30.8032H156.127C156.486 30.8032 156.751 30.974 156.826 31.1261L160.286 38.6261L162.97 32.1516C163.102 31.8097 163.253 31.4679 163.405 31.145C163.443 30.974 163.745 30.8032 164.104 30.8032H165.843C166.316 30.8032 166.467 30.9551 166.543 31.145C166.694 31.4679 166.845 31.8097 166.978 32.1516L169.662 38.6261Z" fill="white"/>
<path d="M183.41 41.417H193.504C193.939 41.417 194.298 41.74 194.298 41.9111C194.298 41.9486 194.279 41.9677 194.261 42.0058L193.542 44.2278C193.504 44.3982 193.164 44.6265 192.785 44.6265H180.442C179.969 44.6265 179.761 44.4172 179.686 44.3224C179.591 44.2461 179.573 44.1324 179.573 44.0566V31.3726C179.573 31.2966 179.591 31.1829 179.686 31.1068C179.761 31.0118 179.969 30.8221 180.442 30.8221H192.785C193.164 30.8221 193.504 31.0308 193.542 31.202L194.261 33.4236C194.279 33.4613 194.298 33.4996 194.298 33.5373C194.298 33.7271 193.939 34.0312 193.504 34.0312H183.41V36.1198H190.782C191.198 36.1198 191.557 36.4423 191.557 36.6323V36.6704L190.82 38.9109C190.782 39.1008 190.423 39.3287 190.045 39.3287H183.41V41.417Z" fill="white"/>
<path d="M200.958 34.0028V36.4331H208.236C208.821 36.4331 209.257 35.9777 209.257 35.3888C209.257 34.8762 208.803 34.0028 208.236 34.0028H200.958ZM200.958 39.6423V44.1804C200.958 44.3323 200.656 44.6548 200.202 44.6548H197.877C197.423 44.6548 197.121 44.3323 197.121 44.1804V31.2496C197.121 31.1167 197.499 30.794 197.877 30.794H208.236C210.788 30.794 213.094 32.7307 213.094 35.3888C213.094 37.6108 211.336 39.2431 209.2 39.5661C209.294 39.6801 209.408 39.813 209.54 39.9459C209.994 40.4018 210.542 41.009 211.109 41.5979C211.676 42.1868 212.262 42.794 212.679 43.231C212.905 43.4776 213.075 43.6678 213.189 43.8007C213.264 43.8955 213.321 43.9336 213.358 43.9903C213.435 44.104 213.454 44.1804 213.454 44.2185C213.454 44.3514 213.132 44.6548 212.717 44.6548H209.73C209.427 44.6548 209.2 44.56 209.087 44.4271L204.588 39.6423H200.958Z" fill="white"/>
</g>
<defs>
<linearGradient id="paint0_linear_4082_1362" x1="49.7914" y1="67.094" x2="85.8279" y2="2.03975" gradientUnits="userSpaceOnUse">
<stop stop-color="#91D22D"/>
<stop offset="0.288226" stop-color="#91D22D"/>
<stop offset="1" stop-color="#117ABE"/>
</linearGradient>
<clipPath id="clip0_4082_1362">
<rect width="277" height="69" fill="white"/>
</clipPath>
</defs>
</svg>
