<svg width="1621" height="794" viewBox="0 0 1621 794" fill="none" xmlns="http://www.w3.org/2000/svg">
<path d="M718.756 793.313V792.749H710.575V792.185H702.979V791.621H697.72V791.057H692.46V790.494H687.201V789.93H683.695V789.366H679.605V788.802H676.098V788.238H672.592V787.674H669.086V787.111H666.164V786.547H663.243V785.983H660.321V785.419H657.399V784.855H654.477V784.291H651.555V783.728H649.218V783.164H646.881V782.6H644.543V782.036H641.622V781.472H639.284V780.908H637.531V780.345H635.194V779.781H632.856V779.217H631.103V778.653H628.766V778.089H627.013V777.525H625.26V776.962H623.506V776.398H621.169V775.834H619.416V775.27H617.663V774.706H615.91V774.142H614.157V773.579H612.404V773.015H610.651V772.451H609.482V771.887H607.729V771.323H605.976V770.759H604.223V770.196H602.47V769.632H601.301V769.068H599.548V768.504H598.379V767.94H596.626V767.376H595.457V766.813H593.704V766.249H591.951V765.685H590.783V765.121H589.614V764.557H587.861V763.993H586.692V763.43H585.523V762.866H583.77V762.302H582.602V761.738H580.849V761.174H579.68V760.61H578.511V760.047H577.342V759.483H575.589V758.919H574.421V758.355H573.252V757.791H572.083V757.227H570.915V756.664H569.746V756.1H567.993V755.536H566.824V754.972H565.655V754.408H564.487V753.844H563.318V753.281H562.149V752.717H560.981V752.153H559.812V751.589H558.643V751.025H557.474V750.461H556.306V749.898H555.137V749.334H553.968V748.77H552.8V748.206H551.631V747.642H550.462V747.078H549.294V746.515H548.125V745.951H546.956V745.387H546.372V744.823H545.203V744.259H544.034V743.695H542.866V743.132H541.697V742.568H540.528V742.004H539.359V741.44H538.775V740.876H537.606V740.312H536.438V739.749H535.269V739.185H534.685V738.621H533.516V738.057H532.347V737.493H531.763V736.929H530.594V736.366H529.425V735.802H528.257V735.238H527.672V734.674H526.504V734.11H525.335V733.546H524.751V732.983H523.582V732.419H522.413V731.855H521.829V731.291H520.66V730.727H520.076V730.163H518.907V729.6H517.738V729.036H517.154V728.472H515.985V727.908H515.401V727.344H514.232V726.78H513.063V726.217H512.479V725.653H511.31V725.089H510.726V724.525H509.557V723.961H508.973V723.397H507.804V722.834H507.22V722.27H506.051V721.706H505.467V721.142H504.298V720.578H503.714V720.014H503.129V719.451H501.961V718.887H501.376V718.323H500.208V717.759H499.623V717.195H498.455V716.631H497.87V716.068H496.701V715.504H496.117V714.94H494.948V714.376H494.364V713.812H493.78V713.248H492.611V712.685H492.027V712.121H491.442V711.557H490.274V710.993H489.689V710.429H489.105V709.865H487.936V709.302H487.352V708.738H486.767V708.174H485.599V707.61H485.014V707.046H484.43V706.482H483.261V705.919H482.677V705.355H482.093V704.791H480.924V704.227H480.34V703.663H479.755V703.099H479.171V702.536H478.587V701.972H477.418V701.408H476.833V700.844H476.249V700.28H475.665V699.717H474.496V699.153H473.912V698.589H473.327V698.025H472.743V697.461H472.159V696.897H470.99V696.334H470.406V695.77H469.821V695.206H469.237V694.642H468.068V694.078H467.484V693.514H466.899V692.951H466.315V692.387H465.731V691.823H465.146V691.259H464.562V690.695H463.393V690.131H462.809V689.568H462.225V689.004H461.64V688.44H461.056V687.876H460.472V687.312H459.887V686.748H459.303V686.185H458.718V685.621H457.55V685.057H456.965V684.493H456.381V683.929H455.797V683.365H455.212V682.802H454.628V682.238H454.044V681.674H453.459V681.11H452.875V680.546H452.291V679.982H451.706V679.419H451.122V678.855H450.538V678.291H449.953V677.727H449.369V677.163H448.784V676.599H448.2V676.036H447.616V675.472H447.031V674.908H446.447V674.344H445.863V673.78H445.278V673.216H444.694V672.653H444.11V672.089H443.525V671.525H442.941V670.961H442.357V670.397H441.772V669.833H441.188V669.27H440.603V668.706H440.019V668.142H439.435V667.578H438.85V667.014H438.266V666.45H437.682V665.887H437.097V665.323H436.513V664.759H435.929V663.631H435.344V663.067H434.76V662.504H434.176V661.94H433.591V661.376H433.007V660.812H432.422V660.248H431.838V659.684H431.254V659.121H430.669V658.557H430.085V657.993H429.501V656.865H428.916V656.301H428.332V655.738H427.748V655.174H427.163V654.61H426.579V653.482H425.995V652.918H425.41V652.355H424.826V651.791H424.242V650.663H423.657V650.099H423.073V649.535H422.488V648.972H421.904V648.408H421.32V647.28H420.735V646.716H420.151V646.152H419.567V645.589H418.982V644.461H418.398V643.897H417.814V643.333H417.229V642.769H416.645V641.642H416.061V641.078H415.476V639.95H414.892V639.386H414.307V638.823H413.723V637.695H413.139V637.131H412.554V636.567H411.97V635.44H411.386V634.876H410.801V633.748H410.217V633.184H409.633V632.62H409.048V631.493H408.464V630.929H407.88V629.801H407.295V629.237H406.711V628.674H406.127V627.546H405.542V626.982H404.958V625.854H404.373V624.727H403.789V624.163H403.205V623.035H402.62V622.471H402.036V621.344H401.452V620.216H400.867V619.652H400.283V618.525H399.699V617.961H399.114V616.833H398.53V616.269H397.946V615.142H397.361V614.014H396.777V613.45H396.193V612.322H395.608V611.195H395.024V610.067H394.439V609.503H393.855V608.376H393.271V607.248H392.686V606.12H392.102V604.993H391.518V603.865H390.933V603.301H390.349V602.173H389.765V601.046H389.18V599.918H388.596V598.79H388.012V597.663H387.427V596.535H386.843V595.407H386.258V594.28H385.674V593.152H385.09V592.024H384.505V590.897H383.921V589.205H383.337V588.078H382.752V586.95H382.168V585.822H381.584V584.695H380.999V583.003H380.415V581.875H379.831V580.748H379.246V579.62H378.662V577.929H378.078V576.801H377.493V575.109H376.909V573.418H376.324V572.29H375.74V570.599H375.156V568.907H374.571V567.78H373.987V566.088H373.403V564.397H372.818V563.269H372.234V561.577H371.65V559.322H371.065V557.631H370.481V555.375H369.897V553.684H369.312V551.992H368.728V549.737H368.143V548.046H367.559V545.79H366.975V544.099H366.39V541.843H365.806V539.024H365.222V536.205H364.637V533.95H364.053V531.131H363.469V528.311H362.884V526.056H362.3V522.673H361.716V518.726H361.131V514.779H360.547V510.269H359.963V506.322H359.378V500.684H358.794V491.098H358.209V456.705H358.794V450.502H359.378V443.736H359.963V437.534H360.547V433.587H361.131V430.204H361.716V426.258H362.3V422.875H362.884V419.492H363.469V415.545H364.053V412.162H364.637V409.906H365.222V407.651H365.806V404.832H366.39V402.577H366.975V400.321H367.559V397.502H368.143V395.247H368.728V392.428H369.312V390.172H369.897V387.917H370.481V385.662H371.065V383.97H371.65V382.279H372.234V380.023H372.818V378.332H373.403V376.64H373.987V374.385H374.571V372.693H375.156V371.002H375.74V368.747H376.324V367.055H376.909V365.364H377.493V363.108H378.078V361.417H378.662V359.725H379.246V358.034H379.831V356.906H380.415V355.215H380.999V353.523H381.584V351.832H382.168V350.14H382.752V349.013H383.337V347.321H383.921V345.63H384.505V343.938H385.09V342.247H385.674V341.119H386.258V339.427H386.843V338.3H387.427V336.608H388.012V335.481H388.596V333.789H389.18V332.661H389.765V330.97H390.349V329.842H390.933V328.715H391.518V327.587H392.102V325.895H392.686V324.768H393.271V323.64H393.855V322.512H394.439V321.385H395.024V319.693H395.608V319.129H396.193V318.002H396.777V316.874H397.361V315.746H397.946V314.619H398.53V313.491H399.114V312.363H399.699V311.236H400.283V310.108H400.867V308.98H401.452V308.417H402.036V307.289H402.62V306.161H403.205V305.034H403.789V303.906H404.373V302.778H404.958V302.214H405.542V301.087H406.127V300.523H406.711V299.395H407.295V298.268H407.88V297.704H408.464V296.576H409.048V295.448H409.633V294.885H410.217V293.757H410.801V292.629H411.386V292.065H411.97V290.938H412.554V290.374H413.139V289.246H413.723V288.682H414.307V287.555H414.892V286.991H415.476V285.863H416.061V285.299H416.645V284.172H417.229V283.608H417.814V283.044H418.398V281.916H418.982V281.353H419.567V280.225H420.151V279.661H420.735V279.097H421.32V277.97H421.904V277.406H422.488V276.278H423.073V275.714H423.657V275.15H424.242V274.023H424.826V273.459H425.41V272.895H425.995V271.767H426.579V271.204H427.163V270.64H427.748V270.076H428.332V268.948H428.916V268.384H429.501V267.821H430.085V267.257H430.669V266.129H431.254V265.565H431.838V265.001H432.422V264.438H433.007V263.31H433.591V262.746H434.176V262.182H434.76V261.618H435.344V261.055H435.929V259.927H436.513V259.363H437.097V258.799H437.682V258.235H438.266V257.672H438.85V257.108H439.435V256.544H440.019V255.98H440.603V254.852H441.188V254.289H441.772V253.725H442.357V253.161H442.941V252.597H443.525V252.033H444.11V251.469H444.694V250.906H445.278V249.778H445.863V249.214H446.447V248.65H447.031V248.086H447.616V247.523H448.2V246.959H448.784V246.395H449.369V245.831H449.953V245.267H450.538V244.703H451.122V244.14H451.706V243.576H452.291V243.012H452.875V242.448H453.459V241.884H454.044V241.32H454.628V240.757H455.212V240.193H455.797V239.629H456.381V239.065H456.965V238.501H457.55V237.937H458.134V237.374H458.718V236.81H459.303V236.246H459.887V235.682H460.472V235.118H461.056V234.555H461.64V233.991H462.225V233.427H462.809V232.863H463.978V232.299H464.562V231.735H465.146V231.171H465.731V230.608H466.315V230.044H466.899V229.48H467.484V228.916H468.068V228.352H468.652V227.788H469.821V227.225H470.406V226.661H470.99V226.097H471.574V225.533H472.159V224.969H472.743V224.406H473.327V223.842H473.912V223.278H474.496V222.714H475.665V222.15H476.249V221.586H476.833V221.022H477.418V220.459H478.002V219.895H479.171V219.331H479.755V218.767H480.34V218.203H480.924V217.639H482.093V217.076H482.677V216.512H483.261V215.948H483.846V215.384H484.43V214.82H485.599V214.256H486.183V213.693H486.767V213.129H487.352V212.565H488.521V212.001H489.105V211.437H489.689V210.874H490.274V210.31H491.442V209.746H492.027V209.182H493.195V208.618H493.78V208.054H494.364V207.49H495.533V206.927H496.117V206.363H496.701V205.799H497.87V205.235H498.455V204.671H499.039V204.108H500.208V203.544H500.792V202.98H501.376V202.416H502.545V201.852H503.129V201.288H503.714V200.724H504.883V200.161H505.467V199.597H506.636V199.033H507.22V198.469H508.389V197.905H508.973V197.341H510.142V196.778H510.726V196.214H511.895V195.65H512.479V195.086H513.648V194.522H514.232V193.958H515.401V193.395H515.985V192.831H517.154V192.267H517.738V191.703H518.907V191.139H519.491V190.576H520.66V190.012H521.244V189.448H522.413V188.884H522.997V188.32H524.166V187.756H525.335V187.193H525.919V186.629H527.088V186.065H528.257V185.501H528.841V184.937H530.01V184.373H531.178V183.81H531.763V183.246H532.931V182.682H533.516V182.118H534.685V181.554H535.853V180.99H536.438V180.427H537.606V179.863H538.775V179.299H539.944V178.735H540.528V178.171H541.697V177.607H542.866V177.044H544.034V176.48H545.203V175.916H546.372V175.352H546.956V174.788H548.125V174.224H549.294V173.661H550.462V173.097H551.631V172.533H552.215V171.969H553.384V171.405H554.553V170.841H555.721V170.278H556.89V169.714H558.059V169.15H559.227V168.586H560.396V168.022H561.565V167.458H562.734V166.895H563.902V166.331H565.071V165.767H566.24V165.203H567.408V164.639H568.577V164.075H569.746V163.512H570.915V162.948H572.083V162.384H573.252V161.82H575.005V161.256H576.174V160.692H577.342V160.129H578.511V159.565H579.68V159.001H581.433V158.437H582.602V157.873H583.77V157.309H584.939V156.746H586.692V156.182H587.861V155.618H589.03V155.054H590.198V154.49H591.951V153.926H593.12V153.363H594.873V152.799H596.042V152.235H597.795V151.671H598.964V151.107H600.717V150.543H601.885V149.98H603.638V149.416H604.807V148.852H606.56V148.288H607.729V147.724H609.482V147.16H611.235V146.596H612.988V146.033H614.157V145.469H615.91V144.905H617.663V144.341H619.416V143.777H621.169V143.214H622.338V142.65H624.091V142.086H625.844V141.522H627.597V140.958H629.35V140.394H631.103V139.831H633.441V139.267H635.194V138.703H636.947V138.139H638.7V137.575H640.453V137.011H642.79V136.448H644.543V135.884H646.296V135.32H648.634V134.756H650.971V134.192H652.724V133.628H655.062V133.065H657.399V132.501H659.737V131.937H661.49V131.373H663.827V130.809H666.164V130.245H668.502V129.682H671.424V129.118H673.761V128.554H676.683V127.99H679.02V127.426H681.942V126.862H684.279V126.299H687.201V125.735H690.707V125.171H693.629V124.607H697.135V124.043H700.057V123.479H703.563V122.916H707.654V122.352H711.744V121.788H715.835V121.224H719.925V120.66H724.6V120.096H730.443V119.533H736.871V118.969H742.715V118.405H753.818V117.841H781.282V117.277H781.867V117.841H797.06V118.405H805.825V118.969H812.253V119.533H818.681V120.096H823.356V120.66H827.446V121.224H831.537V121.788H835.627V122.352H839.133V122.916H842.055V123.479H845.561V124.043H848.483V124.607H851.405V125.171H854.327V125.735H857.248V126.299H859.001V126.862H861.339V127.426H863.676V127.99H866.014V128.554H868.351V129.118H870.689V129.682H873.026V130.245H874.779V130.809H876.532V131.373H878.87V131.937H880.623V132.501H882.376V133.065H884.129V133.628H885.882V134.192H887.635V134.756H889.388V135.32H891.141V135.884H892.894V136.448H894.647V137.011H895.816V137.575H897.569V138.139H899.322V138.703H900.491V139.267H902.244V139.831H903.412V140.394H905.165V140.958H906.334V141.522H906.919V142.086H905.75V141.522H903.412V140.958H901.659V140.394H899.322V139.831H896.985V139.267H894.647V138.703H892.31V138.139H889.972V137.575H887.635V137.011H884.713V136.448H881.207V135.884H877.701V135.32H874.779V134.756H871.273V134.192H867.767V133.628H861.923V133.065H854.911V132.501H848.483V131.937H822.771V132.501H814.591V133.065H805.825V133.628H801.735V134.192H797.644V134.756H793.554V135.32H789.463V135.884H785.373V136.448H781.867V137.011H779.529V137.575H776.607V138.139H773.686V138.703H770.764V139.267H768.426V139.831H765.505V140.394H762.583V140.958H760.83V141.522H758.492V142.086H756.739V142.65H754.402V143.214H752.065V143.777H750.311V144.341H747.974V144.905H746.221V145.469H743.884V146.033H742.13V146.596H740.377V147.16H738.624V147.724H736.871V148.288H735.118V148.852H733.365V149.416H731.612V149.98H729.859V150.543H728.106V151.107H726.353V151.671H725.184V152.235H723.431V152.799H721.678V153.363H719.925V153.926H718.756V154.49H717.003V155.054H715.835V155.618H714.081V156.182H712.913V156.746H711.744V157.309H709.991V157.873H708.822V158.437H707.069V159.001H705.9V159.565H704.147V160.129H702.979V160.692H701.226V161.256H700.057V161.82H698.888V162.384H697.72V162.948H696.551V163.512H695.382V164.075H694.213V164.639H693.045V165.203H691.292V165.767H690.123V166.331H688.954V166.895H687.786V167.458H686.617V168.022H685.448V168.586H684.279V169.15H683.111V169.714H681.942V170.278H680.773V170.841H679.605V171.405H678.436V171.969H677.267V172.533H676.098V173.097H674.93V173.661H673.761V174.224H673.177V174.788H672.008V175.352H670.839V175.916H669.671V176.48H668.502V177.044H667.333V177.607H666.749V178.171H665.58V178.735H664.411V179.299H663.243V179.863H662.074V180.427H660.905V180.99H660.321V181.554H659.152V182.118H657.983V182.682H657.399V183.246H656.23V183.81H655.062V184.373H654.477V184.937H653.309V185.501H652.724V186.065H651.555V186.629H650.387V187.193H649.802V187.756H648.634V188.32H647.465V188.884H646.881V189.448H645.712V190.012H645.128V190.576H643.959V191.139H642.79V191.703H642.206V192.267H641.037V192.831H640.453V193.395H639.284V193.958H638.7V194.522H637.531V195.086H636.947V195.65H635.778V196.214H635.194V196.778H634.025V197.341H633.441V197.905H632.272V198.469H631.687V199.033H631.103V199.597H629.934V200.161H629.35V200.724H628.181V201.288H627.597V201.852H626.428V202.416H625.844V202.98H624.675V203.544H624.091V204.108H623.506V204.671H622.338V205.235H621.753V205.799H620.585V206.363H620V206.927H619.416V207.49H618.247V208.054H617.663V208.618H617.079V209.182H616.494V209.746H615.326V210.31H614.741V210.874H614.157V211.437H612.988V212.001H612.404V212.565H611.819V213.129H610.651V213.693H610.066V214.256H609.482V214.82H608.898V215.384H607.729V215.948H607.145V216.512H606.56V217.076H605.392V217.639H604.807V218.203H604.223V218.767H603.054V219.331H602.47V219.895H601.885V220.459H601.301V221.022H600.717V221.586H600.132V222.15H598.964V222.714H598.379V223.278H597.795V223.842H597.211V224.406H596.626V224.969H596.042V225.533H594.873V226.097H594.289V226.661H593.704V227.225H593.12V227.788H592.536V228.352H591.951V228.916H590.783V229.48H590.198V230.044H589.614V230.608H589.03V231.171H588.445V231.735H587.861V232.299H586.692V232.863H586.108V233.427H585.523V233.991H584.939V234.555H584.355V235.118H583.77V235.682H583.186V236.246H582.602V236.81H582.017V237.374H581.433V237.937H580.849V238.501H580.264V239.065H579.68V239.629H579.096V240.193H578.511V240.757H577.927V241.32H576.758V241.884H576.174V242.448H575.589V243.012H575.005V243.576H574.421V244.14H573.836V244.703H573.252V245.267H572.668V245.831H572.083V246.395H571.499V246.959H570.915V247.523H570.33V248.086H569.746V248.65H569.161V249.214H568.577V249.778H567.993V250.342H567.408V250.906H566.824V251.469H566.24V252.033H565.655V252.597H565.071V253.161H564.487V253.725H563.902V254.289H563.318V254.852H562.734V255.98H562.149V256.544H561.565V257.108H560.981V257.672H560.396V258.235H559.812V258.799H559.227V259.363H558.643V259.927H558.059V260.491H557.474V261.055H556.89V261.618H556.306V262.182H555.721V262.746H555.137V263.31H554.553V263.874H553.968V264.438H553.384V265.565H552.8V266.129H552.215V266.693H551.631V267.257H551.047V267.821H550.462V268.948H549.878V269.512H549.294V270.076H548.709V270.64H548.125V271.204H547.54V271.767H546.956V272.895H546.372V273.459H545.787V274.023H545.203V274.587H544.619V275.15H544.034V276.278H543.45V276.842H542.866V277.406H542.281V277.97H541.697V278.533H541.112V279.097H540.528V280.225H539.944V280.789H539.359V281.353H538.775V281.916H538.191V283.044H537.606V283.608H537.022V284.172H536.438V285.299H535.853V285.863H535.269V286.427H534.685V287.555H534.1V288.119H533.516V288.682H532.931V289.81H532.347V290.374H531.763V290.938H531.178V292.065H530.594V292.629H530.01V293.193H529.425V294.321H528.841V294.885H528.257V295.448H527.672V296.576H527.088V297.14H526.504V297.704H525.919V298.831H525.335V299.395H524.751V300.523H524.166V301.087H523.582V302.214H522.997V302.778H522.413V303.906H521.829V304.47H521.244V305.597H520.66V306.161H520.076V307.289H519.491V307.853H518.907V308.98H518.323V309.544H517.738V310.672H517.154V311.236H516.57V312.363H515.985V312.927H515.401V314.055H514.817V314.619H514.232V315.746H513.648V316.31H513.063V317.438H512.479V318.566H511.895V319.129H511.31V320.257H510.726V321.385H510.142V322.512H509.557V323.076H508.973V324.204H508.389V325.332H507.804V326.459H507.22V327.023H506.636V328.151H506.051V329.278H505.467V330.406H504.883V330.97H504.298V332.098H503.714V333.225H503.129V334.353H502.545V334.917H501.961V336.044H501.376V337.172H500.792V338.3H500.208V339.427H499.623V340.555H499.039V341.683H498.455V342.81H497.87V343.938H497.286V345.63H496.701V346.757H496.117V347.885H495.533V349.013H494.948V350.14H494.364V351.268H493.78V352.396H493.195V353.523H492.611V354.651H492.027V355.779H491.442V357.47H490.858V358.598H490.274V360.289H489.689V361.417H489.105V363.108H488.521V364.236H487.936V365.364H487.352V367.055H486.767V368.183H486.183V369.874H485.599V371.002H485.014V372.693H484.43V373.821H483.846V375.513H483.261V377.204H482.677V378.896H482.093V380.587H481.508V382.279H480.924V383.97H480.34V386.225H479.755V387.917H479.171V389.608H478.587V391.3H478.002V392.991H477.418V394.683H476.833V396.938H476.249V399.194H475.665V402.013H475.08V404.268H474.496V406.523H473.912V408.779H473.327V411.034H472.743V413.289H472.159V416.672H471.574V420.055H470.99V424.002H470.406V427.385H469.821V430.768H469.237V434.715H468.652V441.481H468.068V449.939H467.484V477.003H468.068V482.077H468.652V487.715H469.237V492.79H469.821V497.864H470.406V500.684H470.99V502.939H471.574V505.758H472.159V508.577H472.743V511.396H473.327V514.216H473.912V517.035H474.496V519.29H475.08V521.545H475.665V523.237H476.249V525.492H476.833V527.184H477.418V529.439H478.002V531.131H478.587V533.386H479.171V535.077H479.755V536.769H480.34V538.46H480.924V539.588H481.508V540.716H482.093V541.843H482.677V543.535H483.261V544.099H483.846V545.226H484.43V546.354H485.014V547.482H485.599V548.609H486.183V549.737H486.767V550.865H487.352V551.992H487.936V553.12H488.521V554.248H489.105V554.811H489.689V555.939H490.274V557.067H490.858V557.631H491.442V558.758H492.027V559.886H492.611V560.45H493.195V561.577H493.78V562.705H494.364V563.833H494.948V564.397H495.533V565.524H496.117V566.652H496.701V567.216H497.286V568.343H497.87V568.907H498.455V570.035H499.039V570.599H499.623V571.726H500.208V572.29H500.792V573.418H501.376V573.982H501.961V575.109H502.545V575.673H503.129V576.801H503.714V577.365H504.298V578.492H504.883V579.056H505.467V580.184H506.051V580.748H506.636V581.875H507.22V582.439H507.804V583.003H508.389V584.131H508.973V584.695H509.557V585.258H510.142V586.386H510.726V586.95H511.31V587.514H511.895V588.641H512.479V589.205H513.063V589.769H513.648V590.897H514.232V591.461H514.817V592.024H515.401V593.152H515.985V593.716H516.57V594.28H517.154V594.844H517.738V595.407H518.323V595.971H518.907V597.099H519.491V597.663H520.076V598.227H520.66V598.79H521.244V599.354H521.829V600.482H522.413V601.046H522.997V601.61H523.582V602.173H524.166V602.737H524.751V603.301H525.335V604.429H525.919V604.993H526.504V605.556H527.088V606.12H527.672V606.684H528.257V607.248H528.841V607.812H529.425V608.376H530.01V608.939H530.594V609.503H531.178V610.067H531.763V610.631H532.347V611.195H532.931V611.759H533.516V612.322H534.1V612.886H534.685V613.45H535.269V614.014H535.853V614.578H536.438V615.705H537.606V616.269H538.191V616.833H538.775V617.397H539.359V617.961H539.944V618.525H540.528V619.088H541.112V619.652H541.697V620.216H542.281V620.78H542.866V621.344H543.45V621.908H544.034V622.471H544.619V623.035H545.203V623.599H546.372V624.163H546.956V624.727H547.54V625.291H548.125V625.854H548.709V626.418H549.294V626.982H549.878V627.546H551.047V628.11H551.631V628.674H552.215V629.237H552.8V629.801H553.384V630.365H554.553V630.929H555.137V631.493H555.721V632.057H556.306V632.62H556.89V633.184H558.059V633.748H558.643V634.312H559.227V634.876H559.812V635.44H560.981V636.003H561.565V636.567H562.149V637.131H563.318V637.695H563.902V638.259H564.487V638.823H565.655V639.386H566.24V639.95H566.824V640.514H567.993V641.078H568.577V641.642H569.161V642.206H570.33V642.769H570.915V643.333H571.499V643.897H572.668V644.461H573.252V645.025H574.421V645.589H575.005V646.152H576.174V646.716H576.758V647.28H577.927V647.844H578.511V648.408H579.68V648.972H580.264V649.535H581.433V650.099H582.017V650.663H583.186V651.227H583.77V651.791H584.939V652.355H586.108V652.918H586.692V653.482H587.861V654.046H589.03V654.61H589.614V655.174H590.783V655.738H591.951V656.301H593.12V656.865H593.704V657.429H594.873V657.993H596.042V658.557H596.626V659.121H597.795V659.684H598.964V660.248H600.132V660.812H601.301V661.376H602.47V661.94H603.054V662.504H604.223V663.067H605.392V663.631H606.56V664.195H607.729V664.759H608.898V665.323H610.066V665.887H611.235V666.45H612.404V667.014H613.572V667.578H614.741V668.142H615.91V668.706H617.079V669.27H618.832V669.833H620V670.397H621.169V670.961H622.338V671.525H623.506V672.089H624.675V672.653H625.844V673.216H627.597V673.78H628.766V674.344H630.519V674.908H631.687V675.472H633.441V676.036H634.609V676.599H635.778V677.163H637.531V677.727H638.7V678.291H640.453V678.855H641.622V679.419H643.375V679.982H645.128V680.546H646.881V681.11H648.634V681.674H649.802V682.238H651.555V682.802H653.309V683.365H655.062V683.929H656.815V684.493H658.568V685.057H660.321V685.621H662.074V686.185H663.827V686.748H665.58V687.312H667.917V687.876H669.671V688.44H671.424V689.004H673.761V689.568H675.514V690.131H677.852V690.695H680.189V691.259H681.942V691.823H684.279V692.387H686.617V692.951H688.954V693.514H691.292V694.078H693.629V694.642H695.966V695.206H698.888V695.77H701.226V696.334H703.563V696.897H706.485V697.461H709.407V698.025H712.328V698.589H715.835V699.153H718.756V699.717H721.678V700.28H725.184V700.844H728.69V701.408H732.196V701.972H735.703V702.536H739.793V703.099H744.468V703.663H748.558V704.227H753.233V704.791H757.908V705.355H763.752V705.919H769.011V706.482H775.439V707.046H783.035V707.61H790.632V708.174H801.15V708.738H814.591V709.302H875.363V708.738H891.141V708.174H902.828V707.61H912.178V707.046H920.943V706.482H929.124V705.919H936.136V705.355H943.733V704.791H950.161V704.227H956.004V703.663H962.432V703.099H967.691V702.536H973.535V701.972H978.794V701.408H984.053V700.844H989.313V700.28H993.987V699.717H998.662V699.153H1003.34V698.589H1008.01V698.025H1012.69V697.461H1016.78V696.897H1021.45V696.334H1025.54V695.77H1029.63V695.206H1033.72V694.642H1037.81V694.078H1041.9V693.514H1045.99V692.951H1050.09V692.387H1053.59V691.823H1057.68V691.259H1061.19V690.695H1065.28V690.131H1068.78V689.568H1072.88V689.004H1076.38V688.44H1079.89V687.876H1083.39V687.312H1086.9V686.748H1090.41V686.185H1093.91V685.621H1097.42V685.057H1100.92V684.493H1103.85V683.929H1107.35V683.365H1110.86V682.802H1114.36V682.238H1117.29V681.674H1120.79V681.11H1123.71V680.546H1127.22V679.982H1130.73V679.419H1133.65V678.855H1136.57V678.291H1140.08V677.727H1143V677.163H1145.92V676.599H1149.43V676.036H1152.35V675.472H1155.27V674.908H1158.78V674.344H1161.7V673.78H1164.62V673.216H1167.54V672.653H1170.46V672.089H1173.38V671.525H1176.31V670.961H1179.81V670.397H1182.73V669.833H1185.66V669.27H1188.58V668.706H1191.5V668.142H1194.42V667.578H1197.34V667.014H1199.68V666.45H1202.6V665.887H1205.52V665.323H1208.45V664.759H1211.37V664.195H1214.29V663.631H1217.21V663.067H1220.13V662.504H1222.47V661.94H1225.39V661.376H1228.31V660.812H1231.24V660.248H1234.16V659.684H1236.49V659.121H1239.42V658.557H1242.34V657.993H1244.68V657.429H1247.6V656.865H1250.52V656.301H1253.44V655.738H1255.78V655.174H1258.7V654.61H1261.62V654.046H1263.96V653.482H1266.88V652.918H1269.22V652.355H1272.14V651.791H1275.06V651.227H1277.4V650.663H1280.32V650.099H1282.66V649.535H1285.58V648.972H1288.5V648.408H1290.84V647.844H1293.76V647.28H1296.1V646.716H1299.02V646.152H1301.36V645.589H1304.28V645.025H1306.62V644.461H1309.54V643.897H1311.88V643.333H1314.8V642.769H1317.14V642.206H1320.06V641.642H1322.39V641.078H1325.32V640.514H1327.65V639.95H1330.58V639.386H1332.91V638.823H1335.83V638.259H1338.17V637.695H1341.09V637.131H1343.43V636.567H1346.35V636.003H1348.69V635.44H1351.61V634.876H1353.95V634.312H1356.29V633.748H1359.21V633.184H1361.55V632.62H1364.47V632.057H1366.81V631.493H1369.73V630.929H1372.06V630.365H1374.99V629.801H1377.32V629.237H1379.66V628.674H1382.58V628.11H1384.92V627.546H1387.84V626.982H1390.18V626.418H1393.1V625.854H1395.44V625.291H1398.36V624.727H1400.7V624.163H1403.04V623.599H1405.96V623.035H1408.29V622.471H1411.22V621.908H1413.55V621.344H1416.48V620.78H1418.81V620.216H1421.74V619.652H1424.07V619.088H1426.99V618.525H1429.33V617.961H1432.25V617.397H1434.59V616.833H1437.51V616.269H1439.85V615.705H1442.77V615.142H1445.11V614.578H1448.03V614.014H1450.37V613.45H1453.29V612.886H1455.63V612.322H1458.55V611.759H1460.89V611.195H1463.81V610.631H1466.15V610.067H1469.07V609.503H1471.41V608.939H1474.33V608.376H1477.25V607.812H1479.59V607.248H1482.51V606.684H1484.85V606.12H1487.77V605.556H1490.69V604.993H1493.03V604.429H1495.95V603.865H1498.87V603.301H1501.21V602.737H1504.13V602.173H1507.05V601.61H1509.39V601.046H1512.31V600.482H1515.23V599.918H1517.57V599.354H1520.49V598.79H1523.41V598.227H1526.33V597.663H1529.26V597.099H1531.59V596.535H1534.52V595.971H1537.44V595.407H1540.36V594.844H1543.28V594.28H1546.2V593.716H1549.12V593.152H1552.05V592.588H1554.97V592.024H1557.89V591.461H1560.81V590.897H1563.73V590.333H1566.66V589.769H1569.58V589.205H1572.5V588.641H1575.42V588.078H1578.93V587.514H1581.85V586.95H1584.77V586.386H1587.69V585.822H1591.2V585.258H1594.12V584.695H1597.04V584.131H1600.55V583.567H1603.47V583.003H1606.98V582.439H1609.9V581.875H1613.4V581.312H1616.91V580.748H1619.83V580.184H1621V581.312H1618.66V581.875H1616.91V582.439H1615.16V583.003H1612.82V583.567H1611.07V584.131H1608.73V584.695H1606.98V585.258H1605.22V585.822H1602.89V586.386H1601.13V586.95H1598.79V587.514H1597.04V588.078H1595.29V588.641H1592.95V589.205H1591.2V589.769H1588.86V590.333H1587.11V590.897H1584.77V591.461H1583.02V592.024H1581.26V592.588H1578.93V593.152H1577.17V593.716H1574.84V594.28H1573.08V594.844H1571.33V595.407H1568.99V595.971H1567.24V596.535H1564.9V597.099H1563.15V597.663H1560.81V598.227H1559.06V598.79H1557.31V599.354H1554.97V599.918H1553.21V600.482H1550.88V601.046H1549.12V601.61H1546.79V602.173H1545.03V602.737H1543.28V603.301H1540.94V603.865H1539.19V604.429H1536.85V604.993H1535.1V605.556H1532.76V606.12H1531.01V606.684H1529.26V607.248H1526.92V607.812H1525.17V608.376H1522.83V608.939H1521.08V609.503H1518.74V610.067H1516.98V610.631H1514.65V611.195H1512.89V611.759H1511.14V612.322H1508.8V612.886H1507.05V613.45H1504.71V614.014H1502.96V614.578H1500.62V615.142H1498.87V615.705H1496.53V616.269H1494.78V616.833H1493.03V617.397H1490.69V617.961H1488.94V618.525H1486.6V619.088H1484.85V619.652H1482.51V620.216H1480.75V620.78H1478.42V621.344H1476.66V621.908H1474.33V622.471H1472.57V623.035H1470.82V623.599H1468.48V624.163H1466.73V624.727H1464.39V625.291H1462.64V625.854H1460.3V626.418H1458.55V626.982H1456.21V627.546H1454.46V628.11H1452.12V628.674H1450.37V629.237H1448.03V629.801H1446.28V630.365H1444.53V630.929H1442.19V631.493H1440.43V632.057H1438.1V632.62H1436.34V633.184H1434.01V633.748H1432.25V634.312H1429.92V634.876H1428.16V635.44H1425.83V636.003H1424.07V636.567H1421.74V637.131H1419.98V637.695H1417.64V638.259H1415.89V638.823H1413.55V639.386H1411.8V639.95H1410.05V640.514H1407.71V641.078H1405.96V641.642H1403.62V642.206H1401.87V642.769H1399.53V643.333H1397.78V643.897H1395.44V644.461H1393.69V645.025H1391.35V645.589H1389.6V646.152H1387.26V646.716H1385.51V647.28H1383.17V647.844H1381.41V648.408H1379.08V648.972H1377.32V649.535H1374.99V650.099H1373.23V650.663H1370.9V651.227H1369.14V651.791H1366.81V652.355H1365.05V652.918H1362.72V653.482H1360.96V654.046H1358.62V654.61H1356.87V655.174H1354.53V655.738H1352.78V656.301H1350.44V656.865H1348.69V657.429H1346.35V657.993H1344.6V658.557H1342.26V659.121H1340.51V659.684H1338.17V660.248H1336.42V660.812H1334.08V661.376H1332.33V661.94H1329.99V662.504H1328.24V663.067H1325.9V663.631H1324.15V664.195H1321.81V664.759H1320.06V665.323H1317.72V665.887H1315.97V666.45H1313.63V667.014H1311.29V667.578H1309.54V668.142H1307.2V668.706H1305.45V669.27H1303.11V669.833H1301.36V670.397H1299.02V670.961H1297.27V671.525H1294.93V672.089H1293.18V672.653H1290.84V673.216H1289.09V673.78H1286.75V674.344H1285V674.908H1282.66V675.472H1280.91V676.036H1278.57V676.599H1276.23V677.163H1274.48V677.727H1272.14V678.291H1270.39V678.855H1268.05V679.419H1266.3V679.982H1263.96V680.546H1262.21V681.11H1259.87V681.674H1258.12V682.238H1255.78V682.802H1253.44V683.365H1251.69V683.929H1249.35V684.493H1247.6V685.057H1245.26V685.621H1243.51V686.185H1241.17V686.748H1239.42V687.312H1237.08V687.876H1234.74V688.44H1232.99V689.004H1230.65V689.568H1228.9V690.131H1226.56V690.695H1224.22V691.259H1222.47V691.823H1220.13V692.387H1218.38V692.951H1216.04V693.514H1214.29V694.078H1211.95V694.642H1209.61V695.206H1207.86V695.77H1205.52V696.334H1203.77V696.897H1201.43V697.461H1199.68V698.025H1197.34V698.589H1195.01V699.153H1193.25V699.717H1190.91V700.28H1189.16V700.844H1186.82V701.408H1184.49V701.972H1182.73V702.536H1180.4V703.099H1178.64V703.663H1176.31V704.227H1173.97V704.791H1172.22V705.355H1169.88V705.919H1167.54V706.482H1165.79V707.046H1163.45V707.61H1161.7V708.174H1159.36V708.738H1157.02V709.302H1155.27V709.865H1152.93V710.429H1150.59V710.993H1148.84V711.557H1146.5V712.121H1144.75V712.685H1142.41V713.248H1140.08V713.812H1138.32V714.376H1135.99V714.94H1133.65V715.504H1131.9V716.068H1129.56V716.631H1127.22V717.195H1125.47V717.759H1123.13V718.323H1120.79V718.887H1119.04V719.451H1116.7V720.014H1114.36V720.578H1112.61V721.142H1110.27V721.706H1107.94V722.27H1106.18V722.834H1103.85V723.397H1101.51V723.961H1099.76V724.525H1097.42V725.089H1095.08V725.653H1093.33V726.217H1090.99V726.78H1088.65V727.344H1086.32V727.908H1084.56V728.472H1082.22V729.036H1079.89V729.6H1078.13V730.163H1075.8V730.727H1073.46V731.291H1071.12V731.855H1069.37V732.419H1067.03V732.983H1064.69V733.546H1062.36V734.11H1060.6V734.674H1058.27V735.238H1055.93V735.802H1053.59V736.366H1051.84V736.929H1049.5V737.493H1047.16V738.057H1044.83V738.621H1043.07V739.185H1040.74V739.749H1038.4V740.312H1036.06V740.876H1033.72V741.44H1031.97V742.004H1029.63V742.568H1027.3V743.132H1024.96V743.695H1022.62V744.259H1020.87V744.823H1018.53V745.387H1016.19V745.951H1013.86V746.515H1011.52V747.078H1009.18V747.642H1006.84V748.206H1005.09V748.77H1002.75V749.334H1000.42V749.898H998.078V750.461H995.74V751.025H993.403V751.589H991.066V752.153H988.728V752.717H986.391V753.281H984.053V753.844H981.716V754.408H979.963V754.972H977.625V755.536H975.288V756.1H972.951V756.664H970.613V757.227H968.276V757.791H965.938V758.355H963.601V758.919H960.679V759.483H958.342V760.047H956.004V760.61H953.667V761.174H951.33V761.738H948.992V762.302H946.655V762.866H944.317V763.43H941.98V763.993H939.058V764.557H936.721V765.121H934.383V765.685H932.046V766.249H929.708V766.813H926.787V767.376H924.449V767.94H921.527V768.504H919.19V769.068H916.853V769.632H913.931V770.196H911.593V770.759H908.672V771.323H906.334V771.887H903.412V772.451H900.491V773.015H898.153V773.579H895.232V774.142H892.31V774.706H889.972V775.27H887.05V775.834H884.129V776.398H881.207V776.962H878.285V777.525H875.363V778.089H873.026V778.653H869.52V779.217H866.598V779.781H863.676V780.345H860.755V780.908H857.833V781.472H854.911V782.036H851.405V782.6H847.899V783.164H844.977V783.728H841.471V784.291H838.549V784.855H835.043V785.419H830.952V785.983H827.446V786.547H823.94V787.111H819.85V787.674H815.759V788.238H811.669V788.802H806.994V789.366H802.903V789.93H797.644V790.494H792.385V791.057H787.126V791.621H780.114V792.185H772.517V792.749H761.999V793.313H718.756ZM830.952 675.472V674.908H818.681V674.344H811.669V673.78H805.241V673.216H799.397V672.653H795.307V672.089H791.216V671.525H787.126V670.961H783.035V670.397H780.114V669.833H777.192V669.27H774.27V668.706H770.764V668.142H767.842V667.578H764.92V667.014H762.583V666.45H760.246V665.887H757.908V665.323H756.155V664.759H753.818V664.195H751.48V663.631H749.143V663.067H746.805V662.504H745.052V661.94H743.299V661.376H741.546V660.812H739.209V660.248H737.456V659.684H735.703V659.121H733.95V658.557H732.196V657.993H730.443V657.429H728.69V656.865H726.937V656.301H725.769V655.738H724.016V655.174H722.847V654.61H721.094V654.046H719.341V653.482H718.172V652.918H716.419V652.355H715.25V651.791H714.081V651.227H713.497V650.663H714.666V651.227H716.419V651.791H718.172V652.355H719.925V652.918H722.263V653.482H724.6V654.046H726.937V654.61H729.275V655.174H731.612V655.738H734.534V656.301H738.04V656.865H740.962V657.429H744.468V657.993H747.974V658.557H751.48V659.121H755.571V659.684H762.583V660.248H769.011V660.812H802.319V660.248H810.5V659.684H817.512V659.121H821.603V658.557H825.693V657.993H829.784V657.429H833.874V656.865H837.38V656.301H840.302V655.738H843.224V655.174H845.561V654.61H848.483V654.046H851.405V653.482H854.327V652.918H856.664V652.355H859.001V651.791H861.339V651.227H863.092V650.663H865.429V650.099H867.767V649.535H869.52V648.972H871.857V648.408H873.61V647.844H875.948V647.28H878.285V646.716H880.038V646.152H881.791V645.589H883.544V645.025H884.713V644.461H886.466V643.897H888.219V643.333H889.972V642.769H891.725V642.206H893.478V641.642H895.232V641.078H896.985V640.514H898.738V639.95H899.906V639.386H901.659V638.823H902.828V638.259H904.581V637.695H905.75V637.131H907.503V636.567H908.672V636.003H909.84V635.44H911.593V634.876H912.762V634.312H914.515V633.748H915.684V633.184H917.437V632.62H918.606V632.057H920.359V631.493H921.527V630.929H922.696V630.365H923.865V629.801H925.034V629.237H926.202V628.674H927.371V628.11H928.54V627.546H929.708V626.982H931.461V626.418H932.63V625.854H933.799V625.291H934.968V624.727H936.136V624.163H937.305V623.599H938.474V623.035H939.642V622.471H940.811V621.908H941.98V621.344H943.149V620.78H944.317V620.216H945.486V619.652H946.07V619.088H947.239V618.525H948.408V617.961H949.576V617.397H950.745V616.833H951.914V616.269H952.498V615.705H953.667V615.142H954.836V614.578H956.004V614.014H957.173V613.45H958.342V612.886H958.926V612.322H960.095V611.759H961.263V611.195H962.432V610.631H963.017V610.067H964.185V609.503H965.354V608.939H965.938V608.376H967.107V607.812H967.691V607.248H968.86V606.684H970.029V606.12H970.613V605.556H971.782V604.993H972.951V604.429H973.535V603.865H974.704V603.301H975.288V602.737H976.457V602.173H977.625V601.61H978.21V601.046H979.379V600.482H980.547V599.918H981.132V599.354H981.716V598.79H982.885V598.227H983.469V597.663H984.638V597.099H985.222V596.535H986.391V595.971H986.975V595.407H988.144V594.844H988.728V594.28H989.313V593.716H990.481V593.152H991.066V592.588H992.234V592.024H992.819V591.461H993.987V590.897H994.572V590.333H995.74V589.769H996.325V589.205H997.494V588.641H998.078V588.078H998.662V587.514H999.831V586.95H1000.42V586.386H1001V585.822H1002.17V585.258H1002.75V584.695H1003.34V584.131H1004.51V583.567H1005.09V583.003H1005.67V582.439H1006.26V581.875H1007.43V581.312H1008.01V580.748H1008.6V580.184H1009.77V579.62H1010.35V579.056H1010.93V578.492H1012.1V577.929H1012.69V577.365H1013.27V576.801H1013.86V576.237H1015.02V575.673H1015.61V575.109H1016.19V574.546H1017.36V573.982H1017.95V573.418H1018.53V572.854H1019.11V572.29H1019.7V571.726H1020.87V571.163H1021.45V570.599H1022.04V570.035H1022.62V569.471H1023.21V568.907H1023.79V568.343H1024.96V567.78H1025.54V567.216H1026.13V566.652H1026.71V566.088H1027.3V565.524H1027.88V564.96H1029.05V564.397H1029.63V563.833H1030.22V563.269H1030.8V562.705H1031.39V562.141H1031.97V561.577H1033.14V561.014H1033.72V560.45H1034.31V559.886H1034.89V559.322H1035.48V558.758H1036.06V558.194H1036.65V557.631H1037.23V557.067H1037.81V556.503H1038.4V555.939H1038.98V555.375H1040.15V554.811H1040.74V554.248H1041.32V553.684H1041.9V553.12H1042.49V552.556H1043.07V551.992H1043.66V551.429H1044.24V550.865H1044.83V550.301H1045.41V549.737H1045.99V549.173H1046.58V548.609H1047.16V548.046H1047.75V547.482H1048.33V546.918H1048.92V546.354H1049.5V545.79H1050.09V545.226H1050.67V544.662H1051.25V544.099H1051.84V543.535H1052.42V542.971H1053.01V542.407H1053.59V541.843H1054.18V541.28H1054.76V540.716H1055.34V540.152H1055.93V539.588H1056.51V539.024H1057.1V538.46H1057.68V537.896H1058.27V537.333H1058.85V536.769H1059.44V536.205H1060.02V535.641H1060.6V535.077H1061.19V533.95H1061.77V533.386H1062.36V532.822H1062.94V532.258H1063.53V531.694H1064.11V531.131H1064.69V530.567H1065.28V530.003H1065.86V529.439H1066.45V528.875H1067.03V528.311H1067.62V527.748H1068.2V526.62H1068.78V526.056H1069.37V525.492H1069.95V524.928H1070.54V524.365H1071.12V523.801H1071.71V522.673H1072.29V522.109H1072.88V521.545H1073.46V520.982H1074.04V520.418H1074.63V519.29H1075.21V518.726H1075.8V518.162H1076.38V517.599H1076.97V517.035H1077.55V516.471H1078.13V515.343H1078.72V514.779H1079.3V514.216H1079.89V513.652H1080.47V513.088H1081.06V511.96H1081.64V511.396H1082.22V510.833H1082.81V510.269H1083.39V509.141H1083.98V508.577H1084.56V508.013H1085.15V506.886H1085.73V506.322H1086.32V505.758H1086.9V504.63H1087.48V504.067H1088.07V503.503H1088.65V502.375H1089.24V501.811H1089.82V501.247H1090.41V500.12H1090.99V499.556H1091.57V498.992H1092.16V497.864H1092.74V497.301H1093.33V496.737H1093.91V495.609H1094.5V495.045H1095.08V494.481H1095.67V493.354H1096.25V492.79H1096.83V491.662H1097.42V491.098H1098V489.971H1098.59V489.407H1099.17V488.279H1099.76V487.152H1100.34V486.588H1100.92V485.46H1101.51V484.896H1102.09V483.769H1102.68V483.205H1103.26V482.077H1103.85V481.513H1104.43V480.386H1105.01V479.822H1105.6V478.694H1106.18V478.13H1106.77V477.003H1107.35V476.439H1107.94V475.311H1108.52V474.183H1109.11V473.62H1109.69V472.492H1110.27V471.364H1110.86V470.237H1111.44V469.673H1112.03V468.545H1112.61V467.417H1113.2V466.29H1113.78V465.726H1114.36V464.598H1114.95V463.471H1115.53V462.907H1116.12V461.779H1116.7V460.651H1117.29V459.524H1117.87V458.96H1118.45V457.832H1119.04V456.705H1119.62V455.577H1120.21V454.449H1120.79V453.322H1121.38V452.194H1121.96V451.066H1122.55V449.939H1123.13V448.811H1123.71V447.683H1124.3V446.556H1124.88V444.864H1125.47V443.736H1126.05V442.609H1126.64V441.481H1127.22V440.353H1127.8V439.226H1128.39V438.098H1128.97V436.97H1129.56V435.279H1130.14V434.151H1130.73V432.46H1131.31V431.332H1131.9V429.641H1132.48V428.513H1133.06V427.385H1133.65V425.694H1134.23V424.566H1134.82V422.875H1135.4V421.747H1135.99V420.055H1136.57V418.928H1137.15V417.236H1137.74V415.545H1138.32V413.853H1138.91V412.162H1139.49V409.906H1140.08V408.215H1140.66V406.523H1141.24V404.832H1141.83V403.14H1142.41V401.449H1143V399.757H1143.58V397.502H1144.17V395.247H1144.75V392.991H1145.34V390.736H1145.92V388.481H1146.5V386.225H1147.09V383.406H1147.67V381.151H1148.26V378.896H1148.84V375.513H1149.43V372.13H1150.01V368.747H1150.59V364.8H1151.18V361.417H1151.76V357.47H1152.35V349.576H1152.93V341.683H1153.52V319.129H1152.93V311.8H1152.35V306.725H1151.76V301.651H1151.18V296.576H1150.59V293.193H1150.01V290.374H1149.43V287.555H1148.84V284.736H1148.26V281.916H1147.67V279.661H1147.09V276.842H1146.5V274.023H1145.92V272.331H1145.34V270.076H1144.75V268.384H1144.17V266.129H1143.58V264.438H1143V262.182H1142.41V260.491H1141.83V258.235H1141.24V256.544H1140.66V255.416H1140.08V253.725H1139.49V252.597H1138.91V250.906H1138.32V249.778H1137.74V248.65H1137.15V248.086H1136.57V246.959H1135.99V245.831H1135.4V244.703H1134.82V243.576H1134.23V242.448H1133.65V241.32H1133.06V240.193H1132.48V239.065H1131.9V238.501H1131.31V237.374H1130.73V236.246H1130.14V235.682H1129.56V234.555H1128.97V233.427H1128.39V232.299H1127.8V231.735H1127.22V230.608H1126.64V229.48H1126.05V228.916H1125.47V227.788H1124.88V226.661H1124.3V226.097H1123.71V224.969H1123.13V223.842H1122.55V223.278H1121.96V222.15H1121.38V221.586H1120.79V220.459H1120.21V219.895H1119.62V218.767H1119.04V218.203H1118.45V217.076H1117.87V216.512H1117.29V215.384H1116.7V214.82H1116.12V213.693H1115.53V213.129H1114.95V212.001H1114.36V211.437H1113.78V210.874H1113.2V209.746H1112.61V209.182H1112.03V208.618H1111.44V208.054H1110.86V206.927H1110.27V206.363H1109.69V205.799H1109.11V204.671H1108.52V204.108H1107.94V203.544H1107.35V202.416H1106.77V201.852H1106.18V201.288H1105.6V200.161H1105.01V199.597H1104.43V199.033H1103.85V198.469H1103.26V197.341H1102.68V196.778H1102.09V196.214H1101.51V195.65H1100.92V195.086H1100.34V194.522H1099.76V193.395H1099.17V192.831H1098.59V192.267H1098V191.703H1097.42V191.139H1096.83V190.576H1096.25V189.448H1095.67V188.884H1095.08V188.32H1094.5V187.756H1093.91V187.193H1093.33V186.629H1092.74V186.065H1092.16V185.501H1091.57V184.937H1090.99V184.373H1090.41V183.81H1089.82V183.246H1089.24V182.682H1088.65V182.118H1088.07V180.99H1087.48V180.427H1086.9V179.863H1086.32V179.299H1085.73V178.735H1085.15V178.171H1084.56V177.607H1083.98V177.044H1083.39V176.48H1082.81V175.916H1082.22V175.352H1081.64V174.788H1080.47V174.224H1079.89V173.661H1079.3V173.097H1078.72V172.533H1078.13V171.969H1077.55V171.405H1076.97V170.841H1076.38V170.278H1075.8V169.714H1075.21V169.15H1074.63V168.586H1074.04V168.022H1073.46V167.458H1072.29V166.895H1071.71V166.331H1071.12V165.767H1070.54V165.203H1069.95V164.639H1068.78V164.075H1068.2V163.512H1067.62V162.948H1067.03V162.384H1066.45V161.82H1065.28V161.256H1064.69V160.692H1064.11V160.129H1063.53V159.565H1062.94V159.001H1061.77V158.437H1061.19V157.873H1060.6V157.309H1060.02V156.746H1058.85V156.182H1058.27V155.618H1057.68V155.054H1056.51V154.49H1055.93V153.926H1055.34V153.363H1054.18V152.799H1053.59V152.235H1052.42V151.671H1051.84V151.107H1051.25V150.543H1050.09V149.98H1049.5V149.416H1048.92V148.852H1047.75V148.288H1047.16V147.724H1045.99V147.16H1045.41V146.596H1044.24V146.033H1043.66V145.469H1042.49V144.905H1041.9V144.341H1040.74V143.777H1040.15V143.214H1038.98V142.65H1038.4V142.086H1037.23V141.522H1036.65V140.958H1035.48V140.394H1034.31V139.831H1033.72V139.267H1032.55V138.703H1031.39V138.139H1030.22V137.575H1029.63V137.011H1028.46V136.448H1027.3V135.884H1026.71V135.32H1025.54V134.756H1024.37V134.192H1023.79V133.628H1022.62V133.065H1021.45V132.501H1020.28V131.937H1019.11V131.373H1017.95V130.809H1016.78V130.245H1015.61V129.682H1015.02V129.118H1013.86V128.554H1012.69V127.99H1011.52V127.426H1010.35V126.862H1009.18V126.299H1008.01V125.735H1006.84V125.171H1005.67V124.607H1003.92V124.043H1002.75V123.479H1001.58V122.916H1000.42V122.352H999.247V121.788H998.078V121.224H996.909V120.66H995.156V120.096H993.987V119.533H992.819V118.969H991.066V118.405H989.897V117.841H988.144V117.277H986.975V116.713H985.222V116.15H984.053V115.586H982.885V115.022H981.132V114.458H979.963V113.894H978.21V113.33H976.457V112.767H974.704V112.203H973.535V111.639H971.782V111.075H970.029V110.511H968.276V109.947H966.523V109.384H965.354V108.82H963.601V108.256H961.263V107.692H959.51V107.128H957.757V106.564H956.004V106.001H954.251V105.437H952.498V104.873H950.161V104.309H948.408V103.745H946.07V103.181H944.317V102.618H941.98V102.054H939.642V101.49H937.889V100.926H935.552V100.362H933.214V99.7985H930.877V99.2346H928.54V98.6708H925.618V98.1069H923.281V97.543H920.943V96.9792H918.606V96.4155H915.684V95.8516H912.762V95.2878H909.84V94.7239H906.919V94.1601H903.997V93.5963H901.075V93.0324H897.569V92.4686H894.063V91.9048H890.557V91.3409H886.466V90.7772H882.96V90.2133H878.87V89.6494H874.195V89.0856H870.104V88.5217H865.429V87.9579H860.17V87.3941H854.327V86.8303H848.483V86.2665H841.471V85.7026H833.874V85.1388H825.109V84.575H814.006V84.0111H795.891V83.4473H754.986V84.0111H736.287V84.575H724.016V85.1388H712.913V85.7026H704.147V86.2665H695.382V86.8303H688.37V87.3941H680.773V87.9579H674.345V88.5217H667.917V89.0856H662.074V89.6494H655.646V90.2133H650.387V90.7772H645.128V91.3409H639.868V91.9048H634.025V92.4686H629.35V93.0324H624.675V93.5963H620V94.1601H615.326V94.7239H610.651V95.2878H605.976V95.8516H601.885V96.4155H597.211V96.9792H593.12V97.543H589.03V98.1069H584.939V98.6708H580.849V99.2346H576.758V99.7985H572.668V100.362H569.161V100.926H565.071V101.49H561.565V102.054H557.474V102.618H553.968V103.181H549.878V103.745H546.372V104.309H542.866V104.873H539.359V105.437H535.853V106.001H532.347V106.564H528.841V107.128H525.335V107.692H521.829V108.256H518.323V108.82H515.401V109.384H511.895V109.947H508.389V110.511H504.883V111.075H501.961V111.639H498.455V112.203H495.533V112.767H492.027V113.33H489.105V113.894H485.599V114.458H482.677V115.022H479.171V115.586H476.249V116.15H473.327V116.713H469.821V117.277H466.899V117.841H463.978V118.405H461.056V118.969H458.134V119.533H454.628V120.096H451.706V120.66H448.784V121.224H445.863V121.788H442.941V122.352H440.019V122.916H437.097V123.479H434.176V124.043H431.254V124.607H428.332V125.171H425.41V125.735H422.488V126.299H419.567V126.862H416.645V127.426H413.723V127.99H410.801V128.554H407.88V129.118H404.958V129.682H402.62V130.245H399.699V130.809H396.777V131.373H393.855V131.937H390.933V132.501H388.596V133.065H385.674V133.628H382.752V134.192H379.831V134.756H377.493V135.32H374.571V135.884H371.65V136.448H369.312V137.011H366.39V137.575H363.469V138.139H361.131V138.703H358.209V139.267H355.288V139.831H352.95V140.394H350.029V140.958H347.691V141.522H344.769V142.086H341.848V142.65H339.51V143.214H336.588V143.777H334.251V144.341H331.329V144.905H328.407V145.469H326.07V146.033H323.148V146.596H320.811V147.16H317.889V147.724H315.552V148.288H312.63V148.852H310.292V149.416H307.371V149.98H305.033V150.543H302.111V151.107H299.774V151.671H296.852V152.235H294.515V152.799H291.593V153.363H289.256V153.926H286.334V154.49H283.996V155.054H281.075V155.618H278.737V156.182H275.815V156.746H273.478V157.309H271.141V157.873H268.219V158.437H265.881V159.001H262.96V159.565H260.622V160.129H257.7V160.692H255.363V161.256H252.441V161.82H250.104V162.384H247.182V162.948H244.845V163.512H242.507V164.075H239.585V164.639H237.248V165.203H234.326V165.767H231.989V166.331H229.067V166.895H226.73V167.458H223.808V168.022H221.47V168.586H219.133V169.15H216.211V169.714H213.874V170.278H210.952V170.841H208.615V171.405H205.693V171.969H203.355V172.533H200.434V173.097H198.096V173.661H195.174V174.224H192.837V174.788H189.915V175.352H187.578V175.916H185.24V176.48H182.319V177.044H179.981V177.607H177.059V178.171H174.722V178.735H171.8V179.299H169.463V179.863H166.541V180.427H163.619V180.99H161.282V181.554H158.36V182.118H156.023V182.682H153.101V183.246H150.764V183.81H147.842V184.373H145.504V184.937H142.583V185.501H139.661V186.065H137.323V186.629H134.402V187.193H132.064V187.756H129.142V188.32H126.221V188.884H123.883V189.448H120.961V190.012H118.04V190.576H115.702V191.139H112.78V191.703H109.859V192.267H106.937V192.831H104.6V193.395H101.678V193.958H98.7559V194.522H96.4185V195.086H93.4968V195.65H90.575V196.214H87.6532V196.778H84.7314V197.341H81.8097V197.905H78.8879V198.469H76.5505V199.033H73.6287V199.597H70.7069V200.161H67.7852V200.724H64.8634V201.288H61.9416V201.852H59.0198V202.416H56.0981V202.98H52.5919V203.544H49.6702V204.108H46.7484V204.671H43.8266V205.235H40.9048V205.799H37.9831V206.363H34.4769V206.927H31.5552V207.49H28.049V208.054H25.1273V208.618H22.2055V209.182H18.6994V209.746H15.7776V210.31H12.2714V210.874H9.34968V211.437H5.84355V212.001H2.33742V212.565H0V212.001H1.16871V211.437H2.92177V210.874H5.25919V210.31H7.01226V209.746H8.76532V209.182H11.1027V208.618H12.8558V208.054H15.1932V207.49H16.9463V206.927H18.6994V206.363H21.0368V205.799H22.7898V205.235H25.1273V204.671H26.8803V204.108H28.6334V203.544H30.9708V202.98H32.7239V202.416H35.0613V201.852H36.8143V201.288H38.5674V200.724H40.9048V200.161H42.6579V199.597H44.9953V199.033H46.7484V198.469H49.0858V197.905H50.8389V197.341H52.5919V196.778H54.9293V196.214H56.6824V195.65H59.0198V195.086H60.7729V194.522H63.1103V193.958H64.8634V193.395H66.6164V192.831H68.9539V192.267H70.7069V191.703H73.0443V191.139H74.7974V190.576H77.1348V190.012H78.8879V189.448H80.641V188.884H82.9784V188.32H84.7314V187.756H87.0689V187.193H88.8219V186.629H91.1593V186.065H92.9124V185.501H94.6655V184.937H97.0029V184.373H98.7559V183.81H101.093V183.246H102.846V182.682H105.184V182.118H106.937V181.554H109.274V180.99H111.027V180.427H112.78V179.863H115.118V179.299H116.871V178.735H119.208V178.171H120.961V177.607H123.299V177.044H125.052V176.48H127.389V175.916H129.142V175.352H130.895V174.788H133.233V174.224H134.986V173.661H137.323V173.097H139.076V172.533H141.414V171.969H143.167V171.405H145.504V170.841H147.257V170.278H149.595V169.714H151.348V169.15H153.101V168.586H155.438V168.022H157.191V167.458H159.529V166.895H161.282V166.331H163.619V165.767H165.372V165.203H167.71V164.639H169.463V164.075H171.8V163.512H173.553V162.948H175.891V162.384H177.644V161.82H179.397V161.256H181.734V160.692H183.487V160.129H185.825V159.565H187.578V159.001H189.915V158.437H191.668V157.873H194.006V157.309H195.759V156.746H198.096V156.182H199.849V155.618H202.187V155.054H203.94V154.49H206.277V153.926H208.03V153.363H210.368V152.799H212.121V152.235H214.458V151.671H216.211V151.107H218.549V150.543H220.302V149.98H222.055V149.416H224.392V148.852H226.145V148.288H228.483V147.724H230.236V147.16H232.573V146.596H234.326V146.033H236.664V145.469H238.417V144.905H240.754V144.341H242.507V143.777H244.845V143.214H246.598V142.65H248.935V142.086H250.688V141.522H253.026V140.958H254.779V140.394H257.116V139.831H258.869V139.267H261.207V138.703H262.96V138.139H265.297V137.575H267.05V137.011H269.388V136.448H271.141V135.884H273.478V135.32H275.231V134.756H277.568V134.192H279.322V133.628H281.659V133.065H283.412V132.501H285.749V131.937H287.503V131.373H289.84V130.809H291.593V130.245H293.93V129.682H295.683V129.118H298.021V128.554H300.358V127.99H302.111V127.426H304.449V126.862H306.202V126.299H308.539V125.735H310.292V125.171H312.63V124.607H314.383V124.043H316.72V123.479H318.473V122.916H320.811V122.352H322.564V121.788H324.901V121.224H326.654V120.66H328.992V120.096H330.745V119.533H333.082V118.969H334.835V118.405H337.173V117.841H339.51V117.277H341.263V116.713H343.601V116.15H345.354V115.586H347.691V115.022H349.444V114.458H351.782V113.894H353.535V113.33H355.872V112.767H357.625V112.203H359.963V111.639H362.3V111.075H364.053V110.511H366.39V109.947H368.143V109.384H370.481V108.82H372.234V108.256H374.571V107.692H376.324V107.128H378.662V106.564H380.999V106.001H382.752V105.437H385.09V104.873H386.843V104.309H389.18V103.745H390.933V103.181H393.271V102.618H395.608V102.054H397.361V101.49H399.699V100.926H401.452V100.362H403.789V99.7985H405.542V99.2346H407.88V98.6708H410.217V98.1069H411.97V97.543H414.307V96.9792H416.061V96.4155H418.398V95.8516H420.735V95.2878H422.488V94.7239H424.826V94.1601H426.579V93.5963H428.916V93.0324H430.669V92.4686H433.007V91.9048H435.344V91.3409H437.097V90.7772H439.435V90.2133H441.188V89.6494H443.525V89.0856H445.863V88.5217H447.616V87.9579H449.953V87.3941H452.291V86.8303H454.044V86.2665H456.381V85.7026H458.134V85.1388H460.472V84.575H462.809V84.0111H464.562V83.4473H466.899V82.8834H469.237V82.3196H470.99V81.7557H473.327V81.192H475.08V80.6281H477.418V80.0643H479.755V79.5004H481.508V78.9366H483.846V78.3728H486.183V77.809H487.936V77.2451H490.274V76.6813H492.611V76.1175H494.364V75.5536H496.701V74.9898H499.039V74.4259H500.792V73.8621H503.129V73.2983H505.467V72.7344H507.22V72.1707H509.557V71.6068H511.895V71.043H513.648V70.4791H515.985V69.9153H518.323V69.3515H520.076V68.7877H522.413V68.2238H524.751V67.66H526.504V67.0961H528.841V66.5323H531.178V65.9685H533.516V65.4046H535.269V64.8408H537.606V64.277H539.944V63.7131H541.697V63.1494H544.034V62.5854H546.372V62.0216H548.709V61.4578H550.462V60.8939H552.8V60.3301H555.137V59.7663H556.89V59.2025H559.227V58.6387H561.565V58.0748H563.902V57.511H566.24V56.9471H567.993V56.3833H570.33V55.8195H572.668V55.2556H575.005V54.6918H576.758V54.1279H579.096V53.5641H581.433V53.0003H583.77V52.4365H585.523V51.8726H587.861V51.3088H590.198V50.745H592.536V50.1812H594.873V49.6173H597.211V49.0535H598.964V48.4897H601.301V47.9258H603.638V47.362H605.976V46.7981H608.313V46.2343H610.651V45.6705H612.404V45.1066H614.741V44.5428H617.079V43.9789H619.416V43.4152H621.753V42.8513H624.091V42.2875H626.428V41.7237H628.766V41.1599H631.103V40.5959H632.856V40.0322H635.194V39.4683H637.531V38.9045H639.868V38.3407H642.206V37.7768H644.543V37.213H646.881V36.6492H649.218V36.0853H651.555V35.5215H653.893V34.9576H656.23V34.3939H658.568V33.83H660.905V33.2661H663.243V32.7023H666.164V32.1385H668.502V31.5747H670.839V31.0109H673.177V30.447H675.514V29.8832H677.852V29.3193H680.189V28.7555H683.111V28.1917H685.448V27.6279H687.786V27.064H690.123V26.5001H692.46V25.9363H695.382V25.3725H697.72V24.8087H700.641V24.2449H702.979V23.681H705.316V23.1172H708.238V22.5533H710.575V21.9894H713.497V21.4257H716.419V20.8618H718.756V20.298H721.678V19.7342H724.016V19.1703H726.937V18.6065H729.859V18.0427H732.781V17.4789H735.118V16.915H738.04V16.3511H740.962V15.7874H743.884V15.2235H746.805V14.6596H749.727V14.0958H752.649V13.532H755.571V12.9682H758.492V12.4044H761.414V11.8405H764.92V11.2767H767.842V10.7129H771.348V10.149H774.27V9.58527H777.776V9.02136H780.698V8.45752H784.204V7.89374H787.71V7.32983H791.801V6.76599H795.307V6.20221H798.813V5.63837H802.903V5.07458H806.994V4.51068H811.669V3.94684H815.759V3.38306H820.434V2.81921H825.693V2.25543H831.537V1.69153H836.796V1.12769H844.393V0.563904H851.989V0H906.334V0.563904H914.515V1.12769H920.943V1.69153H925.618V2.25543H930.877V2.81921H935.552V3.38306H939.058V3.94684H943.149V4.51068H946.655V5.07458H950.161V5.63837H953.083V6.20221H956.004V6.76599H958.926V7.32983H961.848V7.89374H964.77V8.45752H967.691V9.02136H970.029V9.58527H972.951V10.149H975.288V10.7129H977.625V11.2767H979.963V11.8405H982.3V12.4044H984.638V12.9682H986.975V13.532H988.728V14.0958H991.066V14.6596H992.819V15.2235H995.156V15.7874H996.909V16.3511H998.662V16.915H1000.42V17.4789H1002.17V18.0427H1003.92V18.6065H1005.67V19.1703H1007.43V19.7342H1009.18V20.298H1010.93V20.8618H1012.69V21.4257H1013.86V21.9894H1015.61V22.5533H1017.36V23.1172H1019.11V23.681H1020.28V24.2449H1022.04V24.8087H1023.21V25.3725H1024.96V25.9363H1026.13V26.5001H1027.88V27.064H1029.63V27.6279H1030.8V28.1917H1031.97V28.7555H1033.72V29.3193H1034.89V29.8832H1036.06V30.447H1037.81V31.0109H1038.98V31.5747H1040.74V32.1385H1041.9V32.7023H1043.07V33.2661H1044.24V33.83H1045.41V34.3939H1047.16V34.9576H1048.33V35.5215H1049.5V36.0853H1050.67V36.6492H1051.84V37.213H1053.59V37.7768H1054.76V38.3407H1055.93V38.9045H1057.1V39.4683H1058.27V40.0322H1059.44V40.5959H1060.6V41.1599H1061.77V41.7237H1062.94V42.2875H1064.11V42.8513H1065.28V43.4152H1066.45V43.9789H1067.62V44.5428H1068.78V45.1066H1069.95V45.6705H1071.12V46.2343H1072.29V46.7981H1072.88V47.362H1074.04V47.9258H1075.21V48.4897H1076.38V49.0535H1077.55V49.6173H1078.72V50.1812H1079.89V50.745H1080.47V51.3088H1081.64V51.8726H1082.81V52.4365H1083.98V53.0003H1085.15V53.5641H1085.73V54.1279H1086.9V54.6918H1088.07V55.2556H1088.65V55.8195H1089.82V56.3833H1090.99V56.9471H1092.16V57.511H1092.74V58.0748H1093.91V58.6387H1095.08V59.2025H1095.67V59.7663H1096.83V60.3301H1098V60.8939H1098.59V61.4578H1099.76V62.0216H1100.34V62.5854H1101.51V63.1494H1102.68V63.7131H1103.26V64.277H1104.43V64.8408H1105.01V65.4046H1106.18V65.9685H1107.35V66.5323H1107.94V67.0961H1109.11V67.66H1109.69V68.2238H1110.86V68.7877H1111.44V69.3515H1112.61V69.9153H1113.2V70.4791H1114.36V71.043H1114.95V71.6068H1116.12V72.1707H1116.7V72.7344H1117.87V73.2983H1118.45V73.8621H1119.04V74.4259H1120.21V74.9898H1120.79V75.5536H1121.96V76.1175H1122.55V76.6813H1123.71V77.2451H1124.3V77.809H1125.47V78.3728H1126.05V78.9366H1126.64V79.5004H1127.8V80.0643H1128.39V80.6281H1128.97V81.192H1130.14V81.7557H1130.73V82.3196H1131.31V82.8834H1132.48V83.4473H1133.06V84.0111H1133.65V84.575H1134.82V85.1388H1135.4V85.7026H1135.99V86.2665H1137.15V86.8303H1137.74V87.3941H1138.32V87.9579H1139.49V88.5217H1140.08V89.0856H1140.66V89.6494H1141.24V90.2133H1142.41V90.7772H1143V91.3409H1143.58V91.9048H1144.17V92.4686H1145.34V93.0324H1145.92V93.5963H1146.5V94.1601H1147.09V94.7239H1147.67V95.2878H1148.84V95.8516H1149.43V96.4155H1150.01V96.9792H1150.59V97.543H1151.76V98.1069H1152.35V98.6708H1152.93V99.2346H1153.52V99.7985H1154.1V100.362H1154.68V100.926H1155.85V101.49H1156.44V102.054H1157.02V102.618H1157.61V103.181H1158.19V103.745H1158.78V104.309H1159.36V104.873H1159.94V105.437H1160.53V106.001H1161.7V106.564H1162.28V107.128H1162.87V107.692H1163.45V108.256H1164.03V108.82H1164.62V109.384H1165.2V109.947H1165.79V110.511H1166.37V111.075H1166.96V111.639H1167.54V112.203H1168.13V112.767H1169.29V113.33H1169.88V113.894H1170.46V114.458H1171.05V115.022H1171.63V115.586H1172.22V116.15H1172.8V116.713H1173.38V117.277H1173.97V117.841H1174.55V118.405H1175.14V118.969H1175.72V119.533H1176.31V120.096H1176.89V120.66H1177.47V121.224H1178.06V121.788H1178.64V122.352H1179.23V122.916H1179.81V123.479H1180.4V124.043H1180.98V125.171H1181.57V125.735H1182.15V126.299H1182.73V126.862H1183.32V127.426H1183.9V127.99H1184.49V128.554H1185.07V129.118H1185.66V129.682H1186.24V130.245H1186.82V131.373H1187.41V131.937H1187.99V132.501H1188.58V133.065H1189.16V133.628H1189.75V134.192H1190.33V134.756H1190.91V135.32H1191.5V135.884H1192.08V137.011H1192.67V137.575H1193.25V138.139H1193.84V138.703H1194.42V139.267H1195.01V140.394H1195.59V140.958H1196.17V141.522H1196.76V142.086H1197.34V143.214H1197.93V143.777H1198.51V144.341H1199.1V144.905H1199.68V145.469H1200.26V146.596H1200.85V147.16H1201.43V147.724H1202.02V148.288H1202.6V149.416H1203.19V149.98H1203.77V150.543H1204.36V151.671H1204.94V152.235H1205.52V152.799H1206.11V153.926H1206.69V154.49H1207.28V155.054H1207.86V156.182H1208.45V156.746H1209.03V157.873H1209.61V158.437H1210.2V159.001H1210.78V160.129H1211.37V160.692H1211.95V161.82H1212.54V162.384H1213.12V162.948H1213.7V164.075H1214.29V164.639H1214.87V165.767H1215.46V166.331H1216.04V167.458H1216.63V168.022H1217.21V169.15H1217.8V170.278H1218.38V170.841H1218.96V171.969H1219.55V172.533H1220.13V173.661H1220.72V174.788H1221.3V175.352H1221.89V176.48H1222.47V177.044H1223.05V178.171H1223.64V178.735H1224.22V179.863H1224.81V180.99H1225.39V182.118H1225.98V183.246H1226.56V183.81H1227.14V184.937H1227.73V186.065H1228.31V187.193H1228.9V188.32H1229.48V189.448H1230.07V190.012H1230.65V191.139H1231.24V192.267H1231.82V193.395H1232.4V194.522H1232.99V195.65H1233.57V196.214H1234.16V197.905H1234.74V199.033H1235.33V200.161H1235.91V201.288H1236.49V202.416H1237.08V204.108H1237.66V205.235H1238.25V206.363H1238.83V207.49H1239.42V208.618H1240V209.746H1240.59V211.437H1241.17V212.565H1241.75V213.693H1242.34V215.384H1242.92V217.076H1243.51V218.203H1244.09V219.895H1244.68V221.586H1245.26V222.714H1245.84V224.406H1246.43V226.097H1247.01V227.225H1247.6V228.916H1248.18V230.608H1248.77V232.299H1249.35V233.991H1249.93V235.682H1250.52V237.937H1251.1V239.629H1251.69V241.884H1252.27V243.576H1252.86V245.267H1253.44V247.523H1254.03V249.214H1254.61V252.033H1255.19V254.289H1255.78V257.108H1256.36V259.927H1256.95V262.182H1257.53V265.001H1258.12V267.821H1258.7V271.204H1259.28V275.15H1259.87V279.097H1260.45V283.608H1261.04V287.555H1261.62V294.321H1262.21V303.906H1262.79V334.917H1262.21V341.119H1261.62V347.885H1261.04V354.087H1260.45V358.598H1259.87V362.544H1259.28V365.928H1258.7V369.31H1258.12V372.693H1257.53V376.64H1256.95V380.023H1256.36V382.842H1255.78V385.098H1255.19V387.353H1254.61V390.172H1254.03V392.428H1253.44V394.683H1252.86V397.502H1252.27V399.757H1251.69V402.577H1251.1V404.832H1250.52V406.523H1249.93V408.779H1249.35V410.47H1248.77V412.162H1248.18V414.417H1247.6V416.109H1247.01V418.364H1246.43V420.055H1245.84V421.747H1245.26V424.002H1244.68V425.694H1244.09V427.385H1243.51V429.641H1242.92V431.332H1242.34V433.024H1241.75V434.151H1241.17V435.843H1240.59V437.534H1240V439.226H1239.42V440.917H1238.83V442.609H1238.25V443.736H1237.66V445.428H1237.08V447.119H1236.49V448.811H1235.91V450.502H1235.33V451.63H1234.74V453.322H1234.16V454.449H1233.57V456.141H1232.99V457.268H1232.4V458.96H1231.82V460.088H1231.24V461.779H1230.65V462.907H1230.07V464.034H1229.48V465.162H1228.9V466.854H1228.31V467.981H1227.73V469.109H1227.14V470.237H1226.56V471.364H1225.98V473.056H1225.39V474.183H1224.81V474.747H1224.22V475.875H1223.64V477.003H1223.05V478.13H1222.47V479.258H1221.89V480.386H1221.3V481.513H1220.72V482.641H1220.13V483.769H1219.55V484.896H1218.96V486.024H1218.38V486.588H1217.8V487.715H1217.21V488.843H1216.63V489.971H1216.04V490.535H1215.46V491.662H1214.87V492.79H1214.29V493.354H1213.7V494.481H1213.12V495.609H1212.54V496.173H1211.95V497.301H1211.37V497.864H1210.78V498.992H1210.2V500.12H1209.61V500.684H1209.03V501.811H1208.45V502.939H1207.86V503.503H1207.28V504.63H1206.69V505.194H1206.11V505.758H1205.52V506.886H1204.94V507.45H1204.36V508.577H1203.77V509.141H1203.19V510.269H1202.6V510.833H1202.02V511.396H1201.43V512.524H1200.85V513.088H1200.26V514.216H1199.68V514.779H1199.1V515.907H1198.51V516.471H1197.93V517.035H1197.34V518.162H1196.76V518.726H1196.17V519.29H1195.59V520.418H1195.01V520.982H1194.42V521.545H1193.84V522.109H1193.25V523.237H1192.67V523.801H1192.08V524.365H1191.5V524.928H1190.91V526.056H1190.33V526.62H1189.75V527.184H1189.16V527.748H1188.58V528.875H1187.99V529.439H1187.41V530.003H1186.82V530.567H1186.24V531.694H1185.66V532.258H1185.07V532.822H1184.49V533.386H1183.9V533.95H1183.32V534.513H1182.73V535.077H1182.15V535.641H1181.57V536.769H1180.98V537.333H1180.4V537.896H1179.81V538.46H1179.23V539.024H1178.64V539.588H1178.06V540.152H1177.47V540.716H1176.89V541.843H1176.31V542.407H1175.72V542.971H1175.14V543.535H1174.55V544.099H1173.97V544.662H1173.38V545.226H1172.8V545.79H1172.22V546.354H1171.63V546.918H1171.05V547.482H1170.46V548.046H1169.88V548.609H1169.29V549.173H1168.71V549.737H1168.13V550.301H1167.54V550.865H1166.96V551.429H1166.37V551.992H1165.79V552.556H1165.2V553.12H1164.62V553.684H1164.03V554.248H1163.45V554.811H1162.87V555.375H1162.28V555.939H1161.7V556.503H1161.11V557.067H1160.53V557.631H1159.94V558.194H1159.36V558.758H1158.78V559.322H1158.19V559.886H1157.61V560.45H1157.02V561.014H1156.44V561.577H1155.27V562.141H1154.68V562.705H1154.1V563.269H1153.52V563.833H1152.93V564.397H1152.35V564.96H1151.76V565.524H1151.18V566.088H1150.59V566.652H1150.01V567.216H1148.84V567.78H1148.26V568.343H1147.67V568.907H1147.09V569.471H1146.5V570.035H1145.92V570.599H1145.34V571.163H1144.17V571.726H1143.58V572.29H1143V572.854H1142.41V573.418H1141.24V573.982H1140.66V574.546H1140.08V575.109H1139.49V575.673H1138.91V576.237H1137.74V576.801H1137.15V577.365H1136.57V577.929H1135.99V578.492H1134.82V579.056H1134.23V579.62H1133.65V580.184H1133.06V580.748H1132.48V581.312H1131.31V581.875H1130.73V582.439H1130.14V583.003H1128.97V583.567H1128.39V584.131H1127.8V584.695H1126.64V585.258H1126.05V585.822H1125.47V586.386H1124.3V586.95H1123.71V587.514H1123.13V588.078H1121.96V588.641H1121.38V589.205H1120.21V589.769H1119.62V590.333H1119.04V590.897H1117.87V591.461H1117.29V592.024H1116.7V592.588H1115.53V593.152H1114.95V593.716H1113.78V594.28H1113.2V594.844H1112.03V595.407H1111.44V595.971H1110.27V596.535H1109.69V597.099H1108.52V597.663H1107.94V598.227H1106.77V598.79H1106.18V599.354H1105.01V599.918H1104.43V600.482H1103.26V601.046H1102.68V601.61H1101.51V602.173H1100.92V602.737H1100.34V603.301H1099.17V603.865H1098V604.429H1097.42V604.993H1096.25V605.556H1095.08V606.12H1094.5V606.684H1093.33V607.248H1092.16V607.812H1091.57V608.376H1090.41V608.939H1089.24V609.503H1088.65V610.067H1087.48V610.631H1086.9V611.195H1085.73V611.759H1084.56V612.322H1083.98V612.886H1082.81V613.45H1081.64V614.014H1080.47V614.578H1079.3V615.142H1078.72V615.705H1077.55V616.269H1076.38V616.833H1075.21V617.397H1074.04V617.961H1073.46V618.525H1072.29V619.088H1071.12V619.652H1069.95V620.216H1068.78V620.78H1068.2V621.344H1067.03V621.908H1065.86V622.471H1064.69V623.035H1063.53V623.599H1062.36V624.163H1061.19V624.727H1060.02V625.291H1058.85V625.854H1057.68V626.418H1056.51V626.982H1055.34V627.546H1054.18V628.11H1053.01V628.674H1051.84V629.237H1050.67V629.801H1049.5V630.365H1048.33V630.929H1046.58V631.493H1045.41V632.057H1044.24V632.62H1043.07V633.184H1041.32V633.748H1040.15V634.312H1038.98V634.876H1037.81V635.44H1036.65V636.003H1034.89V636.567H1033.72V637.131H1032.55V637.695H1031.39V638.259H1029.63V638.823H1028.46V639.386H1026.71V639.95H1025.54V640.514H1023.79V641.078H1022.62V641.642H1020.87V642.206H1019.7V642.769H1017.95V643.333H1016.78V643.897H1015.02V644.461H1013.86V645.025H1012.1V645.589H1010.93V646.152H1009.18V646.716H1007.43V647.28H1005.67V647.844H1003.92V648.408H1002.17V648.972H1001V649.535H999.247V650.099H997.494V650.663H995.74V651.227H993.987V651.791H992.234V652.355H990.481V652.918H988.728V653.482H986.975V654.046H984.638V654.61H982.885V655.174H981.132V655.738H979.379V656.301H977.625V656.865H975.288V657.429H973.535V657.993H971.198V658.557H968.86V659.121H967.107V659.684H964.77V660.248H962.432V660.812H960.095V661.376H958.342V661.94H956.004V662.504H953.667V663.067H950.745V663.631H948.408V664.195H945.486V664.759H943.149V665.323H940.227V665.887H937.889V666.45H934.968V667.014H932.046V667.578H928.54V668.142H925.618V668.706H922.112V669.27H919.19V669.833H915.684V670.397H911.593V670.961H906.919V671.525H902.828V672.089H898.738V672.653H893.478V673.216H887.05V673.78H881.207V674.344H873.026V674.908H861.923V675.472" fill="white" fill-opacity="0.07"/>
</svg>
