<svg width="935" height="473" viewBox="0 0 935 473" fill="none" xmlns="http://www.w3.org/2000/svg">
<path d="M414.582 473V472.664H409.863V472.328H405.481V471.991H402.448V471.655H399.414V471.319H396.381V470.983H394.358V470.647H391.999V470.311H389.977V469.974H387.954V469.638H385.932V469.302H384.247V468.966H382.561V468.63H380.876V468.294H379.191V467.957H377.505V467.621H375.82V467.285H374.472V466.949H373.124V466.613H371.775V466.276H370.09V465.94H368.742V465.604H367.731V465.268H366.383V464.932H365.034V464.596H364.023V464.259H362.675V463.923H361.664V463.587H360.653V463.251H359.641V462.915H358.293V462.579H357.282V462.242H356.271V461.906H355.26V461.57H354.248V461.234H353.237V460.898H352.226V460.561H351.552V460.225H350.541V459.889H349.53V459.553H348.518V459.217H347.507V458.881H346.833V458.544H345.822V458.208H345.148V457.872H344.137V457.536H343.463V457.2H342.451V456.864H341.44V456.527H340.766V456.191H340.092V455.855H339.081V455.519H338.407V455.183H337.733V454.846H336.721V454.51H336.047V454.174H335.036V453.838H334.362V453.502H333.688V453.166H333.014V452.829H332.003V452.493H331.328V452.157H330.654V451.821H329.98V451.485H329.306V451.149H328.632V450.812H327.621V450.476H326.947V450.14H326.273V449.804H325.598V449.468H324.924V449.131H324.25V448.795H323.576V448.459H322.902V448.123H322.228V447.787H321.554V447.451H320.88V447.114H320.205V446.778H319.531V446.442H318.857V446.106H318.183V445.77H317.509V445.434H316.835V445.097H316.161V444.761H315.487V444.425H315.15V444.089H314.476V443.753H313.801V443.416H313.127V443.08H312.453V442.744H311.779V442.408H311.105V442.072H310.768V441.736H310.094V441.399H309.42V441.063H308.746V440.727H308.408V440.391H307.734V440.055H307.06V439.719H306.723V439.382H306.049V439.046H305.375V438.71H304.701V438.374H304.364V438.038H303.69V437.701H303.016V437.365H302.678V437.029H302.004V436.693H301.33V436.357H300.993V436.021H300.319V435.684H299.982V435.348H299.308V435.012H298.634V434.676H298.297V434.34H297.623V434.004H297.286V433.667H296.611V433.331H295.937V432.995H295.6V432.659H294.926V432.323H294.589V431.986H293.915V431.65H293.578V431.314H292.904V430.978H292.567V430.642H291.893V430.306H291.556V429.969H290.881V429.633H290.544V429.297H290.207V428.961H289.533V428.625H289.196V428.289H288.522V427.952H288.185V427.616H287.511V427.28H287.174V426.944H286.5V426.608H286.163V426.271H285.488V425.935H285.151V425.599H284.814V425.263H284.14V424.927H283.803V424.591H283.466V424.254H282.792V423.918H282.455V423.582H282.118V423.246H281.444V422.91H281.107V422.574H280.77V422.237H280.096V421.901H279.758V421.565H279.421V421.229H278.747V420.893H278.41V420.557H278.073V420.22H277.399V419.884H277.062V419.548H276.725V419.212H276.388V418.876H276.051V418.539H275.377V418.203H275.04V417.867H274.703V417.531H274.366V417.195H273.691V416.859H273.354V416.522H273.017V416.186H272.68V415.85H272.343V415.514H271.669V415.178H271.332V414.842H270.995V414.505H270.658V414.169H269.984V413.833H269.647V413.497H269.31V413.161H268.973V412.824H268.636V412.488H268.298V412.152H267.961V411.816H267.287V411.48H266.95V411.144H266.613V410.807H266.276V410.471H265.939V410.135H265.602V409.799H265.265V409.463H264.928V409.127H264.591V408.79H263.917V408.454H263.58V408.118H263.243V407.782H262.906V407.446H262.569V407.109H262.231V406.773H261.894V406.437H261.557V406.101H261.22V405.765H260.883V405.429H260.546V405.092H260.209V404.756H259.872V404.42H259.535V404.084H259.198V403.748H258.861V403.412H258.524V403.075H258.187V402.739H257.85V402.403H257.513V402.067H257.176V401.731H256.839V401.394H256.501V401.058H256.164V400.722H255.827V400.386H255.49V400.05H255.153V399.714H254.816V399.377H254.479V399.041H254.142V398.705H253.805V398.369H253.468V398.033H253.131V397.697H252.794V397.36H252.457V397.024H252.12V396.688H251.783V396.352H251.446V395.679H251.109V395.343H250.771V395.007H250.434V394.671H250.097V394.335H249.76V393.999H249.423V393.662H249.086V393.326H248.749V392.99H248.412V392.654H248.075V392.318H247.738V391.645H247.401V391.309H247.064V390.973H246.727V390.637H246.39V390.301H246.053V389.628H245.716V389.292H245.379V388.956H245.041V388.62H244.704V387.947H244.367V387.611H244.03V387.275H243.693V386.939H243.356V386.603H243.019V385.93H242.682V385.594H242.345V385.258H242.008V384.922H241.671V384.249H241.334V383.913H240.997V383.577H240.66V383.241H240.323V382.569H239.986V382.232H239.649V381.56H239.311V381.224H238.974V380.888H238.637V380.215H238.3V379.879H237.963V379.543H237.626V378.871H237.289V378.534H236.952V377.862H236.615V377.526H236.278V377.19H235.941V376.517H235.604V376.181H235.267V375.509H234.93V375.173H234.593V374.837H234.256V374.164H233.919V373.828H233.581V373.156H233.244V372.483H232.907V372.147H232.57V371.475H232.233V371.139H231.896V370.466H231.559V369.794H231.222V369.458H230.885V368.785H230.548V368.449H230.211V367.777H229.874V367.441H229.537V366.768H229.2V366.096H228.863V365.76H228.526V365.087H228.189V364.415H227.851V363.743H227.514V363.407H227.177V362.734H226.84V362.062H226.503V361.389H226.166V360.717H225.829V360.045H225.492V359.709H225.155V359.036H224.818V358.364H224.481V357.692H224.144V357.019H223.807V356.347H223.47V355.674H223.133V355.002H222.796V354.33H222.459V353.657H222.121V352.985H221.784V352.313H221.447V351.304H221.11V350.632H220.773V349.959H220.436V349.287H220.099V348.615H219.762V347.606H219.425V346.934H219.088V346.262H218.751V345.589H218.414V344.581H218.077V343.908H217.74V342.9H217.403V341.891H217.066V341.219H216.729V340.21H216.391V339.202H216.054V338.529H215.717V337.521H215.38V336.512H215.043V335.84H214.706V334.832H214.369V333.487H214.032V332.478H213.695V331.134H213.358V330.125H213.021V329.117H212.684V327.772H212.347V326.763H212.01V325.419H211.673V324.41H211.336V323.065H210.999V321.385H210.662V319.704H210.324V318.359H209.987V316.678H209.65V314.997H209.313V313.652H208.976V311.635H208.639V309.282H208.302V306.929H207.965V304.24H207.628V301.886H207.291V298.525H206.954V292.81H206.617V272.303H206.954V268.605H207.291V264.571H207.628V260.873H207.965V258.52H208.302V256.502H208.639V254.149H208.976V252.132H209.313V250.115H209.65V247.762H209.987V245.745H210.324V244.4H210.662V243.055H210.999V241.375H211.336V240.03H211.673V238.685H212.01V237.004H212.347V235.66H212.684V233.979H213.021V232.634H213.358V231.289H213.695V229.945H214.032V228.936H214.369V227.927H214.706V226.583H215.043V225.574H215.38V224.566H215.717V223.221H216.054V222.212H216.391V221.204H216.729V219.859H217.066V218.851H217.403V217.842H217.74V216.498H218.077V215.489H218.414V214.48H218.751V213.472H219.088V212.8H219.425V211.791H219.762V210.783H220.099V209.774H220.436V208.765H220.773V208.093H221.11V207.085H221.447V206.076H221.784V205.068H222.121V204.059H222.459V203.387H222.796V202.378H223.133V201.706H223.47V200.697H223.807V200.025H224.144V199.016H224.481V198.344H224.818V197.335H225.155V196.663H225.492V195.991H225.829V195.318H226.166V194.31H226.503V193.638H226.84V192.965H227.177V192.293H227.514V191.62H227.851V190.612H228.189V190.276H228.526V189.603H228.863V188.931H229.2V188.259H229.537V187.586H229.874V186.914H230.211V186.242H230.548V185.569H230.885V184.897H231.222V184.225H231.559V183.888H231.896V183.216H232.233V182.544H232.57V181.871H232.907V181.199H233.244V180.527H233.581V180.19H233.919V179.518H234.256V179.182H234.593V178.51H234.93V177.837H235.267V177.501H235.604V176.829H235.941V176.156H236.278V175.82H236.615V175.148H236.952V174.475H237.289V174.139H237.626V173.467H237.963V173.131H238.3V172.458H238.637V172.122H238.974V171.45H239.311V171.114H239.649V170.441H239.986V170.105H240.323V169.433H240.66V169.097H240.997V168.76H241.334V168.088H241.671V167.752H242.008V167.08H242.345V166.743H242.682V166.407H243.019V165.735H243.356V165.399H243.693V164.726H244.03V164.39H244.367V164.054H244.704V163.382H245.041V163.046H245.379V162.709H245.716V162.037H246.053V161.701H246.39V161.365H246.727V161.028H247.064V160.356H247.401V160.02H247.738V159.684H248.075V159.348H248.412V158.675H248.749V158.339H249.086V158.003H249.423V157.667H249.76V156.994H250.097V156.658H250.434V156.322H250.771V155.986H251.109V155.65H251.446V154.977H251.783V154.641H252.12V154.305H252.457V153.969H252.794V153.633H253.131V153.296H253.468V152.96H253.805V152.624H254.142V151.952H254.479V151.616H254.816V151.279H255.153V150.943H255.49V150.607H255.827V150.271H256.164V149.935H256.501V149.598H256.839V148.926H257.176V148.59H257.513V148.254H257.85V147.918H258.187V147.581H258.524V147.245H258.861V146.909H259.198V146.573H259.535V146.237H259.872V145.901H260.209V145.564H260.546V145.228H260.883V144.892H261.22V144.556H261.557V144.22H261.894V143.883H262.231V143.547H262.569V143.211H262.906V142.875H263.243V142.539H263.58V142.203H263.917V141.866H264.254V141.53H264.591V141.194H264.928V140.858H265.265V140.522H265.602V140.186H265.939V139.849H266.276V139.513H266.613V139.177H266.95V138.841H267.624V138.505H267.961V138.168H268.298V137.832H268.636V137.496H268.973V137.16H269.31V136.824H269.647V136.488H269.984V136.151H270.321V135.815H270.995V135.479H271.332V135.143H271.669V134.807H272.006V134.471H272.343V134.134H272.68V133.798H273.017V133.462H273.354V133.126H273.691V132.79H274.366V132.453H274.703V132.117H275.04V131.781H275.377V131.445H275.714V131.109H276.388V130.773H276.725V130.436H277.062V130.1H277.399V129.764H278.073V129.428H278.41V129.092H278.747V128.755H279.084V128.419H279.421V128.083H280.096V127.747H280.433V127.411H280.77V127.075H281.107V126.738H281.781V126.402H282.118V126.066H282.455V125.73H282.792V125.394H283.466V125.058H283.803V124.721H284.477V124.385H284.814V124.049H285.151V123.713H285.826V123.377H286.163V123.04H286.5V122.704H287.174V122.368H287.511V122.032H287.848V121.696H288.522V121.36H288.859V121.023H289.196V120.687H289.87V120.351H290.207V120.015H290.544V119.679H291.218V119.343H291.556V119.006H292.23V118.67H292.567V118.334H293.241V117.998H293.578V117.662H294.252V117.326H294.589V116.989H295.263V116.653H295.6V116.317H296.274V115.981H296.611V115.645H297.286V115.308H297.623V114.972H298.297V114.636H298.634V114.3H299.308V113.964H299.645V113.628H300.319V113.291H300.656V112.955H301.33V112.619H301.667V112.283H302.341V111.947H303.016V111.611H303.353V111.274H304.027V110.938H304.701V110.602H305.038V110.266H305.712V109.93H306.386V109.593H306.723V109.257H307.397V108.921H307.734V108.585H308.408V108.249H309.083V107.913H309.42V107.576H310.094V107.24H310.768V106.904H311.442V106.568H311.779V106.232H312.453V105.896H313.127V105.559H313.801V105.223H314.476V104.887H315.15V104.551H315.487V104.215H316.161V103.878H316.835V103.542H317.509V103.206H318.183V102.87H318.52V102.534H319.194V102.198H319.868V101.861H320.543V101.525H321.217V101.189H321.891V100.853H322.565V100.517H323.239V100.181H323.913V99.8444H324.587V99.5082H325.261V99.172H325.936V98.8358H326.61V98.4996H327.284V98.1635H327.958V97.8273H328.632V97.4911H329.306V97.1549H329.98V96.8188H330.654V96.4826H331.665V96.1464H332.34V95.8102H333.014V95.4741H333.688V95.1379H334.362V94.8017H335.373V94.4655H336.047V94.1294H336.721V93.7932H337.395V93.457H338.407V93.1208H339.081V92.7846H339.755V92.4485H340.429V92.1123H341.44V91.7761H342.114V91.4399H343.125V91.1038H343.8V90.7676H344.811V90.4314H345.485V90.0952H346.496V89.7591H347.17V89.4229H348.181V89.0867H348.855V88.7505H349.867V88.4144H350.541V88.0782H351.552V87.742H352.563V87.4058H353.574V87.0696H354.248V86.7335H355.26V86.3973H356.271V86.0611H357.282V85.7249H358.293V85.3888H358.967V85.0526H359.978V84.7164H360.99V84.3802H362.001V84.0441H363.012V83.7079H364.023V83.3717H365.371V83.0355H366.383V82.6994H367.394V82.3632H368.405V82.027H369.416V81.6909H370.764V81.3546H371.775V81.0185H372.787V80.6823H374.135V80.3461H375.483V80.01H376.494V79.6738H377.842V79.3376H379.191V79.0014H380.539V78.6653H381.55V78.3291H382.898V77.9929H384.247V77.6567H385.595V77.3206H387.28V76.9844H388.628V76.6482H390.314V76.312H391.662V75.9759H393.347V75.6397H394.695V75.3035H396.381V74.9673H398.403V74.6311H400.088V74.295H402.111V73.9588H403.796V73.6226H405.818V73.2864H408.178V72.9503H410.537V72.6141H412.897V72.2779H415.256V71.9417H417.952V71.6056H421.323V71.2694H425.031V70.9332H428.401V70.597H434.805V70.2608H450.647V69.9247H450.984V70.2608H459.748V70.597H464.804V70.9332H468.511V71.2694H472.219V71.6056H474.915V71.9417H477.275V72.2779H479.634V72.6141H481.994V72.9503H484.016V73.2864H485.701V73.6226H487.724V73.9588H489.409V74.295H491.094V74.6311H492.779V74.9673H494.465V75.3035H495.476V75.6397H496.824V75.9759H498.172V76.312H499.521V76.6482H500.869V76.9844H502.217V77.3206H503.565V77.6567H504.576V77.9929H505.588V78.3291H506.936V78.6653H507.947V79.0014H508.958V79.3376H509.969V79.6738H510.981V80.01H511.992V80.3461H513.003V80.6823H514.014V81.0185H515.025V81.3546H516.036V81.6909H516.711V82.027H517.722V82.3632H518.733V82.6994H519.407V83.0355H520.418V83.3717H521.092V83.7079H522.103V84.0441H522.778V84.3802H523.115V84.7164H522.441V84.3802H521.092V84.0441H520.081V83.7079H518.733V83.3717H517.385V83.0355H516.036V82.6994H514.688V82.3632H513.34V82.027H511.992V81.6909H510.306V81.3546H508.284V81.0185H506.262V80.6823H504.576V80.3461H502.554V80.01H500.532V79.6738H497.161V79.3376H493.116V79.0014H489.409V78.6653H474.578V79.0014H469.859V79.3376H464.804V79.6738H462.444V80.01H460.085V80.3461H457.725V80.6823H455.366V81.0185H453.007V81.3546H450.984V81.6909H449.636V82.027H447.951V82.3632H446.265V82.6994H444.58V83.0355H443.232V83.3717H441.547V83.7079H439.861V84.0441H438.85V84.3802H437.502V84.7164H436.491V85.0526H435.142V85.3888H433.794V85.7249H432.783V86.0611H431.435V86.3973H430.424V86.7335H429.075V87.0696H428.064V87.4058H427.053V87.742H426.042V88.0782H425.031V88.4144H424.019V88.7505H423.008V89.0867H421.997V89.4229H420.986V89.7591H419.975V90.0952H418.964V90.4314H418.289V90.7676H417.278V91.1038H416.267V91.4399H415.256V91.7761H414.582V92.1123H413.571V92.4485H412.897V92.7846H411.885V93.1208H411.211V93.457H410.537V93.7932H409.526V94.1294H408.852V94.4655H407.841V94.8017H407.167V95.1379H406.155V95.4741H405.481V95.8102H404.47V96.1464H403.796V96.4826H403.122V96.8188H402.448V97.1549H401.774V97.4911H401.1V97.8273H400.425V98.1635H399.751V98.4996H398.74V98.8358H398.066V99.172H397.392V99.5082H396.718V99.8444H396.044V100.181H395.37V100.517H394.695V100.853H394.021V101.189H393.347V101.525H392.673V101.861H391.999V102.198H391.325V102.534H390.651V102.87H389.977V103.206H389.302V103.542H388.628V103.878H388.291V104.215H387.617V104.551H386.943V104.887H386.269V105.223H385.595V105.559H384.921V105.896H384.584V106.232H383.91V106.568H383.235V106.904H382.561V107.24H381.887V107.576H381.213V107.913H380.876V108.249H380.202V108.585H379.528V108.921H379.191V109.257H378.517V109.593H377.842V109.93H377.505V110.266H376.831V110.602H376.494V110.938H375.82V111.274H375.146V111.611H374.809V111.947H374.135V112.283H373.461V112.619H373.124V112.955H372.45V113.291H372.112V113.628H371.438V113.964H370.764V114.3H370.427V114.636H369.753V114.972H369.416V115.308H368.742V115.645H368.405V115.981H367.731V116.317H367.394V116.653H366.72V116.989H366.383V117.326H365.708V117.662H365.371V117.998H364.697V118.334H364.36V118.67H364.023V119.006H363.349V119.343H363.012V119.679H362.338V120.015H362.001V120.351H361.327V120.687H360.99V121.023H360.315V121.36H359.978V121.696H359.641V122.032H358.967V122.368H358.63V122.704H357.956V123.04H357.619V123.377H357.282V123.713H356.608V124.049H356.271V124.385H355.934V124.721H355.597V125.058H354.922V125.394H354.585V125.73H354.248V126.066H353.574V126.402H353.237V126.738H352.9V127.075H352.226V127.411H351.889V127.747H351.552V128.083H351.215V128.419H350.541V128.755H350.204V129.092H349.867V129.428H349.193V129.764H348.855V130.1H348.518V130.436H347.844V130.773H347.507V131.109H347.17V131.445H346.833V131.781H346.496V132.117H346.159V132.453H345.485V132.79H345.148V133.126H344.811V133.462H344.474V133.798H344.137V134.134H343.8V134.471H343.125V134.807H342.788V135.143H342.451V135.479H342.114V135.815H341.777V136.151H341.44V136.488H340.766V136.824H340.429V137.16H340.092V137.496H339.755V137.832H339.418V138.168H339.081V138.505H338.407V138.841H338.07V139.177H337.733V139.513H337.395V139.849H337.058V140.186H336.721V140.522H336.384V140.858H336.047V141.194H335.71V141.53H335.373V141.866H335.036V142.203H334.699V142.539H334.362V142.875H334.025V143.211H333.688V143.547H333.351V143.883H332.677V144.22H332.34V144.556H332.003V144.892H331.665V145.228H331.328V145.564H330.991V145.901H330.654V146.237H330.317V146.573H329.98V146.909H329.643V147.245H329.306V147.581H328.969V147.918H328.632V148.254H328.295V148.59H327.958V148.926H327.621V149.262H327.284V149.598H326.947V149.935H326.61V150.271H326.273V150.607H325.936V150.943H325.598V151.279H325.261V151.616H324.924V151.952H324.587V152.624H324.25V152.96H323.913V153.296H323.576V153.633H323.239V153.969H322.902V154.305H322.565V154.641H322.228V154.977H321.891V155.313H321.554V155.65H321.217V155.986H320.88V156.322H320.543V156.658H320.205V156.994H319.868V157.331H319.531V157.667H319.194V158.339H318.857V158.675H318.52V159.011H318.183V159.348H317.846V159.684H317.509V160.356H317.172V160.692H316.835V161.028H316.498V161.365H316.161V161.701H315.824V162.037H315.487V162.709H315.15V163.046H314.813V163.382H314.476V163.718H314.138V164.054H313.801V164.726H313.464V165.063H313.127V165.399H312.79V165.735H312.453V166.071H312.116V166.407H311.779V167.08H311.442V167.416H311.105V167.752H310.768V168.088H310.431V168.76H310.094V169.097H309.757V169.433H309.42V170.105H309.083V170.441H308.746V170.778H308.408V171.45H308.071V171.786H307.734V172.122H307.397V172.795H307.06V173.131H306.723V173.467H306.386V174.139H306.049V174.475H305.712V174.812H305.375V175.484H305.038V175.82H304.701V176.156H304.364V176.829H304.027V177.165H303.69V177.501H303.353V178.173H303.016V178.51H302.678V179.182H302.341V179.518H302.004V180.19H301.667V180.527H301.33V181.199H300.993V181.535H300.656V182.208H300.319V182.544H299.982V183.216H299.645V183.552H299.308V184.225H298.971V184.561H298.634V185.233H298.297V185.569H297.96V186.242H297.623V186.578H297.286V187.25H296.948V187.586H296.611V188.259H296.274V188.595H295.937V189.267H295.6V189.94H295.263V190.276H294.926V190.948H294.589V191.62H294.252V192.293H293.915V192.629H293.578V193.301H293.241V193.974H292.904V194.646H292.567V194.982H292.23V195.655H291.893V196.327H291.556V196.999H291.218V197.335H290.881V198.008H290.544V198.68H290.207V199.353H289.87V199.689H289.533V200.361H289.196V201.033H288.859V201.706H288.522V202.378H288.185V203.05H287.848V203.723H287.511V204.395H287.174V205.068H286.837V206.076H286.5V206.748H286.163V207.421H285.826V208.093H285.488V208.765H285.151V209.438H284.814V210.11H284.477V210.783H284.14V211.455H283.803V212.127H283.466V213.136H283.129V213.808H282.792V214.817H282.455V215.489H282.118V216.498H281.781V217.17H281.444V217.842H281.107V218.851H280.77V219.523H280.433V220.532H280.096V221.204H279.758V222.212H279.421V222.885H279.084V223.893H278.747V224.902H278.41V225.91H278.073V226.919H277.736V227.927H277.399V228.936H277.062V230.281H276.725V231.289H276.388V232.298H276.051V233.306H275.714V234.315H275.377V235.323H275.04V236.668H274.703V238.013H274.366V239.694H274.029V241.038H273.691V242.383H273.354V243.728H273.017V245.072H272.68V246.417H272.343V248.434H272.006V250.451H271.669V252.805H271.332V254.822H270.995V256.839H270.658V259.192H270.321V263.226H269.984V268.269H269.647V284.405H269.984V287.431H270.321V290.792H270.658V293.818H270.995V296.844H271.332V298.525H271.669V299.869H272.006V301.55H272.343V303.231H272.68V304.912H273.017V306.593H273.354V308.274H273.691V309.618H274.029V310.963H274.366V311.972H274.703V313.316H275.04V314.325H275.377V315.67H275.714V316.678H276.051V318.023H276.388V319.031H276.725V320.04H277.062V321.048H277.399V321.721H277.736V322.393H278.073V323.065H278.41V324.074H278.747V324.41H279.084V325.082H279.421V325.755H279.758V326.427H280.096V327.1H280.433V327.772H280.77V328.444H281.107V329.117H281.444V329.789H281.781V330.461H282.118V330.797H282.455V331.47H282.792V332.142H283.129V332.478H283.466V333.151H283.803V333.823H284.14V334.159H284.477V334.832H284.814V335.504H285.151V336.176H285.488V336.512H285.826V337.185H286.163V337.857H286.5V338.193H286.837V338.866H287.174V339.202H287.511V339.874H287.848V340.21H288.185V340.883H288.522V341.219H288.859V341.891H289.196V342.227H289.533V342.9H289.87V343.236H290.207V343.908H290.544V344.244H290.881V344.917H291.218V345.253H291.556V345.925H291.893V346.262H292.23V346.934H292.567V347.27H292.904V347.606H293.241V348.279H293.578V348.615H293.915V348.951H294.252V349.623H294.589V349.959H294.926V350.296H295.263V350.968H295.6V351.304H295.937V351.64H296.274V352.313H296.611V352.649H296.948V352.985H297.286V353.657H297.623V353.994H297.96V354.33H298.297V354.666H298.634V355.002H298.971V355.338H299.308V356.011H299.645V356.347H299.982V356.683H300.319V357.019H300.656V357.355H300.993V358.028H301.33V358.364H301.667V358.7H302.004V359.036H302.341V359.372H302.678V359.709H303.016V360.381H303.353V360.717H303.69V361.053H304.027V361.389H304.364V361.726H304.701V362.062H305.038V362.398H305.375V362.734H305.712V363.07H306.049V363.407H306.386V363.743H306.723V364.079H307.06V364.415H307.397V364.751H307.734V365.087H308.071V365.424H308.408V365.76H308.746V366.096H309.083V366.432H309.42V367.104H310.094V367.441H310.431V367.777H310.768V368.113H311.105V368.449H311.442V368.785H311.779V369.122H312.116V369.458H312.453V369.794H312.79V370.13H313.127V370.466H313.464V370.802H313.801V371.139H314.138V371.475H314.476V371.811H315.15V372.147H315.487V372.483H315.824V372.819H316.161V373.156H316.498V373.492H316.835V373.828H317.172V374.164H317.846V374.5H318.183V374.837H318.52V375.173H318.857V375.509H319.194V375.845H319.868V376.181H320.205V376.517H320.543V376.854H320.88V377.19H321.217V377.526H321.891V377.862H322.228V378.198H322.565V378.534H322.902V378.871H323.576V379.207H323.913V379.543H324.25V379.879H324.924V380.215H325.261V380.552H325.598V380.888H326.273V381.224H326.61V381.56H326.947V381.896H327.621V382.232H327.958V382.569H328.295V382.905H328.969V383.241H329.306V383.577H329.643V383.913H330.317V384.249H330.654V384.586H331.328V384.922H331.665V385.258H332.34V385.594H332.677V385.93H333.351V386.267H333.688V386.603H334.362V386.939H334.699V387.275H335.373V387.611H335.71V387.947H336.384V388.284H336.721V388.62H337.395V388.956H338.07V389.292H338.407V389.628H339.081V389.964H339.755V390.301H340.092V390.637H340.766V390.973H341.44V391.309H342.114V391.645H342.451V391.982H343.125V392.318H343.8V392.654H344.137V392.99H344.811V393.326H345.485V393.662H346.159V393.999H346.833V394.335H347.507V394.671H347.844V395.007H348.518V395.343H349.193V395.679H349.867V396.016H350.541V396.352H351.215V396.688H351.889V397.024H352.563V397.36H353.237V397.697H353.911V398.033H354.585V398.369H355.26V398.705H355.934V399.041H356.945V399.377H357.619V399.714H358.293V400.05H358.967V400.386H359.641V400.722H360.315V401.058H360.99V401.394H362.001V401.731H362.675V402.067H363.686V402.403H364.36V402.739H365.371V403.075H366.045V403.412H366.72V403.748H367.731V404.084H368.405V404.42H369.416V404.756H370.09V405.092H371.101V405.429H372.112V405.765H373.124V406.101H374.135V406.437H374.809V406.773H375.82V407.109H376.831V407.446H377.842V407.782H378.854V408.118H379.865V408.454H380.876V408.79H381.887V409.127H382.898V409.463H383.91V409.799H385.258V410.135H386.269V410.471H387.28V410.807H388.628V411.144H389.64V411.48H390.988V411.816H392.336V412.152H393.347V412.488H394.695V412.824H396.044V413.161H397.392V413.497H398.74V413.833H400.088V414.169H401.437V414.505H403.122V414.842H404.47V415.178H405.818V415.514H407.504V415.85H409.189V416.186H410.874V416.522H412.897V416.859H414.582V417.195H416.267V417.531H418.289V417.867H420.312V418.203H422.334V418.539H424.357V418.876H426.716V419.212H429.412V419.548H431.772V419.884H434.468V420.22H437.165V420.557H440.535V420.893H443.569V421.229H447.277V421.565H451.658V421.901H456.04V422.237H462.107V422.574H469.859V422.91H504.914V422.574H514.014V422.237H520.755V421.901H526.148V421.565H531.204V421.229H535.923V420.893H539.968V420.557H544.349V420.22H548.057V419.884H551.428V419.548H555.135V419.212H558.169V418.876H561.539V418.539H564.573V418.203H567.606V417.867H570.64V417.531H573.336V417.195H576.033V416.859H578.729V416.522H581.426V416.186H584.122V415.85H586.482V415.514H589.178V415.178H591.538V414.842H593.897V414.505H596.256V414.169H598.616V413.833H600.975V413.497H603.335V413.161H605.694V412.824H607.716V412.488H610.076V412.152H612.098V411.816H614.458V411.48H616.48V411.144H618.839V410.807H620.862V410.471H622.884V410.135H624.906V409.799H626.929V409.463H628.951V409.127H630.973V408.79H632.996V408.454H635.018V408.118H636.703V407.782H638.726V407.446H640.748V407.109H642.77V406.773H644.456V406.437H646.478V406.101H648.163V405.765H650.186V405.429H652.208V405.092H653.893V404.756H655.579V404.42H657.601V404.084H659.286V403.748H660.972V403.412H662.994V403.075H664.679V402.739H666.365V402.403H668.387V402.067H670.072V401.731H671.757V401.394H673.443V401.058H675.128V400.722H676.813V400.386H678.499V400.05H680.521V399.714H682.206V399.377H683.892V399.041H685.577V398.705H687.262V398.369H688.947V398.033H690.633V397.697H691.981V397.36H693.666V397.024H695.352V396.688H697.037V396.352H698.722V396.016H700.407V395.679H702.093V395.343H703.778V395.007H705.126V394.671H706.812V394.335H708.497V393.999H710.182V393.662H711.867V393.326H713.216V392.99H714.901V392.654H716.586V392.318H717.934V391.982H719.62V391.645H721.305V391.309H722.99V390.973H724.339V390.637H726.024V390.301H727.709V389.964H729.057V389.628H730.743V389.292H732.091V388.956H733.776V388.62H735.461V388.284H736.81V387.947H738.495V387.611H739.843V387.275H741.529V386.939H743.214V386.603H744.562V386.267H746.247V385.93H747.596V385.594H749.281V385.258H750.629V384.922H752.314V384.586H753.663V384.249H755.348V383.913H756.696V383.577H758.381V383.241H759.73V382.905H761.415V382.569H762.763V382.232H764.449V381.896H765.797V381.56H767.482V381.224H768.83V380.888H770.516V380.552H771.864V380.215H773.549V379.879H774.897V379.543H776.583V379.207H777.931V378.871H779.616V378.534H780.964V378.198H782.313V377.862H783.998V377.526H785.346V377.19H787.031V376.854H788.38V376.517H790.065V376.181H791.413V375.845H793.098V375.509H794.447V375.173H795.795V374.837H797.48V374.5H798.828V374.164H800.514V373.828H801.862V373.492H803.547V373.156H804.896V372.819H806.581V372.483H807.929V372.147H809.277V371.811H810.963V371.475H812.311V371.139H813.996V370.802H815.344V370.466H817.03V370.13H818.378V369.794H820.063V369.458H821.411V369.122H823.097V368.785H824.445V368.449H826.13V368.113H827.478V367.777H829.164V367.441H830.512V367.104H832.197V366.768H833.545V366.432H835.231V366.096H836.579V365.76H838.264V365.424H839.613V365.087H841.298V364.751H842.646V364.415H844.331V364.079H845.68V363.743H847.365V363.407H848.713V363.07H850.398V362.734H852.084V362.398H853.432V362.062H855.117V361.726H856.465V361.389H858.151V361.053H859.836V360.717H861.184V360.381H862.87V360.045H864.555V359.709H865.903V359.372H867.588V359.036H869.274V358.7H870.622V358.364H872.307V358.028H873.992V357.692H875.341V357.355H877.026V357.019H878.711V356.683H880.397V356.347H882.082V356.011H883.43V355.674H885.115V355.338H886.801V355.002H888.486V354.666H890.171V354.33H891.857V353.994H893.542V353.657H895.227V353.321H896.912V352.985H898.598V352.649H900.283V352.313H901.968V351.977H903.654V351.64H905.339V351.304H907.024V350.968H908.709V350.632H910.732V350.296H912.417V349.959H914.102V349.623H915.788V349.287H917.81V348.951H919.495V348.615H921.181V348.279H923.203V347.942H924.888V347.606H926.911V347.27H928.596V346.934H930.618V346.598H932.641V346.262H934.326V345.925H935V346.598H933.652V346.934H932.641V347.27H931.629V347.606H930.281V347.942H929.27V348.279H927.922V348.615H926.911V348.951H925.899V349.287H924.551V349.623H923.54V349.959H922.192V350.296H921.181V350.632H920.169V350.968H918.821V351.304H917.81V351.64H916.462V351.977H915.451V352.313H914.102V352.649H913.091V352.985H912.08V353.321H910.732V353.657H909.721V353.994H908.372V354.33H907.361V354.666H906.35V355.002H905.002V355.338H903.991V355.674H902.642V356.011H901.631V356.347H900.283V356.683H899.272V357.019H898.261V357.355H896.912V357.692H895.901V358.028H894.553V358.364H893.542V358.7H892.194V359.036H891.182V359.372H890.171V359.709H888.823V360.045H887.812V360.381H886.464V360.717H885.452V361.053H884.104V361.389H883.093V361.726H882.082V362.062H880.734V362.398H879.722V362.734H878.374V363.07H877.363V363.407H876.015V363.743H875.004V364.079H873.655V364.415H872.644V364.751H871.633V365.087H870.285V365.424H869.274V365.76H867.925V366.096H866.914V366.432H865.566V366.768H864.555V367.104H863.207V367.441H862.195V367.777H861.184V368.113H859.836V368.449H858.825V368.785H857.477V369.122H856.465V369.458H855.117V369.794H854.106V370.13H852.758V370.466H851.747V370.802H850.398V371.139H849.387V371.475H848.376V371.811H847.028V372.147H846.017V372.483H844.668V372.819H843.657V373.156H842.309V373.492H841.298V373.828H839.95V374.164H838.938V374.5H837.59V374.837H836.579V375.173H835.231V375.509H834.22V375.845H833.208V376.181H831.86V376.517H830.849V376.854H829.501V377.19H828.49V377.526H827.141V377.862H826.13V378.198H824.782V378.534H823.771V378.871H822.422V379.207H821.411V379.543H820.063V379.879H819.052V380.215H817.704V380.552H816.693V380.888H815.344V381.224H814.333V381.56H813.322V381.896H811.974V382.232H810.963V382.569H809.614V382.905H808.603V383.241H807.255V383.577H806.244V383.913H804.896V384.249H803.884V384.586H802.536V384.922H801.525V385.258H800.177V385.594H799.166V385.93H797.817V386.267H796.806V386.603H795.458V386.939H794.447V387.275H793.098V387.611H792.087V387.947H790.739V388.284H789.728V388.62H788.38V388.956H787.368V389.292H786.02V389.628H785.009V389.964H783.661V390.301H782.65V390.637H781.301V390.973H780.29V391.309H778.942V391.645H777.931V391.982H776.583V392.318H775.571V392.654H774.223V392.99H773.212V393.326H771.864V393.662H770.853V393.999H769.504V394.335H768.493V394.671H767.145V395.007H766.134V395.343H764.786V395.679H763.774V396.016H762.426V396.352H761.415V396.688H760.067V397.024H759.056V397.36H757.707V397.697H756.359V398.033H755.348V398.369H754V398.705H752.988V399.041H751.64V399.377H750.629V399.714H749.281V400.05H748.27V400.386H746.921V400.722H745.91V401.058H744.562V401.394H743.551V401.731H742.203V402.067H741.191V402.403H739.843V402.739H738.832V403.075H737.484V403.412H736.136V403.748H735.124V404.084H733.776V404.42H732.765V404.756H731.417V405.092H730.406V405.429H729.057V405.765H728.046V406.101H726.698V406.437H725.687V406.773H724.339V407.109H722.99V407.446H721.979V407.782H720.631V408.118H719.62V408.454H718.271V408.79H717.26V409.127H715.912V409.463H714.901V409.799H713.553V410.135H712.204V410.471H711.193V410.807H709.845V411.144H708.834V411.48H707.486V411.816H706.137V412.152H705.126V412.488H703.778V412.824H702.767V413.161H701.419V413.497H700.407V413.833H699.059V414.169H697.711V414.505H696.7V414.842H695.352V415.178H694.34V415.514H692.992V415.85H691.981V416.186H690.633V416.522H689.284V416.859H688.273V417.195H686.925V417.531H685.914V417.867H684.566V418.203H683.217V418.539H682.206V418.876H680.858V419.212H679.847V419.548H678.499V419.884H677.15V420.22H676.139V420.557H674.791V420.893H673.443V421.229H672.432V421.565H671.083V421.901H670.072V422.237H668.724V422.574H667.376V422.91H666.365V423.246H665.016V423.582H663.668V423.918H662.657V424.254H661.309V424.591H660.297V424.927H658.949V425.263H657.601V425.599H656.59V425.935H655.242V426.271H653.893V426.608H652.882V426.944H651.534V427.28H650.186V427.616H649.174V427.952H647.826V428.289H646.478V428.625H645.467V428.961H644.119V429.297H642.77V429.633H641.759V429.969H640.411V430.306H639.063V430.642H638.052V430.978H636.703V431.314H635.355V431.65H634.344V431.986H632.996V432.323H631.647V432.659H630.636V432.995H629.288V433.331H627.94V433.667H626.592V434.004H625.58V434.34H624.232V434.676H622.884V435.012H621.873V435.348H620.525V435.684H619.176V436.021H617.828V436.357H616.817V436.693H615.469V437.029H614.12V437.365H612.772V437.701H611.761V438.038H610.413V438.374H609.065V438.71H607.716V439.046H606.705V439.382H605.357V439.719H604.009V440.055H602.66V440.391H601.649V440.727H600.301V441.063H598.953V441.399H597.605V441.736H596.256V442.072H595.245V442.408H593.897V442.744H592.549V443.08H591.2V443.416H589.852V443.753H588.841V444.089H587.493V444.425H586.145V444.761H584.796V445.097H583.448V445.434H582.1V445.77H580.752V446.106H579.74V446.442H578.392V446.778H577.044V447.114H575.696V447.451H574.348V447.787H572.999V448.123H571.651V448.459H570.303V448.795H568.955V449.131H567.606V449.468H566.258V449.804H565.247V450.14H563.899V450.476H562.55V450.812H561.202V451.149H559.854V451.485H558.506V451.821H557.158V452.157H555.809V452.493H554.124V452.829H552.776V453.166H551.428V453.502H550.079V453.838H548.731V454.174H547.383V454.51H546.035V454.846H544.686V455.183H543.338V455.519H541.653V455.855H540.305V456.191H538.956V456.527H537.608V456.864H536.26V457.2H534.575V457.536H533.226V457.872H531.541V458.208H530.193V458.544H528.845V458.881H527.159V459.217H525.811V459.553H524.126V459.889H522.778V460.225H521.092V460.561H519.407V460.898H518.059V461.234H516.374V461.57H514.688V461.906H513.34V462.242H511.655V462.579H509.969V462.915H508.284V463.251H506.599V463.587H504.914V463.923H503.565V464.259H501.543V464.596H499.858V464.932H498.172V465.268H496.487V465.604H494.802V465.94H493.116V466.276H491.094V466.613H489.072V466.949H487.386V467.285H485.364V467.621H483.679V467.957H481.656V468.294H479.297V468.63H477.275V468.966H475.252V469.302H472.893V469.638H470.534V469.974H468.174V470.311H465.478V470.647H463.118V470.983H460.085V471.319H457.051V471.655H454.018V471.991H449.973V472.328H445.591V472.664H439.524V473H414.582ZM479.297 402.739V402.403H472.219V402.067H468.174V401.731H464.466V401.394H461.096V401.058H458.737V400.722H456.377V400.386H454.018V400.05H451.658V399.714H449.973V399.377H448.288V399.041H446.602V398.705H444.58V398.369H442.895V398.033H441.209V397.697H439.861V397.36H438.513V397.024H437.165V396.688H436.154V396.352H434.805V396.016H433.457V395.679H432.109V395.343H430.761V395.007H429.749V394.671H428.738V394.335H427.727V393.999H426.379V393.662H425.368V393.326H424.357V392.99H423.345V392.654H422.334V392.318H421.323V391.982H420.312V391.645H419.301V391.309H418.627V390.973H417.615V390.637H416.941V390.301H415.93V389.964H414.919V389.628H414.245V389.292H413.234V388.956H412.56V388.62H411.885V388.284H411.548V387.947H412.222V388.284H413.234V388.62H414.245V388.956H415.256V389.292H416.604V389.628H417.952V389.964H419.301V390.301H420.649V390.637H421.997V390.973H423.682V391.309H425.705V391.645H427.39V391.982H429.412V392.318H431.435V392.654H433.457V392.99H435.817V393.326H439.861V393.662H443.569V393.999H462.781V393.662H467.5V393.326H471.545V392.99H473.904V392.654H476.264V392.318H478.623V391.982H480.982V391.645H483.005V391.309H484.69V390.973H486.375V390.637H487.724V390.301H489.409V389.964H491.094V389.628H492.779V389.292H494.128V388.956H495.476V388.62H496.824V388.284H497.835V387.947H499.184V387.611H500.532V387.275H501.543V386.939H502.891V386.603H503.902V386.267H505.251V385.93H506.599V385.594H507.61V385.258H508.621V384.922H509.632V384.586H510.306V384.249H511.318V383.913H512.329V383.577H513.34V383.241H514.351V382.905H515.362V382.569H516.374V382.232H517.385V381.896H518.396V381.56H519.07V381.224H520.081V380.888H520.755V380.552H521.766V380.215H522.441V379.879H523.452V379.543H524.126V379.207H524.8V378.871H525.811V378.534H526.485V378.198H527.496V377.862H528.171V377.526H529.182V377.19H529.856V376.854H530.867V376.517H531.541V376.181H532.215V375.845H532.889V375.509H533.563V375.173H534.238V374.837H534.912V374.5H535.586V374.164H536.26V373.828H537.271V373.492H537.945V373.156H538.619V372.819H539.294V372.483H539.968V372.147H540.642V371.811H541.316V371.475H541.99V371.139H542.664V370.802H543.338V370.466H544.012V370.13H544.686V369.794H545.361V369.458H545.698V369.122H546.372V368.785H547.046V368.449H547.72V368.113H548.394V367.777H549.068V367.441H549.405V367.104H550.079V366.768H550.753V366.432H551.428V366.096H552.102V365.76H552.776V365.424H553.113V365.087H553.787V364.751H554.461V364.415H555.135V364.079H555.472V363.743H556.146V363.407H556.82V363.07H557.158V362.734H557.832V362.398H558.169V362.062H558.843V361.726H559.517V361.389H559.854V361.053H560.528V360.717H561.202V360.381H561.539V360.045H562.213V359.709H562.55V359.372H563.225V359.036H563.899V358.7H564.236V358.364H564.91V358.028H565.584V357.692H565.921V357.355H566.258V357.019H566.932V356.683H567.269V356.347H567.943V356.011H568.28V355.674H568.955V355.338H569.292V355.002H569.966V354.666H570.303V354.33H570.64V353.994H571.314V353.657H571.651V353.321H572.325V352.985H572.662V352.649H573.336V352.313H573.673V351.977H574.348V351.64H574.685V351.304H575.359V350.968H575.696V350.632H576.033V350.296H576.707V349.959H577.044V349.623H577.381V349.287H578.055V348.951H578.392V348.615H578.729V348.279H579.403V347.942H579.74V347.606H580.078V347.27H580.415V346.934H581.089V346.598H581.426V346.262H581.763V345.925H582.437V345.589H582.774V345.253H583.111V344.917H583.785V344.581H584.122V344.244H584.459V343.908H584.796V343.572H585.47V343.236H585.808V342.9H586.145V342.564H586.819V342.227H587.156V341.891H587.493V341.555H587.83V341.219H588.167V340.883H588.841V340.547H589.178V340.21H589.515V339.874H589.852V339.538H590.189V339.202H590.526V338.866H591.2V338.529H591.538V338.193H591.875V337.857H592.212V337.521H592.549V337.185H592.886V336.849H593.56V336.512H593.897V336.176H594.234V335.84H594.571V335.504H594.908V335.168H595.245V334.832H595.919V334.495H596.256V334.159H596.593V333.823H596.93V333.487H597.268V333.151H597.605V332.814H597.942V332.478H598.279V332.142H598.616V331.806H598.953V331.47H599.29V331.134H599.964V330.797H600.301V330.461H600.638V330.125H600.975V329.789H601.312V329.453H601.649V329.117H601.986V328.78H602.323V328.444H602.66V328.108H602.997V327.772H603.335V327.436H603.672V327.1H604.009V326.763H604.346V326.427H604.683V326.091H605.02V325.755H605.357V325.419H605.694V325.082H606.031V324.746H606.368V324.41H606.705V324.074H607.042V323.738H607.379V323.402H607.716V323.065H608.053V322.729H608.39V322.393H608.728V322.057H609.065V321.721H609.402V321.385H609.739V321.048H610.076V320.712H610.413V320.376H610.75V320.04H611.087V319.704H611.424V319.367H611.761V319.031H612.098V318.359H612.435V318.023H612.772V317.687H613.109V317.35H613.446V317.014H613.783V316.678H614.12V316.342H614.458V316.006H614.794V315.67H615.132V315.333H615.469V314.997H615.806V314.661H616.143V313.989H616.48V313.652H616.817V313.316H617.154V312.98H617.491V312.644H617.828V312.308H618.165V311.635H618.502V311.299H618.839V310.963H619.176V310.627H619.513V310.291H619.85V309.618H620.188V309.282H620.525V308.946H620.862V308.61H621.199V308.274H621.536V307.937H621.873V307.265H622.21V306.929H622.547V306.593H622.884V306.257H623.221V305.92H623.558V305.248H623.895V304.912H624.232V304.576H624.569V304.24H624.906V303.567H625.243V303.231H625.58V302.895H625.917V302.222H626.255V301.886H626.592V301.55H626.929V300.878H627.266V300.542H627.603V300.205H627.94V299.533H628.277V299.197H628.614V298.861H628.951V298.188H629.288V297.852H629.625V297.516H629.962V296.844H630.299V296.507H630.636V296.171H630.973V295.499H631.31V295.163H631.647V294.827H631.985V294.154H632.322V293.818H632.659V293.146H632.996V292.81H633.333V292.137H633.67V291.801H634.007V291.129H634.344V290.456H634.681V290.12H635.018V289.448H635.355V289.112H635.692V288.439H636.029V288.103H636.366V287.431H636.703V287.095H637.04V286.422H637.377V286.086H637.714V285.414H638.052V285.077H638.389V284.405H638.726V284.069H639.063V283.397H639.4V282.724H639.737V282.388H640.074V281.716H640.411V281.043H640.748V280.371H641.085V280.035H641.422V279.362H641.759V278.69H642.096V278.018H642.433V277.682H642.77V277.009H643.107V276.337H643.445V276.001H643.782V275.328H644.119V274.656H644.456V273.984H644.793V273.647H645.13V272.975H645.467V272.303H645.804V271.63H646.141V270.958H646.478V270.286H646.815V269.613H647.152V268.941H647.489V268.269H647.826V267.596H648.163V266.924H648.5V266.252H648.837V265.243H649.174V264.571H649.512V263.898H649.849V263.226H650.186V262.554H650.523V261.881H650.86V261.209H651.197V260.537H651.534V259.528H651.871V258.856H652.208V257.847H652.545V257.175H652.882V256.166H653.219V255.494H653.556V254.822H653.893V253.813H654.23V253.141H654.567V252.132H654.904V251.46H655.242V250.451H655.579V249.779H655.916V248.77H656.253V247.762H656.59V246.753H656.927V245.745H657.264V244.4H657.601V243.392H657.938V242.383H658.275V241.375H658.612V240.366H658.949V239.358H659.286V238.349H659.623V237.004H659.96V235.66H660.297V234.315H660.635V232.97H660.972V231.625H661.309V230.281H661.646V228.6H661.983V227.255H662.32V225.91H662.657V223.893H662.994V221.876H663.331V219.859H663.668V217.506H664.005V215.489H664.342V213.136H664.679V208.429H665.016V203.723H665.353V190.276H665.016V185.905H664.679V182.88H664.342V179.854H664.005V176.829H663.668V174.812H663.331V173.131H662.994V171.45H662.657V169.769H662.32V168.088H661.983V166.743H661.646V165.063H661.309V163.382H660.972V162.373H660.635V161.028H660.297V160.02H659.96V158.675H659.623V157.667H659.286V156.322H658.949V155.313H658.612V153.969H658.275V152.96H657.938V152.288H657.601V151.279H657.264V150.607H656.927V149.598H656.59V148.926H656.253V148.254H655.916V147.918H655.579V147.245H655.242V146.573H654.904V145.901H654.567V145.228H654.23V144.556H653.893V143.883H653.556V143.211H653.219V142.539H652.882V142.203H652.545V141.53H652.208V140.858H651.871V140.522H651.534V139.849H651.197V139.177H650.86V138.505H650.523V138.168H650.186V137.496H649.849V136.824H649.512V136.488H649.174V135.815H648.837V135.143H648.5V134.807H648.163V134.134H647.826V133.462H647.489V133.126H647.152V132.453H646.815V132.117H646.478V131.445H646.141V131.109H645.804V130.436H645.467V130.1H645.13V129.428H644.793V129.092H644.456V128.419H644.119V128.083H643.782V127.411H643.445V127.075H643.107V126.402H642.77V126.066H642.433V125.73H642.096V125.058H641.759V124.721H641.422V124.385H641.085V124.049H640.748V123.377H640.411V123.04H640.074V122.704H639.737V122.032H639.4V121.696H639.063V121.36H638.726V120.687H638.389V120.351H638.052V120.015H637.714V119.343H637.377V119.006H637.04V118.67H636.703V118.334H636.366V117.662H636.029V117.326H635.692V116.989H635.355V116.653H635.018V116.317H634.681V115.981H634.344V115.308H634.007V114.972H633.67V114.636H633.333V114.3H632.996V113.964H632.659V113.628H632.322V112.955H631.985V112.619H631.647V112.283H631.31V111.947H630.973V111.611H630.636V111.274H630.299V110.938H629.962V110.602H629.625V110.266H629.288V109.93H628.951V109.593H628.614V109.257H628.277V108.921H627.94V108.585H627.603V107.913H627.266V107.576H626.929V107.24H626.592V106.904H626.255V106.568H625.917V106.232H625.58V105.896H625.243V105.559H624.906V105.223H624.569V104.887H624.232V104.551H623.895V104.215H623.221V103.878H622.884V103.542H622.547V103.206H622.21V102.87H621.873V102.534H621.536V102.198H621.199V101.861H620.862V101.525H620.525V101.189H620.188V100.853H619.85V100.517H619.513V100.181H619.176V99.8444H618.502V99.5082H618.165V99.172H617.828V98.8358H617.491V98.4996H617.154V98.1635H616.48V97.8273H616.143V97.4911H615.806V97.1549H615.469V96.8188H615.132V96.4826H614.458V96.1464H614.12V95.8102H613.783V95.4741H613.446V95.1379H613.109V94.8017H612.435V94.4655H612.098V94.1294H611.761V93.7932H611.424V93.457H610.75V93.1208H610.413V92.7846H610.076V92.4485H609.402V92.1123H609.065V91.7761H608.728V91.4399H608.053V91.1038H607.716V90.7676H607.042V90.4314H606.705V90.0952H606.368V89.7591H605.694V89.4229H605.357V89.0867H605.02V88.7505H604.346V88.4144H604.009V88.0782H603.335V87.742H602.997V87.4058H602.323V87.0696H601.986V86.7335H601.312V86.3973H600.975V86.0611H600.301V85.7249H599.964V85.3888H599.29V85.0526H598.953V84.7164H598.279V84.3802H597.942V84.0441H597.268V83.7079H596.593V83.3717H596.256V83.0355H595.582V82.6994H594.908V82.3632H594.234V82.027H593.897V81.6909H593.223V81.3546H592.549V81.0185H592.212V80.6823H591.538V80.3461H590.863V80.01H590.526V79.6738H589.852V79.3376H589.178V79.0014H588.504V78.6653H587.83V78.3291H587.156V77.9929H586.482V77.6567H585.808V77.3206H585.47V76.9844H584.796V76.6482H584.122V76.312H583.448V75.9759H582.774V75.6397H582.1V75.3035H581.426V74.9673H580.752V74.6311H580.078V74.295H579.066V73.9588H578.392V73.6226H577.718V73.2864H577.044V72.9503H576.37V72.6141H575.696V72.2779H575.022V71.9417H574.01V71.6056H573.336V71.2694H572.662V70.9332H571.651V70.597H570.977V70.2608H569.966V69.9247H569.292V69.5885H568.28V69.2523H567.606V68.9161H566.932V68.58H565.921V68.2438H565.247V67.9076H564.236V67.5714H563.225V67.2353H562.213V66.899H561.539V66.5629H560.528V66.2267H559.517V65.8905H558.506V65.5544H557.495V65.2182H556.82V64.882H555.809V64.5459H554.461V64.2097H553.45V63.8735H552.439V63.5373H551.428V63.2011H550.416V62.865H549.405V62.5288H548.057V62.1926H547.046V61.8564H545.698V61.5202H544.686V61.1841H543.338V60.8479H541.99V60.5117H540.979V60.1756H539.631V59.8394H538.282V59.5032H536.934V59.1671H535.586V58.8309H533.901V58.4947H532.552V58.1585H531.204V57.8223H529.856V57.4861H528.171V57.15H526.485V56.8138H524.8V56.4776H523.115V56.1414H521.429V55.8053H519.744V55.4691H517.722V55.1329H515.699V54.7967H513.677V54.4606H511.318V54.1244H509.295V53.7882H506.936V53.452H504.239V53.1159H501.88V52.7797H499.184V52.4435H496.15V52.1073H492.779V51.7711H489.409V51.435H485.364V51.0988H480.982V50.7626H475.926V50.4265H469.522V50.0903H459.074V49.7541H435.479V50.0903H424.694V50.4265H417.615V50.7626H411.211V51.0988H406.155V51.435H401.1V51.7711H397.055V52.1073H392.673V52.4435H388.965V52.7797H385.258V53.1159H381.887V53.452H378.18V53.7882H375.146V54.1244H372.112V54.4606H369.079V54.7967H365.708V55.1329H363.012V55.4691H360.315V55.8053H357.619V56.1414H354.922V56.4776H352.226V56.8138H349.53V57.15H347.17V57.4861H344.474V57.8223H342.114V58.1585H339.755V58.4947H337.395V58.8309H335.036V59.1671H332.677V59.5032H330.317V59.8394H328.295V60.1756H325.936V60.5117H323.913V60.8479H321.554V61.1841H319.531V61.5202H317.172V61.8564H315.15V62.1926H313.127V62.5288H311.105V62.865H309.083V63.2011H307.06V63.5373H305.038V63.8735H303.016V64.2097H300.993V64.5459H298.971V64.882H297.286V65.2182H295.263V65.5544H293.241V65.8905H291.218V66.2267H289.533V66.5629H287.511V66.899H285.826V67.2353H283.803V67.5714H282.118V67.9076H280.096V68.2438H278.41V68.58H276.388V68.9161H274.703V69.2523H273.017V69.5885H270.995V69.9247H269.31V70.2608H267.624V70.597H265.939V70.9332H264.254V71.2694H262.231V71.6056H260.546V71.9417H258.861V72.2779H257.176V72.6141H255.49V72.9503H253.805V73.2864H252.12V73.6226H250.434V73.9588H248.749V74.295H247.064V74.6311H245.379V74.9673H243.693V75.3035H242.008V75.6397H240.323V75.9759H238.637V76.312H236.952V76.6482H235.267V76.9844H233.581V77.3206H232.233V77.6567H230.548V77.9929H228.863V78.3291H227.177V78.6653H225.492V79.0014H224.144V79.3376H222.459V79.6738H220.773V80.01H219.088V80.3461H217.74V80.6823H216.054V81.0185H214.369V81.3546H213.021V81.6909H211.336V82.027H209.65V82.3632H208.302V82.6994H206.617V83.0355H204.932V83.3717H203.583V83.7079H201.898V84.0441H200.55V84.3802H198.864V84.7164H197.179V85.0526H195.831V85.3888H194.146V85.7249H192.797V86.0611H191.112V86.3973H189.427V86.7335H188.079V87.0696H186.393V87.4058H185.045V87.742H183.36V88.0782H182.012V88.4144H180.326V88.7505H178.978V89.0867H177.293V89.4229H175.944V89.7591H174.259V90.0952H172.911V90.4314H171.226V90.7676H169.877V91.1038H168.192V91.4399H166.844V91.7761H165.159V92.1123H163.81V92.4485H162.125V92.7846H160.777V93.1208H159.092V93.457H157.743V93.7932H156.395V94.1294H154.71V94.4655H153.362V94.8017H151.676V95.1379H150.328V95.4741H148.643V95.8102H147.295V96.1464H145.609V96.4826H144.261V96.8188H142.576V97.1549H141.227V97.4911H139.879V97.8273H138.194V98.1635H136.846V98.4996H135.16V98.8358H133.812V99.172H132.127V99.5082H130.779V99.8444H129.093V100.181H127.745V100.517H126.397V100.853H124.712V101.189H123.363V101.525H121.678V101.861H120.33V102.198H118.645V102.534H117.296V102.87H115.611V103.206H114.263V103.542H112.578V103.878H111.229V104.215H109.544V104.551H108.196V104.887H106.848V105.223H105.162V105.559H103.814V105.896H102.129V106.232H100.78V106.568H99.0952V106.904H97.7469V107.24H96.0616V107.576H94.3764V107.913H93.0281V108.249H91.3428V108.585H89.9946V108.921H88.3093V109.257H86.9611V109.593H85.2758V109.93H83.9275V110.266H82.2422V110.602H80.557V110.938H79.2087V111.274H77.5234V111.611H76.1752V111.947H74.4899V112.283H72.8046V112.619H71.4564V112.955H69.7711V113.291H68.0858V113.628H66.7376V113.964H65.0523V114.3H63.367V114.636H61.6817V114.972H60.3335V115.308H58.6482V115.645H56.9629V115.981H55.6146V116.317H53.9293V116.653H52.2441V116.989H50.5588V117.326H48.8735V117.662H47.1882V117.998H45.5029V118.334H44.1547V118.67H42.4694V119.006H40.7841V119.343H39.0988V119.679H37.4135V120.015H35.7282V120.351H34.0429V120.687H32.3576V121.023H30.3353V121.36H28.65V121.696H26.9647V122.032H25.2794V122.368H23.5941V122.704H21.9088V123.04H19.8864V123.377H18.2012V123.713H16.1788V124.049H14.4935V124.385H12.8082V124.721H10.7859V125.058H9.10058V125.394H7.07823V125.73H5.39293V126.066H3.37058V126.402H1.34823V126.738H0V126.402H0.674117V126.066H1.68529V125.73H3.03353V125.394H4.0447V125.058H5.05588V124.721H6.40411V124.385H7.41528V124.049H8.76352V123.713H9.77469V123.377H10.7859V123.04H12.1341V122.704H13.1453V122.368H14.4935V122.032H15.5047V121.696H16.5159V121.36H17.8641V121.023H18.8753V120.687H20.2235V120.351H21.2347V120.015H22.2459V119.679H23.5941V119.343H24.6053V119.006H25.9535V118.67H26.9647V118.334H28.3129V117.998H29.3241V117.662H30.3353V117.326H31.6835V116.989H32.6947V116.653H34.0429V116.317H35.0541V115.981H36.4023V115.645H37.4135V115.308H38.4247V114.972H39.7729V114.636H40.7841V114.3H42.1323V113.964H43.1435V113.628H44.4917V113.291H45.5029V112.955H46.5141V112.619H47.8623V112.283H48.8735V111.947H50.2217V111.611H51.2329V111.274H52.5811V110.938H53.5923V110.602H54.6035V110.266H55.9517V109.93H56.9629V109.593H58.3111V109.257H59.3223V108.921H60.6705V108.585H61.6817V108.249H63.0299V107.913H64.0411V107.576H65.0523V107.24H66.4005V106.904H67.4117V106.568H68.7599V106.232H69.7711V105.896H71.1193V105.559H72.1305V105.223H73.4787V104.887H74.4899V104.551H75.5011V104.215H76.8493V103.878H77.8605V103.542H79.2087V103.206H80.2199V102.87H81.5681V102.534H82.5793V102.198H83.9275V101.861H84.9387V101.525H86.287V101.189H87.2981V100.853H88.3093V100.517H89.6575V100.181H90.6687V99.8444H92.0169V99.5082H93.0281V99.172H94.3764V98.8358H95.3875V98.4996H96.7358V98.1635H97.7469V97.8273H99.0952V97.4911H100.106V97.1549H101.455V96.8188H102.466V96.4826H103.477V96.1464H104.825V95.8102H105.836V95.4741H107.185V95.1379H108.196V94.8017H109.544V94.4655H110.555V94.1294H111.903V93.7932H112.915V93.457H114.263V93.1208H115.274V92.7846H116.622V92.4485H117.633V92.1123H118.982V91.7761H119.993V91.4399H121.341V91.1038H122.352V90.7676H123.7V90.4314H124.712V90.0952H126.06V89.7591H127.071V89.4229H128.082V89.0867H129.43V88.7505H130.442V88.4144H131.79V88.0782H132.801V87.742H134.149V87.4058H135.16V87.0696H136.509V86.7335H137.52V86.3973H138.868V86.0611H139.879V85.7249H141.227V85.3888H142.239V85.0526H143.587V84.7164H144.598V84.3802H145.946V84.0441H146.957V83.7079H148.306V83.3717H149.317V83.0355H150.665V82.6994H151.676V82.3632H153.025V82.027H154.036V81.6909H155.384V81.3546H156.395V81.0185H157.743V80.6823H158.755V80.3461H160.103V80.01H161.114V79.6738H162.462V79.3376H163.473V79.0014H164.822V78.6653H165.833V78.3291H167.181V77.9929H168.192V77.6567H169.54V77.3206H170.552V76.9844H171.9V76.6482H173.248V76.312H174.259V75.9759H175.607V75.6397H176.619V75.3035H177.967V74.9673H178.978V74.6311H180.326V74.295H181.337V73.9588H182.686V73.6226H183.697V73.2864H185.045V72.9503H186.056V72.6141H187.404V72.2779H188.416V71.9417H189.764V71.6056H190.775V71.2694H192.123V70.9332H193.134V70.597H194.483V70.2608H195.831V69.9247H196.842V69.5885H198.19V69.2523H199.202V68.9161H200.55V68.58H201.561V68.2438H202.909V67.9076H203.92V67.5714H205.269V67.2353H206.28V66.899H207.628V66.5629H208.976V66.2267H209.987V65.8905H211.336V65.5544H212.347V65.2182H213.695V64.882H214.706V64.5459H216.054V64.2097H217.066V63.8735H218.414V63.5373H219.762V63.2011H220.773V62.865H222.121V62.5288H223.133V62.1926H224.481V61.8564H225.492V61.5202H226.84V61.1841H228.189V60.8479H229.2V60.5117H230.548V60.1756H231.559V59.8394H232.907V59.5032H233.919V59.1671H235.267V58.8309H236.615V58.4947H237.626V58.1585H238.974V57.8223H239.986V57.4861H241.334V57.15H242.682V56.8138H243.693V56.4776H245.041V56.1414H246.053V55.8053H247.401V55.4691H248.412V55.1329H249.76V54.7967H251.109V54.4606H252.12V54.1244H253.468V53.7882H254.479V53.452H255.827V53.1159H257.176V52.7797H258.187V52.4435H259.535V52.1073H260.883V51.7711H261.894V51.435H263.243V51.0988H264.254V50.7626H265.602V50.4265H266.95V50.0903H267.961V49.7541H269.31V49.4179H270.658V49.0817H271.669V48.7455H273.017V48.4094H274.029V48.0732H275.377V47.737H276.725V47.4008H277.736V47.0647H279.084V46.7285H280.433V46.3923H281.444V46.0562H282.792V45.72H284.14V45.3838H285.151V45.0476H286.5V44.7115H287.848V44.3752H288.859V44.0391H290.207V43.7029H291.556V43.3667H292.567V43.0306H293.915V42.6944H295.263V42.3582H296.274V42.0221H297.623V41.6859H298.971V41.3497H299.982V41.0135H301.33V40.6773H302.678V40.3412H303.69V40.005H305.038V39.6688H306.386V39.3326H307.734V38.9965H308.746V38.6603H310.094V38.3241H311.442V37.9879H312.453V37.6518H313.801V37.3156H315.15V36.9794H316.498V36.6432H317.509V36.307H318.857V35.9709H320.205V35.6347H321.217V35.2985H322.565V34.9623H323.913V34.6262H325.261V34.29H326.61V33.9538H327.621V33.6176H328.969V33.2815H330.317V32.9453H331.665V32.6091H332.677V32.2729H334.025V31.9367H335.373V31.6006H336.721V31.2644H337.733V30.9282H339.081V30.5921H340.429V30.2559H341.777V29.9197H343.125V29.5835H344.474V29.2473H345.485V28.9112H346.833V28.575H348.181V28.2388H349.53V27.9026H350.878V27.5665H352.226V27.2303H353.237V26.8941H354.585V26.5579H355.934V26.2217H357.282V25.8856H358.63V25.5494H359.978V25.2132H361.327V24.8771H362.675V24.5409H364.023V24.2047H365.034V23.8685H366.383V23.5323H367.731V23.1962H369.079V22.86H370.427V22.5238H371.775V22.1877H373.124V21.8515H374.472V21.5153H375.82V21.1791H377.168V20.8429H378.517V20.5068H379.865V20.1706H381.213V19.8344H382.561V19.4982H384.247V19.1621H385.595V18.8259H386.943V18.4897H388.291V18.1535H389.64V17.8174H390.988V17.4811H392.336V17.145H394.021V16.8088H395.37V16.4727H396.718V16.1365H398.066V15.8003H399.414V15.4641H401.1V15.1279H402.448V14.7918H404.133V14.4556H405.481V14.1194H406.829V13.7832H408.515V13.4471H409.863V13.1108H411.548V12.7747H413.234V12.4385H414.582V12.1024H416.267V11.7662H417.615V11.43H419.301V11.0938H420.986V10.7577H422.671V10.4215H424.019V10.0853H425.705V9.74911H427.39V9.41293H429.075V9.07678H430.761V8.74057H432.446V8.40439H434.131V8.06824H435.817V7.73209H437.502V7.3959H439.187V7.05969H441.209V6.72354H442.895V6.38736H444.917V6.05121H446.602V5.71503H448.625V5.37881H450.31V5.04266H452.332V4.70648H454.355V4.37027H456.714V4.03412H458.737V3.69794H460.759V3.36179H463.118V3.02563H465.478V2.68939H468.174V2.35324H470.534V2.01709H473.23V1.68091H476.264V1.34476H479.634V1.00854H482.668V0.672363H487.049V0.336212H491.431V0H522.778V0.336212H527.496V0.672363H531.204V1.00854H533.901V1.34476H536.934V1.68091H539.631V2.01709H541.653V2.35324H544.012V2.68939H546.035V3.02563H548.057V3.36179H549.742V3.69794H551.428V4.03412H553.113V4.37027H554.798V4.70648H556.483V5.04266H558.169V5.37881H559.517V5.71503H561.202V6.05121H562.55V6.38736H563.899V6.72354H565.247V7.05969H566.595V7.3959H567.943V7.73209H569.292V8.06824H570.303V8.40439H571.651V8.74057H572.662V9.07678H574.01V9.41293H575.022V9.74911H576.033V10.0853H577.044V10.4215H578.055V10.7577H579.066V11.0938H580.078V11.43H581.089V11.7662H582.1V12.1024H583.111V12.4385H584.122V12.7747H584.796V13.1108H585.808V13.4471H586.819V13.7832H587.83V14.1194H588.504V14.4556H589.515V14.7918H590.189V15.1279H591.2V15.4641H591.875V15.8003H592.886V16.1365H593.897V16.4727H594.571V16.8088H595.245V17.145H596.256V17.4811H596.93V17.8174H597.605V18.1535H598.616V18.4897H599.29V18.8259H600.301V19.1621H600.975V19.4982H601.649V19.8344H602.323V20.1706H602.997V20.5068H604.009V20.8429H604.683V21.1791H605.357V21.5153H606.031V21.8515H606.705V22.1877H607.716V22.5238H608.39V22.86H609.065V23.1962H609.739V23.5323H610.413V23.8685H611.087V24.2047H611.761V24.5409H612.435V24.8771H613.109V25.2132H613.783V25.5494H614.458V25.8856H615.132V26.2217H615.806V26.5579H616.48V26.8941H617.154V27.2303H617.828V27.5665H618.502V27.9026H618.839V28.2388H619.513V28.575H620.188V28.9112H620.862V29.2473H621.536V29.5835H622.21V29.9197H622.884V30.2559H623.221V30.5921H623.895V30.9282H624.569V31.2644H625.243V31.6006H625.917V31.9367H626.255V32.2729H626.929V32.6091H627.603V32.9453H627.94V33.2815H628.614V33.6176H629.288V33.9538H629.962V34.29H630.299V34.6262H630.973V34.9623H631.647V35.2985H631.985V35.6347H632.659V35.9709H633.333V36.307H633.67V36.6432H634.344V36.9794H634.681V37.3156H635.355V37.6518H636.029V37.9879H636.366V38.3241H637.04V38.6603H637.377V38.9965H638.052V39.3326H638.726V39.6688H639.063V40.005H639.737V40.3412H640.074V40.6773H640.748V41.0135H641.085V41.3497H641.759V41.6859H642.096V42.0221H642.77V42.3582H643.107V42.6944H643.782V43.0306H644.119V43.3667H644.793V43.7029H645.13V44.0391H645.467V44.3752H646.141V44.7115H646.478V45.0476H647.152V45.3838H647.489V45.72H648.163V46.0562H648.5V46.3923H649.174V46.7285H649.512V47.0647H649.849V47.4008H650.523V47.737H650.86V48.0732H651.197V48.4094H651.871V48.7455H652.208V49.0817H652.545V49.4179H653.219V49.7541H653.556V50.0903H653.893V50.4265H654.567V50.7626H654.904V51.0988H655.242V51.435H655.916V51.7711H656.253V52.1073H656.59V52.4435H657.264V52.7797H657.601V53.1159H657.938V53.452H658.275V53.7882H658.949V54.1244H659.286V54.4606H659.623V54.7967H659.96V55.1329H660.635V55.4691H660.972V55.8053H661.309V56.1414H661.646V56.4776H661.983V56.8138H662.657V57.15H662.994V57.4861H663.331V57.8223H663.668V58.1585H664.342V58.4947H664.679V58.8309H665.016V59.1671H665.353V59.5032H665.69V59.8394H666.027V60.1756H666.702V60.5117H667.039V60.8479H667.376V61.1841H667.713V61.5202H668.05V61.8564H668.387V62.1926H668.724V62.5288H669.061V62.865H669.398V63.2011H670.072V63.5373H670.409V63.8735H670.746V64.2097H671.083V64.5459H671.42V64.882H671.757V65.2182H672.094V65.5544H672.432V65.8905H672.769V66.2267H673.106V66.5629H673.443V66.899H673.78V67.2353H674.454V67.5714H674.791V67.9076H675.128V68.2438H675.465V68.58H675.802V68.9161H676.139V69.2523H676.476V69.5885H676.813V69.9247H677.15V70.2608H677.487V70.597H677.824V70.9332H678.162V71.2694H678.499V71.6056H678.836V71.9417H679.173V72.2779H679.51V72.6141H679.847V72.9503H680.184V73.2864H680.521V73.6226H680.858V73.9588H681.195V74.6311H681.532V74.9673H681.869V75.3035H682.206V75.6397H682.543V75.9759H682.88V76.312H683.217V76.6482H683.554V76.9844H683.892V77.3206H684.229V77.6567H684.566V78.3291H684.903V78.6653H685.24V79.0014H685.577V79.3376H685.914V79.6738H686.251V80.01H686.588V80.3461H686.925V80.6823H687.262V81.0185H687.599V81.6909H687.936V82.027H688.273V82.3632H688.61V82.6994H688.947V83.0355H689.284V83.7079H689.622V84.0441H689.959V84.3802H690.296V84.7164H690.633V85.3888H690.97V85.7249H691.307V86.0611H691.644V86.3973H691.981V86.7335H692.318V87.4058H692.655V87.742H692.992V88.0782H693.329V88.4144H693.666V89.0867H694.003V89.4229H694.34V89.7591H694.677V90.4314H695.014V90.7676H695.352V91.1038H695.689V91.7761H696.026V92.1123H696.363V92.4485H696.7V93.1208H697.037V93.457H697.374V94.1294H697.711V94.4655H698.048V94.8017H698.385V95.4741H698.722V95.8102H699.059V96.4826H699.396V96.8188H699.733V97.1549H700.07V97.8273H700.407V98.1635H700.744V98.8358H701.082V99.172H701.419V99.8444H701.756V100.181H702.093V100.853H702.43V101.525H702.767V101.861H703.104V102.534H703.441V102.87H703.778V103.542H704.115V104.215H704.452V104.551H704.789V105.223H705.126V105.559H705.463V106.232H705.8V106.568H706.137V107.24H706.474V107.913H706.812V108.585H707.149V109.257H707.486V109.593H707.823V110.266H708.16V110.938H708.497V111.611H708.834V112.283H709.171V112.955H709.508V113.291H709.845V113.964H710.182V114.636H710.519V115.308H710.856V115.981H711.193V116.653H711.53V116.989H711.867V117.998H712.204V118.67H712.542V119.343H712.879V120.015H713.216V120.687H713.553V121.696H713.89V122.368H714.227V123.04H714.564V123.713H714.901V124.385H715.238V125.058H715.575V126.066H715.912V126.738H716.249V127.411H716.586V128.419H716.923V129.428H717.26V130.1H717.597V131.109H717.934V132.117H718.271V132.79H718.609V133.798H718.946V134.807H719.283V135.479H719.62V136.488H719.957V137.496H720.294V138.505H720.631V139.513H720.968V140.522H721.305V141.866H721.642V142.875H721.979V144.22H722.316V145.228H722.653V146.237H722.99V147.581H723.327V148.59H723.664V150.271H724.001V151.616H724.339V153.296H724.676V154.977H725.013V156.322H725.35V158.003H725.687V159.684H726.024V161.701H726.361V164.054H726.698V166.407H727.035V169.097H727.372V171.45H727.709V175.484H728.046V181.199H728.383V199.689H728.046V203.387H727.709V207.421H727.372V211.119H727.035V213.808H726.698V216.161H726.361V218.178H726.024V220.195H725.687V222.212H725.35V224.566H725.013V226.583H724.676V228.264H724.339V229.608H724.001V230.953H723.664V232.634H723.327V233.979H722.99V235.323H722.653V237.004H722.316V238.349H721.979V240.03H721.642V241.375H721.305V242.383H720.968V243.728H720.631V244.736H720.294V245.745H719.957V247.09H719.62V248.098H719.283V249.443H718.946V250.451H718.609V251.46H718.271V252.805H717.934V253.813H717.597V254.822H717.26V256.166H716.923V257.175H716.586V258.183H716.249V258.856H715.912V259.864H715.575V260.873H715.238V261.881H714.901V262.89H714.564V263.898H714.227V264.571H713.89V265.579H713.553V266.588H713.216V267.596H712.879V268.605H712.542V269.277H712.204V270.286H711.867V270.958H711.53V271.967H711.193V272.639H710.856V273.647H710.519V274.32H710.182V275.328H709.845V276.001H709.508V276.673H709.171V277.345H708.834V278.354H708.497V279.026H708.16V279.699H707.823V280.371H707.486V281.043H707.149V282.052H706.812V282.724H706.474V283.06H706.137V283.733H705.8V284.405H705.463V285.077H705.126V285.75H704.789V286.422H704.452V287.095H704.115V287.767H703.778V288.439H703.441V289.112H703.104V289.784H702.767V290.12H702.43V290.792H702.093V291.465H701.756V292.137H701.419V292.473H701.082V293.146H700.744V293.818H700.407V294.154H700.07V294.827H699.733V295.499H699.396V295.835H699.059V296.507H698.722V296.844H698.385V297.516H698.048V298.188H697.711V298.525H697.374V299.197H697.037V299.869H696.7V300.205H696.363V300.878H696.026V301.214H695.689V301.55H695.352V302.222H695.014V302.559H694.677V303.231H694.34V303.567H694.003V304.24H693.666V304.576H693.329V304.912H692.992V305.584H692.655V305.92H692.318V306.593H691.981V306.929H691.644V307.601H691.307V307.937H690.97V308.274H690.633V308.946H690.296V309.282H689.959V309.618H689.622V310.291H689.284V310.627H688.947V310.963H688.61V311.299H688.273V311.972H687.936V312.308H687.599V312.644H687.262V312.98H686.925V313.652H686.588V313.989H686.251V314.325H685.914V314.661H685.577V315.333H685.24V315.67H684.903V316.006H684.566V316.342H684.229V317.014H683.892V317.35H683.554V317.687H683.217V318.023H682.88V318.359H682.543V318.695H682.206V319.031H681.869V319.367H681.532V320.04H681.195V320.376H680.858V320.712H680.521V321.048H680.184V321.385H679.847V321.721H679.51V322.057H679.173V322.393H678.836V323.065H678.499V323.402H678.162V323.738H677.824V324.074H677.487V324.41H677.15V324.746H676.813V325.082H676.476V325.419H676.139V325.755H675.802V326.091H675.465V326.427H675.128V326.763H674.791V327.1H674.454V327.436H674.117V327.772H673.78V328.108H673.443V328.444H673.106V328.78H672.769V329.117H672.432V329.453H672.094V329.789H671.757V330.125H671.42V330.461H671.083V330.797H670.746V331.134H670.409V331.47H670.072V331.806H669.735V332.142H669.398V332.478H669.061V332.814H668.724V333.151H668.387V333.487H668.05V333.823H667.713V334.159H667.376V334.495H667.039V334.832H666.365V335.168H666.027V335.504H665.69V335.84H665.353V336.176H665.016V336.512H664.679V336.849H664.342V337.185H664.005V337.521H663.668V337.857H663.331V338.193H662.657V338.529H662.32V338.866H661.983V339.202H661.646V339.538H661.309V339.874H660.972V340.21H660.635V340.547H659.96V340.883H659.623V341.219H659.286V341.555H658.949V341.891H658.275V342.227H657.938V342.564H657.601V342.9H657.264V343.236H656.927V343.572H656.253V343.908H655.916V344.244H655.579V344.581H655.242V344.917H654.567V345.253H654.23V345.589H653.893V345.925H653.556V346.262H653.219V346.598H652.545V346.934H652.208V347.27H651.871V347.606H651.197V347.942H650.86V348.279H650.523V348.615H649.849V348.951H649.512V349.287H649.174V349.623H648.5V349.959H648.163V350.296H647.826V350.632H647.152V350.968H646.815V351.304H646.141V351.64H645.804V351.977H645.467V352.313H644.793V352.649H644.456V352.985H644.119V353.321H643.445V353.657H643.107V353.994H642.433V354.33H642.096V354.666H641.422V355.002H641.085V355.338H640.411V355.674H640.074V356.011H639.4V356.347H639.063V356.683H638.389V357.019H638.052V357.355H637.377V357.692H637.04V358.028H636.366V358.364H636.029V358.7H635.355V359.036H635.018V359.372H634.681V359.709H634.007V360.045H633.333V360.381H632.996V360.717H632.322V361.053H631.647V361.389H631.31V361.726H630.636V362.062H629.962V362.398H629.625V362.734H628.951V363.07H628.277V363.407H627.94V363.743H627.266V364.079H626.929V364.415H626.255V364.751H625.58V365.087H625.243V365.424H624.569V365.76H623.895V366.096H623.221V366.432H622.547V366.768H622.21V367.104H621.536V367.441H620.862V367.777H620.188V368.113H619.513V368.449H619.176V368.785H618.502V369.122H617.828V369.458H617.154V369.794H616.48V370.13H616.143V370.466H615.469V370.802H614.794V371.139H614.12V371.475H613.446V371.811H612.772V372.147H612.098V372.483H611.424V372.819H610.75V373.156H610.076V373.492H609.402V373.828H608.728V374.164H608.053V374.5H607.379V374.837H606.705V375.173H606.031V375.509H605.357V375.845H604.683V376.181H603.672V376.517H602.997V376.854H602.323V377.19H601.649V377.526H600.638V377.862H599.964V378.198H599.29V378.534H598.616V378.871H597.942V379.207H596.93V379.543H596.256V379.879H595.582V380.215H594.908V380.552H593.897V380.888H593.223V381.224H592.212V381.56H591.538V381.896H590.526V382.232H589.852V382.569H588.841V382.905H588.167V383.241H587.156V383.577H586.482V383.913H585.47V384.249H584.796V384.586H583.785V384.922H583.111V385.258H582.1V385.594H581.089V385.93H580.078V386.267H579.066V386.603H578.055V386.939H577.381V387.275H576.37V387.611H575.359V387.947H574.348V388.284H573.336V388.62H572.325V388.956H571.314V389.292H570.303V389.628H569.292V389.964H567.943V390.301H566.932V390.637H565.921V390.973H564.91V391.309H563.899V391.645H562.55V391.982H561.539V392.318H560.191V392.654H558.843V392.99H557.832V393.326H556.483V393.662H555.135V393.999H553.787V394.335H552.776V394.671H551.428V395.007H550.079V395.343H548.394V395.679H547.046V396.016H545.361V396.352H544.012V396.688H542.327V397.024H540.979V397.36H539.294V397.697H537.608V398.033H535.586V398.369H533.901V398.705H531.878V399.041H530.193V399.377H528.171V399.714H525.811V400.05H523.115V400.386H520.755V400.722H518.396V401.058H515.362V401.394H511.655V401.731H508.284V402.067H503.565V402.403H497.161V402.739" fill="white"/>
</svg>
