<svg width="260" height="360" viewBox="0 0 260 360" fill="none" xmlns="http://www.w3.org/2000/svg">
<path d="M91.9627 284.526L92.5286 284.309C92.2165 283.701 91.9692 283.393 91.9201 282.713C91.325 282.041 90.9391 281.32 90.7725 280.446C90.462 278.816 90.6715 278.393 91.9096 277.199L91.9355 275.724L92.1249 275.943L92.242 276.766L92.527 276.886L92.7394 276.573L92.527 276.187L92.814 275.871L92.6705 275.558L92.8387 275.195C92.6129 274.939 92.2209 274.283 92.2745 273.914L92.0851 273.694L91.8464 273.934L92.0831 274.829L91.7953 275.339C91.3327 272.982 90.087 271.038 89.204 268.852C88.5526 267.237 87.9944 265.579 87.3449 263.962C86.9987 263.098 86.5394 262.265 86.2119 261.396C85.9581 260.721 85.7858 259.963 85.5791 259.269C85.5487 259.167 85.3675 259.006 85.3423 258.905C84.8344 256.87 84.4193 254.753 83.48 252.858L83.5996 252.302L83.2935 251.576C83.692 250.812 83.212 249.676 83.0126 248.951C82.381 246.655 81.7782 245.442 80.1445 243.72C79.7407 243.294 79.1444 242.777 78.5404 242.623L78.2343 241.727C78.1901 241.774 77.7409 241.823 77.6651 241.824C76.6736 241.175 76.031 240.211 75.1278 239.52C75.0723 239.478 73.5622 238.644 73.4678 238.602C72.9189 238.358 72.2703 238.471 71.832 237.994L72.4729 237.125C73.3753 236.807 75.4947 236.19 76.0136 235.462L76.1012 235.46C76.3882 233.894 75.7071 236.066 72.9254 236.182L73.0239 234.541C73.0462 234.174 72.9018 233.797 72.9306 233.476C72.9955 232.73 73.5622 231.966 73.4309 231.205L73.859 230.746C74.2327 230.702 74.6057 230.644 74.9758 230.579L75.641 230.869L75.6889 229.88C75.429 229.768 74.9259 229.497 74.7634 229.247C74.7784 228.921 74.6714 228.128 74.3616 227.919H74.0292C73.9956 227.393 73.7653 225.474 73.9627 225.116L75.2924 224.996L75.5081 224.826C75.4404 224.239 75.2944 223.34 74.8222 222.942C75.5762 222.387 75.2332 220.725 75.7055 219.849C75.8072 219.646 78.2307 219.395 78.5809 219.346L77.9643 218.91L75.9451 219.027L75.5413 218.641C75.4671 218.441 75.9982 217.181 76.0918 216.926L76.4003 216.853L77.0198 216.25L76.7356 215.598L76.9512 214.992L77.4247 214.632L77.6878 214.002L78.4269 213.546L78.4994 213.303L78.1901 212.601L78.2631 212.265L78.5233 212.071C78.2339 211.829 77.9177 211.309 77.8613 210.932L78.0288 210.28L78.4569 210.09L78.7662 209.291L78.9814 209.148L79.598 209.437L79.8137 209.367L80.7635 209.9L81.0955 209.876C80.1745 209.298 79.5944 208.155 78.8193 207.359L78.7467 206.899C79.7963 205.15 79.7833 204.02 79.9681 202.069L80.2077 201.875L80.4197 202.069L80.0581 204.582L80.8697 204.439L81.1539 204.704L81.3671 204.585C81.3116 204.314 81.404 203.871 81.5585 203.643L81.5135 203.449L82.0401 201.854L81.6351 200.499L81.0898 200.476L80.8267 200.256L80.7339 199.724L80.8774 199.411L80.7817 198.976L81.2362 198.179L80.7838 198.01L80.4274 197.381L81.0258 196.175C81.1965 196.17 81.5751 196.077 81.6699 195.909L81.9306 195.935L82.1228 195.379L81.4336 195.039L81.2901 195.183L80.5531 195.256L80.2689 194.893C80.4801 194.56 80.4643 193.882 80.2937 193.538L80.7481 193.056L81.0594 191.703L82.2034 191.586L82.3469 191.44C81.3619 191.302 80.2831 190.016 80.4457 188.997L82.5148 188.686L82.0417 188.251L80.8048 188.344L80.6853 188.007L81.068 187.331L80.6155 186.872L80.5945 186.413L81.2593 186.462L81.4989 185.786L80.9301 185.93C80.7359 185.703 80.275 185.505 79.9771 185.517L79.7857 185.034C80.3135 183.194 79.6487 180.815 79.416 178.945L79.0572 179.452L78.8679 179.236C80.5349 176 80.635 171.978 83.3661 169.363L83.7484 169.316C83.9356 169.502 83.8655 170.105 83.8655 170.354L84.4375 169.848L84.8425 170.5L85.4538 170.661L85.946 171.176C85.9727 170.742 84.7091 169.424 84.4168 169.075C84.2348 168.405 84.6657 167.877 84.7784 167.263C84.8352 166.958 84.7375 166.584 84.7784 166.271C84.8705 165.574 85.194 163.872 85.8584 163.378L85.8114 163.088L85.2394 163.232L85.05 163.086C85.5803 162.029 87.0685 159.602 88.2052 159.253L87.8959 158.987C87.8906 158.641 89.3419 157.075 89.62 156.745L89.9041 156.722C90.8329 155.742 91.5447 154.791 92.3458 153.685L92.2043 153.275C92.4597 151.286 93.8198 151.367 94.1915 150.381C94.3204 150.038 94.3456 149.568 94.5053 149.245C94.7355 148.782 95.1802 148.382 95.415 147.92C95.7839 147.194 96.0255 146.355 96.3538 145.605C96.4775 145.323 96.6482 145.007 96.889 144.819L97.2396 144.547C97.6199 143.633 97.9661 142.663 98.3946 141.772C98.9276 140.663 100.147 139.064 100.027 137.755H100.456C100.567 136.167 101.661 135.73 102.201 134.355L102.679 134.296L103.039 133.445C103.677 133.351 104.585 132.685 104.989 132.215L105.444 132.4C105.726 131.376 106.449 129.872 107.29 129.193C107.609 128.935 108.119 128.871 108.386 128.526C108.363 128.24 108.44 127.558 108.706 127.367L108.644 127.145L108.184 127.339C108.017 126.861 108.678 125.066 108.83 124.556L108.639 124.114L109.772 122.415L109.711 122.152C110.354 120.946 112.641 119.002 113.752 117.765L114.604 117.757L115.421 118.427L115.923 118.456C116.165 118.523 116.517 119.431 116.623 119.652L116.886 119.679C116.452 117.597 115.609 117.136 113.725 116.601L113.641 116.338L114.846 114.222C114.889 114.145 115.261 113.933 115.309 113.853C115.655 113.273 115.862 112.573 116.184 111.975C116.581 111.236 116.951 110.882 117.28 109.926C117.204 109.663 117.113 109.399 117.051 109.131L117.573 107.533L118.115 107.805C118.25 107.437 118.674 106.834 119.068 106.697C118.941 105.286 119.352 103.099 120.438 102.124C120.404 101.655 120.581 100.933 120.852 100.546C121.741 100.311 122.794 98.2185 122.533 97.3392C122.907 96.9675 123.224 96.3051 123.318 95.7915C123.541 95.5774 124.395 95.5219 124.678 95.5251C124.305 94.8408 124.29 94.1006 124.791 93.5265L125.295 93.4674C125.63 93.1321 126.116 92.3165 126.039 91.8081L126.346 91.7234L126.768 91.2256L127.14 91.1648C127.727 89.8217 128.654 89.6511 129.335 88.7799C129.437 88.6493 129.833 87.5536 129.968 87.3367C130.298 86.8069 130.826 86.3642 131.168 85.8392C131.209 85.7768 131.563 84.2294 131.633 84.0421C131.886 83.3623 132.331 82.6808 132.537 81.9909C132.738 81.3187 132.667 80.4755 132.896 79.8196C133.254 78.7936 133.914 77.6873 134.386 76.6974C134.46 76.5425 134.478 76.0443 134.551 75.8663C134.912 74.9793 135.547 74.1576 136.099 73.3821C136.276 73.1328 136.938 73.256 137.191 73.224C137.72 73.1567 138.363 72.8324 138.884 72.8348C139.394 72.8373 140.077 73.1717 140.564 72.8815L139.745 72.1643L139.559 71.5031L139.296 71.5206L139.171 71.0556L139.852 69.5516C140.793 69.4369 141.238 68.6533 141.583 67.8429C142.604 67.1971 145.062 66.9806 146.188 67.1493C146.228 67.1554 147.438 67.7918 147.555 67.8518C147.582 67.866 149.298 67.8003 149.436 67.7959L149.683 67.3601C149.036 67.0585 148.397 67.1104 147.699 67.0844L147.422 66.5959L146.938 66.7423L146.661 66.3414L146.374 66.3827C147.073 65.2951 147.978 64.6339 148.826 63.7169C149.485 63.0046 149.087 61.5124 149.77 60.7207C150.043 60.4049 150.464 60.1195 150.791 59.8422C150.884 59.7627 151.255 59.6363 151.389 59.5819L151.734 59.8078C151.931 59.571 152.476 59.1583 152.818 59.2102C152.853 59.1595 153.051 58.9033 153.064 58.8624C153.245 58.2794 153.396 57.6337 153.62 57.0685C153.652 56.9907 153.919 56.739 153.932 56.6794C154.032 56.1808 154.419 53.5624 154.778 53.3524L155.153 53.2032C154.964 52.6024 154.702 51.4649 154.841 50.8244L154.538 50.6428L154.434 50.2654C154.545 49.7331 154.992 48.9884 155.426 48.656L155.799 48.6179L156.254 48.9337L156.823 48.9219C156.94 48.7176 156.905 48.3045 156.794 48.1087L157.366 47.9859L157.656 47.5732L157.275 46.7981C157.688 46.0875 157.551 45.3501 157.86 44.6094C158.032 44.1984 158.272 43.7865 158.472 43.3864C158.486 43.3576 159.374 42.5355 159.433 42.4791L160.199 42.5375L160.443 42.3445C160.317 42.1025 159.614 41.9063 159.377 41.8646C159.71 40.6837 160.269 39.6532 161.463 39.1286L161.274 38.7074L161.436 38.2477C161.812 37.9591 162.301 37.6546 162.635 37.3263C162.722 37.2415 162.901 36.8292 162.997 36.7145C163.085 36.6091 163.555 36.2524 163.598 36.1762C163.975 35.5048 164.254 34.6426 164.559 33.9291L164.434 33.6834C164.673 33.0437 164.237 32.5184 164.617 31.8402C165.243 30.7229 166.049 29.7776 166.889 28.8233C167.352 28.2971 168.968 27.8236 169.546 27.4656C170.256 27.0258 170.863 26.3601 171.573 25.9207C172.144 25.5676 172.882 25.4022 173.498 25.0309C173.636 24.9474 173.7 24.87 173.853 24.8173C174.274 24.6717 174.828 24.7256 175.263 24.6036C175.977 24.4038 176.838 24.0847 177.518 23.7904C177.913 23.6193 178.371 23.128 178.824 23.1321L179.019 23.2898C179.141 23.1779 180.259 22.1372 180.316 22.1048C180.899 21.7744 181.764 21.6439 182.394 21.3763C182.685 21.2527 182.946 20.99 183.237 20.8643C184.093 20.4946 185.154 20.0515 186.048 19.7994C187.19 19.4775 188.205 19.7288 189.317 19.9749C189.576 20.0321 189.995 19.9579 190.262 19.9514L191.022 19.2639C192.209 18.8042 193.771 19.4475 195.002 19.0356C195.584 18.841 196.187 18.3201 196.757 18.0611C197.389 17.7741 198.131 17.6399 198.75 17.3326C199.652 16.8842 202.406 14.7118 202.383 13.7157L201.454 12.9463L202.572 12.0889L203.004 11.0434C203.379 10.1386 203.784 10.1865 204.253 9.50825C204.283 9.46487 204.921 8.09709 204.944 8.02777C204.971 7.94426 204.883 7.60658 204.91 7.52145C205.088 6.96202 205.413 6.36448 205.649 5.82167L206.7 6.12895C207.664 5.39074 207.765 5.04779 208.064 4.0254C208.568 3.76393 211.366 2.50763 211.43 2.03252L212.278 2.40101C212.743 2.28102 213.252 2.05684 213.656 1.79537L213.595 1.48524L213.736 1.1577C213.938 0.998787 215.109 1.56105 215.353 1.65794L215.731 1.46781L216.41 1.57038L217.37 1L217.918 1.05554L218.479 1.55295C218.844 1.53674 219.365 1.68632 219.705 1.79861C220.332 2.84005 220.862 2.58952 221.352 2.96045C223.213 4.37038 223.279 5.52492 223.751 7.6155L224.137 8.01926L224.935 7.86116L225.148 8.11007L224.954 8.9176L225.8 10.3454C226.182 10.6133 227.09 11.0856 227.587 11.0272L227.93 10.486L228.457 10.4743C228.649 10.2347 229.246 9.60392 229.577 9.55527L229.684 9.77783L228.843 10.8578L228.986 11.3025L228.35 12.2329C228.371 12.8284 229.982 13.6497 230.507 13.933L230.619 14.7961L230.835 14.9542L231.787 14.7345L232.645 15.4605L233.022 15.4017L233.388 15.7208L234.178 15.8262L234.051 16.549L234.455 17.0432L234.362 17.2596L233.963 17.4498L233.53 17.1749L233.413 18.4275C233.749 17.9334 234.65 17.4939 235.217 17.3918C235.29 17.0488 235.585 16.4132 235.906 16.2214L235.491 16.0779L235.472 15.9466L236.033 15.4111L236.603 15.4666L236.751 15.7123L236.61 16.084C237.497 16.1428 238.008 17.4283 238.534 17.4506L238.754 17.3687L238.832 16.9532L239.355 17.0322C239.403 17.3241 239.642 17.967 239.946 18.1032L241.02 18.1296C241.124 18.4957 241.216 18.8654 241.303 19.2355L241.98 19.2971C242.491 17.9464 244.589 18.4186 245.322 19.2708C246.007 18.9769 247.311 19.1325 247.905 19.578L250.041 19.3235L250.403 18.9168L250.712 18.9898L250.654 19.5164L250.201 20.011L250.39 20.3239L250.919 20.315C250.974 20.6746 250.865 21.3621 250.579 21.626C250.825 22.1672 250.264 23.0335 250.337 23.3785C250.5 24.163 250.934 25.2924 251.637 25.7456L251.472 26.2256C251.894 27.2005 251.602 29.2023 252.792 29.6462L252.385 30.0763L252.842 30.2429C253.379 29.9551 253.786 29.9746 254.32 29.8627C255.491 29.6178 255.895 29.1606 256.973 29.9766L257.372 30.778L257.635 30.7403L258.015 30.3978L258.771 30.9244L258.847 31.346C258.764 31.7668 258.077 32.0068 257.711 32.0424C257.339 32.4458 256.972 32.9671 256.559 33.3097C256.494 33.364 256.166 33.4378 256.073 33.4937C255.73 33.7001 255.456 34.0868 255.107 34.2838C254.791 34.4626 254.243 34.5635 253.9 34.675C252.118 35.2555 251.042 35.7274 250.442 37.5524C249.742 37.7134 249.55 38.3454 249.031 38.6819C247.831 39.4602 247.94 38.4532 247.311 40.2357C247.237 40.4416 247.092 40.8037 247.172 41.055C246.547 42.0222 245.967 42.6952 245.098 43.4018L244.182 44.1448C244.094 44.2466 243.684 45.1332 243.563 45.3184C243.282 45.7473 242.896 46.1207 242.61 46.5472C241.596 48.0625 240.596 54.7972 240.757 57.0369C240.871 58.6277 241.413 60.0887 241.937 61.5748C241.955 61.6239 241.966 61.9466 241.971 62.0167L241.222 62.1951L241.394 62.3767L242.089 62.5494L242.281 62.7946L242.203 63.2981C242.237 63.3614 242.514 63.8405 242.517 63.8778C242.678 65.2894 242.795 66.7301 243.004 68.1352C243.198 69.4438 244.503 72.198 245.461 73.1441C245.85 73.5276 246.554 73.6375 247.066 73.779L247.149 73.9371L247.076 74.1977L245.159 73.8641L244.818 74.4698C244.812 75.1573 244.887 75.6997 245.478 76.0937L245.789 75.8363L246.137 75.9121L246.281 76.3102L245.925 76.6082C245.425 77.515 246.478 81.204 245.821 81.6439C244.909 81.7448 243.871 82.1356 243.068 82.5629C242.606 82.9561 242.648 84.1163 242.799 84.6462C243.338 84.9093 243.826 85.8591 243.935 86.4112L244.608 86.56L244.69 86.8263L244.467 87.04C243.244 87.0246 241.907 88.2318 241.099 89.0004C240.927 90.6224 239.528 91.1173 239.148 92.0084C238.694 93.0758 238.316 94.0325 238.154 95.1947C238.066 95.8247 238.111 96.5021 238 97.126C237.822 98.1257 237.463 99.1959 237.078 100.13L236.383 101.813C236.331 102.036 236.392 102.171 236.398 102.4L236.428 103.574C236.418 103.926 236.071 104.524 236.29 104.845C236.214 105.131 236.057 105.848 235.803 106.088C235.465 106.406 234.273 107.386 234.191 107.829C234.069 108.491 234.004 109.541 233.765 110.149C233.693 110.33 233.573 110.386 233.451 110.537C232.818 111.321 232.378 111.977 231.259 111.934C230.861 112.094 230.288 113.406 230.15 113.777C229.734 114.03 227.668 115.25 227.587 115.342C226.49 116.6 225.83 117.664 225.253 119.286C226.422 121.874 226.229 121.81 225.461 124.524C225.264 125.219 222.926 126.789 222.367 127.529L221.702 128.715C221.514 129.052 221.233 129.517 221.223 129.94L221.289 130.939C221.31 131.271 221.342 131.721 221.502 132.035C222.575 134.144 222.398 134.218 224.072 135.81C224.427 136.148 224.466 137.319 224.297 137.752H223.856L223.51 138.461C221.701 139.477 220.384 141.324 220.616 143.5L220.991 144.059L220.871 144.252L221.06 144.422C220.381 146.433 220.627 147.668 220.29 149.556C220.106 150.584 219.965 151.651 219.734 152.667C219.545 153.495 218.96 154.356 218.68 155.168C218.487 155.728 218.363 156.35 218.208 156.924C218.054 157.499 217.356 157.897 217.286 158.63C217.202 159.487 217.171 160.57 217.208 161.43C217.232 161.962 217.456 162.519 217.478 163.051C217.491 163.366 217.134 164.13 217.028 164.351C216.739 164.955 216.473 165.511 216.12 166.081C215.29 167.425 214.821 167.948 215.528 169.456C215.377 169.882 215.127 170.349 215.039 170.779C214.824 171.826 214.803 172.952 214.555 173.989C214.53 174.095 214.133 174.673 214.069 174.829C213.742 175.62 213.552 176.915 213.468 177.746C213.391 178.498 213.527 179.319 213.422 180.063C213.415 180.117 212.678 183.206 212.603 183.366C212.32 183.971 211.817 184.572 211.584 185.19C211.396 185.69 211.439 186.358 211.281 186.878C211.179 187.216 210.862 187.55 210.77 187.887C210.597 188.533 210.777 189.411 210.877 190.049C210.948 190.501 211.123 191.192 211.667 191.329L211.685 191.738L211.968 192.081C210.583 193.638 210.428 194.256 210.172 196.379C210.129 196.739 210.153 196.952 210.061 197.304C209.888 197.964 209.394 198.802 209.111 199.439C208.738 201.16 208.857 200.819 207.967 202.141C207.918 203.207 207.949 204.373 207.816 205.427C207.767 205.808 207.457 206.223 207.401 206.606C207.385 206.717 207.555 207.228 207.537 207.331C207.398 208.129 207.068 209.005 206.848 209.79C206.839 209.821 206.659 210.06 206.63 210.102L206.033 210.17C205.611 210.417 203.862 212.781 203.796 213.072C203.688 213.55 203.616 214.162 203.448 214.615C203.399 214.747 202.994 215.205 202.966 215.311C202.724 216.237 202.641 217.327 202.488 218.277L202.86 219.032C202.986 219.725 201.468 220.595 201.106 220.972C200.205 221.913 201.095 224.575 201.66 225.473L200.905 227.642C201.045 227.868 201.067 228.312 200.99 228.56L201.548 229.752L201.905 229.9L202.067 230.166L201.205 231.003L200.567 230.781C200.33 231.319 199.816 232.379 199.384 232.8L198.15 232.765C197.709 233.062 196.655 233.965 196.543 234.538L196.729 235.048C195.568 235.915 196.039 236.078 195.806 237.189C195.633 238.013 195.344 238.859 195.12 239.673C195.017 240.047 194.668 240.353 194.588 240.876L194.133 241.212L194.011 241.718C193.236 242.047 193.54 243.469 193.423 243.84C192.957 245.318 191.884 246.491 190.923 247.661L190.234 247.802C189.227 248.886 188.976 250.969 188.321 252.281C187.86 253.205 186.929 254.652 186.278 255.453C186.254 255.482 185.391 255.951 185.301 256C185.269 256.267 185.082 256.937 184.818 257.086C183.76 256.941 182.746 257.266 181.904 257.948L181.155 258.555C180.931 258.776 180.614 260.025 180.645 260.244C180.818 261.487 181.973 263.543 181.293 264.817L180.915 264.864C180.858 264.925 180.381 265.428 180.365 265.464C180.197 265.832 180.173 266.372 180.046 266.766C179.844 267.393 179.354 268.274 178.987 268.837C178.928 268.864 178.488 269.049 178.464 269.074C177.445 270.121 176.41 271.364 175.312 272.313C174.756 272.794 173.831 273.233 173.194 273.627C172.601 273.995 171.678 274.127 171.032 274.455C170.176 274.89 169.532 275.891 168.744 276.422L167.223 277.346C166.729 277.646 166.617 277.694 166.52 277.764C166.443 277.819 166.375 277.889 166.128 278.112L165.46 278.718C165.14 279.174 164.735 280.052 164.523 280.573C163.816 282.318 164.101 285.502 163.108 286.683C162.535 287.364 161.689 287.889 161.132 288.578C161.106 288.611 160.343 290.076 160.317 290.144C159.901 291.251 159.625 292.444 159.254 293.57C158.957 294.471 158.53 295.385 158.288 296.298C157.982 297.449 157.81 298.702 157.578 299.873L157.434 299.991C156.974 301.297 156.563 302.67 156.04 303.95C155.881 304.34 155.482 304.713 155.346 305.106L153.492 310.463C153.448 310.592 153.052 311.017 152.992 311.162C152.746 311.762 152.517 312.581 152.364 313.214C151.67 316.09 152.442 321.013 152.888 323.935C152.893 323.963 152.857 324.032 152.847 324.06C152.807 324.183 152.511 325.045 152.503 325.117C152.458 325.533 152.608 326.024 152.591 326.448C152.568 326.99 152.202 327.636 152.223 328.162C152.246 328.749 152.428 329.441 152.521 330.026L152.111 331.065C152.329 331.554 152.407 332.31 152.289 332.832L152.574 332.932L152.665 333.125C150.166 335.062 152.807 336.628 152.851 337.552C152.784 337.702 152.013 339.402 152.014 339.434C152.062 340.703 151.975 342.008 152.439 343.212C152.563 343.532 153.015 344.059 152.881 344.426C152.263 344.767 151.493 345.786 151.476 346.521L150.861 346.735L150.718 347.098L150.808 347.607C150.505 348.782 147.921 349.204 147.755 349.45C147.812 350.172 147.589 350.937 147.451 351.634C147.012 353.844 148.047 354.983 149.173 356.742L149.098 357.587L149.471 358.363L149.375 358.629C149.189 358.799 148.7 358.796 148.479 358.746L148.103 358.501L147.572 356.9L146.888 356.824C146.546 356.327 145.862 355.408 145.343 355.071L144.446 354.969L143.768 354.264L143.553 354.723L143.341 354.819L143.061 354.165C142.776 353.861 141.937 353.747 141.556 353.767L139.819 352.476L139.535 352.522L138.231 353.868C138.089 354.704 137.819 356.759 136.754 356.861L136.236 356.666C135.917 356.267 135.611 355.857 135.299 355.452L134.853 355.472C134.377 354.289 135.363 352.37 135.134 350.926C134.867 349.234 133.743 348.866 133.123 347.865L132.734 346.8C132.205 345.348 132.259 344.926 133.543 343.923C133.385 343.602 133.314 342.933 133.479 342.595C134.761 342.149 134.514 340.471 133.874 339.596L134.182 339.09C134.482 339.008 135.248 338.671 135.342 338.32C135.151 337.616 134.58 334.605 133.852 334.346C133.757 334 133.627 333.274 133.669 332.926L133.719 332.506C133.074 330.401 132.106 328.094 132.051 325.87C131.404 325.236 131.325 324.198 130.811 323.517C130.768 323.46 129.381 322.258 129.236 322.131C129.218 322.114 129.069 321.694 129.05 321.645L129.045 321.553C129.007 320.729 128.719 318.339 128.145 317.843L128.151 316.729C127.796 316.129 126.502 313.965 125.946 313.551C125.436 313.171 124.767 313.237 124.298 312.357C123.95 311.707 123.951 310.905 123.526 310.224C123.113 309.564 122.4 308.785 121.787 308.331C121.376 308.028 120.806 307.851 120.371 307.573C119.859 307.246 119.404 306.797 118.887 306.479C118.259 306.094 117.536 305.774 116.882 305.432C115.804 304.869 114.763 304.099 113.652 303.583C112.564 303.077 111.204 302.625 110.489 301.585C110.919 301.404 112.691 302.551 113.109 302.781L113.438 302.708L113.631 302.345C113.617 301.872 112.288 300.889 111.864 300.694L111.201 300.911L110.776 300.762L110.158 301.244L109.781 301.145C109.399 300.707 108.904 300.255 108.722 299.691L109.153 299.457L109.294 298.967L108.89 299.038C108.596 298.661 108.384 297.7 108.305 297.247L108.065 297.777L107.735 297.727L107.549 296.831L107.148 296.905C106.944 296.762 106.762 296.514 106.605 296.322L106.743 297.435L106.528 297.894C106.195 297.846 105.383 296.115 105.164 295.711L104.431 295.395L104.359 295.539L104.615 297.016L105.913 297.868L106.126 298.305L105.91 298.521C103.947 297.62 103.255 296.369 101.57 295.41L100.928 295.65C100.781 295.452 100.765 295.027 100.838 294.802C100.645 294.463 100.42 294.174 100.124 293.927C99.5337 293.433 98.7626 292.907 98.2409 292.352C97.4796 291.541 96.7896 290.515 96.0964 289.637C95.9553 289.459 95.689 289.333 95.5544 289.152C94.6062 287.888 93.4075 285.234 91.9627 284.526Z" stroke="white" stroke-width="1.4173" stroke-miterlimit="3.8637" stroke-linejoin="round"/>
<path d="M28.4864 166.306L28.3956 165.671L27.8848 165.074C28.462 164.681 29.0421 163.924 29.3137 163.286C29.4844 163.581 29.9243 164.111 30.268 164.225L30.2437 164.587L28.6716 165.46L28.4864 166.306Z" stroke="white" stroke-width="1.4173" stroke-miterlimit="3.8637" stroke-linejoin="round"/>
<path d="M28.164 177.635L27.6394 177.369L27.2089 177.612L27.1132 177.372C27.3163 177.108 27.7351 176.356 27.637 175.994C27.0212 175.414 26.2116 174.251 26.0835 173.386L25.0834 173.413L24.7032 174.235L24.4397 174.309C24.1446 174.104 23.7416 173.672 23.6289 173.32L23.6771 173.03C24.0302 172.641 24.2402 172.418 24.7733 172.231L25.6769 172.302L26.3904 171.649L27.609 172.299L28.2527 172.249L28.4202 173.045C28.8296 173.249 29.267 174.194 29.3992 174.59L29.1835 174.81L28.8511 174.47L28.4948 174.593L28.0906 175.752L28.1627 176.018L28.9232 175.919L29.1381 176.161C28.3294 176.917 28.6075 176.562 28.164 177.635Z" stroke="white" stroke-width="1.4173" stroke-miterlimit="3.8637" stroke-linejoin="round"/>
<path d="M29.6328 177.764L29.2846 178.574L28.6915 178.793L28.428 178.504L28.2127 178.601L27.9756 178.481L27.9492 178.191L28.308 178.164L28.6891 177.755L29.2367 177.632L29.6328 177.764Z" stroke="white" stroke-width="1.4173" stroke-miterlimit="3.8637" stroke-linejoin="round"/>
<path d="M22.7032 175.809L21.5863 176.848L20.538 176.994L20.3969 177.383C20.7067 178.062 20.5457 178.234 20.5652 178.782C20.5899 179.491 20.911 179.389 20.5911 180.256L19.8549 180.958L20.142 181.585L19.737 181.974C19.8541 182.19 20.4269 183.11 20.3596 183.326L20.1922 183.542C19.6263 183.442 18.2099 183.43 17.7636 183.91L16.9783 183.717L16.382 184.106L15.81 184.13L15.6426 183.963C15.7261 183.615 16.6216 182.994 16.9033 182.824L17.4753 183.161C18.0834 183.14 18.6895 182.253 18.8528 181.757L18.805 181.2L18.0412 180.188L18.158 179.922L18.85 180.138C19.1362 179.664 18.9254 179.118 19.3478 178.64L19.2996 178.421L18.7041 178.084L18.5841 177.748C18.8711 177.433 18.9124 176.636 18.8451 176.25C19.2108 175.985 19.66 175.43 19.7941 174.991L20.2234 174.941L20.8672 175.471L22.3452 175.542L22.7032 175.809Z" stroke="white" stroke-width="1.4173" stroke-miterlimit="3.8637" stroke-linejoin="round"/>
<path d="M26.3429 185.442L25.6752 185.488L25.4839 185.079L24.7445 185.274L24.2925 184.742L24.601 184.477L25.8637 184.596L26.1005 184.113L26.5051 183.968L26.6725 183.678L26.0052 183.315C25.7336 183.676 24.9678 184.007 24.5527 184.114L24.0772 183.897C24.4591 183.577 24.8491 183.022 25.0023 182.546L24.9544 182.206L24.502 181.65L24.7388 181.507C25.2281 181.626 26.0348 181.45 26.4544 181.188L26.5472 180.465L26.9542 181.238L26.8346 181.987L27.1699 182.083L27.598 182.829L27.885 182.903C27.8801 182.63 28.0601 182.212 28.2656 182.031L28.2409 181.621L28.5972 181.428L28.7412 181.138L28.3342 179.98L28.4027 179.714L29.3569 179.348L30.0704 179.711L30.3793 179.009L30.6663 179.059L30.8338 179.275C30.8544 179.64 30.7373 180.401 30.4535 180.677L30.6453 182.028C30.9015 181.981 31.2104 181.618 31.3125 181.4L31.4054 180.411L31.6449 180.265L31.857 180.385L32.0487 181.134L32.3122 181.254L33.0484 180.601L32.8599 180.408L32.4046 180.554L32.2879 180.311L33.2134 178.839L33.5721 179.103L33.6447 179.998L34.0971 180.551L34.5726 180.601L34.8844 179.852C35.3335 180.14 35.8468 181.257 35.957 181.733C36.1005 182.352 35.7592 182.764 36.2919 183.521L37.1509 183.907L37.0844 184.571L35.6745 184.922L35.1264 183.98C34.6959 183.828 33.1923 184.053 32.7427 184.13C32.3487 184.537 31.8983 185.116 31.4585 185.458C31.3843 185.515 30.839 185.634 30.7215 185.7C30.066 186.069 28.9009 186.919 28.7716 187.708L28.9151 187.952L29.3671 187.975L29.4388 188.168L29.0347 188.581L29.0103 189.4L28.8218 189.496C28.2697 189.142 26.4495 189.415 25.8686 189.549L25.4616 189.359L25.1498 188.077L24.9378 187.907L23.7703 187.837L23.5068 187.283L23.2457 187.137L23.054 186.581L22.7188 186.415C22.771 185.391 22.647 185.726 23.097 184.843H23.4805C23.4509 185.34 24.1141 187.019 24.5308 187.184L24.935 186.845L25.2913 186.94L25.9853 187.786L26.1264 187.736L26.319 187.131L26.771 187.058L27.5315 187.467L27.8878 187.42C27.4232 186.724 29.0035 185.631 28.5287 184.907L28.2417 184.787L27.8615 185.124L27.4573 184.667L27.1703 184.691L26.3429 185.442Z" stroke="white" stroke-width="1.4173" stroke-miterlimit="3.8637" stroke-linejoin="round"/>
<path d="M20.3038 192.288L19.7318 192.192L19.4922 191.589L20.3281 191.806L20.8016 191.32L21.2536 191.27C21.3772 190.967 22.4701 190.524 22.7531 190.688L22.7288 191.004C22.3866 191.364 20.7979 192.048 20.3038 192.288Z" stroke="white" stroke-width="1.4173" stroke-miterlimit="3.8637" stroke-linejoin="round"/>
<path d="M1.66767 201.371L1 201.061V200.915L1.3089 200.695L1.33242 200.212L1.87766 199.727L2.09291 200.306L2.52223 200.353L2.6414 200.572L2.07183 200.888L1.88333 201.274L1.66767 201.371Z" stroke="white" stroke-width="1.4173" stroke-miterlimit="3.8637" stroke-linejoin="round"/>
<path d="M21.1131 205.07L20.8281 204.973L20.6133 204.634L20.6611 204.417C20.8979 204.173 21.4378 203.968 21.7788 204.005L22.0873 203.738L22.3723 203.712L22.8486 204.244L22.7306 204.437L21.5659 204.561L21.1131 205.07Z" stroke="white" stroke-width="1.4173" stroke-miterlimit="3.8637" stroke-linejoin="round"/>
<path d="M17.9721 205.848L17.6641 205.581C17.7103 205.241 18.2547 204.655 18.4939 204.446C18.3893 204.27 18.3479 203.908 18.4465 203.721L18.1351 203.164L18.3236 202.318C18.1996 202.128 18.0143 201.66 18.1084 201.426L18.8218 201.882L19.5369 201.759C19.5228 202.163 19.6667 202.695 19.8722 203.041L19.5398 203.547L19.6598 203.814L19.944 203.887L20.3003 203.717L20.5399 204.03L20.3274 204.369L19.8029 204.539L19.5905 204.925L19.9229 205.505L19.7104 205.675C19.3075 205.458 18.3512 205.686 17.9721 205.848Z" stroke="white" stroke-width="1.4173" stroke-miterlimit="3.8637" stroke-linejoin="round"/>
<path d="M35.3972 217.324L34.8734 216.937L34.9687 216.382L34.4453 215.706L34.5146 215.489L35.6108 215.05L35.9663 215.702C35.6392 216.04 35.4721 216.826 35.5621 217.273L35.3972 217.324Z" stroke="white" stroke-width="1.4173" stroke-miterlimit="3.8637" stroke-linejoin="round"/>
<path d="M29.9303 217.402L29.5505 217.329C29.3725 217.135 29.3048 216.608 29.3109 216.364L29.5477 216.218L30.2843 216.291L30.5473 217.041L29.9303 217.402Z" stroke="white" stroke-width="1.4173" stroke-miterlimit="3.8637" stroke-linejoin="round"/>
<path d="M12.0436 223.044L11.7586 222.731L11.3788 222.901V222.465L11.067 222.102L11.3512 221.666L11.2795 221.426L10.4707 220.727L10.5644 220.29L10.8964 219.952L11.5369 220.048C11.9005 219.681 12.9886 219.548 13.4604 219.559L13.6992 219.705C13.9339 220.049 13.4657 221.375 13.3214 221.71L12.9196 221.783L12.3959 222.245L12.3055 222.994L12.0436 223.044Z" stroke="white" stroke-width="1.4173" stroke-miterlimit="3.8637" stroke-linejoin="round"/>
<path d="M252.962 49.5215L252.346 48.8692L252.371 48.6264L253.05 48.6673L253.284 48.1436L253.701 48.0674L254.351 48.3483L254.662 49.0593L255.095 49.226L254.736 49.6123C254.433 49.7522 253.469 49.4404 252.962 49.5215Z" stroke="white" stroke-width="1.4173" stroke-miterlimit="3.8637" stroke-linejoin="round"/>
<path d="M83.6341 165.091L83.6094 164.438L84.136 163.932L84.4242 163.936L84.256 164.345L84.397 164.561L83.6341 165.091Z" stroke="white" stroke-width="1.4173" stroke-miterlimit="3.8637" stroke-linejoin="round"/>
<path d="M68.4069 197.482C68.2739 196.01 68.2541 193.731 68.5796 192.314C68.7624 191.519 69.2728 190.392 69.6069 189.634C69.9409 188.877 70.5952 188.072 71.0383 187.367L71.277 187.317L71.5864 187.803L71.5138 188.043C70.2794 188.883 69.484 190.536 69.2959 191.979C69.2809 192.093 69.407 192.508 69.3888 192.607C69.3113 193.015 68.9899 193.459 68.9368 193.863C68.8147 194.793 68.8703 195.865 68.8387 196.81C68.8366 196.875 68.7174 197.279 68.6947 197.366L68.4069 197.482Z" stroke="white" stroke-width="1.4173" stroke-miterlimit="3.8637" stroke-linejoin="round"/>
<path d="M77.7656 209.291C77.7733 208.709 77.8463 207.755 78.1037 207.214L78.2687 207.164C78.2395 207.518 78.2095 209.058 77.9574 209.268L77.7656 209.291Z" stroke="white" stroke-width="1.4173" stroke-miterlimit="3.8637" stroke-linejoin="round"/>
<path d="M77.647 209.968C77.6803 210.415 77.3094 211.093 77.0025 211.393L76.8594 211.223C76.9522 210.804 77.3094 210.233 77.647 209.968Z" stroke="white" stroke-width="1.4173" stroke-miterlimit="3.8637" stroke-linejoin="round"/>
<path d="M75.1846 216.27L75.0918 215.981C75.4023 215.498 75.4587 213.304 75.6666 212.332L75.8819 212.116C76.1653 213.107 75.6581 214.924 75.4964 216.004L75.1846 216.27Z" stroke="white" stroke-width="1.4173" stroke-miterlimit="3.8637" stroke-linejoin="round"/>
<path d="M74.4946 218.421L74.707 218.767C74.6478 219.208 74.3721 220.803 74.0158 221.102C73.8443 220.631 74.345 218.89 74.4946 218.421Z" stroke="white" stroke-width="1.4173" stroke-miterlimit="3.8637" stroke-linejoin="round"/>
<path d="M72.9423 223.445L72.7988 223.299C72.8264 223.002 73.4693 221.934 73.6343 221.634L73.7754 221.803C73.6603 222.171 73.2602 223.341 72.9423 223.445Z" stroke="white" stroke-width="1.4173" stroke-miterlimit="3.8637" stroke-linejoin="round"/>
<path d="M71.8178 228.762L71.4854 228.735L71.3926 228.569C72.3156 227.626 71.5004 225.912 72.3233 225.114H72.5844C72.1 226.111 72.4891 226.502 72.4174 226.901C72.3116 227.487 72.0031 228.186 71.8178 228.762Z" stroke="white" stroke-width="1.4173" stroke-miterlimit="3.8637" stroke-linejoin="round"/>
<path d="M69.9581 234.584C69.6079 233.718 69.318 232.324 69.7725 231.442L70.2723 231.029L70.509 231.005C69.9156 231.954 70.0246 233.483 70.102 234.534L69.9581 234.584Z" stroke="white" stroke-width="1.4173" stroke-miterlimit="3.8637" stroke-linejoin="round"/>
<path d="M69.98 237.075C69.8414 236.565 69.7964 235.902 69.8868 235.38L70.3149 235.599C70.4126 235.797 70.3043 236.794 70.2889 237.047L69.98 237.075Z" stroke="white" stroke-width="1.4173" stroke-miterlimit="3.8637" stroke-linejoin="round"/>
<path d="M211.202 281.927L211.042 282.243L209.363 281.69C208.753 280.901 208.593 280.556 207.77 280.119L207.834 279.621C207.657 279.241 206.845 277.758 206.99 277.377C207.406 276.868 209.571 276.804 210.167 277.183C210.418 277.042 210.932 276.963 211.204 277.092C211.296 277.711 211.403 279.328 211.063 279.908L210.567 280.261L210.546 280.721L211.202 281.927Z" stroke="white" stroke-width="1.4173" stroke-miterlimit="3.8637" stroke-linejoin="round"/>
<path d="M100.467 313.187C100.78 313.095 101.245 312.803 101.414 312.514L101.581 311.715C101.968 311.382 102.611 311.151 103.098 311.042L103.922 311.674L103.826 312.326C102.698 312.902 102.191 314.385 100.866 314.471C100.668 314.063 100.427 313.658 100.467 313.187Z" stroke="white" stroke-width="1.4173" stroke-miterlimit="3.8637" stroke-linejoin="round"/>
<path d="M216.01 339.638L216.667 339.055L217.314 339.452C217.124 340.174 217.31 341.288 217.753 341.89L217.367 342.004L216.979 342.748L217.045 343.769C217.69 344.584 219.698 345.33 219.9 345.796L219.266 347.988L218.881 348.181L218.235 347.784L217.389 348.051L217.046 347.93L216.977 347.184L215.037 345.595L213.848 345.742C213.566 345.737 213.07 344.704 212.939 344.477L211.223 343.521L211.188 343.245L211.5 342.619L211.2 341.949L211.361 341.128L210.449 340.097C210.411 339.963 210.396 339.671 210.491 339.55C210.956 339.465 211.296 339.64 211.718 339.638C213.175 339.629 214.536 339.455 216.01 339.638Z" stroke="white" stroke-width="1.4173" stroke-miterlimit="3.8637" stroke-linejoin="round"/>
<path d="M220.746 354.019L220.537 353.919L220.355 352.975L221.066 352.837L221.324 352.987L221.555 353.472L221.481 353.762L220.746 354.019Z" stroke="white" stroke-width="1.4173" stroke-miterlimit="3.8637" stroke-linejoin="round"/>
<path d="M241.143 18.6282L235.13 19.6968L234.21 20.613L234.67 22.0087C235.107 22.7421 234.919 23.3603 235.278 24.137L236.19 25.6572C234.601 26.2093 233.163 27.3647 231.528 26.8734L228.893 25.1505C228.629 25.0386 227.42 25.0528 227.191 24.8801C227.162 24.8586 225.191 22.7283 225.151 22.6711C224.208 21.3346 223.881 19.8699 222.623 18.565C222.691 18.2188 223.246 17.1867 223.542 17.0375L230.119 13.7291" stroke="white" stroke-width="1.5591" stroke-miterlimit="3.8637" stroke-linejoin="round"/>
<path d="M189.555 19.9745C191.293 21.4663 193.293 23.162 195.274 24.3142C197.313 25.4999 198.86 25.7063 200.694 27.6323C200.997 28.829 201.11 30.2579 201.01 31.4875C200.572 32.1997 200.019 33.3981 199.468 33.9932L197.562 35.213C196.842 35.4882 195.67 35.4327 194.852 35.5734L193.866 36.4275C193.794 37.2942 193.441 38.3961 192.946 39.1177L193.502 40.4112L192.534 41.2593L192.515 43.2785C193.44 43.8647 194.39 44.6601 195.11 45.4875L194.928 47.3235L195.847 48.9787L196.607 49.1846L198.127 49.5961C199.41 49.6326 199.721 49.26 201.468 49.8871L202.744 51.3996C203.717 52.5521 204.697 52.6689 204.807 54.1404C204.831 54.4502 204.818 55.4361 204.667 55.7308C204.467 56.1187 203.787 56.7041 203.623 57.075C203.157 58.1311 203.4 59.7299 203.996 60.687C204.586 61.634 206.408 63.4165 207.262 64.3051L207.636 66.8765" stroke="white" stroke-width="1.5591" stroke-miterlimit="3.8637" stroke-linejoin="round"/>
<path d="M207.637 66.8765L210.289 66.9442C212.274 66.2275 213.66 64.4762 214.905 62.855C215.101 62.7999 216.994 62.2826 217.06 62.2482C217.725 61.8967 218.893 60.5164 219.089 59.7433C218.944 58.5284 218.912 57.1638 219.089 55.9493C219.167 55.8459 219.779 55.012 219.827 54.9723C220.317 54.5669 223.345 52.6446 223.944 52.4115C224.323 52.2643 226.196 51.9218 226.415 51.8046C227.665 51.1353 229.533 49.0346 230.973 48.3888C231.822 48.0078 232.984 47.964 233.798 47.5387C234.182 47.3381 234.337 47.1293 234.682 46.8674L236.451 45.5252C237.29 44.7744 237.977 43.7261 238.845 43.0223C239.508 42.4848 240.543 42.2294 241.191 41.6813C241.191 41.6813 242.473 42.0749 242.777 41.3655C243.081 40.6561 243.892 39.744 243.892 39.744C243.892 39.744 243.182 39.4399 242.777 39.0345C242.371 38.6292 241.865 37.6157 242.574 36.9063C243.284 36.1968 243.689 35.7915 244.905 35.9941C246.121 36.1968 247.337 35.9941 248.047 35.2847C248.756 34.5753 250.074 34.4739 250.58 34.2713C251.087 34.0686 251.898 33.6632 252.506 33.6632C253.114 33.6632 255.103 34.2879 255.103 34.2879" stroke="white" stroke-width="1.5591" stroke-miterlimit="3.8637" stroke-linejoin="round"/>
<path d="M200.929 76.2235C200.929 76.2235 198.893 76.2295 198.285 76.0269C197.677 75.8242 197.575 75.4188 196.866 74.7093C196.156 73.9999 196.765 73.0878 197.271 72.277C197.778 71.4663 196.461 70.6555 196.359 69.7434C196.258 68.8312 196.359 68.1218 195.042 67.311C193.724 66.5003 193.927 64.9801 193.927 64.9801C193.927 64.9801 191.9 64.8787 192.17 64.1462L192.292 62.352C192.315 62.0021 192.403 61.8018 192.352 61.4544C192.348 61.4293 191.398 58.7027 191.366 58.6374C190.881 57.66 189.952 57.0499 189.061 56.5306L186.673 55.1381C185.621 54.6026 182.045 53.7063 181.377 53.1659C180.674 52.5967 180.036 51.46 179.405 50.7749C178.802 50.1206 176.597 49.6771 177.306 48.3596C178.015 47.0421 178.319 46.3327 177.61 45.6233C176.901 44.9139 176.698 44.6098 176.09 45.2179C175.482 45.826 174.772 46.3327 173.962 45.4206C173.151 44.5085 172.948 43.9004 172.948 43.9004C172.948 43.9004 171.732 44.1031 170.516 44.0017C169.3 43.9004 166.969 43.495 167.779 42.2788C168.59 41.0627 168.996 40.9613 168.286 40.1506C167.577 39.3398 166.158 39.0358 165.448 39.0358C164.739 39.0358 163.523 39.1371 163.523 39.1371L161.457 39.1347" stroke="white" stroke-width="1.5591" stroke-miterlimit="3.8637" stroke-linejoin="round"/>
<path d="M192.756 91.1368C193.36 89.8777 194.29 88.3104 195.217 87.2864C196.181 86.2207 198.136 85.0191 198.97 83.9907C199.921 82.8179 199.439 80.9397 199.947 79.5878C200.654 77.7023 200.75 78.5905 200.93 76.2234" stroke="white" stroke-width="1.5591" stroke-miterlimit="3.8637" stroke-linejoin="round"/>
<path d="M187.574 92.3481L192.755 91.1368" stroke="white" stroke-width="1.5591" stroke-miterlimit="3.8637" stroke-linejoin="round"/>
<path d="M150.787 59.8467L152.794 61.9097C153.979 62.4626 156.034 62.4926 157.296 62.4103" stroke="white" stroke-width="1.5591" stroke-miterlimit="3.8637" stroke-linejoin="round"/>
<path d="M157.301 62.4103L157.85 62.7586L158.96 63.455C159.151 63.6622 159.172 63.8413 159.308 64.0882L160.004 65.3546C160.283 66.0941 160.28 67.1801 160.626 67.866C160.756 68.1238 160.928 68.2029 161.121 68.4177C162.373 69.8139 163.387 70.4447 165.003 71.4253C166.523 72.3476 167.559 72.3569 168.89 73.8215C169.289 75.5728 168.749 76.313 168.766 77.6772C168.779 78.8074 169.123 79.9745 169.139 81.1047C169.155 82.1563 168.648 81.5677 169.082 83.2054L169.207 83.6749C169.366 83.7442 171.135 84.5306 171.179 84.5363C171.379 84.5635 176.921 84.4706 177.528 84.4289C179.428 84.2975 181.354 83.704 183.254 84.137C185.036 85.1144 186.185 87.2727 187.081 89.0008C187.25 89.3276 187.419 89.4828 187.515 89.838C187.532 89.8992 187.568 92.1357 187.573 92.3473" stroke="white" stroke-width="1.5591" stroke-miterlimit="3.8637" stroke-linejoin="round"/>
<path d="M205.577 99.673L203.911 97.7726C202.359 97.4316 200.196 97.7786 198.731 98.3109L196.757 97.3883L196.088 95.7343L194.297 95.5458C194.206 95.4197 193.2 94.0519 193.186 94.013C192.918 93.2452 192.88 91.9634 192.756 91.1364" stroke="white" stroke-width="1.5591" stroke-miterlimit="3.8637" stroke-linejoin="round"/>
<path d="M205.576 99.673L206.48 100.185L208.287 101.21C208.616 101.312 208.826 101.236 209.171 101.253C210.531 101.319 211.83 101.435 213.094 102.017C214.161 102.508 215.346 103.461 216.302 104.167C216.509 104.183 218.64 104.367 218.705 104.356C219.328 104.256 222.075 102.758 222.708 102.346L222.086 100.326C222.881 100.52 223.863 100.634 224.614 100.944C225.203 101.187 225.83 101.408 226.404 101.682C227.146 102.036 227.862 102.535 228.616 102.85C231.047 103.869 233.602 104.666 236.065 105.622" stroke="white" stroke-width="1.5591" stroke-miterlimit="3.8637" stroke-linejoin="round"/>
<path d="M124.697 93.6173C125.009 94.1995 125.305 94.7905 125.599 95.382C126.28 95.7675 127.28 96.1924 127.878 96.6723L128.906 97.8581C129.911 99.0175 130.918 100.046 132.219 100.865C133.953 101.955 135.754 103.078 137.626 103.917C139.146 104.6 141.049 104.872 142.491 105.704C143.984 106.565 143.556 107.103 145.552 107.506C145.751 107.547 145.86 107.622 146.063 107.61C148.071 107.488 149.604 106.742 151.799 107.073L152.718 106.157C152.752 105.239 153.442 103.831 154.193 103.284L155.508 102.634C155.764 102.507 155.889 102.384 156.166 102.309L158.26 102.029C158.668 101.974 158.895 101.866 159.307 101.889C159.336 101.89 161.739 102.608 161.778 102.629C161.872 102.681 162.884 103.763 163.07 103.917C163.655 104.399 164.355 104.827 164.976 105.268L166.46 105.332C167.004 104.991 167.727 104.412 168.308 104.175C168.793 103.977 169.516 104.021 170.032 103.873C170.741 103.669 171.304 103.313 172.059 103.122L173.661 102.719C174.293 102.425 174.977 101.708 175.576 101.316C176.206 100.903 177.097 100.571 177.664 100.097C178.819 99.1334 179.913 97.8654 180.987 96.8L181.733 96.8629L182.654 97.9672C184.151 96.0006 185.849 94.1144 187.576 92.3489" stroke="white" stroke-width="1.5591" stroke-miterlimit="3.8637" stroke-linejoin="round"/>
<path d="M194.709 114.432C196.198 112.992 197.831 111.542 199.545 110.369C199.831 109.694 199.864 108.966 199.896 108.248C199.91 107.919 200.058 106.858 200.225 106.576C200.66 105.834 202.716 104.392 203.424 103.952C203.47 103.756 203.952 101.682 203.979 101.629C204.01 101.567 205.44 99.8421 205.578 99.6734" stroke="white" stroke-width="1.5591" stroke-miterlimit="3.8637" stroke-linejoin="round"/>
<path d="M113.523 118.004L114.94 118.784C116.53 120.942 116.647 122.55 117.678 124.522C118.568 126.224 120.958 127.815 122.58 127.207C124.201 126.599 124.708 127.106 125.113 127.41C125.519 127.714 126.33 129.031 126.634 129.842C126.938 130.653 127.444 132.781 127.444 133.389C127.444 133.997 127.647 134.909 128.255 134.909C128.863 134.909 130.89 135.517 130.89 135.517L132.41 136.733" stroke="white" stroke-width="1.5591" stroke-miterlimit="3.8637" stroke-linejoin="round"/>
<path d="M132.41 136.733L133.626 137.037C133.626 137.037 134.538 137.544 135.147 137.341C135.755 137.139 136.869 137.443 137.68 137.747C138.491 138.051 139.707 137.95 140.011 137.544C140.315 137.139 142.646 135.011 142.95 134.402C143.254 133.794 144.166 131.97 144.166 131.97C144.166 131.97 145.383 130.754 146.193 130.754C147.004 130.754 146.7 129.842 146.497 128.93C146.295 128.018 146.7 127.511 147.207 126.295C147.713 125.079 148.119 125.383 149.538 125.788C150.957 126.193 150.855 126.599 151.058 127.815C151.261 129.031 151.97 128.93 152.375 128.119C152.781 127.308 153.592 126.497 153.592 126.497C153.592 126.497 154.605 126.497 155.213 126.599C155.821 126.7 157.848 125.079 157.848 125.079C157.848 125.079 159.543 125.158 160.694 124.638C161.057 124.174 162.52 121.988 162.695 121.834C162.747 121.789 164.35 120.95 164.515 120.861L166.708 120.986C168.736 119.729 170.636 117.649 172.961 117.028C173.756 116.816 174.804 116.934 175.566 116.666C176.565 116.314 177.49 115.458 178.486 115.083L179.987 114.84C180.279 114.793 180.44 114.719 180.737 114.719C181.296 114.719 181.986 115.023 182.556 115.087C183.198 115.16 183.908 115.13 184.558 115.151L186.932 113.324C189.615 113.229 192.115 113.805 194.708 114.431" stroke="white" stroke-width="1.5591" stroke-miterlimit="3.8637" stroke-linejoin="round"/>
<path d="M194.708 114.432C194.894 115.235 194.365 116.559 193.798 117.115C192.117 117.85 191.327 117.94 189.98 119.175L189.366 120.822C189.324 121.589 189.168 123.278 189.772 123.761C190.892 124.656 191.349 124.633 192.524 125.837L192.888 127.609C192.17 129.72 191.255 130.432 190.226 132.119C189.821 132.782 189.58 133.577 189.192 134.253C188.523 135.415 187.661 136.663 186.76 137.666C187.724 140.411 187.936 143.366 187.841 146.251L187.803 147.43C187.593 148.236 187.052 149.074 186.769 149.869C185.792 152.613 184.909 155.402 183.982 158.163C183.83 158.617 183.771 159.213 183.675 159.689C182.935 160.356 182.007 161.404 181.674 162.37L182.105 163.469C182.97 163.777 184.232 165.141 184.537 165.973C184.861 166.855 185.135 170.734 184.968 171.588C184.779 172.55 184.072 173.684 183.752 174.636C183.27 176.071 182.834 177.806 182.842 179.333C181.13 179.808 178.581 180.669 177.135 181.766C177.117 183.453 176.669 185.371 176.111 186.951L175.076 187.804C174.135 187.898 170.309 188.418 169.542 189.016L168.252 190.358C167.584 191.052 166.877 192.103 166.573 193.041L166.936 194.079C166.755 195.114 165.318 196.566 164.514 197.126" stroke="white" stroke-width="1.5591" stroke-miterlimit="3.8637" stroke-linejoin="round"/>
<path d="M78.8477 209.235C80.9403 210.298 83.1407 211.318 85.359 212.094C86.4997 211.832 86.9586 212.223 87.6145 211.832C88.3491 211.392 88.7634 209.85 89.3374 209.095C90.4822 207.59 91.1544 206.801 92.5096 205.816C93.414 205.158 94.1948 204.253 95.1142 203.623C95.9412 203.055 97.5356 201.873 98.4586 201.494C100.034 200.848 100.865 200.617 102.366 199.548C103.824 199.467 105.323 200.338 106.072 200.346L108.702 199.942L110.017 199.741L112.268 200.659C112.545 201.932 113.164 202.222 113.723 203.162C114.241 204.033 114.584 205.214 115.006 206.153L117.008 207.377C117.299 208.869 116.439 209.522 116.099 210.731C116.078 210.807 115.732 213.258 115.735 213.293C115.738 213.339 116.35 215.029 116.405 215.185C115.482 217.044 117.102 219.197 118.597 220.191L120.236 220.009C120.934 219.401 121.735 218.821 122.543 218.366C123.256 218.576 124.314 219.031 125.033 219.1C125.763 219.172 126.896 218.929 127.647 218.86" stroke="white" stroke-width="1.5591" stroke-miterlimit="3.8637" stroke-linejoin="round"/>
<path d="M85.6374 252.119L83.4961 252.781" stroke="white" stroke-width="1.5591" stroke-miterlimit="3.8637" stroke-linejoin="round"/>
<path d="M107.202 296.897C107.202 296.646 107.187 293.87 107.202 293.804C107.471 292.6 109.652 288.46 110.114 287.233C109.624 285.798 108.174 281.89 108.593 280.341L109.519 276.21C109.851 274.981 110.177 274.317 110.372 273.06C110.412 272.795 109.806 270.129 109.806 269.636C109.806 267.617 111.061 264.46 111.645 262.526C111.739 262.216 112.582 260.392 112.647 260.073C113.855 260.173 117.125 261.174 118.12 260.782C118.133 260.776 120.401 260.428 120.451 260.377C121.076 259.729 122.139 258.363 122.782 257.742C123.759 256.796 124.502 254.708 125.923 254.936C127.298 255.156 128.001 256.815 129.342 257.204C131.298 257.407 132.535 256.325 134.293 256.047C135.098 256.317 136.313 256.572 137.041 256.968C137.862 257.416 138.54 258.349 139.359 258.807L140.661 259.175L141.312 259.36C142.341 259.214 143.775 258.462 144.49 257.712C145.53 257.442 147.527 258.002 148.465 258.389" stroke="white" stroke-width="1.5591" stroke-miterlimit="3.8637" stroke-linejoin="round"/>
<path d="M109.304 189.13C109.304 189.13 108.898 189.738 108.088 189.738C107.277 189.738 106.871 190.244 106.061 190.346C105.25 190.447 104.54 191.055 105.047 191.663C105.554 192.271 105.554 192.271 105.554 193.082C105.554 193.893 106.061 194.4 106.669 194.501C107.277 194.602 108.594 195.008 108.898 195.818C109.202 196.629 110.115 197.44 111.027 196.224C111.939 195.008 112.141 194.501 112.648 194.704C113.155 194.906 114.979 195.818 115.385 194.298C115.79 192.778 115.891 192.677 115.08 191.866C114.27 191.055 113.763 190.143 113.358 189.636C112.952 189.13 112.547 190.244 112.344 190.751C112.141 191.258 111.229 191.055 111.229 190.244C111.229 189.434 111.027 189.434 110.52 188.826C110.013 188.217 109.304 189.13 109.304 189.13Z" stroke="white" stroke-width="1.5591" stroke-miterlimit="3.8637" stroke-linejoin="round"/>
<path d="M82.5117 188.689C82.5117 188.689 83.9674 189.13 84.4742 189.535C84.9809 189.94 85.9944 188.522 87.0078 189.231C88.0213 189.94 90.6563 190.346 90.6563 188.623C90.6563 186.9 90.3523 184.366 91.5684 185.988C92.7846 187.609 93.19 187.305 93.5954 186.393C94.0008 185.481 94.9129 184.366 95.2169 183.961C95.521 183.556 96.6358 182.947 97.2438 183.049C97.8519 183.15 98.9667 182.947 98.9667 182.947C98.9667 182.947 99.2708 180.921 99.7775 181.022C100.284 181.123 101.196 181.225 101.906 180.312C102.615 179.4 103.73 178.286 103.73 178.286C103.73 178.286 104.743 178.083 105.149 177.475C105.554 176.867 107.48 176.664 107.885 177.373C108.291 178.083 109 178.184 109.507 177.677C110.014 177.171 111.736 176.056 112.953 176.36C113.788 176.569 114.242 176.969 114.772 177.002L115.247 178.919L116.615 180.045C116.615 180.045 117.108 180.921 117.665 181.022C118.223 181.123 118.983 181.225 119.287 181.579C119.591 181.934 120.148 182.086 120.402 182.086C120.655 182.086 123.898 182.39 124.303 182.542C124.709 182.694 125.621 182.441 125.621 182.441L126.584 181.731L128.363 181.655L128.202 182.862L128.662 183.86C128.662 183.86 129.422 183.252 129.878 183.15C130.334 183.049 130.588 183.049 130.841 183.302C131.094 183.556 132.057 183.708 132.716 183.454C133.375 183.201 134.135 183.201 134.388 183.454C134.642 183.708 135.706 183.961 135.959 183.86C136.212 183.758 136.466 183.201 136.364 182.39C136.263 181.579 135.858 181.073 136.111 180.616C136.364 180.16 136.77 179.654 136.77 179.654L137.935 178.083" stroke="white" stroke-width="1.5591" stroke-miterlimit="3.8637" stroke-linejoin="round"/>
<path d="M207.636 66.8765C207.636 66.8765 207.509 68.4259 207.002 68.8312C206.495 69.2366 207.103 70.3514 207.509 70.9595C207.914 71.5676 207.711 72.1757 207.205 72.5811C206.698 72.9865 205.887 73.3918 205.887 73.9999C205.887 74.608 206.191 74.5067 205.279 75.0134C204.367 75.5201 203.252 75.7228 202.847 75.1147C202.441 74.5067 202.239 73.9999 201.732 74.5067C201.225 75.0134 200.736 75.1026 200.93 76.2235" stroke="white" stroke-width="1.5591" stroke-miterlimit="3.8637" stroke-linejoin="round"/>
<path d="M156.789 48.114C156.789 48.114 158.152 49.6763 158.354 50.0817C158.557 50.4871 158.962 50.6898 158.962 50.6898L161.597 50.7912C161.597 50.7912 163.32 52.21 163.827 52.7167C164.334 53.2235 164.84 54.0342 165.144 55.2504C165.448 56.4666 165.651 57.2773 165.55 58.1895C165.448 59.1016 165.043 59.1016 164.536 58.5948C164.03 58.0881 163.624 57.7841 163.219 57.176C162.813 56.5679 162.205 56.4666 161.8 56.8719C161.395 57.2773 159.773 58.7975 159.773 58.7975L158.861 59.9123C158.861 59.9123 157.949 59.9123 157.543 60.0137C157.138 60.115 157.147 61.7658 157.295 62.4099" stroke="white" stroke-width="1.5591" stroke-miterlimit="3.8637" stroke-linejoin="round"/>
<path d="M208.219 17.2459C207.002 17.6512 207.002 17.9553 206.698 18.6647C206.394 19.3741 205.178 22.3132 206.8 22.5159C208.421 22.7186 208.725 22.5159 209.232 22.9213C209.739 23.3266 209.84 23.5293 209.941 24.3401C210.043 25.1509 210.347 27.1778 210.245 27.5832C210.144 27.9886 211.158 28.1913 209.536 28.2926C207.914 28.394 208.117 28.9007 208.117 29.7115C208.117 30.5223 208.117 31.333 208.725 31.9411C209.333 32.5492 209.84 32.4478 210.043 31.4344C210.245 30.4209 210.955 30.3196 211.259 30.9276C211.563 31.5357 212.779 32.3465 212.779 32.9546C212.779 33.5626 213.184 33.968 213.59 34.1707C213.995 34.3734 215.11 34.8802 215.211 35.7923C215.313 36.7044 215.515 36.7044 216.833 36.8057C218.15 36.9071 218.759 36.8057 219.569 36.9071C220.38 37.0084 220.988 36.4004 220.177 35.7923C219.367 35.1842 219.063 34.5761 218.961 33.664C218.86 32.7519 218.759 31.029 220.177 31.029C221.596 31.029 222.306 30.9276 222.711 30.5223C223.116 30.1169 223.218 29.7115 222.711 29.3061C222.204 28.9007 219.873 28.5967 220.583 27.7859C221.292 26.9751 221.191 26.2657 221.191 25.6576C221.191 25.0495 220.988 24.8468 221.495 24.3401C222.002 23.8334 221.799 23.428 221.292 22.9213C220.785 22.4145 220.177 21.8064 219.671 21.8064C219.164 21.8064 218.455 21.4011 219.063 20.793C219.671 20.1849 219.873 18.9687 219.164 18.462C218.455 17.9553 218.15 17.7526 218.15 16.7391C218.15 15.7257 217.542 14.5095 217.542 13.9014C217.542 13.2933 217.846 12.7866 216.732 12.4826C215.617 12.1785 215.414 10.3543 214.603 11.4691C213.793 12.5839 213.894 12.9893 212.88 13.192C211.867 13.3947 211.968 13.9014 211.36 14.5095C210.752 15.1176 209.84 16.0297 209.84 16.0297C209.84 16.0297 209.435 16.8405 208.219 17.2459Z" stroke="white" stroke-width="1.5591" stroke-miterlimit="3.8637" stroke-linejoin="round"/>
<path d="M132.41 136.733C132.106 137.443 130.282 137.443 129.066 137.646C127.849 137.848 128.66 139.166 129.471 139.875C130.282 140.585 129.268 141.193 129.066 142.003C128.863 142.814 128.762 143.017 128.153 143.524C127.545 144.03 128.052 145.044 128.255 145.753C128.458 146.463 128.863 146.665 128.255 147.983C127.647 149.3 126.458 151.521 126.651 152.641C126.803 153.525 126.906 154.716 127.484 155.468C128.851 157.248 131.393 157.725 133.163 159.412C131.451 159.647 128.948 161.145 127.58 162.104L124.286 160.846L120.935 161.402L118.933 159.705L113.111 158.242L109.089 157.891L105.613 156.018L102.999 155.403L98.7764 156.486L93.988 156.837L92.685 156.778L90.7031 155.879" stroke="white" stroke-width="1.5591" stroke-miterlimit="3.8637" stroke-linejoin="round"/>
<path d="M127.58 162.103C127.58 162.103 128.863 163.489 129.269 164.198C129.674 164.908 130.181 165.921 128.762 166.529C127.343 167.137 128.559 169.671 128.559 169.671L128.762 172.407C128.762 172.407 128.458 174.029 127.951 174.738C127.444 175.448 127.748 178.286 127.748 178.286C127.748 178.286 128.863 177.677 129.37 177.272C129.877 176.867 130.079 177.779 130.485 178.691C130.89 179.603 133.626 178.184 134.133 177.88C134.64 177.576 135.653 176.664 135.653 176.664C135.653 176.664 138.299 178.297 138.372 178.301C139.567 178.357 142.75 179.404 143.783 180.077C143.83 180.108 144.72 181.129 144.818 181.237C144.7 182.006 144.635 182.864 144.454 183.616C144.288 184.304 143.826 185.064 143.726 185.751C143.46 187.578 144.607 189.756 144.578 191.671C144.748 191.792 146.396 192.986 146.464 193.015L149.318 193.751C150.319 193.813 151.467 193.369 152.478 193.388C153.518 193.41 154.779 193.727 155.82 193.881C157.526 194.26 159.649 194.688 161.413 194.497C162.541 195.086 163.737 196.125 164.516 197.126C164.844 197.956 164.97 199.374 164.698 200.238C163.886 201.66 162.524 201.778 161.48 202.857C161.404 203.784 161.47 204.885 161.719 205.786C163.284 206.993 165.262 207.485 166.709 208.843C167.03 209.688 166.785 211.192 166.345 211.954C166.761 212.792 167.262 213.657 167.619 214.518C167.995 215.427 168.17 216.507 168.596 217.386L169.448 218.302C171.481 219.494 173.494 220.765 175.586 221.849C176.591 221.654 177.605 221.481 178.622 221.365L179.129 221.753L180.144 222.527C181.098 223.7 181.647 225.357 182.519 226.617C182.571 226.693 183.495 227.795 183.544 227.839C183.961 228.208 184.555 228.482 185.008 228.817C186.273 229.751 187.497 230.813 188.657 231.873C189.567 231.706 192.201 231.182 192.966 230.659L193.209 230.028C193.978 228.027 193.484 228.635 193.57 226.814C193.614 225.871 194.097 223.66 194.422 222.789L197.091 215.633C197.611 214.238 197.817 213.415 198.425 212.055L199.881 209.983C200.412 209.228 201.33 208.016 201.643 207.118C202.162 205.626 201.603 203.664 200.906 202.297L201.047 201.707C201.399 200.23 201.547 200.225 202.543 199.187C203.604 198.083 205.353 196.106 207.101 196.325C207.817 196.793 208.783 198.702 209.108 199.444" stroke="white" stroke-width="1.5591" stroke-miterlimit="3.8637" stroke-linejoin="round"/>
<path d="M155.821 193.88C155.227 194.519 153.922 195.062 153.062 195.11L151.761 196.807L150.937 197.109L149.29 197.714C149.27 197.727 147.903 199.229 147.882 199.264C147.355 200.188 146.978 201.486 146.571 202.483C145.138 203.154 144.106 204.317 143.107 205.487C142.841 205.799 142.756 206.046 142.424 206.287C141.531 206.937 139.994 207.11 139.13 207.78L137.642 209.641L136.898 210.572C136.098 210.686 135.139 210.558 134.39 210.754C133.25 211.05 132.733 212.5 131.651 212.824C130.696 212.617 129.423 211.795 128.797 211.054L127.534 211.905C127.718 214.197 127.762 216.563 127.648 218.86C127.697 219.889 127.314 222.767 126.739 223.617C126.2 224.414 125.109 225.044 124.498 225.811L123.24 227.803C121.468 230.608 120.267 233.754 118.063 236.297C117.56 236.878 116.657 237.431 116.061 237.942C115.178 238.7 114.335 239.505 113.448 240.257C112.072 241.423 110.12 242.771 109.014 244.156C108.761 244.472 108.695 244.702 108.49 245.051L107.444 246.839C107.109 247.593 106.987 248.551 106.715 249.34C106.454 250.097 106.105 250.852 105.805 251.596C104.62 252.369 104.024 251.902 103.067 252.142C101.863 252.444 100.805 253.588 99.6679 253.967C99.4271 254.047 99.2718 254.005 99.0193 254.027C96.773 254.237 96.625 253.73 94.6301 253.473L93.1683 253.471C90.9687 253.468 89.8668 253.793 87.7005 252.936L85.6387 252.119" stroke="white" stroke-width="1.5591" stroke-miterlimit="3.8637" stroke-linejoin="round"/>
<path d="M166.345 211.954C165.432 212.192 164.472 212.51 163.549 212.682C162.705 212.839 161.627 212.744 160.82 212.983C160.78 212.995 158.686 214.097 158.627 214.14C157.878 214.683 156.835 215.912 156.061 216.598C155.856 216.78 155.685 216.836 155.534 217.065C155.515 217.095 154.296 219.887 154.261 219.991C153.997 220.778 153.998 221.717 153.715 222.493C153.074 224.249 151.231 225.196 150.928 227.126C150.683 228.686 151.454 231.554 151.35 232.374C151.343 232.427 150.173 235.744 150.086 235.972C150.023 236.136 149.544 237.045 149.53 237.131C149.386 238.028 149.617 239.228 149.597 240.181C148.859 240.92 146.567 243.802 146.255 244.63C146.192 244.798 145.846 247.476 145.776 247.863C145.611 248.779 145.373 249.698 145.173 250.608C145.549 252.134 146.423 253.417 147.302 254.679C147.539 255.02 147.745 255.173 147.912 255.554L148.282 257.443L148.467 258.388C148.633 259.408 148.806 260.449 149.07 261.449C149.821 261.889 150.921 262.377 151.579 262.921C152.16 263.401 152.835 264.832 152.68 265.615L151.636 267.022C151.568 267.993 151.702 269.232 152.067 270.144C151.775 271.307 150.047 272.239 149.07 272.71C148.621 272.927 148.048 272.976 147.604 273.198C147.42 273.291 146.616 273.957 146.503 273.992C145.469 274.314 143.362 274.403 141.983 274.783C140.84 275.611 140.993 277.236 140.394 278.331C139.773 279.467 138.692 280.46 138.01 281.573C137.716 282.051 137.489 282.872 137.282 283.407C136.962 284.236 136.424 285.306 136.238 286.16C135.945 287.504 136.006 289.735 136.487 291.057C136.862 292.085 137.69 293.202 137.951 294.241C138.014 294.49 137.923 297.971 137.884 298.587C138.679 299.784 139.541 300.965 140.45 302.077L140.576 302.996C139.808 304.02 138.772 304.191 138.134 304.829L137.438 305.929L137.09 306.48C137.01 307.232 137.198 308.389 137.579 309.051C138.364 309.838 139.486 310.58 140.509 311.013C142.199 313.135 141.559 316.842 142.281 319.461C143.25 320.893 145.35 321.39 146.926 321.853C147.216 322.299 148.37 323.583 148.936 323.691C149.437 323.787 149.73 323.766 150.238 323.815L152.842 324.063" stroke="white" stroke-width="1.5591" stroke-miterlimit="3.8637" stroke-linejoin="round"/>
<circle cx="97.6863" cy="227.686" r="5.68627" fill="#88D824"/>
</svg>
