<svg width="18" height="35" viewBox="0 0 18 35" fill="none" xmlns="http://www.w3.org/2000/svg">
<path d="M7.26722 34.125H10.7346C11.3241 34.127 11.8931 33.9089 12.3301 33.5134C12.7671 33.1178 13.0407 32.5733 13.0972 31.9866L14.3347 19.6187C15.3842 18.8073 16.234 17.7665 16.819 16.5759C17.404 15.3853 17.7086 14.0766 17.7096 12.75V9.58333C17.7096 7.27374 16.7922 5.05874 15.159 3.42561C13.5259 1.79248 11.3109 0.875 9.0013 0.875C6.69171 0.875 4.47671 1.79248 2.84358 3.42561C1.21045 5.05874 0.292969 7.27374 0.292969 9.58333V12.75C0.293898 14.0765 0.59847 15.3851 1.18335 16.5757C1.76822 17.7662 2.61788 18.8071 3.66721 19.6185L4.90458 31.9858C4.96108 32.5726 5.23462 33.1172 5.67165 33.5129C6.10867 33.9086 6.67768 34.1269 7.26722 34.125ZM1.8763 9.58333C1.8763 7.69367 2.62697 5.88139 3.96317 4.5452C5.29936 3.209 7.11163 2.45833 9.0013 2.45833C10.891 2.45833 12.7032 3.209 14.0394 4.5452C15.3756 5.88139 16.1263 7.69367 16.1263 9.58333V11.9583H1.8763V9.58333ZM1.95632 13.5417H16.0463C15.8607 15.2807 15.0386 16.8897 13.7379 18.0589C12.4373 19.2282 10.7502 19.875 9.0013 19.875C7.25239 19.875 5.56527 19.2282 4.26466 18.0589C2.96405 16.8897 2.14186 15.2807 1.95632 13.5417ZM9.0013 21.4583C10.2591 21.4571 11.5015 21.1813 12.6417 20.6502L11.5232 31.8296C11.5037 32.025 11.4121 32.2062 11.2664 32.3378C11.1206 32.4694 10.9311 32.5421 10.7347 32.5417H7.26722C7.0708 32.5423 6.88122 32.4696 6.73563 32.3377C6.59004 32.2058 6.49894 32.0244 6.48018 31.8289L5.36188 20.6508C6.50183 21.1816 7.74386 21.4571 9.0013 21.4583Z" fill="white"/>
</svg>
