<svg width="24" height="30" viewBox="0 0 24 30" fill="none" xmlns="http://www.w3.org/2000/svg">
<path d="M16.2829 0.231858C16.1453 0.0869753 15.9567 0 15.7612 0H4.05825C1.89875 0 0.116211 1.77544 0.116211 3.93472V26.0651C0.116211 28.2246 1.89875 30.0001 4.05825 30.0001H19.9422C22.1017 30.0001 23.8843 28.2246 23.8843 26.0651V8.49268C23.8843 8.30431 23.7973 8.12326 23.6741 7.98547L16.2829 0.231858ZM16.493 2.55799L21.4423 7.75362H18.2249C17.2684 7.75362 16.493 6.98549 16.493 6.02899V2.55799ZM19.9422 28.5508H4.05825C2.70327 28.5508 1.56549 27.4276 1.56549 26.0651V3.93472C1.56549 2.57973 2.69594 1.44928 4.05825 1.44928H15.0437V6.02899C15.0437 7.78978 16.4641 9.2029 18.2249 9.2029H22.435V26.0651C22.435 27.4276 21.3045 28.5508 19.9422 28.5508Z" fill="white"/>
<path d="M17.9637 23.5508H6.03616C5.63768 23.5508 5.31152 23.8767 5.31152 24.2754C5.31152 24.6739 5.63768 25.0001 6.03616 25.0001H17.971C18.3695 25.0001 18.6956 24.6739 18.6956 24.2754C18.6956 23.8767 18.3695 23.5508 17.9637 23.5508Z" fill="white"/>
<path d="M11.4716 20.9493C11.6094 21.0942 11.7978 21.1812 12.0006 21.1812C12.2036 21.1812 12.3919 21.0942 12.5295 20.9493L16.776 16.3914C17.0513 16.1014 17.0296 15.6377 16.7398 15.3697C16.4498 15.0943 15.9861 15.1158 15.7181 15.4058L12.7252 18.6159V10.703C12.7252 10.3043 12.399 9.97833 12.0006 9.97833C11.6021 9.97833 11.2759 10.3043 11.2759 10.703V18.6159L8.29037 15.4058C8.01502 15.1161 7.5584 15.0943 7.26864 15.3697C6.97887 15.645 6.95713 16.1016 7.23248 16.3914L11.4716 20.9493Z" fill="white"/>
</svg>
