<svg width="55" height="55" viewBox="0 0 55 55" fill="none" xmlns="http://www.w3.org/2000/svg">
<g opacity="0.2">
<path d="M43.5094 22.5377C43.3987 21.3401 43.4834 18.0847 46.602 13.5579C46.8379 13.2163 46.7951 12.7556 46.5021 12.4627C45.2307 11.1912 44.4435 10.3889 43.8913 9.8275C43.1653 9.08724 42.8339 8.74993 42.3488 8.3101C42.0249 8.01895 41.5348 8.01388 41.2074 8.29928C35.7717 13.0292 29.7343 22.8029 30.6079 34.777C31.1198 41.8081 36.2484 46.9115 42.802 46.9115C49.5276 46.9115 54.9994 41.4406 54.9994 34.7149C54.9994 28.2268 49.907 22.9061 43.5094 22.5377ZM42.802 45.1928C37.174 45.1928 32.7673 40.7599 32.3217 34.6529C31.3389 21.1857 39.3443 12.4375 41.763 10.1212C41.9988 10.3537 42.2682 10.6272 42.6652 11.0317C43.1435 11.5185 43.7982 12.1849 44.7884 13.1785C41.0026 19.0112 41.7169 23.1671 42.0299 23.763C42.1784 24.0458 42.4831 24.2363 42.802 24.2363C48.5801 24.2363 53.2806 28.9368 53.2806 34.7149C53.2806 40.4922 48.5801 45.1928 42.802 45.1928Z" fill="white"/>
<path d="M12.9883 22.5377C12.8766 21.3435 12.9589 18.0906 16.0808 13.5579C16.3158 13.2163 16.2738 12.7556 15.9809 12.4627C14.712 11.1938 13.9257 10.3923 13.3743 9.83088C12.6459 9.08898 12.3135 8.75073 11.8284 8.31013C11.5045 8.01898 11.0144 8.01477 10.6871 8.29845C5.25138 13.0284 -0.786929 22.8004 0.0849923 34.7771C0.598641 41.8073 5.72799 46.9115 12.2816 46.9115C19.0072 46.9115 24.479 41.4406 24.479 34.7149C24.479 28.2261 19.3866 22.9045 12.9883 22.5377ZM12.2816 45.1928C6.65457 45.1928 2.2452 40.76 1.79876 34.652C0.818555 21.1815 8.82398 12.4367 11.2426 10.1213C11.4793 10.3537 11.7495 10.629 12.1474 11.0344C12.6248 11.5211 13.2786 12.1866 14.2673 13.1786C10.4815 19.0121 11.1957 23.1671 11.5087 23.7621C11.6573 24.0449 11.9627 24.2363 12.2816 24.2363C18.0598 24.2363 22.7603 28.9369 22.7603 34.7149C22.7603 40.4923 18.0598 45.1928 12.2816 45.1928Z" fill="white"/>
</g>
</svg>
