<svg width="1410" height="728" viewBox="0 0 1410 728" fill="none" xmlns="http://www.w3.org/2000/svg">
<path opacity="0.05" d="M625.198 728V727.483H618.082V726.965H611.474V726.448H606.9V725.93H602.325V725.413H597.751V724.896H594.701V724.378H591.143V723.861H588.093V723.343H585.043V722.826H581.993V722.308H579.452V721.791H576.911V721.274H574.369V720.756H571.828V720.239H569.286V719.721H566.745V719.204H564.712V718.687H562.678V718.169H560.645V717.652H558.104V717.134H556.071V716.617H554.546V716.1H552.513V715.582H550.479V715.065H548.955V714.547H546.921V714.03H545.397V713.512H543.872V712.995H542.347V712.478H540.314V711.96H538.789V711.443H537.264V710.925H535.739V710.408H534.214V709.891H532.689V709.373H531.164V708.856H530.148V708.338H528.623V707.821H527.098V707.303H525.573V706.786H524.048V706.269H523.032V705.751H521.507V705.234H520.49V704.716H518.965V704.199H517.949V703.682H516.424V703.164H514.899V702.647H513.883V702.129H512.866V701.612H511.341V701.095H510.324V700.577H509.308V700.06H507.783V699.542H506.766V699.025H505.242V698.507H504.225V697.99H503.208V697.473H502.192V696.955H500.667V696.438H499.65V695.92H498.634V695.403H497.617V694.886H496.601V694.368H495.584V693.851H494.059V693.333H493.043V692.816H492.026V692.299H491.009V691.781H489.993V691.264H488.976V690.746H487.96V690.229H486.943V689.711H485.926V689.194H484.91V688.677H483.893V688.159H482.877V687.642H481.86V687.124H480.844V686.607H479.827V686.09H478.81V685.572H477.794V685.055H476.777V684.537H475.761V684.02H475.252V683.502H474.236V682.985H473.219V682.468H472.203V681.95H471.186V681.433H470.169V680.915H469.153V680.398H468.645V679.881H467.628V679.363H466.611V678.846H465.595V678.328H465.086V677.811H464.07V677.294H463.053V676.776H462.545V676.259H461.529V675.741H460.512V675.224H459.495V674.706H458.987V674.189H457.97V673.672H456.954V673.154H456.446V672.637H455.429V672.119H454.412V671.602H453.904V671.085H452.888V670.567H452.379V670.05H451.363V669.532H450.346V669.015H449.838V668.498H448.821V667.98H448.313V667.463H447.296V666.945H446.28V666.428H445.771V665.91H444.755V665.393H444.247V664.876H443.23V664.358H442.722V663.841H441.705V663.323H441.197V662.806H440.18V662.289H439.672V661.771H438.655V661.254H438.147V660.736H437.639V660.219H436.622V659.701H436.114V659.184H435.097V658.667H434.589V658.149H433.572V657.632H433.064V657.114H432.048V656.597H431.539V656.08H430.523V655.562H430.014V655.045H429.506V654.527H428.49V654.01H427.981V653.493H427.473V652.975H426.456V652.458H425.948V651.94H425.44V651.423H424.423V650.905H423.915V650.388H423.407V649.871H422.39V649.353H421.882V648.836H421.373V648.318H420.357V647.801H419.849V647.284H419.34V646.766H418.324V646.249H417.815V645.731H417.307V645.214H416.799V644.697H416.291V644.179H415.274V643.662H414.766V643.144H414.257V642.627H413.749V642.109H412.733V641.592H412.224V641.075H411.716V640.557H411.208V640.04H410.699V639.522H409.683V639.005H409.174V638.488H408.666V637.97H408.158V637.453H407.141V636.935H406.633V636.418H406.125V635.901H405.616V635.383H405.108V634.866H404.6V634.348H404.092V633.831H403.075V633.313H402.567V632.796H402.058V632.279H401.55V631.761H401.042V631.244H400.534V630.726H400.025V630.209H399.517V629.692H399.009V629.174H397.992V628.657H397.484V628.139H396.976V627.622H396.467V627.104H395.959V626.587H395.451V626.07H394.942V625.552H394.434V625.035H393.926V624.517H393.417V624H392.909V623.483H392.401V622.965H391.893V622.448H391.384V621.93H390.876V621.413H390.368V620.896H389.859V620.378H389.351V619.861H388.843V619.343H388.335V618.826H387.826V618.308H387.318V617.791H386.81V617.274H386.301V616.756H385.793V616.239H385.285V615.721H384.776V615.204H384.268V614.687H383.76V614.169H383.252V613.652H382.743V613.134H382.235V612.617H381.727V612.1H381.218V611.582H380.71V611.065H380.202V610.547H379.694V610.03H379.185V608.995H378.677V608.478H378.169V607.96H377.66V607.443H377.152V606.925H376.644V606.408H376.136V605.891H375.627V605.373H375.119V604.856H374.611V604.338H374.102V603.821H373.594V602.786H373.086V602.269H372.577V601.751H372.069V601.234H371.561V600.716H371.053V599.682H370.544V599.164H370.036V598.647H369.528V598.129H369.019V597.095H368.511V596.577H368.003V596.06H367.495V595.542H366.986V595.025H366.478V593.99H365.97V593.473H365.461V592.955H364.953V592.438H364.445V591.403H363.937V590.886H363.428V590.368H362.92V589.851H362.412V588.816H361.903V588.299H361.395V587.264H360.887V586.746H360.379V586.229H359.87V585.194H359.362V584.677H358.854V584.159H358.345V583.124H357.837V582.607H357.329V581.572H356.82V581.055H356.312V580.537H355.804V579.502H355.296V578.985H354.787V577.95H354.279V577.433H353.771V576.915H353.262V575.881H352.754V575.363H352.246V574.328H351.738V573.294H351.229V572.776H350.721V571.741H350.213V571.224H349.704V570.189H349.196V569.154H348.688V568.637H348.18V567.602H347.671V567.085H347.163V566.05H346.655V565.532H346.146V564.498H345.638V563.463H345.13V562.945H344.621V561.91H344.113V560.876H343.605V559.841H343.097V559.323H342.588V558.289H342.08V557.254H341.572V556.219H341.063V555.184H340.555V554.149H340.047V553.632H339.539V552.597H339.03V551.562H338.522V550.527H338.014V549.493H337.505V548.458H336.997V547.423H336.489V546.388H335.981V545.353H335.472V544.318H334.964V543.284H334.456V542.249H333.947V540.697H333.439V539.662H332.931V538.627H332.422V537.592H331.914V536.557H331.406V535.005H330.898V533.97H330.389V532.935H329.881V531.901H329.373V530.348H328.864V529.313H328.356V527.761H327.848V526.209H327.34V525.174H326.831V523.622H326.323V522.07H325.815V521.035H325.306V519.483H324.798V517.93H324.29V516.896H323.782V515.343H323.273V513.274H322.765V511.721H322.257V509.652H321.748V508.1H321.24V506.547H320.732V504.478H320.224V502.925H319.715V500.856H319.207V499.303H318.699V497.234H318.19V494.647H317.682V492.06H317.174V489.99H316.665V487.403H316.157V484.816H315.649V482.746H315.141V479.642H314.632V476.02H314.124V472.398H313.616V468.259H313.107V464.637H312.599V459.463H312.091V450.667H311.583V419.104H312.091V413.413H312.599V407.204H313.107V401.512H313.616V397.891H314.124V394.786H314.632V391.164H315.141V388.06H315.649V384.955H316.157V381.333H316.665V378.229H317.174V376.159H317.682V374.09H318.19V371.502H318.699V369.433H319.207V367.363H319.715V364.776H320.224V362.706H320.732V360.119H321.24V358.05H321.748V355.98H322.257V353.91H322.765V352.358H323.273V350.806H323.782V348.736H324.29V347.184H324.798V345.632H325.306V343.562H325.815V342.01H326.323V340.458H326.831V338.388H327.34V336.836H327.848V335.284H328.356V333.214H328.864V331.662H329.373V330.109H329.881V328.557H330.389V327.522H330.898V325.97H331.406V324.418H331.914V322.866H332.422V321.313H332.931V320.279H333.439V318.726H333.947V317.174H334.456V315.622H334.964V314.07H335.472V313.035H335.981V311.483H336.489V310.448H336.997V308.896H337.505V307.861H338.014V306.308H338.522V305.274H339.03V303.721H339.539V302.687H340.047V301.652H340.555V300.617H341.063V299.065H341.572V298.03H342.08V296.995H342.588V295.96H343.097V294.925H343.605V293.373H344.113V292.856H344.621V291.821H345.13V290.786H345.638V289.751H346.146V288.716H346.655V287.682H347.163V286.647H347.671V285.612H348.18V284.577H348.688V283.542H349.196V283.025H349.704V281.99H350.213V280.955H350.721V279.92H351.229V278.886H351.738V277.851H352.246V277.333H352.754V276.298H353.262V275.781H353.771V274.746H354.279V273.711H354.787V273.194H355.296V272.159H355.804V271.124H356.312V270.607H356.82V269.572H357.329V268.537H357.837V268.02H358.345V266.985H358.854V266.468H359.362V265.433H359.87V264.915H360.379V263.881H360.887V263.363H361.395V262.328H361.903V261.811H362.412V260.776H362.92V260.259H363.428V259.741H363.937V258.706H364.445V258.189H364.953V257.154H365.461V256.637H365.97V256.119H366.478V255.085H366.986V254.567H367.495V253.532H368.003V253.015H368.511V252.498H369.019V251.463H369.528V250.945H370.036V250.428H370.544V249.393H371.053V248.876H371.561V248.358H372.069V247.841H372.577V246.806H373.086V246.289H373.594V245.771H374.102V245.254H374.611V244.219H375.119V243.701H375.627V243.184H376.136V242.667H376.644V241.632H377.152V241.114H377.66V240.597H378.169V240.08H378.677V239.562H379.185V238.527H379.694V238.01H380.202V237.493H380.71V236.975H381.218V236.458H381.727V235.94H382.235V235.423H382.743V234.905H383.252V233.871H383.76V233.353H384.268V232.836H384.776V232.318H385.285V231.801H385.793V231.284H386.301V230.766H386.81V230.249H387.318V229.214H387.826V228.697H388.335V228.179H388.843V227.662H389.351V227.144H389.859V226.627H390.368V226.109H390.876V225.592H391.384V225.075H391.893V224.557H392.401V224.04H392.909V223.522H393.417V223.005H393.926V222.488H394.434V221.97H394.942V221.453H395.451V220.935H395.959V220.418H396.467V219.901H396.976V219.383H397.484V218.866H397.992V218.348H398.5V217.831H399.009V217.313H399.517V216.796H400.025V216.279H400.534V215.761H401.042V215.244H401.55V214.726H402.058V214.209H402.567V213.692H403.583V213.174H404.092V212.657H404.6V212.139H405.108V211.622H405.616V211.104H406.125V210.587H406.633V210.07H407.141V209.552H407.65V209.035H408.666V208.517H409.174V208H409.683V207.483H410.191V206.965H410.699V206.448H411.208V205.93H411.716V205.413H412.224V204.896H412.733V204.378H413.749V203.861H414.257V203.343H414.766V202.826H415.274V202.308H415.782V201.791H416.799V201.274H417.307V200.756H417.815V200.239H418.324V199.721H419.34V199.204H419.849V198.687H420.357V198.169H420.865V197.652H421.373V197.134H422.39V196.617H422.898V196.099H423.407V195.582H423.915V195.065H424.932V194.547H425.44V194.03H425.948V193.513H426.456V192.995H427.473V192.478H427.981V191.96H428.998V191.443H429.506V190.925H430.014V190.408H431.031V189.891H431.539V189.373H432.048V188.856H433.064V188.338H433.572V187.821H434.081V187.304H435.097V186.786H435.606V186.269H436.114V185.751H437.13V185.234H437.639V184.716H438.147V184.199H439.164V183.682H439.672V183.164H440.689V182.647H441.197V182.129H442.213V181.612H442.722V181.095H443.738V180.577H444.247V180.06H445.263V179.542H445.771V179.025H446.788V178.507H447.296V177.99H448.313V177.473H448.821V176.955H449.838V176.438H450.346V175.92H451.363V175.403H451.871V174.886H452.888V174.368H453.396V173.851H454.412V173.333H454.921V172.816H455.937V172.299H456.954V171.781H457.462V171.264H458.479V170.746H459.495V170.229H460.004V169.711H461.02V169.194H462.037V168.677H462.545V168.159H463.562V167.642H464.07V167.124H465.086V166.607H466.103V166.09H466.611V165.572H467.628V165.055H468.645V164.537H469.661V164.02H470.169V163.503H471.186V162.985H472.203V162.468H473.219V161.95H474.236V161.433H475.252V160.915H475.761V160.398H476.777V159.881H477.794V159.363H478.81V158.846H479.827V158.328H480.335V157.811H481.352V157.294H482.368V156.776H483.385V156.259H484.402V155.741H485.418V155.224H486.435V154.706H487.451V154.189H488.468V153.672H489.484V153.154H490.501V152.637H491.518V152.119H492.534V151.602H493.551V151.085H494.567V150.567H495.584V150.05H496.601V149.532H497.617V149.015H498.634V148.498H500.159V147.98H501.175V147.463H502.192V146.945H503.208V146.428H504.225V145.91H505.75V145.393H506.766V144.876H507.783V144.358H508.8V143.841H510.324V143.323H511.341V142.806H512.358V142.289H513.374V141.771H514.899V141.254H515.916V140.736H517.441V140.219H518.457V139.701H519.982V139.184H520.999V138.667H522.523V138.149H523.54V137.632H525.065V137.114H526.081V136.597H527.606V136.08H528.623V135.562H530.148V135.045H531.673V134.527H533.198V134.01H534.214V133.492H535.739V132.975H537.264V132.458H538.789V131.94H540.314V131.423H541.33V130.906H542.855V130.388H544.38V129.871H545.905V129.353H547.43V128.836H548.955V128.318H550.988V127.801H552.513V127.284H554.037V126.766H555.562V126.249H557.087V125.731H559.12V125.214H560.645V124.697H562.17V124.179H564.203V123.662H566.237V123.144H567.761V122.627H569.795V122.109H571.828V121.592H573.861V121.075H575.386V120.557H577.419V120.04H579.452V119.522H581.485V119.005H584.027V118.488H586.06V117.97H588.601V117.453H590.635V116.935H593.176V116.418H595.209V115.901H597.751V115.383H600.8V114.866H603.342V114.348H606.391V113.831H608.933V113.313H611.983V112.796H615.541V112.279H619.099V111.761H622.657V111.244H626.215V110.726H630.281V110.209H635.364V109.692H640.955V109.174H646.038V108.657H655.696V108.139H679.586V107.622H680.094V108.139H693.309V108.657H700.934V109.174H706.525V109.692H712.116V110.209H716.182V110.726H719.74V111.244H723.299V111.761H726.857V112.279H729.906V112.796H732.448V113.313H735.497V113.831H738.039V114.348H740.58V114.866H743.122V115.383H745.663V115.901H747.188V116.418H749.221V116.935H751.255V117.453H753.288V117.97H755.321V118.488H757.354V119.005H759.387V119.522H760.912V120.04H762.437V120.557H764.47V121.075H765.995V121.592H767.52V122.109H769.045V122.627H770.57V123.144H772.094V123.662H773.619V124.179H775.144V124.697H776.669V125.214H778.194V125.731H779.211V126.249H780.735V126.766H782.26V127.284H783.277V127.801H784.802V128.318H785.818V128.836H787.343V129.353H788.36V129.871H788.868V130.388H787.852V129.871H785.818V129.353H784.293V128.836H782.26V128.318H780.227V127.801H778.194V127.284H776.161V126.766H774.128V126.249H772.094V125.731H769.553V125.214H766.503V124.697H763.453V124.179H760.912V123.662H757.862V123.144H754.813V122.627H749.73V122.109H743.63V121.592H738.039V121.075H715.674V121.592H708.558V122.109H700.934V122.627H697.376V123.144H693.818V123.662H690.26V124.179H686.701V124.697H683.143V125.214H680.094V125.731H678.061V126.249H675.519V126.766H672.978V127.284H670.436V127.801H668.403V128.318H665.862V128.836H663.32V129.353H661.795V129.871H659.762V130.388H658.237V130.906H656.204V131.423H654.171V131.94H652.646V132.458H650.613V132.975H649.088V133.492H647.055V134.01H645.53V134.527H644.005V135.045H642.48V135.562H640.955V136.08H639.43V136.597H637.906V137.114H636.381V137.632H634.856V138.149H633.331V138.667H631.806V139.184H630.789V139.701H629.265V140.219H627.74V140.736H626.215V141.254H625.198V141.771H623.673V142.289H622.657V142.806H621.132V143.323H620.115V143.841H619.099V144.358H617.574V144.876H616.557V145.393H615.032V145.91H614.016V146.428H612.491V146.945H611.474V147.463H609.95V147.98H608.933V148.498H607.916V149.015H606.9V149.532H605.883V150.05H604.867V150.567H603.85V151.085H602.833V151.602H601.309V152.119H600.292V152.637H599.275V153.154H598.259V153.672H597.242V154.189H596.226V154.706H595.209V155.224H594.193V155.741H593.176V156.259H592.159V156.776H591.143V157.294H590.126V157.811H589.11V158.328H588.093V158.846H587.076V159.363H586.06V159.881H585.552V160.398H584.535V160.915H583.518V161.433H582.502V161.95H581.485V162.468H580.469V162.985H579.96V163.503H578.944V164.02H577.927V164.537H576.911V165.055H575.894V165.572H574.877V166.09H574.369V166.607H573.353V167.124H572.336V167.642H571.828V168.159H570.811V168.677H569.795V169.194H569.286V169.711H568.27V170.229H567.761V170.746H566.745V171.264H565.728V171.781H565.22V172.299H564.203V172.816H563.187V173.333H562.678V173.851H561.662V174.368H561.154V174.886H560.137V175.403H559.12V175.92H558.612V176.438H557.596V176.955H557.087V177.473H556.071V177.99H555.562V178.507H554.546V179.025H554.037V179.542H553.021V180.06H552.513V180.577H551.496V181.095H550.988V181.612H549.971V182.129H549.463V182.647H548.955V183.164H547.938V183.682H547.43V184.199H546.413V184.716H545.905V185.234H544.888V185.751H544.38V186.269H543.363V186.786H542.855V187.304H542.347V187.821H541.33V188.338H540.822V188.856H539.805V189.373H539.297V189.891H538.789V190.408H537.772V190.925H537.264V191.443H536.756V191.96H536.247V192.478H535.231V192.995H534.722V193.513H534.214V194.03H533.198V194.547H532.689V195.065H532.181V195.582H531.164V196.099H530.656V196.617H530.148V197.134H529.639V197.652H528.623V198.169H528.115V198.687H527.606V199.204H526.59V199.721H526.081V200.239H525.573V200.756H524.557V201.274H524.048V201.791H523.54V202.308H523.032V202.826H522.523V203.343H522.015V203.861H520.999V204.378H520.49V204.896H519.982V205.413H519.474V205.93H518.965V206.448H518.457V206.965H517.441V207.483H516.932V208H516.424V208.517H515.916V209.035H515.407V209.552H514.899V210.07H513.883V210.587H513.374V211.104H512.866V211.622H512.358V212.139H511.849V212.657H511.341V213.174H510.324V213.692H509.816V214.209H509.308V214.726H508.8V215.244H508.291V215.761H507.783V216.279H507.275V216.796H506.766V217.313H506.258V217.831H505.75V218.348H505.242V218.866H504.733V219.383H504.225V219.901H503.717V220.418H503.208V220.935H502.7V221.453H501.683V221.97H501.175V222.488H500.667V223.005H500.159V223.522H499.65V224.04H499.142V224.557H498.634V225.075H498.125V225.592H497.617V226.109H497.109V226.627H496.601V227.144H496.092V227.662H495.584V228.179H495.076V228.697H494.567V229.214H494.059V229.731H493.551V230.249H493.043V230.766H492.534V231.284H492.026V231.801H491.518V232.318H491.009V232.836H490.501V233.353H489.993V233.871H489.484V234.905H488.976V235.423H488.468V235.94H487.96V236.458H487.451V236.975H486.943V237.493H486.435V238.01H485.926V238.527H485.418V239.045H484.91V239.562H484.402V240.08H483.893V240.597H483.385V241.114H482.877V241.632H482.368V242.149H481.86V242.667H481.352V243.701H480.844V244.219H480.335V244.736H479.827V245.254H479.319V245.771H478.81V246.806H478.302V247.323H477.794V247.841H477.286V248.358H476.777V248.876H476.269V249.393H475.761V250.428H475.252V250.945H474.744V251.463H474.236V251.98H473.727V252.498H473.219V253.532H472.711V254.05H472.203V254.567H471.694V255.085H471.186V255.602H470.678V256.119H470.169V257.154H469.661V257.672H469.153V258.189H468.645V258.706H468.136V259.741H467.628V260.259H467.12V260.776H466.611V261.811H466.103V262.328H465.595V262.846H465.086V263.881H464.578V264.398H464.07V264.915H463.562V265.95H463.053V266.468H462.545V266.985H462.037V268.02H461.529V268.537H461.02V269.055H460.512V270.09H460.004V270.607H459.495V271.124H458.987V272.159H458.479V272.677H457.97V273.194H457.462V274.229H456.954V274.746H456.446V275.781H455.937V276.298H455.429V277.333H454.921V277.851H454.412V278.886H453.904V279.403H453.396V280.438H452.888V280.955H452.379V281.99H451.871V282.507H451.363V283.542H450.854V284.06H450.346V285.095H449.838V285.612H449.329V286.647H448.821V287.164H448.313V288.199H447.805V288.716H447.296V289.751H446.788V290.269H446.28V291.304H445.771V292.338H445.263V292.856H444.755V293.891H444.247V294.925H443.738V295.96H443.23V296.478H442.722V297.512H442.213V298.547H441.705V299.582H441.197V300.099H440.689V301.134H440.18V302.169H439.672V303.204H439.164V303.721H438.655V304.756H438.147V305.791H437.639V306.826H437.13V307.343H436.622V308.378H436.114V309.413H435.606V310.448H435.097V311.483H434.589V312.517H434.081V313.552H433.572V314.587H433.064V315.622H432.556V317.174H432.048V318.209H431.539V319.244H431.031V320.279H430.523V321.313H430.014V322.348H429.506V323.383H428.998V324.418H428.49V325.453H427.981V326.488H427.473V328.04H426.965V329.075H426.456V330.627H425.948V331.662H425.44V333.214H424.932V334.249H424.423V335.284H423.915V336.836H423.407V337.871H422.898V339.423H422.39V340.458H421.882V342.01H421.373V343.045H420.865V344.597H420.357V346.149H419.849V347.702H419.34V349.254H418.832V350.806H418.324V352.358H417.815V354.428H417.307V355.98H416.799V357.532H416.291V359.085H415.782V360.637H415.274V362.189H414.766V364.259H414.257V366.328H413.749V368.915H413.241V370.985H412.733V373.055H412.224V375.124H411.716V377.194H411.208V379.264H410.699V382.368H410.191V385.473H409.683V389.095H409.174V392.199H408.666V395.303H408.158V398.925H407.65V405.134H407.141V412.896H406.633V437.731H407.141V442.388H407.65V447.562H408.158V452.219H408.666V456.876H409.174V459.463H409.683V461.532H410.191V464.119H410.699V466.706H411.208V469.294H411.716V471.881H412.224V474.468H412.733V476.537H413.241V478.607H413.749V480.159H414.257V482.229H414.766V483.781H415.274V485.851H415.782V487.403H416.291V489.473H416.799V491.025H417.307V492.577H417.815V494.129H418.324V495.164H418.832V496.199H419.34V497.234H419.849V498.786H420.357V499.303H420.865V500.338H421.373V501.373H421.882V502.408H422.39V503.443H422.898V504.478H423.407V505.512H423.915V506.547H424.423V507.582H424.932V508.617H425.44V509.134H425.948V510.169H426.456V511.204H426.965V511.721H427.473V512.756H427.981V513.791H428.49V514.308H428.998V515.343H429.506V516.378H430.014V517.413H430.523V517.93H431.031V518.965H431.539V520H432.048V520.517H432.556V521.552H433.064V522.07H433.572V523.104H434.081V523.622H434.589V524.657H435.097V525.174H435.606V526.209H436.114V526.726H436.622V527.761H437.13V528.279H437.639V529.313H438.147V529.831H438.655V530.866H439.164V531.383H439.672V532.418H440.18V532.935H440.689V533.97H441.197V534.488H441.705V535.005H442.213V536.04H442.722V536.557H443.23V537.075H443.738V538.109H444.247V538.627H444.755V539.144H445.263V540.179H445.771V540.697H446.28V541.214H446.788V542.249H447.296V542.766H447.805V543.284H448.313V544.318H448.821V544.836H449.329V545.353H449.838V545.871H450.346V546.388H450.854V546.905H451.363V547.94H451.871V548.458H452.379V548.975H452.888V549.493H453.396V550.01H453.904V551.045H454.412V551.562H454.921V552.08H455.429V552.597H455.937V553.114H456.446V553.632H456.954V554.667H457.462V555.184H457.97V555.701H458.479V556.219H458.987V556.736H459.495V557.254H460.004V557.771H460.512V558.289H461.02V558.806H461.529V559.323H462.037V559.841H462.545V560.358H463.053V560.876H463.562V561.393H464.07V561.91H464.578V562.428H465.086V562.945H465.595V563.463H466.103V563.98H466.611V565.015H467.628V565.532H468.136V566.05H468.645V566.567H469.153V567.085H469.661V567.602H470.169V568.119H470.678V568.637H471.186V569.154H471.694V569.672H472.203V570.189H472.711V570.706H473.219V571.224H473.727V571.741H474.236V572.259H475.252V572.776H475.761V573.294H476.269V573.811H476.777V574.328H477.286V574.846H477.794V575.363H478.302V575.881H479.319V576.398H479.827V576.915H480.335V577.433H480.844V577.95H481.352V578.468H482.368V578.985H482.877V579.502H483.385V580.02H483.893V580.537H484.402V581.055H485.418V581.572H485.926V582.09H486.435V582.607H486.943V583.124H487.96V583.642H488.468V584.159H488.976V584.677H489.993V585.194H490.501V585.711H491.009V586.229H492.026V586.746H492.534V587.264H493.043V587.781H494.059V588.299H494.567V588.816H495.076V589.333H496.092V589.851H496.601V590.368H497.109V590.886H498.125V591.403H498.634V591.92H499.65V592.438H500.159V592.955H501.175V593.473H501.683V593.99H502.7V594.507H503.208V595.025H504.225V595.542H504.733V596.06H505.75V596.577H506.258V597.095H507.275V597.612H507.783V598.129H508.8V598.647H509.816V599.164H510.324V599.682H511.341V600.199H512.358V600.716H512.866V601.234H513.883V601.751H514.899V602.269H515.916V602.786H516.424V603.303H517.441V603.821H518.457V604.338H518.965V604.856H519.982V605.373H520.999V605.891H522.015V606.408H523.032V606.925H524.048V607.443H524.557V607.96H525.573V608.478H526.59V608.995H527.606V609.512H528.623V610.03H529.639V610.547H530.656V611.065H531.673V611.582H532.689V612.1H533.706V612.617H534.722V613.134H535.739V613.652H536.756V614.169H538.281V614.687H539.297V615.204H540.314V615.721H541.33V616.239H542.347V616.756H543.363V617.274H544.38V617.791H545.905V618.308H546.921V618.826H548.446V619.343H549.463V619.861H550.988V620.378H552.004V620.896H553.021V621.413H554.546V621.93H555.562V622.448H557.087V622.965H558.104V623.483H559.629V624H561.154V624.517H562.678V625.035H564.203V625.552H565.22V626.07H566.745V626.587H568.27V627.104H569.795V627.622H571.319V628.139H572.844V628.657H574.369V629.174H575.894V629.692H577.419V630.209H578.944V630.726H580.977V631.244H582.502V631.761H584.027V632.279H586.06V632.796H587.585V633.313H589.618V633.831H591.651V634.348H593.176V634.866H595.209V635.383H597.242V635.901H599.275V636.418H601.309V636.935H603.342V637.453H605.375V637.97H607.916V638.488H609.95V639.005H611.983V639.522H614.524V640.04H617.066V640.557H619.607V641.075H622.657V641.592H625.198V642.109H627.74V642.627H630.789V643.144H633.839V643.662H636.889V644.179H639.939V644.697H643.497V645.214H647.563V645.731H651.121V646.249H655.188V646.766H659.254V647.284H664.337V647.801H668.911V648.318H674.503V648.836H681.11V649.353H687.718V649.871H696.867V650.388H708.558V650.905H761.42V650.388H775.144V649.871H785.31V649.353H793.443V648.836H801.067V648.318H808.183V647.801H814.283V647.284H820.89V646.766H826.482V646.249H831.565V645.731H837.156V645.214H841.73V644.697H846.813V644.179H851.388V643.662H855.963V643.144H860.537V642.627H864.604V642.109H868.67V641.592H872.736V641.075H876.802V640.557H880.869V640.04H884.427V639.522H888.493V639.005H892.051V638.488H895.609V637.97H899.167V637.453H902.725V636.935H906.283V636.418H909.841V635.901H913.399V635.383H916.449V634.866H920.007V634.348H923.057V633.831H926.615V633.313H929.665V632.796H933.223V632.279H936.273V631.761H939.322V631.244H942.372V630.726H945.422V630.209H948.472V629.692H951.521V629.174H954.571V628.657H957.621V628.139H960.162V627.622H963.212V627.104H966.262V626.587H969.312V626.07H971.853V625.552H974.903V625.035H977.444V624.517H980.494V624H983.544V623.483H986.085V622.965H988.627V622.448H991.676V621.93H994.218V621.413H996.759V620.896H999.809V620.378H1002.35V619.861H1004.89V619.343H1007.94V618.826H1010.48V618.308H1013.02V617.791H1015.57V617.274H1018.11V616.756H1020.65V616.239H1023.19V615.721H1026.24V615.204H1028.78V614.687H1031.32V614.169H1033.86V613.652H1036.41V613.134H1038.95V612.617H1041.49V612.1H1043.52V611.582H1046.06V611.065H1048.6V610.547H1051.15V610.03H1053.69V609.512H1056.23V608.995H1058.77V608.478H1061.31V607.96H1063.35V607.443H1065.89V606.925H1068.43V606.408H1070.97V605.891H1073.51V605.373H1075.54V604.856H1078.09V604.338H1080.63V603.821H1082.66V603.303H1085.2V602.786H1087.74V602.269H1090.28V601.751H1092.32V601.234H1094.86V600.716H1097.4V600.199H1099.43V599.682H1101.98V599.164H1104.01V598.647H1106.55V598.129H1109.09V597.612H1111.12V597.095H1113.67V596.577H1115.7V596.06H1118.24V595.542H1120.78V595.025H1122.82V594.507H1125.36V593.99H1127.39V593.473H1129.93V592.955H1131.96V592.438H1134.51V591.92H1136.54V591.403H1139.08V590.886H1141.11V590.368H1143.66V589.851H1145.69V589.333H1148.23V588.816H1150.26V588.299H1152.8V587.781H1154.84V587.264H1157.38V586.746H1159.41V586.229H1161.95V585.711H1163.99V585.194H1166.53V584.677H1168.56V584.159H1171.1V583.642H1173.14V583.124H1175.68V582.607H1177.71V582.09H1179.74V581.572H1182.29V581.055H1184.32V580.537H1186.86V580.02H1188.89V579.502H1191.43V578.985H1193.47V578.468H1196.01V577.95H1198.04V577.433H1200.08V576.915H1202.62V576.398H1204.65V575.881H1207.19V575.363H1209.22V574.846H1211.77V574.328H1213.8V573.811H1216.34V573.294H1218.37V572.776H1220.41V572.259H1222.95V571.741H1224.98V571.224H1227.52V570.706H1229.56V570.189H1232.1V569.672H1234.13V569.154H1236.67V568.637H1238.71V568.119H1241.25V567.602H1243.28V567.085H1245.82V566.567H1247.85V566.05H1250.4V565.532H1252.43V565.015H1254.97V564.498H1257V563.98H1259.55V563.463H1261.58V562.945H1264.12V562.428H1266.15V561.91H1268.69V561.393H1270.73V560.876H1273.27V560.358H1275.3V559.841H1277.84V559.323H1279.88V558.806H1282.42V558.289H1284.96V557.771H1286.99V557.254H1289.54V556.736H1291.57V556.219H1294.11V555.701H1296.65V555.184H1298.68V554.667H1301.23V554.149H1303.77V553.632H1305.8V553.114H1308.34V552.597H1310.88V552.08H1312.92V551.562H1315.46V551.045H1318V550.527H1320.03V550.01H1322.57V549.493H1325.12V548.975H1327.66V548.458H1330.2V547.94H1332.23V547.423H1334.77V546.905H1337.31V546.388H1339.86V545.871H1342.4V545.353H1344.94V544.836H1347.48V544.318H1350.02V543.801H1352.56V543.284H1355.1V542.766H1357.65V542.249H1360.19V541.731H1362.73V541.214H1365.27V540.697H1367.81V540.179H1370.35V539.662H1373.4V539.144H1375.94V538.627H1378.49V538.109H1381.03V537.592H1384.08V537.075H1386.62V536.557H1389.16V536.04H1392.21V535.522H1394.75V535.005H1397.8V534.488H1400.34V533.97H1403.39V533.453H1406.44V532.935H1408.98V532.418H1410V533.453H1407.97V533.97H1406.44V534.488H1404.92V535.005H1402.88V535.522H1401.36V536.04H1399.33V536.557H1397.8V537.075H1396.28V537.592H1394.24V538.109H1392.72V538.627H1390.69V539.144H1389.16V539.662H1387.64V540.179H1385.6V540.697H1384.08V541.214H1382.04V541.731H1380.52V542.249H1378.49V542.766H1376.96V543.284H1375.44V543.801H1373.4V544.318H1371.88V544.836H1369.85V545.353H1368.32V545.871H1366.8V546.388H1364.76V546.905H1363.24V547.423H1361.2V547.94H1359.68V548.458H1357.65V548.975H1356.12V549.493H1354.6V550.01H1352.56V550.527H1351.04V551.045H1349.01V551.562H1347.48V552.08H1345.45V552.597H1343.92V553.114H1342.4V553.632H1340.36V554.149H1338.84V554.667H1336.81V555.184H1335.28V555.701H1333.25V556.219H1331.72V556.736H1330.2V557.254H1328.17V557.771H1326.64V558.289H1324.61V558.806H1323.08V559.323H1321.05V559.841H1319.52V560.358H1317.49V560.876H1315.97V561.393H1314.44V561.91H1312.41V562.428H1310.88V562.945H1308.85V563.463H1307.33V563.98H1305.29V564.498H1303.77V565.015H1301.73V565.532H1300.21V566.05H1298.68V566.567H1296.65V567.085H1295.13V567.602H1293.09V568.119H1291.57V568.637H1289.54V569.154H1288.01V569.672H1285.98V570.189H1284.45V570.706H1282.42V571.224H1280.89V571.741H1279.37V572.259H1277.34V572.776H1275.81V573.294H1273.78V573.811H1272.25V574.328H1270.22V574.846H1268.69V575.363H1266.66V575.881H1265.14V576.398H1263.1V576.915H1261.58V577.433H1259.55V577.95H1258.02V578.468H1256.5V578.985H1254.46V579.502H1252.94V580.02H1250.9V580.537H1249.38V581.055H1247.35V581.572H1245.82V582.09H1243.79V582.607H1242.26V583.124H1240.23V583.642H1238.71V584.159H1236.67V584.677H1235.15V585.194H1233.11V585.711H1231.59V586.229H1229.56V586.746H1228.03V587.264H1226.51V587.781H1224.47V588.299H1222.95V588.816H1220.92V589.333H1219.39V589.851H1217.36V590.368H1215.83V590.886H1213.8V591.403H1212.27V591.92H1210.24V592.438H1208.72V592.955H1206.68V593.473H1205.16V593.99H1203.13V594.507H1201.6V595.025H1199.57V595.542H1198.04V596.06H1196.01V596.577H1194.48V597.095H1192.45V597.612H1190.93V598.129H1188.89V598.647H1187.37V599.164H1185.34V599.682H1183.81V600.199H1181.78V600.716H1180.25V601.234H1178.22V601.751H1176.69V602.269H1174.66V602.786H1173.14V603.303H1171.1V603.821H1169.58V604.338H1167.55V604.856H1166.02V605.373H1163.99V605.891H1162.46V606.408H1160.43V606.925H1158.9V607.443H1156.87V607.96H1155.35V608.478H1153.31V608.995H1151.79V609.512H1149.75V610.03H1148.23V610.547H1146.2V611.065H1144.67V611.582H1142.64V612.1H1140.61V612.617H1139.08V613.134H1137.05V613.652H1135.52V614.169H1133.49V614.687H1131.96V615.204H1129.93V615.721H1128.41V616.239H1126.37V616.756H1124.85V617.274H1122.82V617.791H1121.29V618.308H1119.26V618.826H1117.73V619.343H1115.7V619.861H1114.17V620.378H1112.14V620.896H1110.11V621.413H1108.58V621.93H1106.55V622.448H1105.03V622.965H1102.99V623.483H1101.47V624H1099.43V624.517H1097.91V625.035H1095.88V625.552H1094.35V626.07H1092.32V626.587H1090.28V627.104H1088.76V627.622H1086.73V628.139H1085.2V628.657H1083.17V629.174H1081.64V629.692H1079.61V630.209H1078.09V630.726H1076.05V631.244H1074.02V631.761H1072.49V632.279H1070.46V632.796H1068.94V633.313H1066.9V633.831H1064.87V634.348H1063.35V634.866H1061.31V635.383H1059.79V635.901H1057.75V636.418H1056.23V636.935H1054.2V637.453H1052.16V637.97H1050.64V638.488H1048.6V639.005H1047.08V639.522H1045.05V640.04H1043.52V640.557H1041.49V641.075H1039.46V641.592H1037.93V642.109H1035.9V642.627H1034.37V643.144H1032.34V643.662H1030.31V644.179H1028.78V644.697H1026.75V645.214H1025.22V645.731H1023.19V646.249H1021.16V646.766H1019.63V647.284H1017.6V647.801H1015.57V648.318H1014.04V648.836H1012.01V649.353H1010.48V649.871H1008.45V650.388H1006.42V650.905H1004.89V651.423H1002.86V651.94H1000.83V652.458H999.301V652.975H997.268V653.493H995.743V654.01H993.709V654.527H991.676V655.045H990.151V655.562H988.118V656.08H986.085V656.597H984.56V657.114H982.527V657.632H980.494V658.149H978.969V658.667H976.936V659.184H974.903V659.701H973.378V660.219H971.345V660.736H969.312V661.254H967.787V661.771H965.753V662.289H963.72V662.806H962.195V663.323H960.162V663.841H958.129V664.358H956.604V664.876H954.571V665.393H952.538V665.91H951.013V666.428H948.98V666.945H946.947V667.463H944.913V667.98H943.389V668.498H941.355V669.015H939.322V669.532H937.797V670.05H935.764V670.567H933.731V671.085H931.698V671.602H930.173V672.119H928.14V672.637H926.107V673.154H924.073V673.672H922.549V674.189H920.516V674.706H918.482V675.224H916.449V675.741H914.924V676.259H912.891V676.776H910.858V677.294H908.825V677.811H907.3V678.328H905.267V678.846H903.234V679.363H901.201V679.881H899.167V680.398H897.642V680.915H895.609V681.433H893.576V681.95H891.543V682.468H889.51V682.985H887.985V683.502H885.952V684.02H883.919V684.537H881.885V685.055H879.852V685.572H877.819V686.09H875.786V686.607H874.261V687.124H872.228V687.642H870.195V688.159H868.161V688.677H866.128V689.194H864.095V689.711H862.062V690.229H860.029V690.746H857.996V691.264H855.963V691.781H853.929V692.299H852.404V692.816H850.371V693.333H848.338V693.851H846.305V694.368H844.272V694.886H842.239V695.403H840.206V695.92H838.172V696.438H835.631V696.955H833.598V697.473H831.565V697.99H829.531V698.507H827.498V699.025H825.465V699.542H823.432V700.06H821.399V700.577H819.365V701.095H816.824V701.612H814.791V702.129H812.758V702.647H810.725V703.164H808.691V703.682H806.15V704.199H804.117V704.716H801.575V705.234H799.542V705.751H797.509V706.269H794.968V706.786H792.934V707.303H790.393V707.821H788.36V708.338H785.818V708.856H783.277V709.373H781.244V709.891H778.702V710.408H776.161V710.925H774.128V711.443H771.586V711.96H769.045V712.478H766.503V712.995H763.962V713.512H761.42V714.03H759.387V714.547H756.337V715.065H753.796V715.582H751.255V716.1H748.713V716.617H746.172V717.134H743.63V717.652H740.58V718.169H737.531V718.687H734.989V719.204H731.939V719.721H729.398V720.239H726.348V720.756H722.79V721.274H719.74V721.791H716.691V722.308H713.133V722.826H709.575V723.343H706.017V723.861H701.95V724.378H698.392V724.896H693.818V725.413H689.243V725.93H684.668V726.448H678.569V726.965H671.961V727.483H662.812V728H625.198ZM722.79 619.861V619.343H712.116V618.826H706.017V618.308H700.425V617.791H695.343V617.274H691.784V616.756H688.226V616.239H684.668V615.721H681.11V615.204H678.569V614.687H676.027V614.169H673.486V613.652H670.436V613.134H667.895V612.617H665.353V612.1H663.32V611.582H661.287V611.065H659.254V610.547H657.729V610.03H655.696V609.512H653.663V608.995H651.629V608.478H649.596V607.96H648.071V607.443H646.547V606.925H645.022V606.408H642.989V605.891H641.464V605.373H639.939V604.856H638.414V604.338H636.889V603.821H635.364V603.303H633.839V602.786H632.314V602.269H631.298V601.751H629.773V601.234H628.756V600.716H627.232V600.199H625.707V599.682H624.69V599.164H623.165V598.647H622.149V598.129H621.132V597.612H620.624V597.095H621.64V597.612H623.165V598.129H624.69V598.647H626.215V599.164H628.248V599.682H630.281V600.199H632.314V600.716H634.347V601.234H636.381V601.751H638.922V602.269H641.972V602.786H644.513V603.303H647.563V603.821H650.613V604.338H653.663V604.856H657.221V605.373H663.32V605.891H668.911V606.408H697.884V605.891H705V605.373H711.1V604.856H714.657V604.338H718.216V603.821H721.774V603.303H725.332V602.786H728.381V602.269H730.923V601.751H733.464V601.234H735.497V600.716H738.039V600.199H740.58V599.682H743.122V599.164H745.155V598.647H747.188V598.129H749.221V597.612H750.746V597.095H752.779V596.577H754.813V596.06H756.337V595.542H758.371V595.025H759.896V594.507H761.929V593.99H763.962V593.473H765.487V592.955H767.012V592.438H768.536V591.92H769.553V591.403H771.078V590.886H772.603V590.368H774.128V589.851H775.653V589.333H777.177V588.816H778.702V588.299H780.227V587.781H781.752V587.264H782.769V586.746H784.293V586.229H785.31V585.711H786.835V585.194H787.852V584.677H789.376V584.159H790.393V583.642H791.409V583.124H792.934V582.607H793.951V582.09H795.476V581.572H796.492V581.055H798.017V580.537H799.034V580.02H800.559V579.502H801.575V578.985H802.592V578.468H803.609V577.95H804.625V577.433H805.642V576.915H806.658V576.398H807.675V575.881H808.691V575.363H810.216V574.846H811.233V574.328H812.249V573.811H813.266V573.294H814.283V572.776H815.299V572.259H816.316V571.741H817.332V571.224H818.349V570.706H819.365V570.189H820.382V569.672H821.399V569.154H822.415V568.637H822.924V568.119H823.94V567.602H824.957V567.085H825.973V566.567H826.99V566.05H828.007V565.532H828.515V565.015H829.531V564.498H830.548V563.98H831.565V563.463H832.581V562.945H833.598V562.428H834.106V561.91H835.123V561.393H836.139V560.876H837.156V560.358H837.664V559.841H838.681V559.323H839.697V558.806H840.206V558.289H841.222V557.771H841.73V557.254H842.747V556.736H843.764V556.219H844.272V555.701H845.288V555.184H846.305V554.667H846.813V554.149H847.83V553.632H848.338V553.114H849.355V552.597H850.371V552.08H850.88V551.562H851.896V551.045H852.913V550.527H853.421V550.01H853.929V549.493H854.946V548.975H855.454V548.458H856.471V547.94H856.979V547.423H857.996V546.905H858.504V546.388H859.521V545.871H860.029V545.353H860.537V544.836H861.554V544.318H862.062V543.801H863.079V543.284H863.587V542.766H864.604V542.249H865.112V541.731H866.128V541.214H866.637V540.697H867.653V540.179H868.161V539.662H868.67V539.144H869.686V538.627H870.195V538.109H870.703V537.592H871.72V537.075H872.228V536.557H872.736V536.04H873.753V535.522H874.261V535.005H874.769V534.488H875.278V533.97H876.294V533.453H876.802V532.935H877.311V532.418H878.327V531.901H878.836V531.383H879.344V530.866H880.361V530.348H880.869V529.831H881.377V529.313H881.885V528.796H882.902V528.279H883.41V527.761H883.919V527.244H884.935V526.726H885.443V526.209H885.952V525.692H886.46V525.174H886.968V524.657H887.985V524.139H888.493V523.622H889.001V523.104H889.51V522.587H890.018V522.07H890.526V521.552H891.543V521.035H892.051V520.517H892.56V520H893.068V519.483H893.576V518.965H894.084V518.448H895.101V517.93H895.609V517.413H896.117V516.896H896.626V516.378H897.134V515.861H897.642V515.343H898.659V514.826H899.167V514.308H899.676V513.791H900.184V513.274H900.692V512.756H901.201V512.239H901.709V511.721H902.217V511.204H902.725V510.687H903.234V510.169H903.742V509.652H904.758V509.134H905.267V508.617H905.775V508.1H906.283V507.582H906.792V507.065H907.3V506.547H907.808V506.03H908.316V505.512H908.825V504.995H909.333V504.478H909.841V503.96H910.35V503.443H910.858V502.925H911.366V502.408H911.875V501.891H912.383V501.373H912.891V500.856H913.399V500.338H913.908V499.821H914.416V499.303H914.924V498.786H915.433V498.269H915.941V497.751H916.449V497.234H916.958V496.716H917.466V496.199H917.974V495.682H918.482V495.164H918.991V494.647H919.499V494.129H920.007V493.612H920.516V493.095H921.024V492.577H921.532V492.06H922.04V491.542H922.549V491.025H923.057V489.99H923.565V489.473H924.073V488.955H924.582V488.438H925.09V487.92H925.598V487.403H926.107V486.886H926.615V486.368H927.123V485.851H927.632V485.333H928.14V484.816H928.648V484.299H929.156V483.264H929.665V482.746H930.173V482.229H930.681V481.711H931.19V481.194H931.698V480.677H932.206V479.642H932.714V479.124H933.223V478.607H933.731V478.09H934.239V477.572H934.748V476.537H935.256V476.02H935.764V475.503H936.273V474.985H936.781V474.468H937.289V473.95H937.797V472.915H938.306V472.398H938.814V471.881H939.322V471.363H939.831V470.846H940.339V469.811H940.847V469.294H941.355V468.776H941.864V468.259H942.372V467.224H942.88V466.706H943.389V466.189H943.897V465.154H944.405V464.637H944.913V464.119H945.422V463.085H945.93V462.567H946.438V462.05H946.947V461.015H947.455V460.498H947.963V459.98H948.472V458.945H948.98V458.428H949.488V457.91H949.996V456.876H950.505V456.358H951.013V455.841H951.521V454.806H952.03V454.289H952.538V453.771H953.046V452.736H953.554V452.219H954.063V451.184H954.571V450.667H955.079V449.632H955.588V449.114H956.096V448.08H956.604V447.045H957.112V446.527H957.621V445.493H958.129V444.975H958.637V443.94H959.146V443.423H959.654V442.388H960.162V441.871H960.671V440.836H961.179V440.318H961.687V439.284H962.195V438.766H962.704V437.731H963.212V437.214H963.72V436.179H964.229V435.144H964.737V434.627H965.245V433.592H965.753V432.557H966.262V431.522H966.77V431.005H967.278V429.97H967.787V428.935H968.295V427.901H968.803V427.383H969.312V426.348H969.82V425.313H970.328V424.796H970.836V423.761H971.345V422.726H971.853V421.692H972.361V421.174H972.87V420.139H973.378V419.104H973.886V418.07H974.394V417.035H974.903V416H975.411V414.965H975.919V413.93H976.427V412.896H976.936V411.861H977.444V410.826H977.952V409.791H978.461V408.239H978.969V407.204H979.477V406.169H979.986V405.134H980.494V404.099H981.002V403.065H981.51V402.03H982.019V400.995H982.527V399.443H983.035V398.408H983.544V396.856H984.052V395.821H984.56V394.269H985.069V393.234H985.577V392.199H986.085V390.647H986.593V389.612H987.102V388.06H987.61V387.025H988.118V385.473H988.627V384.438H989.135V382.886H989.643V381.333H990.151V379.781H990.66V378.229H991.168V376.159H991.676V374.607H992.185V373.055H992.693V371.502H993.201V369.95H993.709V368.398H994.218V366.846H994.726V364.776H995.234V362.706H995.743V360.637H996.251V358.567H996.759V356.498H997.268V354.428H997.776V351.841H998.284V349.771H998.792V347.702H999.301V344.597H999.809V341.493H1000.32V338.388H1000.83V334.766H1001.33V331.662H1001.84V328.04H1002.35V320.796H1002.86V313.552H1003.37V292.856H1002.86V286.129H1002.35V281.473H1001.84V276.816H1001.33V272.159H1000.83V269.055H1000.32V266.468H999.809V263.881H999.301V261.294H998.792V258.706H998.284V256.637H997.776V254.05H997.268V251.463H996.759V249.91H996.251V247.841H995.743V246.289H995.234V244.219H994.726V242.667H994.218V240.597H993.709V239.045H993.201V236.975H992.693V235.423H992.185V234.388H991.676V232.836H991.168V231.801H990.66V230.249H990.151V229.214H989.643V228.179H989.135V227.662H988.627V226.627H988.118V225.592H987.61V224.557H987.102V223.522H986.593V222.488H986.085V221.453H985.577V220.418H985.069V219.383H984.56V218.866H984.052V217.831H983.544V216.796H983.035V216.279H982.527V215.244H982.019V214.209H981.51V213.174H981.002V212.657H980.494V211.622H979.986V210.587H979.477V210.07H978.969V209.035H978.461V208H977.952V207.483H977.444V206.448H976.936V205.413H976.427V204.896H975.919V203.861H975.411V203.343H974.903V202.308H974.394V201.791H973.886V200.756H973.378V200.239H972.87V199.204H972.361V198.687H971.853V197.652H971.345V197.134H970.836V196.099H970.328V195.582H969.82V194.547H969.312V194.03H968.803V193.513H968.295V192.478H967.787V191.96H967.278V191.443H966.77V190.925H966.262V189.891H965.753V189.373H965.245V188.856H964.737V187.821H964.229V187.304H963.72V186.786H963.212V185.751H962.704V185.234H962.195V184.716H961.687V183.682H961.179V183.164H960.671V182.647H960.162V182.129H959.654V181.095H959.146V180.577H958.637V180.06H958.129V179.542H957.621V179.025H957.112V178.507H956.604V177.473H956.096V176.955H955.588V176.438H955.079V175.92H954.571V175.403H954.063V174.886H953.554V173.851H953.046V173.333H952.538V172.816H952.03V172.299H951.521V171.781H951.013V171.264H950.505V170.746H949.996V170.229H949.488V169.711H948.98V169.194H948.472V168.677H947.963V168.159H947.455V167.642H946.947V167.124H946.438V166.09H945.93V165.572H945.422V165.055H944.913V164.537H944.405V164.02H943.897V163.503H943.389V162.985H942.88V162.468H942.372V161.95H941.864V161.433H941.355V160.915H940.847V160.398H939.831V159.881H939.322V159.363H938.814V158.846H938.306V158.328H937.797V157.811H937.289V157.294H936.781V156.776H936.273V156.259H935.764V155.741H935.256V155.224H934.748V154.706H934.239V154.189H933.731V153.672H932.714V153.154H932.206V152.637H931.698V152.119H931.19V151.602H930.681V151.085H929.665V150.567H929.156V150.05H928.648V149.532H928.14V149.015H927.632V148.498H926.615V147.98H926.107V147.463H925.598V146.945H925.09V146.428H924.582V145.91H923.565V145.393H923.057V144.876H922.549V144.358H922.04V143.841H921.024V143.323H920.516V142.806H920.007V142.289H918.991V141.771H918.482V141.254H917.974V140.736H916.958V140.219H916.449V139.701H915.433V139.184H914.924V138.667H914.416V138.149H913.399V137.632H912.891V137.114H912.383V136.597H911.366V136.08H910.858V135.562H909.841V135.045H909.333V134.527H908.316V134.01H907.808V133.492H906.792V132.975H906.283V132.458H905.267V131.94H904.758V131.423H903.742V130.906H903.234V130.388H902.217V129.871H901.709V129.353H900.692V128.836H899.676V128.318H899.167V127.801H898.151V127.284H897.134V126.766H896.117V126.249H895.609V125.731H894.593V125.214H893.576V124.697H893.068V124.179H892.051V123.662H891.035V123.144H890.526V122.627H889.51V122.109H888.493V121.592H887.477V121.075H886.46V120.557H885.443V120.04H884.427V119.522H883.41V119.005H882.902V118.488H881.885V117.97H880.869V117.453H879.852V116.935H878.836V116.418H877.819V115.901H876.802V115.383H875.786V114.866H874.769V114.348H873.244V113.831H872.228V113.313H871.211V112.796H870.195V112.279H869.178V111.761H868.161V111.244H867.145V110.726H865.62V110.209H864.604V109.692H863.587V109.174H862.062V108.657H861.045V108.139H859.521V107.622H858.504V107.104H856.979V106.587H855.963V106.07H854.946V105.552H853.421V105.035H852.404V104.517H850.88V104H849.355V103.483H847.83V102.965H846.813V102.448H845.288V101.93H843.764V101.413H842.239V100.896H840.714V100.378H839.697V99.8607H838.172V99.3433H836.139V98.8259H834.614V98.3085H833.089V97.7911H831.565V97.2736H830.04V96.7562H828.515V96.2388H826.482V95.7214H824.957V95.204H822.924V94.6865H821.399V94.1691H819.365V93.6517H817.332V93.1343H815.807V92.6169H813.774V92.0995H811.741V91.5821H809.708V91.0647H807.675V90.5472H805.133V90.0299H803.1V89.5125H801.067V88.9951H799.034V88.4777H796.492V87.9602H793.951V87.4428H791.409V86.9254H788.868V86.408H786.327V85.8906H783.785V85.3732H780.735V84.8558H777.686V84.3383H774.636V83.8209H771.078V83.3035H768.028V82.7861H764.47V82.2687H760.404V81.7513H756.846V81.2338H752.779V80.7164H748.205V80.199H743.122V79.6816H738.039V79.1642H731.939V78.6468H725.332V78.1294H717.707V77.6119H708.05V77.0945H692.293V76.5771H656.712V77.0945H640.447V77.6119H629.773V78.1294H620.115V78.6468H612.491V79.1642H604.867V79.6816H598.767V80.199H592.159V80.7164H586.568V81.2338H580.977V81.7513H575.894V82.2687H570.303V82.7861H565.728V83.3035H561.154V83.8209H556.579V84.3383H551.496V84.8558H547.43V85.3732H543.363V85.8906H539.297V86.408H535.231V86.9254H531.164V87.4428H527.098V87.9602H523.54V88.4777H519.474V88.9951H515.916V89.5125H512.358V90.0299H508.8V90.5472H505.242V91.0647H501.683V91.5821H498.125V92.0995H495.076V92.6169H491.518V93.1343H488.468V93.6517H484.91V94.1691H481.86V94.6865H478.302V95.204H475.252V95.7214H472.203V96.2388H469.153V96.7562H466.103V97.2736H463.053V97.7911H460.004V98.3085H456.954V98.8259H453.904V99.3433H450.854V99.8607H448.313V100.378H445.263V100.896H442.213V101.413H439.164V101.93H436.622V102.448H433.572V102.965H431.031V103.483H427.981V104H425.44V104.517H422.39V105.035H419.849V105.552H416.799V106.07H414.257V106.587H411.716V107.104H408.666V107.622H406.125V108.139H403.583V108.657H401.042V109.174H398.5V109.692H395.451V110.209H392.909V110.726H390.368V111.244H387.826V111.761H385.285V112.279H382.743V112.796H380.202V113.313H377.66V113.831H375.119V114.348H372.577V114.866H370.036V115.383H367.495V115.901H364.953V116.418H362.412V116.935H359.87V117.453H357.329V117.97H354.787V118.488H352.246V119.005H350.213V119.522H347.671V120.04H345.13V120.557H342.588V121.075H340.047V121.592H338.014V122.109H335.472V122.627H332.931V123.144H330.389V123.662H328.356V124.179H325.815V124.697H323.273V125.214H321.24V125.731H318.699V126.249H316.157V126.766H314.124V127.284H311.583V127.801H309.041V128.318H307.008V128.836H304.466V129.353H302.433V129.871H299.892V130.388H297.35V130.906H295.317V131.423H292.776V131.94H290.743V132.458H288.201V132.975H285.66V133.492H283.627V134.01H281.085V134.527H279.052V135.045H276.51V135.562H274.477V136.08H271.936V136.597H269.903V137.114H267.361V137.632H265.328V138.149H262.787V138.667H260.753V139.184H258.212V139.701H256.179V140.219H253.637V140.736H251.604V141.254H249.063V141.771H247.03V142.289H244.488V142.806H242.455V143.323H239.913V143.841H237.88V144.358H235.847V144.876H233.306V145.393H231.273V145.91H228.731V146.428H226.698V146.945H224.156V147.463H222.123V147.98H219.582V148.498H217.549V149.015H215.007V149.532H212.974V150.05H210.941V150.567H208.399V151.085H206.366V151.602H203.825V152.119H201.792V152.637H199.25V153.154H197.217V153.672H194.676V154.189H192.642V154.706H190.609V155.224H188.068V155.741H186.035V156.259H183.493V156.776H181.46V157.294H178.919V157.811H176.885V158.328H174.344V158.846H172.311V159.363H169.769V159.881H167.736V160.398H165.195V160.915H163.161V161.433H161.128V161.95H158.587V162.468H156.554V162.985H154.012V163.503H151.979V164.02H149.438V164.537H147.404V165.055H144.863V165.572H142.322V166.09H140.288V166.607H137.747V167.124H135.714V167.642H133.172V168.159H131.139V168.677H128.598V169.194H126.565V169.711H124.023V170.229H121.482V170.746H119.448V171.264H116.907V171.781H114.874V172.299H112.332V172.816H109.791V173.333H107.758V173.851H105.216V174.368H102.675V174.886H100.642V175.403H98.1002V175.92H95.5588V176.438H93.0173V176.955H90.9841V177.473H88.4427V177.99H85.9012V178.507H83.8681V179.025H81.3266V179.542H78.7851V180.06H76.2437V180.577H73.7022V181.095H71.1608V181.612H68.6193V182.129H66.5862V182.647H64.0447V183.164H61.5033V183.682H58.9618V184.199H56.4203V184.716H53.8789V185.234H51.3374V185.751H48.796V186.269H45.7462V186.786H43.2048V187.304H40.6633V187.821H38.1218V188.338H35.5804V188.856H33.0389V189.373H29.9892V189.891H27.4477V190.408H24.398V190.925H21.8565V191.443H19.3151V191.96H16.2653V192.478H13.7239V192.995H10.6741V193.513H8.13266V194.03H5.08291V194.547H2.03316V195.065H0V194.547H1.01658V194.03H2.54146V193.513H4.57462V192.995H6.0995V192.478H7.62437V191.96H9.65753V191.443H11.1824V190.925H13.2156V190.408H14.7404V189.891H16.2653V189.373H18.2985V188.856H19.8234V188.338H21.8565V187.821H23.3814V187.304H24.9063V186.786H26.9394V186.269H28.4643V185.751H30.4975V185.234H32.0224V184.716H33.5472V184.199H35.5804V183.682H37.1053V183.164H39.1384V182.647H40.6633V182.129H42.6965V181.612H44.2213V181.095H45.7462V180.577H47.7794V180.06H49.3043V179.542H51.3374V179.025H52.8623V178.507H54.8955V177.99H56.4203V177.473H57.9452V176.955H59.9784V176.438H61.5033V175.92H63.5364V175.403H65.0613V174.886H67.0945V174.368H68.6193V173.851H70.1442V173.333H72.1774V172.816H73.7022V172.299H75.7354V171.781H77.2603V171.264H79.2934V170.746H80.8183V170.229H82.3432V169.711H84.3764V169.194H85.9012V168.677H87.9344V168.159H89.4593V167.642H91.4924V167.124H93.0173V166.607H95.0505V166.09H96.5753V165.572H98.1002V165.055H100.133V164.537H101.658V164.02H103.691V163.503H105.216V162.985H107.249V162.468H108.774V161.95H110.808V161.433H112.332V160.915H113.857V160.398H115.89V159.881H117.415V159.363H119.448V158.846H120.973V158.328H123.007V157.811H124.531V157.294H126.565V156.776H128.089V156.259H130.123V155.741H131.647V155.224H133.172V154.706H135.205V154.189H136.73V153.672H138.764V153.154H140.288V152.637H142.322V152.119H143.846V151.602H145.88V151.085H147.404V150.567H149.438V150.05H150.963V149.532H152.996V149.015H154.521V148.498H156.045V147.98H158.079V147.463H159.603V146.945H161.637V146.428H163.161V145.91H165.195V145.393H166.72V144.876H168.753V144.358H170.278V143.841H172.311V143.323H173.836V142.806H175.869V142.289H177.394V141.771H179.427V141.254H180.952V140.736H182.985V140.219H184.51V139.701H186.543V139.184H188.068V138.667H190.101V138.149H191.626V137.632H193.151V137.114H195.184V136.597H196.709V136.08H198.742V135.562H200.267V135.045H202.3V134.527H203.825V134.01H205.858V133.492H207.383V132.975H209.416V132.458H210.941V131.94H212.974V131.423H214.499V130.906H216.532V130.388H218.057V129.871H220.09V129.353H221.615V128.836H223.648V128.318H225.173V127.801H227.206V127.284H228.731V126.766H230.764V126.249H232.289V125.731H234.322V125.214H235.847V124.697H237.88V124.179H239.405V123.662H241.438V123.144H242.963V122.627H244.996V122.109H246.521V121.592H248.554V121.075H250.079V120.557H252.113V120.04H253.637V119.522H255.671V119.005H257.195V118.488H259.229V117.97H261.262V117.453H262.787V116.935H264.82V116.418H266.345V115.901H268.378V115.383H269.903V114.866H271.936V114.348H273.461V113.831H275.494V113.313H277.019V112.796H279.052V112.279H280.577V111.761H282.61V111.244H284.135V110.726H286.168V110.209H287.693V109.692H289.726V109.174H291.251V108.657H293.284V108.139H295.317V107.622H296.842V107.104H298.875V106.587H300.4V106.07H302.433V105.552H303.958V105.035H305.991V104.517H307.516V104H309.549V103.483H311.074V102.965H313.107V102.448H315.141V101.93H316.665V101.413H318.699V100.896H320.224V100.378H322.257V99.8607H323.782V99.3433H325.815V98.8259H327.34V98.3085H329.373V97.7911H331.406V97.2736H332.931V96.7562H334.964V96.2388H336.489V95.7214H338.522V95.204H340.047V94.6865H342.08V94.1691H344.113V93.6517H345.638V93.1343H347.671V92.6169H349.196V92.0995H351.229V91.5821H352.754V91.0647H354.787V90.5472H356.82V90.0299H358.345V89.5125H360.379V88.9951H361.903V88.4777H363.937V87.9602H365.97V87.4428H367.495V86.9254H369.528V86.408H371.053V85.8906H373.086V85.3732H374.611V84.8558H376.644V84.3383H378.677V83.8209H380.202V83.3035H382.235V82.7861H383.76V82.2687H385.793V81.7513H387.826V81.2338H389.351V80.7164H391.384V80.199H393.417V79.6816H394.942V79.1642H396.976V78.6468H398.5V78.1294H400.534V77.6119H402.567V77.0945H404.092V76.5771H406.125V76.0597H408.158V75.5423H409.683V75.0248H411.716V74.5074H413.241V73.9901H415.274V73.4726H417.307V72.9552H418.832V72.4378H420.865V71.9204H422.898V71.403H424.423V70.8856H426.456V70.3682H428.49V69.8508H430.014V69.3333H432.048V68.816H434.081V68.2985H435.606V67.7811H437.639V67.2637H439.672V66.7463H441.197V66.2289H443.23V65.7115H445.263V65.1941H446.788V64.6767H448.821V64.1592H450.854V63.6418H452.379V63.1245H454.412V62.6069H456.446V62.0895H457.97V61.5721H460.004V61.0547H462.037V60.5374H464.07V60.0199H465.595V59.5025H467.628V58.985H469.661V58.4677H471.186V57.9503H473.219V57.4328H475.252V56.9154H477.286V56.3981H478.81V55.8806H480.844V55.3632H482.877V54.8458H484.402V54.3284H486.435V53.811H488.468V53.2935H490.501V52.7761H492.534V52.2587H494.059V51.7413H496.092V51.2239H498.125V50.7064H500.159V50.189H501.683V49.6716H503.717V49.1542H505.75V48.6368H507.783V48.1194H509.308V47.6021H511.341V47.0847H513.374V46.5672H515.407V46.0498H517.441V45.5323H519.474V45.015H520.999V44.4976H523.032V43.9801H525.065V43.4627H527.098V42.9453H529.131V42.4279H531.164V41.9105H532.689V41.3931H534.722V40.8757H536.756V40.3582H538.789V39.8408H540.822V39.3234H542.855V38.806H544.888V38.2886H546.921V37.7712H548.955V37.2537H550.479V36.7363H552.513V36.2189H554.546V35.7015H556.579V35.1841H558.612V34.6667H560.645V34.1493H562.678V33.6318H564.712V33.1144H566.745V32.597H568.778V32.0796H570.811V31.5622H572.844V31.0447H574.877V30.5273H576.911V30.0099H579.452V29.4926H581.485V28.9752H583.518V28.4578H585.552V27.9402H587.585V27.4229H589.618V26.9055H591.651V26.3881H594.193V25.8707H596.226V25.3533H598.259V24.8359H600.292V24.3184H602.325V23.801H604.867V23.2836H606.9V22.7662H609.441V22.2488H611.474V21.7313H613.508V21.2139H616.049V20.6965H618.082V20.1791H620.624V19.6617H623.165V19.1443H625.198V18.6269H627.74V18.1095H629.773V17.592H632.314V17.0746H634.856V16.5573H637.397V16.0399H639.43V15.5225H641.972V15.0049H644.513V14.4875H647.055V13.9702H649.596V13.4527H652.138V12.9353H654.679V12.4179H657.221V11.9005H659.762V11.3831H662.304V10.8657H665.353V10.3483H667.895V9.83087H670.945V9.31348H673.486V8.79608H676.536V8.27856H679.077V7.76117H682.127V7.24377H685.177V6.72638H688.735V6.20898H691.784V5.69159H694.834V5.17419H698.392V4.6568H701.95V4.13928H706.017V3.62189H709.575V3.10455H713.641V2.58716H718.216V2.06976H723.299V1.55225H727.873V1.03485H734.481V0.517456H741.089V0H788.36V0.517456H795.476V1.03485H801.067V1.55225H805.133V2.06976H809.708V2.58716H813.774V3.10455H816.824V3.62189H820.382V4.13928H823.432V4.6568H826.482V5.17419H829.023V5.69159H831.565V6.20898H834.106V6.72638H836.647V7.24377H839.189V7.76117H841.73V8.27856H843.764V8.79608H846.305V9.31348H848.338V9.83087H850.371V10.3483H852.404V10.8657H854.438V11.3831H856.471V11.9005H858.504V12.4179H860.029V12.9353H862.062V13.4527H863.587V13.9702H865.62V14.4875H867.145V15.0049H868.67V15.5225H870.195V16.0399H871.72V16.5573H873.244V17.0746H874.769V17.592H876.294V18.1095H877.819V18.6269H879.344V19.1443H880.869V19.6617H881.885V20.1791H883.41V20.6965H884.935V21.2139H886.46V21.7313H887.477V22.2488H889.001V22.7662H890.018V23.2836H891.543V23.801H892.56V24.3184H894.084V24.8359H895.609V25.3533H896.626V25.8707H897.642V26.3881H899.167V26.9055H900.184V27.4229H901.201V27.9402H902.725V28.4578H903.742V28.9752H905.267V29.4926H906.283V30.0099H907.3V30.5273H908.316V31.0447H909.333V31.5622H910.858V32.0796H911.875V32.597H912.891V33.1144H913.908V33.6318H914.924V34.1493H916.449V34.6667H917.466V35.1841H918.482V35.7015H919.499V36.2189H920.516V36.7363H921.532V37.2537H922.549V37.7712H923.565V38.2886H924.582V38.806H925.598V39.3234H926.615V39.8408H927.632V40.3582H928.648V40.8757H929.665V41.3931H930.681V41.9105H931.698V42.4279H932.714V42.9453H933.223V43.4627H934.239V43.9801H935.256V44.4976H936.273V45.015H937.289V45.5323H938.306V46.0498H939.322V46.5672H939.831V47.0847H940.847V47.6021H941.864V48.1194H942.88V48.6368H943.897V49.1542H944.405V49.6716H945.422V50.189H946.438V50.7064H946.947V51.2239H947.963V51.7413H948.98V52.2587H949.996V52.7761H950.505V53.2935H951.521V53.811H952.538V54.3284H953.046V54.8458H954.063V55.3632H955.079V55.8806H955.588V56.3981H956.604V56.9154H957.112V57.4328H958.129V57.9503H959.146V58.4677H959.654V58.985H960.671V59.5025H961.179V60.0199H962.195V60.5374H963.212V61.0547H963.72V61.5721H964.737V62.0895H965.245V62.6069H966.262V63.1245H966.77V63.6418H967.787V64.1592H968.295V64.6767H969.312V65.1941H969.82V65.7115H970.836V66.2289H971.345V66.7463H972.361V67.2637H972.87V67.7811H973.378V68.2985H974.394V68.816H974.903V69.3333H975.919V69.8508H976.427V70.3682H977.444V70.8856H977.952V71.403H978.969V71.9204H979.477V72.4378H979.986V72.9552H981.002V73.4726H981.51V73.9901H982.019V74.5074H983.035V75.0248H983.544V75.5423H984.052V76.0597H985.069V76.5771H985.577V77.0945H986.085V77.6119H987.102V78.1294H987.61V78.6468H988.118V79.1642H989.135V79.6816H989.643V80.199H990.151V80.7164H991.168V81.2338H991.676V81.7513H992.185V82.2687H992.693V82.7861H993.709V83.3035H994.218V83.8209H994.726V84.3383H995.234V84.8558H996.251V85.3732H996.759V85.8906H997.268V86.408H997.776V86.9254H998.284V87.4428H999.301V87.9602H999.809V88.4777H1000.32V88.9951H1000.83V89.5125H1001.84V90.0299H1002.35V90.5472H1002.86V91.0647H1003.37V91.5821H1003.88V92.0995H1004.38V92.6169H1005.4V93.1343H1005.91V93.6517H1006.42V94.1691H1006.93V94.6865H1007.43V95.204H1007.94V95.7214H1008.45V96.2388H1008.96V96.7562H1009.47V97.2736H1010.48V97.7911H1010.99V98.3085H1011.5V98.8259H1012.01V99.3433H1012.52V99.8607H1013.02V100.378H1013.53V100.896H1014.04V101.413H1014.55V101.93H1015.06V102.448H1015.57V102.965H1016.07V103.483H1017.09V104H1017.6V104.517H1018.11V105.035H1018.62V105.552H1019.12V106.07H1019.63V106.587H1020.14V107.104H1020.65V107.622H1021.16V108.139H1021.67V108.657H1022.17V109.174H1022.68V109.692H1023.19V110.209H1023.7V110.726H1024.21V111.244H1024.72V111.761H1025.22V112.279H1025.73V112.796H1026.24V113.313H1026.75V113.831H1027.26V114.866H1027.77V115.383H1028.27V115.901H1028.78V116.418H1029.29V116.935H1029.8V117.453H1030.31V117.97H1030.81V118.488H1031.32V119.005H1031.83V119.522H1032.34V120.557H1032.85V121.075H1033.36V121.592H1033.86V122.109H1034.37V122.627H1034.88V123.144H1035.39V123.662H1035.9V124.179H1036.41V124.697H1036.91V125.731H1037.42V126.249H1037.93V126.766H1038.44V127.284H1038.95V127.801H1039.46V128.836H1039.96V129.353H1040.47V129.871H1040.98V130.388H1041.49V131.423H1042V131.94H1042.51V132.458H1043.01V132.975H1043.52V133.492H1044.03V134.527H1044.54V135.045H1045.05V135.562H1045.56V136.08H1046.06V137.114H1046.57V137.632H1047.08V138.149H1047.59V139.184H1048.1V139.701H1048.6V140.219H1049.11V141.254H1049.62V141.771H1050.13V142.289H1050.64V143.323H1051.15V143.841H1051.65V144.876H1052.16V145.393H1052.67V145.91H1053.18V146.945H1053.69V147.463H1054.2V148.498H1054.7V149.015H1055.21V149.532H1055.72V150.567H1056.23V151.085H1056.74V152.119H1057.25V152.637H1057.75V153.672H1058.26V154.189H1058.77V155.224H1059.28V156.259H1059.79V156.776H1060.3V157.811H1060.8V158.328H1061.31V159.363H1061.82V160.398H1062.33V160.915H1062.84V161.95H1063.35V162.468H1063.85V163.503H1064.36V164.02H1064.87V165.055H1065.38V166.09H1065.89V167.124H1066.4V168.159H1066.9V168.677H1067.41V169.711H1067.92V170.746H1068.43V171.781H1068.94V172.816H1069.44V173.851H1069.95V174.368H1070.46V175.403H1070.97V176.438H1071.48V177.473H1071.99V178.507H1072.49V179.542H1073V180.06H1073.51V181.612H1074.02V182.647H1074.53V183.682H1075.04V184.716H1075.54V185.751H1076.05V187.304H1076.56V188.338H1077.07V189.373H1077.58V190.408H1078.09V191.443H1078.59V192.478H1079.1V194.03H1079.61V195.065H1080.12V196.099H1080.63V197.652H1081.14V199.204H1081.64V200.239H1082.15V201.791H1082.66V203.343H1083.17V204.378H1083.68V205.93H1084.19V207.483H1084.69V208.517H1085.2V210.07H1085.71V211.622H1086.22V213.174H1086.73V214.726H1087.23V216.279H1087.74V218.348H1088.25V219.901H1088.76V221.97H1089.27V223.522H1089.78V225.075H1090.28V227.144H1090.79V228.697H1091.3V231.284H1091.81V233.353H1092.32V235.94H1092.83V238.527H1093.33V240.597H1093.84V243.184H1094.35V245.771H1094.86V248.876H1095.37V252.498H1095.88V256.119H1096.38V260.259H1096.89V263.881H1097.4V270.09H1097.91V278.886H1098.42V307.343H1097.91V313.035H1097.4V319.244H1096.89V324.935H1096.38V329.075H1095.88V332.697H1095.37V335.801H1094.86V338.905H1094.35V342.01H1093.84V345.632H1093.33V348.736H1092.83V351.323H1092.32V353.393H1091.81V355.463H1091.3V358.05H1090.79V360.119H1090.28V362.189H1089.78V364.776H1089.27V366.846H1088.76V369.433H1088.25V371.502H1087.74V373.055H1087.23V375.124H1086.73V376.677H1086.22V378.229H1085.71V380.299H1085.2V381.851H1084.69V383.92H1084.19V385.473H1083.68V387.025H1083.17V389.095H1082.66V390.647H1082.15V392.199H1081.64V394.269H1081.14V395.821H1080.63V397.373H1080.12V398.408H1079.61V399.96H1079.1V401.512H1078.59V403.065H1078.09V404.617H1077.58V406.169H1077.07V407.204H1076.56V408.756H1076.05V410.308H1075.54V411.861H1075.04V413.413H1074.53V414.448H1074.02V416H1073.51V417.035H1073V418.587H1072.49V419.622H1071.99V421.174H1071.48V422.209H1070.97V423.761H1070.46V424.796H1069.95V425.831H1069.44V426.866H1068.94V428.418H1068.43V429.453H1067.92V430.488H1067.41V431.522H1066.9V432.557H1066.4V434.109H1065.89V435.144H1065.38V435.662H1064.87V436.697H1064.36V437.731H1063.85V438.766H1063.35V439.801H1062.84V440.836H1062.33V441.871H1061.82V442.905H1061.31V443.94H1060.8V444.975H1060.3V446.01H1059.79V446.527H1059.28V447.562H1058.77V448.597H1058.26V449.632H1057.75V450.149H1057.25V451.184H1056.74V452.219H1056.23V452.736H1055.72V453.771H1055.21V454.806H1054.7V455.323H1054.2V456.358H1053.69V456.876H1053.18V457.91H1052.67V458.945H1052.16V459.463H1051.65V460.498H1051.15V461.532H1050.64V462.05H1050.13V463.085H1049.62V463.602H1049.11V464.119H1048.6V465.154H1048.1V465.672H1047.59V466.706H1047.08V467.224H1046.57V468.259H1046.06V468.776H1045.56V469.294H1045.05V470.328H1044.54V470.846H1044.03V471.881H1043.52V472.398H1043.01V473.433H1042.51V473.95H1042V474.468H1041.49V475.503H1040.98V476.02H1040.47V476.537H1039.96V477.572H1039.46V478.09H1038.95V478.607H1038.44V479.124H1037.93V480.159H1037.42V480.677H1036.91V481.194H1036.41V481.711H1035.9V482.746H1035.39V483.264H1034.88V483.781H1034.37V484.299H1033.86V485.333H1033.36V485.851H1032.85V486.368H1032.34V486.886H1031.83V487.92H1031.32V488.438H1030.81V488.955H1030.31V489.473H1029.8V489.99H1029.29V490.507H1028.78V491.025H1028.27V491.542H1027.77V492.577H1027.26V493.095H1026.75V493.612H1026.24V494.129H1025.73V494.647H1025.22V495.164H1024.72V495.682H1024.21V496.199H1023.7V497.234H1023.19V497.751H1022.68V498.269H1022.17V498.786H1021.67V499.303H1021.16V499.821H1020.65V500.338H1020.14V500.856H1019.63V501.373H1019.12V501.891H1018.62V502.408H1018.11V502.925H1017.6V503.443H1017.09V503.96H1016.58V504.478H1016.07V504.995H1015.57V505.512H1015.06V506.03H1014.55V506.547H1014.04V507.065H1013.53V507.582H1013.02V508.1H1012.52V508.617H1012.01V509.134H1011.5V509.652H1010.99V510.169H1010.48V510.687H1009.97V511.204H1009.47V511.721H1008.96V512.239H1008.45V512.756H1007.94V513.274H1007.43V513.791H1006.93V514.308H1006.42V514.826H1005.91V515.343H1004.89V515.861H1004.38V516.378H1003.88V516.896H1003.37V517.413H1002.86V517.93H1002.35V518.448H1001.84V518.965H1001.33V519.483H1000.83V520H1000.32V520.517H999.301V521.035H998.792V521.552H998.284V522.07H997.776V522.587H997.268V523.104H996.759V523.622H996.251V524.139H995.234V524.657H994.726V525.174H994.218V525.692H993.709V526.209H992.693V526.726H992.185V527.244H991.676V527.761H991.168V528.279H990.66V528.796H989.643V529.313H989.135V529.831H988.627V530.348H988.118V530.866H987.102V531.383H986.593V531.901H986.085V532.418H985.577V532.935H985.069V533.453H984.052V533.97H983.544V534.488H983.035V535.005H982.019V535.522H981.51V536.04H981.002V536.557H979.986V537.075H979.477V537.592H978.969V538.109H977.952V538.627H977.444V539.144H976.936V539.662H975.919V540.179H975.411V540.697H974.394V541.214H973.886V541.731H973.378V542.249H972.361V542.766H971.853V543.284H971.345V543.801H970.328V544.318H969.82V544.836H968.803V545.353H968.295V545.871H967.278V546.388H966.77V546.905H965.753V547.423H965.245V547.94H964.229V548.458H963.72V548.975H962.704V549.493H962.195V550.01H961.179V550.527H960.671V551.045H959.654V551.562H959.146V552.08H958.129V552.597H957.621V553.114H957.112V553.632H956.096V554.149H955.079V554.667H954.571V555.184H953.554V555.701H952.538V556.219H952.03V556.736H951.013V557.254H949.996V557.771H949.488V558.289H948.472V558.806H947.455V559.323H946.947V559.841H945.93V560.358H945.422V560.876H944.405V561.393H943.389V561.91H942.88V562.428H941.864V562.945H940.847V563.463H939.831V563.98H938.814V564.498H938.306V565.015H937.289V565.532H936.273V566.05H935.256V566.567H934.239V567.085H933.731V567.602H932.714V568.119H931.698V568.637H930.681V569.154H929.665V569.672H929.156V570.189H928.14V570.706H927.123V571.224H926.107V571.741H925.09V572.259H924.073V572.776H923.057V573.294H922.04V573.811H921.024V574.328H920.007V574.846H918.991V575.363H917.974V575.881H916.958V576.398H915.941V576.915H914.924V577.433H913.908V577.95H912.891V578.468H911.875V578.985H910.35V579.502H909.333V580.02H908.316V580.537H907.3V581.055H905.775V581.572H904.758V582.09H903.742V582.607H902.725V583.124H901.709V583.642H900.184V584.159H899.167V584.677H898.151V585.194H897.134V585.711H895.609V586.229H894.593V586.746H893.068V587.264H892.051V587.781H890.526V588.299H889.51V588.816H887.985V589.333H886.968V589.851H885.443V590.368H884.427V590.886H882.902V591.403H881.885V591.92H880.361V592.438H879.344V592.955H877.819V593.473H876.294V593.99H874.769V594.507H873.244V595.025H871.72V595.542H870.703V596.06H869.178V596.577H867.653V597.095H866.128V597.612H864.604V598.129H863.079V598.647H861.554V599.164H860.029V599.682H858.504V600.199H856.471V600.716H854.946V601.234H853.421V601.751H851.896V602.269H850.371V602.786H848.338V603.303H846.813V603.821H844.78V604.338H842.747V604.856H841.222V605.373H839.189V605.891H837.156V606.408H835.123V606.925H833.598V607.443H831.565V607.96H829.531V608.478H826.99V608.995H824.957V609.512H822.415V610.03H820.382V610.547H817.841V611.065H815.807V611.582H813.266V612.1H810.725V612.617H807.675V613.134H805.133V613.652H802.084V614.169H799.542V614.687H796.492V615.204H792.934V615.721H788.868V616.239H785.31V616.756H781.752V617.274H777.177V617.791H771.586V618.308H766.503V618.826H759.387V619.343H749.73V619.861" fill="white"/>
</svg>
