<svg width="34" height="21" viewBox="0 0 34 21" fill="none" xmlns="http://www.w3.org/2000/svg">
<path d="M32.4986 1.51567C32.1354 1.29431 31.7196 1.17401 31.2943 1.16721C30.869 1.16041 30.4496 1.26736 30.0795 1.477L24.125 5.76343V4.14193C24.1238 3.09249 23.7063 2.08639 22.9643 1.34432C22.2222 0.602259 21.2161 0.184826 20.1667 0.183594H4.33333C3.2839 0.184826 2.27779 0.602259 1.53573 1.34432C0.793665 2.08639 0.376232 3.09249 0.375 4.14193V16.8086C0.376232 17.858 0.793665 18.8641 1.53573 19.6062C2.27779 20.3483 3.2839 20.7657 4.33333 20.7669H20.1667C21.2161 20.7657 22.2222 20.3483 22.9643 19.6062C23.7063 18.8641 24.1238 17.858 24.125 16.8086V15.1845L30.1885 19.5369C30.5506 19.7177 30.9529 19.803 31.3572 19.7846C31.7615 19.7663 32.1545 19.645 32.4987 19.4322C32.843 19.2193 33.1271 18.9221 33.3242 18.5686C33.5214 18.2151 33.6249 17.8171 33.625 17.4124V3.53581C33.6263 3.13074 33.5234 2.73213 33.3261 2.37834C33.1289 2.02455 32.8439 1.72747 32.4986 1.51567ZM22.5417 16.8086C22.541 17.4383 22.2905 18.042 21.8453 18.4872C21.4 18.9325 20.7963 19.1829 20.1667 19.1836H4.33333C3.70366 19.1829 3.09996 18.9325 2.65471 18.4872C2.20946 18.042 1.95902 17.4383 1.95833 16.8086V4.14193C1.95902 3.51225 2.20946 2.90856 2.65471 2.46331C3.09996 2.01806 3.70366 1.76761 4.33333 1.76693H20.1667C20.7963 1.76761 21.4 2.01806 21.8453 2.46331C22.2905 2.90856 22.541 3.51225 22.5417 4.14193V16.8086ZM32.0417 17.4124C32.0394 17.5373 32.0086 17.6601 31.9516 17.7713C31.8946 17.8825 31.8129 17.9791 31.7127 18.0538C31.6126 18.1285 31.4966 18.1793 31.3738 18.2023C31.251 18.2252 31.1245 18.2198 31.0042 18.1863L24.125 13.236V7.71371L30.8959 2.82763C31.0166 2.76736 31.1507 2.73892 31.2855 2.74502C31.4203 2.75113 31.5513 2.79157 31.6661 2.86251C31.7809 2.93345 31.8756 3.03254 31.9413 3.15037C32.0071 3.26821 32.0416 3.40088 32.0417 3.53581V17.4124Z" fill="white"/>
</svg>
