<svg width="670" height="346" viewBox="0 0 670 346" fill="none" xmlns="http://www.w3.org/2000/svg">
<path d="M297.08 346V345.754H293.699V345.508H290.559V345.262H288.385V345.016H286.211V344.77H284.037V344.525H282.588V344.279H280.898V344.033H279.448V343.787H277.999V343.541H276.55V343.295H275.342V343.049H274.135V342.803H272.927V342.557H271.72V342.311H270.512V342.065H269.304V341.819H268.338V341.574H267.372V341.328H266.406V341.082H265.198V340.836H264.232V340.59H263.508V340.344H262.541V340.098H261.575V339.852H260.851V339.606H259.885V339.36H259.16V339.114H258.435V338.869H257.711V338.623H256.745V338.377H256.02V338.131H255.296V337.885H254.571V337.639H253.846V337.393H253.122V337.147H252.397V336.901H251.914V336.655H251.19V336.409H250.465V336.163H249.74V335.918H249.016V335.672H248.533V335.426H247.808V335.18H247.325V334.934H246.601V334.688H246.118V334.442H245.393V334.196H244.668V333.95H244.185V333.704H243.702V333.458H242.978V333.213H242.495V332.967H242.012V332.721H241.287V332.475H240.804V332.229H240.079V331.983H239.596V331.737H239.113V331.491H238.63V331.245H237.906V330.999H237.422V330.753H236.939V330.507H236.456V330.262H235.973V330.016H235.49V329.77H234.766V329.524H234.283V329.278H233.8V329.032H233.317V328.786H232.833V328.54H232.35V328.294H231.867V328.048H231.384V327.802H230.901V327.557H230.418V327.311H229.935V327.065H229.452V326.819H228.969V326.573H228.486V326.327H228.003V326.081H227.52V325.835H227.037V325.589H226.554V325.343H226.071V325.097H225.829V324.851H225.346V324.606H224.863V324.36H224.38V324.114H223.897V323.868H223.414V323.622H222.931V323.376H222.689V323.13H222.206V322.884H221.723V322.638H221.24V322.392H220.999V322.146H220.515V321.9H220.032V321.655H219.791V321.409H219.308V321.163H218.825V320.917H218.342V320.671H218.1V320.425H217.617V320.179H217.134V319.933H216.893V319.687H216.41V319.441H215.926V319.195H215.685V318.95H215.202V318.704H214.96V318.458H214.477V318.212H213.994V317.966H213.753V317.72H213.27V317.474H213.028V317.228H212.545V316.982H212.062V316.736H211.82V316.49H211.337V316.244H211.096V315.999H210.613V315.753H210.371V315.507H209.888V315.261H209.647V315.015H209.164V314.769H208.922V314.523H208.439V314.277H208.198V314.031H207.956V313.785H207.473V313.539H207.231V313.294H206.748V313.048H206.507V312.802H206.024V312.556H205.782V312.31H205.299V312.064H205.058V311.818H204.575V311.572H204.333V311.326H204.092V311.08H203.609V310.834H203.367V310.588H203.125V310.343H202.642V310.097H202.401V309.851H202.159V309.605H201.676V309.359H201.435V309.113H201.193V308.867H200.71V308.621H200.469V308.375H200.227V308.129H199.744V307.883H199.503V307.638H199.261V307.392H198.778V307.146H198.536V306.9H198.295V306.654H198.053V306.408H197.812V306.162H197.329V305.916H197.087V305.67H196.846V305.424H196.604V305.178H196.121V304.932H195.88V304.687H195.638V304.441H195.397V304.195H195.155V303.949H194.672V303.703H194.43V303.457H194.189V303.211H193.947V302.965H193.464V302.719H193.223V302.473H192.981V302.227H192.74V301.982H192.498V301.736H192.257V301.49H192.015V301.244H191.532V300.998H191.291V300.752H191.049V300.506H190.807V300.26H190.566V300.014H190.324V299.768H190.083V299.522H189.841V299.276H189.6V299.031H189.117V298.785H188.875V298.539H188.634V298.293H188.392V298.047H188.151V297.801H187.909V297.555H187.668V297.309H187.426V297.063H187.185V296.817H186.943V296.571H186.702V296.326H186.46V296.08H186.218V295.834H185.977V295.588H185.735V295.342H185.494V295.096H185.252V294.85H185.011V294.604H184.769V294.358H184.528V294.112H184.286V293.866H184.045V293.62H183.803V293.375H183.562V293.129H183.32V292.883H183.079V292.637H182.837V292.391H182.596V292.145H182.354V291.899H182.112V291.653H181.871V291.407H181.629V291.161H181.388V290.915H181.146V290.67H180.905V290.424H180.663V290.178H180.422V289.932H180.18V289.44H179.939V289.194H179.697V288.948H179.456V288.702H179.214V288.456H178.973V288.21H178.731V287.964H178.49V287.719H178.248V287.473H178.006V287.227H177.765V286.981H177.523V286.489H177.282V286.243H177.04V285.997H176.799V285.751H176.557V285.505H176.316V285.014H176.074V284.768H175.833V284.522H175.591V284.276H175.35V283.784H175.108V283.538H174.867V283.292H174.625V283.046H174.384V282.8H174.142V282.308H173.9V282.063H173.659V281.817H173.417V281.571H173.176V281.079H172.934V280.833H172.693V280.587H172.451V280.341H172.21V279.849H171.968V279.603H171.727V279.112H171.485V278.866H171.244V278.62H171.002V278.128H170.761V277.882H170.519V277.636H170.278V277.144H170.036V276.898H169.795V276.407H169.553V276.161H169.311V275.915H169.07V275.423H168.828V275.177H168.587V274.685H168.345V274.439H168.104V274.193H167.862V273.701H167.621V273.456H167.379V272.964H167.138V272.472H166.896V272.226H166.655V271.734H166.413V271.488H166.172V270.996H165.93V270.505H165.689V270.259H165.447V269.767H165.205V269.521H164.964V269.029H164.722V268.783H164.481V268.291H164.239V267.8H163.998V267.554H163.756V267.062H163.515V266.57H163.273V266.078H163.032V265.832H162.79V265.34H162.549V264.849H162.307V264.357H162.066V263.865H161.824V263.373H161.583V263.127H161.341V262.635H161.1V262.144H160.858V261.652H160.616V261.16H160.375V260.668H160.133V260.176H159.892V259.684H159.65V259.193H159.409V258.701H159.167V258.209H158.926V257.717H158.684V256.979H158.443V256.488H158.201V255.996H157.96V255.504H157.718V255.012H157.477V254.274H157.235V253.783H156.994V253.291H156.752V252.799H156.51V252.061H156.269V251.569H156.027V250.832H155.786V250.094H155.544V249.602H155.303V248.864H155.061V248.127H154.82V247.635H154.578V246.897H154.337V246.159H154.095V245.667H153.854V244.93H153.612V243.946H153.371V243.208H153.129V242.225H152.888V241.487H152.646V240.749H152.404V239.765H152.163V239.028H151.921V238.044H151.68V237.306H151.438V236.323H151.197V235.093H150.955V233.864H150.714V232.88H150.472V231.65H150.231V230.421H149.989V229.437H149.748V227.962H149.506V226.24H149.265V224.519H149.023V222.552H148.782V220.83H148.54V218.371H148.298V214.19H148.057V199.19H148.298V196.485H148.54V193.534H148.782V190.829H149.023V189.107H149.265V187.632H149.506V185.91H149.748V184.435H149.989V182.959H150.231V181.238H150.472V179.763H150.714V178.779H150.955V177.795H151.197V176.566H151.438V175.582H151.68V174.598H151.921V173.369H152.163V172.385H152.404V171.156H152.646V170.172H152.888V169.188H153.129V168.205H153.371V167.467H153.612V166.729H153.854V165.746H154.095V165.008H154.337V164.27H154.578V163.286H154.82V162.549H155.061V161.811H155.303V160.827H155.544V160.09H155.786V159.352H156.027V158.368H156.269V157.63H156.51V156.893H156.752V156.155H156.994V155.663H157.235V154.925H157.477V154.188H157.718V153.45H157.96V152.712H158.201V152.22H158.443V151.483H158.684V150.745H158.926V150.007H159.167V149.269H159.409V148.778H159.65V148.04H159.892V147.548H160.133V146.81H160.375V146.318H160.616V145.581H160.858V145.089H161.1V144.351H161.341V143.859H161.583V143.367H161.824V142.876H162.066V142.138H162.307V141.646H162.549V141.154H162.79V140.662H163.032V140.171H163.273V139.433H163.515V139.187H163.756V138.695H163.998V138.203H164.239V137.711H164.481V137.22H164.722V136.728H164.964V136.236H165.205V135.744H165.447V135.252H165.689V134.76H165.93V134.515H166.172V134.023H166.413V133.531H166.655V133.039H166.896V132.547H167.138V132.055H167.379V131.81H167.621V131.318H167.862V131.072H168.104V130.58H168.345V130.088H168.587V129.842H168.828V129.35H169.07V128.859H169.311V128.613H169.553V128.121H169.795V127.629H170.036V127.383H170.278V126.891H170.519V126.645H170.761V126.154H171.002V125.908H171.244V125.416H171.485V125.17H171.727V124.678H171.968V124.432H172.21V123.94H172.451V123.694H172.693V123.448H172.934V122.957H173.176V122.711H173.417V122.219H173.659V121.973H173.9V121.727H174.142V121.235H174.384V120.989H174.625V120.498H174.867V120.252H175.108V120.006H175.35V119.514H175.591V119.268H175.833V119.022H176.074V118.53H176.316V118.284H176.557V118.038H176.799V117.792H177.04V117.301H177.282V117.055H177.523V116.809H177.765V116.563H178.006V116.071H178.248V115.825H178.49V115.579H178.731V115.333H178.973V114.842H179.214V114.596H179.456V114.35H179.697V114.104H179.939V113.858H180.18V113.366H180.422V113.12H180.663V112.874H180.905V112.628H181.146V112.382H181.388V112.136H181.629V111.891H181.871V111.645H182.112V111.153H182.354V110.907H182.596V110.661H182.837V110.415H183.079V110.169H183.32V109.923H183.562V109.677H183.803V109.431H184.045V108.94H184.286V108.694H184.528V108.448H184.769V108.202H185.011V107.956H185.252V107.71H185.494V107.464H185.735V107.218H185.977V106.972H186.218V106.726H186.46V106.48H186.702V106.235H186.943V105.989H187.185V105.743H187.426V105.497H187.668V105.251H187.909V105.005H188.151V104.759H188.392V104.513H188.634V104.267H188.875V104.021H189.117V103.775H189.358V103.529H189.6V103.284H189.841V103.038H190.083V102.792H190.324V102.546H190.566V102.3H190.807V102.054H191.049V101.808H191.291V101.562H191.774V101.316H192.015V101.07H192.257V100.824H192.498V100.579H192.74V100.333H192.981V100.087H193.223V99.8408H193.464V99.5949H193.706V99.349H194.189V99.1031H194.43V98.8571H194.672V98.6112H194.913V98.3653H195.155V98.1194H195.397V97.8735H195.638V97.6276H195.88V97.3817H196.121V97.1358H196.604V96.8898H196.846V96.6439H197.087V96.398H197.329V96.1521H197.57V95.9062H198.053V95.6603H198.295V95.4144H198.536V95.1685H198.778V94.9225H199.261V94.6766H199.503V94.4307H199.744V94.1848H199.986V93.9389H200.227V93.6929H200.71V93.4471H200.952V93.2011H201.193V92.9552H201.435V92.7093H201.918V92.4634H202.159V92.2175H202.401V91.9716H202.642V91.7257H203.125V91.4798H203.367V91.2338H203.85V90.9879H204.092V90.742H204.333V90.4961H204.816V90.2502H205.058V90.0043H205.299V89.7584H205.782V89.5125H206.024V89.2665H206.265V89.0206H206.748V88.7747H206.99V88.5288H207.231V88.2829H207.714V88.037H207.956V87.791H208.198V87.5451H208.681V87.2992H208.922V87.0533H209.405V86.8074H209.647V86.5615H210.13V86.3156H210.371V86.0697H210.854V85.8238H211.096V85.5778H211.579V85.3319H211.82V85.086H212.304V84.8401H212.545V84.5942H213.028V84.3482H213.27V84.1024H213.753V83.8564H213.994V83.6105H214.477V83.3646H214.719V83.1187H215.202V82.8728H215.443V82.6269H215.926V82.3809H216.168V82.135H216.651V81.8891H217.134V81.6432H217.376V81.3973H217.859V81.1514H218.342V80.9055H218.583V80.6596H219.066V80.4136H219.549V80.1677H219.791V79.9218H220.274V79.6759H220.515V79.43H220.999V79.1841H221.482V78.9382H221.723V78.6923H222.206V78.4464H222.689V78.2004H223.172V77.9545H223.414V77.7086H223.897V77.4627H224.38V77.2168H224.863V76.9709H225.346V76.725H225.829V76.4791H226.071V76.2332H226.554V75.9872H227.037V75.7413H227.52V75.4954H228.003V75.2495H228.244V75.0036H228.727V74.7576H229.211V74.5117H229.694V74.2658H230.177V74.0199H230.66V73.774H231.143V73.5281H231.626V73.2822H232.109V73.0363H232.592V72.7903H233.075V72.5444H233.558V72.2985H234.041V72.0526H234.524V71.8067H235.007V71.5608H235.49V71.3149H235.973V71.0689H236.456V70.823H236.939V70.5771H237.664V70.3312H238.147V70.0853H238.63V69.8394H239.113V69.5934H239.596V69.3476H240.321V69.1016H240.804V68.8557H241.287V68.6098H241.77V68.3639H242.495V68.118H242.978V67.8721H243.461V67.6262H243.944V67.3802H244.668V67.1343H245.151V66.8884H245.876V66.6425H246.359V66.3966H247.084V66.1507H247.567V65.9048H248.291V65.6588H248.774V65.4129H249.499V65.167H249.982V64.9211H250.707V64.6752H251.19V64.4293H251.914V64.1834H252.639V63.9375H253.363V63.6916H253.846V63.4456H254.571V63.1997H255.296V62.9538H256.02V62.7079H256.745V62.462H257.228V62.2161H257.952V61.9702H258.677V61.7243H259.402V61.4783H260.126V61.2324H260.851V60.9865H261.817V60.7406H262.541V60.4947H263.266V60.2487H263.991V60.0028H264.715V59.757H265.681V59.511H266.406V59.2651H267.131V59.0192H268.097V58.7733H269.063V58.5274H269.787V58.2815H270.753V58.0356H271.72V57.7896H272.686V57.5437H273.41V57.2978H274.376V57.0519H275.342V56.806H276.309V56.5601H277.516V56.3141H278.482V56.0682H279.69V55.8223H280.656V55.5764H281.864V55.3305H282.83V55.0846H284.037V54.8387H285.487V54.5927H286.694V54.3468H288.143V54.1009H289.351V53.855H290.8V53.6091H292.491V53.3632H294.182V53.1173H295.872V52.8714H297.563V52.6254H299.495V52.3795H301.911V52.1336H304.567V51.8877H306.983V51.6418H311.572V51.3959H322.924V51.15H323.165V51.3959H329.445V51.6418H333.068V51.8877H335.725V52.1336H338.381V52.3795H340.314V52.6254H342.004V52.8714H343.695V53.1173H345.386V53.3632H346.835V53.6091H348.043V53.855H349.492V54.1009H350.699V54.3468H351.907V54.5927H353.115V54.8387H354.322V55.0846H355.047V55.3305H356.013V55.5764H356.979V55.8223H357.945V56.0682H358.911V56.3141H359.877V56.5601H360.844V56.806H361.568V57.0519H362.293V57.2978H363.259V57.5437H363.983V57.7896H364.708V58.0356H365.433V58.2815H366.157V58.5274H366.882V58.7733H367.606V59.0192H368.331V59.2651H369.056V59.511H369.78V59.757H370.263V60.0028H370.988V60.2487H371.712V60.4947H372.195V60.7406H372.92V60.9865H373.403V61.2324H374.128V61.4783H374.611V61.7243H374.852V61.9702H374.369V61.7243H373.403V61.4783H372.678V61.2324H371.712V60.9865H370.746V60.7406H369.78V60.4947H368.814V60.2487H367.848V60.0028H366.882V59.757H365.674V59.511H364.225V59.2651H362.776V59.0192H361.568V58.7733H360.119V58.5274H358.67V58.2815H356.255V58.0356H353.356V57.7896H350.699V57.5437H340.072V57.7896H336.691V58.0356H333.068V58.2815H331.377V58.5274H329.686V58.7733H327.996V59.0192H326.305V59.2651H324.614V59.511H323.165V59.757H322.199V60.0028H320.991V60.2487H319.784V60.4947H318.576V60.7406H317.61V60.9865H316.402V61.2324H315.195V61.4783H314.47V61.7243H313.504V61.9702H312.779V62.2161H311.813V62.462H310.847V62.7079H310.123V62.9538H309.156V63.1997H308.432V63.4456H307.466V63.6916H306.741V63.9375H306.017V64.1834H305.292V64.4293H304.567V64.6752H303.843V64.9211H303.118V65.167H302.394V65.4129H301.669V65.6588H300.944V65.9048H300.22V66.1507H299.737V66.3966H299.012V66.6425H298.288V66.8884H297.563V67.1343H297.08V67.3802H296.355V67.6262H295.872V67.8721H295.148V68.118H294.665V68.3639H294.182V68.6098H293.457V68.8557H292.974V69.1016H292.249V69.3476H291.766V69.5934H291.042V69.8394H290.559V70.0853H289.834V70.3312H289.351V70.5771H288.868V70.823H288.385V71.0689H287.902V71.3149H287.419V71.5608H286.936V71.8067H286.453V72.0526H285.728V72.2985H285.245V72.5444H284.762V72.7903H284.279V73.0363H283.796V73.2822H283.313V73.5281H282.83V73.774H282.347V74.0199H281.864V74.2658H281.381V74.5117H280.898V74.7576H280.415V75.0036H279.932V75.2495H279.448V75.4954H278.965V75.7413H278.482V75.9872H278.241V76.2332H277.758V76.4791H277.275V76.725H276.792V76.9709H276.309V77.2168H275.826V77.4627H275.584V77.7086H275.101V77.9545H274.618V78.2004H274.135V78.4464H273.652V78.6923H273.169V78.9382H272.927V79.1841H272.444V79.43H271.961V79.6759H271.72V79.9218H271.236V80.1677H270.753V80.4136H270.512V80.6596H270.029V80.9055H269.787V81.1514H269.304V81.3973H268.821V81.6432H268.58V81.8891H268.097V82.135H267.614V82.3809H267.372V82.6269H266.889V82.8728H266.647V83.1187H266.164V83.3646H265.681V83.6105H265.44V83.8564H264.957V84.1024H264.715V84.3482H264.232V84.5942H263.991V84.8401H263.508V85.086H263.266V85.3319H262.783V85.5778H262.541V85.8238H262.058V86.0697H261.817V86.3156H261.334V86.5615H261.092V86.8074H260.851V87.0533H260.368V87.2992H260.126V87.5451H259.643V87.791H259.402V88.037H258.919V88.2829H258.677V88.5288H258.194V88.7747H257.952V89.0206H257.711V89.2665H257.228V89.5125H256.986V89.7584H256.503V90.0043H256.262V90.2502H256.02V90.4961H255.537V90.742H255.296V90.9879H255.054V91.2338H254.813V91.4798H254.329V91.7257H254.088V91.9716H253.846V92.2175H253.363V92.4634H253.122V92.7093H252.88V92.9552H252.397V93.2011H252.156V93.4471H251.914V93.6929H251.673V93.9389H251.19V94.1848H250.948V94.4307H250.707V94.6766H250.224V94.9225H249.982V95.1685H249.74V95.4144H249.257V95.6603H249.016V95.9062H248.774V96.1521H248.533V96.398H248.291V96.6439H248.05V96.8898H247.567V97.1358H247.325V97.3817H247.084V97.6276H246.842V97.8735H246.601V98.1194H246.359V98.3653H245.876V98.6112H245.634V98.8571H245.393V99.1031H245.151V99.349H244.91V99.5949H244.668V99.8408H244.185V100.087H243.944V100.333H243.702V100.579H243.461V100.824H243.219V101.07H242.978V101.316H242.495V101.562H242.253V101.808H242.012V102.054H241.77V102.3H241.528V102.546H241.287V102.792H241.045V103.038H240.804V103.284H240.562V103.529H240.321V103.775H240.079V104.021H239.838V104.267H239.596V104.513H239.355V104.759H239.113V105.005H238.872V105.251H238.389V105.497H238.147V105.743H237.906V105.989H237.664V106.235H237.422V106.48H237.181V106.726H236.939V106.972H236.698V107.218H236.456V107.464H236.215V107.71H235.973V107.956H235.732V108.202H235.49V108.448H235.249V108.694H235.007V108.94H234.766V109.186H234.524V109.431H234.283V109.677H234.041V109.923H233.8V110.169H233.558V110.415H233.317V110.661H233.075V110.907H232.833V111.153H232.592V111.645H232.35V111.891H232.109V112.136H231.867V112.382H231.626V112.628H231.384V112.874H231.143V113.12H230.901V113.366H230.66V113.612H230.418V113.858H230.177V114.104H229.935V114.35H229.694V114.596H229.452V114.842H229.211V115.087H228.969V115.333H228.727V115.825H228.486V116.071H228.244V116.317H228.003V116.563H227.761V116.809H227.52V117.301H227.278V117.547H227.037V117.792H226.795V118.038H226.554V118.284H226.312V118.53H226.071V119.022H225.829V119.268H225.588V119.514H225.346V119.76H225.105V120.006H224.863V120.498H224.622V120.743H224.38V120.989H224.138V121.235H223.897V121.481H223.655V121.727H223.414V122.219H223.172V122.465H222.931V122.711H222.689V122.957H222.448V123.448H222.206V123.694H221.965V123.94H221.723V124.432H221.482V124.678H221.24V124.924H220.999V125.416H220.757V125.662H220.515V125.908H220.274V126.399H220.032V126.645H219.791V126.891H219.549V127.383H219.308V127.629H219.066V127.875H218.825V128.367H218.583V128.613H218.342V128.859H218.1V129.35H217.859V129.596H217.617V129.842H217.376V130.334H217.134V130.58H216.893V131.072H216.651V131.318H216.41V131.81H216.168V132.055H215.926V132.547H215.685V132.793H215.443V133.285H215.202V133.531H214.96V134.023H214.719V134.269H214.477V134.76H214.236V135.006H213.994V135.498H213.753V135.744H213.511V136.236H213.27V136.482H213.028V136.974H212.787V137.22H212.545V137.711H212.304V137.957H212.062V138.449H211.82V138.941H211.579V139.187H211.337V139.679H211.096V140.171H210.854V140.662H210.613V140.908H210.371V141.4H210.13V141.892H209.888V142.384H209.647V142.63H209.405V143.122H209.164V143.613H208.922V144.105H208.681V144.351H208.439V144.843H208.198V145.335H207.956V145.827H207.714V146.073H207.473V146.564H207.231V147.056H206.99V147.548H206.748V148.04H206.507V148.532H206.265V149.023H206.024V149.515H205.782V150.007H205.541V150.745H205.299V151.237H205.058V151.729H204.816V152.22H204.575V152.712H204.333V153.204H204.092V153.696H203.85V154.188H203.609V154.679H203.367V155.171H203.125V155.909H202.884V156.401H202.642V157.139H202.401V157.63H202.159V158.368H201.918V158.86H201.676V159.352H201.435V160.09H201.193V160.581H200.952V161.319H200.71V161.811H200.469V162.549H200.227V163.041H199.986V163.778H199.744V164.516H199.503V165.254H199.261V165.991H199.019V166.729H198.778V167.467H198.536V168.451H198.295V169.188H198.053V169.926H197.812V170.664H197.57V171.402H197.329V172.139H197.087V173.123H196.846V174.107H196.604V175.336H196.363V176.32H196.121V177.303H195.88V178.287H195.638V179.271H195.397V180.254H195.155V181.73H194.913V183.205H194.672V184.927H194.43V186.402H194.189V187.878H193.947V189.599H193.706V192.55H193.464V196.239H193.223V208.043H193.464V210.256H193.706V212.715H193.947V214.928H194.189V217.141H194.43V218.371H194.672V219.355H194.913V220.584H195.155V221.814H195.397V223.043H195.638V224.273H195.88V225.502H196.121V226.486H196.363V227.47H196.604V228.208H196.846V229.191H197.087V229.929H197.329V230.913H197.57V231.65H197.812V232.634H198.053V233.372H198.295V234.109H198.536V234.847H198.778V235.339H199.019V235.831H199.261V236.323H199.503V237.06H199.744V237.306H199.986V237.798H200.227V238.29H200.469V238.782H200.71V239.274H200.952V239.765H201.193V240.257H201.435V240.749H201.676V241.241H201.918V241.733H202.159V241.979H202.401V242.471H202.642V242.962H202.884V243.208H203.125V243.7H203.367V244.192H203.609V244.438H203.85V244.93H204.092V245.421H204.333V245.913H204.575V246.159H204.816V246.651H205.058V247.143H205.299V247.389H205.541V247.881H205.782V248.127H206.024V248.618H206.265V248.864H206.507V249.356H206.748V249.602H206.99V250.094H207.231V250.34H207.473V250.832H207.714V251.077H207.956V251.569H208.198V251.815H208.439V252.307H208.681V252.553H208.922V253.045H209.164V253.291H209.405V253.783H209.647V254.028H209.888V254.274H210.13V254.766H210.371V255.012H210.613V255.258H210.854V255.75H211.096V255.996H211.337V256.242H211.579V256.733H211.82V256.979H212.062V257.225H212.304V257.717H212.545V257.963H212.787V258.209H213.028V258.701H213.27V258.947H213.511V259.193H213.753V259.439H213.994V259.684H214.236V259.93H214.477V260.422H214.719V260.668H214.96V260.914H215.202V261.16H215.443V261.406H215.685V261.898H215.926V262.144H216.168V262.389H216.41V262.635H216.651V262.881H216.893V263.127H217.134V263.619H217.376V263.865H217.617V264.111H217.859V264.357H218.1V264.603H218.342V264.849H218.583V265.095H218.825V265.34H219.066V265.586H219.308V265.832H219.549V266.078H219.791V266.324H220.032V266.57H220.274V266.816H220.515V267.062H220.757V267.308H220.999V267.554H221.24V267.8H221.482V268.045H221.723V268.537H222.206V268.783H222.448V269.029H222.689V269.275H222.931V269.521H223.172V269.767H223.414V270.013H223.655V270.259H223.897V270.505H224.138V270.751H224.38V270.996H224.622V271.242H224.863V271.488H225.105V271.734H225.346V271.98H225.829V272.226H226.071V272.472H226.312V272.718H226.554V272.964H226.795V273.21H227.037V273.456H227.278V273.701H227.761V273.947H228.003V274.193H228.244V274.439H228.486V274.685H228.727V274.931H229.211V275.177H229.452V275.423H229.694V275.669H229.935V275.915H230.177V276.161H230.66V276.407H230.901V276.652H231.143V276.898H231.384V277.144H231.867V277.39H232.109V277.636H232.35V277.882H232.833V278.128H233.075V278.374H233.317V278.62H233.8V278.866H234.041V279.112H234.283V279.358H234.766V279.603H235.007V279.849H235.249V280.095H235.732V280.341H235.973V280.587H236.215V280.833H236.698V281.079H236.939V281.325H237.422V281.571H237.664V281.817H238.147V282.063H238.389V282.308H238.872V282.554H239.113V282.8H239.596V283.046H239.838V283.292H240.321V283.538H240.562V283.784H241.045V284.03H241.287V284.276H241.77V284.522H242.253V284.768H242.495V285.014H242.978V285.259H243.461V285.505H243.702V285.751H244.185V285.997H244.668V286.243H245.151V286.489H245.393V286.735H245.876V286.981H246.359V287.227H246.601V287.473H247.084V287.719H247.567V287.964H248.05V288.21H248.533V288.456H249.016V288.702H249.257V288.948H249.74V289.194H250.224V289.44H250.707V289.686H251.19V289.932H251.673V290.178H252.156V290.424H252.639V290.67H253.122V290.915H253.605V291.161H254.088V291.407H254.571V291.653H255.054V291.899H255.779V292.145H256.262V292.391H256.745V292.637H257.228V292.883H257.711V293.129H258.194V293.375H258.677V293.62H259.402V293.866H259.885V294.112H260.609V294.358H261.092V294.604H261.817V294.85H262.3V295.096H262.783V295.342H263.508V295.588H263.991V295.834H264.715V296.08H265.198V296.326H265.923V296.571H266.647V296.817H267.372V297.063H268.097V297.309H268.58V297.555H269.304V297.801H270.029V298.047H270.753V298.293H271.478V298.539H272.203V298.785H272.927V299.031H273.652V299.276H274.376V299.522H275.101V299.768H276.067V300.014H276.792V300.26H277.516V300.506H278.482V300.752H279.207V300.998H280.173V301.244H281.139V301.49H281.864V301.736H282.83V301.982H283.796V302.227H284.762V302.473H285.728V302.719H286.694V302.965H287.66V303.211H288.868V303.457H289.834V303.703H290.8V303.949H292.008V304.195H293.216V304.441H294.423V304.687H295.872V304.932H297.08V305.178H298.288V305.424H299.737V305.67H301.186V305.916H302.635V306.162H304.084V306.408H305.775V306.654H307.707V306.9H309.398V307.146H311.33V307.392H313.262V307.638H315.678V307.883H317.851V308.129H320.508V308.375H323.648V308.621H326.788V308.867H331.136V309.113H336.691V309.359H361.81V309.113H368.331V308.867H373.161V308.621H377.026V308.375H380.649V308.129H384.03V307.883H386.929V307.638H390.069V307.392H392.725V307.146H395.141V306.9H397.797V306.654H399.971V306.408H402.386V306.162H404.56V305.916H406.734V305.67H408.908V305.424H410.84V305.178H412.772V304.932H414.704V304.687H416.637V304.441H418.569V304.195H420.26V303.949H422.192V303.703H423.882V303.457H425.573V303.211H427.264V302.965H428.955V302.719H430.645V302.473H432.336V302.227H434.027V301.982H435.476V301.736H437.167V301.49H438.616V301.244H440.306V300.998H441.756V300.752H443.446V300.506H444.895V300.26H446.345V300.014H447.794V299.768H449.243V299.522H450.692V299.276H452.141V299.031H453.591V298.785H455.04V298.539H456.247V298.293H457.696V298.047H459.146V297.801H460.595V297.555H461.802V297.309H463.252V297.063H464.459V296.817H465.908V296.571H467.358V296.326H468.565V296.08H469.773V295.834H471.222V295.588H472.43V295.342H473.637V295.096H475.087V294.85H476.294V294.604H477.502V294.358H478.951V294.112H480.159V293.866H481.366V293.62H482.574V293.375H483.782V293.129H484.989V292.883H486.197V292.637H487.646V292.391H488.854V292.145H490.061V291.899H491.269V291.653H492.477V291.407H493.684V291.161H494.892V290.915H495.858V290.67H497.066V290.424H498.273V290.178H499.481V289.932H500.689V289.686H501.896V289.44H503.104V289.194H504.311V288.948H505.278V288.702H506.485V288.456H507.693V288.21H508.901V287.964H510.108V287.719H511.074V287.473H512.282V287.227H513.49V286.981H514.456V286.735H515.663V286.489H516.871V286.243H518.079V285.997H519.045V285.751H520.252V285.505H521.46V285.259H522.426V285.014H523.634V284.768H524.6V284.522H525.808V284.276H527.015V284.03H527.981V283.784H529.189V283.538H530.155V283.292H531.363V283.046H532.57V282.8H533.536V282.554H534.744V282.308H535.71V282.063H536.918V281.817H537.884V281.571H539.092V281.325H540.058V281.079H541.265V280.833H542.231V280.587H543.439V280.341H544.405V280.095H545.613V279.849H546.579V279.603H547.787V279.358H548.753V279.112H549.96V278.866H550.927V278.62H552.134V278.374H553.1V278.128H554.308V277.882H555.274V277.636H556.482V277.39H557.448V277.144H558.655V276.898H559.621V276.652H560.588V276.407H561.795V276.161H562.761V275.915H563.969V275.669H564.935V275.423H566.143V275.177H567.109V274.931H568.317V274.685H569.283V274.439H570.249V274.193H571.456V273.947H572.422V273.701H573.63V273.456H574.596V273.21H575.804V272.964H576.77V272.718H577.978V272.472H578.944V272.226H579.91V271.98H581.118V271.734H582.084V271.488H583.291V271.242H584.257V270.996H585.465V270.751H586.431V270.505H587.639V270.259H588.605V270.013H589.812V269.767H590.779V269.521H591.986V269.275H592.952V269.029H594.16V268.783H595.126V268.537H596.334V268.291H597.3V268.045H598.508V267.8H599.474V267.554H600.681V267.308H601.647V267.062H602.855V266.816H603.821V266.57H605.029V266.324H605.995V266.078H607.203V265.832H608.169V265.586H609.376V265.34H610.584V265.095H611.55V264.849H612.758V264.603H613.724V264.357H614.931V264.111H616.139V263.865H617.105V263.619H618.313V263.373H619.521V263.127H620.487V262.881H621.694V262.635H622.902V262.389H623.868V262.144H625.076V261.898H626.283V261.652H627.249V261.406H628.457V261.16H629.665V260.914H630.872V260.668H632.08V260.422H633.046V260.176H634.254V259.93H635.461V259.684H636.669V259.439H637.877V259.193H639.084V258.947H640.292V258.701H641.5V258.455H642.707V258.209H643.915V257.963H645.123V257.717H646.33V257.471H647.538V257.225H648.745V256.979H649.953V256.733H651.161V256.488H652.61V256.242H653.818V255.996H655.025V255.75H656.233V255.504H657.682V255.258H658.89V255.012H660.097V254.766H661.546V254.52H662.754V254.274H664.203V254.028H665.411V253.783H666.86V253.537H668.309V253.291H669.517V253.045H670V253.537H669.034V253.783H668.309V254.028H667.585V254.274H666.619V254.52H665.894V254.766H664.928V255.012H664.203V255.258H663.479V255.504H662.513V255.75H661.788V255.996H660.822V256.242H660.097V256.488H659.373V256.733H658.407V256.979H657.682V257.225H656.716V257.471H655.991V257.717H655.025V257.963H654.301V258.209H653.576V258.455H652.61V258.701H651.885V258.947H650.919V259.193H650.195V259.439H649.47V259.684H648.504V259.93H647.779V260.176H646.813V260.422H646.089V260.668H645.123V260.914H644.398V261.16H643.673V261.406H642.707V261.652H641.983V261.898H641.017V262.144H640.292V262.389H639.326V262.635H638.601V262.881H637.877V263.127H636.911V263.373H636.186V263.619H635.22V263.865H634.495V264.111H633.529V264.357H632.805V264.603H632.08V264.849H631.114V265.095H630.389V265.34H629.423V265.586H628.699V265.832H627.732V266.078H627.008V266.324H626.042V266.57H625.317V266.816H624.593V267.062H623.627V267.308H622.902V267.554H621.936V267.8H621.211V268.045H620.245V268.291H619.521V268.537H618.554V268.783H617.83V269.029H617.105V269.275H616.139V269.521H615.415V269.767H614.448V270.013H613.724V270.259H612.758V270.505H612.033V270.751H611.067V270.996H610.342V271.242H609.376V271.488H608.652V271.734H607.927V271.98H606.961V272.226H606.237V272.472H605.27V272.718H604.546V272.964H603.58V273.21H602.855V273.456H601.889V273.701H601.164V273.947H600.198V274.193H599.474V274.439H598.508V274.685H597.783V274.931H597.058V275.177H596.092V275.423H595.368V275.669H594.402V275.915H593.677V276.161H592.711V276.407H591.986V276.652H591.02V276.898H590.296V277.144H589.329V277.39H588.605V277.636H587.639V277.882H586.914V278.128H585.948V278.374H585.224V278.62H584.257V278.866H583.533V279.112H582.808V279.358H581.842V279.603H581.118V279.849H580.151V280.095H579.427V280.341H578.461V280.587H577.736V280.833H576.77V281.079H576.045V281.325H575.079V281.571H574.355V281.817H573.389V282.063H572.664V282.308H571.698V282.554H570.973V282.8H570.007V283.046H569.283V283.292H568.317V283.538H567.592V283.784H566.626V284.03H565.901V284.276H564.935V284.522H564.211V284.768H563.244V285.014H562.52V285.259H561.554V285.505H560.829V285.751H559.863V285.997H559.138V286.243H558.172V286.489H557.448V286.735H556.482V286.981H555.757V287.227H554.791V287.473H554.066V287.719H553.1V287.964H552.376V288.21H551.41V288.456H550.685V288.702H549.719V288.948H548.994V289.194H548.028V289.44H547.304V289.686H546.337V289.932H545.613V290.178H544.647V290.424H543.922V290.67H542.956V290.915H541.99V291.161H541.265V291.407H540.299V291.653H539.575V291.899H538.608V292.145H537.884V292.391H536.918V292.637H536.193V292.883H535.227V293.129H534.503V293.375H533.536V293.62H532.812V293.866H531.846V294.112H531.121V294.358H530.155V294.604H529.43V294.85H528.464V295.096H527.498V295.342H526.774V295.588H525.808V295.834H525.083V296.08H524.117V296.326H523.392V296.571H522.426V296.817H521.701V297.063H520.735V297.309H520.011V297.555H519.045V297.801H518.079V298.047H517.354V298.293H516.388V298.539H515.663V298.785H514.697V299.031H513.973V299.276H513.006V299.522H512.282V299.768H511.316V300.014H510.35V300.26H509.625V300.506H508.659V300.752H507.934V300.998H506.968V301.244H506.002V301.49H505.278V301.736H504.311V301.982H503.587V302.227H502.621V302.473H501.896V302.719H500.93V302.965H499.964V303.211H499.239V303.457H498.273V303.703H497.549V303.949H496.583V304.195H495.858V304.441H494.892V304.687H493.926V304.932H493.201V305.178H492.235V305.424H491.51V305.67H490.544V305.916H489.578V306.162H488.854V306.408H487.887V306.654H487.163V306.9H486.197V307.146H485.231V307.392H484.506V307.638H483.54V307.883H482.574V308.129H481.849V308.375H480.883V308.621H480.159V308.867H479.193V309.113H478.226V309.359H477.502V309.605H476.536V309.851H475.57V310.097H474.845V310.343H473.879V310.588H473.154V310.834H472.188V311.08H471.222V311.326H470.497V311.572H469.531V311.818H468.565V312.064H467.841V312.31H466.875V312.556H465.908V312.802H465.184V313.048H464.218V313.294H463.252V313.539H462.527V313.785H461.561V314.031H460.595V314.277H459.87V314.523H458.904V314.769H457.938V315.015H457.213V315.261H456.247V315.507H455.281V315.753H454.557V315.999H453.591V316.244H452.624V316.49H451.9V316.736H450.934V316.982H449.968V317.228H449.001V317.474H448.277V317.72H447.311V317.966H446.345V318.212H445.62V318.458H444.654V318.704H443.688V318.95H442.722V319.195H441.997V319.441H441.031V319.687H440.065V319.933H439.099V320.179H438.374V320.425H437.408V320.671H436.442V320.917H435.476V321.163H434.751V321.409H433.785V321.655H432.819V321.9H431.853V322.146H431.128V322.392H430.162V322.638H429.196V322.884H428.23V323.13H427.264V323.376H426.539V323.622H425.573V323.868H424.607V324.114H423.641V324.36H422.675V324.606H421.95V324.851H420.984V325.097H420.018V325.343H419.052V325.589H418.086V325.835H417.12V326.081H416.154V326.327H415.429V326.573H414.463V326.819H413.497V327.065H412.531V327.311H411.565V327.557H410.598V327.802H409.632V328.048H408.666V328.294H407.7V328.54H406.734V328.786H405.768V329.032H405.043V329.278H404.077V329.524H403.111V329.77H402.145V330.016H401.179V330.262H400.213V330.507H399.247V330.753H398.28V330.999H397.073V331.245H396.107V331.491H395.141V331.737H394.174V331.983H393.208V332.229H392.242V332.475H391.276V332.721H390.31V332.967H389.344V333.213H388.136V333.458H387.17V333.704H386.204V333.95H385.238V334.196H384.272V334.442H383.064V334.688H382.098V334.934H380.89V335.18H379.924V335.426H378.958V335.672H377.751V335.918H376.784V336.163H375.577V336.409H374.611V336.655H373.403V336.901H372.195V337.147H371.229V337.393H370.022V337.639H368.814V337.885H367.848V338.131H366.64V338.377H365.433V338.623H364.225V338.869H363.017V339.114H361.81V339.36H360.844V339.606H359.394V339.852H358.187V340.098H356.979V340.344H355.771V340.59H354.564V340.836H353.356V341.082H351.907V341.328H350.458V341.574H349.25V341.819H347.801V342.065H346.593V342.311H345.144V342.557H343.454V342.803H342.004V343.049H340.555V343.295H338.864V343.541H337.174V343.787H335.483V344.033H333.551V344.279H331.86V344.525H329.686V344.77H327.513V345.016H325.339V345.262H322.441V345.508H319.301V345.754H314.953V346H297.08ZM343.454 294.604V294.358H338.381V294.112H335.483V293.866H332.826V293.62H330.411V293.375H328.72V293.129H327.03V292.883H325.339V292.637H323.648V292.391H322.441V292.145H321.233V291.899H320.025V291.653H318.576V291.407H317.368V291.161H316.161V290.915H315.195V290.67H314.229V290.424H313.262V290.178H312.538V289.932H311.572V289.686H310.606V289.44H309.639V289.194H308.673V288.948H307.949V288.702H307.224V288.456H306.5V288.21H305.534V287.964H304.809V287.719H304.084V287.473H303.36V287.227H302.635V286.981H301.911V286.735H301.186V286.489H300.461V286.243H299.978V285.997H299.254V285.751H298.771V285.505H298.046V285.259H297.322V285.014H296.839V284.768H296.114V284.522H295.631V284.276H295.148V284.03H294.906V283.784H295.389V284.03H296.114V284.276H296.839V284.522H297.563V284.768H298.529V285.014H299.495V285.259H300.461V285.505H301.428V285.751H302.394V285.997H303.601V286.243H305.05V286.489H306.258V286.735H307.707V286.981H309.156V287.227H310.606V287.473H312.296V287.719H315.195V287.964H317.851V288.21H331.619V287.964H335V287.719H337.898V287.473H339.589V287.227H341.28V286.981H342.97V286.735H344.661V286.489H346.11V286.243H347.318V285.997H348.526V285.751H349.492V285.505H350.699V285.259H351.907V285.014H353.115V284.768H354.081V284.522H355.047V284.276H356.013V284.03H356.738V283.784H357.704V283.538H358.67V283.292H359.394V283.046H360.361V282.8H361.085V282.554H362.051V282.308H363.017V282.063H363.742V281.817H364.466V281.571H365.191V281.325H365.674V281.079H366.399V280.833H367.123V280.587H367.848V280.341H368.572V280.095H369.297V279.849H370.022V279.603H370.746V279.358H371.471V279.112H371.954V278.866H372.678V278.62H373.161V278.374H373.886V278.128H374.369V277.882H375.094V277.636H375.577V277.39H376.06V277.144H376.784V276.898H377.268V276.652H377.992V276.407H378.475V276.161H379.2V275.915H379.683V275.669H380.407V275.423H380.89V275.177H381.373V274.931H381.857V274.685H382.34V274.439H382.823V274.193H383.306V273.947H383.789V273.701H384.272V273.456H384.996V273.21H385.479V272.964H385.962V272.718H386.446V272.472H386.929V272.226H387.412V271.98H387.895V271.734H388.378V271.488H388.861V271.242H389.344V270.996H389.827V270.751H390.31V270.505H390.793V270.259H391.035V270.013H391.518V269.767H392.001V269.521H392.484V269.275H392.967V269.029H393.45V268.783H393.691V268.537H394.174V268.291H394.658V268.045H395.141V267.8H395.624V267.554H396.107V267.308H396.348V267.062H396.831V266.816H397.314V266.57H397.797V266.324H398.039V266.078H398.522V265.832H399.005V265.586H399.247V265.34H399.73V265.095H399.971V264.849H400.454V264.603H400.937V264.357H401.179V264.111H401.662V263.865H402.145V263.619H402.386V263.373H402.87V263.127H403.111V262.881H403.594V262.635H404.077V262.389H404.319V262.144H404.802V261.898H405.285V261.652H405.526V261.406H405.768V261.16H406.251V260.914H406.492V260.668H406.975V260.422H407.217V260.176H407.7V259.93H407.942V259.684H408.425V259.439H408.666V259.193H408.908V258.947H409.391V258.701H409.632V258.455H410.115V258.209H410.357V257.963H410.84V257.717H411.081V257.471H411.565V257.225H411.806V256.979H412.289V256.733H412.531V256.488H412.772V256.242H413.255V255.996H413.497V255.75H413.738V255.504H414.221V255.258H414.463V255.012H414.704V254.766H415.187V254.52H415.429V254.274H415.671V254.028H415.912V253.783H416.395V253.537H416.637V253.291H416.878V253.045H417.361V252.799H417.603V252.553H417.844V252.307H418.327V252.061H418.569V251.815H418.81V251.569H419.052V251.323H419.535V251.077H419.777V250.832H420.018V250.586H420.501V250.34H420.743V250.094H420.984V249.848H421.226V249.602H421.467V249.356H421.95V249.11H422.192V248.864H422.433V248.618H422.675V248.372H422.916V248.127H423.158V247.881H423.641V247.635H423.882V247.389H424.124V247.143H424.366V246.897H424.607V246.651H424.849V246.405H425.332V246.159H425.573V245.913H425.815V245.667H426.056V245.421H426.298V245.176H426.539V244.93H427.022V244.684H427.264V244.438H427.505V244.192H427.747V243.946H427.988V243.7H428.23V243.454H428.472V243.208H428.713V242.962H428.955V242.716H429.196V242.471H429.438V242.225H429.921V241.979H430.162V241.733H430.404V241.487H430.645V241.241H430.887V240.995H431.128V240.749H431.37V240.503H431.611V240.257H431.853V240.011H432.094V239.765H432.336V239.52H432.577V239.274H432.819V239.028H433.061V238.782H433.302V238.536H433.544V238.29H433.785V238.044H434.027V237.798H434.268V237.552H434.51V237.306H434.751V237.06H434.993V236.814H435.234V236.569H435.476V236.323H435.717V236.077H435.959V235.831H436.2V235.585H436.442V235.339H436.684V235.093H436.925V234.847H437.167V234.601H437.408V234.355H437.65V234.109H437.891V233.864H438.133V233.618H438.374V233.372H438.616V232.88H438.857V232.634H439.099V232.388H439.34V232.142H439.582V231.896H439.823V231.65H440.065V231.404H440.306V231.158H440.548V230.913H440.789V230.667H441.031V230.421H441.273V230.175H441.514V229.683H441.756V229.437H441.997V229.191H442.239V228.945H442.48V228.699H442.722V228.453H442.963V227.962H443.205V227.716H443.446V227.47H443.688V227.224H443.929V226.978H444.171V226.486H444.412V226.24H444.654V225.994H444.895V225.748H445.137V225.502H445.379V225.257H445.62V224.765H445.862V224.519H446.103V224.273H446.345V224.027H446.586V223.781H446.828V223.289H447.069V223.043H447.311V222.797H447.552V222.552H447.794V222.06H448.035V221.814H448.277V221.568H448.518V221.076H448.76V220.83H449.001V220.584H449.243V220.092H449.484V219.846H449.726V219.601H449.968V219.109H450.209V218.863H450.451V218.617H450.692V218.125H450.934V217.879H451.175V217.633H451.417V217.141H451.658V216.896H451.9V216.65H452.141V216.158H452.383V215.912H452.624V215.666H452.866V215.174H453.107V214.928H453.349V214.436H453.591V214.19H453.832V213.699H454.074V213.453H454.315V212.961H454.557V212.469H454.798V212.223H455.04V211.731H455.281V211.485H455.523V210.994H455.764V210.748H456.006V210.256H456.247V210.01H456.489V209.518H456.73V209.272H456.972V208.78H457.213V208.534H457.455V208.043H457.696V207.797H457.938V207.305H458.18V206.813H458.421V206.567H458.663V206.075H458.904V205.584H459.146V205.092H459.387V204.846H459.629V204.354H459.87V203.862H460.112V203.37H460.353V203.124H460.595V202.633H460.836V202.141H461.078V201.895H461.319V201.403H461.561V200.911H461.802V200.419H462.044V200.173H462.285V199.682H462.527V199.19H462.769V198.698H463.01V198.206H463.252V197.714H463.493V197.222H463.735V196.731H463.976V196.239H464.218V195.747H464.459V195.255H464.701V194.763H464.942V194.026H465.184V193.534H465.425V193.042H465.667V192.55H465.908V192.058H466.15V191.566H466.391V191.075H466.633V190.583H466.875V189.845H467.116V189.353H467.358V188.615H467.599V188.124H467.841V187.386H468.082V186.894H468.324V186.402H468.565V185.665H468.807V185.173H469.048V184.435H469.29V183.943H469.531V183.205H469.773V182.714H470.014V181.976H470.256V181.238H470.497V180.5H470.739V179.763H470.98V178.779H471.222V178.041H471.464V177.303H471.705V176.566H471.947V175.828H472.188V175.09H472.43V174.353H472.671V173.369H472.913V172.385H473.154V171.402H473.396V170.418H473.637V169.434H473.879V168.451H474.12V167.221H474.362V166.237H474.603V165.254H474.845V163.778H475.087V162.303H475.328V160.827H475.57V159.106H475.811V157.63H476.053V155.909H476.294V152.466H476.536V149.023H476.777V139.187H476.536V135.99H476.294V133.777H476.053V131.564H475.811V129.35H475.57V127.875H475.328V126.645H475.087V125.416H474.845V124.186H474.603V122.957H474.362V121.973H474.12V120.743H473.879V119.514H473.637V118.776H473.396V117.792H473.154V117.055H472.913V116.071H472.671V115.333H472.43V114.35H472.188V113.612H471.947V112.628H471.705V111.891H471.464V111.399H471.222V110.661H470.98V110.169H470.739V109.431H470.497V108.94H470.256V108.448H470.014V108.202H469.773V107.71H469.531V107.218H469.29V106.726H469.048V106.235H468.807V105.743H468.565V105.251H468.324V104.759H468.082V104.267H467.841V104.021H467.599V103.529H467.358V103.038H467.116V102.792H466.875V102.3H466.633V101.808H466.391V101.316H466.15V101.07H465.908V100.579H465.667V100.087H465.425V99.8408H465.184V99.349H464.942V98.8571H464.701V98.6112H464.459V98.1194H464.218V97.6276H463.976V97.3817H463.735V96.8898H463.493V96.6439H463.252V96.1521H463.01V95.9062H462.769V95.4144H462.527V95.1685H462.285V94.6766H462.044V94.4307H461.802V93.9389H461.561V93.6929H461.319V93.2011H461.078V92.9552H460.836V92.4634H460.595V92.2175H460.353V91.9716H460.112V91.4798H459.87V91.2338H459.629V90.9879H459.387V90.742H459.146V90.2502H458.904V90.0043H458.663V89.7584H458.421V89.2665H458.18V89.0206H457.938V88.7747H457.696V88.2829H457.455V88.037H457.213V87.791H456.972V87.2992H456.73V87.0533H456.489V86.8074H456.247V86.5615H456.006V86.0697H455.764V85.8238H455.523V85.5778H455.281V85.3319H455.04V85.086H454.798V84.8401H454.557V84.3482H454.315V84.1024H454.074V83.8564H453.832V83.6105H453.591V83.3646H453.349V83.1187H453.107V82.6269H452.866V82.3809H452.624V82.135H452.383V81.8891H452.141V81.6432H451.9V81.3973H451.658V81.1514H451.417V80.9055H451.175V80.6596H450.934V80.4136H450.692V80.1677H450.451V79.9218H450.209V79.6759H449.968V79.43H449.726V78.9382H449.484V78.6923H449.243V78.4464H449.001V78.2004H448.76V77.9545H448.518V77.7086H448.277V77.4627H448.035V77.2168H447.794V76.9709H447.552V76.725H447.311V76.4791H447.069V76.2332H446.586V75.9872H446.345V75.7413H446.103V75.4954H445.862V75.2495H445.62V75.0036H445.379V74.7576H445.137V74.5117H444.895V74.2658H444.654V74.0199H444.412V73.774H444.171V73.5281H443.929V73.2822H443.688V73.0363H443.205V72.7903H442.963V72.5444H442.722V72.2985H442.48V72.0526H442.239V71.8067H441.756V71.5608H441.514V71.3149H441.273V71.0689H441.031V70.823H440.789V70.5771H440.306V70.3312H440.065V70.0853H439.823V69.8394H439.582V69.5934H439.34V69.3476H438.857V69.1016H438.616V68.8557H438.374V68.6098H438.133V68.3639H437.65V68.118H437.408V67.8721H437.167V67.6262H436.684V67.3802H436.442V67.1343H436.2V66.8884H435.717V66.6425H435.476V66.3966H434.993V66.1507H434.751V65.9048H434.51V65.6588H434.027V65.4129H433.785V65.167H433.544V64.9211H433.061V64.6752H432.819V64.4293H432.336V64.1834H432.094V63.9375H431.611V63.6916H431.37V63.4456H430.887V63.1997H430.645V62.9538H430.162V62.7079H429.921V62.462H429.438V62.2161H429.196V61.9702H428.713V61.7243H428.472V61.4783H427.988V61.2324H427.505V60.9865H427.264V60.7406H426.781V60.4947H426.298V60.2487H425.815V60.0028H425.573V59.757H425.09V59.511H424.607V59.2651H424.366V59.0192H423.882V58.7733H423.399V58.5274H423.158V58.2815H422.675V58.0356H422.192V57.7896H421.709V57.5437H421.226V57.2978H420.743V57.0519H420.26V56.806H419.777V56.5601H419.535V56.3141H419.052V56.0682H418.569V55.8223H418.086V55.5764H417.603V55.3305H417.12V55.0846H416.637V54.8387H416.154V54.5927H415.671V54.3468H414.946V54.1009H414.463V53.855H413.98V53.6091H413.497V53.3632H413.014V53.1173H412.531V52.8714H412.048V52.6254H411.323V52.3795H410.84V52.1336H410.357V51.8877H409.632V51.6418H409.149V51.3959H408.425V51.15H407.942V50.9041H407.217V50.6581H406.734V50.4122H406.251V50.1663H405.526V49.9204H405.043V49.6745H404.319V49.4286H403.594V49.1827H402.87V48.9367H402.386V48.6908H401.662V48.4449H400.937V48.199H400.213V47.9531H399.488V47.7072H399.005V47.4613H398.28V47.2154H397.314V46.9695H396.59V46.7235H395.865V46.4776H395.141V46.2317H394.416V45.9858H393.691V45.7399H392.725V45.494H392.001V45.248H391.035V45.0021H390.31V44.7562H389.344V44.5103H388.378V44.2644H387.653V44.0185H386.687V43.7726H385.721V43.5267H384.755V43.2808H383.789V43.0348H382.581V42.7889H381.615V42.543H380.649V42.2971H379.683V42.0512H378.475V41.8053H377.268V41.5594H376.06V41.3134H374.852V41.0675H373.645V40.8216H372.437V40.5757H370.988V40.3298H369.539V40.0839H368.089V39.838H366.399V39.5921H364.95V39.3461H363.259V39.1002H361.327V38.8543H359.636V38.6084H357.704V38.3625H355.53V38.1165H353.115V37.8706H350.699V37.6247H347.801V37.3788H344.661V37.1329H341.038V36.887H336.449V36.6411H328.962V36.3952H312.055V36.6411H304.326V36.887H299.254V37.1329H294.665V37.3788H291.042V37.6247H287.419V37.8706H284.521V38.1165H281.381V38.3625H278.724V38.6084H276.067V38.8543H273.652V39.1002H270.995V39.3461H268.821V39.5921H266.647V39.838H264.474V40.0839H262.058V40.3298H260.126V40.5757H258.194V40.8216H256.262V41.0675H254.329V41.3134H252.397V41.5594H250.465V41.8053H248.774V42.0512H246.842V42.2971H245.151V42.543H243.461V42.7889H241.77V43.0348H240.079V43.2808H238.389V43.5267H236.698V43.7726H235.249V44.0185H233.558V44.2644H232.109V44.5103H230.418V44.7562H228.969V45.0021H227.278V45.248H225.829V45.494H224.38V45.7399H222.931V45.9858H221.482V46.2317H220.032V46.4776H218.583V46.7235H217.134V46.9695H215.685V47.2154H214.236V47.4613H213.028V47.7072H211.579V47.9531H210.13V48.199H208.681V48.4449H207.473V48.6908H206.024V48.9367H204.816V49.1827H203.367V49.4286H202.159V49.6745H200.71V49.9204H199.503V50.1663H198.053V50.4122H196.846V50.6581H195.638V50.9041H194.189V51.15H192.981V51.3959H191.774V51.6418H190.566V51.8877H189.358V52.1336H187.909V52.3795H186.702V52.6254H185.494V52.8714H184.286V53.1173H183.079V53.3632H181.871V53.6091H180.663V53.855H179.456V54.1009H178.248V54.3468H177.04V54.5927H175.833V54.8387H174.625V55.0846H173.417V55.3305H172.21V55.5764H171.002V55.8223H169.795V56.0682H168.587V56.3141H167.379V56.5601H166.413V56.806H165.205V57.0519H163.998V57.2978H162.79V57.5437H161.583V57.7896H160.616V58.0356H159.409V58.2815H158.201V58.5274H156.994V58.7733H156.027V59.0192H154.82V59.2651H153.612V59.511H152.646V59.757H151.438V60.0028H150.231V60.2487H149.265V60.4947H148.057V60.7406H146.849V60.9865H145.883V61.2324H144.676V61.4783H143.709V61.7243H142.502V61.9702H141.294V62.2161H140.328V62.462H139.12V62.7079H138.154V62.9538H136.947V63.1997H135.739V63.4456H134.773V63.6916H133.565V63.9375H132.599V64.1834H131.391V64.4293H130.425V64.6752H129.218V64.9211H128.252V65.167H127.044V65.4129H126.078V65.6588H124.87V65.9048H123.904V66.1507H122.696V66.3966H121.73V66.6425H120.523V66.8884H119.557V67.1343H118.349V67.3802H117.383V67.6262H116.175V67.8721H115.209V68.118H114.001V68.3639H113.035V68.6098H112.069V68.8557H110.862V69.1016H109.895V69.3476H108.688V69.5934H107.722V69.8394H106.514V70.0853H105.548V70.3312H104.34V70.5771H103.374V70.823H102.167V71.0689H101.2V71.3149H100.234V71.5608H99.0267V71.8067H98.0606V72.0526H96.8529V72.2985H95.8868V72.5444H94.6792V72.7903H93.713V73.0363H92.5054V73.2822H91.5393V73.5281H90.5732V73.774H89.3655V74.0199H88.3994V74.2658H87.1918V74.5117H86.2257V74.7576H85.018V75.0036H84.0519V75.2495H82.8443V75.4954H81.8782V75.7413H80.6705V75.9872H79.7044V76.2332H78.4968V76.4791H77.5306V76.725H76.5645V76.9709H75.3569V77.2168H74.3908V77.4627H73.1831V77.7086H72.217V77.9545H71.0094V78.2004H70.0433V78.4464H68.8356V78.6923H67.628V78.9382H66.6619V79.1841H65.4542V79.43H64.4881V79.6759H63.2805V79.9218H62.3144V80.1677H61.1067V80.4136H60.1406V80.6596H58.9329V80.9055H57.7253V81.1514H56.7592V81.3973H55.5516V81.6432H54.5854V81.8891H53.3778V82.135H52.1702V82.3809H51.204V82.6269H49.9964V82.8728H48.7888V83.1187H47.8226V83.3646H46.615V83.6105H45.4074V83.8564H44.1997V84.1024H43.2336V84.3482H42.026V84.5942H40.8183V84.8401H39.8522V85.086H38.6446V85.3319H37.4369V85.5778H36.2293V85.8238H35.0216V86.0697H33.814V86.3156H32.6063V86.5615H31.6402V86.8074H30.4326V87.0533H29.2249V87.2992H28.0173V87.5451H26.8097V87.791H25.602V88.037H24.3944V88.2829H23.1867V88.5288H21.7376V88.7747H20.5299V89.0206H19.3223V89.2665H18.1146V89.5125H16.907V89.7584H15.6994V90.0043H14.2502V90.2502H13.0425V90.4961H11.5934V90.742H10.3857V90.9879H9.17808V91.2338H7.72891V91.4798H6.52127V91.7257H5.0721V91.9716H3.86446V92.2175H2.41528V92.4634H0.966114V92.7093H0V92.4634H0.483057V92.2175H1.20764V91.9716H2.17376V91.7257H2.89834V91.4798H3.62293V91.2338H4.58904V90.9879H5.31363V90.742H6.27974V90.4961H7.00433V90.2502H7.72891V90.0043H8.69502V89.7584H9.41961V89.5125H10.3857V89.2665H11.1103V89.0206H11.8349V88.7747H12.801V88.5288H13.5256V88.2829H14.4917V88.037H15.2163V87.791H15.9409V87.5451H16.907V87.2992H17.6316V87.0533H18.5977V86.8074H19.3223V86.5615H20.2884V86.3156H21.013V86.0697H21.7376V85.8238H22.7037V85.5778H23.4283V85.3319H24.3944V85.086H25.119V84.8401H26.0851V84.5942H26.8097V84.3482H27.5342V84.1024H28.5004V83.8564H29.2249V83.6105H30.1911V83.3646H30.9156V83.1187H31.8818V82.8728H32.6063V82.6269H33.3309V82.3809H34.297V82.135H35.0216V81.8891H35.9877V81.6432H36.7123V81.3973H37.6784V81.1514H38.403V80.9055H39.1276V80.6596H40.0937V80.4136H40.8183V80.1677H41.7844V79.9218H42.509V79.6759H43.4751V79.43H44.1997V79.1841H45.1658V78.9382H45.8904V78.6923H46.615V78.4464H47.5811V78.2004H48.3057V77.9545H49.2718V77.7086H49.9964V77.4627H50.9625V77.2168H51.6871V76.9709H52.6532V76.725H53.3778V76.4791H54.1024V76.2332H55.0685V75.9872H55.7931V75.7413H56.7592V75.4954H57.4838V75.2495H58.4499V75.0036H59.1745V74.7576H60.1406V74.5117H60.8652V74.2658H61.8313V74.0199H62.5559V73.774H63.2805V73.5281H64.2466V73.2822H64.9712V73.0363H65.9373V72.7903H66.6619V72.5444H67.628V72.2985H68.3526V72.0526H69.3187V71.8067H70.0433V71.5608H71.0094V71.3149H71.734V71.0689H72.7001V70.823H73.4247V70.5771H74.1492V70.3312H75.1154V70.0853H75.8399V69.8394H76.8061V69.5934H77.5306V69.3476H78.4968V69.1016H79.2213V68.8557H80.1875V68.6098H80.912V68.3639H81.8782V68.118H82.6027V67.8721H83.5689V67.6262H84.2934V67.3802H85.2596V67.1343H85.9841V66.8884H86.9502V66.6425H87.6748V66.3966H88.641V66.1507H89.3655V65.9048H90.3316V65.6588H91.0562V65.4129H91.7808V65.167H92.7469V64.9211H93.4715V64.6752H94.4376V64.4293H95.1622V64.1834H96.1283V63.9375H96.8529V63.6916H97.819V63.4456H98.5436V63.1997H99.5097V62.9538H100.234V62.7079H101.2V62.462H101.925V62.2161H102.891V61.9702H103.616V61.7243H104.582V61.4783H105.306V61.2324H106.273V60.9865H106.997V60.7406H107.963V60.4947H108.688V60.2487H109.654V60.0028H110.379V59.757H111.345V59.511H112.069V59.2651H113.035V59.0192H113.76V58.7733H114.726V58.5274H115.451V58.2815H116.417V58.0356H117.141V57.7896H118.107V57.5437H118.832V57.2978H119.798V57.0519H120.523V56.806H121.489V56.5601H122.213V56.3141H123.18V56.0682H124.146V55.8223H124.87V55.5764H125.836V55.3305H126.561V55.0846H127.527V54.8387H128.252V54.5927H129.218V54.3468H129.942V54.1009H130.908V53.855H131.633V53.6091H132.599V53.3632H133.324V53.1173H134.29V52.8714H135.014V52.6254H135.981V52.3795H136.705V52.1336H137.671V51.8877H138.396V51.6418H139.362V51.3959H140.328V51.15H141.053V50.9041H142.019V50.6581H142.743V50.4122H143.709V50.1663H144.434V49.9204H145.4V49.6745H146.125V49.4286H147.091V49.1827H147.815V48.9367H148.782V48.6908H149.748V48.4449H150.472V48.199H151.438V47.9531H152.163V47.7072H153.129V47.4613H153.854V47.2154H154.82V46.9695H155.544V46.7235H156.51V46.4776H157.477V46.2317H158.201V45.9858H159.167V45.7399H159.892V45.494H160.858V45.248H161.583V45.0021H162.549V44.7562H163.515V44.5103H164.239V44.2644H165.205V44.0185H165.93V43.7726H166.896V43.5267H167.621V43.2808H168.587V43.0348H169.553V42.7889H170.278V42.543H171.244V42.2971H171.968V42.0512H172.934V41.8053H173.9V41.5594H174.625V41.3134H175.591V41.0675H176.316V40.8216H177.282V40.5757H178.006V40.3298H178.973V40.0839H179.939V39.838H180.663V39.5921H181.629V39.3461H182.354V39.1002H183.32V38.8543H184.286V38.6084H185.011V38.3625H185.977V38.1165H186.943V37.8706H187.668V37.6247H188.634V37.3788H189.358V37.1329H190.324V36.887H191.291V36.6411H192.015V36.3952H192.981V36.1493H193.947V35.9034H194.672V35.6574H195.638V35.4115H196.363V35.1656H197.329V34.9197H198.295V34.6738H199.019V34.4279H199.986V34.182H200.952V33.9361H201.676V33.6901H202.642V33.4442H203.609V33.1983H204.333V32.9524H205.299V32.7065H206.265V32.4605H206.99V32.2147H207.956V31.9688H208.922V31.7228H209.647V31.4769H210.613V31.231H211.579V30.9851H212.304V30.7392H213.27V30.4933H214.236V30.2473H214.96V30.0015H215.926V29.7555H216.893V29.5096H217.617V29.2637H218.583V29.0178H219.549V28.7719H220.515V28.5259H221.24V28.28H222.206V28.0341H223.172V27.7882H223.897V27.5423H224.863V27.2964H225.829V27.0504H226.795V26.8046H227.52V26.5586H228.486V26.3127H229.452V26.0668H230.177V25.8209H231.143V25.575H232.109V25.3291H233.075V25.0832H234.041V24.8372H234.766V24.5913H235.732V24.3454H236.698V24.0995H237.664V23.8536H238.389V23.6077H239.355V23.3618H240.321V23.1158H241.287V22.8699H242.012V22.6241H242.978V22.3781H243.944V22.1322H244.91V21.8863H245.876V21.6404H246.842V21.3945H247.567V21.1486H248.533V20.9026H249.499V20.6567H250.465V20.4108H251.431V20.1649H252.397V19.919H253.122V19.6731H254.088V19.4272H255.054V19.1812H256.02V18.9353H256.986V18.6894H257.952V18.4435H258.919V18.1976H259.885V17.9517H260.851V17.7057H261.575V17.4598H262.541V17.2139H263.508V16.968H264.474V16.7221H265.44V16.4762H266.406V16.2303H267.372V15.9844H268.338V15.7385H269.304V15.4926H270.27V15.2466H271.236V15.0007H272.203V14.7548H273.169V14.5089H274.135V14.263H275.342V14.0171H276.309V13.7712H277.275V13.5253H278.241V13.2793H279.207V13.0334H280.173V12.7875H281.139V12.5416H282.347V12.2957H283.313V12.0498H284.279V11.8039H285.245V11.5579H286.211V11.312H287.419V11.0661H288.385V10.8202H289.593V10.5743H290.559V10.3283H291.525V10.0824H292.733V9.83655H293.699V9.59061H294.906V9.3447H296.114V9.09879H297.08V8.85291H298.288V8.60699H299.254V8.36105H300.461V8.11514H301.669V7.86923H302.877V7.62335H303.843V7.37744H305.05V7.13147H306.258V6.88556H307.466V6.63968H308.673V6.39374H309.881V6.14783H311.089V5.90192H312.296V5.65604H313.504V5.41013H314.712V5.16418H316.161V4.91827H317.368V4.67236H318.818V4.42648H320.025V4.18057H321.474V3.9346H322.682V3.68869H324.131V3.44281H325.58V3.19687H327.271V2.95096H328.72V2.70505H330.169V2.45917H331.86V2.21326H333.551V1.96729H335.483V1.72137H337.174V1.47549H339.106V1.22961H341.28V0.983704H343.695V0.737732H345.869V0.491821H349.009V0.245941H352.149V0H374.611V0.245941H377.992V0.491821H380.649V0.737732H382.581V0.983704H384.755V1.22961H386.687V1.47549H388.136V1.72137H389.827V1.96729H391.276V2.21326H392.725V2.45917H393.933V2.70505H395.141V2.95096H396.348V3.19687H397.556V3.44281H398.764V3.68869H399.971V3.9346H400.937V4.18057H402.145V4.42648H403.111V4.67236H404.077V4.91827H405.043V5.16418H406.009V5.41013H406.975V5.65604H407.942V5.90192H408.666V6.14783H409.632V6.39374H410.357V6.63968H411.323V6.88556H412.048V7.13147H412.772V7.37744H413.497V7.62335H414.221V7.86923H414.946V8.11514H415.671V8.36105H416.395V8.60699H417.12V8.85291H417.844V9.09879H418.569V9.3447H419.052V9.59061H419.777V9.83655H420.501V10.0824H421.226V10.3283H421.709V10.5743H422.433V10.8202H422.916V11.0661H423.641V11.312H424.124V11.5579H424.849V11.8039H425.573V12.0498H426.056V12.2957H426.539V12.5416H427.264V12.7875H427.747V13.0334H428.23V13.2793H428.955V13.5253H429.438V13.7712H430.162V14.0171H430.645V14.263H431.128V14.5089H431.611V14.7548H432.094V15.0007H432.819V15.2466H433.302V15.4926H433.785V15.7385H434.268V15.9844H434.751V16.2303H435.476V16.4762H435.959V16.7221H436.442V16.968H436.925V17.2139H437.408V17.4598H437.891V17.7057H438.374V17.9517H438.857V18.1976H439.34V18.4435H439.823V18.6894H440.306V18.9353H440.789V19.1812H441.273V19.4272H441.756V19.6731H442.239V19.919H442.722V20.1649H443.205V20.4108H443.446V20.6567H443.929V20.9026H444.412V21.1486H444.895V21.3945H445.379V21.6404H445.862V21.8863H446.345V22.1322H446.586V22.3781H447.069V22.6241H447.552V22.8699H448.035V23.1158H448.518V23.3618H448.76V23.6077H449.243V23.8536H449.726V24.0995H449.968V24.3454H450.451V24.5913H450.934V24.8372H451.417V25.0832H451.658V25.3291H452.141V25.575H452.624V25.8209H452.866V26.0668H453.349V26.3127H453.832V26.5586H454.074V26.8046H454.557V27.0504H454.798V27.2964H455.281V27.5423H455.764V27.7882H456.006V28.0341H456.489V28.28H456.73V28.5259H457.213V28.7719H457.696V29.0178H457.938V29.2637H458.421V29.5096H458.663V29.7555H459.146V30.0015H459.387V30.2473H459.87V30.4933H460.112V30.7392H460.595V30.9851H460.836V31.231H461.319V31.4769H461.561V31.7228H462.044V31.9688H462.285V32.2147H462.527V32.4605H463.01V32.7065H463.252V32.9524H463.735V33.1983H463.976V33.4442H464.459V33.6901H464.701V33.9361H465.184V34.182H465.425V34.4279H465.667V34.6738H466.15V34.9197H466.391V35.1656H466.633V35.4115H467.116V35.6574H467.358V35.9034H467.599V36.1493H468.082V36.3952H468.324V36.6411H468.565V36.887H469.048V37.1329H469.29V37.3788H469.531V37.6247H470.014V37.8706H470.256V38.1165H470.497V38.3625H470.98V38.6084H471.222V38.8543H471.464V39.1002H471.705V39.3461H472.188V39.5921H472.43V39.838H472.671V40.0839H472.913V40.3298H473.396V40.5757H473.637V40.8216H473.879V41.0675H474.12V41.3134H474.362V41.5594H474.845V41.8053H475.087V42.0512H475.328V42.2971H475.57V42.543H476.053V42.7889H476.294V43.0348H476.536V43.2808H476.777V43.5267H477.019V43.7726H477.26V44.0185H477.743V44.2644H477.985V44.5103H478.226V44.7562H478.468V45.0021H478.709V45.248H478.951V45.494H479.193V45.7399H479.434V45.9858H479.676V46.2317H480.159V46.4776H480.4V46.7235H480.642V46.9695H480.883V47.2154H481.125V47.4613H481.366V47.7072H481.608V47.9531H481.849V48.199H482.091V48.4449H482.332V48.6908H482.574V48.9367H482.815V49.1827H483.298V49.4286H483.54V49.6745H483.782V49.9204H484.023V50.1663H484.265V50.4122H484.506V50.6581H484.748V50.9041H484.989V51.15H485.231V51.3959H485.472V51.6418H485.714V51.8877H485.955V52.1336H486.197V52.3795H486.438V52.6254H486.68V52.8714H486.921V53.1173H487.163V53.3632H487.404V53.6091H487.646V53.855H487.887V54.1009H488.129V54.5927H488.371V54.8387H488.612V55.0846H488.854V55.3305H489.095V55.5764H489.337V55.8223H489.578V56.0682H489.82V56.3141H490.061V56.5601H490.303V56.806H490.544V57.2978H490.786V57.5437H491.027V57.7896H491.269V58.0356H491.51V58.2815H491.752V58.5274H491.994V58.7733H492.235V59.0192H492.477V59.2651H492.718V59.757H492.96V60.0028H493.201V60.2487H493.443V60.4947H493.684V60.7406H493.926V61.2324H494.167V61.4783H494.409V61.7243H494.65V61.9702H494.892V62.462H495.133V62.7079H495.375V62.9538H495.616V63.1997H495.858V63.4456H496.1V63.9375H496.341V64.1834H496.583V64.4293H496.824V64.6752H497.066V65.167H497.307V65.4129H497.549V65.6588H497.79V66.1507H498.032V66.3966H498.273V66.6425H498.515V67.1343H498.756V67.3802H498.998V67.6262H499.239V68.118H499.481V68.3639H499.722V68.8557H499.964V69.1016H500.205V69.3476H500.447V69.8394H500.689V70.0853H500.93V70.5771H501.172V70.823H501.413V71.0689H501.655V71.5608H501.896V71.8067H502.138V72.2985H502.379V72.5444H502.621V73.0363H502.862V73.2822H503.104V73.774H503.345V74.2658H503.587V74.5117H503.828V75.0036H504.07V75.2495H504.311V75.7413H504.553V76.2332H504.795V76.4791H505.036V76.9709H505.278V77.2168H505.519V77.7086H505.761V77.9545H506.002V78.4464H506.244V78.9382H506.485V79.43H506.727V79.9218H506.968V80.1677H507.21V80.6596H507.451V81.1514H507.693V81.6432H507.934V82.135H508.176V82.6269H508.417V82.8728H508.659V83.3646H508.901V83.8564H509.142V84.3482H509.384V84.8401H509.625V85.3319H509.867V85.5778H510.108V86.3156H510.35V86.8074H510.591V87.2992H510.833V87.791H511.074V88.2829H511.316V89.0206H511.557V89.5125H511.799V90.0043H512.04V90.4961H512.282V90.9879H512.523V91.4798H512.765V92.2175H513.006V92.7093H513.248V93.2011H513.49V93.9389H513.731V94.6766H513.973V95.1685H514.214V95.9062H514.456V96.6439H514.697V97.1358H514.939V97.8735H515.18V98.6112H515.422V99.1031H515.663V99.8408H515.905V100.579H516.146V101.316H516.388V102.054H516.629V102.792H516.871V103.775H517.112V104.513H517.354V105.497H517.596V106.235H517.837V106.972H518.079V107.956H518.32V108.694H518.562V109.923H518.803V110.907H519.045V112.136H519.286V113.366H519.528V114.35H519.769V115.579H520.011V116.809H520.252V118.284H520.494V120.006H520.735V121.727H520.977V123.694H521.218V125.416H521.46V128.367H521.701V132.547H521.943V146.073H521.701V148.778H521.46V151.729H521.218V154.434H520.977V156.401H520.735V158.122H520.494V159.598H520.252V161.073H520.011V162.549H519.769V164.27H519.528V165.746H519.286V166.975H519.045V167.959H518.803V168.942H518.562V170.172H518.32V171.156H518.079V172.139H517.837V173.369H517.596V174.353H517.354V175.582H517.112V176.566H516.871V177.303H516.629V178.287H516.388V179.025H516.146V179.763H515.905V180.746H515.663V181.484H515.422V182.468H515.18V183.205H514.939V183.943H514.697V184.927H514.456V185.665H514.214V186.402H513.973V187.386H513.731V188.124H513.49V188.861H513.248V189.353H513.006V190.091H512.765V190.829H512.523V191.566H512.282V192.304H512.04V193.042H511.799V193.534H511.557V194.271H511.316V195.009H511.074V195.747H510.833V196.485H510.591V196.977H510.35V197.714H510.108V198.206H509.867V198.944H509.625V199.436H509.384V200.173H509.142V200.665H508.901V201.403H508.659V201.895H508.417V202.387H508.176V202.878H507.934V203.616H507.693V204.108H507.451V204.6H507.21V205.092H506.968V205.584H506.727V206.321H506.485V206.813H506.244V207.059H506.002V207.551H505.761V208.043H505.519V208.534H505.278V209.026H505.036V209.518H504.795V210.01H504.553V210.502H504.311V210.994H504.07V211.485H503.828V211.977H503.587V212.223H503.345V212.715H503.104V213.207H502.862V213.699H502.621V213.945H502.379V214.436H502.138V214.928H501.896V215.174H501.655V215.666H501.413V216.158H501.172V216.404H500.93V216.896H500.689V217.141H500.447V217.633H500.205V218.125H499.964V218.371H499.722V218.863H499.481V219.355H499.239V219.601H498.998V220.092H498.756V220.338H498.515V220.584H498.273V221.076H498.032V221.322H497.79V221.814H497.549V222.06H497.307V222.552H497.066V222.797H496.824V223.043H496.583V223.535H496.341V223.781H496.1V224.273H495.858V224.519H495.616V225.011H495.375V225.257H495.133V225.502H494.892V225.994H494.65V226.24H494.409V226.486H494.167V226.978H493.926V227.224H493.684V227.47H493.443V227.716H493.201V228.208H492.96V228.453H492.718V228.699H492.477V228.945H492.235V229.437H491.994V229.683H491.752V229.929H491.51V230.175H491.269V230.667H491.027V230.913H490.786V231.158H490.544V231.404H490.303V231.896H490.061V232.142H489.82V232.388H489.578V232.634H489.337V232.88H489.095V233.126H488.854V233.372H488.612V233.618H488.371V234.109H488.129V234.355H487.887V234.601H487.646V234.847H487.404V235.093H487.163V235.339H486.921V235.585H486.68V235.831H486.438V236.323H486.197V236.569H485.955V236.814H485.714V237.06H485.472V237.306H485.231V237.552H484.989V237.798H484.748V238.044H484.506V238.29H484.265V238.536H484.023V238.782H483.782V239.028H483.54V239.274H483.298V239.52H483.057V239.765H482.815V240.011H482.574V240.257H482.332V240.503H482.091V240.749H481.849V240.995H481.608V241.241H481.366V241.487H481.125V241.733H480.883V241.979H480.642V242.225H480.4V242.471H480.159V242.716H479.917V242.962H479.676V243.208H479.434V243.454H479.193V243.7H478.951V243.946H478.709V244.192H478.468V244.438H478.226V244.684H477.985V244.93H477.502V245.176H477.26V245.421H477.019V245.667H476.777V245.913H476.536V246.159H476.294V246.405H476.053V246.651H475.811V246.897H475.57V247.143H475.328V247.389H474.845V247.635H474.603V247.881H474.362V248.127H474.12V248.372H473.879V248.618H473.637V248.864H473.396V249.11H472.913V249.356H472.671V249.602H472.43V249.848H472.188V250.094H471.705V250.34H471.464V250.586H471.222V250.832H470.98V251.077H470.739V251.323H470.256V251.569H470.014V251.815H469.773V252.061H469.531V252.307H469.048V252.553H468.807V252.799H468.565V253.045H468.324V253.291H468.082V253.537H467.599V253.783H467.358V254.028H467.116V254.274H466.633V254.52H466.391V254.766H466.15V255.012H465.667V255.258H465.425V255.504H465.184V255.75H464.701V255.996H464.459V256.242H464.218V256.488H463.735V256.733H463.493V256.979H463.01V257.225H462.769V257.471H462.527V257.717H462.044V257.963H461.802V258.209H461.561V258.455H461.078V258.701H460.836V258.947H460.353V259.193H460.112V259.439H459.629V259.684H459.387V259.93H458.904V260.176H458.663V260.422H458.18V260.668H457.938V260.914H457.455V261.16H457.213V261.406H456.73V261.652H456.489V261.898H456.006V262.144H455.764V262.389H455.281V262.635H455.04V262.881H454.798V263.127H454.315V263.373H453.832V263.619H453.591V263.865H453.107V264.111H452.624V264.357H452.383V264.603H451.9V264.849H451.417V265.095H451.175V265.34H450.692V265.586H450.209V265.832H449.968V266.078H449.484V266.324H449.243V266.57H448.76V266.816H448.277V267.062H448.035V267.308H447.552V267.554H447.069V267.8H446.586V268.045H446.103V268.291H445.862V268.537H445.379V268.783H444.895V269.029H444.412V269.275H443.929V269.521H443.688V269.767H443.205V270.013H442.722V270.259H442.239V270.505H441.756V270.751H441.514V270.996H441.031V271.242H440.548V271.488H440.065V271.734H439.582V271.98H439.099V272.226H438.616V272.472H438.133V272.718H437.65V272.964H437.167V273.21H436.684V273.456H436.2V273.701H435.717V273.947H435.234V274.193H434.751V274.439H434.268V274.685H433.785V274.931H433.302V275.177H432.577V275.423H432.094V275.669H431.611V275.915H431.128V276.161H430.404V276.407H429.921V276.652H429.438V276.898H428.955V277.144H428.472V277.39H427.747V277.636H427.264V277.882H426.781V278.128H426.298V278.374H425.573V278.62H425.09V278.866H424.366V279.112H423.882V279.358H423.158V279.603H422.675V279.849H421.95V280.095H421.467V280.341H420.743V280.587H420.26V280.833H419.535V281.079H419.052V281.325H418.327V281.571H417.844V281.817H417.12V282.063H416.395V282.308H415.671V282.554H414.946V282.8H414.221V283.046H413.738V283.292H413.014V283.538H412.289V283.784H411.565V284.03H410.84V284.276H410.115V284.522H409.391V284.768H408.666V285.014H407.942V285.259H406.975V285.505H406.251V285.751H405.526V285.997H404.802V286.243H404.077V286.489H403.111V286.735H402.386V286.981H401.42V287.227H400.454V287.473H399.73V287.719H398.764V287.964H397.797V288.21H396.831V288.456H396.107V288.702H395.141V288.948H394.174V289.194H392.967V289.44H392.001V289.686H390.793V289.932H389.827V290.178H388.619V290.424H387.653V290.67H386.446V290.915H385.238V291.161H383.789V291.407H382.581V291.653H381.132V291.899H379.924V292.145H378.475V292.391H376.784V292.637H374.852V292.883H373.161V293.129H371.471V293.375H369.297V293.62H366.64V293.866H364.225V294.112H360.844V294.358H356.255V294.604" fill="#ECF2F7"/>
</svg>
