<svg width="718" height="371" viewBox="0 0 718 371" fill="none" xmlns="http://www.w3.org/2000/svg">
<path d="M318.363 371V370.736H314.74V370.473H311.375V370.209H309.045V369.945H306.716V369.682H304.386V369.418H302.833V369.154H301.022V368.891H299.469V368.627H297.916V368.363H296.363V368.1H295.068V367.836H293.774V367.572H292.48V367.308H291.186V367.045H289.892V366.781H288.598V366.517H287.562V366.254H286.527V365.99H285.492V365.726H284.198V365.463H283.162V365.199H282.386V364.935H281.35V364.672H280.315V364.408H279.539V364.144H278.503V363.881H277.727V363.617H276.95V363.353H276.174V363.09H275.138V362.826H274.362V362.562H273.585V362.299H272.809V362.035H272.032V361.771H271.256V361.507H270.479V361.244H269.962V360.98H269.185V360.716H268.409V360.453H267.632V360.189H266.856V359.925H266.338V359.662H265.562V359.398H265.044V359.134H264.267V358.871H263.75V358.607H262.973V358.343H262.197V358.08H261.679V357.816H261.161V357.552H260.385V357.289H259.867V357.025H259.35V356.761H258.573V356.498H258.056V356.234H257.279V355.97H256.761V355.706H256.244V355.443H255.726V355.179H254.95V354.915H254.432V354.652H253.914V354.388H253.397V354.124H252.879V353.861H252.361V353.597H251.585V353.333H251.067V353.07H250.549V352.806H250.032V352.542H249.514V352.279H248.996V352.015H248.479V351.751H247.961V351.488H247.443V351.224H246.926V350.96H246.408V350.697H245.89V350.433H245.373V350.169H244.855V349.905H244.337V349.642H243.82V349.378H243.302V349.114H242.784V348.851H242.267V348.587H242.008V348.323H241.49V348.06H240.973V347.796H240.455V347.532H239.937V347.269H239.42V347.005H238.902V346.741H238.643V346.478H238.125V346.214H237.608V345.95H237.09V345.687H236.831V345.423H236.314V345.159H235.796V344.896H235.537V344.632H235.019V344.368H234.502V344.104H233.984V343.841H233.725V343.577H233.208V343.313H232.69V343.05H232.431V342.786H231.913V342.522H231.396V342.259H231.137V341.995H230.619V341.731H230.361V341.468H229.843V341.204H229.325V340.94H229.066V340.677H228.549V340.413H228.29V340.149H227.772V339.886H227.255V339.622H226.996V339.358H226.478V339.095H226.219V338.831H225.702V338.567H225.443V338.303H224.925V338.04H224.666V337.776H224.149V337.512H223.89V337.249H223.372V336.985H223.113V336.721H222.854V336.458H222.337V336.194H222.078V335.93H221.56V335.667H221.301V335.403H220.784V335.139H220.525V334.876H220.007V334.612H219.748V334.348H219.231V334.085H218.972V333.821H218.713V333.557H218.195V333.294H217.937V333.03H217.678V332.766H217.16V332.502H216.901V332.239H216.642V331.975H216.125V331.711H215.866V331.448H215.607V331.184H215.089V330.92H214.831V330.657H214.572V330.393H214.054V330.129H213.795V329.866H213.536V329.602H213.019V329.338H212.76V329.075H212.501V328.811H212.242V328.547H211.983V328.284H211.466V328.02H211.207V327.756H210.948V327.493H210.689V327.229H210.172V326.965H209.913V326.701H209.654V326.438H209.395V326.174H209.136V325.91H208.619V325.647H208.36V325.383H208.101V325.119H207.842V324.856H207.324V324.592H207.066V324.328H206.807V324.065H206.548V323.801H206.289V323.537H206.03V323.274H205.771V323.01H205.254V322.746H204.995V322.483H204.736V322.219H204.477V321.955H204.218V321.692H203.96V321.428H203.701V321.164H203.442V320.9H203.183V320.637H202.665V320.373H202.407V320.109H202.148V319.846H201.889V319.582H201.63V319.318H201.371V319.055H201.112V318.791H200.854V318.527H200.595V318.264H200.336V318H200.077V317.736H199.818V317.473H199.559V317.209H199.301V316.945H199.042V316.682H198.783V316.418H198.524V316.154H198.265V315.891H198.007V315.627H197.748V315.363H197.489V315.099H197.23V314.836H196.971V314.572H196.712V314.308H196.453V314.045H196.195V313.781H195.936V313.517H195.677V313.254H195.418V312.99H195.159V312.726H194.901V312.463H194.642V312.199H194.383V311.935H194.124V311.672H193.865V311.408H193.606V311.144H193.348V310.881H193.089V310.353H192.83V310.09H192.571V309.826H192.312V309.562H192.053V309.299H191.795V309.035H191.536V308.771H191.277V308.507H191.018V308.244H190.759V307.98H190.5V307.716H190.242V307.189H189.983V306.925H189.724V306.662H189.465V306.398H189.206V306.134H188.947V305.607H188.689V305.343H188.43V305.08H188.171V304.816H187.912V304.289H187.653V304.025H187.394V303.761H187.136V303.498H186.877V303.234H186.618V302.706H186.359V302.443H186.1V302.179H185.841V301.915H185.583V301.388H185.324V301.124H185.065V300.861H184.806V300.597H184.547V300.07H184.288V299.806H184.03V299.279H183.771V299.015H183.512V298.751H183.253V298.224H182.994V297.96H182.735V297.697H182.477V297.169H182.218V296.905H181.959V296.378H181.7V296.114H181.441V295.851H181.182V295.323H180.924V295.06H180.665V294.532H180.406V294.269H180.147V294.005H179.888V293.478H179.629V293.214H179.371V292.687H179.112V292.159H178.853V291.896H178.594V291.368H178.335V291.104H178.076V290.577H177.818V290.05H177.559V289.786H177.3V289.259H177.041V288.995H176.782V288.468H176.523V288.204H176.265V287.677H176.006V287.149H175.747V286.886H175.488V286.358H175.229V285.831H174.97V285.303H174.712V285.04H174.453V284.512H174.194V283.985H173.935V283.458H173.676V282.93H173.417V282.403H173.159V282.139H172.9V281.612H172.641V281.085H172.382V280.557H172.123V280.03H171.864V279.502H171.606V278.975H171.347V278.448H171.088V277.92H170.829V277.393H170.57V276.866H170.311V276.338H170.053V275.547H169.794V275.02H169.535V274.493H169.276V273.965H169.017V273.438H168.758V272.647H168.5V272.119H168.241V271.592H167.982V271.065H167.723V270.274H167.464V269.746H167.205V268.955H166.947V268.164H166.688V267.637H166.429V266.846H166.17V266.055H165.911V265.527H165.652V264.736H165.394V263.945H165.135V263.418H164.876V262.627H164.617V261.572H164.358V260.781H164.1V259.726H163.841V258.935H163.582V258.144H163.323V257.09H163.064V256.299H162.805V255.244H162.547V254.453H162.288V253.398H162.029V252.08H161.77V250.761H161.511V249.706H161.252V248.388H160.994V247.07H160.735V246.015H160.476V244.433H160.217V242.587H159.958V240.741H159.699V238.632H159.441V236.786H159.182V234.149H158.923V229.667H158.664V213.582H158.923V210.682H159.182V207.517H159.441V204.617H159.699V202.771H159.958V201.189H160.217V199.343H160.476V197.761H160.735V196.179H160.994V194.333H161.252V192.751H161.511V191.697H161.77V190.642H162.029V189.323H162.288V188.269H162.547V187.214H162.805V185.896H163.064V184.841H163.323V183.522H163.582V182.468H163.841V181.413H164.1V180.358H164.358V179.567H164.617V178.776H164.876V177.721H165.135V176.93H165.394V176.139H165.652V175.085H165.911V174.294H166.17V173.502H166.429V172.448H166.688V171.657H166.947V170.866H167.205V169.811H167.464V169.02H167.723V168.229H167.982V167.438H168.241V166.91H168.5V166.119H168.758V165.328H169.017V164.537H169.276V163.746H169.535V163.219H169.794V162.428H170.053V161.637H170.311V160.846H170.57V160.055H170.829V159.527H171.088V158.736H171.347V158.209H171.606V157.418H171.864V156.891H172.123V156.1H172.382V155.572H172.641V154.781H172.9V154.254H173.159V153.726H173.417V153.199H173.676V152.408H173.935V151.881H174.194V151.353H174.453V150.826H174.712V150.299H174.97V149.507H175.229V149.244H175.488V148.716H175.747V148.189H176.006V147.662H176.265V147.134H176.523V146.607H176.782V146.08H177.041V145.552H177.3V145.025H177.559V144.498H177.818V144.234H178.076V143.706H178.335V143.179H178.594V142.652H178.853V142.124H179.112V141.597H179.371V141.333H179.629V140.806H179.888V140.542H180.147V140.015H180.406V139.488H180.665V139.224H180.924V138.697H181.182V138.169H181.441V137.905H181.7V137.378H181.959V136.851H182.218V136.587H182.477V136.06H182.735V135.796H182.994V135.269H183.253V135.005H183.512V134.478H183.771V134.214H184.03V133.687H184.288V133.423H184.547V132.896H184.806V132.632H185.065V132.368H185.324V131.841H185.583V131.577H185.841V131.05H186.1V130.786H186.359V130.522H186.618V129.995H186.877V129.731H187.136V129.204H187.394V128.94H187.653V128.677H187.912V128.149H188.171V127.886H188.43V127.622H188.689V127.095H188.947V126.831H189.206V126.567H189.465V126.303H189.724V125.776H189.983V125.512H190.242V125.249H190.5V124.985H190.759V124.458H191.018V124.194H191.277V123.93H191.536V123.667H191.795V123.139H192.053V122.876H192.312V122.612H192.571V122.348H192.83V122.085H193.089V121.557H193.348V121.294H193.606V121.03H193.865V120.766H194.124V120.503H194.383V120.239H194.642V119.975H194.901V119.711H195.159V119.184H195.418V118.92H195.677V118.657H195.936V118.393H196.195V118.129H196.453V117.866H196.712V117.602H196.971V117.338H197.23V116.811H197.489V116.547H197.748V116.284H198.007V116.02H198.265V115.756H198.524V115.493H198.783V115.229H199.042V114.965H199.301V114.701H199.559V114.438H199.818V114.174H200.077V113.91H200.336V113.647H200.595V113.383H200.854V113.119H201.112V112.856H201.371V112.592H201.63V112.328H201.889V112.065H202.148V111.801H202.407V111.537H202.665V111.274H202.924V111.01H203.183V110.746H203.442V110.483H203.701V110.219H203.96V109.955H204.218V109.692H204.477V109.428H204.736V109.164H204.995V108.901H205.513V108.637H205.771V108.373H206.03V108.109H206.289V107.846H206.548V107.582H206.807V107.318H207.066V107.055H207.324V106.791H207.583V106.527H208.101V106.264H208.36V106H208.619V105.736H208.877V105.473H209.136V105.209H209.395V104.945H209.654V104.682H209.913V104.418H210.172V104.154H210.689V103.891H210.948V103.627H211.207V103.363H211.466V103.1H211.725V102.836H212.242V102.572H212.501V102.308H212.76V102.045H213.019V101.781H213.536V101.517H213.795V101.254H214.054V100.99H214.313V100.726H214.572V100.463H215.089V100.199H215.348V99.9353H215.607V99.6717H215.866V99.408H216.384V99.1443H216.642V98.8806H216.901V98.6169H217.16V98.3532H217.678V98.0896H217.937V97.8259H218.454V97.5622H218.713V97.2985H218.972V97.0348H219.49V96.7711H219.748V96.5075H220.007V96.2438H220.525V95.9801H220.784V95.7164H221.043V95.4528H221.56V95.1891H221.819V94.9254H222.078V94.6617H222.596V94.398H222.854V94.1343H223.113V93.8707H223.631V93.607H223.89V93.3433H224.407V93.0796H224.666V92.8159H225.184V92.5523H225.443V92.2886H225.96V92.0249H226.219V91.7612H226.737V91.4975H226.996V91.2338H227.513V90.9702H227.772V90.7065H228.29V90.4428H228.549V90.1791H229.066V89.9154H229.325V89.6517H229.843V89.3881H230.102V89.1244H230.619V88.8607H230.878V88.597H231.396V88.3333H231.655V88.0696H232.172V87.806H232.69V87.5423H232.949V87.2786H233.466V87.0149H233.984V86.7513H234.243V86.4876H234.761V86.2239H235.278V85.9602H235.537V85.6965H236.055V85.4329H236.314V85.1692H236.831V84.9055H237.349V84.6418H237.608V84.3781H238.125V84.1144H238.643V83.8508H239.161V83.5871H239.42V83.3234H239.937V83.0597H240.455V82.796H240.973V82.5323H241.49V82.2687H242.008V82.005H242.267V81.7413H242.784V81.4776H243.302V81.2139H243.82V80.9503H244.337V80.6866H244.596V80.4229H245.114V80.1592H245.632V79.8955H246.149V79.6319H246.667V79.3682H247.185V79.1045H247.702V78.8408H248.22V78.5771H248.738V78.3135H249.255V78.0497H249.773V77.7861H250.291V77.5224H250.808V77.2587H251.326V76.9951H251.844V76.7314H252.361V76.4677H252.879V76.204H253.397V75.9403H253.914V75.6766H254.691V75.4129H255.208V75.1493H255.726V74.8856H256.244V74.6219H256.761V74.3582H257.538V74.0945H258.056V73.8308H258.573V73.5672H259.091V73.3035H259.867V73.0398H260.385V72.7761H260.903V72.5125H261.42V72.2488H262.197V71.9851H262.714V71.7214H263.491V71.4577H264.009V71.194H264.785V70.9304H265.303V70.6667H266.079V70.403H266.597V70.1393H267.373V69.8756H267.891V69.612H268.668V69.3483H269.185V69.0846H269.962V68.8209H270.738V68.5572H271.515V68.2935H272.032V68.0298H272.809V67.7662H273.585V67.5025H274.362V67.2388H275.138V66.9751H275.656V66.7115H276.433V66.4478H277.209V66.1841H277.986V65.9204H278.762V65.6567H279.539V65.3931H280.574V65.1294H281.35V64.8657H282.127V64.602H282.903V64.3383H283.68V64.0746H284.715V63.8109H285.492V63.5473H286.268V63.2836H287.304V63.0199H288.339V62.7563H289.115V62.4926H290.151V62.2289H291.186V61.9651H292.221V61.7015H292.998V61.4378H294.033V61.1741H295.068V60.9105H296.104V60.6468H297.398V60.3831H298.433V60.1194H299.727V59.8557H300.763V59.592H302.057V59.3284H303.092V59.0647H304.386V58.801H305.939V58.5373H307.234V58.2736H308.787V58.0099H310.081V57.7463H311.634V57.4826H313.446V57.2189H315.257V56.9552H317.069V56.6916H318.881V56.4279H320.952V56.1642H323.54V55.9005H326.387V55.6368H328.975V55.3732H333.893V55.1094H346.058V54.8458H346.317V55.1094H353.047V55.3732H356.929V55.6368H359.776V55.9005H362.624V56.1642H364.694V56.4279H366.506V56.6916H368.318V56.9552H370.13V57.2189H371.683V57.4826H372.977V57.7463H374.53V58.0099H375.824V58.2736H377.118V58.5373H378.412V58.801H379.707V59.0647H380.483V59.3284H381.518V59.592H382.554V59.8557H383.589V60.1194H384.624V60.3831H385.66V60.6468H386.695V60.9105H387.472V61.1741H388.248V61.4378H389.283V61.7015H390.06V61.9651H390.836V62.2289H391.613V62.4926H392.389V62.7563H393.166V63.0199H393.942V63.2836H394.719V63.5473H395.495V63.8109H396.272V64.0746H396.789V64.3383H397.566V64.602H398.342V64.8657H398.86V65.1294H399.637V65.3931H400.154V65.6567H400.931V65.9204H401.448V66.1841H401.707V66.4478H401.19V66.1841H400.154V65.9204H399.378V65.6567H398.342V65.3931H397.307V65.1294H396.272V64.8657H395.237V64.602H394.201V64.3383H393.166V64.0746H391.872V63.8109H390.319V63.5473H388.766V63.2836H387.472V63.0199H385.919V62.7563H384.366V62.4926H381.777V62.2289H378.671V61.9651H375.824V61.7015H364.435V61.9651H360.812V62.2289H356.929V62.4926H355.118V62.7563H353.306V63.0199H351.494V63.2836H349.682V63.5473H347.87V63.8109H346.317V64.0746H345.282V64.3383H343.988V64.602H342.694V64.8657H341.399V65.1294H340.364V65.3931H339.07V65.6567H337.776V65.9204H336.999V66.1841H335.964V66.4478H335.187V66.7115H334.152V66.9751H333.117V67.2388H332.34V67.5025H331.305V67.7662H330.528V68.0298H329.493V68.2935H328.717V68.5572H327.94V68.8209H327.164V69.0846H326.387V69.3483H325.611V69.612H324.834V69.8756H324.058V70.1393H323.281V70.403H322.505V70.6667H321.728V70.9304H321.211V71.194H320.434V71.4577H319.658V71.7214H318.881V71.9851H318.363V72.2488H317.587V72.5125H317.069V72.7761H316.293V73.0398H315.775V73.3035H315.257V73.5672H314.481V73.8308H313.963V74.0945H313.187V74.3582H312.669V74.6219H311.893V74.8856H311.375V75.1493H310.598V75.4129H310.081V75.6766H309.563V75.9403H309.045V76.204H308.528V76.4677H308.01V76.7314H307.492V76.9951H306.975V77.2587H306.198V77.5224H305.681V77.7861H305.163V78.0497H304.645V78.3135H304.128V78.5771H303.61V78.8408H303.092V79.1045H302.575V79.3682H302.057V79.6319H301.539V79.8955H301.022V80.1592H300.504V80.4229H299.986V80.6866H299.469V80.9503H298.951V81.2139H298.433V81.4776H298.174V81.7413H297.657V82.005H297.139V82.2687H296.621V82.5323H296.104V82.796H295.586V83.0597H295.327V83.3234H294.81V83.5871H294.292V83.8508H293.774V84.1144H293.257V84.3781H292.739V84.6418H292.48V84.9055H291.963V85.1692H291.445V85.4329H291.186V85.6965H290.668V85.9602H290.151V86.2239H289.892V86.4876H289.374V86.7513H289.115V87.0149H288.598V87.2786H288.08V87.5423H287.821V87.806H287.304V88.0696H286.786V88.3333H286.527V88.597H286.009V88.8607H285.751V89.1244H285.233V89.3881H284.715V89.6517H284.456V89.9154H283.939V90.1791H283.68V90.4428H283.162V90.7065H282.903V90.9702H282.386V91.2338H282.127V91.4975H281.609V91.7612H281.35V92.0249H280.833V92.2886H280.574V92.5523H280.056V92.8159H279.797V93.0796H279.539V93.3433H279.021V93.607H278.762V93.8707H278.244V94.1343H277.986V94.398H277.468V94.6617H277.209V94.9254H276.691V95.1891H276.433V95.4528H276.174V95.7164H275.656V95.9801H275.397V96.2438H274.88V96.5075H274.621V96.7711H274.362V97.0348H273.844V97.2985H273.585V97.5622H273.327V97.8259H273.068V98.0896H272.55V98.3532H272.291V98.6169H272.032V98.8806H271.515V99.1443H271.256V99.408H270.997V99.6717H270.479V99.9353H270.221V100.199H269.962V100.463H269.703V100.726H269.185V100.99H268.926V101.254H268.668V101.517H268.15V101.781H267.891V102.045H267.632V102.308H267.115V102.572H266.856V102.836H266.597V103.1H266.338V103.363H266.079V103.627H265.82V103.891H265.303V104.154H265.044V104.418H264.785V104.682H264.526V104.945H264.267V105.209H264.009V105.473H263.491V105.736H263.232V106H262.973V106.264H262.714V106.527H262.456V106.791H262.197V107.055H261.679V107.318H261.42V107.582H261.161V107.846H260.903V108.109H260.644V108.373H260.385V108.637H259.867V108.901H259.609V109.164H259.35V109.428H259.091V109.692H258.832V109.955H258.573V110.219H258.314V110.483H258.056V110.746H257.797V111.01H257.538V111.274H257.279V111.537H257.02V111.801H256.761V112.065H256.503V112.328H256.244V112.592H255.985V112.856H255.467V113.119H255.208V113.383H254.95V113.647H254.691V113.91H254.432V114.174H254.173V114.438H253.914V114.701H253.655V114.965H253.397V115.229H253.138V115.493H252.879V115.756H252.62V116.02H252.361V116.284H252.102V116.547H251.844V116.811H251.585V117.075H251.326V117.338H251.067V117.602H250.808V117.866H250.549V118.129H250.291V118.393H250.032V118.657H249.773V118.92H249.514V119.184H249.255V119.711H248.996V119.975H248.738V120.239H248.479V120.503H248.22V120.766H247.961V121.03H247.702V121.294H247.443V121.557H247.185V121.821H246.926V122.085H246.667V122.348H246.408V122.612H246.149V122.876H245.89V123.139H245.632V123.403H245.373V123.667H245.114V124.194H244.855V124.458H244.596V124.721H244.337V124.985H244.079V125.249H243.82V125.776H243.561V126.04H243.302V126.303H243.043V126.567H242.784V126.831H242.526V127.095H242.267V127.622H242.008V127.886H241.749V128.149H241.49V128.413H241.231V128.677H240.973V129.204H240.714V129.468H240.455V129.731H240.196V129.995H239.937V130.259H239.678V130.522H239.42V131.05H239.161V131.313H238.902V131.577H238.643V131.841H238.384V132.368H238.125V132.632H237.867V132.896H237.608V133.423H237.349V133.687H237.09V133.95H236.831V134.478H236.572V134.741H236.314V135.005H236.055V135.532H235.796V135.796H235.537V136.06H235.278V136.587H235.019V136.851H234.761V137.114H234.502V137.642H234.243V137.905H233.984V138.169H233.725V138.697H233.466V138.96H233.208V139.224H232.949V139.751H232.69V140.015H232.431V140.542H232.172V140.806H231.913V141.333H231.655V141.597H231.396V142.124H231.137V142.388H230.878V142.915H230.619V143.179H230.361V143.706H230.102V143.97H229.843V144.498H229.584V144.761H229.325V145.289H229.066V145.552H228.807V146.08H228.549V146.343H228.29V146.871H228.031V147.134H227.772V147.662H227.513V147.925H227.255V148.453H226.996V148.98H226.737V149.244H226.478V149.771H226.219V150.299H225.96V150.826H225.702V151.09H225.443V151.617H225.184V152.144H224.925V152.672H224.666V152.935H224.407V153.463H224.149V153.99H223.89V154.517H223.631V154.781H223.372V155.308H223.113V155.836H222.854V156.363H222.596V156.627H222.337V157.154H222.078V157.682H221.819V158.209H221.56V158.736H221.301V159.264H221.043V159.791H220.784V160.318H220.525V160.846H220.266V161.637H220.007V162.164H219.748V162.692H219.49V163.219H219.231V163.746H218.972V164.274H218.713V164.801H218.454V165.328H218.195V165.856H217.937V166.383H217.678V167.174H217.419V167.702H217.16V168.493H216.901V169.02H216.642V169.811H216.384V170.338H216.125V170.866H215.866V171.657H215.607V172.184H215.348V172.975H215.089V173.502H214.831V174.294H214.572V174.821H214.313V175.612H214.054V176.403H213.795V177.194H213.536V177.985H213.278V178.776H213.019V179.567H212.76V180.622H212.501V181.413H212.242V182.204H211.983V182.995H211.725V183.786H211.466V184.577H211.207V185.632H210.948V186.687H210.689V188.005H210.43V189.06H210.172V190.114H209.913V191.169H209.654V192.224H209.395V193.279H209.136V194.861H208.877V196.443H208.619V198.289H208.36V199.871H208.101V201.453H207.842V203.299H207.583V206.463H207.324V210.418H207.066V223.075H207.324V225.448H207.583V228.085H207.842V230.458H208.101V232.831H208.36V234.149H208.619V235.204H208.877V236.522H209.136V237.841H209.395V239.159H209.654V240.478H209.913V241.796H210.172V242.851H210.43V243.905H210.689V244.697H210.948V245.751H211.207V246.542H211.466V247.597H211.725V248.388H211.983V249.443H212.242V250.234H212.501V251.025H212.76V251.816H213.019V252.343H213.278V252.871H213.536V253.398H213.795V254.189H214.054V254.453H214.313V254.98H214.572V255.507H214.831V256.035H215.089V256.562H215.348V257.09H215.607V257.617H215.866V258.144H216.125V258.672H216.384V259.199H216.642V259.463H216.901V259.99H217.16V260.517H217.419V260.781H217.678V261.308H217.937V261.836H218.195V262.1H218.454V262.627H218.713V263.154H218.972V263.682H219.231V263.945H219.49V264.473H219.748V265H220.007V265.264H220.266V265.791H220.525V266.055H220.784V266.582H221.043V266.846H221.301V267.373H221.56V267.637H221.819V268.164H222.078V268.428H222.337V268.955H222.596V269.219H222.854V269.746H223.113V270.01H223.372V270.537H223.631V270.801H223.89V271.328H224.149V271.592H224.407V272.119H224.666V272.383H224.925V272.647H225.184V273.174H225.443V273.438H225.702V273.701H225.96V274.229H226.219V274.493H226.478V274.756H226.737V275.284H226.996V275.547H227.255V275.811H227.513V276.338H227.772V276.602H228.031V276.866H228.29V277.393H228.549V277.657H228.807V277.92H229.066V278.184H229.325V278.448H229.584V278.711H229.843V279.239H230.102V279.502H230.361V279.766H230.619V280.03H230.878V280.294H231.137V280.821H231.396V281.085H231.655V281.348H231.913V281.612H232.172V281.876H232.431V282.139H232.69V282.667H232.949V282.93H233.208V283.194H233.466V283.458H233.725V283.721H233.984V283.985H234.243V284.249H234.502V284.512H234.761V284.776H235.019V285.04H235.278V285.303H235.537V285.567H235.796V285.831H236.055V286.095H236.314V286.358H236.572V286.622H236.831V286.886H237.09V287.149H237.349V287.413H237.608V287.94H238.125V288.204H238.384V288.468H238.643V288.731H238.902V288.995H239.161V289.259H239.42V289.522H239.678V289.786H239.937V290.05H240.196V290.313H240.455V290.577H240.714V290.841H240.973V291.104H241.231V291.368H241.49V291.632H242.008V291.896H242.267V292.159H242.526V292.423H242.784V292.687H243.043V292.95H243.302V293.214H243.561V293.478H244.079V293.741H244.337V294.005H244.596V294.269H244.855V294.532H245.114V294.796H245.632V295.06H245.89V295.323H246.149V295.587H246.408V295.851H246.667V296.114H247.185V296.378H247.443V296.642H247.702V296.905H247.961V297.169H248.479V297.433H248.738V297.697H248.996V297.96H249.514V298.224H249.773V298.488H250.032V298.751H250.549V299.015H250.808V299.279H251.067V299.542H251.585V299.806H251.844V300.07H252.102V300.333H252.62V300.597H252.879V300.861H253.138V301.124H253.655V301.388H253.914V301.652H254.432V301.915H254.691V302.179H255.208V302.443H255.467V302.706H255.985V302.97H256.244V303.234H256.761V303.498H257.02V303.761H257.538V304.025H257.797V304.289H258.314V304.552H258.573V304.816H259.091V305.08H259.609V305.343H259.867V305.607H260.385V305.871H260.903V306.134H261.161V306.398H261.679V306.662H262.197V306.925H262.714V307.189H262.973V307.453H263.491V307.716H264.009V307.98H264.267V308.244H264.785V308.507H265.303V308.771H265.82V309.035H266.338V309.299H266.856V309.562H267.115V309.826H267.632V310.09H268.15V310.353H268.668V310.617H269.185V310.881H269.703V311.144H270.221V311.408H270.738V311.672H271.256V311.935H271.774V312.199H272.291V312.463H272.809V312.726H273.327V312.99H274.103V313.254H274.621V313.517H275.138V313.781H275.656V314.045H276.174V314.308H276.691V314.572H277.209V314.836H277.986V315.099H278.503V315.363H279.28V315.627H279.797V315.891H280.574V316.154H281.092V316.418H281.609V316.682H282.386V316.945H282.903V317.209H283.68V317.473H284.198V317.736H284.974V318H285.751V318.264H286.527V318.527H287.304V318.791H287.821V319.055H288.598V319.318H289.374V319.582H290.151V319.846H290.927V320.109H291.704V320.373H292.48V320.637H293.257V320.9H294.033V321.164H294.81V321.428H295.845V321.692H296.621V321.955H297.398V322.219H298.433V322.483H299.21V322.746H300.245V323.01H301.28V323.274H302.057V323.537H303.092V323.801H304.128V324.065H305.163V324.328H306.198V324.592H307.234V324.856H308.269V325.119H309.563V325.383H310.598V325.647H311.634V325.91H312.928V326.174H314.222V326.438H315.516V326.701H317.069V326.965H318.363V327.229H319.658V327.493H321.211V327.756H322.764V328.02H324.317V328.284H325.87V328.547H327.681V328.811H329.752V329.075H331.564V329.338H333.634V329.602H335.705V329.866H338.293V330.129H340.623V330.393H343.47V330.657H346.835V330.92H350.2V331.184H354.859V331.448H360.812V331.711H387.73V331.448H394.719V331.184H399.895V330.92H404.037V330.657H407.919V330.393H411.543V330.129H414.649V329.866H418.014V329.602H420.861V329.338H423.449V329.075H426.296V328.811H428.626V328.547H431.214V328.284H433.544V328.02H435.873V327.756H438.203V327.493H440.273V327.229H442.344V326.965H444.415V326.701H446.485V326.438H448.556V326.174H450.368V325.91H452.438V325.647H454.25V325.383H456.062V325.119H457.874V324.856H459.686V324.592H461.497V324.328H463.309V324.065H465.121V323.801H466.674V323.537H468.486V323.274H470.039V323.01H471.851V322.746H473.404V322.483H475.216V322.219H476.769V321.955H478.322V321.692H479.875V321.428H481.428V321.164H482.981V320.9H484.534V320.637H486.087V320.373H487.64V320.109H488.934V319.846H490.487V319.582H492.04V319.318H493.593V319.055H494.887V318.791H496.44V318.527H497.734V318.264H499.287V318H500.84V317.736H502.134V317.473H503.428V317.209H504.981V316.945H506.275V316.682H507.57V316.418H509.123V316.154H510.417V315.891H511.711V315.627H513.264V315.363H514.558V315.099H515.852V314.836H517.146V314.572H518.441V314.308H519.735V314.045H521.029V313.781H522.582V313.517H523.876V313.254H525.17V312.99H526.464V312.726H527.758V312.463H529.053V312.199H530.347V311.935H531.382V311.672H532.676V311.408H533.97V311.144H535.265V310.881H536.559V310.617H537.853V310.353H539.147V310.09H540.441V309.826H541.477V309.562H542.771V309.299H544.065V309.035H545.359V308.771H546.653V308.507H547.689V308.244H548.983V307.98H550.277V307.716H551.312V307.453H552.606V307.189H553.901V306.925H555.195V306.662H556.23V306.398H557.524V306.134H558.818V305.871H559.854V305.607H561.148V305.343H562.183V305.08H563.477V304.816H564.771V304.552H565.807V304.289H567.101V304.025H568.136V303.761H569.43V303.498H570.725V303.234H571.76V302.97H573.054V302.706H574.089V302.443H575.384V302.179H576.419V301.915H577.713V301.652H578.748V301.388H580.043V301.124H581.078V300.861H582.372V300.597H583.407V300.333H584.702V300.07H585.737V299.806H587.031V299.542H588.066V299.279H589.36V299.015H590.396V298.751H591.69V298.488H592.725V298.224H594.019V297.96H595.055V297.697H596.349V297.433H597.384V297.169H598.678V296.905H599.714V296.642H600.749V296.378H602.043V296.114H603.079V295.851H604.373V295.587H605.408V295.323H606.702V295.06H607.738V294.796H609.032V294.532H610.067V294.269H611.102V294.005H612.397V293.741H613.432V293.478H614.726V293.214H615.761V292.95H617.056V292.687H618.091V292.423H619.385V292.159H620.42V291.896H621.456V291.632H622.75V291.368H623.785V291.104H625.079V290.841H626.115V290.577H627.409V290.313H628.444V290.05H629.738V289.786H630.774V289.522H632.068V289.259H633.103V288.995H634.397V288.731H635.433V288.468H636.727V288.204H637.762V287.94H639.056V287.677H640.092V287.413H641.386V287.149H642.421V286.886H643.715V286.622H644.751V286.358H646.045V286.095H647.08V285.831H648.374V285.567H649.41V285.303H650.704V285.04H651.739V284.776H653.033V284.512H654.327V284.249H655.363V283.985H656.657V283.721H657.692V283.458H658.986V283.194H660.28V282.93H661.316V282.667H662.61V282.403H663.904V282.139H664.939V281.876H666.234V281.612H667.528V281.348H668.563V281.085H669.857V280.821H671.151V280.557H672.187V280.294H673.481V280.03H674.775V279.766H676.069V279.502H677.363V279.239H678.399V278.975H679.693V278.711H680.987V278.448H682.281V278.184H683.575V277.92H684.87V277.657H686.164V277.393H687.458V277.129H688.752V276.866H690.046V276.602H691.34V276.338H692.634V276.075H693.929V275.811H695.223V275.547H696.517V275.284H697.811V275.02H699.364V274.756H700.658V274.493H701.952V274.229H703.247V273.965H704.8V273.701H706.094V273.438H707.388V273.174H708.941V272.91H710.235V272.647H711.788V272.383H713.082V272.119H714.635V271.856H716.188V271.592H717.482V271.328H718V271.856H716.965V272.119H716.188V272.383H715.412V272.647H714.376V272.91H713.6V273.174H712.565V273.438H711.788V273.701H711.012V273.965H709.976V274.229H709.2V274.493H708.164V274.756H707.388V275.02H706.611V275.284H705.576V275.547H704.8V275.811H703.764V276.075H702.988V276.338H701.952V276.602H701.176V276.866H700.399V277.129H699.364V277.393H698.588V277.657H697.552V277.92H696.776V278.184H695.999V278.448H694.964V278.711H694.188V278.975H693.152V279.239H692.376V279.502H691.34V279.766H690.564V280.03H689.787V280.294H688.752V280.557H687.976V280.821H686.94V281.085H686.164V281.348H685.128V281.612H684.352V281.876H683.575V282.139H682.54V282.403H681.764V282.667H680.728V282.93H679.952V283.194H678.916V283.458H678.14V283.721H677.363V283.985H676.328V284.249H675.552V284.512H674.516V284.776H673.74V285.04H672.704V285.303H671.928V285.567H670.893V285.831H670.116V286.095H669.34V286.358H668.304V286.622H667.528V286.886H666.492V287.149H665.716V287.413H664.681V287.677H663.904V287.94H662.869V288.204H662.092V288.468H661.316V288.731H660.28V288.995H659.504V289.259H658.469V289.522H657.692V289.786H656.657V290.05H655.88V290.313H654.845V290.577H654.068V290.841H653.033V291.104H652.257V291.368H651.48V291.632H650.445V291.896H649.668V292.159H648.633V292.423H647.857V292.687H646.821V292.95H646.045V293.214H645.009V293.478H644.233V293.741H643.198V294.005H642.421V294.269H641.386V294.532H640.609V294.796H639.833V295.06H638.797V295.323H638.021V295.587H636.986V295.851H636.209V296.114H635.174V296.378H634.397V296.642H633.362V296.905H632.585V297.169H631.55V297.433H630.774V297.697H629.738V297.96H628.962V298.224H627.926V298.488H627.15V298.751H626.115V299.015H625.338V299.279H624.562V299.542H623.526V299.806H622.75V300.07H621.715V300.333H620.938V300.597H619.903V300.861H619.126V301.124H618.091V301.388H617.314V301.652H616.279V301.915H615.503V302.179H614.467V302.443H613.691V302.706H612.655V302.97H611.879V303.234H610.844V303.498H610.067V303.761H609.032V304.025H608.255V304.289H607.22V304.552H606.443V304.816H605.408V305.08H604.632V305.343H603.596V305.607H602.82V305.871H601.784V306.134H601.008V306.398H599.973V306.662H599.196V306.925H598.161V307.189H597.384V307.453H596.349V307.716H595.573V307.98H594.537V308.244H593.761V308.507H592.725V308.771H591.949V309.035H590.914V309.299H590.137V309.562H589.102V309.826H588.325V310.09H587.29V310.353H586.513V310.617H585.478V310.881H584.702V311.144H583.666V311.408H582.89V311.672H581.854V311.935H580.819V312.199H580.043V312.463H579.007V312.726H578.231V312.99H577.195V313.254H576.419V313.517H575.384V313.781H574.607V314.045H573.572V314.308H572.795V314.572H571.76V314.836H570.983V315.099H569.948V315.363H569.172V315.627H568.136V315.891H567.36V316.154H566.324V316.418H565.289V316.682H564.513V316.945H563.477V317.209H562.701V317.473H561.665V317.736H560.889V318H559.854V318.264H559.077V318.527H558.042V318.791H557.265V319.055H556.23V319.318H555.195V319.582H554.418V319.846H553.383V320.109H552.606V320.373H551.571V320.637H550.795V320.9H549.759V321.164H548.983V321.428H547.947V321.692H546.912V321.955H546.136V322.219H545.1V322.483H544.324V322.746H543.288V323.01H542.253V323.274H541.477V323.537H540.441V323.801H539.665V324.065H538.629V324.328H537.853V324.592H536.818V324.856H535.782V325.119H535.006V325.383H533.97V325.647H533.194V325.91H532.159V326.174H531.382V326.438H530.347V326.701H529.312V326.965H528.535V327.229H527.5V327.493H526.723V327.756H525.688V328.02H524.653V328.284H523.876V328.547H522.841V328.811H522.064V329.075H521.029V329.338H519.994V329.602H519.217V329.866H518.182V330.129H517.146V330.393H516.37V330.657H515.335V330.92H514.558V331.184H513.523V331.448H512.487V331.711H511.711V331.975H510.676V332.239H509.64V332.502H508.864V332.766H507.828V333.03H507.052V333.294H506.017V333.557H504.981V333.821H504.205V334.085H503.169V334.348H502.134V334.612H501.358V334.876H500.322V335.139H499.287V335.403H498.51V335.667H497.475V335.93H496.44V336.194H495.663V336.458H494.628V336.721H493.593V336.985H492.816V337.249H491.781V337.512H490.745V337.776H489.969V338.04H488.934V338.303H487.898V338.567H487.122V338.831H486.087V339.095H485.051V339.358H484.275V339.622H483.239V339.886H482.204V340.149H481.169V340.413H480.392V340.677H479.357V340.94H478.322V341.204H477.545V341.468H476.51V341.731H475.474V341.995H474.439V342.259H473.663V342.522H472.627V342.786H471.592V343.05H470.557V343.313H469.78V343.577H468.745V343.841H467.709V344.104H466.674V344.368H465.898V344.632H464.862V344.896H463.827V345.159H462.792V345.423H462.015V345.687H460.98V345.95H459.945V346.214H458.909V346.478H457.874V346.741H457.097V347.005H456.062V347.269H455.027V347.532H453.991V347.796H452.956V348.06H452.18V348.323H451.144V348.587H450.109V348.851H449.074V349.114H448.038V349.378H447.003V349.642H445.968V349.905H445.191V350.169H444.156V350.433H443.12V350.697H442.085V350.96H441.05V351.224H440.014V351.488H438.979V351.751H437.944V352.015H436.908V352.279H435.873V352.542H434.838V352.806H434.061V353.07H433.026V353.333H431.991V353.597H430.955V353.861H429.92V354.124H428.885V354.388H427.849V354.652H426.814V354.915H425.52V355.179H424.484V355.443H423.449V355.706H422.414V355.97H421.379V356.234H420.343V356.498H419.308V356.761H418.273V357.025H417.237V357.289H415.943V357.552H414.908V357.816H413.872V358.08H412.837V358.343H411.802V358.607H410.508V358.871H409.472V359.134H408.178V359.398H407.143V359.662H406.107V359.925H404.813V360.189H403.778V360.453H402.484V360.716H401.448V360.98H400.154V361.244H398.86V361.507H397.825V361.771H396.531V362.035H395.237V362.299H394.201V362.562H392.907V362.826H391.613V363.09H390.319V363.353H389.025V363.617H387.73V363.881H386.695V364.144H385.142V364.408H383.848V364.672H382.554V364.935H381.26V365.199H379.965V365.463H378.671V365.726H377.118V365.99H375.565V366.254H374.271V366.517H372.718V366.781H371.424V367.045H369.871V367.308H368.059V367.572H366.506V367.836H364.953V368.1H363.141V368.363H361.33V368.627H359.518V368.891H357.447V369.154H355.635V369.418H353.306V369.682H350.976V369.945H348.647V370.209H345.541V370.473H342.176V370.736H337.517V371H318.363ZM368.059 315.891V315.627H362.624V315.363H359.518V315.099H356.671V314.836H354.082V314.572H352.27V314.308H350.459V314.045H348.647V313.781H346.835V313.517H345.541V313.254H344.247V312.99H342.952V312.726H341.399V312.463H340.105V312.199H338.811V311.935H337.776V311.672H336.74V311.408H335.705V311.144H334.929V310.881H333.893V310.617H332.858V310.353H331.823V310.09H330.787V309.826H330.011V309.562H329.234V309.299H328.458V309.035H327.423V308.771H326.646V308.507H325.87V308.244H325.093V307.98H324.317V307.716H323.54V307.453H322.764V307.189H321.987V306.925H321.469V306.662H320.693V306.398H320.175V306.134H319.399V305.871H318.622V305.607H318.105V305.343H317.328V305.08H316.81V304.816H316.293V304.552H316.034V304.289H316.552V304.552H317.328V304.816H318.105V305.08H318.881V305.343H319.916V305.607H320.952V305.871H321.987V306.134H323.022V306.398H324.058V306.662H325.352V306.925H326.905V307.189H328.199V307.453H329.752V307.716H331.305V307.98H332.858V308.244H334.67V308.507H337.776V308.771H340.623V309.035H355.376V308.771H359V308.507H362.106V308.244H363.918V307.98H365.73V307.716H367.541V307.453H369.353V307.189H370.906V306.925H372.2V306.662H373.495V306.398H374.53V306.134H375.824V305.871H377.118V305.607H378.412V305.343H379.448V305.08H380.483V304.816H381.518V304.552H382.295V304.289H383.33V304.025H384.366V303.761H385.142V303.498H386.177V303.234H386.954V302.97H387.989V302.706H389.025V302.443H389.801V302.179H390.578V301.915H391.354V301.652H391.872V301.388H392.648V301.124H393.425V300.861H394.201V300.597H394.978V300.333H395.754V300.07H396.531V299.806H397.307V299.542H398.084V299.279H398.601V299.015H399.378V298.751H399.895V298.488H400.672V298.224H401.19V297.96H401.966V297.697H402.484V297.433H403.001V297.169H403.778V296.905H404.296V296.642H405.072V296.378H405.59V296.114H406.366V295.851H406.884V295.587H407.66V295.323H408.178V295.06H408.696V294.796H409.213V294.532H409.731V294.269H410.249V294.005H410.766V293.741H411.284V293.478H411.802V293.214H412.578V292.95H413.096V292.687H413.614V292.423H414.131V292.159H414.649V291.896H415.167V291.632H415.684V291.368H416.202V291.104H416.72V290.841H417.237V290.577H417.755V290.313H418.273V290.05H418.79V289.786H419.049V289.522H419.567V289.259H420.084V288.995H420.602V288.731H421.12V288.468H421.637V288.204H421.896V287.94H422.414V287.677H422.932V287.413H423.449V287.149H423.967V286.886H424.484V286.622H424.743V286.358H425.261V286.095H425.779V285.831H426.296V285.567H426.555V285.303H427.073V285.04H427.591V284.776H427.849V284.512H428.367V284.249H428.626V283.985H429.143V283.721H429.661V283.458H429.92V283.194H430.438V282.93H430.955V282.667H431.214V282.403H431.732V282.139H431.991V281.876H432.508V281.612H433.026V281.348H433.285V281.085H433.802V280.821H434.32V280.557H434.579V280.294H434.838V280.03H435.355V279.766H435.614V279.502H436.132V279.239H436.391V278.975H436.908V278.711H437.167V278.448H437.685V278.184H437.944V277.92H438.203V277.657H438.72V277.393H438.979V277.129H439.497V276.866H439.756V276.602H440.273V276.338H440.532V276.075H441.05V275.811H441.309V275.547H441.826V275.284H442.085V275.02H442.344V274.756H442.862V274.493H443.12V274.229H443.379V273.965H443.897V273.701H444.156V273.438H444.415V273.174H444.932V272.91H445.191V272.647H445.45V272.383H445.709V272.119H446.226V271.856H446.485V271.592H446.744V271.328H447.262V271.065H447.521V270.801H447.779V270.537H448.297V270.274H448.556V270.01H448.815V269.746H449.074V269.483H449.591V269.219H449.85V268.955H450.109V268.692H450.627V268.428H450.885V268.164H451.144V267.901H451.403V267.637H451.662V267.373H452.18V267.109H452.438V266.846H452.697V266.582H452.956V266.318H453.215V266.055H453.474V265.791H453.991V265.527H454.25V265.264H454.509V265H454.768V264.736H455.027V264.473H455.286V264.209H455.803V263.945H456.062V263.682H456.321V263.418H456.58V263.154H456.839V262.891H457.097V262.627H457.615V262.363H457.874V262.1H458.133V261.836H458.392V261.572H458.65V261.308H458.909V261.045H459.168V260.781H459.427V260.517H459.686V260.254H459.945V259.99H460.203V259.726H460.721V259.463H460.98V259.199H461.239V258.935H461.497V258.672H461.756V258.408H462.015V258.144H462.274V257.881H462.533V257.617H462.792V257.353H463.05V257.09H463.309V256.826H463.568V256.562H463.827V256.299H464.086V256.035H464.345V255.771H464.603V255.507H464.862V255.244H465.121V254.98H465.38V254.716H465.639V254.453H465.898V254.189H466.156V253.925H466.415V253.662H466.674V253.398H466.933V253.134H467.192V252.871H467.451V252.607H467.709V252.343H467.968V252.08H468.227V251.816H468.486V251.552H468.745V251.289H469.004V251.025H469.262V250.761H469.521V250.498H469.78V250.234H470.039V249.706H470.298V249.443H470.557V249.179H470.815V248.915H471.074V248.652H471.333V248.388H471.592V248.124H471.851V247.861H472.11V247.597H472.368V247.333H472.627V247.07H472.886V246.806H473.145V246.279H473.404V246.015H473.663V245.751H473.921V245.488H474.18V245.224H474.439V244.96H474.698V244.433H474.957V244.169H475.216V243.905H475.474V243.642H475.733V243.378H475.992V242.851H476.251V242.587H476.51V242.323H476.769V242.06H477.027V241.796H477.286V241.532H477.545V241.005H477.804V240.741H478.063V240.478H478.322V240.214H478.58V239.95H478.839V239.423H479.098V239.159H479.357V238.896H479.616V238.632H479.875V238.104H480.133V237.841H480.392V237.577H480.651V237.05H480.91V236.786H481.169V236.522H481.428V235.995H481.686V235.731H481.945V235.468H482.204V234.94H482.463V234.677H482.722V234.413H482.981V233.886H483.239V233.622H483.498V233.358H483.757V232.831H484.016V232.567H484.275V232.303H484.534V231.776H484.792V231.512H485.051V231.249H485.31V230.721H485.569V230.458H485.828V229.93H486.087V229.667H486.345V229.139H486.604V228.876H486.863V228.348H487.122V227.821H487.381V227.557H487.64V227.03H487.898V226.766H488.157V226.239H488.416V225.975H488.675V225.448H488.934V225.184H489.193V224.657H489.451V224.393H489.71V223.866H489.969V223.602H490.228V223.075H490.487V222.811H490.745V222.284H491.004V221.756H491.263V221.493H491.522V220.965H491.781V220.438H492.04V219.91H492.298V219.647H492.557V219.119H492.816V218.592H493.075V218.065H493.334V217.801H493.593V217.274H493.852V216.746H494.11V216.483H494.369V215.955H494.628V215.428H494.887V214.901H495.146V214.637H495.404V214.109H495.663V213.582H495.922V213.055H496.181V212.527H496.44V212H496.699V211.473H496.957V210.945H497.216V210.418H497.475V209.891H497.734V209.363H497.993V208.836H498.252V208.045H498.51V207.517H498.769V206.99H499.028V206.463H499.287V205.935H499.546V205.408H499.805V204.881H500.064V204.353H500.322V203.562H500.581V203.035H500.84V202.244H501.099V201.716H501.358V200.925H501.616V200.398H501.875V199.871H502.134V199.08H502.393V198.552H502.652V197.761H502.911V197.234H503.169V196.443H503.428V195.915H503.687V195.124H503.946V194.333H504.205V193.542H504.464V192.751H504.722V191.697H504.981V190.905H505.24V190.114H505.499V189.323H505.758V188.532H506.017V187.741H506.275V186.95H506.534V185.896H506.793V184.841H507.052V183.786H507.311V182.731H507.57V181.677H507.828V180.622H508.087V179.303H508.346V178.249H508.605V177.194H508.864V175.612H509.123V174.03H509.381V172.448H509.64V170.602H509.899V169.02H510.158V167.174H510.417V163.483H510.676V159.791H510.934V149.244H510.676V145.816H510.417V143.443H510.158V141.07H509.899V138.697H509.64V137.114H509.381V135.796H509.123V134.478H508.864V133.159H508.605V131.841H508.346V130.786H508.087V129.468H507.828V128.149H507.57V127.358H507.311V126.303H507.052V125.512H506.793V124.458H506.534V123.667H506.275V122.612H506.017V121.821H505.758V120.766H505.499V119.975H505.24V119.448H504.981V118.657H504.722V118.129H504.464V117.338H504.205V116.811H503.946V116.284H503.687V116.02H503.428V115.493H503.169V114.965H502.911V114.438H502.652V113.91H502.393V113.383H502.134V112.856H501.875V112.328H501.616V111.801H501.358V111.537H501.099V111.01H500.84V110.483H500.581V110.219H500.322V109.692H500.064V109.164H499.805V108.637H499.546V108.373H499.287V107.846H499.028V107.318H498.769V107.055H498.51V106.527H498.252V106H497.993V105.736H497.734V105.209H497.475V104.682H497.216V104.418H496.957V103.891H496.699V103.627H496.44V103.1H496.181V102.836H495.922V102.308H495.663V102.045H495.404V101.517H495.146V101.254H494.887V100.726H494.628V100.463H494.369V99.9353H494.11V99.6717H493.852V99.1443H493.593V98.8806H493.334V98.6169H493.075V98.0896H492.816V97.8259H492.557V97.5622H492.298V97.2985H492.04V96.7711H491.781V96.5075H491.522V96.2438H491.263V95.7164H491.004V95.4528H490.745V95.1891H490.487V94.6617H490.228V94.398H489.969V94.1343H489.71V93.607H489.451V93.3433H489.193V93.0796H488.934V92.8159H488.675V92.2886H488.416V92.0249H488.157V91.7612H487.898V91.4975H487.64V91.2338H487.381V90.9702H487.122V90.4428H486.863V90.1791H486.604V89.9154H486.345V89.6517H486.087V89.3881H485.828V89.1244H485.569V88.597H485.31V88.3333H485.051V88.0696H484.792V87.806H484.534V87.5423H484.275V87.2786H484.016V87.0149H483.757V86.7513H483.498V86.4876H483.239V86.2239H482.981V85.9602H482.722V85.6965H482.463V85.4329H482.204V85.1692H481.945V84.6418H481.686V84.3781H481.428V84.1144H481.169V83.8508H480.91V83.5871H480.651V83.3234H480.392V83.0597H480.133V82.796H479.875V82.5323H479.616V82.2687H479.357V82.005H479.098V81.7413H478.58V81.4776H478.322V81.2139H478.063V80.9503H477.804V80.6866H477.545V80.4229H477.286V80.1592H477.027V79.8955H476.769V79.6319H476.51V79.3682H476.251V79.1045H475.992V78.8408H475.733V78.5771H475.474V78.3135H474.957V78.0497H474.698V77.7861H474.439V77.5224H474.18V77.2587H473.921V76.9951H473.404V76.7314H473.145V76.4677H472.886V76.204H472.627V75.9403H472.368V75.6766H471.851V75.4129H471.592V75.1493H471.333V74.8856H471.074V74.6219H470.815V74.3582H470.298V74.0945H470.039V73.8308H469.78V73.5672H469.521V73.3035H469.004V73.0398H468.745V72.7761H468.486V72.5125H467.968V72.2488H467.709V71.9851H467.451V71.7214H466.933V71.4577H466.674V71.194H466.156V70.9304H465.898V70.6667H465.639V70.403H465.121V70.1393H464.862V69.8756H464.603V69.612H464.086V69.3483H463.827V69.0846H463.309V68.8209H463.05V68.5572H462.533V68.2935H462.274V68.0298H461.756V67.7662H461.497V67.5025H460.98V67.2388H460.721V66.9751H460.203V66.7115H459.945V66.4478H459.427V66.1841H459.168V65.9204H458.65V65.6567H458.133V65.3931H457.874V65.1294H457.356V64.8657H456.839V64.602H456.321V64.3383H456.062V64.0746H455.544V63.8109H455.027V63.5473H454.768V63.2836H454.25V63.0199H453.733V62.7563H453.474V62.4926H452.956V62.2289H452.438V61.9651H451.921V61.7015H451.403V61.4378H450.885V61.1741H450.368V60.9105H449.85V60.6468H449.591V60.3831H449.074V60.1194H448.556V59.8557H448.038V59.592H447.521V59.3284H447.003V59.0647H446.485V58.801H445.968V58.5373H445.45V58.2736H444.673V58.0099H444.156V57.7463H443.638V57.4826H443.12V57.2189H442.603V56.9552H442.085V56.6916H441.567V56.4279H440.791V56.1642H440.273V55.9005H439.756V55.6368H438.979V55.3732H438.461V55.1094H437.685V54.8458H437.167V54.5821H436.391V54.3184H435.873V54.0547H435.355V53.791H434.579V53.5274H434.061V53.2637H433.285V53H432.508V52.7363H431.732V52.4726H431.214V52.209H430.438V51.9453H429.661V51.6816H428.885V51.4179H428.108V51.1542H427.591V50.8906H426.814V50.6269H425.779V50.3632H425.002V50.0995H424.226V49.8358H423.449V49.5721H422.673V49.3085H421.896V49.0448H420.861V48.7811H420.084V48.5174H419.049V48.2537H418.273V47.9901H417.237V47.7263H416.202V47.4627H415.425V47.199H414.39V46.9353H413.355V46.6717H412.319V46.408H411.284V46.1443H409.99V45.8806H408.955V45.6169H407.919V45.3532H406.884V45.0896H405.59V44.8259H404.296V44.5622H403.001V44.2985H401.707V44.0348H400.413V43.7711H399.119V43.5075H397.566V43.2438H396.013V42.9801H394.46V42.7164H392.648V42.4528H391.095V42.1891H389.283V41.9254H387.213V41.6617H385.401V41.398H383.33V41.1343H381.001V40.8706H378.412V40.607H375.824V40.3433H372.718V40.0796H369.353V39.8159H365.471V39.5522H360.553V39.2886H352.529V39.0249H334.411V39.2886H326.128V39.5522H320.693V39.8159H315.775V40.0796H311.893V40.3433H308.01V40.607H304.904V40.8706H301.539V41.1343H298.692V41.398H295.845V41.6617H293.257V41.9254H290.41V42.1891H288.08V42.4528H285.751V42.7164H283.421V42.9801H280.833V43.2438H278.762V43.5075H276.691V43.7711H274.621V44.0348H272.55V44.2985H270.479V44.5622H268.409V44.8259H266.597V45.0896H264.526V45.3532H262.714V45.6169H260.903V45.8806H259.091V46.1443H257.279V46.408H255.467V46.6717H253.655V46.9353H252.102V47.199H250.291V47.4627H248.738V47.7263H246.926V47.9901H245.373V48.2537H243.561V48.5174H242.008V48.7811H240.455V49.0448H238.902V49.3085H237.349V49.5721H235.796V49.8358H234.243V50.0995H232.69V50.3632H231.137V50.6269H229.584V50.8906H228.29V51.1542H226.737V51.4179H225.184V51.6816H223.631V51.9453H222.337V52.209H220.784V52.4726H219.49V52.7363H217.937V53H216.642V53.2637H215.089V53.5274H213.795V53.791H212.242V54.0547H210.948V54.3184H209.654V54.5821H208.101V54.8458H206.807V55.1094H205.513V55.3732H204.218V55.6368H202.924V55.9005H201.371V56.1642H200.077V56.4279H198.783V56.6916H197.489V56.9552H196.195V57.2189H194.901V57.4826H193.606V57.7463H192.312V58.0099H191.018V58.2736H189.724V58.5373H188.43V58.801H187.136V59.0647H185.841V59.3284H184.547V59.592H183.253V59.8557H181.959V60.1194H180.665V60.3831H179.371V60.6468H178.335V60.9105H177.041V61.1741H175.747V61.4378H174.453V61.7015H173.159V61.9651H172.123V62.2289H170.829V62.4926H169.535V62.7563H168.241V63.0199H167.205V63.2836H165.911V63.5473H164.617V63.8109H163.582V64.0746H162.288V64.3383H160.994V64.602H159.958V64.8657H158.664V65.1294H157.37V65.3931H156.335V65.6567H155.04V65.9204H154.005V66.1841H152.711V66.4478H151.417V66.7115H150.381V66.9751H149.087V67.2388H148.052V67.5025H146.758V67.7662H145.464V68.0298H144.428V68.2935H143.134V68.5572H142.099V68.8209H140.805V69.0846H139.769V69.3483H138.475V69.612H137.44V69.8756H136.146V70.1393H135.11V70.403H133.816V70.6667H132.781V70.9304H131.487V71.194H130.451V71.4577H129.157V71.7214H128.122V71.9851H126.828V72.2488H125.792V72.5125H124.498V72.7761H123.463V73.0398H122.169V73.3035H121.133V73.5672H120.098V73.8308H118.804V74.0945H117.769V74.3582H116.474V74.6219H115.439V74.8856H114.145V75.1493H113.11V75.4129H111.815V75.6766H110.78V75.9403H109.486V76.204H108.451V76.4677H107.415V76.7314H106.121V76.9951H105.086V77.2587H103.792V77.5224H102.756V77.7861H101.462V78.0497H100.427V78.3135H99.1327V78.5771H98.0973V78.8408H97.062V79.1045H95.7678V79.3682H94.7325V79.6319H93.4384V79.8955H92.403V80.1592H91.1089V80.4229H90.0735V80.6866H88.7794V80.9503H87.7441V81.2139H86.4499V81.4776H85.4146V81.7413H84.1204V82.005H83.0851V82.2687H82.0498V82.5323H80.7556V82.796H79.7203V83.0597H78.4261V83.3234H77.3908V83.5871H76.0966V83.8508H75.0613V84.1144H73.7671V84.3781H72.473V84.6418H71.4376V84.9055H70.1435V85.1692H69.1082V85.4329H67.814V85.6965H66.7787V85.9602H65.4845V86.2239H64.4492V86.4876H63.155V86.7513H61.8609V87.0149H60.8255V87.2786H59.5314V87.5423H58.496V87.806H57.2019V88.0696H55.9077V88.3333H54.8724V88.597H53.5782V88.8607H52.2841V89.1244H51.2487V89.3881H49.9546V89.6517H48.6604V89.9154H47.3663V90.1791H46.3309V90.4428H45.0368V90.7065H43.7426V90.9702H42.7073V91.2338H41.4131V91.4975H40.119V91.7612H38.8248V92.0249H37.5306V92.2886H36.2365V92.5523H34.9423V92.8159H33.907V93.0796H32.6128V93.3433H31.3187V93.607H30.0245V93.8707H28.7304V94.1343H27.4362V94.398H26.142V94.6617H24.8479V94.9254H23.2949V95.1891H22.0007V95.4528H20.7066V95.7164H19.4124V95.9801H18.1182V96.2438H16.8241V96.5075H15.2711V96.7711H13.9769V97.0348H12.4239V97.2985H11.1298V97.5622H9.83562V97.8259H8.28262V98.0896H6.98846V98.3532H5.43547V98.6169H4.14131V98.8806H2.58832V99.1443H1.03533V99.408H0V99.1443H0.517664V98.8806H1.29416V98.6169H2.32949V98.3532H3.10598V98.0896H3.88248V97.8259H4.91781V97.5622H5.6943V97.2985H6.72963V97.0348H7.50613V96.7711H8.28262V96.5075H9.31795V96.2438H10.0944V95.9801H11.1298V95.7164H11.9063V95.4528H12.6828V95.1891H13.7181V94.9254H14.4946V94.6617H15.5299V94.398H16.3064V94.1343H17.0829V93.8707H18.1182V93.607H18.8947V93.3433H19.9301V93.0796H20.7066V92.8159H21.7419V92.5523H22.5184V92.2886H23.2949V92.0249H24.3302V91.7612H25.1067V91.4975H26.142V91.2338H26.9185V90.9702H27.9539V90.7065H28.7304V90.4428H29.5068V90.1791H30.5422V89.9154H31.3187V89.6517H32.354V89.3881H33.1305V89.1244H34.1658V88.8607H34.9423V88.597H35.7188V88.3333H36.7541V88.0696H37.5306V87.806H38.566V87.5423H39.3425V87.2786H40.3778V87.0149H41.1543V86.7513H41.9308V86.4876H42.9661V86.2239H43.7426V85.9602H44.7779V85.6965H45.5544V85.4329H46.5898V85.1692H47.3663V84.9055H48.4016V84.6418H49.1781V84.3781H49.9546V84.1144H50.9899V83.8508H51.7664V83.5871H52.8017V83.3234H53.5782V83.0597H54.6136V82.796H55.3901V82.5323H56.4254V82.2687H57.2019V82.005H57.9784V81.7413H59.0137V81.4776H59.7902V81.2139H60.8255V80.9503H61.602V80.6866H62.6374V80.4229H63.4138V80.1592H64.4492V79.8955H65.2257V79.6319H66.261V79.3682H67.0375V79.1045H67.814V78.8408H68.8493V78.5771H69.6258V78.3135H70.6611V78.0497H71.4376V77.7861H72.473V77.5224H73.2495V77.2587H74.2848V76.9951H75.0613V76.7314H76.0966V76.4677H76.8731V76.204H77.9084V75.9403H78.6849V75.6766H79.4614V75.4129H80.4968V75.1493H81.2733V74.8856H82.3086V74.6219H83.0851V74.3582H84.1204V74.0945H84.8969V73.8308H85.9322V73.5672H86.7087V73.3035H87.7441V73.0398H88.5206V72.7761H89.5559V72.5125H90.3324V72.2488H91.3677V71.9851H92.1442V71.7214H93.1795V71.4577H93.956V71.194H94.9913V70.9304H95.7678V70.6667H96.8032V70.403H97.5797V70.1393H98.3562V69.8756H99.3915V69.612H100.168V69.3483H101.203V69.0846H101.98V68.8209H103.015V68.5572H103.792V68.2935H104.827V68.0298H105.603V67.7662H106.639V67.5025H107.415V67.2388H108.451V66.9751H109.227V66.7115H110.262V66.4478H111.039V66.1841H112.074V65.9204H112.851V65.6567H113.886V65.3931H114.663V65.1294H115.698V64.8657H116.474V64.602H117.51V64.3383H118.286V64.0746H119.322V63.8109H120.098V63.5473H121.133V63.2836H121.91V63.0199H122.945V62.7563H123.722V62.4926H124.757V62.2289H125.534V61.9651H126.569V61.7015H127.345V61.4378H128.381V61.1741H129.157V60.9105H130.193V60.6468H130.969V60.3831H132.004V60.1194H133.04V59.8557H133.816V59.592H134.851V59.3284H135.628V59.0647H136.663V58.801H137.44V58.5373H138.475V58.2736H139.252V58.0099H140.287V57.7463H141.063V57.4826H142.099V57.2189H142.875V56.9552H143.911V56.6916H144.687V56.4279H145.722V56.1642H146.499V55.9005H147.534V55.6368H148.311V55.3732H149.346V55.1094H150.381V54.8458H151.158V54.5821H152.193V54.3184H152.97V54.0547H154.005V53.791H154.782V53.5274H155.817V53.2637H156.593V53H157.629V52.7363H158.405V52.4726H159.441V52.209H160.476V51.9453H161.252V51.6816H162.288V51.4179H163.064V51.1542H164.1V50.8906H164.876V50.6269H165.911V50.3632H166.688V50.0995H167.723V49.8358H168.758V49.5721H169.535V49.3085H170.57V49.0448H171.347V48.7811H172.382V48.5174H173.159V48.2537H174.194V47.9901H175.229V47.7263H176.006V47.4627H177.041V47.199H177.818V46.9353H178.853V46.6717H179.629V46.408H180.665V46.1443H181.7V45.8806H182.477V45.6169H183.512V45.3532H184.288V45.0896H185.324V44.8259H186.359V44.5622H187.136V44.2985H188.171V44.0348H188.947V43.7711H189.983V43.5075H190.759V43.2438H191.795V42.9801H192.83V42.7164H193.606V42.4528H194.642V42.1891H195.418V41.9254H196.453V41.6617H197.489V41.398H198.265V41.1343H199.301V40.8706H200.336V40.607H201.112V40.3433H202.148V40.0796H202.924V39.8159H203.96V39.5522H204.995V39.2886H205.771V39.0249H206.807V38.7612H207.842V38.4975H208.619V38.2338H209.654V37.9702H210.43V37.7065H211.466V37.4428H212.501V37.1791H213.278V36.9154H214.313V36.6518H215.348V36.3881H216.125V36.1244H217.16V35.8607H218.195V35.597H218.972V35.3333H220.007V35.0697H221.043V34.806H221.819V34.5423H222.854V34.2786H223.89V34.0149H224.666V33.7513H225.702V33.4876H226.737V33.2239H227.513V32.9602H228.549V32.6965H229.584V32.4329H230.361V32.1692H231.396V31.9055H232.431V31.6418H233.208V31.3781H234.243V31.1144H235.278V30.8508H236.314V30.5871H237.09V30.3234H238.125V30.0597H239.161V29.796H239.937V29.5323H240.973V29.2686H242.008V29.005H243.043V28.7413H243.82V28.4776H244.855V28.2139H245.89V27.9503H246.667V27.6866H247.702V27.4229H248.738V27.1592H249.773V26.8955H250.808V26.6318H251.585V26.3682H252.62V26.1045H253.655V25.8408H254.691V25.5771H255.467V25.3134H256.503V25.0497H257.538V24.7861H258.573V24.5224H259.35V24.2587H260.385V23.9951H261.42V23.7314H262.456V23.4677H263.491V23.204H264.526V22.9403H265.303V22.6766H266.338V22.4129H267.373V22.1493H268.409V21.8856H269.444V21.6219H270.479V21.3582H271.256V21.0945H272.291V20.8309H273.327V20.5672H274.362V20.3035H275.397V20.0398H276.433V19.7761H277.468V19.5125H278.503V19.2488H279.539V18.9851H280.315V18.7214H281.35V18.4577H282.386V18.194H283.421V17.9304H284.456V17.6667H285.492V17.403H286.527V17.1393H287.562V16.8756H288.598V16.612H289.633V16.3483H290.668V16.0846H291.704V15.8209H292.739V15.5572H293.774V15.2935H295.068V15.0299H296.104V14.7662H297.139V14.5025H298.174V14.2388H299.21V13.9751H300.245V13.7114H301.28V13.4478H302.575V13.1841H303.61V12.9204H304.645V12.6567H305.681V12.393H306.716V12.1294H308.01V11.8657H309.045V11.602H310.34V11.3383H311.375V11.0746H312.41V10.8109H313.704V10.5473H314.74V10.2836H316.034V10.0199H317.328V9.75623H318.363V9.49255H319.658V9.22888H320.693V8.96518H321.987V8.70151H323.281V8.43784H324.575V8.17416H325.611V7.91049H326.905V7.64676H328.199V7.38309H329.493V7.11942H330.787V6.85571H332.081V6.59204H333.376V6.32837H334.67V6.0647H335.964V5.80103H337.258V5.53732H338.811V5.27365H340.105V5.00998H341.658V4.74631H342.952V4.48264H344.505V4.2189H345.8V3.95523H347.353V3.69156H348.906V3.42786H350.717V3.16418H352.27V2.90051H353.823V2.63684H355.635V2.37317H357.447V2.10944H359.518V1.84576H361.33V1.58212H363.4V1.31845H365.73V1.05478H368.318V0.791046H370.647V0.527374H374.012V0.263702H377.377V0H401.448V0.263702H405.072V0.527374H407.919V0.791046H409.99V1.05478H412.319V1.31845H414.39V1.58212H415.943V1.84576H417.755V2.10944H419.308V2.37317H420.861V2.63684H422.155V2.90051H423.449V3.16418H424.743V3.42786H426.037V3.69156H427.332V3.95523H428.626V4.2189H429.661V4.48264H430.955V4.74631H431.991V5.00998H433.026V5.27365H434.061V5.53732H435.097V5.80103H436.132V6.0647H437.167V6.32837H437.944V6.59204H438.979V6.85571H439.756V7.11942H440.791V7.38309H441.567V7.64676H442.344V7.91049H443.12V8.17416H443.897V8.43784H444.673V8.70151H445.45V8.96518H446.226V9.22888H447.003V9.49255H447.779V9.75623H448.556V10.0199H449.074V10.2836H449.85V10.5473H450.627V10.8109H451.403V11.0746H451.921V11.3383H452.697V11.602H453.215V11.8657H453.991V12.1294H454.509V12.393H455.286V12.6567H456.062V12.9204H456.58V13.1841H457.097V13.4478H457.874V13.7114H458.392V13.9751H458.909V14.2388H459.686V14.5025H460.203V14.7662H460.98V15.0299H461.497V15.2935H462.015V15.5572H462.533V15.8209H463.05V16.0846H463.827V16.3483H464.345V16.612H464.862V16.8756H465.38V17.1393H465.898V17.403H466.674V17.6667H467.192V17.9304H467.709V18.194H468.227V18.4577H468.745V18.7214H469.262V18.9851H469.78V19.2488H470.298V19.5125H470.815V19.7761H471.333V20.0398H471.851V20.3035H472.368V20.5672H472.886V20.8309H473.404V21.0945H473.921V21.3582H474.439V21.6219H474.957V21.8856H475.216V22.1493H475.733V22.4129H476.251V22.6766H476.769V22.9403H477.286V23.204H477.804V23.4677H478.322V23.7314H478.58V23.9951H479.098V24.2587H479.616V24.5224H480.133V24.7861H480.651V25.0497H480.91V25.3134H481.428V25.5771H481.945V25.8408H482.204V26.1045H482.722V26.3682H483.239V26.6318H483.757V26.8955H484.016V27.1592H484.534V27.4229H485.051V27.6866H485.31V27.9503H485.828V28.2139H486.345V28.4776H486.604V28.7413H487.122V29.005H487.381V29.2686H487.898V29.5323H488.416V29.796H488.675V30.0597H489.193V30.3234H489.451V30.5871H489.969V30.8508H490.487V31.1144H490.745V31.3781H491.263V31.6418H491.522V31.9055H492.04V32.1692H492.298V32.4329H492.816V32.6965H493.075V32.9602H493.593V33.2239H493.852V33.4876H494.369V33.7513H494.628V34.0149H495.146V34.2786H495.404V34.5423H495.663V34.806H496.181V35.0697H496.44V35.3333H496.957V35.597H497.216V35.8607H497.734V36.1244H497.993V36.3881H498.51V36.6518H498.769V36.9154H499.028V37.1791H499.546V37.4428H499.805V37.7065H500.064V37.9702H500.581V38.2338H500.84V38.4975H501.099V38.7612H501.616V39.0249H501.875V39.2886H502.134V39.5522H502.652V39.8159H502.911V40.0796H503.169V40.3433H503.687V40.607H503.946V40.8706H504.205V41.1343H504.722V41.398H504.981V41.6617H505.24V41.9254H505.499V42.1891H506.017V42.4528H506.275V42.7164H506.534V42.9801H506.793V43.2438H507.311V43.5075H507.57V43.7711H507.828V44.0348H508.087V44.2985H508.346V44.5622H508.864V44.8259H509.123V45.0896H509.381V45.3532H509.64V45.6169H510.158V45.8806H510.417V46.1443H510.676V46.408H510.934V46.6717H511.193V46.9353H511.452V47.199H511.97V47.4627H512.229V47.7263H512.487V47.9901H512.746V48.2537H513.005V48.5174H513.264V48.7811H513.523V49.0448H513.782V49.3085H514.04V49.5721H514.558V49.8358H514.817V50.0995H515.076V50.3632H515.335V50.6269H515.593V50.8906H515.852V51.1542H516.111V51.4179H516.37V51.6816H516.629V51.9453H516.888V52.209H517.146V52.4726H517.405V52.7363H517.923V53H518.182V53.2637H518.441V53.5274H518.699V53.791H518.958V54.0547H519.217V54.3184H519.476V54.5821H519.735V54.8458H519.994V55.1094H520.252V55.3732H520.511V55.6368H520.77V55.9005H521.029V56.1642H521.288V56.4279H521.547V56.6916H521.805V56.9552H522.064V57.2189H522.323V57.4826H522.582V57.7463H522.841V58.0099H523.1V58.5373H523.358V58.801H523.617V59.0647H523.876V59.3284H524.135V59.592H524.394V59.8557H524.653V60.1194H524.911V60.3831H525.17V60.6468H525.429V60.9105H525.688V61.4378H525.947V61.7015H526.206V61.9651H526.464V62.2289H526.723V62.4926H526.982V62.7563H527.241V63.0199H527.5V63.2836H527.758V63.5473H528.017V64.0746H528.276V64.3383H528.535V64.602H528.794V64.8657H529.053V65.1294H529.312V65.6567H529.57V65.9204H529.829V66.1841H530.088V66.4478H530.347V66.9751H530.606V67.2388H530.864V67.5025H531.123V67.7662H531.382V68.0298H531.641V68.5572H531.9V68.8209H532.159V69.0846H532.417V69.3483H532.676V69.8756H532.935V70.1393H533.194V70.403H533.453V70.9304H533.712V71.194H533.97V71.4577H534.229V71.9851H534.488V72.2488H534.747V72.5125H535.006V73.0398H535.265V73.3035H535.523V73.8308H535.782V74.0945H536.041V74.3582H536.3V74.8856H536.559V75.1493H536.818V75.6766H537.076V75.9403H537.335V76.204H537.594V76.7314H537.853V76.9951H538.112V77.5224H538.371V77.7861H538.629V78.3135H538.888V78.5771H539.147V79.1045H539.406V79.6319H539.665V79.8955H539.924V80.4229H540.182V80.6866H540.441V81.2139H540.7V81.7413H540.959V82.005H541.218V82.5323H541.477V82.796H541.735V83.3234H541.994V83.5871H542.253V84.1144H542.512V84.6418H542.771V85.1692H543.03V85.6965H543.288V85.9602H543.547V86.4876H543.806V87.0149H544.065V87.5423H544.324V88.0696H544.583V88.597H544.841V88.8607H545.1V89.3881H545.359V89.9154H545.618V90.4428H545.877V90.9702H546.136V91.4975H546.394V91.7612H546.653V92.5523H546.912V93.0796H547.171V93.607H547.43V94.1343H547.689V94.6617H547.947V95.4528H548.206V95.9801H548.465V96.5075H548.724V97.0348H548.983V97.5622H549.242V98.0896H549.5V98.8806H549.759V99.408H550.018V99.9353H550.277V100.726H550.536V101.517H550.795V102.045H551.053V102.836H551.312V103.627H551.571V104.154H551.83V104.945H552.089V105.736H552.348V106.264H552.606V107.055H552.865V107.846H553.124V108.637H553.383V109.428H553.642V110.219H553.901V111.274H554.159V112.065H554.418V113.119H554.677V113.91H554.936V114.701H555.195V115.756H555.454V116.547H555.712V117.866H555.971V118.92H556.23V120.239H556.489V121.557H556.748V122.612H557.006V123.93H557.265V125.249H557.524V126.831H557.783V128.677H558.042V130.522H558.301V132.632H558.559V134.478H558.818V137.642H559.077V142.124H559.336V156.627H559.077V159.527H558.818V162.692H558.559V165.592H558.301V167.702H558.042V169.547H557.783V171.129H557.524V172.711H557.265V174.294H557.006V176.139H556.748V177.721H556.489V179.04H556.23V180.095H555.971V181.149H555.712V182.468H555.454V183.522H555.195V184.577H554.936V185.896H554.677V186.95H554.418V188.269H554.159V189.323H553.901V190.114H553.642V191.169H553.383V191.96H553.124V192.751H552.865V193.806H552.606V194.597H552.348V195.652H552.089V196.443H551.83V197.234H551.571V198.289H551.312V199.08H551.053V199.871H550.795V200.925H550.536V201.716H550.277V202.507H550.018V203.035H549.759V203.826H549.5V204.617H549.242V205.408H548.983V206.199H548.724V206.99H548.465V207.517H548.206V208.308H547.947V209.1H547.689V209.891H547.43V210.682H547.171V211.209H546.912V212H546.653V212.527H546.394V213.318H546.136V213.846H545.877V214.637H545.618V215.164H545.359V215.955H545.1V216.483H544.841V217.01H544.583V217.537H544.324V218.328H544.065V218.856H543.806V219.383H543.547V219.91H543.288V220.438H543.03V221.229H542.771V221.756H542.512V222.02H542.253V222.547H541.994V223.075H541.735V223.602H541.477V224.129H541.218V224.657H540.959V225.184H540.7V225.711H540.441V226.239H540.182V226.766H539.924V227.294H539.665V227.557H539.406V228.085H539.147V228.612H538.888V229.139H538.629V229.403H538.371V229.93H538.112V230.458H537.853V230.721H537.594V231.249H537.335V231.776H537.076V232.04H536.818V232.567H536.559V232.831H536.3V233.358H536.041V233.886H535.782V234.149H535.523V234.677H535.265V235.204H535.006V235.468H534.747V235.995H534.488V236.259H534.229V236.522H533.97V237.05H533.712V237.313H533.453V237.841H533.194V238.104H532.935V238.632H532.676V238.896H532.417V239.159H532.159V239.687H531.9V239.95H531.641V240.478H531.382V240.741H531.123V241.269H530.864V241.532H530.606V241.796H530.347V242.323H530.088V242.587H529.829V242.851H529.57V243.378H529.312V243.642H529.053V243.905H528.794V244.169H528.535V244.697H528.276V244.96H528.017V245.224H527.758V245.488H527.5V246.015H527.241V246.279H526.982V246.542H526.723V246.806H526.464V247.333H526.206V247.597H525.947V247.861H525.688V248.124H525.429V248.652H525.17V248.915H524.911V249.179H524.653V249.443H524.394V249.706H524.135V249.97H523.876V250.234H523.617V250.498H523.358V251.025H523.1V251.289H522.841V251.552H522.582V251.816H522.323V252.08H522.064V252.343H521.805V252.607H521.547V252.871H521.288V253.398H521.029V253.662H520.77V253.925H520.511V254.189H520.252V254.453H519.994V254.716H519.735V254.98H519.476V255.244H519.217V255.507H518.958V255.771H518.699V256.035H518.441V256.299H518.182V256.562H517.923V256.826H517.664V257.09H517.405V257.353H517.146V257.617H516.888V257.881H516.629V258.144H516.37V258.408H516.111V258.672H515.852V258.935H515.593V259.199H515.335V259.463H515.076V259.726H514.817V259.99H514.558V260.254H514.299V260.517H514.04V260.781H513.782V261.045H513.523V261.308H513.264V261.572H513.005V261.836H512.746V262.1H512.487V262.363H512.229V262.627H511.711V262.891H511.452V263.154H511.193V263.418H510.934V263.682H510.676V263.945H510.417V264.209H510.158V264.473H509.899V264.736H509.64V265H509.381V265.264H508.864V265.527H508.605V265.791H508.346V266.055H508.087V266.318H507.828V266.582H507.57V266.846H507.311V267.109H506.793V267.373H506.534V267.637H506.275V267.901H506.017V268.164H505.499V268.428H505.24V268.692H504.981V268.955H504.722V269.219H504.464V269.483H503.946V269.746H503.687V270.01H503.428V270.274H503.169V270.537H502.652V270.801H502.393V271.065H502.134V271.328H501.875V271.592H501.616V271.856H501.099V272.119H500.84V272.383H500.581V272.647H500.064V272.91H499.805V273.174H499.546V273.438H499.028V273.701H498.769V273.965H498.51V274.229H497.993V274.493H497.734V274.756H497.475V275.02H496.957V275.284H496.699V275.547H496.181V275.811H495.922V276.075H495.663V276.338H495.146V276.602H494.887V276.866H494.628V277.129H494.11V277.393H493.852V277.657H493.334V277.92H493.075V278.184H492.557V278.448H492.298V278.711H491.781V278.975H491.522V279.239H491.004V279.502H490.745V279.766H490.228V280.03H489.969V280.294H489.451V280.557H489.193V280.821H488.675V281.085H488.416V281.348H487.898V281.612H487.64V281.876H487.381V282.139H486.863V282.403H486.345V282.667H486.087V282.93H485.569V283.194H485.051V283.458H484.792V283.721H484.275V283.985H483.757V284.249H483.498V284.512H482.981V284.776H482.463V285.04H482.204V285.303H481.686V285.567H481.428V285.831H480.91V286.095H480.392V286.358H480.133V286.622H479.616V286.886H479.098V287.149H478.58V287.413H478.063V287.677H477.804V287.94H477.286V288.204H476.769V288.468H476.251V288.731H475.733V288.995H475.474V289.259H474.957V289.522H474.439V289.786H473.921V290.05H473.404V290.313H473.145V290.577H472.627V290.841H472.11V291.104H471.592V291.368H471.074V291.632H470.557V291.896H470.039V292.159H469.521V292.423H469.004V292.687H468.486V292.95H467.968V293.214H467.451V293.478H466.933V293.741H466.415V294.005H465.898V294.269H465.38V294.532H464.862V294.796H464.345V295.06H463.568V295.323H463.05V295.587H462.533V295.851H462.015V296.114H461.239V296.378H460.721V296.642H460.203V296.905H459.686V297.169H459.168V297.433H458.392V297.697H457.874V297.96H457.356V298.224H456.839V298.488H456.062V298.751H455.544V299.015H454.768V299.279H454.25V299.542H453.474V299.806H452.956V300.07H452.18V300.333H451.662V300.597H450.885V300.861H450.368V301.124H449.591V301.388H449.074V301.652H448.297V301.915H447.779V302.179H447.003V302.443H446.226V302.706H445.45V302.97H444.673V303.234H443.897V303.498H443.379V303.761H442.603V304.025H441.826V304.289H441.05V304.552H440.273V304.816H439.497V305.08H438.72V305.343H437.944V305.607H437.167V305.871H436.132V306.134H435.355V306.398H434.579V306.662H433.802V306.925H433.026V307.189H431.991V307.453H431.214V307.716H430.179V307.98H429.143V308.244H428.367V308.507H427.332V308.771H426.296V309.035H425.261V309.299H424.484V309.562H423.449V309.826H422.414V310.09H421.12V310.353H420.084V310.617H418.79V310.881H417.755V311.144H416.461V311.408H415.425V311.672H414.131V311.935H412.837V312.199H411.284V312.463H409.99V312.726H408.437V312.99H407.143V313.254H405.59V313.517H403.778V313.781H401.707V314.045H399.895V314.308H398.084V314.572H395.754V314.836H392.907V315.099H390.319V315.363H386.695V315.627H381.777V315.891" fill="white"/>
</svg>
